<?xml version="1.0" encoding="UTF-8" standalone="no"?>
<!-- Created with Inkscape (http://www.inkscape.org/) -->

<svg
   xmlns:dc="http://purl.org/dc/elements/1.1/"
   xmlns:cc="http://creativecommons.org/ns#"
   xmlns:rdf="http://www.w3.org/1999/02/22-rdf-syntax-ns#"
   xmlns:svg="http://www.w3.org/2000/svg"
   xmlns="http://www.w3.org/2000/svg"
   xmlns:sodipodi="http://sodipodi.sourceforge.net/DTD/sodipodi-0.dtd"
   xmlns:inkscape="http://www.inkscape.org/namespaces/inkscape"
   version="1.1"
   width="100%"
   height="100%"
   viewBox="0 0 283.46374 70.865372"
   id="svg2"
   inkscape:version="0.48.2 r9819"
   sodipodi:docname="AJAX1.svg">
  <sodipodi:namedview
     pagecolor="#ffffff"
     bordercolor="#666666"
     borderopacity="1"
     objecttolerance="10"
     gridtolerance="10"
     guidetolerance="10"
     inkscape:pageopacity="0"
     inkscape:pageshadow="2"
     inkscape:window-width="1280"
     inkscape:window-height="1004"
     id="namedview317"
     showgrid="false"
     inkscape:zoom="1.8215071"
     inkscape:cx="164.81158"
     inkscape:cy="48.100554"
     inkscape:window-x="-8"
     inkscape:window-y="-8"
     inkscape:window-maximized="1"
     inkscape:current-layer="svg2"
     fit-margin-top="0"
     fit-margin-left="0"
     fit-margin-right="0"
     fit-margin-bottom="0"
     showguides="true"
     inkscape:guide-bbox="true" />
  <metadata
     id="metadata8">
    <rdf:RDF>
      <cc:Work
         rdf:about="">
        <dc:format>image/svg+xml</dc:format>
        <dc:type
           rdf:resource="http://purl.org/dc/dcmitype/StillImage" />
        <dc:title />
      </cc:Work>
    </rdf:RDF>
  </metadata>
  <defs
     id="defs6">
    <clipPath
       id="clipPath220">
      <path
         d="m 0,0 595.276,0 0,841.89 L 0,841.89 0,0 z"
         id="path222"
         inkscape:connector-curvature="0" />
    </clipPath>
    <clipPath
       id="clipPath244">
      <path
         d="m 0,0 595.276,0 0,841.89 L 0,841.89 0,0 z"
         id="path246"
         inkscape:connector-curvature="0" />
    </clipPath>
    <clipPath
       id="clipPath504">
      <path
         d="m 440.788,528.662 58.15,0 0,63.886 -58.15,0 0,-63.886 z"
         id="path506"
         inkscape:connector-curvature="0" />
    </clipPath>
    <clipPath
       id="clipPath564">
      <path
         d="m 167.953,459.481 62.363,0 0,36.85 -62.363,0 0,-36.85 z"
         id="path566"
         inkscape:connector-curvature="0" />
    </clipPath>
    <clipPath
       id="clipPath682">
      <path
         d="m 167.953,459.481 62.363,0 0,36.85 -62.363,0 0,-36.85 z"
         id="path684"
         inkscape:connector-curvature="0" />
    </clipPath>
    <clipPath
       id="clipPath732">
      <path
         d="m 435.827,468.507 62.362,0 0,36.851 -62.362,0 0,-36.851 z"
         id="path734"
         inkscape:connector-curvature="0" />
    </clipPath>
    <clipPath
       id="clipPath860">
      <path
         d="m 34.016,406.772 62.363,0 0,36.85 -62.363,0 0,-36.85 z"
         id="path862"
         inkscape:connector-curvature="0" />
    </clipPath>
    <clipPath
       id="clipPath1118">
      <path
         d="m 167.953,406.772 62.363,0 0,36.85 -62.363,0 0,-36.85 z"
         id="path1120"
         inkscape:connector-curvature="0" />
    </clipPath>
    <clipPath
       id="clipPath1168">
      <path
         d="m 167.953,406.772 62.363,0 0,36.85 -62.363,0 0,-36.85 z"
         id="path1170"
         inkscape:connector-curvature="0" />
    </clipPath>
    <clipPath
       id="clipPath2652">
      <path
         d="m 301.89,406.772 62.362,0 0,36.85 -62.362,0 0,-36.85 z"
         id="path2654"
         inkscape:connector-curvature="0" />
    </clipPath>
    <clipPath
       id="clipPath3618">
      <path
         d="m 435.827,406.772 62.362,0 0,36.85 -62.362,0 0,-36.85 z"
         id="path3620"
         inkscape:connector-curvature="0" />
    </clipPath>
    <clipPath
       id="clipPath3780">
      <path
         d="m 0,0 595.276,0 0,841.89 L 0,841.89 0,0 z"
         id="path3782"
         inkscape:connector-curvature="0" />
    </clipPath>
    <clipPath
       id="clipPath3800">
      <path
         d="m 0,0 595.276,0 0,841.89 L 0,841.89 0,0 z"
         id="path3802"
         inkscape:connector-curvature="0" />
    </clipPath>
    <clipPath
       id="clipPath3820">
      <path
         d="m 0,0 595.276,0 0,841.89 L 0,841.89 0,0 z"
         id="path3822"
         inkscape:connector-curvature="0" />
    </clipPath>
    <clipPath
       id="clipPath3840">
      <path
         d="m 0,0 595.276,0 0,841.89 L 0,841.89 0,0 z"
         id="path3842"
         inkscape:connector-curvature="0" />
    </clipPath>
    <clipPath
       id="clipPath3860">
      <path
         d="m 0,0 595.276,0 0,841.89 L 0,841.89 0,0 z"
         id="path3862"
         inkscape:connector-curvature="0" />
    </clipPath>
    <clipPath
       id="clipPath3880">
      <path
         d="m 0,0 595.276,0 0,841.89 L 0,841.89 0,0 z"
         id="path3882"
         inkscape:connector-curvature="0" />
    </clipPath>
    <clipPath
       id="clipPath3930">
      <path
         d="m 167.953,335.039 62.363,0 0,39.685 -62.363,0 0,-39.685 z"
         id="path3932"
         inkscape:connector-curvature="0" />
    </clipPath>
    <clipPath
       id="clipPath3966">
      <path
         d="m 301.89,335.039 62.362,0 0,39.685 -62.362,0 0,-39.685 z"
         id="path3968"
         inkscape:connector-curvature="0" />
    </clipPath>
    <clipPath
       id="clipPath4000">
      <path
         d="m 34.016,285.165 62.363,0 0,39.686 -62.363,0 0,-39.686 z"
         id="path4002"
         inkscape:connector-curvature="0" />
    </clipPath>
    <clipPath
       id="clipPath4298">
      <path
         d="m 167.953,285.165 62.363,0 0,39.686 -62.363,0 0,-39.686 z"
         id="path4300"
         inkscape:connector-curvature="0" />
    </clipPath>
    <clipPath
       id="clipPath4334">
      <path
         d="m 167.953,285.165 62.363,0 0,39.686 -62.363,0 0,-39.686 z"
         id="path4336"
         inkscape:connector-curvature="0" />
    </clipPath>
    <clipPath
       id="clipPath4620">
      <path
         d="m 301.89,285.165 62.362,0 0,39.686 -62.362,0 0,-39.686 z"
         id="path4622"
         inkscape:connector-curvature="0" />
    </clipPath>
    <clipPath
       id="clipPath4632">
      <path
         d="m 301.89,285.165 62.362,0 0,39.686 -62.362,0 0,-39.686 z"
         id="path4634"
         inkscape:connector-curvature="0" />
    </clipPath>
    <clipPath
       id="clipPath4930">
      <path
         d="m 435.827,285.165 62.362,0 0,39.686 -62.362,0 0,-39.686 z"
         id="path4932"
         inkscape:connector-curvature="0" />
    </clipPath>
    <clipPath
       id="clipPath5206">
      <path
         d="m 0,0 595.276,0 0,841.89 L 0,841.89 0,0 z"
         id="path5208"
         inkscape:connector-curvature="0" />
    </clipPath>
    <clipPath
       id="clipPath5226">
      <path
         d="m 0,0 595.276,0 0,841.89 L 0,841.89 0,0 z"
         id="path5228"
         inkscape:connector-curvature="0" />
    </clipPath>
    <clipPath
       id="clipPath5246">
      <path
         d="m 0,0 595.276,0 0,841.89 L 0,841.89 0,0 z"
         id="path5248"
         inkscape:connector-curvature="0" />
    </clipPath>
    <clipPath
       id="clipPath5266">
      <path
         d="m 0,0 595.276,0 0,841.89 L 0,841.89 0,0 z"
         id="path5268"
         inkscape:connector-curvature="0" />
    </clipPath>
    <clipPath
       id="clipPath5286">
      <path
         d="m 0,0 595.276,0 0,841.89 L 0,841.89 0,0 z"
         id="path5288"
         inkscape:connector-curvature="0" />
    </clipPath>
    <clipPath
       id="clipPath5306">
      <path
         d="m 0,0 595.276,0 0,841.89 L 0,841.89 0,0 z"
         id="path5308"
         inkscape:connector-curvature="0" />
    </clipPath>
    <clipPath
       id="clipPath5326">
      <path
         d="m 0,0 595.276,0 0,841.89 L 0,841.89 0,0 z"
         id="path5328"
         inkscape:connector-curvature="0" />
    </clipPath>
    <clipPath
       id="clipPath5346">
      <path
         d="m 0,0 595.276,0 0,841.89 L 0,841.89 0,0 z"
         id="path5348"
         inkscape:connector-curvature="0" />
    </clipPath>
    <clipPath
       id="clipPath5408">
      <path
         d="m 34.016,163.292 62.363,0 0,39.685 -62.363,0 0,-39.685 z"
         id="path5410"
         inkscape:connector-curvature="0" />
    </clipPath>
    <clipPath
       id="clipPath5718">
      <path
         d="m 167.953,163.292 62.363,0 0,39.685 -62.363,0 0,-39.685 z"
         id="path5720"
         inkscape:connector-curvature="0" />
    </clipPath>
    <clipPath
       id="clipPath5826">
      <path
         d="m 301.89,163.292 62.362,0 0,39.685 -62.362,0 0,-39.685 z"
         id="path5828"
         inkscape:connector-curvature="0" />
    </clipPath>
    <clipPath
       id="clipPath7160">
      <path
         d="m 435.827,163.292 62.362,0 0,39.685 -62.362,0 0,-39.685 z"
         id="path7162"
         inkscape:connector-curvature="0" />
    </clipPath>
    <clipPath
       id="clipPath7504">
      <path
         d="m 0,0 595.276,0 0,841.89 L 0,841.89 0,0 z"
         id="path7506"
         inkscape:connector-curvature="0" />
    </clipPath>
    <clipPath
       id="clipPath7524">
      <path
         d="m 0,0 595.276,0 0,841.89 L 0,841.89 0,0 z"
         id="path7526"
         inkscape:connector-curvature="0" />
    </clipPath>
    <clipPath
       id="clipPath7544">
      <path
         d="m 0,0 595.276,0 0,841.89 L 0,841.89 0,0 z"
         id="path7546"
         inkscape:connector-curvature="0" />
    </clipPath>
    <clipPath
       id="clipPath7564">
      <path
         d="m 0,0 595.276,0 0,841.89 L 0,841.89 0,0 z"
         id="path7566"
         inkscape:connector-curvature="0" />
    </clipPath>
    <clipPath
       id="clipPath7584">
      <path
         d="m 0,0 595.276,0 0,841.89 L 0,841.89 0,0 z"
         id="path7586"
         inkscape:connector-curvature="0" />
    </clipPath>
    <clipPath
       id="clipPath7604">
      <path
         d="m 0,0 595.276,0 0,841.89 L 0,841.89 0,0 z"
         id="path7606"
         inkscape:connector-curvature="0" />
    </clipPath>
    <clipPath
       id="clipPath7624">
      <path
         d="m 0,0 595.276,0 0,841.89 L 0,841.89 0,0 z"
         id="path7626"
         inkscape:connector-curvature="0" />
    </clipPath>
    <clipPath
       id="clipPath7644">
      <path
         d="m 0,0 595.276,0 0,841.89 L 0,841.89 0,0 z"
         id="path7646"
         inkscape:connector-curvature="0" />
    </clipPath>
    <clipPath
       id="clipPath7690">
      <path
         d="m 34.016,91.559 62.363,0 0,39.686 -62.363,0 0,-39.686 z"
         id="path7692"
         inkscape:connector-curvature="0" />
    </clipPath>
    <clipPath
       id="clipPath7714">
      <path
         d="m 435.827,91.559 62.362,0 0,39.686 -62.362,0 0,-39.686 z"
         id="path7716"
         inkscape:connector-curvature="0" />
    </clipPath>
    <clipPath
       id="clipPath7728">
      <path
         d="m 34.016,41.685 62.363,0 0,39.685 -62.363,0 0,-39.685 z"
         id="path7730"
         inkscape:connector-curvature="0" />
    </clipPath>
    <clipPath
       id="clipPath7740">
      <path
         d="m 34.016,41.685 62.363,0 0,39.685 -62.363,0 0,-39.685 z"
         id="path7742"
         inkscape:connector-curvature="0" />
    </clipPath>
    <clipPath
       id="clipPath7802">
      <path
         d="m 167.953,41.685 62.363,0 0,39.685 -62.363,0 0,-39.685 z"
         id="path7804"
         inkscape:connector-curvature="0" />
    </clipPath>
    <clipPath
       id="clipPath8374">
      <path
         d="m 301.89,41.685 62.362,0 0,39.685 -62.362,0 0,-39.685 z"
         id="path8376"
         inkscape:connector-curvature="0" />
    </clipPath>
    <clipPath
       id="clipPath8668">
      <path
         d="m 435.827,41.685 62.362,0 0,39.685 -62.362,0 0,-39.685 z"
         id="path8670"
         inkscape:connector-curvature="0" />
    </clipPath>
    <clipPath
       id="clipPath8680">
      <path
         d="m 435.827,41.685 62.362,0 0,39.685 -62.362,0 0,-39.685 z"
         id="path8682"
         inkscape:connector-curvature="0" />
    </clipPath>
    <clipPath
       id="clipPath8928">
      <path
         d="m 0,0 595.276,0 0,841.89 L 0,841.89 0,0 z"
         id="path8930"
         inkscape:connector-curvature="0" />
    </clipPath>
    <clipPath
       id="clipPath8948">
      <path
         d="m 0,0 595.276,0 0,841.89 L 0,841.89 0,0 z"
         id="path8950"
         inkscape:connector-curvature="0" />
    </clipPath>
    <clipPath
       id="clipPath8968">
      <path
         d="m 0,0 595.276,0 0,841.89 L 0,841.89 0,0 z"
         id="path8970"
         inkscape:connector-curvature="0" />
    </clipPath>
    <clipPath
       id="clipPath8988">
      <path
         d="m 0,0 595.276,0 0,841.89 L 0,841.89 0,0 z"
         id="path8990"
         inkscape:connector-curvature="0" />
    </clipPath>
    <clipPath
       id="clipPath9008">
      <path
         d="m 0,0 595.276,0 0,841.89 L 0,841.89 0,0 z"
         id="path9010"
         inkscape:connector-curvature="0" />
    </clipPath>
    <clipPath
       id="clipPath9028">
      <path
         d="m 0,0 595.276,0 0,841.89 L 0,841.89 0,0 z"
         id="path9030"
         inkscape:connector-curvature="0" />
    </clipPath>
    <clipPath
       id="clipPath9048">
      <path
         d="m 0,0 595.276,0 0,841.89 L 0,841.89 0,0 z"
         id="path9050"
         inkscape:connector-curvature="0" />
    </clipPath>
    <clipPath
       id="clipPath9068">
      <path
         d="m 0,0 595.276,0 0,841.89 L 0,841.89 0,0 z"
         id="path9070"
         inkscape:connector-curvature="0" />
    </clipPath>
    <clipPath
       id="clipPath9088">
      <path
         d="m 0,0 595.276,0 0,841.89 L 0,841.89 0,0 z"
         id="path9090"
         inkscape:connector-curvature="0" />
    </clipPath>
    <clipPath
       id="clipPath9104">
      <path
         d="m 0,0 595.276,0 0,841.89 L 0,841.89 0,0 z"
         id="path9106"
         inkscape:connector-curvature="0" />
    </clipPath>
    <clipPath
       id="clipPath9132">
      <path
         d="m 0,0 595.276,0 0,841.89 L 0,841.89 0,0 z"
         id="path9134"
         inkscape:connector-curvature="0" />
    </clipPath>
    <clipPath
       id="clipPath9142">
      <path
         d="m 0,841.89 595.276,0 L 595.276,0 0,0 0,841.89 z"
         id="path9144"
         inkscape:connector-curvature="0" />
    </clipPath>
    <clipPath
       id="clipPath9160">
      <path
         d="m 0,0 595.276,0 0,841.89 L 0,841.89 0,0 z"
         id="path9162"
         inkscape:connector-curvature="0" />
    </clipPath>
    <clipPath
       id="clipPath9170">
      <path
         d="m 0,841.89 595.276,0 L 595.276,0 0,0 0,841.89 z"
         id="path9172"
         inkscape:connector-curvature="0" />
    </clipPath>
    <clipPath
       id="clipPath9190">
      <path
         d="m 0,841.89 595.276,0 L 595.276,0 0,0 0,841.89 z"
         id="path9192"
         inkscape:connector-curvature="0" />
    </clipPath>
    <clipPath
       id="clipPath7160-4">
      <path
         d="m 435.827,163.292 62.362,0 0,39.685 -62.362,0 0,-39.685 z"
         id="path7162-0"
         inkscape:connector-curvature="0" />
    </clipPath>
  </defs>
  <g
     id="g3141"
     transform="translate(59.334843,-42.567917)"
     style="fill:#ffdb00;fill-opacity:1;stroke:none" />
  <path
     inkscape:connector-curvature="0"
     style="fill:#000000;fill-rule:nonzero;stroke:none"
     d="M -4.1504431e-6,8.857425 C -4.1504431e-6,3.96485 3.9660583,0 8.8586333,0 L 274.6075,0 c 4.8925,0 8.85625,3.96485 8.85625,8.857425 l 0,53.149325 c 0,4.892625 -3.96375,8.858625 -8.85625,8.858625 l -265.7488667,0 c -4.892575,0 -8.8586374504431,-3.966 -8.8586374504431,-8.858625 l 0,-53.149325 z"
     id="path11" />
  <path
     style="fill:#ffffff;fill-rule:nonzero;stroke:none"
     d="M 35.437496,-0.007331 -4.1504431e-6,35.430169 35.437496,70.867669 l 35.0625,0 -35.4375,-35.4375 35.4375,-35.4375 z"
     id="path13"
     inkscape:connector-curvature="0"
     sodipodi:nodetypes="ccccccc" />
  <path
     style="fill:#ffffff;fill-rule:nonzero;stroke:none"
     d="m 106.3125,-0.007331 -35.437504,35.4375 35.437504,35.4375 35.0625,0 -35.4375,-35.4375 35.4375,-35.4375 z"
     id="path23"
     inkscape:connector-curvature="0"
     sodipodi:nodetypes="ccccccc" />
  <path
     inkscape:connector-curvature="0"
     style="fill:none;stroke:none"
     d="M 115.06963,70.865375 79.636246,35.43325 115.06963,0"
     id="path29" />
  <path
     style="fill:#ffffff;fill-opacity:1;fill-rule:nonzero;stroke:none"
     d="m 177.15625,-0.007331 -35.4375,35.4375 35.4375,35.4375 35.09375,0 -35.4375,-35.4375 35.4375,-35.4375 z"
     id="path33"
     inkscape:connector-curvature="0"
     sodipodi:nodetypes="ccccccc" />
  <path
     style="fill:#ffffff;fill-opacity:1;fill-rule:nonzero;stroke:none"
     d="m 248.03125,-0.007331 -35.4375,35.4375 35.4375,35.4375 26.3125,0 0.25,0 c 2.355,0 4.50625,-0.906 6.09375,-2.40625 l -33,-33.03125 33,-33 c -1.5875,-1.500247 -3.73875,-2.4375 -6.09375,-2.4375 l -0.25,0 z"
     id="path43"
     inkscape:connector-curvature="0"
     sodipodi:nodetypes="ccccscccscc" />
  <path
     inkscape:connector-curvature="0"
     style="fill:none;stroke:#000000;stroke-width:0.5;stroke-linecap:butt;stroke-linejoin:miter;stroke-miterlimit:4;stroke-opacity:1;stroke-dasharray:none"
     d="M 44.201659,70.865375 8.7695333,35.43325 44.202909,0"
     id="path19" />
  <path
     inkscape:connector-curvature="0"
     style="fill:none;stroke:#000000;stroke-width:0.5;stroke-linecap:butt;stroke-linejoin:miter;stroke-miterlimit:4;stroke-opacity:1;stroke-dasharray:none"
     d="M 61.740746,0 26.307372,35.43325 61.740746,70.865375"
     id="path21" />
  <path
     inkscape:connector-curvature="0"
     style="fill:none;stroke:#000000;stroke-width:0.5;stroke-linecap:butt;stroke-linejoin:miter;stroke-miterlimit:4;stroke-opacity:1;stroke-dasharray:none"
     d="M 115.06963,70.865375 79.636247,35.43325 115.06963,0"
     id="path29-7" />
  <path
     inkscape:connector-curvature="0"
     style="fill:none;stroke:#000000;stroke-width:0.5;stroke-linecap:butt;stroke-linejoin:miter;stroke-miterlimit:4;stroke-opacity:1;stroke-dasharray:none"
     d="M 132.60875,0 97.175247,35.43325 132.6075,70.865375"
     id="path31" />
  <path
     inkscape:connector-curvature="0"
     style="fill:none;stroke:#000000;stroke-width:0.5;stroke-linecap:butt;stroke-linejoin:miter;stroke-miterlimit:4;stroke-opacity:1;stroke-dasharray:none"
     d="M 185.935,70.865375 150.5025,35.43325 185.93625,0"
     id="path39" />
  <path
     inkscape:connector-curvature="0"
     style="fill:none;stroke:#000000;stroke-width:0.5;stroke-linecap:butt;stroke-linejoin:miter;stroke-miterlimit:4;stroke-opacity:1;stroke-dasharray:none"
     d="m 203.47375,0 -35.4325,35.43325 35.4325,35.432125"
     id="path41" />
  <path
     inkscape:connector-curvature="0"
     style="fill:none;stroke:#000000;stroke-width:0.5;stroke-linecap:butt;stroke-linejoin:miter;stroke-miterlimit:4;stroke-opacity:1;stroke-dasharray:none"
     d="M 256.8025,70.865375 221.37,35.43325 256.8025,0"
     id="path47" />
  <path
     inkscape:connector-curvature="0"
     style="fill:none;stroke:#000000;stroke-width:0.5;stroke-linecap:butt;stroke-linejoin:miter;stroke-miterlimit:4;stroke-opacity:1;stroke-dasharray:none"
     d="m 274.3425,0 -35.43375,35.43325 35.4325,35.432125"
     id="path51" />
</svg>
