<?xml version="1.0" encoding="UTF-8" standalone="no"?>
<!-- Created with Inkscape (http://www.inkscape.org/) -->

<svg
   xmlns:dc="http://purl.org/dc/elements/1.1/"
   xmlns:cc="http://creativecommons.org/ns#"
   xmlns:rdf="http://www.w3.org/1999/02/22-rdf-syntax-ns#"
   xmlns:svg="http://www.w3.org/2000/svg"
   xmlns="http://www.w3.org/2000/svg"
   xmlns:sodipodi="http://sodipodi.sourceforge.net/DTD/sodipodi-0.dtd"
   xmlns:inkscape="http://www.inkscape.org/namespaces/inkscape"
   id="svg17624"
   version="1.1"
   inkscape:version="0.48.2 r9819"
   width="214.50156"
   height="356.25937"
   xml:space="preserve"
   sodipodi:docname="AJAX1.svg"><metadata
     id="metadata17630"><rdf:RDF><cc:Work
         rdf:about=""><dc:format>image/svg+xml</dc:format><dc:type
           rdf:resource="http://purl.org/dc/dcmitype/StillImage" /><dc:title /></cc:Work></rdf:RDF></metadata><defs
     id="defs17628"><inkscape:perspective
       sodipodi:type="inkscape:persp3d"
       inkscape:vp_x="0 : 0.5 : 1"
       inkscape:vp_y="0 : 1000 : 0"
       inkscape:vp_z="1 : 0.5 : 1"
       inkscape:persp3d-origin="0.5 : 0.33333333 : 1"
       id="perspective17632" /><clipPath
       clipPathUnits="userSpaceOnUse"
       id="clipPath17642"><path
         d="m -2,710 501,0 0,-711 -501,0 0,711 z"
         id="path17644"
         inkscape:connector-curvature="0" /></clipPath><clipPath
       clipPathUnits="userSpaceOnUse"
       id="clipPath17648"><path
         d="m 0,708.06 498,0 0,-708 -498,0 0,708 z"
         id="path17650"
         inkscape:connector-curvature="0" /></clipPath><clipPath
       clipPathUnits="userSpaceOnUse"
       id="clipPath17798"><path
         d="m -2,710 501,0 0,-711 -501,0 0,711 z"
         id="path17800"
         inkscape:connector-curvature="0" /></clipPath><clipPath
       clipPathUnits="userSpaceOnUse"
       id="clipPath17804"><path
         d="m 0,708.06 498,0 0,-708 -498,0 0,708 z"
         id="path17806"
         inkscape:connector-curvature="0" /></clipPath><clipPath
       id="Clip0"><path
         inkscape:connector-curvature="0"
         d="m 0,0 212.597,0 0,269.292 L 0,269.292 0,0 z"
         transform="translate(0.923828,0.879883)"
         id="path7" /></clipPath><clipPath
       id="Clip0-8"><path
         inkscape:connector-curvature="0"
         d="m 0,0 170.079,0 0,113.386 L 0,113.386 0,0 z"
         transform="translate(0.0986328,0.822266)"
         id="path7-8" /></clipPath><clipPath
       id="Clip0-1"><path
         inkscape:connector-curvature="0"
         d="m 0,0 287.009,0 0,159.449 L 0,159.449 0,0 z"
         transform="translate(0.396484,0.267578)"
         id="path7-7" /></clipPath><clipPath
       id="Clip0-9"><path
         inkscape:connector-curvature="0"
         d="m 0,0 170.079,0 0,170.079 L 0,170.079 0,0 z"
         transform="translate(0.460938,0.775391)"
         id="path7-4" /></clipPath><clipPath
       id="Clip0-4"><path
         inkscape:connector-curvature="0"
         d="m 0,0 340.157,0 0,226.771 L 0,226.771 0,0 z"
         transform="translate(0.921875,0.25293)"
         id="path7-5" /></clipPath><clipPath
       id="Clip0-5"><path
         inkscape:connector-curvature="0"
         d="m 0,0 255.119,0 0,170.079 L 0,170.079 0,0 z"
         transform="translate(0.147461,0.0595703)"
         id="path7-1" /></clipPath><clipPath
       id="Clip0-0"><path
         inkscape:connector-curvature="0"
         d="m 0,0 170.079,0 0,113.386 L 0,113.386 0,0 z"
         transform="translate(0.0673828,0.207031)"
         id="path7-9" /></clipPath></defs><sodipodi:namedview
     pagecolor="#ffffff"
     bordercolor="#666666"
     borderopacity="1"
     objecttolerance="10"
     gridtolerance="10"
     guidetolerance="10"
     inkscape:pageopacity="0"
     inkscape:pageshadow="2"
     inkscape:window-width="1280"
     inkscape:window-height="1004"
     id="namedview17626"
     showgrid="false"
     inkscape:zoom="1.4142136"
     inkscape:cx="230.02475"
     inkscape:cy="84.562087"
     inkscape:window-x="-8"
     inkscape:window-y="-8"
     inkscape:window-maximized="1"
     inkscape:current-layer="g17634"
     fit-margin-top="0.2"
     fit-margin-left="0.2"
     fit-margin-right="0.2"
     fit-margin-bottom="0.2"
     showguides="true"
     inkscape:guide-bbox="true" /><g
     id="g17634"
     inkscape:groupmode="layer"
     inkscape:label="GG1999P002"
     transform="matrix(1.25,0,0,-1.25,3308.0906,-1198.3156)"><path
       inkscape:connector-curvature="0"
       style="fill:#ffffff;fill-rule:nonzero;stroke:#000000;stroke-width:1.20000005;stroke-miterlimit:4;stroke-opacity:1;stroke-dasharray:none"
       d="m -2645.7136,-973.59892 c 0,7.82817 6.3457,14.1729 14.1738,14.1729 l 141.7322,0 c 7.828,0 14.173,-6.34473 14.173,-14.1729 l 0,-255.11818 c 0,-7.828 -6.345,-14.173 -14.173,-14.173 l -141.7322,0 c -7.8281,0 -14.1738,6.345 -14.1738,14.173 l 0,255.11818 z"
       id="path11" /><path
       inkscape:connector-curvature="0"
       style="fill:#c0111e;fill-opacity:1;fill-rule:nonzero;stroke:none"
       d="m -2641.7448,-973.59886 c 0,5.63574 4.5683,10.2041 10.2051,10.2041 l 141.7319,0 c 5.636,0 10.205,-4.56836 10.205,-10.2041 l 0,-255.11794 c 0,-5.636 -4.569,-10.205 -10.205,-10.205 l -141.7319,0 c -5.6368,0 -10.2051,4.569 -10.2051,10.205 l 0,255.11794 z"
       id="path13" /><path
       inkscape:connector-curvature="0"
       style="fill:#ffffff;fill-rule:nonzero;stroke:none"
       d="m -2636.0758,-973.5989 c 0,2.5049 2.0312,4.5352 4.5361,4.5352 l 141.7319,0 c 2.505,0 4.536,-2.0303 4.536,-4.5352 l 0,-255.1188 c 0,-2.505 -2.031,-4.534 -4.536,-4.534 l -141.7319,0 c -2.5049,0 -4.5361,2.029 -4.5361,4.534 l 0,255.1188 z"
       id="path15" /><path
       inkscape:connector-curvature="0"
       style="fill:#000000;fill-rule:evenodd;stroke:none"
       d="m -2564.777,-1007.1907 9.166,0 c 1.2705,0 2.3945,-0.4892 3.374,-1.4687 1.0049,-0.9522 1.5078,-2.0098 1.5078,-3.1748 0,-1.5342 -0.4238,-2.8438 -1.2705,-3.9287 -0.8467,-1.084 -1.9306,-1.627 -3.2539,-1.627 l -9.5234,0 0,10.1992 z m -6.1514,5.8741 0,-39.6846 6.1514,0 0,17.3418 8.2138,0 c 3.545,0 6.4825,1.1504 8.8106,3.4521 2.2479,2.2491 3.3729,5.0274 3.3729,8.334 0,2.9629 -1.125,5.4629 -3.3729,7.5 -2.249,2.0371 -4.9082,3.0557 -7.9766,3.0567 l -15.1992,0 z"
       id="path59" /><path
       inkscape:connector-curvature="0"
       style="fill:#c0111e;fill-opacity:1;fill-rule:nonzero;stroke:none"
       d="m -2617.362,-1198.1673 91.4953,0 0,8.504 21.8897,-12.755 -21.8897,-12.757 0,8.504 -91.4953,0 0,8.504 z"
       id="path17" /><path
       inkscape:connector-curvature="0"
       style="fill:#c0111e;fill-opacity:1;fill-rule:nonzero;stroke:none"
       d="m -2613.4743,-1091.1733 0,3.431 -9.1172,0 0,5.955 7.8711,0 0,3.398 -7.8711,0 0,5.582 8.5869,0 0,3.461 -11.7412,0 0,-21.827 12.2715,0 z"
       id="path19" /><path
       inkscape:connector-curvature="0"
       style="fill:#c0111e;fill-opacity:1;fill-rule:evenodd;stroke:none"
       d="m -2592.6423,-1091.1733 0,8.918 c 0,2.401 -0.1591,3.586 -0.6367,4.522 -0.7148,1.558 -2.1201,2.4 -3.8427,2.4 -1.5899,0 -2.6768,-0.623 -3.6309,-2.089 -0.7158,1.435 -1.8291,2.12 -3.3662,2.12 -1.2979,0 -2.1729,-0.468 -3.1797,-1.652 l 0,1.372 -2.7832,0 0,-15.591 2.7832,0 0,8.856 c 0,1.248 0.1318,1.964 0.5293,2.556 0.4248,0.718 1.166,1.186 1.8818,1.186 0.6358,0 1.2989,-0.343 1.67,-0.967 0.3447,-0.562 0.4238,-1.061 0.4238,-2.682 l 0,-8.949 2.916,0 0,8.949 c 0,1.434 0.079,1.965 0.3975,2.463 0.4502,0.749 1.1923,1.217 1.9345,1.217 0.8213,0 1.4844,-0.468 1.8018,-1.247 0.1855,-0.468 0.2392,-1.123 0.2392,-2.433 l 0,-8.949 2.8623,0 z"
       id="path21" /><path
       inkscape:connector-curvature="0"
       style="fill:#c0111e;fill-opacity:1;fill-rule:evenodd;stroke:none"
       d="m -2577.0319,-1084.6243 0,0.685 c 0,5.426 -2.2793,8.7 -6.0693,8.7 -3.5782,0 -5.9629,-3.243 -5.9629,-8.044 0,-4.897 2.4648,-8.295 6.3076,-8.295 1.9883,0 3.8691,0.718 5.0351,3.274 l -2.0937,2.089 c -1.0859,-1.871 -1.749,-2.12 -2.915,-2.12 -1.9082,0 -3.127,1.403 -3.3399,3.711 l 9.0381,0 z m -3.0215,2.619 -6.0166,0 c 0.08,0.936 0.1856,1.371 0.4248,1.87 0.5557,1.123 1.5371,1.809 2.624,1.809 1.7227,0 2.8887,-1.435 2.9678,-3.679 z"
       id="path23" /><path
       inkscape:connector-curvature="0"
       style="fill:#c0111e;fill-opacity:1;fill-rule:nonzero;stroke:none"
       d="m -2566.8805,-1078.7943 0,3.398 c -0.292,0.033 -0.5039,0.033 -0.6368,0.033 -1.5634,0 -2.5966,-0.562 -3.6044,-2.028 l 0,1.809 -2.7832,0 0,-15.591 2.8095,0 0,7.234 c 0,2.37 0.3975,3.618 1.3252,4.397 0.6895,0.499 1.3789,0.717 2.8897,0.748 z"
       id="path25" /><path
       inkscape:connector-curvature="0"
       style="fill:#c0111e;fill-opacity:1;fill-rule:evenodd;stroke:none"
       d="m -2553.152,-1088.6783 0,13.096 -2.8623,0 0,-1.154 c -0.9541,0.998 -1.9883,1.465 -3.2598,1.465 -3.1807,0 -5.5391,-3.118 -5.5391,-7.327 0,-4.334 2.3047,-7.296 5.6446,-7.296 1.2461,0 2.3056,0.406 3.1543,1.216 l 0,-0.904 c 0,-1.217 -0.054,-1.652 -0.2656,-2.12 -0.4239,-0.873 -1.4571,-1.435 -2.8096,-1.435 -1.1651,0 -2.4112,0.374 -4.0547,1.185 l -1.0869,-2.9 c 1.6972,-0.998 3.6582,-1.528 5.5928,-1.528 2.3584,0 3.8964,0.718 4.7968,2.276 0.6367,1.123 0.6895,1.466 0.6895,5.426 z m -2.8623,5.987 c 0,-2.5879 -0.9805,-3.929 -2.836,-3.929 -1.8027,0 -2.9423,1.528 -2.9423,3.991 0,2.4 1.246,4.085 2.9951,4.085 0.7949,0 1.5898,-0.405 2.0674,-1.123 0.5039,-0.686 0.7158,-1.559 0.7158,-3.024 z"
       id="path27" /><path
       inkscape:connector-curvature="0"
       style="fill:#c0111e;fill-opacity:1;fill-rule:evenodd;stroke:none"
       d="m -2537.8067,-1084.6243 0,0.685 c 0,5.426 -2.279,8.7 -6.069,8.7 -3.5781,0 -5.9638,-3.243 -5.9638,-8.044 0,-4.897 2.4648,-8.295 6.3078,-8.295 1.988,0 3.87,0.718 5.036,3.274 l -2.094,2.089 c -1.087,-1.871 -1.749,-2.12 -2.915,-2.12 -1.908,0 -3.1278,1.403 -3.3397,3.711 l 9.0377,0 z m -3.021,2.619 -6.0167,0 c 0.079,0.936 0.1855,1.371 0.4238,1.87 0.5569,1.123 1.5369,1.809 2.6239,1.809 1.723,0 2.889,-1.435 2.969,-3.679 z"
       id="path29" /><path
       inkscape:connector-curvature="0"
       style="fill:#c0111e;fill-opacity:1;fill-rule:evenodd;stroke:none"
       d="m -2523.9447,-1091.1733 0,9.542 c 0,2.338 -0.186,3.43 -0.849,4.459 -0.795,1.216 -2.12,1.933 -3.71,1.933 -1.299,0 -2.12,-0.343 -3.366,-1.528 l 0,1.185 -2.81,0 0,-15.591 2.81,0 0,8.824 c 0,1.341 0.185,2.153 0.663,2.776 0.477,0.624 1.352,1.029 2.094,1.029 0.768,0 1.537,-0.405 1.882,-1.029 0.317,-0.5619 0.423,-1.247 0.423,-2.7439 l 0,-8.856 2.863,0 z"
       id="path31" /><path
       inkscape:connector-curvature="0"
       style="fill:#c0111e;fill-opacity:1;fill-rule:nonzero;stroke:none"
       d="m -2508.9437,-1087.2753 -2.544,1.465 c -0.742,-1.683 -1.644,-2.462 -2.889,-2.462 -1.935,0 -3.287,1.995 -3.287,4.895 0,2.743 1.378,4.833 3.207,4.833 1.245,0 2.067,-0.718 2.836,-2.3699 l 2.57,1.528 c -0.953,2.588 -2.888,3.99 -5.326,3.99 -3.658,0 -6.176,-3.273 -6.176,-7.981 0,-4.739 2.465,-8.014 6.043,-8.014 2.491,0 4.506,1.465 5.566,4.116 z"
       id="path33" /><path
       inkscape:connector-curvature="0"
       style="fill:#c0111e;fill-opacity:1;fill-rule:nonzero;stroke:none"
       d="m -2495.5857,-1075.5823 -3.101,0 -2.916,-10.882 -2.676,10.882 -3.234,0 4.506,-15.996 c -0.425,-1.278 -0.796,-1.621 -1.722,-1.621 -0.504,0 -0.849,0.062 -1.485,0.374 l -0.61,-2.807 c 0.875,-0.374 1.67,-0.592 2.624,-0.592 1.113,0 1.882,0.249 2.438,0.811 0.504,0.468 0.716,0.935 1.166,2.4 l 5.01,17.431 z"
       id="path35" /><path
       inkscape:connector-curvature="0"
       style="fill:#c0111e;fill-opacity:1;fill-rule:nonzero;stroke:none"
       d="m -2589.5934,-1110.5533 -3.2061,0 -4.1611,-17.18 -4.1611,17.18 -3.2071,0 5.5655,-21.827 3.7373,0 5.4326,21.827 z"
       id="path37" /><path
       inkscape:connector-curvature="0"
       style="fill:#c0111e;fill-opacity:1;fill-rule:evenodd;stroke:none"
       d="m -2575.3073,-1125.8313 0,0.685 c 0,5.426 -2.2793,8.7 -6.0703,8.7 -3.5772,0 -5.9629,-3.243 -5.9629,-8.045 0,-4.896 2.4648,-8.294 6.3076,-8.294 1.9883,0 3.8701,0.717 5.0362,3.274 l -2.0938,2.089 c -1.0869,-1.871 -1.749,-2.12 -2.915,-2.12 -1.9092,0 -3.128,1.403 -3.3399,3.711 l 9.0381,0 z m -3.0215,2.619 -6.0166,0 c 0.079,0.935 0.1856,1.371 0.4238,1.87 0.5567,1.123 1.5372,1.809 2.6241,1.809 1.7226,0 2.8886,-1.435 2.9687,-3.679 z"
       id="path39" /><path
       inkscape:connector-curvature="0"
       style="fill:#c0111e;fill-opacity:1;fill-rule:nonzero;stroke:none"
       d="m -2561.2341,-1132.3803 0,9.76 c 0,2.027 -0.1855,2.962 -0.7158,3.96 -0.7422,1.434 -2.1992,2.2761 -3.7636,2.2761 -1.4307,0 -2.4649,-0.4681 -3.6045,-1.716 l 0,7.297 -2.8623,0 0,-21.577 2.8623,0 0,8.201 c 0,2.9 0.9804,4.397 2.8095,4.397 0.8477,0 1.4844,-0.3131 1.9346,-0.998 0.3447,-0.562 0.4512,-1.1231 0.4512,-2.464 l 0,-9.136 2.8886,0 z"
       id="path41" /><path
       inkscape:connector-curvature="0"
       style="fill:#c0111e;fill-opacity:1;fill-rule:evenodd;stroke:none"
       d="m -2554.1042,-1112.7673 c 0,1.091 -0.8222,2.089 -1.75,2.089 -1.0332,0 -1.8545,-0.967 -1.8545,-2.089 0,-1.1849 0.8213,-2.1199 1.8282,-2.1199 0.9541,0 1.7763,0.935 1.7763,2.1199 z m -0.3711,-19.613 0,15.564 -2.8632,0 0,-15.564 2.8632,0 z"
       id="path43" /><path
       inkscape:connector-curvature="0"
       style="fill:#c0111e;fill-opacity:1;fill-rule:nonzero;stroke:none"
       d="m -2539.2887,-1128.4823 -2.545,1.465 c -0.742,-1.683 -1.644,-2.463 -2.889,-2.463 -1.9342,0 -3.2867,1.996 -3.2867,4.895 0,2.744 1.3789,4.833 3.2067,4.833 1.246,0 2.068,-0.717 2.836,-2.369 l 2.572,1.528 c -0.955,2.588 -2.889,3.99 -5.328,3.99 -3.6569,0 -6.1754,-3.2729 -6.1754,-7.982 0,-4.738 2.4648,-8.0129 6.0434,-8.0129 2.491,0 4.505,1.4649 5.566,4.116 z"
       id="path45" /><path
       inkscape:connector-curvature="0"
       style="fill:#c0111e;fill-opacity:1;fill-rule:nonzero;stroke:none"
       d="m -2530.7277,-1132.3173 -0.583,2.806 c -0.902,-0.062 -0.637,-0.062 -0.928,-0.062 -1.166,0 -1.485,0.436 -1.485,2.026 l 0,16.744 -2.809,0 0,-17.242 c 0,-2.3389 0.212,-3.15 1.008,-3.836 0.582,-0.499 1.297,-0.717 2.358,-0.717 0.742,0 1.802,0.124 2.439,0.281 z"
       id="path47" /><path
       inkscape:connector-curvature="0"
       style="fill:#c0111e;fill-opacity:1;fill-rule:evenodd;stroke:none"
       d="m -2516.9997,-1125.8313 0,0.685 c 0,5.426 -2.279,8.7 -6.069,8.7 -3.578,0 -5.963,-3.243 -5.963,-8.045 0,-4.896 2.465,-8.294 6.307,-8.294 1.989,0 3.871,0.717 5.037,3.274 l -2.094,2.089 c -1.087,-1.871 -1.75,-2.12 -2.916,-2.12 -1.908,0 -3.127,1.403 -3.34,3.711 l 9.038,0 z m -3.021,2.619 -6.017,0 c 0.08,0.935 0.185,1.371 0.425,1.87 0.556,1.123 1.537,1.809 2.623,1.809 1.723,0 2.889,-1.435 2.969,-3.679 z"
       id="path49" /><path
       inkscape:connector-curvature="0"
       style="fill:#c0111e;fill-opacity:1;fill-rule:nonzero;stroke:none"
       d="m -2574.8044,-1162.8923 c 0,1.59 -0.4502,2.994 -1.3252,4.116 -0.9277,1.154 -1.9345,1.715 -4.1347,2.1511 -2.2266,0.4369 -2.624,0.5299 -3.4717,0.967 -1.0596,0.468 -1.4844,1.309 -1.4844,2.339 0,1.777 1.5645,3.0239 3.6319,3.0239 1.6425,0 2.3046,-0.654 3.6836,-2.3689 l 2.7822,1.3399 c -1.2451,3.368 -3.7364,4.365 -6.7051,4.365 -3.9229,0 -6.626,-2.587 -6.626,-6.4539 0,-1.933 0.6631,-3.5851 1.8555,-4.677 0.9277,-0.78 1.8027,-1.216 4.1074,-1.683 1.8818,-0.344 2.3067,-0.531 2.9688,-0.905 0.9541,-0.53 1.4843,-1.434 1.4843,-2.588 0,-1.808 -1.3252,-3.149 -3.4453,-3.149 -1.9345,0 -3.4453,0.935 -5.1943,3.118 l -2.4922,-2.152 c 2.041,-2.837 4.6914,-4.272 7.8457,-4.272 4.0283,0 6.5195,2.713 6.5195,6.829 z"
       id="path51" /><path
       inkscape:connector-curvature="0"
       style="fill:#c0111e;fill-opacity:1;fill-rule:nonzero;stroke:none"
       d="m -2563.0895,-1169.0043 -0.3447,2.932 c -0.6094,-0.124 -1.1133,-0.188 -1.5899,-0.188 -1.3779,0 -1.6963,0.437 -1.6963,2.37 l 0,7.36 3.4453,0 0,2.868 -3.4453,0 0,6.236 -2.8095,0 0,-6.236 -2.4385,0 0,-2.868 2.4385,0 0,-8.482 c 0,-3.149 1.0068,-4.427 3.6044,-4.427 0.9014,0 1.9346,0.155 2.836,0.435 z"
       id="path53" /><path
       inkscape:connector-curvature="0"
       style="fill:#c0111e;fill-opacity:1;fill-rule:evenodd;stroke:none"
       d="m -2548.3532,-1161.5203 c 0,4.865 -2.624,8.232 -6.4932,8.232 -3.6845,0 -6.1494,-3.305 -6.1494,-8.232 0,-4.833 2.5977,-8.169 6.3604,-8.169 3.7109,0 6.2822,3.367 6.2822,8.169 z m -3.0215,0.062 c 0,-2.992 -1.3779,-4.988 -3.3662,-4.988 -2.041,0 -3.3926,1.996 -3.3926,4.988 0,2.932 1.3789,4.989 3.419,4.989 2.0146,0 3.3398,-1.995 3.3398,-4.989 z"
       id="path55" /><path
       inkscape:connector-curvature="0"
       style="fill:#c0111e;fill-opacity:1;fill-rule:evenodd;stroke:none"
       d="m -2532.1597,-1161.4893 c 0,4.771 -2.385,8.107 -5.83,8.107 -1.458,0 -2.36,-0.436 -3.526,-1.777 l 0,1.497 -2.809,0 0,-21.826 2.809,0 0,7.576 c 1.114,-1.153 2.174,-1.621 3.579,-1.621 3.366,0 5.777,3.367 5.777,8.044 z m -2.995,-0.093 c 0,-2.932 -1.298,-4.802 -3.286,-4.802 -0.901,0 -1.617,0.374 -2.201,1.061 -0.635,0.747 -0.821,1.652 -0.821,3.927 0,1.685 0.107,2.589 0.451,3.275 0.477,0.935 1.484,1.558 2.571,1.558 2.041,0 3.286,-1.932 3.286,-5.019 z"
       id="path57" /><path
       inkscape:connector-curvature="0"
       style="fill:#c0111e;fill-opacity:1;fill-rule:nonzero;stroke:none"
       d="m -2586.235,-1021.1565 c 0,-14.0898 11.4218,-25.5117 25.5107,-25.5117 6.0244,0 11.5596,2.0879 15.9246,5.5791 l -35.8572,35.8564 c -3.4912,-4.3642 -5.5781,-9.9003 -5.5781,-15.9238 z m 9.5869,19.9326 35.8564,-35.8574 c 3.491,4.3651 5.579,9.9004 5.579,15.9248 0,14.0899 -11.4217,25.5108 -25.5116,25.5108 -6.0234,0 -11.5596,-2.087 -15.9238,-5.5782 z m -18.0908,-19.9326 c 0,18.7862 15.2285,34.0147 34.0146,34.0147 18.7876,0 34.0156,-15.2285 34.0156,-34.0147 0,-18.7871 -15.228,-34.0157 -34.0156,-34.0157 -18.7861,0 -34.0146,15.2286 -34.0146,34.0157 z"
       id="path61" /></g></svg>