<?xml version="1.0" encoding="UTF-8" standalone="no"?>
<!-- Created with Inkscape (http://www.inkscape.org/) -->

<svg
   xmlns:dc="http://purl.org/dc/elements/1.1/"
   xmlns:cc="http://creativecommons.org/ns#"
   xmlns:rdf="http://www.w3.org/1999/02/22-rdf-syntax-ns#"
   xmlns:svg="http://www.w3.org/2000/svg"
   xmlns="http://www.w3.org/2000/svg"
   xmlns:sodipodi="http://sodipodi.sourceforge.net/DTD/sodipodi-0.dtd"
   xmlns:inkscape="http://www.inkscape.org/namespaces/inkscape"
   id="svg17624"
   version="1.1"
   inkscape:version="0.48.2 r9819"
   width="214.50156"
   height="313.72031"
   xml:space="preserve"
   sodipodi:docname="AJAX1.svg"><metadata
     id="metadata17630"><rdf:RDF><cc:Work
         rdf:about=""><dc:format>image/svg+xml</dc:format><dc:type
           rdf:resource="http://purl.org/dc/dcmitype/StillImage" /><dc:title /></cc:Work></rdf:RDF></metadata><defs
     id="defs17628"><inkscape:perspective
       sodipodi:type="inkscape:persp3d"
       inkscape:vp_x="0 : 0.5 : 1"
       inkscape:vp_y="0 : 1000 : 0"
       inkscape:vp_z="1 : 0.5 : 1"
       inkscape:persp3d-origin="0.5 : 0.33333333 : 1"
       id="perspective17632" /><clipPath
       clipPathUnits="userSpaceOnUse"
       id="clipPath17642"><path
         d="m -2,710 501,0 0,-711 -501,0 0,711 z"
         id="path17644"
         inkscape:connector-curvature="0" /></clipPath><clipPath
       clipPathUnits="userSpaceOnUse"
       id="clipPath17648"><path
         d="m 0,708.06 498,0 0,-708 -498,0 0,708 z"
         id="path17650"
         inkscape:connector-curvature="0" /></clipPath><clipPath
       clipPathUnits="userSpaceOnUse"
       id="clipPath17798"><path
         d="m -2,710 501,0 0,-711 -501,0 0,711 z"
         id="path17800"
         inkscape:connector-curvature="0" /></clipPath><clipPath
       clipPathUnits="userSpaceOnUse"
       id="clipPath17804"><path
         d="m 0,708.06 498,0 0,-708 -498,0 0,708 z"
         id="path17806"
         inkscape:connector-curvature="0" /></clipPath><clipPath
       id="Clip0"><path
         inkscape:connector-curvature="0"
         d="m 0,0 212.597,0 0,269.292 L 0,269.292 0,0 z"
         transform="translate(0.923828,0.879883)"
         id="path7" /></clipPath><clipPath
       id="Clip0-8"><path
         inkscape:connector-curvature="0"
         d="m 0,0 170.079,0 0,113.386 L 0,113.386 0,0 z"
         transform="translate(0.0986328,0.822266)"
         id="path7-8" /></clipPath><clipPath
       id="Clip0-1"><path
         inkscape:connector-curvature="0"
         d="m 0,0 287.009,0 0,159.449 L 0,159.449 0,0 z"
         transform="translate(0.396484,0.267578)"
         id="path7-7" /></clipPath><clipPath
       id="Clip0-9"><path
         inkscape:connector-curvature="0"
         d="m 0,0 170.079,0 0,170.079 L 0,170.079 0,0 z"
         transform="translate(0.460938,0.775391)"
         id="path7-4" /></clipPath><clipPath
       id="Clip0-4"><path
         inkscape:connector-curvature="0"
         d="m 0,0 340.157,0 0,226.771 L 0,226.771 0,0 z"
         transform="translate(0.921875,0.25293)"
         id="path7-5" /></clipPath><clipPath
       id="Clip0-5"><path
         inkscape:connector-curvature="0"
         d="m 0,0 255.119,0 0,170.079 L 0,170.079 0,0 z"
         transform="translate(0.147461,0.0595703)"
         id="path7-1" /></clipPath><clipPath
       id="Clip0-0"><path
         inkscape:connector-curvature="0"
         d="m 0,0 170.079,0 0,113.386 L 0,113.386 0,0 z"
         transform="translate(0.0673828,0.207031)"
         id="path7-9" /></clipPath></defs><sodipodi:namedview
     pagecolor="#ffffff"
     bordercolor="#666666"
     borderopacity="1"
     objecttolerance="10"
     gridtolerance="10"
     guidetolerance="10"
     inkscape:pageopacity="0"
     inkscape:pageshadow="2"
     inkscape:window-width="1280"
     inkscape:window-height="1004"
     id="namedview17626"
     showgrid="false"
     inkscape:zoom="1.4142136"
     inkscape:cx="196.54348"
     inkscape:cy="117.40326"
     inkscape:window-x="-8"
     inkscape:window-y="-8"
     inkscape:window-maximized="1"
     inkscape:current-layer="g17634"
     fit-margin-top="0.2"
     fit-margin-left="0.2"
     fit-margin-right="0.2"
     fit-margin-bottom="0.2"
     showguides="true"
     inkscape:guide-bbox="true" /><g
     id="g17634"
     inkscape:groupmode="layer"
     inkscape:label="GG1999P002"
     transform="matrix(1.25,0,0,-1.25,2890.7859,-1165.6203)"><path
       inkscape:connector-curvature="0"
       style="fill:#ffffff;fill-rule:nonzero;stroke:#000000;stroke-width:1.20000005;stroke-miterlimit:4;stroke-opacity:1;stroke-dasharray:none"
       d="m -2311.8603,-947.44166 c 0,7.82818 6.3457,14.1729 14.1728,14.1729 l 141.7332,0 c 7.828,0 14.172,-6.34472 14.172,-14.1729 l 0,-221.10214 c 0,-7.827 -6.344,-14.173 -14.172,-14.173 l -141.7332,0 c -7.8271,0 -14.1728,6.346 -14.1728,14.173 l 0,221.10214 z"
       id="path11" /><path
       inkscape:connector-curvature="0"
       style="fill:#c0111e;fill-opacity:1;fill-rule:nonzero;stroke:none"
       d="m -2308.4589,-947.44163 c 0,5.94923 4.8222,10.7715 10.7715,10.7715 l 141.7325,0 c 5.949,0 10.771,-4.82227 10.771,-10.7715 l 0,-221.10247 c 0,-5.95 -4.822,-10.772 -10.771,-10.772 l -141.7325,0 c -5.9493,0 -10.7715,4.822 -10.7715,10.772 l 0,221.10247 z"
       id="path13" /><path
       inkscape:connector-curvature="0"
       style="fill:#ffffff;fill-rule:nonzero;stroke:none"
       d="m -2303.4277,-947.36646 c 0,3.1309 2.539,5.66898 5.6699,5.66898 l 141.8881,0 c 3.131,0 5.67,-2.53808 5.67,-5.66898 l 0,-221.25704 c 0,-3.132 -2.539,-5.67 -5.67,-5.67 l -141.8881,0 c -3.1309,0 -5.6699,2.538 -5.6699,5.67 l 0,221.25704 z"
       id="path15" /><path
       inkscape:connector-curvature="0"
       style="fill:#000000;fill-rule:evenodd;stroke:none"
       d="m -2230.9247,-983.86833 9.167,0 c 1.2705,0 2.3945,-0.4893 3.373,-1.4678 1.0059,-0.9531 1.5079,-2.0107 1.5079,-3.1748 0,-1.5352 -0.4229,-2.8437 -1.2696,-3.9287 -0.8467,-1.085 -1.9316,-1.627 -3.2539,-1.627 l -9.5244,0 0,10.1983 z m -6.1504,5.874 0,-39.68467 6.1504,0 0,17.3419 8.2149,0 c 3.5449,0 6.4814,1.15037 8.8095,3.45217 2.2487,2.249 3.3727,5.0273 3.3727,8.334 0,2.9629 -1.124,5.4638 -3.3727,7.5009 -2.249,2.0362 -4.9072,3.0547 -7.9765,3.0557 l -15.1983,0 z"
       id="path57" /><path
       inkscape:connector-curvature="0"
       style="fill:#c0111e;fill-opacity:1;fill-rule:nonzero;stroke:none"
       d="m -2279.6259,-1067.8498 0,3.43 -9.1172,0 0,5.955 7.8711,0 0,3.399 -7.8711,0 0,5.581 8.587,0 0,3.461 -11.7412,0 0,-21.826 12.2714,0 z"
       id="path17" /><path
       inkscape:connector-curvature="0"
       style="fill:#c0111e;fill-opacity:1;fill-rule:evenodd;stroke:none"
       d="m -2258.7938,-1067.8498 0,8.917 c 0,2.401 -0.1592,3.586 -0.6358,4.522 -0.7158,1.559 -2.1211,2.401 -3.8437,2.401 -1.5899,0 -2.6768,-0.624 -3.6309,-2.09 -0.7158,1.435 -1.8291,2.121 -3.3662,2.121 -1.2988,0 -2.1728,-0.468 -3.1797,-1.653 l 0,1.372 -2.7832,0 0,-15.59 2.7832,0 0,8.856 c 0,1.247 0.1319,1.963 0.5293,2.556 0.4248,0.717 1.166,1.185 1.8818,1.185 0.6358,0 1.2989,-0.343 1.67,-0.967 0.3447,-0.562 0.4238,-1.06 0.4238,-2.682 l 0,-8.948 2.916,0 0,8.948 c 0,1.435 0.079,1.965 0.3975,2.464 0.4502,0.748 1.1924,1.216 1.9345,1.216 0.8213,0 1.4844,-0.468 1.8018,-1.247 0.1865,-0.468 0.2393,-1.123 0.2393,-2.433 l 0,-8.948 2.8623,0 z"
       id="path19" /><path
       inkscape:connector-curvature="0"
       style="fill:#c0111e;fill-opacity:1;fill-rule:evenodd;stroke:none"
       d="m -2243.1835,-1061.3018 0,0.685 c 0,5.426 -2.2793,8.701 -6.0693,8.701 -3.5781,0 -5.9629,-3.244 -5.9629,-8.045 0,-4.896 2.4648,-8.294 6.3076,-8.294 1.9883,0 3.8701,0.717 5.0352,3.273 l -2.0938,2.089 c -1.0859,-1.87 -1.749,-2.12 -2.915,-2.12 -1.9082,0 -3.127,1.403 -3.3399,3.711 l 9.0381,0 z m -3.0215,2.619 -6.0166,0 c 0.08,0.936 0.1856,1.372 0.4248,1.871 0.5557,1.122 1.5371,1.809 2.6231,1.809 1.7236,0 2.8896,-1.435 2.9687,-3.68 z"
       id="path21" /><path
       inkscape:connector-curvature="0"
       style="fill:#c0111e;fill-opacity:1;fill-rule:nonzero;stroke:none"
       d="m -2233.0321,-1055.4708 0,3.398 c -0.292,0.032 -0.5039,0.032 -0.6367,0.032 -1.5635,0 -2.5967,-0.562 -3.6045,-2.028 l 0,1.809 -2.7823,0 0,-15.59 2.8086,0 0,7.233 c 0,2.371 0.3975,3.618 1.3252,4.397 0.6895,0.499 1.3789,0.718 2.8897,0.749 z"
       id="path23" /><path
       inkscape:connector-curvature="0"
       style="fill:#c0111e;fill-opacity:1;fill-rule:evenodd;stroke:none"
       d="m -2219.3036,-1065.3558 0,13.096 -2.8623,0 0,-1.153 c -0.9541,0.998 -1.9883,1.464 -3.2598,1.464 -3.1806,0 -5.539,-3.117 -5.539,-7.327 0,-4.334 2.3056,-7.296 5.6445,-7.296 1.2461,0 2.3057,0.406 3.1543,1.216 l 0,-0.904 c 0,-1.216 -0.054,-1.652 -0.2656,-2.12 -0.4239,-0.873 -1.4571,-1.435 -2.8096,-1.435 -1.165,0 -2.4111,0.375 -4.0547,1.186 l -1.0869,-2.901 c 1.6973,-0.997 3.6582,-1.528 5.5928,-1.528 2.3584,0 3.8955,0.718 4.7968,2.277 0.6368,1.122 0.6895,1.465 0.6895,5.425 z m -2.8623,5.987 c 0,-2.588 -0.9805,-3.929 -2.8359,-3.929 -1.8028,0 -2.9424,1.528 -2.9424,3.991 0,2.401 1.2461,4.085 2.9951,4.085 0.7949,0 1.5898,-0.405 2.0674,-1.122 0.5039,-0.687 0.7158,-1.56 0.7158,-3.025 z"
       id="path25" /><path
       inkscape:connector-curvature="0"
       style="fill:#c0111e;fill-opacity:1;fill-rule:evenodd;stroke:none"
       d="m -2203.9576,-1061.3018 0,0.685 c 0,5.426 -2.28,8.701 -6.07,8.701 -3.5778,0 -5.9635,-3.244 -5.9635,-8.045 0,-4.896 2.4648,-8.294 6.3075,-8.294 1.988,0 3.87,0.717 5.036,3.273 l -2.093,2.089 c -1.087,-1.87 -1.75,-2.12 -2.916,-2.12 -1.909,0 -3.1275,1.403 -3.3394,3.711 l 9.0384,0 z m -3.022,2.619 -6.0164,0 c 0.079,0.936 0.1856,1.372 0.4238,1.871 0.5567,1.122 1.5376,1.809 2.6236,1.809 1.723,0 2.889,-1.435 2.969,-3.68 z"
       id="path27" /><path
       inkscape:connector-curvature="0"
       style="fill:#c0111e;fill-opacity:1;fill-rule:evenodd;stroke:none"
       d="m -2190.0966,-1067.8498 0,9.541 c 0,2.339 -0.186,3.43 -0.849,4.459 -0.795,1.216 -2.12,1.934 -3.71,1.934 -1.298,0 -2.12,-0.344 -3.366,-1.529 l 0,1.185 -2.809,0 0,-15.59 2.809,0 0,8.824 c 0,1.341 0.186,2.152 0.663,2.775 0.477,0.624 1.352,1.029 2.094,1.029 0.769,0 1.537,-0.405 1.882,-1.029 0.317,-0.561 0.424,-1.247 0.424,-2.743 l 0,-8.856 2.862,0 z"
       id="path29" /><path
       inkscape:connector-curvature="0"
       style="fill:#c0111e;fill-opacity:1;fill-rule:nonzero;stroke:none"
       d="m -2175.0956,-1063.9528 -2.544,1.465 c -0.742,-1.683 -1.643,-2.463 -2.889,-2.463 -1.935,0 -3.287,1.996 -3.287,4.896 0,2.744 1.378,4.833 3.207,4.833 1.246,0 2.068,-0.717 2.836,-2.37 l 2.571,1.528 c -0.954,2.588 -2.889,3.991 -5.327,3.991 -3.658,0 -6.175,-3.274 -6.175,-7.982 0,-4.739 2.464,-8.014 6.043,-8.014 2.491,0 4.505,1.466 5.565,4.116 z"
       id="path31" /><path
       inkscape:connector-curvature="0"
       style="fill:#c0111e;fill-opacity:1;fill-rule:nonzero;stroke:none"
       d="m -2161.7376,-1052.2598 -3.101,0 -2.915,-10.882 -2.677,10.882 -3.233,0 4.506,-15.995 c -0.425,-1.28 -0.796,-1.622 -1.724,-1.622 -0.503,0 -0.848,0.062 -1.484,0.375 l -0.61,-2.807 c 0.875,-0.374 1.67,-0.593 2.624,-0.593 1.113,0 1.882,0.249 2.439,0.811 0.504,0.468 0.715,0.935 1.166,2.401 l 5.009,17.43 z"
       id="path33" /><path
       inkscape:connector-curvature="0"
       style="fill:#c0111e;fill-opacity:1;fill-rule:nonzero;stroke:none"
       d="m -2255.745,-1087.2308 -3.2061,0 -4.1611,-17.18 -4.1611,17.18 -3.2071,0 5.5655,-21.826 3.7373,0 5.4326,21.826 z"
       id="path35" /><path
       inkscape:connector-curvature="0"
       style="fill:#c0111e;fill-opacity:1;fill-rule:evenodd;stroke:none"
       d="m -2241.4589,-1102.5088 0,0.685 c 0,5.426 -2.2793,8.7 -6.0703,8.7 -3.5771,0 -5.9629,-3.243 -5.9629,-8.044 0,-4.897 2.4649,-8.295 6.3076,-8.295 1.9883,0 3.8702,0.718 5.0362,3.274 l -2.0938,2.089 c -1.0869,-1.87 -1.749,-2.12 -2.915,-2.12 -1.9092,0 -3.1279,1.403 -3.3399,3.711 l 9.0381,0 z m -3.0215,2.619 -6.0166,0 c 0.079,0.936 0.1856,1.372 0.4239,1.871 0.5566,1.122 1.5371,1.808 2.624,1.808 1.7226,0 2.8887,-1.434 2.9687,-3.679 z"
       id="path37" /><path
       inkscape:connector-curvature="0"
       style="fill:#c0111e;fill-opacity:1;fill-rule:nonzero;stroke:none"
       d="m -2227.3856,-1109.0568 0,9.759 c 0,2.027 -0.1856,2.963 -0.7159,3.96 -0.7421,1.434 -2.1992,2.276 -3.7636,2.276 -1.4307,0 -2.4649,-0.468 -3.6045,-1.715 l 0,7.297 -2.8623,0 0,-21.577 2.8623,0 0,8.2 c 0,2.9 0.9805,4.397 2.8096,4.397 0.8486,0 1.4843,-0.312 1.9345,-0.998 0.3448,-0.561 0.4512,-1.122 0.4512,-2.463 l 0,-9.136 2.8887,0 z"
       id="path39" /><path
       inkscape:connector-curvature="0"
       style="fill:#c0111e;fill-opacity:1;fill-rule:evenodd;stroke:none"
       d="m -2220.2557,-1089.4448 c 0,1.092 -0.8223,2.089 -1.75,2.089 -1.0333,0 -1.8545,-0.967 -1.8545,-2.089 0,-1.184 0.8212,-2.12 1.8281,-2.12 0.9541,0 1.7764,0.936 1.7764,2.12 z m -0.3721,-19.612 0,15.563 -2.8623,0 0,-15.563 2.8623,0 z"
       id="path41" /><path
       inkscape:connector-curvature="0"
       style="fill:#c0111e;fill-opacity:1;fill-rule:nonzero;stroke:none"
       d="m -2205.4406,-1105.1598 -2.545,1.465 c -0.742,-1.683 -1.643,-2.463 -2.888,-2.463 -1.9349,0 -3.2874,1.996 -3.2874,4.896 0,2.744 1.3789,4.833 3.2074,4.833 1.246,0 2.067,-0.717 2.836,-2.37 l 2.571,1.528 c -0.954,2.588 -2.889,3.991 -5.327,3.991 -3.6575,0 -6.1761,-3.274 -6.1761,-7.982 0,-4.739 2.4649,-8.014 6.0431,-8.014 2.491,0 4.506,1.465 5.566,4.116 z"
       id="path43" /><path
       inkscape:connector-curvature="0"
       style="fill:#c0111e;fill-opacity:1;fill-rule:nonzero;stroke:none"
       d="m -2196.8796,-1108.9948 -0.583,2.806 c -0.902,-0.062 -0.637,-0.062 -0.928,-0.062 -1.166,0 -1.484,0.436 -1.484,2.027 l 0,16.744 -2.81,0 0,-17.243 c 0,-2.339 0.212,-3.149 1.007,-3.835 0.583,-0.499 1.299,-0.718 2.359,-0.718 0.743,0 1.802,0.125 2.439,0.281 z"
       id="path45" /><path
       inkscape:connector-curvature="0"
       style="fill:#c0111e;fill-opacity:1;fill-rule:evenodd;stroke:none"
       d="m -2183.1516,-1102.5088 0,0.685 c 0,5.426 -2.279,8.7 -6.069,8.7 -3.578,0 -5.963,-3.243 -5.963,-8.044 0,-4.897 2.465,-8.295 6.308,-8.295 1.988,0 3.87,0.718 5.035,3.274 l -2.093,2.089 c -1.087,-1.87 -1.75,-2.12 -2.916,-2.12 -1.908,0 -3.127,1.403 -3.34,3.711 l 9.038,0 z m -3.021,2.619 -6.017,0 c 0.08,0.936 0.186,1.372 0.425,1.871 0.557,1.122 1.537,1.808 2.624,1.808 1.723,0 2.889,-1.434 2.968,-3.679 z"
       id="path47" /><path
       inkscape:connector-curvature="0"
       style="fill:#c0111e;fill-opacity:1;fill-rule:nonzero;stroke:none"
       d="m -2240.9559,-1139.5698 c 0,1.591 -0.4502,2.993 -1.3252,4.117 -0.9278,1.153 -1.9346,1.714 -4.1348,2.151 -2.2266,0.436 -2.624,0.53 -3.4717,0.967 -1.0596,0.467 -1.4844,1.309 -1.4844,2.338 0,1.777 1.5645,3.025 3.6319,3.025 1.6426,0 2.3056,-0.655 3.6836,-2.37 l 2.7822,1.341 c -1.2451,3.367 -3.7363,4.365 -6.7051,4.365 -3.9228,0 -6.626,-2.588 -6.626,-6.454 0,-1.934 0.6631,-3.586 1.8555,-4.678 0.9277,-0.779 1.8027,-1.216 4.1074,-1.684 1.8819,-0.342 2.3067,-0.53 2.9688,-0.904 0.9541,-0.53 1.4844,-1.434 1.4844,-2.588 0,-1.808 -1.3252,-3.149 -3.4454,-3.149 -1.9345,0 -3.4453,0.935 -5.1943,3.118 l -2.4922,-2.151 c 2.041,-2.837 4.6914,-4.272 7.8457,-4.272 4.0283,0 6.5196,2.713 6.5196,6.828 z"
       id="path49" /><path
       inkscape:connector-curvature="0"
       style="fill:#c0111e;fill-opacity:1;fill-rule:nonzero;stroke:none"
       d="m -2229.2411,-1145.6808 -0.3447,2.932 c -0.6094,-0.125 -1.1133,-0.188 -1.5899,-0.188 -1.3779,0 -1.6963,0.437 -1.6963,2.369 l 0,7.36 3.4454,0 0,2.868 -3.4454,0 0,6.236 -2.8095,0 0,-6.236 -2.4385,0 0,-2.868 2.4385,0 0,-8.482 c 0,-3.149 1.0068,-4.428 3.6045,-4.428 0.9013,0 1.9345,0.156 2.8359,0.437 z"
       id="path51" /><path
       inkscape:connector-curvature="0"
       style="fill:#c0111e;fill-opacity:1;fill-rule:evenodd;stroke:none"
       d="m -2214.5048,-1138.1978 c 0,4.865 -2.624,8.232 -6.4941,8.232 -3.6836,0 -6.1484,-3.305 -6.1484,-8.232 0,-4.833 2.5976,-8.17 6.3603,-8.17 3.7119,0 6.2822,3.369 6.2822,8.17 z m -3.0215,0.063 c 0,-2.993 -1.3779,-4.989 -3.3662,-4.989 -2.041,0 -3.3925,1.996 -3.3925,4.989 0,2.931 1.3789,4.989 3.4189,4.989 2.0146,0 3.3398,-1.996 3.3398,-4.989 z"
       id="path53" /><path
       inkscape:connector-curvature="0"
       style="fill:#c0111e;fill-opacity:1;fill-rule:evenodd;stroke:none"
       d="m -2198.3116,-1138.1658 c 0,4.77 -2.385,8.107 -5.83,8.107 -1.458,0 -2.359,-0.437 -3.525,-1.778 l 0,1.497 -2.81,0 0,-21.826 2.81,0 0,7.577 c 1.113,-1.155 2.174,-1.622 3.578,-1.622 3.366,0 5.777,3.368 5.777,8.045 z m -2.995,-0.094 c 0,-2.931 -1.298,-4.802 -3.286,-4.802 -0.9,0 -1.616,0.374 -2.2,1.061 -0.636,0.748 -0.822,1.652 -0.822,3.928 0,1.684 0.107,2.588 0.452,3.274 0.476,0.935 1.484,1.559 2.57,1.559 2.041,0 3.286,-1.933 3.286,-5.02 z"
       id="path55" /><path
       inkscape:connector-curvature="0"
       style="fill:#c0111e;fill-opacity:1;fill-rule:nonzero;stroke:none"
       d="m -2252.3827,-997.83413 c 0,-14.08987 11.4219,-25.51177 25.5117,-25.51177 6.0235,0 11.5596,2.0879 15.9234,5.5791 l -35.856,35.85647 c -3.4912,-4.3643 -5.5791,-9.9004 -5.5791,-15.9238 z m 9.5879,19.9326 35.8562,-35.85647 c 3.491,4.3643 5.579,9.9004 5.579,15.92387 0,14.0898 -11.4215,25.5117 -25.5114,25.5117 -6.0234,0 -11.5596,-2.0879 -15.9238,-5.5791 z m -18.0918,-19.9326 c 0,18.7861 15.2295,34.0156 34.0156,34.0156 18.7864,0 34.0154,-15.2295 34.0154,-34.0156 0,-18.78617 -15.229,-34.01467 -34.0154,-34.01467 -18.7861,0 -34.0156,15.2285 -34.0156,34.01467 z"
       id="path59" /></g></svg>