<?xml version="1.0" encoding="UTF-8" standalone="no"?>
<!-- Created with Inkscape (http://www.inkscape.org/) -->

<svg
   xmlns:dc="http://purl.org/dc/elements/1.1/"
   xmlns:cc="http://creativecommons.org/ns#"
   xmlns:rdf="http://www.w3.org/1999/02/22-rdf-syntax-ns#"
   xmlns:svg="http://www.w3.org/2000/svg"
   xmlns="http://www.w3.org/2000/svg"
   xmlns:sodipodi="http://sodipodi.sourceforge.net/DTD/sodipodi-0.dtd"
   xmlns:inkscape="http://www.inkscape.org/namespaces/inkscape"
   width="360.62805"
   height="360.6127"
   id="svg3075"
   version="1.1"
   inkscape:version="0.48.2 r9819"
   sodipodi:docname="AJAX.svg">
  <defs
     id="defs3077" />
  <sodipodi:namedview
     id="base"
     pagecolor="#ffffff"
     bordercolor="#666666"
     borderopacity="1.0"
     inkscape:pageopacity="0.0"
     inkscape:pageshadow="2"
     inkscape:zoom="1.435"
     inkscape:cx="191.22491"
     inkscape:cy="182.14395"
     inkscape:document-units="px"
     inkscape:current-layer="ANZ"
     showgrid="false"
     borderlayer="true"
     inkscape:window-width="1280"
     inkscape:window-height="1004"
     inkscape:window-x="-8"
     inkscape:window-y="-8"
     inkscape:window-maximized="1"
     fit-margin-top="0"
     fit-margin-left="0"
     fit-margin-right="0"
     fit-margin-bottom="0" />
  <metadata
     id="metadata3080">
    <rdf:RDF>
      <cc:Work
         rdf:about="">
        <dc:format>image/svg+xml</dc:format>
        <dc:type
           rdf:resource="http://purl.org/dc/dcmitype/StillImage" />
        <dc:title></dc:title>
      </cc:Work>
    </rdf:RDF>
  </metadata>
  <g
     inkscape:label="ANZ"
     inkscape:groupmode="layer"
     id="ANZ"
     transform="translate(-8.161976,-732.94063)">
    <path
       inkscape:connector-curvature="0"
       style="fill:#ffdb00;fill-rule:nonzero;stroke:none"
       d="m 13.537476,900.27019 c -7.1675,7.1675 -7.1675,18.78625 10e-4,25.95375 L 175.50248,1088.1777 c 7.16625,7.1675 18.7875,7.1675 25.955,0 L 363.41451,926.22394 c 7.16797,-7.1675 7.16675,-18.78625 0,-25.95375 L 201.44998,738.31569 c -7.16875,-7.16675 -18.7875,-7.16675 -25.955,0 L 13.537476,900.27019 z"
       id="path11" />
    <path
       inkscape:connector-curvature="0"
       style="fill:#000000;fill-rule:nonzero;stroke:none"
       d="m 360.60567,922.7811 c 5.12085,-5.12 5.12085,-13.42 0,-18.54 L 197.74902,741.38698 c -5.12125,-5.11963 -13.42125,-5.11963 -18.54125,0 L 16.346516,904.2411 c -5.12,5.12 -5.12,13.42 0,18.54 l 162.857504,162.8537 c 5.12,5.12 13.42,5.12 18.54125,0 l 162.8604,-162.8537 z"
       id="path13" />
    <path
       inkscape:connector-curvature="0"
       style="fill:#ffdb00;fill-rule:nonzero;stroke:none"
       d="m 355.84493,917.8186 c 2.49145,-2.49 2.49145,-6.5275 0.001,-9.02 L 192.98764,745.94514 c -2.49125,-2.49029 -6.52875,-2.49029 -9.01875,0 L 21.106386,908.7986 c -2.49125,2.4925 -2.49125,6.53 0,9.02 l 162.858754,162.8538 c 2.49,2.4925 6.5275,2.4925 9.01875,0 L 355.84493,917.8186 z"
       id="path15" />
    <path
       inkscape:connector-curvature="0"
       style="fill:#000000;fill-rule:nonzero;stroke:none"
       d="m 201.94056,859.53114 -16.775,6.54625 c -3.615,1.4975 -7.75875,-0.21875 -9.2575,-3.83499 -0.94125,-2.27126 -0.61625,-4.74576 0.65375,-6.64763 l 43.095,-66.92625 43.09612,66.92625 c 1.27075,1.90187 1.59425,4.37637 0.65425,6.64763 -1.49775,3.61624 -5.64325,5.33249 -9.25775,3.83499 l -16.77512,-6.54625 0,8.9425 c 0,28.80875 -16.90875,53.63613 -41.2675,64.94113 l -22.37625,9.735 c -12.20375,5.6425 -20.6875,18.07875 -20.6875,32.5025 l 0,12.50375 -35.43213,0 0,-12.50375 c 0,-28.74 16.8325,-53.525 41.09588,-64.86738 l 22.81,-9.94 c 12.06875,-5.69625 20.42375,-18.04875 20.42375,-32.37249 l 0,-8.94126 z"
       id="path17" />
  </g>
</svg>
