<?xml version="1.0" encoding="UTF-8" standalone="no"?>
<!-- Created with Inkscape (http://www.inkscape.org/) -->

<svg
   xmlns:dc="http://purl.org/dc/elements/1.1/"
   xmlns:cc="http://creativecommons.org/ns#"
   xmlns:rdf="http://www.w3.org/1999/02/22-rdf-syntax-ns#"
   xmlns:svg="http://www.w3.org/2000/svg"
   xmlns="http://www.w3.org/2000/svg"
   xmlns:sodipodi="http://sodipodi.sourceforge.net/DTD/sodipodi-0.dtd"
   xmlns:inkscape="http://www.inkscape.org/namespaces/inkscape"
   width="360.61945"
   height="360.63489"
   id="svg2"
   sodipodi:version="0.32"
   inkscape:version="0.48.2 r9819"
   version="1.0"
   sodipodi:docname="AJAX2.svg"
   inkscape:output_extension="org.inkscape.output.svg.inkscape">
  <defs
     id="defs4">
    <inkscape:perspective
       sodipodi:type="inkscape:persp3d"
       inkscape:vp_x="0 : 300.5 : 1"
       inkscape:vp_y="0 : 1000 : 0"
       inkscape:vp_z="601 : 300.5 : 1"
       inkscape:persp3d-origin="300.5 : 200.33333 : 1"
       id="perspective3380" />
    <inkscape:perspective
       id="perspective3990"
       inkscape:persp3d-origin="375 : 250 : 1"
       inkscape:vp_z="750 : 375 : 1"
       inkscape:vp_y="0 : 1000 : 0"
       inkscape:vp_x="0 : 375 : 1"
       sodipodi:type="inkscape:persp3d" />
  </defs>
  <sodipodi:namedview
     id="base"
     pagecolor="#ffffff"
     bordercolor="#666666"
     borderopacity="1.0"
     gridtolerance="10000"
     guidetolerance="10"
     objecttolerance="10"
     inkscape:pageopacity="0.0"
     inkscape:pageshadow="2"
     inkscape:zoom="1.0529557"
     inkscape:cx="85.842226"
     inkscape:cy="153.37417"
     inkscape:document-units="px"
     inkscape:current-layer="layer1"
     width="601px"
     height="601px"
     inkscape:window-width="1280"
     inkscape:window-height="1004"
     inkscape:window-x="-8"
     inkscape:window-y="-8"
     showgrid="false"
     fit-margin-top="0"
     fit-margin-left="0"
     fit-margin-right="0"
     fit-margin-bottom="0"
     inkscape:window-maximized="1"
     showguides="true"
     inkscape:guide-bbox="true" />
  <metadata
     id="metadata7">
    <rdf:RDF>
      <cc:Work
         rdf:about="">
        <dc:format>image/svg+xml</dc:format>
        <dc:type
           rdf:resource="http://purl.org/dc/dcmitype/StillImage" />
        <dc:title></dc:title>
      </cc:Work>
    </rdf:RDF>
  </metadata>
  <g
     inkscape:label="Layer 1"
     inkscape:groupmode="layer"
     id="layer1"
     transform="translate(28.101136,709.19603)">
    <rect
       style="color:#000000;fill:#000000;fill-opacity:1;fill-rule:nonzero;stroke:none;stroke-width:0.8735441;marker:none;visibility:visible;display:inline;overflow:visible"
       id="rect3653"
       width="0"
       height="27.202072"
       x="578.73834"
       y="298.1684"
       rx="249.48199"
       ry="27.202072" />
    <path
       inkscape:connector-curvature="0"
       style="fill:#ffdb00;fill-rule:nonzero;stroke:none"
       d="m 327.14328,-541.85677 c 7.1675,7.1675 7.16625,18.78875 -10e-4,25.95625 l -161.9665,161.96375 c -7.16875,7.1675 -18.78875,7.1675 -25.955,0 L -22.726223,-515.90052 c -7.16675,-7.1675 -7.16675,-18.78875 0.0012,-25.95625 L 139.24203,-703.82006 c 7.1675,-7.16796 18.7875,-7.16796 25.955,0 l 161.94625,161.96329 z"
       id="path11" />
    <path
       inkscape:connector-curvature="0"
       style="fill:#000000;fill-rule:nonzero;stroke:none"
       d="m -19.849029,-519.60018 c -5.12085,-5.12 -5.12085,-13.42125 0,-18.54 L 143.00763,-700.98679 c 5.12125,-5.11964 13.42125,-5.11964 18.54125,0 l 162.865,162.84661 c 5.12,5.11875 5.12,13.42 0,18.54 l -162.8575,162.84625 c -5.12,5.12 -13.42,5.12 -18.54125,0 L -19.849029,-519.60018 z"
       id="path13" />
    <path
       inkscape:connector-curvature="0"
       style="fill:#ffdb00;fill-rule:nonzero;stroke:none"
       d="m -14.988166,-524.46135 c -2.490263,-2.49125 -2.490263,-6.53 0,-9.02 L 147.87032,-696.32739 c 2.49,-2.49021 6.52875,-2.49021 9.02,0 l 162.865,162.84604 c 2.49,2.49 2.49,6.52875 0,9.02 L 156.89657,-361.6151 c -2.49,2.49125 -6.52875,2.49125 -9.01875,0 L -14.988166,-524.46135 z"
       id="path15" />
    <path
       inkscape:connector-curvature="0"
       style="fill:#000000;fill-rule:nonzero;stroke:none"
       d="m 258.86221,-511.73727 -56.69375,0 0,22.32212 16.655,0 0,10.985 -16.655,0 0,22.32375 16.655,0 0,10.98375 -16.655,0 0,22.3225 -10.98375,0 0,-22.3225 -16.65375,0 0,-10.98375 16.65375,0 0,-22.32375 -16.65375,0 0,-10.985 16.65375,0 0,-22.32212 -65.55125,0 0.001,70.86587 -35.433801,0 0,-177.165 35.433751,0 -0.001,70.86663 65.55125,0 0,-22.3225 -16.65375,0 0,-10.98376 16.65375,0 0,-22.32349 -16.65375,0 0,-10.98513 16.65375,0 0,-22.32175 10.98375,0 0,22.32175 16.655,0 0,10.98513 -16.655,0 0,22.32349 16.655,0 0,10.98376 -16.655,0 0,22.3225 56.69375,0 0,35.4325 z"
       id="path17" />
  </g>
</svg>
