<?xml version="1.0" encoding="UTF-8" standalone="no"?>
<!-- Generator: Adobe Illustrator 13.0.1, SVG Export Plug-In . SVG Version: 6.00 Build 14948)  -->

<svg
   xmlns:dc="http://purl.org/dc/elements/1.1/"
   xmlns:cc="http://creativecommons.org/ns#"
   xmlns:rdf="http://www.w3.org/1999/02/22-rdf-syntax-ns#"
   xmlns:svg="http://www.w3.org/2000/svg"
   xmlns="http://www.w3.org/2000/svg"
   xmlns:sodipodi="http://sodipodi.sourceforge.net/DTD/sodipodi-0.dtd"
   xmlns:inkscape="http://www.inkscape.org/namespaces/inkscape"
   version="1.1"
   id="Layer_1"
   x="0px"
   y="0px"
   width="265.7475"
   height="110.90575"
   viewBox="0 0 265.74749 110.90575"
   enable-background="new 0 0 300 250"
   xml:space="preserve"
   inkscape:version="0.48.2 r9819"
   sodipodi:docname="AJAX2.svg"><metadata
   id="metadata94"><rdf:RDF><cc:Work
       rdf:about=""><dc:format>image/svg+xml</dc:format><dc:type
         rdf:resource="http://purl.org/dc/dcmitype/StillImage" /><dc:title></dc:title></cc:Work></rdf:RDF></metadata><defs
   id="defs92" /><sodipodi:namedview
   pagecolor="#ffffff"
   bordercolor="#666666"
   borderopacity="1"
   objecttolerance="10"
   gridtolerance="10"
   guidetolerance="10"
   inkscape:pageopacity="0"
   inkscape:pageshadow="2"
   inkscape:window-width="1280"
   inkscape:window-height="1004"
   id="namedview90"
   showgrid="false"
   fit-margin-top="0"
   fit-margin-left="0"
   fit-margin-right="0"
   fit-margin-bottom="0"
   inkscape:zoom="5.3400704"
   inkscape:cx="41.815815"
   inkscape:cy="37.35547"
   inkscape:window-x="-8"
   inkscape:window-y="-8"
   inkscape:window-maximized="1"
   inkscape:current-layer="Layer_1" />















<path
   inkscape:connector-curvature="0"
   style="fill:#ffdb00;fill-rule:nonzero;stroke:none"
   d="M -8.0205402e-6,17.717376 C -8.0205402e-6,7.932125 7.9321173,0 17.716117,0 L 248.03,0 c 9.785,0 17.7175,7.932125 17.7175,17.717376 l 0,75.472378 c 0,9.783876 -7.9325,17.715996 -17.7175,17.715996 l -230.313883,0 C 7.9321173,110.90575 -8.0205402e-6,102.97363 -8.0205402e-6,93.189754 l 0,-75.472378 z"
   id="path11" /><path
   inkscape:connector-curvature="0"
   style="fill:#000000;fill-rule:nonzero;stroke:none"
   d="m 3.1884708,17.717316 c 0,-8.023713 6.5051248,-14.527626 14.5276252,-14.527626 l 230.316134,0 c 8.0225,0 14.5275,6.503913 14.5275,14.527626 l 0,75.472378 c 0,8.023616 -6.505,14.527626 -14.5275,14.527626 l -230.316134,0 c -8.0225004,0 -14.5276252,-6.50401 -14.5276252,-14.527626 l 0,-75.472378 z"
   id="path13" /><path
   inkscape:connector-curvature="0"
   style="fill:#ffdb00;fill-rule:nonzero;stroke:none"
   d="m 7.7954085,17.717335 c 0,-5.47975 4.4421495,-9.921925 9.9206495,-9.921925 l 230.315612,0 c 5.47875,0 9.92125,4.442175 9.92125,9.921925 l 0,75.472329 c 0,5.4785 -4.4425,9.920616 -9.92125,9.920616 l -230.315612,0 c -5.4785,0 -9.9206495,-4.442116 -9.9206495,-9.920616 l 0,-75.472329 z"
   id="path15" /><path
   inkscape:connector-curvature="0"
   style="fill:#000000;fill-rule:nonzero;stroke:none"
   d="m 59.70456,33.364204 0,44.29088 7.052,0 0,-19.39213 13.0225,0 0,-6.9605 -13.0225,0 0,-11.029 19.965876,0 0,-6.90925 -27.017876,0 z"
   id="path17" /><path
   inkscape:connector-curvature="0"
   style="fill:#000000;fill-rule:evenodd;stroke:none"
   d="m 111.01806,78.497334 c 5.69338,0 9.82175,-2.45113 12.38775,-7.35225 2.01725,-3.8355 3.02725,-9.06138 3.02725,-15.67875 0,-6.70413 -1.31875,-12.1545 -3.95625,-16.34888 -2.76737,-4.42625 -6.58687,-6.63937 -11.45875,-6.63937 -10.39312,0 -15.588374,7.66225 -15.588374,22.98825 0,7.82837 1.44775,13.70237 4.344504,17.6245 2.65262,3.6035 6.40012,5.4065 11.24387,5.4065 z m 0,-7.00563 c -5.79462,0 -8.69137,-5.34175 -8.69137,-16.02537 0,-5.57988 0.74212,-9.6375 2.2265,-12.17538 1.38312,-2.42187 3.53887,-3.63275 6.46487,-3.63275 5.49075,0 8.23725,5.2685 8.23725,15.80813 0,5.60912 -0.67737,9.71062 -2.03237,12.30587 -1.34038,2.47925 -3.4095,3.7195 -6.20488,3.7195 z"
   id="path19" /><path
   inkscape:connector-curvature="0"
   style="fill:#000000;fill-rule:evenodd;stroke:none"
   d="m 143.31056,40.273454 9.3,0 c 1.45625,0 2.76125,0.50413 3.915,1.51238 1.11,1.00962 1.665,2.19125 1.665,3.54625 0,1.44037 -0.49625,2.75262 -1.49125,3.93425 -1.09625,1.239 -2.365,1.858 -3.8075,1.858 l -9.58125,0 0,-10.85088 z m -6.72625,-6.90925 0,44.29088 6.72625,0 0,-19.39825 8.56625,0 7.1575,19.39825 7.18125,0 -7.91625,-20.91313 c 4.39875,-2.826 6.5975,-6.45137 6.5975,-10.87775 0,-3.34462 -1.16875,-6.27187 -3.50375,-8.7805 -2.365,-2.47925 -5.155,-3.7195 -8.37,-3.7195 l -16.43875,0 z"
   id="path21" /><path
   inkscape:connector-curvature="0"
   style="fill:#000000;fill-rule:evenodd;stroke:none"
   d="m 176.43431,33.364204 0,44.29088 12.35,0 c 5.29125,0 9.58875,-2.34988 12.89,-7.05088 2.92625,-4.12225 4.39,-8.87325 4.39,-14.2505 0,-6.84925 -1.52125,-12.35587 -4.5625,-16.52337 -3.12875,-4.31025 -7.36875,-6.46613 -12.7175,-6.46613 l -12.35,0 z m 7.00625,37.11063 0,-30.21113 5.08375,0 c 3.865,0 6.72625,1.91038 8.58625,5.73 1.4275,2.85513 2.14125,6.3085 2.14125,10.36 0,3.1275 -0.7575,6.04738 -2.27,8.75863 -2.005,3.57537 -4.82375,5.3625 -8.4575,5.3625 l -5.08375,0 z"
   id="path23" /></svg>