<?xml version="1.0" encoding="UTF-8" standalone="no"?>
<!-- Created with Inkscape (http://www.inkscape.org/) -->

<svg
   xmlns:dc="http://purl.org/dc/elements/1.1/"
   xmlns:cc="http://creativecommons.org/ns#"
   xmlns:rdf="http://www.w3.org/1999/02/22-rdf-syntax-ns#"
   xmlns:svg="http://www.w3.org/2000/svg"
   xmlns="http://www.w3.org/2000/svg"
   xmlns:sodipodi="http://sodipodi.sourceforge.net/DTD/sodipodi-0.dtd"
   xmlns:inkscape="http://www.inkscape.org/namespaces/inkscape"
   width="265.7475"
   height="110.90575"
   id="svg2"
   sodipodi:version="0.32"
   inkscape:version="0.48.2 r9819"
   version="1.0"
   sodipodi:docname="AJAX1.svg"
   inkscape:output_extension="org.inkscape.output.svg.inkscape">
  <defs
     id="defs4">
    <inkscape:perspective
       sodipodi:type="inkscape:persp3d"
       inkscape:vp_x="0 : 300.5 : 1"
       inkscape:vp_y="0 : 1000 : 0"
       inkscape:vp_z="601 : 300.5 : 1"
       inkscape:persp3d-origin="300.5 : 200.33333 : 1"
       id="perspective3380" />
    <inkscape:perspective
       id="perspective3990"
       inkscape:persp3d-origin="375 : 250 : 1"
       inkscape:vp_z="750 : 375 : 1"
       inkscape:vp_y="0 : 1000 : 0"
       inkscape:vp_x="0 : 375 : 1"
       sodipodi:type="inkscape:persp3d" />
  </defs>
  <sodipodi:namedview
     id="base"
     pagecolor="#ffffff"
     bordercolor="#666666"
     borderopacity="1.0"
     gridtolerance="10000"
     guidetolerance="10"
     objecttolerance="10"
     inkscape:pageopacity="0.0"
     inkscape:pageshadow="2"
     inkscape:zoom="1.8196215"
     inkscape:cx="137.27496"
     inkscape:cy="12.585871"
     inkscape:document-units="px"
     inkscape:current-layer="layer1"
     width="601px"
     height="601px"
     inkscape:window-width="1280"
     inkscape:window-height="1004"
     inkscape:window-x="-8"
     inkscape:window-y="-8"
     showgrid="false"
     fit-margin-top="0"
     fit-margin-left="0"
     fit-margin-right="0"
     fit-margin-bottom="0"
     inkscape:window-maximized="1" />
  <metadata
     id="metadata7">
    <rdf:RDF>
      <cc:Work
         rdf:about="">
        <dc:format>image/svg+xml</dc:format>
        <dc:type
           rdf:resource="http://purl.org/dc/dcmitype/StillImage" />
        <dc:title />
      </cc:Work>
    </rdf:RDF>
  </metadata>
  <g
     inkscape:label="Layer 1"
     inkscape:groupmode="layer"
     id="layer1"
     transform="translate(-4.5503236,-486.9112)">
    <rect
       style="color:#000000;fill:#000000;fill-opacity:1;fill-rule:nonzero;stroke:none;stroke-width:0.8735441;marker:none;visibility:visible;display:inline;overflow:visible"
       id="rect3653"
       width="0"
       height="27.202072"
       x="578.73834"
       y="298.1684"
       rx="249.48199"
       ry="27.202072" />
    <path
       inkscape:connector-curvature="0"
       style="fill:#a2ff31;fill-rule:nonzero;stroke:none;fill-opacity:1"
       d="m 4.5503236,504.62845 c 0,-9.78513 7.9309134,-17.71725 17.7161254,-17.71725 l 230.315131,0 c 9.785,0 17.71625,7.93212 17.71625,17.71725 l 0,75.4725 c 0,9.78388 -7.93125,17.716 -17.71625,17.716 l -230.315132,0 c -9.785211,0 -17.7161244,-7.93212 -17.7161244,-17.716 l 0,-75.4725 z"
       id="path11" />
    <path
       inkscape:connector-curvature="0"
       style="fill:#000000;fill-rule:nonzero;stroke:none"
       d="m 7.7387961,504.62839 c 0,-8.02359 6.5039129,-14.5275 14.5276249,-14.5275 l 230.314879,0 c 8.02375,0 14.5275,6.50391 14.5275,14.5275 l 0,75.4725 c 0,8.02237 -6.50375,14.5275 -14.5275,14.5275 l -230.314879,0 c -8.023712,0 -14.5276249,-6.50513 -14.5276249,-14.5275 l 0,-75.4725 z"
       id="path13" />
    <path
       inkscape:connector-curvature="0"
       style="fill:#a2ff31;fill-rule:nonzero;stroke:none;fill-opacity:1"
       d="m 12.344509,504.62843 c 0,-5.47962 4.442162,-9.92182 9.921912,-9.92182 l 230.314339,0 c 5.48,0 9.92125,4.4422 9.92125,9.92182 l 0,75.47255 c 0,5.4785 -4.44125,9.92063 -9.92125,9.92063 l -230.314338,0 c -5.479751,0 -9.921913,-4.44213 -9.921913,-9.92063 l 0,-75.47255 z"
       id="path15" />
    <path
       inkscape:connector-curvature="0"
       style="fill:#000000;fill-rule:nonzero;stroke:none"
       d="m 29.175546,525.69168 0,33.30687 4.163875,0 0,-12.52312 1.798,-3.43025 4.497125,15.95337 4.195625,0 -6.128,-21.84937 5.295375,-11.4575 -4.595875,0 -5.06225,10.82525 0,-10.82525 -4.163875,0 z"
       id="path17" />
    <path
       inkscape:connector-curvature="0"
       style="fill:#000000;fill-rule:nonzero;stroke:none"
       d="m 48.693421,558.99855 4.162625,0 0,-33.30687 -4.162625,0 0,33.30687 z"
       id="path19" />
    <path
       inkscape:connector-curvature="0"
       style="fill:#000000;fill-rule:nonzero;stroke:none"
       d="m 59.184171,525.69168 0,33.30687 4.16375,0 0,-19.718 6.195125,19.718 3.597375,0 0,-33.30687 -4.097875,0 0,17.71975 -5.694625,-17.71975 -4.16375,0 z"
       id="path21" />
    <path
       inkscape:connector-curvature="0"
       style="fill:#000000;fill-rule:evenodd;stroke:none"
       d="m 85.696546,529.8213 c 2.420625,0 3.630375,3.87463 3.630375,11.62475 0,3.9295 -0.155,6.83838 -0.46625,8.72563 -0.5115,3.24225 -1.521,4.86325 -3.031,4.86325 l -2.36575,0 0,-25.21363 2.232625,0 z m -0.367375,-4.12962 -5.894875,0 0,33.30687 6.5955,0 c 1.15475,0 2.331625,-0.43212 3.53025,-1.29875 1.0205,-0.75562 1.787125,-1.61012 2.297375,-2.56475 0.400375,-0.75437 0.744625,-2.3645 1.03275,-4.82912 0.33325,-2.70988 0.5005,-5.66275 0.5005,-8.85988 0,-3.131 -0.17825,-5.83975 -0.5335,-8.12737 -0.31,-2.08738 -0.721375,-3.47413 -1.231625,-4.16388 -1.71025,-2.3095 -3.808625,-3.46312 -6.296375,-3.46312 z"
       id="path23" />
    <path
       inkscape:connector-curvature="0"
       style="fill:#000000;fill-rule:nonzero;stroke:none"
       d="m 99.684546,525.69168 0,33.30687 12.690504,0 0,-4.06362 -8.52663,0 0,-11.991 5.2625,0 0,-4.09675 -5.2625,0 0,-9.02588 8.09325,0 0,-4.12962 -12.257124,0 z"
       id="path25" />
    <path
       inkscape:connector-curvature="0"
       style="fill:#000000;fill-rule:evenodd;stroke:none"
       d="m 124.23167,539.18168 -2.73187,0 0,-9.39325 2.73187,0 c 0.8655,0 1.587,0.56637 2.16438,1.69912 0.48825,0.97663 0.73362,2.04225 0.73362,3.19713 0,0.9765 -0.27837,1.95425 -0.8325,2.93087 -0.62262,1.04375 -1.311,1.56613 -2.0655,1.56613 z m 3.79638,2.76375 c 2.10925,-1.554 3.16425,-3.89775 3.16425,-7.02763 0,-3.35325 -0.765,-5.80687 -2.2975,-7.36087 -1.2,-1.24388 -2.77588,-1.86525 -4.73025,-1.86525 l -6.69425,0 0,33.30687 4.0295,0 0,-15.58712 2.46575,0 3.33012,15.58712 4.12913,0 -3.39675,-17.05312 z"
       id="path27" />
    <path
       inkscape:connector-curvature="0"
       style="fill:#000000;fill-rule:nonzero;stroke:none"
       d="m 145.84855,531.55355 4.09625,0 c 0,-1.88725 -0.6225,-3.44112 -1.865,-4.66312 -1.24375,-1.24388 -2.765,-1.86525 -4.56375,-1.86525 -3.06375,0 -5.14,1.76512 -6.22875,5.2955 -0.79875,2.53162 -1.19875,6.59537 -1.19875,12.19112 0,5.77263 0.4775,9.9255 1.4325,12.45725 1.155,3.12988 3.23,4.68388 6.22875,4.66188 3.04125,-0.022 5.0625,-1.59788 6.06125,-4.729 0.13375,-0.42238 0.20125,-2.28763 0.20125,-5.59575 l 0,-6.52825 -6.19625,0 0,4.19675 2.1975,0 0,4.19675 c 0,2.84187 -0.79875,4.26275 -2.3975,4.26275 -2.22,0 -3.33125,-3.51938 -3.33125,-10.55788 l 0,-2.3975 c 0,-0.24537 0,-0.75562 0,-1.53312 -0.0213,-0.77638 -0.0325,-1.40875 -0.0325,-1.89825 0,-6.55025 1.065,-9.8255 3.1975,-9.8255 0.6875,0 1.25375,0.24425 1.69875,0.7325 0.46625,0.46625 0.7,0.99975 0.7,1.59912 z"
       id="path29" />
    <path
       inkscape:connector-curvature="0"
       style="fill:#000000;fill-rule:evenodd;stroke:none"
       d="m 154.97355,558.99855 4.2625,0 1.56625,-8.3935 5.72875,0 1.86625,8.3935 4.2625,0 -7.0275,-33.30687 -4.16375,0 -6.495,33.30687 z m 6.795,-12.52312 1.8975,-9.7595 2.19875,9.7595 -4.09625,0 z"
       id="path31" />
    <path
       inkscape:connector-curvature="0"
       style="fill:#000000;fill-rule:evenodd;stroke:none"
       d="m 184.41605,539.18168 -2.73125,0 0,-9.39325 2.73125,0 c 0.86625,0 1.58875,0.56637 2.165,1.69912 0.48875,0.97663 0.7325,2.04225 0.7325,3.19713 0,0.9765 -0.27625,1.95425 -0.8325,2.93087 -0.62125,1.04375 -1.31,1.56613 -2.065,1.56613 z m 3.7975,2.76375 c 2.11,-1.554 3.16375,-3.89775 3.16375,-7.02763 0,-3.35325 -0.765,-5.80687 -2.29875,-7.36087 -1.19875,-1.24388 -2.77375,-1.86525 -4.72875,-1.86525 l -6.69375,0 0,33.30687 4.02875,0 0,-15.58712 2.465,0 3.33125,15.58712 4.13,0 -3.3975,-17.05312 z"
       id="path33" />
    <path
       inkscape:connector-curvature="0"
       style="fill:#000000;fill-rule:nonzero;stroke:none"
       d="m 196.4398,525.69168 0,4.09675 4.33,0 0,29.21012 4.23125,0 0,-29.21012 4.12875,0 0,-4.09675 -12.69,0 z"
       id="path35" />
    <path
       inkscape:connector-curvature="0"
       style="fill:#000000;fill-rule:nonzero;stroke:none"
       d="m 214.1598,525.69168 0,33.30687 12.68875,0 0,-4.06362 -8.52625,0 0,-11.991 5.2625,0 0,-4.09675 -5.2625,0 0,-9.02588 8.095,0 0,-4.12962 -12.2575,0 z"
       id="path37" />
    <path
       inkscape:connector-curvature="0"
       style="fill:#000000;fill-rule:nonzero;stroke:none"
       d="m 231.67855,525.69168 0,33.30687 4.16375,0 0,-19.718 6.195,19.718 3.5975,0 0,-33.30687 -4.0975,0 0,17.71975 -5.695,-17.71975 -4.16375,0 z"
       id="path39" />
  </g>
</svg>
