<?xml version="1.0" encoding="UTF-8" standalone="no"?>
<!-- Created with Inkscape (http://www.inkscape.org/) -->

<svg
   xmlns:dc="http://purl.org/dc/elements/1.1/"
   xmlns:cc="http://creativecommons.org/ns#"
   xmlns:rdf="http://www.w3.org/1999/02/22-rdf-syntax-ns#"
   xmlns:svg="http://www.w3.org/2000/svg"
   xmlns="http://www.w3.org/2000/svg"
   xmlns:sodipodi="http://sodipodi.sourceforge.net/DTD/sodipodi-0.dtd"
   xmlns:inkscape="http://www.inkscape.org/namespaces/inkscape"
   width="265.74875"
   height="177.16376"
   id="svg2"
   sodipodi:version="0.32"
   inkscape:version="0.48.2 r9819"
   version="1.0"
   sodipodi:docname="AJAX.svg"
   inkscape:output_extension="org.inkscape.output.svg.inkscape">
  <defs
     id="defs4">
    <inkscape:perspective
       sodipodi:type="inkscape:persp3d"
       inkscape:vp_x="0 : 300.5 : 1"
       inkscape:vp_y="0 : 1000 : 0"
       inkscape:vp_z="601 : 300.5 : 1"
       inkscape:persp3d-origin="300.5 : 200.33333 : 1"
       id="perspective3380" />
    <inkscape:perspective
       id="perspective3990"
       inkscape:persp3d-origin="375 : 250 : 1"
       inkscape:vp_z="750 : 375 : 1"
       inkscape:vp_y="0 : 1000 : 0"
       inkscape:vp_x="0 : 375 : 1"
       sodipodi:type="inkscape:persp3d" />
  </defs>
  <sodipodi:namedview
     id="base"
     pagecolor="#ffffff"
     bordercolor="#666666"
     borderopacity="1.0"
     gridtolerance="10000"
     guidetolerance="10"
     objecttolerance="10"
     inkscape:pageopacity="0.0"
     inkscape:pageshadow="2"
     inkscape:zoom="2.1059114"
     inkscape:cx="107.61755"
     inkscape:cy="100.14842"
     inkscape:document-units="px"
     inkscape:current-layer="layer1"
     width="601px"
     height="601px"
     inkscape:window-width="1280"
     inkscape:window-height="1004"
     inkscape:window-x="-8"
     inkscape:window-y="-8"
     showgrid="false"
     fit-margin-top="0"
     fit-margin-left="0"
     fit-margin-right="0"
     fit-margin-bottom="0"
     inkscape:window-maximized="1"
     showguides="true"
     inkscape:guide-bbox="true" />
  <metadata
     id="metadata7">
    <rdf:RDF>
      <cc:Work
         rdf:about="">
        <dc:format>image/svg+xml</dc:format>
        <dc:type
           rdf:resource="http://purl.org/dc/dcmitype/StillImage" />
        <dc:title></dc:title>
      </cc:Work>
    </rdf:RDF>
  </metadata>
  <g
     inkscape:label="Layer 1"
     inkscape:groupmode="layer"
     id="layer1"
     transform="translate(161.10407,320.62551)">
    <rect
       style="color:#000000;fill:#000000;fill-opacity:1;fill-rule:nonzero;stroke:none;stroke-width:0.8735441;marker:none;visibility:visible;display:inline;overflow:visible"
       id="rect3653"
       width="0"
       height="27.202072"
       x="578.73834"
       y="298.1684"
       rx="249.48199"
       ry="27.202072" />
    <path
       inkscape:connector-curvature="0"
       style="fill:#ffdb00;fill-rule:nonzero;stroke:none"
       d="m -161.10407,-302.90939 c 0,-9.78522 7.93214,-17.71612 17.71725,-17.71612 l 230.315251,0 c 9.78375,0 17.716249,7.9309 17.716249,17.71612 l 0,141.73138 c 0,9.785 -7.932499,17.71625 -17.716249,17.71625 l -230.315251,0 c -9.78511,0 -17.71725,-7.93125 -17.71725,-17.71625 l 0,-141.73138 z"
       id="path11" />
    <path
       inkscape:connector-curvature="0"
       style="fill:#000000;fill-rule:nonzero;stroke:none"
       d="m -157.56037,-302.9094 c 0,-7.82842 6.34523,-14.17363 14.17363,-14.17363 l 230.315118,0 c 7.8275,0 14.172502,6.34521 14.172502,14.17363 l 0,141.73262 c 0,7.82875 -6.345002,14.17375 -14.172502,14.17375 l -230.315118,0 c -7.8284,0 -14.17363,-6.345 -14.17363,-14.17375 l 0,-141.73262 z"
       id="path13" />
    <path
       inkscape:connector-curvature="0"
       style="fill:#ffdb00;fill-rule:nonzero;stroke:none"
       d="m -151.89142,-302.9094 c 0,-4.69725 3.80739,-8.50346 8.50464,-8.50346 l 230.315358,0 c 4.69625,0 8.50375,3.80621 8.50375,8.50346 l 0,141.73154 c 0,4.6975 -3.8075,8.50375 -8.50375,8.50375 l -230.315358,0 c -4.69725,0 -8.50464,-3.80625 -8.50464,-8.50375 l 0,-141.73154 z"
       id="path15" />
    <path
       inkscape:connector-curvature="0"
       style="fill:#000000;fill-rule:nonzero;stroke:none"
       d="m -119.11428,-220.83302 0,44.29063 6.156,0 0,-21.3915 9.0795,0 0,-6.33413 -9.0795,0 0,-10.453 15.988745,0 0,-6.112 -22.144745,0 z"
       id="path17" />
    <path
       inkscape:connector-curvature="0"
       style="fill:#000000;fill-rule:evenodd;stroke:none"
       d="m -71.368915,-198.11202 c 1.94938,-0.67875 3.52775,-2.11062 4.73876,-4.29575 1.0925,-2.008 1.63937,-4.14787 1.63937,-6.42212 0,-2.9235 -0.90087,-5.61025 -2.70137,-8.0615 -1.92025,-2.62688 -4.19313,-3.94163 -6.82138,-3.94163 l -14.83762,0 0,44.29063 6.11212,0 0,-20.55038 5.758,0 5.88988,20.55038 6.60037,0 -6.37812,-21.56963 z m -4.11987,-5.359 -7.75025,0 0,-11.02775 7.79538,0 c 2.6575,0 3.98562,1.81513 3.98562,5.448 0,1.47575 -0.32475,2.73075 -0.97412,3.76463 -0.73851,1.20975 -1.75663,1.81512 -3.05663,1.81512 z"
       id="path19" />
    <path
       inkscape:connector-curvature="0"
       style="fill:#000000;fill-rule:evenodd;stroke:none"
       d="m -44.484155,-175.69989 c 4.31025,0 7.5585,-2.06625 9.7435,-6.2 2.0375,-3.92875 3.05625,-9.5375 3.05625,-16.83113 0,-15.32463 -4.2375,-22.987 -12.711875,-22.987 -8.6805,0 -13.021255,7.66237 -13.021255,22.987 0,15.35363 4.310255,23.03113 12.93338,23.03113 z m 0,-6.37875 c -2.50975,0 -4.296875,-1.60875 -5.360125,-4.8275 -0.85575,-2.62625 -1.283,-6.57 -1.283,-11.82488 0,-11.22062 2.213125,-16.831 6.643125,-16.831 4.399375,0 6.599125,5.61038 6.599125,16.831 0,11.10238 -2.19975,16.65238 -6.599125,16.65238 z"
       id="path21" />
    <path
       inkscape:connector-curvature="0"
       style="fill:#000000;fill-rule:nonzero;stroke:none"
       d="m -24.15441,-189.42989 c 0,4.39875 1.21,7.83875 3.63125,10.31875 2.215005,2.275 5.063755,3.41125 8.548755,3.41125 3.395,0 6.23,-1.1225 8.50375,-3.36625 2.36125,-2.3625 3.54375,-5.46375 3.54375,-9.30125 0,-7.44125 -4.25375,-13.25788 -12.75625,-17.451 -2.00875,-0.97413 -3.0125,-2.68676 -3.0125,-5.13788 0,-1.26963 0.56125,-2.37675 1.6825,-3.32162 1.03375,-0.88613 2.17125,-1.32813 3.4125,-1.32813 1.09125,0 2.14,0.575 3.14375,1.72738 1.0325,1.12175 1.55,2.24362 1.55,3.3655 l 6.11125,0 c 0,-3.1885 -1.0325,-5.846 -3.09875,-7.9725 -2.0375,-2.15575 -4.6075,-3.23238 -7.70625,-3.23238 -2.98375,0 -5.5975,1.018 -7.84125,3.05538 -2.361255,2.09724 -3.542505,4.63625 -3.542505,7.6185 0,1.9775 0.4275,3.85374 1.285,5.625 0.855,1.74187 2.022505,3.14449 3.497505,4.20775 2.0375,1.24025 4.075,2.48037 6.1125,3.7195 2.15625,1.53575 3.61875,3.5595 4.385,6.06824 0.325,1.0625 0.4875,2.08251 0.4875,3.05626 0,1.89 -0.53125,3.47 -1.595,4.73875 -1.0325,1.27 -2.42,1.89 -4.1625,1.86 -2.0975,-0.0288 -3.6025,-0.66375 -4.5175,-1.90375 -0.88625,-1.24 -1.34375,-3.15875 -1.37375,-5.7575 l -6.288755,0 z"
       id="path23" />
    <path
       inkscape:connector-curvature="0"
       style="fill:#000000;fill-rule:nonzero;stroke:none"
       d="m 7.779335,-220.83302 0,5.846 7.8825,0 0,38.44463 6.51125,0 0,-38.44463 7.7525,0 0,-5.846 -22.14625,0 z"
       id="path25" />
    <path
       inkscape:connector-curvature="0"
       style="fill:#000000;fill-rule:nonzero;stroke:none"
       d="m 34.884335,-220.83302 11.03,24.18313 0,20.1075 6.51125,0 0,-20.1075 10.4075,-24.18313 -6.68875,0 -7.08624,15.76788 -7.26376,-15.76788 -6.91,0 z"
       id="path27" />
    <path
       inkscape:connector-curvature="0"
       style="fill:#000000;fill-rule:nonzero;stroke:none"
       d="m -92.539655,-287.4504 7.17412,44.29188 5.227,0 4.34088,-22.677 4.25175,22.677 5.49187,0 6.73225,-44.29188 -6.33313,0 -3.41062,23.43012 -4.20775,-23.43012 -5.18187,0 -4.16376,23.03213 -3.67674,-23.03213 -6.244,0 z"
       id="path29" />
    <path
       inkscape:connector-curvature="0"
       style="fill:#000000;fill-rule:nonzero;stroke:none"
       d="m -51.70341,-287.4504 0,44.29188 6.289,0 0,-20.10863 12.18,0 0,20.10863 5.89,0 0,-44.29188 -5.89,0 0,17.93813 -12.18,0 0,-17.93813 -6.289,0 z"
       id="path31" />
    <path
       inkscape:connector-curvature="0"
       style="fill:#000000;fill-rule:nonzero;stroke:none"
       d="m -18.043165,-287.4504 0,44.29188 22.14625,0 0,-6.245 -16.0775,0 0,-14.61676 9.43375,0 0,-6.06687 -9.43375,0 0,-11.11825 15.36875,0 0,-6.245 -21.4375,0 z"
       id="path33" />
    <path
       inkscape:connector-curvature="0"
       style="fill:#000000;fill-rule:nonzero;stroke:none"
       d="m 11.676835,-287.4504 0,44.29188 6.1125,0 0,-29.10025 13.1975,29.10025 5.05,0 0,-44.29188 -6.4225,0 0,25.6005 -11.825,-25.6005 -6.1125,0 z"
       id="path35" />
  </g>
</svg>
