<?xml version="1.0" encoding="UTF-8" standalone="no"?>
<!-- Created with Inkscape (http://www.inkscape.org/) -->

<svg
   xmlns:dc="http://purl.org/dc/elements/1.1/"
   xmlns:cc="http://creativecommons.org/ns#"
   xmlns:rdf="http://www.w3.org/1999/02/22-rdf-syntax-ns#"
   xmlns:svg="http://www.w3.org/2000/svg"
   xmlns="http://www.w3.org/2000/svg"
   xmlns:sodipodi="http://sodipodi.sourceforge.net/DTD/sodipodi-0.dtd"
   xmlns:inkscape="http://www.inkscape.org/namespaces/inkscape"
   width="212.5975"
   height="141.7325"
   id="svg2"
   sodipodi:version="0.32"
   inkscape:version="0.48.2 r9819"
   version="1.0"
   sodipodi:docname="AJAX.svg"
   inkscape:output_extension="org.inkscape.output.svg.inkscape">
  <defs
     id="defs4">
    <inkscape:perspective
       sodipodi:type="inkscape:persp3d"
       inkscape:vp_x="0 : 300.5 : 1"
       inkscape:vp_y="0 : 1000 : 0"
       inkscape:vp_z="601 : 300.5 : 1"
       inkscape:persp3d-origin="300.5 : 200.33333 : 1"
       id="perspective3380" />
    <inkscape:perspective
       id="perspective3990"
       inkscape:persp3d-origin="375 : 250 : 1"
       inkscape:vp_z="750 : 375 : 1"
       inkscape:vp_y="0 : 1000 : 0"
       inkscape:vp_x="0 : 375 : 1"
       sodipodi:type="inkscape:persp3d" />
  </defs>
  <sodipodi:namedview
     id="base"
     pagecolor="#ffffff"
     bordercolor="#666666"
     borderopacity="1.0"
     gridtolerance="10000"
     guidetolerance="10"
     objecttolerance="10"
     inkscape:pageopacity="0.0"
     inkscape:pageshadow="2"
     inkscape:zoom="3.6392429"
     inkscape:cx="120.47077"
     inkscape:cy="35.319362"
     inkscape:document-units="px"
     inkscape:current-layer="layer1"
     width="601px"
     height="601px"
     inkscape:window-width="1280"
     inkscape:window-height="1004"
     inkscape:window-x="-8"
     inkscape:window-y="-8"
     showgrid="false"
     fit-margin-top="0"
     fit-margin-left="0"
     fit-margin-right="0"
     fit-margin-bottom="0"
     inkscape:window-maximized="1" />
  <metadata
     id="metadata7">
    <rdf:RDF>
      <cc:Work
         rdf:about="">
        <dc:format>image/svg+xml</dc:format>
        <dc:type
           rdf:resource="http://purl.org/dc/dcmitype/StillImage" />
      </cc:Work>
    </rdf:RDF>
  </metadata>
  <g
     inkscape:label="Layer 1"
     inkscape:groupmode="layer"
     id="layer1"
     transform="translate(-3.0061336,-457.32105)">
    <rect
       style="color:#000000;fill:#000000;fill-opacity:1;fill-rule:nonzero;stroke:none;stroke-width:0.8735441;marker:none;visibility:visible;display:inline;overflow:visible"
       id="rect3653"
       width="0"
       height="27.202072"
       x="578.73834"
       y="298.1684"
       rx="249.48199"
       ry="27.202072" />
    <path
       inkscape:connector-curvature="0"
       style="fill:#ffdb00;fill-rule:nonzero;stroke:none"
       d="m 3.0061337,471.49468 c 0,-7.82842 6.3452125,-14.17363 14.1723743,-14.17363 l 184.251382,0 c 7.82875,0 14.17375,6.34521 14.17375,14.17363 l 0,113.38512 c 0,7.82875 -6.345,14.17375 -14.17375,14.17375 l -184.251382,0 c -7.8271618,0 -14.1723744,-6.345 -14.1723744,-14.17375 l 0,-113.38512 z"
       id="path11" />
    <path
       inkscape:connector-curvature="0"
       style="fill:#000000;fill-rule:nonzero;stroke:none"
       d="m 5.8406049,471.49462 c 0,-6.2622 5.0756871,-11.3391 11.3378621,-11.3391 l 184.250893,0 c 6.2625,0 11.34,5.0769 11.34,11.3391 l 0,113.38515 c 0,6.262 -5.0775,11.33825 -11.34,11.33825 l -184.250892,0 c -6.262176,0 -11.3378631,-5.07625 -11.3378631,-11.33825 l 0,-113.38515 z"
       id="path13" />
    <path
       inkscape:connector-curvature="0"
       style="fill:#ffdb00;fill-rule:nonzero;stroke:none"
       d="m 10.446317,471.49463 c 0,-3.71825 3.013913,-6.73218 6.73215,-6.73218 l 184.251603,0 c 3.71875,0 6.73375,3.01393 6.73375,6.73218 l 0,113.38507 c 0,3.71875 -3.015,6.734 -6.73375,6.734 l -184.251603,0 c -3.718237,0 -6.73215,-3.01525 -6.73215,-6.734 l 0,-113.38507 z"
       id="path15" />
    <path
       inkscape:connector-curvature="0"
       style="fill:#000000;fill-rule:nonzero;stroke:none"
       d="m 43.399217,502.54813 8.149375,9.21262 c 2.362125,-2.69162 5.741,-4.77175 10.13425,-6.23537 3.685375,-1.22925 7.417,-1.84325 11.196375,-1.84325 3.731625,0 7.1105,0.92162 10.13425,2.76362 3.0225,1.79575 4.534875,3.77938 4.534875,5.95338 0,2.7405 -0.898375,4.79624 -2.692875,6.16587 -1.228,0.9435 -3.42525,1.81875 -6.5905,2.62075 -4.0625,0.9925 -6.873875,1.82013 -8.433875,2.4805 -7.84175,3.30812 -14.172375,8.59862 -18.99175,15.874 -4.771625,7.229 -7.157,15.26 -7.157,24.09425 l 56.408748,0 0,-12.6135 -41.314748,0 c 0.9925,-3.82687 3.379,-7.37062 7.15825,-10.62987 4.5825,-4.01613 10.2515,-6.56613 17.008125,-7.65388 3.826875,-0.614 7.416875,-2.57437 10.771375,-5.88125 4.016125,-3.87337 6.02425,-8.33863 6.02425,-13.39362 0,-7.08738 -2.954125,-12.66113 -8.858625,-16.72488 -5.196625,-3.59 -11.576,-5.38575 -19.134625,-5.38575 -4.91325,0 -9.96825,1.04013 -15.16475,3.11775 -5.19775,2.0325 -9.591,4.72413 -13.181125,8.07863 z"
       id="path17" />
    <path
       inkscape:connector-curvature="0"
       style="fill:#000000;fill-rule:nonzero;stroke:none"
       d="m 122.98047,492.769 -2.19725,33.51938 12.47275,3.68525 c 1.22875,-1.18038 3.6375,-2.14963 7.22875,-2.90525 2.9275,-0.614 5.52625,-0.92163 7.795,-0.92163 3.77875,0 7.03875,0.96925 9.78,2.9065 3.3075,2.31438 4.96,5.57375 4.96,9.779 0,3.82687 -1.29875,7.08625 -3.8975,9.77913 -2.5975,2.6465 -5.85875,3.99287 -9.78,4.03925 -4.015,0.0476 -8.50375,-0.44925 -13.46375,-1.488 -5.15,-1.0865 -9.14188,-2.43288 -11.9775,-4.03938 l -5.243,10.702 c 8.73925,4.7705 19.2505,7.15575 31.53425,7.15575 6.94625,0 12.89875,-2.62087 17.85875,-7.865 4.82,-5.19775 7.2275,-11.2915 7.2275,-18.28375 0,-6.37812 -2.5025,-12.11787 -7.51,-17.22037 -5.00875,-5.15025 -10.6775,-7.72463 -17.01,-7.72463 -5.29,0 -11.0775,0.874 -17.36,2.622 l 0.92,-11.55025 35.07875,0 0,-12.19 -46.41675,0 z"
       id="path19" />
  </g>
</svg>
