<?xml version="1.0" encoding="UTF-8" standalone="no"?>
<!-- Created with Inkscape (http://www.inkscape.org/) -->

<svg
   xmlns:dc="http://purl.org/dc/elements/1.1/"
   xmlns:cc="http://creativecommons.org/ns#"
   xmlns:rdf="http://www.w3.org/1999/02/22-rdf-syntax-ns#"
   xmlns:svg="http://www.w3.org/2000/svg"
   xmlns="http://www.w3.org/2000/svg"
   xmlns:sodipodi="http://sodipodi.sourceforge.net/DTD/sodipodi-0.dtd"
   xmlns:inkscape="http://www.inkscape.org/namespaces/inkscape"
   width="212.5975"
   height="141.7325"
   id="svg2"
   sodipodi:version="0.32"
   inkscape:version="0.48.2 r9819"
   version="1.0"
   sodipodi:docname="AJAX6.svg"
   inkscape:output_extension="org.inkscape.output.svg.inkscape">
  <defs
     id="defs4">
    <inkscape:perspective
       sodipodi:type="inkscape:persp3d"
       inkscape:vp_x="0 : 300.5 : 1"
       inkscape:vp_y="0 : 1000 : 0"
       inkscape:vp_z="601 : 300.5 : 1"
       inkscape:persp3d-origin="300.5 : 200.33333 : 1"
       id="perspective3380" />
    <inkscape:perspective
       id="perspective3990"
       inkscape:persp3d-origin="375 : 250 : 1"
       inkscape:vp_z="750 : 375 : 1"
       inkscape:vp_y="0 : 1000 : 0"
       inkscape:vp_x="0 : 375 : 1"
       sodipodi:type="inkscape:persp3d" />
  </defs>
  <sodipodi:namedview
     id="base"
     pagecolor="#ffffff"
     bordercolor="#666666"
     borderopacity="1.0"
     gridtolerance="10000"
     guidetolerance="10"
     objecttolerance="10"
     inkscape:pageopacity="0.0"
     inkscape:pageshadow="2"
     inkscape:zoom="2.5733333"
     inkscape:cx="154.30747"
     inkscape:cy="30.569093"
     inkscape:document-units="px"
     inkscape:current-layer="layer1"
     width="601px"
     height="601px"
     inkscape:window-width="1280"
     inkscape:window-height="1004"
     inkscape:window-x="-8"
     inkscape:window-y="-8"
     showgrid="false"
     fit-margin-top="0"
     fit-margin-left="0"
     fit-margin-right="0"
     fit-margin-bottom="0"
     inkscape:window-maximized="1" />
  <metadata
     id="metadata7">
    <rdf:RDF>
      <cc:Work
         rdf:about="">
        <dc:format>image/svg+xml</dc:format>
        <dc:type
           rdf:resource="http://purl.org/dc/dcmitype/StillImage" />
        <dc:title></dc:title>
      </cc:Work>
    </rdf:RDF>
  </metadata>
  <g
     inkscape:label="Layer 1"
     inkscape:groupmode="layer"
     id="layer1"
     transform="translate(-3.0061336,-457.32105)">
    <rect
       style="color:#000000;fill:#000000;fill-opacity:1;fill-rule:nonzero;stroke:none;stroke-width:0.8735441;marker:none;visibility:visible;display:inline;overflow:visible"
       id="rect3653"
       width="0"
       height="27.202072"
       x="578.73834"
       y="298.1684"
       rx="249.48199"
       ry="27.202072" />
    <path
       inkscape:connector-curvature="0"
       style="fill:#ffdb00;fill-rule:nonzero;stroke:none"
       d="m 3.0061337,471.49468 c 0,-7.82842 6.3452125,-14.17363 14.1723743,-14.17363 l 184.251382,0 c 7.82875,0 14.17375,6.34521 14.17375,14.17363 l 0,113.38512 c 0,7.82875 -6.345,14.17375 -14.17375,14.17375 l -184.251382,0 c -7.8271618,0 -14.1723744,-6.345 -14.1723744,-14.17375 l 0,-113.38512 z"
       id="path11" />
    <path
       inkscape:connector-curvature="0"
       style="fill:#000000;fill-rule:nonzero;stroke:none"
       d="m 5.8406049,471.49462 c 0,-6.2622 5.0756871,-11.3391 11.3378621,-11.3391 l 184.250893,0 c 6.2625,0 11.34,5.0769 11.34,11.3391 l 0,113.38515 c 0,6.262 -5.0775,11.33825 -11.34,11.33825 l -184.250892,0 c -6.262176,0 -11.3378631,-5.07625 -11.3378631,-11.33825 l 0,-113.38515 z"
       id="path13" />
    <path
       inkscape:connector-curvature="0"
       style="fill:#ffdb00;fill-rule:nonzero;stroke:none"
       d="m 10.446317,471.49463 c 0,-3.71825 3.013913,-6.73218 6.73215,-6.73218 l 184.251603,0 c 3.71875,0 6.73375,3.01393 6.73375,6.73218 l 0,113.38507 c 0,3.71875 -3.015,6.734 -6.73375,6.734 l -184.251603,0 c -3.718237,0 -6.73215,-3.01525 -6.73215,-6.734 l 0,-113.38507 z"
       id="path15" />
    <path
       style="fill:#000000;fill-rule:evenodd;stroke:none"
       d="m 51.052957,523.87989 c -5.00725,4.86575 -7.534125,10.62863 -7.58175,17.29125 -0.04762,7.27538 2.5745,13.06275 7.86625,17.36201 5.338125,4.29937 12.44875,6.44787 21.3305,6.44787 8.74025,0 15.614,-2.52688 20.621375,-7.58313 4.67775,-4.67649 6.944628,-10.60537 6.802998,-17.78675 -0.094,-5.52737 -2.622123,-10.91312 -7.581748,-16.15724 3.68525,-3.77938 5.479625,-8.36313 5.38575,-13.74763 -0.09525,-5.05488 -2.338875,-9.331 -6.73225,-12.82712 -4.724125,-3.68525 -10.84225,-5.52738 -18.3545,-5.52738 -7.843,0 -14.29075,1.55888 -19.345625,4.6765 -5.434625,3.3545 -8.15075,7.91387 -8.15075,13.678 0,3.21288 0.35525,5.73975 1.06325,7.58187 0.80325,2.03238 2.362125,4.2285 4.6765,6.59175 z m 20.907,29.19675 c -4.772875,0 -8.55225,-0.89837 -11.339125,-2.69412 -3.2605,-2.03 -4.890125,-5.10125 -4.890125,-9.21137 0,-4.06375 1.629625,-7.11063 4.890125,-9.14313 2.786875,-1.74675 6.56625,-2.62075 11.339125,-2.62075 4.34575,0 8.100625,1.15713 11.267125,3.47163 3.212875,2.31574 4.818125,5.07937 4.818125,8.29225 0,3.25924 -1.60525,6.07049 -4.818125,8.43137 -3.1665,2.31575 -6.921375,3.47412 -11.267125,3.47412 z m 0,-35.22087 c -4.063625,0 -7.370625,-0.56763 -9.923,-1.70175 -2.880875,-1.27438 -4.34575,-3.04687 -4.393375,-5.31488 -0.04637,-2.3145 1.394,-4.11012 4.32375,-5.38574 2.597625,-1.1805 5.929,-1.77125 9.992625,-1.77125 3.920875,0 7.132625,0.63837 9.63625,1.91399 2.504875,1.2745 3.756125,3.02375 3.756125,5.243 0,2.31563 -1.298875,4.08688 -3.89775,5.31488 -2.362,1.13412 -5.526125,1.70175 -9.494625,1.70175 z"
       id="path17"
       inkscape:connector-curvature="0" />
    <path
       style="fill:#000000;fill-rule:nonzero;stroke:none"
       d="m 122.9817,492.76777 -2.19725,33.52062 12.47213,3.68525 c 1.22875,-1.18037 3.6375,-2.14962 7.22875,-2.90524 2.92875,-0.61401 5.5275,-0.92163 7.795,-0.92163 3.78,0 7.03875,0.96925 9.78125,2.90525 3.305,2.31562 4.95875,5.57488 4.95875,9.78025 0,3.82687 -1.29875,7.085 -3.8975,9.779 -2.5975,2.6465 -5.8575,3.993 -9.77875,4.03937 -4.01625,0.0476 -8.505,-0.44924 -13.465,-1.48799 -5.15125,-1.0865 -9.14125,-2.43288 -11.977,-4.03938 l -5.24288,10.70075 c 8.73863,4.77163 19.24988,7.157 31.53488,7.157 6.945,0 12.8975,-2.62213 17.85875,-7.86625 4.81875,-5.1965 7.2275,-11.2915 7.2275,-18.2825 0,-6.37813 -2.50375,-12.11912 -7.51125,-17.2205 -5.00875,-5.15013 -10.6775,-7.7245 -17.00875,-7.7245 -5.29125,0 -11.07875,0.874 -17.36125,2.622 l 0.92,-11.5515 35.08,0 0,-12.19 -46.41738,0 z"
       id="path19"
       inkscape:connector-curvature="0" />
  </g>
</svg>
