<?xml version="1.0" encoding="UTF-8" standalone="no"?>
<!-- Generator: Adobe Illustrator 12.0.1, SVG Export Plug-In  -->

<svg
   xmlns:dc="http://purl.org/dc/elements/1.1/"
   xmlns:cc="http://creativecommons.org/ns#"
   xmlns:rdf="http://www.w3.org/1999/02/22-rdf-syntax-ns#"
   xmlns:svg="http://www.w3.org/2000/svg"
   xmlns="http://www.w3.org/2000/svg"
   xmlns:sodipodi="http://sodipodi.sourceforge.net/DTD/sodipodi-0.dtd"
   xmlns:inkscape="http://www.inkscape.org/namespaces/inkscape"
   version="1.1"
   width="336.61374"
   height="106.29875"
   viewBox="-0.779 0 336.61374 106.29875"
   enable-background="new -0.779 0 98 288"
   xml:space="preserve"
   id="svg2"
   inkscape:version="0.48.2 r9819"
   sodipodi:docname="AJAX3.svg"><metadata
   id="metadata36"><rdf:RDF><cc:Work
       rdf:about=""><dc:format>image/svg+xml</dc:format><dc:type
         rdf:resource="http://purl.org/dc/dcmitype/StillImage" /><dc:title></dc:title></cc:Work></rdf:RDF></metadata><sodipodi:namedview
   pagecolor="#ffffff"
   bordercolor="#666666"
   borderopacity="1"
   objecttolerance="10"
   gridtolerance="10"
   guidetolerance="10"
   inkscape:pageopacity="0"
   inkscape:pageshadow="2"
   inkscape:window-width="1280"
   inkscape:window-height="1004"
   id="namedview34"
   showgrid="false"
   fit-margin-top="0"
   fit-margin-left="0"
   fit-margin-right="0"
   fit-margin-bottom="0"
   inkscape:zoom="1.3867569"
   inkscape:cx="143.86195"
   inkscape:cy="-33.250787"
   inkscape:window-x="-8"
   inkscape:window-y="-8"
   inkscape:window-maximized="1"
   inkscape:current-layer="svg2" />
<defs
   id="defs4">
</defs>














<path
   inkscape:connector-curvature="0"
   style="fill:#ffdb00;fill-rule:nonzero;stroke:none"
   d="M -0.779,17.715999 C -0.779,7.9309119 7.1519124,-1.0712629e-6 16.937,-1.0712629e-6 l 301.1815,0 c 9.78375,0 17.71625,7.9309129712629 17.71625,17.7160000712629 l 0,70.8655 c 0,9.785125 -7.9325,17.717251 -17.71625,17.717251 l -301.1815,0 c -9.7850876,0 -17.716,-7.932126 -17.716,-17.717251 l 0,-70.8655 z"
   id="path11" /><path
   inkscape:connector-curvature="0"
   style="fill:#000000;fill-rule:nonzero;stroke:none"
   d="m 2.7634812,17.716104 c 0,-7.8271871 6.3452125,-14.1736251 14.1734998,-14.1736251 l 301.180249,0 c 7.82875,0 14.17375,6.346438 14.17375,14.1736251 l 0,70.865375 c 0,7.828375 -6.345,14.173631 -14.17375,14.173631 l -301.180249,0 c -7.8282873,0 -14.1734998,-6.345256 -14.1734998,-14.173631 l 0,-70.865375 z"
   id="path13" /><path
   inkscape:connector-curvature="0"
   style="fill:#ffdb00;fill-rule:nonzero;stroke:none"
   d="m 8.4324312,17.716039 c 0,-4.69725 3.8073248,-8.5033881 8.5045748,-8.5033881 l 301.181674,0 c 4.69625,0 8.50375,3.8061381 8.50375,8.5033881 l 0,70.865487 c 0,4.69725 -3.8075,8.504625 -8.50375,8.504625 l -301.181674,0 c -4.69725,0 -8.5045748,-3.807375 -8.5045748,-8.504625 l 0,-70.865487 z"
   id="path15" /><path
   inkscape:connector-curvature="0"
   style="fill:#000000;fill-rule:nonzero;stroke:none"
   d="m 39.614006,44.243164 0,35.432125 4.889,0 0,-23.27875 10.56025,23.27875 4.038125,0 0,-35.432125 -5.13675,0 0,20.47975 -9.461625,-20.47975 -4.889,0 z"
   id="path17" /><path
   inkscape:connector-curvature="0"
   style="fill:#000000;fill-rule:nonzero;stroke:none"
   d="m 66.542756,44.243164 0,35.432125 17.71725,0 0,-4.995125 -12.8625,0 0,-11.693125 7.546375,0 0,-4.85475 -7.546375,0 0,-8.894 12.294875,0 0,-4.995125 -17.149625,0 z"
   id="path19" /><path
   inkscape:connector-curvature="0"
   style="fill:#000000;fill-rule:nonzero;stroke:none"
   d="m 95.704131,61.534414 -7.617125,18.140875 5.4565,0 5.0305,-11.72725 4.819374,11.72725 5.59812,0 -7.65262,-18.140875 7.26325,-17.29125 -5.59813,0 -4.429994,10.559125 -4.57025,-10.559125 -5.315,0 7.015375,17.29125 z"
   id="path21" /><path
   inkscape:connector-curvature="0"
   style="fill:#000000;fill-rule:nonzero;stroke:none"
   d="m 112.92588,44.243164 0,4.6765 6.30612,0 0,30.755625 5.20813,0 0,-30.755625 6.20125,0 0,-4.6765 -17.7155,0 z"
   id="path23" /><path
   inkscape:connector-curvature="0"
   style="fill:#000000;fill-rule:nonzero;stroke:none"
   d="m 166.11013,40.106164 7.335,0 c 0,-1.806625 0.76124,-3.4545 2.28624,-4.942625 1.52126,-1.488 3.15251,-2.232625 4.88875,-2.232625 1.70001,0 3.3125,0.76175 4.83625,2.285125 1.55875,1.524625 2.32,3.02975 2.28625,4.517875 -0.0363,2.19725 -0.92124,4.16375 -2.65875,5.899625 -0.53125,0.567625 -2.19625,1.84325 -4.99625,3.826875 -4.39374,3.11775 -7.88375,7.8125 -10.47,14.0845 -2.26624,5.493125 -3.40124,10.878875 -3.40124,16.15725 l 29.125,0 0,-7.493875 -20.19626,0 c 0,-3.0115 1.20501,-6.289125 3.615,-9.831625 2.33876,-3.4375 5.4725,-6.64425 9.4075,-9.620375 4.57,-3.472875 6.855,-7.565875 6.855,-12.27775 0,-4.25175 -1.45249,-7.81375 -4.35749,-10.683625 -2.87001,-2.869875 -6.30751,-4.30425 -10.31126,-4.30425 -3.96875,0 -7.33375,1.416125 -10.09874,4.25175 -2.76375,2.8345 -4.145,6.289125 -4.145,10.36375 z"
   id="path25" /><path
   inkscape:connector-curvature="0"
   style="fill:#000000;fill-rule:nonzero;stroke:none"
   d="m 255.06763,79.724164 -10.8725,-15.8265 10.8725,-11.088875 -7.75125,0 -10.60251,11.088875 0,-21.4245 -5.76125,0 0,37.251 5.76125,0 0,-8.3435 3.5525,-3.55225 7.85875,11.89575 6.94251,0 z"
   id="path27" /><path
   inkscape:connector-curvature="0"
   style="fill:#000000;fill-rule:nonzero;stroke:none"
   d="m 295.44012,79.724164 0,-15.3955 c 0,-4.1455 -0.3225,-6.19025 -1.29125,-7.80525 -1.45374,-2.691625 -4.30625,-4.14425 -7.80625,-4.14425 -3.22875,0 -5.43625,1.075375 -7.37375,3.606 -1.45375,-2.476875 -3.71374,-3.661 -6.83624,-3.661 -2.63876,0 -4.41376,0.808125 -6.45876,2.854 l 0,-2.369375 -5.65375,0 0,26.915375 5.65375,0 0,-15.288125 c 0,-2.153375 0.26875,-3.391125 1.075,-4.414125 0.8625,-1.23775 2.37,-2.045875 3.82251,-2.045875 1.29124,0 2.63749,0.592125 3.39124,1.66875 0.70001,0.96925 0.86125,1.831 0.86125,4.630125 l 0,15.44925 5.92125,0 0,-15.44925 c 0,-2.475625 0.16125,-3.392375 0.8075,-4.253 0.915,-1.2915 2.4225,-2.0995 3.92875,-2.0995 1.66875,0 3.01625,0.808 3.66125,2.15325 0.37625,0.806875 0.485,1.9385 0.485,4.19925 l 0,15.44925 5.8125,0 z"
   id="path29" /></svg>