<?xml version="1.0" encoding="UTF-8" standalone="no"?>
<!-- Created with Inkscape (http://www.inkscape.org/) -->

<svg
   xmlns:dc="http://purl.org/dc/elements/1.1/"
   xmlns:cc="http://creativecommons.org/ns#"
   xmlns:rdf="http://www.w3.org/1999/02/22-rdf-syntax-ns#"
   xmlns:svg="http://www.w3.org/2000/svg"
   xmlns="http://www.w3.org/2000/svg"
   xmlns:sodipodi="http://sodipodi.sourceforge.net/DTD/sodipodi-0.dtd"
   xmlns:inkscape="http://www.inkscape.org/namespaces/inkscape"
   id="svg17624"
   version="1.1"
   inkscape:version="0.48.2 r9819"
   width="360.62711"
   height="360.6124"
   xml:space="preserve"
   sodipodi:docname="AA6.svg"><metadata
     id="metadata17630"><rdf:RDF><cc:Work
         rdf:about=""><dc:format>image/svg+xml</dc:format><dc:type
           rdf:resource="http://purl.org/dc/dcmitype/StillImage" /><dc:title></dc:title></cc:Work></rdf:RDF></metadata><defs
     id="defs17628"><inkscape:perspective
       sodipodi:type="inkscape:persp3d"
       inkscape:vp_x="0 : 0.5 : 1"
       inkscape:vp_y="0 : 1000 : 0"
       inkscape:vp_z="1 : 0.5 : 1"
       inkscape:persp3d-origin="0.5 : 0.33333333 : 1"
       id="perspective17632" /><clipPath
       clipPathUnits="userSpaceOnUse"
       id="clipPath17642"><path
         d="m -2,710 501,0 0,-711 -501,0 0,711 z"
         id="path17644"
         inkscape:connector-curvature="0" /></clipPath><clipPath
       clipPathUnits="userSpaceOnUse"
       id="clipPath17648"><path
         d="m 0,708.06 498,0 0,-708 -498,0 0,708 z"
         id="path17650"
         inkscape:connector-curvature="0" /></clipPath><clipPath
       clipPathUnits="userSpaceOnUse"
       id="clipPath17798"><path
         d="m -2,710 501,0 0,-711 -501,0 0,711 z"
         id="path17800"
         inkscape:connector-curvature="0" /></clipPath><clipPath
       clipPathUnits="userSpaceOnUse"
       id="clipPath17804"><path
         d="m 0,708.06 498,0 0,-708 -498,0 0,708 z"
         id="path17806"
         inkscape:connector-curvature="0" /></clipPath><clipPath
       id="Clip0"><path
         inkscape:connector-curvature="0"
         d="m 0,0 212.597,0 0,269.292 L 0,269.292 0,0 z"
         transform="translate(0.923828,0.879883)"
         id="path7" /></clipPath><clipPath
       id="Clip0-8"><path
         inkscape:connector-curvature="0"
         d="m 0,0 170.079,0 0,113.386 L 0,113.386 0,0 z"
         transform="translate(0.0986328,0.822266)"
         id="path7-8" /></clipPath><clipPath
       id="Clip0-1"><path
         inkscape:connector-curvature="0"
         d="m 0,0 287.009,0 0,159.449 L 0,159.449 0,0 z"
         transform="translate(0.396484,0.267578)"
         id="path7-7" /></clipPath><clipPath
       id="Clip0-9"><path
         inkscape:connector-curvature="0"
         d="m 0,0 170.079,0 0,170.079 L 0,170.079 0,0 z"
         transform="translate(0.460938,0.775391)"
         id="path7-4" /></clipPath><clipPath
       id="Clip0-4"><path
         inkscape:connector-curvature="0"
         d="m 0,0 340.157,0 0,226.771 L 0,226.771 0,0 z"
         transform="translate(0.921875,0.25293)"
         id="path7-5" /></clipPath><clipPath
       id="Clip0-5"><path
         inkscape:connector-curvature="0"
         d="m 0,0 255.119,0 0,170.079 L 0,170.079 0,0 z"
         transform="translate(0.147461,0.0595703)"
         id="path7-1" /></clipPath><clipPath
       id="Clip0-0"><path
         inkscape:connector-curvature="0"
         d="m 0,0 170.079,0 0,113.386 L 0,113.386 0,0 z"
         transform="translate(0.0673828,0.207031)"
         id="path7-9" /></clipPath></defs><sodipodi:namedview
     pagecolor="#ffffff"
     bordercolor="#666666"
     borderopacity="1"
     objecttolerance="10"
     gridtolerance="10"
     guidetolerance="10"
     inkscape:pageopacity="0"
     inkscape:pageshadow="2"
     inkscape:window-width="1280"
     inkscape:window-height="1004"
     id="namedview17626"
     showgrid="false"
     inkscape:zoom="1.4142136"
     inkscape:cx="131.23095"
     inkscape:cy="136.67419"
     inkscape:window-x="-8"
     inkscape:window-y="-8"
     inkscape:window-maximized="1"
     inkscape:current-layer="g17634"
     fit-margin-top="0"
     fit-margin-left="0"
     fit-margin-right="0"
     fit-margin-bottom="0"
     showguides="true"
     inkscape:guide-bbox="true" /><g
     id="g17634"
     inkscape:groupmode="layer"
     inkscape:label="GG1999P002"
     transform="matrix(1.25,0,0,-1.25,2888.9468,-1113.5877)"><path
       inkscape:connector-curvature="0"
       style="fill:#ffdb00;fill-rule:nonzero;stroke:none"
       d="m -2026.9554,-1024.7336 c 5.733,-5.733 5.733,-15.029 -8e-4,-20.764 l -129.57,-129.562 c -5.735,-5.734 -15.031,-5.734 -20.765,0 l -129.5658,129.562 c -5.7344,5.735 -5.7334,15.031 0,20.764 l 129.5716,129.56264 c 5.734,5.73438 15.03,5.73438 20.764,0 l 129.566,-129.56264 z"
       id="path11" /><path
       inkscape:connector-curvature="0"
       style="fill:#000000;fill-rule:nonzero;stroke:none"
       d="m -2304.6099,-1042.7423 c -4.0967,4.096 -4.0967,10.736 0,14.832 l 130.2853,130.28329 c 4.097,4.0957 10.737,4.0957 14.833,0 l 130.289,-130.28329 c 4.096,-4.096 4.096,-10.736 0,-14.832 l -130.286,-130.283 c -4.096,-4.096 -10.737,-4.096 -14.833,0 l -130.2883,130.283 z"
       id="path13" /><path
       inkscape:connector-curvature="0"
       style="fill:#ffdb00;fill-rule:nonzero;stroke:none"
       d="m -2300.8014,-1038.7723 c -1.9931,1.992 -1.9931,5.223 0,7.216 l 130.2849,130.28179 c 1.994,1.9932 5.224,1.9932 7.216,0 l 130.289,-130.28179 c 1.994,-1.993 1.994,-5.224 0,-7.216 l -130.286,-130.283 c -1.992,-1.993 -5.222,-1.993 -7.216,0 l -130.2879,130.283 z"
       id="path15" /><path
       inkscape:connector-curvature="0"
       style="fill:#c0111e;fill-opacity:1;fill-rule:nonzero;stroke:none"
       d="m -2246.7017,-1034.6654 c 0,44.07099 35.7252,79.79619 79.7961,79.79619 44.0699,0 79.796,-35.7252 79.796,-79.79619 0,-44.0698 -35.7261,-79.7958 -79.796,-79.7958 -44.0709,0 -79.7961,35.726 -79.7961,79.7958 z"
       id="path17" /><path
       inkscape:connector-curvature="0"
       style="fill:#ffffff;fill-rule:nonzero;stroke:none"
       d="m -2220.103,-1034.6654 c 0,-29.381 23.8165,-53.1974 53.1975,-53.1974 29.38,0 53.1975,23.8164 53.1975,53.1974 0,29.381 -23.8175,53.19759 -53.1975,53.19759 -29.381,0 -53.1975,-23.81659 -53.1975,-53.19759 z"
       id="path19" /><path
       inkscape:connector-curvature="0"
       style="fill:#000000;fill-rule:nonzero;stroke:none"
       d="m -2196.3245,-1061.1234 8.3539,0 c 0,7.661 1.348,15.518 4.0431,23.57 2.8379,8.583 6.6329,15.517 11.3859,20.802 l 0,8.832 -35.5929,0 0,-8.406 25.6439,0 c -3.795,-4.611 -7.0239,-11.155 -9.6841,-19.633 -2.7658,-8.725 -4.1498,-17.114 -4.1498,-25.165 z"
       id="path21" /><path
       inkscape:connector-curvature="0"
       style="fill:#000000;fill-rule:evenodd;stroke:none"
       d="m -2144.3975,-1062.1334 c 12.4139,0 18.6209,9.204 18.6209,27.612 0,18.444 -6.207,27.666 -18.6209,27.666 -12.415,0 -18.621,-9.222 -18.621,-27.666 0,-18.408 6.206,-27.612 18.621,-27.612 z m 0,8.139 c -6.9171,0 -10.375,6.491 -10.375,19.473 0,12.981 3.4579,19.473 10.375,19.473 6.8799,0 10.3209,-6.492 10.3209,-19.473 0,-12.982 -3.4409,-19.473 -10.3209,-19.473 z"
       id="path23" /></g></svg>