<?xml version="1.0" encoding="UTF-8" standalone="no"?>
<!-- Created with Inkscape (http://www.inkscape.org/) -->

<svg
   xmlns:dc="http://purl.org/dc/elements/1.1/"
   xmlns:cc="http://creativecommons.org/ns#"
   xmlns:rdf="http://www.w3.org/1999/02/22-rdf-syntax-ns#"
   xmlns:svg="http://www.w3.org/2000/svg"
   xmlns="http://www.w3.org/2000/svg"
   xmlns:sodipodi="http://sodipodi.sourceforge.net/DTD/sodipodi-0.dtd"
   xmlns:inkscape="http://www.inkscape.org/namespaces/inkscape"
   width="360.62805"
   height="360.61243"
   id="svg3075"
   version="1.1"
   inkscape:version="0.48.2 r9819"
   sodipodi:docname="AJAX2.svg">
  <defs
     id="defs3077" />
  <sodipodi:namedview
     id="base"
     pagecolor="#ffffff"
     bordercolor="#666666"
     borderopacity="1.0"
     inkscape:pageopacity="0.0"
     inkscape:pageshadow="2"
     inkscape:zoom="1.435"
     inkscape:cx="309.75933"
     inkscape:cy="160.85743"
     inkscape:document-units="px"
     inkscape:current-layer="ANZ"
     showgrid="false"
     borderlayer="true"
     inkscape:window-width="1280"
     inkscape:window-height="1004"
     inkscape:window-x="-8"
     inkscape:window-y="-8"
     inkscape:window-maximized="1"
     fit-margin-top="0"
     fit-margin-left="0"
     fit-margin-right="0"
     fit-margin-bottom="0" />
  <metadata
     id="metadata3080">
    <rdf:RDF>
      <cc:Work
         rdf:about="">
        <dc:format>image/svg+xml</dc:format>
        <dc:type
           rdf:resource="http://purl.org/dc/dcmitype/StillImage" />
        <dc:title></dc:title>
      </cc:Work>
    </rdf:RDF>
  </metadata>
  <g
     inkscape:label="ANZ"
     inkscape:groupmode="layer"
     id="ANZ"
     transform="translate(-10.710193,-730.9759)">
    <path
       inkscape:connector-curvature="0"
       style="fill:#ffdb00;fill-rule:nonzero;stroke:none"
       d="m 16.085693,898.30516 c -7.1675005,7.1675 -7.1675005,18.7875 0.001,25.955 L 178.04919,1086.2127 c 7.1675,7.1675 18.7875,7.1675 25.95625,0 L 365.96273,924.26016 c 7.16796,-7.1675 7.16674,-18.7875 0,-25.955 L 203.99819,736.35187 c -7.16875,-7.16796 -18.7875,-7.16796 -25.95625,0 L 16.085693,898.30516 z"
       id="path11" />
    <path
       inkscape:connector-curvature="0"
       style="fill:#000000;fill-rule:nonzero;stroke:none"
       d="m 363.15388,920.81608 c 5.11963,-5.12 5.11963,-13.42 0,-18.54 L 200.29601,739.42196 c -5.12,-5.11963 -13.42,-5.11963 -18.54,0 L 18.894763,902.27608 c -5.12,5.12 -5.12,13.42 0,18.54 L 181.75226,1083.6698 c 5.12,5.12 13.42,5.12 18.54,0 L 363.15388,920.81608 z"
       id="path13" />
    <path
       inkscape:connector-curvature="0"
       style="fill:#ffdb00;fill-rule:nonzero;stroke:none"
       d="m 358.39316,915.85358 c 2.49144,-2.49 2.49144,-6.5275 0,-9.01875 L 195.53584,743.98126 c -2.49125,-2.49143 -6.52875,-2.49143 -9.01875,0 L 23.654593,906.83483 c -2.49125,2.49125 -2.49125,6.52875 0,9.01875 L 186.51334,1078.7085 c 2.49,2.4913 6.5275,2.4913 9.01875,0 L 358.39316,915.85358 z"
       id="path15" />
    <path
       inkscape:connector-curvature="0"
       style="fill:#000000;fill-rule:nonzero;stroke:none"
       d="m 208.74128,833.11825 16.775,6.54537 c 3.615,1.49788 7.76,-0.2185 9.2575,-3.83425 0.94125,-2.27162 0.61625,-4.746 -0.65375,-6.64787 l -43.095,-66.9275 -43.09625,66.9275 c -1.26875,1.90187 -1.59376,4.37625 -0.65251,6.64787 1.49626,3.61575 5.64251,5.33213 9.25626,3.83425 l 16.77625,-6.54537 -0.006,6.73212 c 0,15.6305 7.77,29.43926 19.67875,37.768 l 14.90875,10.32688 c 2.655,1.9325 4.3825,5.06625 4.3825,8.60125 0,4.965 -3.375,9.12875 -7.9775,10.29625 l -35.44,8.8775 c -19.8175,5.1475 -34.52751,23.1775 -34.52751,44.60625 0,20.30375 13.25626,37.225 31.49251,43.3575 4.29,1.3688 7.48375,5.0488 7.48375,9.7913 l 0,30.1175 35.43375,0 -0.02,-30.1188 c 0,-20.35625 -13.305,-37.28625 -31.61625,-43.3775 -4.18,-1.43 -7.34125,-5.105 -7.34125,-9.77 0,-4.875 3.2625,-8.9825 7.73625,-10.2375 l 35.9275,-8.99875 c 19.74245,-5.19875 34.28082,-23.1675 34.28082,-44.54375 0,-15.39937 -7.57212,-29.04562 -19.18087,-37.41063 l -15.4675,-10.72462 c -2.625,-1.93613 -4.31875,-5.0525 -4.31875,-8.5645 l 0.004,-6.7285 z"
       id="path17" />
  </g>
</svg>
