<?xml version="1.0" encoding="UTF-8" standalone="no"?>
<!-- Generator: Adobe Illustrator 13.0.1, SVG Export Plug-In . SVG Version: 6.00 Build 14948)  -->

<svg
   xmlns:dc="http://purl.org/dc/elements/1.1/"
   xmlns:cc="http://creativecommons.org/ns#"
   xmlns:rdf="http://www.w3.org/1999/02/22-rdf-syntax-ns#"
   xmlns:svg="http://www.w3.org/2000/svg"
   xmlns="http://www.w3.org/2000/svg"
   xmlns:sodipodi="http://sodipodi.sourceforge.net/DTD/sodipodi-0.dtd"
   xmlns:inkscape="http://www.inkscape.org/namespaces/inkscape"
   version="1.1"
   id="Layer_1"
   x="0px"
   y="0px"
   width="265.75"
   height="265.7475"
   viewBox="0 0 265.74999 265.74751"
   enable-background="new 0 0 300 250"
   xml:space="preserve"
   inkscape:version="0.48.2 r9819"
   sodipodi:docname="AJAX1.svg"><metadata
   id="metadata94"><rdf:RDF><cc:Work
       rdf:about=""><dc:format>image/svg+xml</dc:format><dc:type
         rdf:resource="http://purl.org/dc/dcmitype/StillImage" /><dc:title /></cc:Work></rdf:RDF></metadata><defs
   id="defs92" /><sodipodi:namedview
   pagecolor="#ffffff"
   bordercolor="#666666"
   borderopacity="1"
   objecttolerance="10"
   gridtolerance="10"
   guidetolerance="10"
   inkscape:pageopacity="0"
   inkscape:pageshadow="2"
   inkscape:window-width="1280"
   inkscape:window-height="1004"
   id="namedview90"
   showgrid="false"
   fit-margin-top="0"
   fit-margin-left="0"
   fit-margin-right="0"
   fit-margin-bottom="0"
   inkscape:zoom="1.3350176"
   inkscape:cx="22.967428"
   inkscape:cy="29.460895"
   inkscape:window-x="-8"
   inkscape:window-y="-8"
   inkscape:window-maximized="1"
   inkscape:current-layer="Layer_1" />















<path
   inkscape:connector-curvature="0"
   style="fill:#a2ff31;fill-opacity:1;fill-rule:nonzero;stroke:none"
   d="M -1.1220762e-5,17.71725 C -1.1220762e-5,7.93214 7.9321266,0 17.715989,0 L 248.0325,0 c 9.785,0 17.7175,7.93214 17.7175,17.71725 l 0,230.31401 c 0,9.785 -7.9325,17.71625 -17.7175,17.71625 l -230.316511,0 c -9.7838624,0 -17.716000220762,-7.93125 -17.716000220762,-17.71625 l 0,-230.31401 z"
   id="path11" /><path
   inkscape:connector-curvature="0"
   style="fill:#000000;fill-rule:nonzero;stroke:none"
   d="m 4.6056965,17.71731 c 0,-7.24124 5.8703625,-13.11038 13.1102505,-13.11038 l 230.316013,0 c 7.24125,0 13.11,5.86914 13.11,13.11038 l 0,230.31463 c 0,7.24 -5.86875,13.11125 -13.11,13.11125 l -230.316013,0 c -7.239888,0 -13.1102505,-5.87125 -13.1102505,-13.11125 l 0,-230.31463 z"
   id="path13" /><path
   inkscape:connector-curvature="0"
   style="fill:#a2ff31;fill-opacity:1;fill-rule:nonzero;stroke:none"
   d="m 11.339097,17.7173 c 0,-3.523 2.855287,-6.37819 6.378162,-6.37819 l 230.315601,0 c 3.5225,0 6.3775,2.85519 6.3775,6.37819 l 0,230.31432 c 0,3.5225 -2.855,6.37875 -6.3775,6.37875 l -230.315601,0 c -3.522875,0 -6.378162,-2.85625 -6.378162,-6.37875 l 0,-230.31432 z"
   id="path15" /><path
   inkscape:connector-curvature="0"
   style="fill:#000000;fill-rule:nonzero;stroke:none"
   d="m 38.80001,74.79618 c 0,4.39812 1.211,7.83812 3.631625,10.31862 2.214375,2.27413 5.0635,3.41063 8.548626,3.41063 3.39475,0 6.230375,-1.12188 8.503375,-3.3655 2.362,-2.36213 3.54375,-5.46263 3.54375,-9.30175 0,-7.44138 -4.253,-13.25813 -12.756375,-17.45113 -2.008126,-0.97412 -3.011501,-2.68687 -3.011501,-5.13675 0,-1.27075 0.56025,-2.378 1.682126,-3.32275 1.034,-0.885 2.171625,-1.32812 3.411875,-1.32812 1.09125,0 2.139875,0.57612 3.1445,1.72725 1.03275,1.12187 1.549125,2.24362 1.549125,3.3655 l 6.112,0 c 0,-3.1885 -1.032625,-5.846 -3.099375,-7.97238 -2.03725,-2.15575 -4.606875,-3.2325 -7.70625,-3.2325 -2.983375,0 -5.595751,1.01813 -7.840626,3.0555 -2.362,2.09713 -3.542375,4.63613 -3.542375,7.61838 0,1.97875 0.427125,3.85375 1.284125,5.625 0.85575,1.74187 2.02275,3.1445 3.4985,4.20775 2.037375,1.24025 4.074751,2.4805 6.113251,3.72075 2.154625,1.53562 3.617,3.55825 4.384875,6.06687 0.3235,1.06325 0.487,2.0825 0.487,3.05663 0,1.88962 -0.53225,3.46925 -1.5955,4.74 -1.032625,1.26825 -2.420625,1.88962 -4.1625,1.85912 -2.09725,-0.0294 -3.602376,-0.66412 -4.517876,-1.90437 -0.88625,-1.24013 -1.344,-3.15913 -1.37325,-5.75675 l -6.289125,0 z"
   id="path17" /><path
   inkscape:connector-curvature="0"
   style="fill:#000000;fill-rule:nonzero;stroke:none"
   d="m 88.892762,75.90205 c 0,1.88975 -0.487,3.44 -1.461125,4.65088 -0.974125,1.211 -2.18625,1.8165 -3.631625,1.8165 -4.577625,0 -6.86525,-5.90575 -6.86525,-17.71613 0,-3.80975 0.339375,-7.01412 1.018125,-9.61175 1.0925,-4.13337 2.9675,-6.20125 5.625,-6.20125 1.41725,0 2.6575,0.5615 3.72075,1.68338 1.063125,1.12187 1.594125,2.31812 1.594125,3.58762 l 6.15725,0 c 0,-3.4545 -1.077875,-6.24512 -3.233625,-8.3715 -2.15575,-2.15575 -4.902375,-3.2325 -8.2385,-3.2325 -8.56325,0 -12.84425,7.38163 -12.84425,22.146 0,6.731 0.649375,11.89825 1.94825,15.5005 2.037375,5.58113 5.714125,8.37163 11.029,8.37163 3.396,0 6.141375,-1.12188 8.237375,-3.3655 2.097125,-2.27413 3.14575,-5.36013 3.14575,-9.25788 l -6.20125,0 z"
   id="path19" /><path
   inkscape:connector-curvature="0"
   style="fill:#000000;fill-rule:nonzero;stroke:none"
   d="m 102.66726,43.3923 0,44.292 6.289,0 0,-20.10862 12.18025,0 0,20.10862 5.891,0 0,-44.292 -5.891,0 0,17.93825 -12.18025,0 0,-17.93825 -6.289,0 z"
   id="path21" /><path
   inkscape:connector-curvature="0"
   style="fill:#000000;fill-rule:evenodd;stroke:none"
   d="m 149.26126,88.52543 c 4.31125,0 7.56,-2.06663 9.74375,-6.2 2.03875,-3.92825 3.05625,-9.53738 3.05625,-16.831 0,-15.32475 -4.23625,-22.98713 -12.7125,-22.98713 -8.68,0 -13.02125,7.66238 -13.02125,22.98713 0,15.354 4.3125,23.031 12.93375,23.031 z m 0,-6.37825 c -2.51,0 -4.295,-1.60888 -5.35875,-4.82788 -0.85625,-2.62687 -1.28375,-6.5685 -1.28375,-11.82487 0,-11.22075 2.2125,-16.83113 6.6425,-16.83113 4.4,0 6.59875,5.61038 6.59875,16.83113 0,11.10225 -2.19875,16.65275 -6.59875,16.65275 z"
   id="path23" /><path
   inkscape:connector-curvature="0"
   style="fill:#000000;fill-rule:evenodd;stroke:none"
   d="m 182.52501,88.52543 c 4.31,0 7.55751,-2.06663 9.74251,-6.2 2.0375,-3.92825 3.0575,-9.53738 3.0575,-16.831 0,-15.32475 -4.23875,-22.98713 -12.71251,-22.98713 -8.68125,0 -13.02125,7.66238 -13.02125,22.98713 0,15.354 4.31,23.031 12.93375,23.031 z m 0,-6.37825 c -2.51125,0 -4.2975,-1.60888 -5.36125,-4.82788 -0.855,-2.62687 -1.28375,-6.5685 -1.28375,-11.82487 0,-11.22075 2.215,-16.83113 6.645,-16.83113 4.39875,0 6.59875,5.61038 6.59875,16.83113 0,11.10225 -2.2,16.65275 -6.59875,16.65275 z"
   id="path25" /><path
   inkscape:connector-curvature="0"
   style="fill:#000000;fill-rule:nonzero;stroke:none"
   d="m 204.84627,43.3923 0,44.292 22.14625,0 0,-5.84712 -15.8575,0 0,-38.44488 -6.28875,0 z"
   id="path27" /><path
   inkscape:connector-curvature="0"
   style="fill:#000000;fill-rule:evenodd;stroke:none"
   d="m 92.923637,134.90043 5.935001,0 c 2.185002,0 3.839122,1.0925 4.960872,3.2775 0.8265,1.565 1.24025,3.29125 1.24025,5.18125 0,1.18125 -0.36987,2.3475 -1.10712,3.5 -0.857,1.3275 -1.93488,1.99375 -3.23363,1.99375 l -7.795373,0 0,-13.9525 z m 0,-17.93875 6.644252,0 c 2.036121,0 3.409371,0.63475 4.118621,1.9055 0.44313,0.79712 0.66525,2.06662 0.66525,3.80862 0,1.32813 -0.39912,2.58338 -1.19625,3.76463 -0.94487,1.4175 -2.185,2.125 -3.720751,2.125 l -6.511122,0 0,-11.60375 z m -5.935125,38.135 13.996628,0 c 3.1885,0 5.7715,-1.21 7.75137,-3.63125 1.74075,-2.18625 2.61238,-4.725 2.61238,-7.61875 0,-5.8175 -1.919,-9.77375 -5.75813,-11.86875 1.88975,-1.44875 3.17388,-2.88 3.85375,-4.2975 0.67875,-1.4175 1.01938,-3.30663 1.01938,-5.66875 0,-2.83438 -0.75438,-5.28563 -2.2595,-7.35225 -1.86038,-2.56963 -4.54713,-3.85375 -8.06038,-3.85375 l -13.155498,0 0,44.291 z"
   id="path29" /><path
   inkscape:connector-curvature="0"
   style="fill:#000000;fill-rule:nonzero;stroke:none"
   d="m 132.83001,155.93793 c 3.01125,0 5.80125,-1.16625 8.37125,-3.49875 2.56875,-2.33125 3.8525,-4.91625 3.8525,-7.75 l 0,-33.8835 -6.37875,0 0,33.4835 c 0,1.595 -0.61875,2.895 -1.85875,3.8975 -1.1225,0.91625 -2.4675,1.37375 -4.03,1.37375 -1.5075,0 -2.835,-0.4875 -3.98625,-1.46125 -1.24,-1.03375 -1.86125,-2.30375 -1.86125,-3.81 l 0,-33.4835 -6.24425,0 0,33.8835 c 0,2.98125 1.29888,5.625 3.898,7.92625 2.50875,2.21625 5.255,3.3225 8.2375,3.3225 z"
   id="path31" /><path
   inkscape:connector-curvature="0"
   style="fill:#000000;fill-rule:nonzero;stroke:none"
   d="m 154.57626,142.20793 c 0,4.4 1.21,7.84 3.63125,10.32 2.215,2.27375 5.06375,3.41 8.54875,3.41 3.395,0 6.23125,-1.1225 8.50375,-3.36625 2.3625,-2.36125 3.54375,-5.4625 3.54375,-9.30125 0,-7.44 -4.2525,-13.2575 -12.75625,-17.45 -2.00875,-0.97375 -3.01125,-2.68688 -3.01125,-5.138 0,-1.26963 0.56,-2.37675 1.68125,-3.32163 1.035,-0.88612 2.1725,-1.32812 3.4125,-1.32812 1.09125,0 2.14,0.575 3.145,1.72737 1.0325,1.12175 1.54875,2.24363 1.54875,3.3655 l 6.11125,0 c 0,-3.1885 -1.0325,-5.846 -3.09875,-7.9725 -2.0375,-2.15575 -4.6075,-3.23362 -7.70625,-3.23362 -2.9825,0 -5.59625,1.01925 -7.84125,3.05662 -2.36125,2.096 -3.5425,4.635 -3.5425,7.6185 0,1.9775 0.4275,3.8525 1.285,5.62463 0.855,1.7425 2.0225,3.145 3.49875,4.2075 2.0375,1.24125 4.07375,2.48 6.1125,3.72 2.155,1.53625 3.6175,3.55875 4.38375,6.06875 0.325,1.0625 0.48875,2.0825 0.48875,3.055 0,1.89125 -0.5325,3.47 -1.59625,4.74 -1.0325,1.26875 -2.42,1.89 -4.1625,1.86 -2.09625,-0.0288 -3.6025,-0.66375 -4.5175,-1.90375 -0.88625,-1.24 -1.34375,-3.16125 -1.37375,-5.75875 l -6.28875,0 z"
   id="path33" /><path
   inkscape:connector-curvature="0"
   style="fill:#000000;fill-rule:nonzero;stroke:none"
   d="m 55.275886,178.03419 0,5.84625 7.8845,0 0,38.44499 6.51,0 0,-38.44499 7.751501,0 0,-5.84625 -22.146001,0 z"
   id="path35" /><path
   inkscape:connector-curvature="0"
   style="fill:#000000;fill-rule:nonzero;stroke:none"
   d="m 97.175263,223.16793 c 3.012747,0 5.803247,-1.16624 8.371627,-3.5 2.56837,-2.33124 3.8525,-4.91624 3.8525,-7.75 l 0,-33.88374 -6.37688,0 0,33.485 c 0,1.595 -0.62012,2.89375 -1.86037,3.89749 -1.12313,0.91501 -2.465877,1.37251 -4.030752,1.37251 -1.506376,0 -2.834501,-0.48625 -3.985626,-1.46126 -1.24025,-1.03375 -1.861625,-2.30249 -1.861625,-3.80874 l 0,-33.485 -6.243875,0 0,33.88374 c 0,2.98251 1.298875,5.625 3.89775,7.92751 2.5085,2.215 5.255125,3.32249 8.237251,3.32249 z"
   id="path37" /><path
   inkscape:connector-curvature="0"
   style="fill:#000000;fill-rule:evenodd;stroke:none"
   d="m 136.55002,200.75544 c 1.94875,-0.67876 3.5275,-2.11 4.73874,-4.295 1.09251,-2.00876 1.63876,-4.15 1.63876,-6.4225 0,-2.92375 -0.9,-5.61 -2.70001,-8.06125 -1.92124,-2.6275 -4.19374,-3.9425 -6.82124,-3.9425 l -14.83813,0 0,44.29124 6.11188,0 0,-20.54999 5.75875,0 5.88875,20.54999 6.6,0 -6.3775,-21.56999 z m -4.12,-5.35875 -7.75,0 0,-11.0275 7.795,0 c 2.6575,0 3.98625,1.815 3.98625,5.44625 0,1.47749 -0.325,2.73249 -0.97375,3.76625 -0.73875,1.20999 -1.7575,1.815 -3.0575,1.815 z"
   id="path39" /><path
   inkscape:connector-curvature="0"
   style="fill:#000000;fill-rule:nonzero;stroke:none"
   d="m 152.27251,178.03419 0,44.29124 6.1125,0 0,-29.09874 13.19875,29.09874 5.05,0 0,-44.29124 -6.4225,0 0,25.60124 -11.82625,-25.60124 -6.1125,0 z"
   id="path41" /><path
   inkscape:connector-curvature="0"
   style="fill:#000000;fill-rule:nonzero;stroke:none"
   d="m 185.93501,209.43669 c 0,4.4 1.21,7.84 3.63001,10.32 2.215,2.275 5.065,3.41125 8.54875,3.41125 3.39625,0 6.23125,-1.12251 8.505,-3.3675 2.3625,-2.36125 3.5425,-5.4625 3.5425,-9.3 0,-7.44125 -4.25125,-13.2575 -12.75625,-17.45125 -2.0075,-0.97375 -3.01125,-2.68625 -3.01125,-5.1375 0,-1.27 0.56125,-2.3775 1.6825,-3.32125 1.0325,-0.88625 2.17125,-1.32875 3.41125,-1.32875 1.0925,0 2.14125,0.575 3.14375,1.7275 1.035,1.12125 1.55125,2.24375 1.55125,3.36499 l 6.11125,0 c 0,-3.18874 -1.03375,-5.84499 -3.1,-7.97249 -2.0375,-2.155 -4.60625,-3.2325 -7.70625,-3.2325 -2.9825,0 -5.59625,1.01875 -7.84,3.05625 -2.3625,2.095 -3.54376,4.63625 -3.54376,7.6175 0,1.9775 0.42875,3.85375 1.28501,5.625 0.85625,1.7425 2.0225,3.145 3.5,4.20875 2.03625,1.24 4.07375,2.48 6.11125,3.72 2.15625,1.535 3.6175,3.5575 4.385,6.0675 0.325,1.0625 0.4875,2.0825 0.4875,3.05625 0,1.89 -0.53125,3.46875 -1.595,4.73875 -1.03375,1.27 -2.42,1.89 -4.16375,1.86 -2.09625,-0.0288 -3.6025,-0.66375 -4.5175,-1.90375 -0.885,-1.24 -1.34375,-3.15875 -1.3725,-5.75875 l -6.28876,0 z"
   id="path43" /></svg>