<?xml version="1.0" encoding="UTF-8" standalone="no"?>
<!-- Created with Inkscape (http://www.inkscape.org/) -->

<svg
   xmlns:dc="http://purl.org/dc/elements/1.1/"
   xmlns:cc="http://creativecommons.org/ns#"
   xmlns:rdf="http://www.w3.org/1999/02/22-rdf-syntax-ns#"
   xmlns:svg="http://www.w3.org/2000/svg"
   xmlns="http://www.w3.org/2000/svg"
   xmlns:sodipodi="http://sodipodi.sourceforge.net/DTD/sodipodi-0.dtd"
   xmlns:inkscape="http://www.inkscape.org/namespaces/inkscape"
   width="199.31126"
   height="398.62122"
   id="svg3075"
   version="1.1"
   inkscape:version="0.48.2 r9819"
   sodipodi:docname="AJAX2.svg">
  <defs
     id="defs3077" />
  <sodipodi:namedview
     id="base"
     pagecolor="#ffffff"
     bordercolor="#666666"
     borderopacity="1.0"
     inkscape:pageopacity="0.0"
     inkscape:pageshadow="2"
     inkscape:zoom="1.435"
     inkscape:cx="-15.403878"
     inkscape:cy="218.0298"
     inkscape:document-units="px"
     inkscape:current-layer="ANZ"
     showgrid="false"
     borderlayer="true"
     inkscape:window-width="1280"
     inkscape:window-height="1004"
     inkscape:window-x="-8"
     inkscape:window-y="-8"
     inkscape:window-maximized="1"
     fit-margin-top="0"
     fit-margin-left="0"
     fit-margin-right="0"
     fit-margin-bottom="0" />
  <metadata
     id="metadata3080">
    <rdf:RDF>
      <cc:Work
         rdf:about="">
        <dc:format>image/svg+xml</dc:format>
        <dc:type
           rdf:resource="http://purl.org/dc/dcmitype/StillImage" />
        <dc:title />
      </cc:Work>
    </rdf:RDF>
  </metadata>
  <g
     inkscape:label="ANZ"
     inkscape:groupmode="layer"
     id="ANZ"
     transform="translate(-11.962481,-691.50987)">
    <path
       inkscape:connector-curvature="0"
       style="fill:#ffdb00;fill-rule:nonzero;stroke:none"
       d="m 11.962481,711.4415 c 0,-11.00828 8.923337,-19.93163 19.931625,-19.93163 l 159.448374,0 c 11.00875,0 19.93126,8.92335 19.93126,19.93163 l 0,358.7596 c 0,11.0088 -8.92251,19.93 -19.93126,19.93 l -159.448374,0 c -11.008288,0 -19.931625,-8.9212 -19.931625,-19.93 l 0,-358.7596 z"
       id="path11" />
    <path
       inkscape:connector-curvature="0"
       style="fill:#000000;fill-rule:nonzero;stroke:none"
       d="m 13.955884,711.4403 c 0,-9.90724 8.031012,-17.93825 17.93825,-17.93825 l 159.448006,0 c 9.9075,0 17.93875,8.03101 17.93875,17.93825 l 0,358.7593 c 0,9.9075 -8.03125,17.9387 -17.93875,17.9387 l -159.448006,0 c -9.907238,0 -17.93825,-8.0312 -17.93825,-17.9387 l 0,-358.7593 z"
       id="path13" />
    <path
       inkscape:connector-curvature="0"
       style="fill:#ffdb00;fill-rule:nonzero;stroke:none"
       d="m 17.942709,712.10563 c 0,-8.07254 6.542911,-14.61675 14.6155,-14.61675 l 158.120751,0 c 8.0725,0 14.61625,6.54421 14.61625,14.61675 l 0,357.43077 c 0,8.0725 -6.54375,14.6162 -14.61625,14.6162 l -158.120751,0 c -8.072588,0 -14.6155,-6.5437 -14.6155,-14.6162 l 0,-357.43077 z"
       id="path15" />
    <path
       inkscape:connector-curvature="0"
       style="fill:#000000;fill-rule:nonzero;stroke:none"
       d="m 65.785746,1032.8886 0,37.8425 -29.23225,0 0,-37.8425 c 0.01225,-50.62374 40.99975,-91.64376 91.594254,-91.68376 l -5.3625,-13.86 c -1.23538,-2.985 0.18062,-6.405 3.16525,-7.64125 1.875,-0.77625 3.91849,-0.51 5.48713,0.53875 l 55.24587,35.57375 -55.24587,35.57247 c -1.56863,1.0488 -3.61213,1.3163 -5.48713,0.54 -2.98463,-1.235 -4.40063,-4.6575 -3.16525,-7.6412 l 5.38088,-13.85002 c -34.465384,0.03 -62.380384,27.97752 -62.380384,62.45126 z"
       id="path17" />
    <path
       inkscape:connector-curvature="0"
       style="fill:#000000;fill-rule:evenodd;stroke:none"
       d="m 86.999121,1039.7074 c 1.558875,-4.0038 4.375,-7.3875 8.450875,-10.15 4.110125,-2.765 8.344754,-4.1475 12.702624,-4.1475 0.84963,0 1.66513,0.054 2.44388,0.16 l 0,-9.46 c -10.20388,0 -18.477754,3.1525 -24.820504,9.46 -6.449,6.485 -9.672875,15.1125 -9.672875,25.8837 0,5.9538 2.108125,10.6488 6.3245,14.085 3.897625,3.1525 8.84025,4.73 14.829,4.73 5.528629,0 10.292999,-1.2575 14.296879,-3.7737 4.71312,-2.9763 7.06912,-7.1213 7.06912,-12.4375 0,-5.3488 -2.33762,-9.5125 -7.01537,-12.4888 -3.9685,-2.5512 -8.75238,-3.8275 -14.350629,-3.8275 -3.117625,0 -6.536875,0.6563 -10.2575,1.9663 z m 10.682375,21.1537 c -7.652625,0 -11.462375,-2.2675 -11.427,-6.8037 0.03663,-4.605 3.844,-6.9075 11.427,-6.9075 7.795374,0 11.676004,2.3025 11.640624,6.9075 0,2.5875 -1.15112,4.43 -3.45462,5.5287 -1.84325,0.8513 -4.5715,1.275 -8.186004,1.275 z"
       id="path19" />
    <path
       inkscape:connector-curvature="0"
       style="fill:#000000;fill-rule:nonzero;stroke:none"
       d="m 135.73687,1016.1099 -1.64788,25.1387 9.35451,2.765 c 0.92125,-0.8862 2.72749,-1.6125 5.42125,-2.18 2.19625,-0.46 4.14499,-0.6912 5.84625,-0.6912 2.835,0 5.27876,0.7275 7.335,2.18 2.48,1.7362 3.72,4.18 3.72,7.3337 0,2.87 -0.97375,5.315 -2.92375,7.3363 -1.94749,1.9825 -4.39251,2.9937 -7.33376,3.0275 -3.0125,0.036 -6.37749,-0.3363 -10.09874,-1.115 -3.8625,-0.815 -6.855,-1.825 -8.9825,-3.0288 l -3.9325,8.025 c 6.55374,3.5775 14.43874,5.3675 23.65125,5.3675 5.20874,0 9.67374,-1.9662 13.39374,-5.9 3.61376,-3.8975 5.42251,-8.4675 5.42251,-13.7125 0,-4.7825 -1.87875,-9.0875 -5.635,-12.915 -3.75625,-3.8612 -8.0075,-5.7925 -12.75625,-5.7925 -3.96875,0 -8.30875,0.655 -13.02125,1.9663 l 0.69,-8.6638 26.30875,0 0,-9.1412 -34.81162,0 z"
       id="path21" />
    <path
       inkscape:connector-curvature="0"
       style="fill:#000000;fill-rule:evenodd;stroke:none"
       d="M 36.668246,750.54672 116.89537,708.78284 169.10138,809.06721 88.874121,850.83159 36.668246,750.54672 z m 56.505125,108.54362 c -0.678625,-1.3025 -0.172125,-2.91 1.130375,-3.58875 l 7.078874,-3.685 c 1.30375,-0.67875 2.91013,-0.1725 3.58888,1.13125 l 12.898,24.77625 c 0.6775,1.30375 0.17087,2.91 -1.13163,3.58875 l -7.07887,3.68375 c -1.30375,0.67875 -2.91013,0.1725 -3.58763,-1.13 L 93.173371,859.09034 z m 11.798129,-6.1425 c -0.67875,-1.30375 -0.17213,-2.91 1.13037,-3.5875 l 7.07888,-3.685 c 1.30375,-0.67875 2.91012,-0.1725 3.58887,1.13 l 12.89676,24.7775 c 0.67861,1.30375 0.17212,2.90875 -1.13038,3.5875 l -7.07888,3.685 c -1.30375,0.67875 -2.91012,0.1725 -3.58762,-1.13125 l -12.898,-24.77625 z m 44.83325,-23.338 c -0.67875,-1.30375 -0.17251,-2.91125 1.13,-3.59 l 7.07875,-3.685 c 1.30375,-0.6775 2.91,-0.17125 3.58913,1.13125 l 12.8975,24.778 c 0.6775,1.3025 0.17125,2.90875 -1.13125,3.5875 l -7.07875,3.685 c -1.30375,0.67875 -2.91,0.1725 -3.5875,-1.13125 l -12.89788,-24.7755 z m 11.79788,-6.14375 c -0.67913,-1.3025 -0.17251,-2.90875 1.13,-3.5875 l 7.07875,-3.685 c 1.30375,-0.67863 2.91125,-0.1725 3.59,1.13125 l 12.89625,24.77675 c 0.67875,1.30375 0.1725,2.91 -1.13,3.58875 l -7.07875,3.685 c -1.30375,0.6775 -2.91125,0.17125 -3.58875,-1.13125 l -12.8975,-24.778 z m -40.53376,31.59925 33.03462,-17.1975 4.30001,8.25875 -33.03525,17.19625 -4.29938,-8.2575 z m -84.683749,30.42875 150.307499,0 0,9.31 -150.307499,0 0,-9.31 z"
       id="path23" />
  </g>
</svg>
