<?xml version="1.0" encoding="UTF-8" standalone="no"?>
<!-- Generator: Adobe Illustrator 13.0.1, SVG Export Plug-In . SVG Version: 6.00 Build 14948)  -->

<svg
   xmlns:dc="http://purl.org/dc/elements/1.1/"
   xmlns:cc="http://creativecommons.org/ns#"
   xmlns:rdf="http://www.w3.org/1999/02/22-rdf-syntax-ns#"
   xmlns:svg="http://www.w3.org/2000/svg"
   xmlns="http://www.w3.org/2000/svg"
   xmlns:sodipodi="http://sodipodi.sourceforge.net/DTD/sodipodi-0.dtd"
   xmlns:inkscape="http://www.inkscape.org/namespaces/inkscape"
   version="1.1"
   id="Layer_1"
   x="0px"
   y="0px"
   width="265.74875"
   height="177.16499"
   viewBox="0 0 265.74876 177.16501"
   enable-background="new 0 0 300 250"
   xml:space="preserve"
   inkscape:version="0.48.2 r9819"
   sodipodi:docname="AJAX1.svg"><metadata
   id="metadata94"><rdf:RDF><cc:Work
       rdf:about=""><dc:format>image/svg+xml</dc:format><dc:type
         rdf:resource="http://purl.org/dc/dcmitype/StillImage" /><dc:title /></cc:Work></rdf:RDF></metadata><defs
   id="defs92" /><sodipodi:namedview
   pagecolor="#ffffff"
   bordercolor="#666666"
   borderopacity="1"
   objecttolerance="10"
   gridtolerance="10"
   guidetolerance="10"
   inkscape:pageopacity="0"
   inkscape:pageshadow="2"
   inkscape:window-width="1280"
   inkscape:window-height="1004"
   id="namedview90"
   showgrid="false"
   fit-margin-top="0"
   fit-margin-left="0"
   fit-margin-right="0"
   fit-margin-bottom="0"
   inkscape:zoom="1.3350176"
   inkscape:cx="-45.554319"
   inkscape:cy="252.02044"
   inkscape:window-x="-8"
   inkscape:window-y="-8"
   inkscape:window-maximized="1"
   inkscape:current-layer="Layer_1" />















<path
   inkscape:connector-curvature="0"
   style="fill:#ffdb00;fill-rule:nonzero;stroke:none"
   d="M -6.9251082e-6,17.71612 C -6.9251082e-6,7.93214 7.9321186,0 17.715994,0 L 248.03251,0 c 9.78375,0 17.71625,7.93214 17.71625,17.71612 l 0,141.73139 c 0,9.785 -7.9325,17.7175 -17.71625,17.7175 l -230.316516,0 c -9.7838754,0 -17.7160009251082,-7.9325 -17.7160009251082,-17.7175 l 0,-141.73139 z"
   id="path11" /><path
   inkscape:connector-curvature="0"
   style="fill:#000000;fill-rule:nonzero;stroke:none"
   d="m 3.5436908,17.71607 c 0,-7.82715 6.3452134,-14.17237 14.1736262,-14.17237 l 230.315143,0 c 7.8275,0 14.1725,6.34522 14.1725,14.17237 l 0,141.73264 c 0,7.82875 -6.345,14.17375 -14.1725,14.17375 l -230.315143,0 c -7.8284128,0 -14.1736262,-6.345 -14.1736262,-14.17375 l 0,-141.73264 z"
   id="path13" /><path
   inkscape:connector-curvature="0"
   style="fill:#ffdb00;fill-rule:nonzero;stroke:none"
   d="m 9.2126412,17.7161 c 0,-4.69613 3.8074128,-8.50345 8.5034128,-8.50345 l 230.316606,0 c 4.69625,0 8.50375,3.80732 8.50375,8.50345 l 0,141.73156 c 0,4.6975 -3.8075,8.505 -8.50375,8.505 l -230.316606,0 c -4.696,0 -8.5034128,-3.8075 -8.5034128,-8.505 l 0,-141.73156 z"
   id="path15" /><path
   inkscape:connector-curvature="0"
   style="fill:#000000;fill-rule:evenodd;stroke:none"
   d="m 22.677054,33.04685 0,44.29075 6.165751,0 0,-19.01 6.901876,0 c 3.129875,0 5.761625,-1.08887 7.896625,-3.26537 2.2645,-2.3645 3.396,-5.4785 3.396,-9.34325 0,-3.87813 -1.002125,-6.96288 -3.0065,-9.25538 -2.03375,-2.27775 -4.79625,-3.41675 -8.286125,-3.41675 l -13.067627,0 z m 6.165751,6.20613 7.572001,0 c 1.210875,0 2.27175,0.664 3.179875,1.98975 0.8375,1.24025 1.254875,2.59512 1.254875,4.06612 0,1.86038 -0.37475,3.38138 -1.1255,4.563 -0.764125,1.26825 -1.794375,1.903 -3.09325,1.903 l -7.788001,0 0,-12.52187 z"
   id="path17" /><path
   inkscape:connector-curvature="0"
   style="fill:#000000;fill-rule:evenodd;stroke:none"
   d="m 75.394308,55.77635 c 1.961626,-0.6775 3.547376,-2.113 4.759501,-4.30412 1.0815,-2.0045 1.622375,-4.1455 1.622375,-6.42338 0,-2.926 -0.901,-5.61525 -2.705125,-8.06637 -1.91775,-2.6245 -4.188251,-3.93563 -6.814001,-3.93563 l -14.841251,0 0,44.29075 6.123001,0 0,-20.54562 5.754375,0 5.883875,20.54562 6.599126,0 -6.381876,-21.56125 z m -4.111375,-5.36737 -7.744125,0 0,-11.02913 7.788125,0 c 2.65375,0 3.980625,1.8165 3.980625,5.44925 0,1.471 -0.324625,2.72463 -0.974125,3.76338 -0.73475,1.211 -1.751625,1.8165 -3.0505,1.8165 z"
   id="path19" /><path
   inkscape:connector-curvature="0"
   style="fill:#000000;fill-rule:nonzero;stroke:none"
   d="m 90.959434,33.04685 0,44.29075 22.146006,0 0,-6.25 -16.069255,0 0,-14.61912 9.428625,0 0,-6.05588 -9.428625,0 0,-11.11575 15.355125,0 0,-6.25 -21.431876,0 z"
   id="path21" /><path
   inkscape:connector-curvature="0"
   style="fill:#000000;fill-rule:evenodd;stroke:none"
   d="m 120.44193,33.04685 0,44.29075 6.16513,0 0,-19.01 6.90124,0 c 3.13001,0 5.76126,-1.08887 7.89626,-3.26537 2.265,-2.3645 3.3975,-5.4785 3.3975,-9.34325 0,-3.87813 -1.00375,-6.96288 -3.0075,-9.25538 -2.03375,-2.27775 -4.795,-3.41675 -8.28626,-3.41675 l -13.06637,0 z m 6.16513,6.20613 7.57124,0 c 1.21251,0 2.27251,0.664 3.18126,1.98975 0.83625,1.24025 1.255,2.59512 1.255,4.06612 0,1.86038 -0.37625,3.38138 -1.125,4.563 -0.76501,1.26825 -1.79626,1.903 -3.09375,1.903 l -7.78875,0 0,-12.52187 z"
   id="path23" /><path
   inkscape:connector-curvature="0"
   style="fill:#000000;fill-rule:evenodd;stroke:none"
   d="m 162.70206,58.91235 3.11625,-11.9165 3.135,11.9165 -6.25125,0 z m -10.57625,18.42525 6.4225,0 2.965,-12.30462 9.04125,0 3.18125,12.30462 6.3375,0 -11.12,-44.29075 -6.25125,0 -10.57625,44.29075 z"
   id="path25" /><path
   inkscape:connector-curvature="0"
   style="fill:#000000;fill-rule:evenodd;stroke:none"
   d="m 205.23832,55.77635 c 1.96125,-0.6775 3.54875,-2.113 4.75875,-4.30412 1.0825,-2.0045 1.62375,-4.1455 1.62375,-6.42338 0,-2.926 -0.90125,-5.61525 -2.705,-8.06637 -1.9175,-2.6245 -4.18875,-3.93563 -6.81501,-3.93563 l -14.84,0 0,44.29075 6.12125,0 0,-20.54562 5.755,0 5.88501,20.54562 6.59875,0 -6.3825,-21.56125 z m -4.11001,-5.36737 -7.74625,0 0,-11.02913 7.78875,0 c 2.65376,0 3.98001,1.8165 3.98001,5.44925 0,1.471 -0.3225,2.72463 -0.9725,3.76338 -0.73625,1.211 -1.75251,1.8165 -3.05001,1.8165 z"
   id="path27" /><path
   inkscape:connector-curvature="0"
   style="fill:#000000;fill-rule:nonzero;stroke:none"
   d="m 220.80332,33.04685 0,44.29075 22.14625,0 0,-6.25 -16.07,0 0,-14.61912 9.43,0 0,-6.05588 -9.43,0 0,-11.11575 15.355,0 0,-6.25 -21.43125,0 z"
   id="path29" /><path
   inkscape:connector-curvature="0"
   style="fill:#000000;fill-rule:nonzero;stroke:none"
   d="m 28.52418,99.6606 0,5.83863 7.893001,0 0,38.45388 6.51,0 0,-38.45388 7.741751,0 0,-5.83863 -22.144752,0 z"
   id="path31" /><path
   inkscape:connector-curvature="0"
   style="fill:#000000;fill-rule:evenodd;stroke:none"
   d="m 72.147183,144.79311 c 4.310375,0 7.561126,-2.06875 9.752251,-6.205 2.0325,-3.9225 3.04925,-9.53 3.04925,-16.82538 0,-15.32475 -4.23825,-22.98825 -12.714751,-22.98825 -8.67925,0 -13.018876,7.6635 -13.018876,22.98825 0,15.35413 4.311501,23.03038 12.932126,23.03038 z m 0,-6.3775 c -2.5085,0 -4.295625,-1.6075 -5.3625,-4.8225 -0.850875,-2.63875 -1.276875,-6.5825 -1.276875,-11.83038 0,-11.21712 2.213125,-16.825 6.639375,-16.825 4.397,0 6.595501,5.60788 6.595501,16.825 0,11.10288 -2.198501,16.65288 -6.595501,16.65288 z"
   id="path33" /><path
   inkscape:connector-curvature="0"
   style="fill:#000000;fill-rule:nonzero;stroke:none"
   d="m 116.46481,131.06311 c 0,4.39625 1.211,7.835 3.63413,10.31375 2.22162,2.2775 5.06937,3.41625 8.54562,3.41625 3.40375,0 6.2375,-1.12375 8.50125,-3.37375 2.36625,-2.36375 3.54875,-5.46375 3.54875,-9.29875 0,-7.43925 -4.25375,-13.25588 -12.76375,-17.45263 -2.005,-0.96562 -3.0075,-2.67337 -3.0075,-5.1245 0,-1.26837 0.5625,-2.378 1.68625,-3.33012 1.03875,-0.88013 2.18,-1.3195 3.42,-1.3195 1.08125,0 2.14125,0.55537 3.18,1.665 1.00875,1.1535 1.515,2.2925 1.515,3.418 l 6.10125,0 c 0,-3.18613 -1.0175,-5.86063 -3.05125,-8.02375 -2.0625,-2.11913 -4.645,-3.17863 -7.745,-3.17863 -2.98625,0 -5.60325,1.01675 -7.853,3.04925 -2.36575,2.10575 -3.54862,4.64963 -3.54862,7.63425 0,1.97513 0.43212,3.8355 1.29762,5.57988 0.85075,1.77362 2.019,3.186 3.50462,4.23825 2.03313,1.24025 4.06688,2.4805 6.10063,3.7195 2.165,1.543 3.62875,3.56875 4.3925,6.0775 0.3175,1.06625 0.47625,2.0825 0.47625,3.04875 0,1.89 -0.5125,3.4675 -1.53625,4.7375 -1.03875,1.23875 -2.41625,1.85875 -4.13125,1.85875 -0.03,0 -0.0588,0 -0.0875,0 -2.09125,-0.0288 -3.5875,-0.6625 -4.48925,-1.9025 -0.90087,-1.24125 -1.366,-3.15875 -1.39525,-5.7525 l -6.29525,0 z"
   id="path35" /><path
   inkscape:connector-curvature="0"
   style="fill:#000000;fill-rule:nonzero;stroke:none"
   d="m 148.29956,99.6606 0,5.83863 7.8925,0 0,38.45388 6.51,0 0,-38.45388 7.7425,0 0,-5.83863 -22.145,0 z"
   id="path37" /><path
   inkscape:connector-curvature="0"
   style="fill:#000000;fill-rule:evenodd;stroke:none"
   d="m 190.90456,144.79311 c 4.31,0 7.56125,-2.06875 9.7525,-6.205 2.0325,-3.9225 3.04876,-9.53 3.04876,-16.82538 0,-15.32475 -4.23751,-22.98825 -12.71626,-22.98825 -8.6775,0 -13.0175,7.6635 -13.0175,22.98825 0,15.35413 4.31125,23.03038 12.9325,23.03038 z m 0,-6.3775 c -2.50875,0 -4.2975,-1.6075 -5.3625,-4.8225 -0.85125,-2.63875 -1.2775,-6.5825 -1.2775,-11.83038 0,-11.21712 2.21375,-16.825 6.64,-16.825 4.39625,0 6.59375,5.60788 6.59375,16.825 0,11.10288 -2.1975,16.65288 -6.59375,16.65288 z"
   id="path39" /><path
   inkscape:connector-curvature="0"
   style="fill:#000000;fill-rule:evenodd;stroke:none"
   d="m 212.88957,99.6606 0,44.29251 6.165,0 0,-19.01 6.9025,0 c 3.13,0 5.76125,-1.08938 7.89625,-3.26713 2.265,-2.3645 3.39625,-5.4785 3.39625,-9.342 0,-3.87812 -1.0025,-6.96412 -3.00625,-9.25662 -2.03375,-2.27775 -4.79625,-3.41676 -8.28625,-3.41676 l -13.0675,0 z m 6.165,6.20738 7.5725,0 c 1.21125,0 2.27125,0.66275 3.18,1.98975 0.8375,1.239 1.255,2.59513 1.255,4.06613 0,1.85912 -0.375,3.38012 -1.125,4.56175 -0.765,1.2695 -1.795,1.90312 -3.09375,1.90312 l -7.78875,0 0,-12.52075 z"
   id="path41" /></svg>