<?xml version="1.0" encoding="UTF-8" standalone="no"?>
<!-- Created with Inkscape (http://www.inkscape.org/) -->

<svg
   xmlns:dc="http://purl.org/dc/elements/1.1/"
   xmlns:cc="http://creativecommons.org/ns#"
   xmlns:rdf="http://www.w3.org/1999/02/22-rdf-syntax-ns#"
   xmlns:svg="http://www.w3.org/2000/svg"
   xmlns="http://www.w3.org/2000/svg"
   xmlns:sodipodi="http://sodipodi.sourceforge.net/DTD/sodipodi-0.dtd"
   xmlns:inkscape="http://www.inkscape.org/namespaces/inkscape"
   width="360.62756"
   height="360.61139"
   id="svg3075"
   version="1.1"
   inkscape:version="0.48.2 r9819"
   sodipodi:docname="AJAX.svg">
  <defs
     id="defs3077" />
  <sodipodi:namedview
     id="base"
     pagecolor="#ffffff"
     bordercolor="#666666"
     borderopacity="1.0"
     inkscape:pageopacity="0.0"
     inkscape:pageshadow="2"
     inkscape:zoom="1.435"
     inkscape:cx="376.10228"
     inkscape:cy="130.63361"
     inkscape:document-units="px"
     inkscape:current-layer="ANZ"
     showgrid="false"
     borderlayer="true"
     inkscape:window-width="1280"
     inkscape:window-height="1004"
     inkscape:window-x="-8"
     inkscape:window-y="-8"
     inkscape:window-maximized="1"
     fit-margin-top="0"
     fit-margin-left="0"
     fit-margin-right="0"
     fit-margin-bottom="0" />
  <metadata
     id="metadata3080">
    <rdf:RDF>
      <cc:Work
         rdf:about="">
        <dc:format>image/svg+xml</dc:format>
        <dc:type
           rdf:resource="http://purl.org/dc/dcmitype/StillImage" />
        <dc:title></dc:title>
      </cc:Work>
    </rdf:RDF>
  </metadata>
  <g
     inkscape:label="ANZ"
     inkscape:groupmode="layer"
     id="ANZ"
     transform="translate(-5.2103239,-734.86524)">
    <path
       inkscape:connector-curvature="0"
       style="fill:#ffdb00;fill-rule:nonzero;stroke:none"
       d="m 10.585949,902.19354 c -7.1675001,7.1663 -7.1675001,18.7863 0,25.9538 L 172.55095,1090.101 c 7.1675,7.1675 18.7875,7.1675 25.955,0 L 360.46296,928.14734 c 7.16674,-7.1675 7.16674,-18.7875 -0.001,-25.9538 L 198.4972,740.24034 c -7.16625,-7.1668 -18.7875,-7.1668 -25.95375,0 L 10.585949,902.19354 z"
       id="path11" />
    <path
       inkscape:connector-curvature="0"
       style="fill:#000000;fill-rule:nonzero;stroke:none"
       d="m 357.65413,924.70445 c 5.11962,-5.1187 5.11962,-13.42 0,-18.54 L 194.79626,743.31035 c -5.11875,-5.1196 -13.42,-5.1196 -18.54125,0 L 13.395009,906.16445 c -5.1200001,5.12 -5.1200001,13.4213 0,18.54 L 176.25251,1087.5594 c 5.12,5.1188 13.42125,5.1188 18.54125,0 L 357.65413,924.70445 z"
       id="path13" />
    <path
       inkscape:connector-curvature="0"
       style="fill:#ffdb00;fill-rule:nonzero;stroke:none"
       d="m 352.89339,919.74452 c 2.49022,-2.4925 2.49022,-6.53 0,-9.02 L 190.03612,747.86972 c -2.49,-2.4915 -6.52875,-2.4915 -9.02,0 L 18.154869,910.72452 c -2.49,2.49 -2.49,6.5275 0,9.02 L 181.01237,1082.597 c 2.49125,2.4912 6.53,2.4912 9.02,0 L 352.89339,919.74452 z"
       id="path15" />
    <path
       inkscape:connector-curvature="0"
       style="fill:#000000;fill-rule:nonzero;stroke:none"
       d="m 220.81839,908.23016 -53.01038,0 c -2.54499,0 -4.60749,2.0613 -4.60749,4.605 l 0,94.96184 -40.03875,0 0,-117.28434 0,-2.3025 c 1.27,-11.2475 10.77125,-20.02 22.3225,-20.02 l 75.33412,0 -7.41,-19.0253 c -1.69375,-4.093 0.24875,-8.7842 4.34125,-10.4797 2.57,-1.0645 5.3725,-0.6982 7.525,0.7409 l 75.76087,48.7829 -75.76087,48.7837 c -2.1525,1.4388 -4.955,1.8063 -7.525,0.74 -4.0925,-1.6937 -6.035,-6.3862 -4.34125,-10.4787 l 7.41,-19.0238 z"
       id="path17" />
  </g>
</svg>
