<?xml version="1.0" encoding="UTF-8" standalone="no"?>
<!-- Created with Inkscape (http://www.inkscape.org/) -->

<svg
   xmlns:dc="http://purl.org/dc/elements/1.1/"
   xmlns:cc="http://creativecommons.org/ns#"
   xmlns:rdf="http://www.w3.org/1999/02/22-rdf-syntax-ns#"
   xmlns:svg="http://www.w3.org/2000/svg"
   xmlns="http://www.w3.org/2000/svg"
   xmlns:sodipodi="http://sodipodi.sourceforge.net/DTD/sodipodi-0.dtd"
   xmlns:inkscape="http://www.inkscape.org/namespaces/inkscape"
   width="212.5975"
   height="141.7325"
   id="svg2"
   sodipodi:version="0.32"
   inkscape:version="0.48.2 r9819"
   version="1.0"
   sodipodi:docname="AJAX.svg"
   inkscape:output_extension="org.inkscape.output.svg.inkscape">
  <defs
     id="defs4">
    <inkscape:perspective
       sodipodi:type="inkscape:persp3d"
       inkscape:vp_x="0 : 300.5 : 1"
       inkscape:vp_y="0 : 1000 : 0"
       inkscape:vp_z="601 : 300.5 : 1"
       inkscape:persp3d-origin="300.5 : 200.33333 : 1"
       id="perspective3380" />
    <inkscape:perspective
       id="perspective3990"
       inkscape:persp3d-origin="375 : 250 : 1"
       inkscape:vp_z="750 : 375 : 1"
       inkscape:vp_y="0 : 1000 : 0"
       inkscape:vp_x="0 : 375 : 1"
       sodipodi:type="inkscape:persp3d" />
  </defs>
  <sodipodi:namedview
     id="base"
     pagecolor="#ffffff"
     bordercolor="#666666"
     borderopacity="1.0"
     gridtolerance="10000"
     guidetolerance="10"
     objecttolerance="10"
     inkscape:pageopacity="0.0"
     inkscape:pageshadow="2"
     inkscape:zoom="3.6392429"
     inkscape:cx="120.47077"
     inkscape:cy="35.319362"
     inkscape:document-units="px"
     inkscape:current-layer="layer1"
     width="601px"
     height="601px"
     inkscape:window-width="1280"
     inkscape:window-height="1004"
     inkscape:window-x="-8"
     inkscape:window-y="-8"
     showgrid="false"
     fit-margin-top="0"
     fit-margin-left="0"
     fit-margin-right="0"
     fit-margin-bottom="0"
     inkscape:window-maximized="1" />
  <metadata
     id="metadata7">
    <rdf:RDF>
      <cc:Work
         rdf:about="">
        <dc:format>image/svg+xml</dc:format>
        <dc:type
           rdf:resource="http://purl.org/dc/dcmitype/StillImage" />
        <dc:title></dc:title>
      </cc:Work>
    </rdf:RDF>
  </metadata>
  <g
     inkscape:label="Layer 1"
     inkscape:groupmode="layer"
     id="layer1"
     transform="translate(-3.0061336,-457.32105)">
    <rect
       style="color:#000000;fill:#000000;fill-opacity:1;fill-rule:nonzero;stroke:none;stroke-width:0.8735441;marker:none;visibility:visible;display:inline;overflow:visible"
       id="rect3653"
       width="0"
       height="27.202072"
       x="578.73834"
       y="298.1684"
       rx="249.48199"
       ry="27.202072" />
    <path
       inkscape:connector-curvature="0"
       style="fill:#ffdb00;fill-rule:nonzero;stroke:none"
       d="m 3.0061337,471.49468 c 0,-7.82842 6.3452125,-14.17363 14.1723743,-14.17363 l 184.251382,0 c 7.82875,0 14.17375,6.34521 14.17375,14.17363 l 0,113.38512 c 0,7.82875 -6.345,14.17375 -14.17375,14.17375 l -184.251382,0 c -7.8271618,0 -14.1723744,-6.345 -14.1723744,-14.17375 l 0,-113.38512 z"
       id="path11" />
    <path
       inkscape:connector-curvature="0"
       style="fill:#000000;fill-rule:nonzero;stroke:none"
       d="m 5.8406049,471.49462 c 0,-6.2622 5.0756871,-11.3391 11.3378621,-11.3391 l 184.250893,0 c 6.2625,0 11.34,5.0769 11.34,11.3391 l 0,113.38515 c 0,6.262 -5.0775,11.33825 -11.34,11.33825 l -184.250892,0 c -6.262176,0 -11.3378631,-5.07625 -11.3378631,-11.33825 l 0,-113.38515 z"
       id="path13" />
    <path
       inkscape:connector-curvature="0"
       style="fill:#ffdb00;fill-rule:nonzero;stroke:none"
       d="m 10.446317,471.49463 c 0,-3.71825 3.013913,-6.73218 6.73215,-6.73218 l 184.251603,0 c 3.71875,0 6.73375,3.01393 6.73375,6.73218 l 0,113.38507 c 0,3.71875 -3.015,6.734 -6.73375,6.734 l -184.251603,0 c -3.718237,0 -6.73215,-3.01525 -6.73215,-6.734 l 0,-113.38507 z"
       id="path15" />
    <path
       style="fill:#000000;fill-rule:nonzero;stroke:none"
       d="m 43.400376,551.09175 c 3.3545,4.53612 7.723375,8.0555 13.110375,10.55913 4.912125,2.21924 9.967125,3.33012 15.163625,3.33012 6.567375,0 12.7575,-1.93725 18.568125,-5.81063 6.567375,-4.44087 9.849879,-9.92062 9.849879,-16.44162 0,-4.01488 -1.157254,-7.98338 -3.471754,-11.9055 -2.078875,-3.5425 -4.2285,-5.71538 -6.450125,-6.5185 1.89075,-1.0865 3.378875,-3.02375 4.46525,-5.81188 1.0865,-2.64524 1.629625,-5.57362 1.629625,-8.78662 0,-5.24413 -2.7405,-9.70937 -8.220125,-13.3935 -4.86575,-3.30687 -9.968375,-4.961 -15.307625,-4.961 -5.95225,0 -10.88875,0.87412 -14.810875,2.62212 -3.684,1.654 -7.629375,4.65338 -11.8335,9.00025 l 9.140625,8.07863 c 5.19775,-4.86575 10.559125,-7.29862 16.08775,-7.29862 2.976,0 5.573625,0.47125 7.795375,1.416 3.164,1.32324 4.74725,3.49612 4.74725,6.521 0,1.93612 -0.755625,3.54249 -2.268,4.81812 -1.464875,1.228 -3.142125,1.84212 -5.03175,1.84212 l -5.242875,0 0,12.40226 5.242875,0 c 2.788125,0 5.316125,1.13287 7.583,3.40212 2.268,2.21925 3.400875,4.86575 3.400875,7.937 0,3.49612 -1.86525,6.23537 -5.598125,8.22025 -3.070125,1.60525 -6.495375,2.4085 -10.275875,2.4085 -4.86575,0 -8.715875,-0.87287 -11.550375,-2.62213 -0.7555,-0.47237 -3.094375,-2.52687 -7.015375,-6.16575 l -9.70825,7.15813 z"
       id="path17"
       inkscape:connector-curvature="0" />
    <path
       style="fill:#000000;fill-rule:nonzero;stroke:none"
       d="m 122.9805,492.769 -2.196,33.51937 12.47238,3.68525 c 1.22875,-1.18037 3.6375,-2.14962 7.22875,-2.90524 2.92874,-0.61401 5.52624,-0.92163 7.79499,-0.92163 3.78,0 7.03875,0.96925 9.77875,2.90525 3.3075,2.31562 4.96125,5.575 4.96125,9.78025 0,3.82687 -1.29875,7.08625 -3.8975,9.77913 -2.59875,2.64649 -5.85875,3.99287 -9.77875,4.03924 -4.01625,0.0476 -8.50499,-0.44924 -13.46624,-1.48799 -5.15,-1.0865 -9.14025,-2.43288 -11.976,-4.03938 l -5.24288,10.702 c 8.739,4.7705 19.25013,7.15575 31.53387,7.15575 6.94625,0 12.89875,-2.62087 17.85875,-7.86625 4.81875,-5.1965 7.22875,-11.29025 7.22875,-18.2825 0,-6.37812 -2.50375,-12.11912 -7.5125,-17.22037 -5.0075,-5.15025 -10.67625,-7.72463 -17.0075,-7.72463 -5.29125,0 -11.07874,0.874 -17.36249,2.622 l 0.92125,-11.55025 35.07874,0 0,-12.19 -46.41762,0 z"
       id="path19"
       inkscape:connector-curvature="0" />
  </g>
</svg>
