<?xml version="1.0" encoding="UTF-8" standalone="no"?>
<!-- Created with Inkscape (http://www.inkscape.org/) -->

<svg
   xmlns:dc="http://purl.org/dc/elements/1.1/"
   xmlns:cc="http://creativecommons.org/ns#"
   xmlns:rdf="http://www.w3.org/1999/02/22-rdf-syntax-ns#"
   xmlns:svg="http://www.w3.org/2000/svg"
   xmlns="http://www.w3.org/2000/svg"
   xmlns:sodipodi="http://sodipodi.sourceforge.net/DTD/sodipodi-0.dtd"
   xmlns:inkscape="http://www.inkscape.org/namespaces/inkscape"
   width="265.74875"
   height="177.16624"
   id="svg2"
   sodipodi:version="0.32"
   inkscape:version="0.48.2 r9819"
   version="1.0"
   sodipodi:docname="AJAX3.svg"
   inkscape:output_extension="org.inkscape.output.svg.inkscape">
  <defs
     id="defs4">
    <inkscape:perspective
       sodipodi:type="inkscape:persp3d"
       inkscape:vp_x="0 : 300.5 : 1"
       inkscape:vp_y="0 : 1000 : 0"
       inkscape:vp_z="601 : 300.5 : 1"
       inkscape:persp3d-origin="300.5 : 200.33333 : 1"
       id="perspective3380" />
    <inkscape:perspective
       id="perspective3990"
       inkscape:persp3d-origin="375 : 250 : 1"
       inkscape:vp_z="750 : 375 : 1"
       inkscape:vp_y="0 : 1000 : 0"
       inkscape:vp_x="0 : 375 : 1"
       sodipodi:type="inkscape:persp3d" />
  </defs>
  <sodipodi:namedview
     id="base"
     pagecolor="#ffffff"
     bordercolor="#666666"
     borderopacity="1.0"
     gridtolerance="10000"
     guidetolerance="10"
     objecttolerance="10"
     inkscape:pageopacity="0.0"
     inkscape:pageshadow="2"
     inkscape:zoom="2.1059114"
     inkscape:cx="46.726192"
     inkscape:cy="67.035962"
     inkscape:document-units="px"
     inkscape:current-layer="layer1"
     width="601px"
     height="601px"
     inkscape:window-width="1280"
     inkscape:window-height="1004"
     inkscape:window-x="-8"
     inkscape:window-y="-8"
     showgrid="false"
     fit-margin-top="0"
     fit-margin-left="0"
     fit-margin-right="0"
     fit-margin-bottom="0"
     inkscape:window-maximized="1"
     showguides="true"
     inkscape:guide-bbox="true" />
  <metadata
     id="metadata7">
    <rdf:RDF>
      <cc:Work
         rdf:about="">
        <dc:format>image/svg+xml</dc:format>
        <dc:type
           rdf:resource="http://purl.org/dc/dcmitype/StillImage" />
        <dc:title></dc:title>
      </cc:Work>
    </rdf:RDF>
  </metadata>
  <g
     inkscape:label="Layer 1"
     inkscape:groupmode="layer"
     id="layer1"
     transform="translate(34.50863,520.15189)">
    <rect
       style="color:#000000;fill:#000000;fill-opacity:1;fill-rule:nonzero;stroke:none;stroke-width:0.8735441;marker:none;visibility:visible;display:inline;overflow:visible"
       id="rect3653"
       width="0"
       height="27.202072"
       x="578.73834"
       y="298.1684"
       rx="249.48199"
       ry="27.202072" />
    <path
       inkscape:connector-curvature="0"
       style="fill:#ffdb00;fill-rule:nonzero;stroke:none"
       d="m -34.50863,-502.43577 c 0,-9.784 7.932125,-17.71612 17.71725,-17.71612 l 230.31525,0 c 9.78375,0 17.71625,7.93212 17.71625,17.71612 l 0,141.73263 c 0,9.785 -7.9325,17.7175 -17.71625,17.7175 l -230.31525,0 c -9.785125,0 -17.71725,-7.9325 -17.71725,-17.7175 l 0,-141.73263 z"
       id="path11" />
    <path
       inkscape:connector-curvature="0"
       style="fill:#000000;fill-rule:nonzero;stroke:none"
       d="m -30.96493,-502.43582 c 0,-7.82716 6.345213,-14.17237 14.1735,-14.17237 l 230.31525,0 c 7.8275,0 14.1725,6.34521 14.1725,14.17237 l 0,141.73263 c 0,7.82875 -6.345,14.17375 -14.1725,14.17375 l -230.31525,0 c -7.828287,0 -14.1735,-6.345 -14.1735,-14.17375 l 0,-141.73263 z"
       id="path13" />
    <path
       inkscape:connector-curvature="0"
       style="fill:#ffdb00;fill-rule:nonzero;stroke:none"
       d="m -25.29598,-502.43577 c 0,-4.69612 3.807325,-8.50347 8.504575,-8.50347 l 230.315425,0 c 4.69625,0 8.50375,3.80735 8.50375,8.50347 l 0,141.73153 c 0,4.6975 -3.8075,8.505 -8.50375,8.505 l -230.315425,0 c -4.69725,0 -8.504575,-3.8075 -8.504575,-8.505 l 0,-141.73153 z"
       id="path15" />
    <path
       inkscape:connector-curvature="0"
       style="fill:#000000;fill-rule:evenodd;stroke:none"
       d="m 53.806845,-397.63477 c 1.949375,-0.67875 3.529,-2.11063 4.74,-4.29687 1.0925,-2.00688 1.638125,-4.14801 1.638125,-6.42088 0,-2.92363 -0.899625,-5.61037 -2.701375,-8.06163 -1.919,-2.62812 -4.193125,-3.94162 -6.821375,-3.94287 l -14.836375,0 0,44.29212 6.110875,0 0,-20.55062 5.758,0 5.891125,20.55062 6.599125,0 -6.378125,-21.56987 z m -4.11875,-5.35888 -7.751375,0 0,-11.02912 7.796625,0 c 2.65625,0 3.985625,1.81637 3.985625,5.448 0,1.47713 -0.32475,2.73075 -0.974125,3.76462 -0.738625,1.211 -1.756625,1.8165 -3.05675,1.8165 z"
       id="path17" />
    <path
       inkscape:connector-curvature="0"
       style="fill:#000000;fill-rule:evenodd;stroke:none"
       d="m 80.691595,-375.22364 c 4.3115,0 7.55975,-2.0675 9.744875,-6.2 2.037,-3.9275 3.05575,-9.5375 3.05575,-16.83125 0,-15.32475 -4.237375,-22.98713 -12.7115,-22.98713 -8.681625,0 -13.02125,7.66238 -13.02125,22.98713 0,15.35375 4.31025,23.03125 12.932125,23.03125 z m 0,-6.3775 c -2.50975,0 -4.295625,-1.61 -5.358875,-4.8275 -0.857,-2.62875 -1.28425,-6.57 -1.28425,-11.82625 0,-11.2195 2.214375,-16.83113 6.643125,-16.83113 4.400625,0 6.600375,5.61163 6.600375,16.83113 0,11.10375 -2.19975,16.65375 -6.600375,16.65375 z"
       id="path19" />
    <path
       inkscape:connector-curvature="0"
       style="fill:#000000;fill-rule:evenodd;stroke:none"
       d="m 111.60722,-394.48865 3.1,-11.91575 3.145,11.91575 -6.245,0 z m -10.58625,18.42375 6.4225,0 2.9675,-12.31374 9.035,0 3.19,12.31374 6.33375,0 -11.1175,-44.29212 -6.245,0 -10.58625,44.29212 z"
       id="path21" />
    <path
       inkscape:connector-curvature="0"
       style="fill:#000000;fill-rule:evenodd;stroke:none"
       d="m 146.41972,-420.35702 -10.05375,0 0,44.29212 10.05375,0 c 5.61,0 9.5075,-2.19999 11.6925,-6.59874 1.7425,-3.48375 2.61375,-9.06501 2.61375,-16.74238 0,-6.52588 -0.945,-11.47225 -2.835,-14.83763 -2.30375,-4.07474 -6.1275,-6.11337 -11.47125,-6.11337 z m -0.22125,6.11337 c 3.39625,0 5.69875,1.52101 6.90875,4.56176 0.82625,2.09712 1.24,5.56637 1.24,10.40887 l 0,2.5245 c 0,4.54738 -0.36875,7.82487 -1.10625,9.83237 -1.1225,3.07125 -3.27875,4.60625 -6.4675,4.60625 l -4.2525,0 0,-31.93375 3.6775,0 z"
       id="path23" />
    <path
       inkscape:connector-curvature="0"
       style="fill:#000000;fill-rule:nonzero;stroke:none"
       d="m 24.885845,-476.38727 6.421,0 c 0,-3.18962 -1.165875,-5.89112 -3.498625,-8.1055 -2.303375,-2.24362 -5.04875,-3.36662 -8.2385,-3.36662 -5.04875,0 -8.577875,2.7465 -10.58475,8.2385 -1.358625,3.66212 -2.03725,8.79887 -2.03725,15.41388 0,5.90575 0.708,10.68837 2.12525,14.3505 2.097125,5.34424 5.595625,8.01512 10.49675,8.01512 2.45125,0 4.650875,-0.60538 6.600375,-1.81513 1.77125,-1.0925 3.055375,-2.47924 3.8525,-4.16262 0.797125,-1.71262 1.196375,-4.25288 1.196375,-7.61838 l 0,-8.76949 -11.339125,0 0,6.37812 5.314875,0 0,5.00487 c 0,1.24025 -0.618875,2.36213 -1.859125,3.3655 -1.210875,1.00463 -2.46575,1.50638 -3.765875,1.50638 -4.191875,0 -6.289,-5.04888 -6.289,-15.14775 l 0,-2.6575 c 0,-10.51262 2.097125,-15.76775 6.289,-15.76775 1.62475,0 2.909,0.45775 3.85375,1.37325 0.975375,0.88625 1.462375,2.14113 1.462375,3.76462 z"
       id="path25" />
    <path
       inkscape:connector-curvature="0"
       style="fill:#000000;fill-rule:evenodd;stroke:none"
       d="m 58.63472,-464.25227 c 1.949375,-0.67862 3.529,-2.11062 4.73875,-4.29562 1.0925,-2.008 1.639375,-4.14913 1.639375,-6.42213 0,-2.92362 -0.900875,-5.61037 -2.701375,-8.0615 -1.92025,-2.627 -4.193125,-3.94162 -6.821375,-3.94162 l -14.837625,0 0,44.29075 6.112125,0 0,-20.5505 5.758,0 5.889875,20.5505 6.600375,0 -6.378125,-21.56988 z m -4.11875,-5.35887 -7.751375,0 0,-11.02775 7.795375,0 c 2.6575,0 3.985625,1.81512 3.985625,5.44675 0,1.477 -0.32475,2.73188 -0.974125,3.76588 -0.737375,1.20962 -1.756625,1.81512 -3.0555,1.81512 z"
       id="path27" />
    <path
       inkscape:connector-curvature="0"
       style="fill:#000000;fill-rule:evenodd;stroke:none"
       d="m 83.17209,-461.10651 3.1005,-11.91526 3.1445,11.91526 -6.245,0 z m -10.586,18.42412 6.422125,0 2.9675,-12.31325 9.03525,0 3.18875,12.31325 6.335005,0 -11.11763,-44.29075 -6.245,0 -10.586,44.29075 z"
       id="path29" />
    <path
       inkscape:connector-curvature="0"
       style="fill:#000000;fill-rule:nonzero;stroke:none"
       d="m 114.26347,-442.68239 5.13875,0 10.895,-44.29075 -6.3775,0 -6.9975,28.302 -7.175,-28.302 -6.4675,0 10.98375,44.29075 z"
       id="path31" />
    <path
       inkscape:connector-curvature="0"
       style="fill:#000000;fill-rule:nonzero;stroke:none"
       d="m 137.78222,-486.97314 0,44.29075 22.14625,0 0,-6.24387 -16.0775,0 0,-14.61676 9.43375,0 0,-6.06812 -9.43375,0 0,-11.11688 15.36875,0 0,-6.24512 -21.4375,0 z"
       id="path33" />
    <path
       inkscape:connector-curvature="0"
       style="fill:#000000;fill-rule:nonzero;stroke:none"
       d="m 167.50222,-486.97314 0,44.29075 22.14625,0 0,-5.846 -15.8575,0 0,-38.44475 -6.28875,0 z"
       id="path35" />
  </g>
</svg>
