<?xml version="1.0" encoding="UTF-8" standalone="no"?>
<!-- Created with Inkscape (http://www.inkscape.org/) -->

<svg
   xmlns:dc="http://purl.org/dc/elements/1.1/"
   xmlns:cc="http://creativecommons.org/ns#"
   xmlns:rdf="http://www.w3.org/1999/02/22-rdf-syntax-ns#"
   xmlns:svg="http://www.w3.org/2000/svg"
   xmlns="http://www.w3.org/2000/svg"
   xmlns:sodipodi="http://sodipodi.sourceforge.net/DTD/sodipodi-0.dtd"
   xmlns:inkscape="http://www.inkscape.org/namespaces/inkscape"
   width="199.315"
   height="398.6275"
   id="svg3075"
   version="1.1"
   inkscape:version="0.48.2 r9819"
   sodipodi:docname="AJAX.svg">
  <defs
     id="defs3077" />
  <sodipodi:namedview
     id="base"
     pagecolor="#ffffff"
     bordercolor="#666666"
     borderopacity="1.0"
     inkscape:pageopacity="0.0"
     inkscape:pageshadow="2"
     inkscape:zoom="4.0587929"
     inkscape:cx="36.614031"
     inkscape:cy="333.76156"
     inkscape:document-units="px"
     inkscape:current-layer="ANZ"
     showgrid="false"
     borderlayer="true"
     inkscape:window-width="1280"
     inkscape:window-height="1004"
     inkscape:window-x="-8"
     inkscape:window-y="-8"
     inkscape:window-maximized="1"
     fit-margin-top="0"
     fit-margin-left="0"
     fit-margin-right="0"
     fit-margin-bottom="0" />
  <metadata
     id="metadata3080">
    <rdf:RDF>
      <cc:Work
         rdf:about="">
        <dc:format>image/svg+xml</dc:format>
        <dc:type
           rdf:resource="http://purl.org/dc/dcmitype/StillImage" />
        <dc:title />
      </cc:Work>
    </rdf:RDF>
  </metadata>
  <g
     inkscape:label="ANZ"
     inkscape:groupmode="layer"
     id="ANZ"
     transform="translate(-11.779375,-691.8126)">
    <path
       inkscape:connector-curvature="0"
       style="fill:#ffdb00;fill-rule:nonzero;stroke:none"
       d="m 11.779375,711.74423 c 0,-11.00829 8.92335,-19.93163 19.930375,-19.93163 l 159.45338,0 c 11.0075,0 19.93125,8.92334 19.93125,19.93163 l 0,358.76457 c 0,11.0075 -8.92375,19.9313 -19.93125,19.9313 l -159.45338,0 c -11.007025,0 -19.930375,-8.9238 -19.930375,-19.9313 l 0,-358.76457 z"
       id="path11" />
    <path
       inkscape:connector-curvature="0"
       style="fill:#000000;fill-rule:nonzero;stroke:none"
       d="m 13.771559,711.74292 c 0,-9.90712 8.032225,-17.93813 17.938124,-17.93813 l 159.454377,0 c 9.90625,0 17.9375,8.03101 17.9375,17.93813 l 0,358.76438 c 0,9.9075 -8.03125,17.9387 -17.9375,17.9387 l -159.454377,0 c -9.9059,0 -17.938125,-8.0312 -17.938125,-17.9387 l 0,-358.76438 z"
       id="path13" />
    <path
       inkscape:connector-curvature="0"
       style="fill:#ffdb00;fill-rule:nonzero;stroke:none"
       d="m 17.758383,712.4071 c 0,-8.07251 6.544237,-14.6155 14.616751,-14.6155 l 158.123256,0 c 8.0725,0 14.61625,6.54299 14.61625,14.6155 l 0,357.437 c 0,8.0725 -6.54375,14.615 -14.61625,14.615 l -158.123256,0 c -8.072513,0 -14.61675,-6.5425 -14.61675,-14.615 l 0,-357.437 z"
       id="path15" />
    <path
       inkscape:connector-curvature="0"
       style="fill:#000000;fill-rule:nonzero;stroke:none"
       d="m 157.26975,1033.1948 0,37.8425 29.232,0 0,-37.8425 c -0.0113,-50.62499 -40.9995,-91.64496 -91.594879,-91.68496 l 5.362499,-13.86 c 1.23663,-2.985 -0.18062,-6.405 -3.165249,-7.64125 -1.875,-0.77625 -3.9185,-0.50875 -5.487125,0.53875 l -55.2465,35.57375 55.2465,35.57372 c 1.568625,1.0488 3.612125,1.3163 5.487125,0.54 2.984629,-1.2362 4.401879,-4.6562 3.165249,-7.6412 l -5.380874,-13.85002 c 34.466624,0.03 62.381254,27.97872 62.381254,62.45121 z"
       id="path17" />
    <path
       inkscape:connector-curvature="0"
       style="fill:#000000;fill-rule:evenodd;stroke:none"
       d="m 46.598746,1040.0148 c 1.56,-4.0037 4.376125,-7.3875 8.452125,-10.1512 4.110125,-2.765 8.3435,-4.1475 12.702625,-4.1475 0.849625,0 1.665,0.054 2.443875,0.16 l 0,-9.46 c -10.205125,0 -18.47775,3.1525 -24.820625,9.46 -6.448875,6.485 -9.67275,15.1125 -9.67275,25.8837 0,5.9538 2.108125,10.6488 6.324375,14.085 3.89775,3.1538 8.840375,4.73 14.829125,4.73 5.527375,0 10.293,-1.2575 14.296875,-3.7737 4.713125,-2.975 7.069125,-7.1213 7.069125,-12.4363 0,-5.35 -2.338875,-9.5137 -7.015375,-12.49 -3.96975,-2.5512 -8.7525,-3.8275 -14.350625,-3.8275 -3.118875,0 -6.538125,0.6563 -10.25875,1.9675 z m 10.6835,21.1538 c -7.65375,0 -11.462375,-2.2688 -11.427,-6.8038 0.0355,-4.6062 3.844,-6.9087 11.427,-6.9087 7.7955,0 11.674875,2.3025 11.640625,6.9087 0,2.5875 -1.15225,4.4288 -3.45575,5.5275 -1.842,0.8513 -4.570375,1.2763 -8.184875,1.2763 z"
       id="path19" />
    <path
       inkscape:connector-curvature="0"
       style="fill:#000000;fill-rule:nonzero;stroke:none"
       d="m 95.336496,1016.4161 -1.64675,25.14 9.354254,2.7637 c 0.9205,-0.8862 2.72825,-1.6125 5.42112,-2.1787 2.19613,-0.4613 4.1455,-0.6925 5.846,-0.6925 2.8345,0 5.2795,0.7275 7.33525,2.18 2.48038,1.7362 3.71938,4.18 3.71938,7.335 0,2.8687 -0.97413,5.3137 -2.92225,7.335 -1.9495,1.9837 -4.39463,2.9937 -7.33525,3.0287 -3.0115,0.035 -6.37813,-0.3375 -10.09763,-1.1162 -3.86362,-0.815 -6.856749,-1.825 -8.983249,-3.0288 l -3.931875,8.025 c 6.554,3.5775 14.437254,5.3675 23.651124,5.3675 5.20875,0 9.67288,-1.965 13.39363,-5.9 3.6145,-3.8975 5.42112,-8.4675 5.42112,-13.7112 0,-4.7838 -1.87862,-9.0888 -5.6335,-12.9163 -3.75612,-3.8612 -8.00787,-5.7925 -12.75637,-5.7925 -3.9685,0 -8.30938,0.655 -13.02125,1.9663 l 0.69087,-8.6638 26.30863,0 0,-9.1412 -34.813254,0 z"
       id="path21" />
    <path
       inkscape:connector-curvature="0"
       style="fill:#000000;fill-rule:evenodd;stroke:none"
       d="m 186.38875,750.85072 -80.2295,-41.76513 -52.205754,100.28563 80.228254,41.76312 52.207,-100.28362 z m -56.50638,108.54362 c 0.67875,-1.30375 0.17213,-2.91 -1.1315,-3.58875 l -7.07887,-3.68625 c -1.3025,-0.6775 -2.909,-0.17125 -3.58775,1.1325 l -12.89788,24.77625 c -0.67875,1.30375 -0.17212,2.90875 1.13038,3.5875 l 7.08,3.685 c 1.3025,0.67875 2.909,0.1725 3.58775,-1.13125 l 12.89787,-24.775 z m -11.79812,-6.1425 c 0.67875,-1.30375 0.17212,-2.91 -1.1315,-3.58875 l -7.07888,-3.685 c -1.30375,-0.67875 -2.91012,-0.17125 -3.58762,1.13125 l -12.898004,24.77625 c -0.67875,1.30375 -0.172125,2.91 1.130375,3.58875 l 7.078879,3.685 c 1.30375,0.6775 2.91012,0.1725 3.58887,-1.13125 l 12.89788,-24.77625 z M 73.250371,829.91359 c 0.678625,-1.30375 0.172125,-2.91 -1.131625,-3.58875 l -7.078875,-3.685 c -1.3025,-0.67875 -2.908875,-0.17125 -3.587625,1.13125 l -12.898,24.77575 c -0.678625,1.30375 -0.172125,2.91 1.130375,3.5875 l 7.080125,3.685 c 1.3025,0.67875 2.908875,0.1725 3.587625,-1.13125 l 12.898,-24.7745 z m -11.798125,-6.1425 c 0.67875,-1.3025 0.172125,-2.91 -1.131625,-3.5875 l -7.078875,-3.68625 c -1.303625,-0.67875 -2.910125,-0.17125 -3.587625,1.1325 l -12.898,24.77575 c -0.678625,1.3025 -0.172,2.90875 1.130375,3.5875 l 7.080125,3.685 c 1.3025,0.67875 2.909,0.1725 3.587625,-1.13125 l 12.898,-24.77575 z m 40.534624,31.597 -33.035874,-17.1975 -4.29925,8.26 33.034625,17.19625 4.300499,-8.25875 z m 84.68563,30.42875 -150.310629,0 0,9.31125 150.310629,0 0,-9.31125 z"
       id="path23" />
  </g>
</svg>
