<?xml version="1.0" encoding="UTF-8" standalone="no"?>
<!-- Created with Inkscape (http://www.inkscape.org/) -->

<svg
   xmlns:dc="http://purl.org/dc/elements/1.1/"
   xmlns:cc="http://creativecommons.org/ns#"
   xmlns:rdf="http://www.w3.org/1999/02/22-rdf-syntax-ns#"
   xmlns:svg="http://www.w3.org/2000/svg"
   xmlns="http://www.w3.org/2000/svg"
   xmlns:sodipodi="http://sodipodi.sourceforge.net/DTD/sodipodi-0.dtd"
   xmlns:inkscape="http://www.inkscape.org/namespaces/inkscape"
   id="svg17624"
   version="1.1"
   inkscape:version="0.48.2 r9819"
   width="360.62756"
   height="360.61237"
   xml:space="preserve"
   sodipodi:docname="AA2.svg"><metadata
     id="metadata17630"><rdf:RDF><cc:Work
         rdf:about=""><dc:format>image/svg+xml</dc:format><dc:type
           rdf:resource="http://purl.org/dc/dcmitype/StillImage" /><dc:title></dc:title></cc:Work></rdf:RDF></metadata><defs
     id="defs17628"><inkscape:perspective
       sodipodi:type="inkscape:persp3d"
       inkscape:vp_x="0 : 0.5 : 1"
       inkscape:vp_y="0 : 1000 : 0"
       inkscape:vp_z="1 : 0.5 : 1"
       inkscape:persp3d-origin="0.5 : 0.33333333 : 1"
       id="perspective17632" /><clipPath
       clipPathUnits="userSpaceOnUse"
       id="clipPath17642"><path
         d="m -2,710 501,0 0,-711 -501,0 0,711 z"
         id="path17644"
         inkscape:connector-curvature="0" /></clipPath><clipPath
       clipPathUnits="userSpaceOnUse"
       id="clipPath17648"><path
         d="m 0,708.06 498,0 0,-708 -498,0 0,708 z"
         id="path17650"
         inkscape:connector-curvature="0" /></clipPath><clipPath
       clipPathUnits="userSpaceOnUse"
       id="clipPath17798"><path
         d="m -2,710 501,0 0,-711 -501,0 0,711 z"
         id="path17800"
         inkscape:connector-curvature="0" /></clipPath><clipPath
       clipPathUnits="userSpaceOnUse"
       id="clipPath17804"><path
         d="m 0,708.06 498,0 0,-708 -498,0 0,708 z"
         id="path17806"
         inkscape:connector-curvature="0" /></clipPath><clipPath
       id="Clip0"><path
         inkscape:connector-curvature="0"
         d="m 0,0 212.597,0 0,269.292 L 0,269.292 0,0 z"
         transform="translate(0.923828,0.879883)"
         id="path7" /></clipPath><clipPath
       id="Clip0-8"><path
         inkscape:connector-curvature="0"
         d="m 0,0 170.079,0 0,113.386 L 0,113.386 0,0 z"
         transform="translate(0.0986328,0.822266)"
         id="path7-8" /></clipPath><clipPath
       id="Clip0-1"><path
         inkscape:connector-curvature="0"
         d="m 0,0 287.009,0 0,159.449 L 0,159.449 0,0 z"
         transform="translate(0.396484,0.267578)"
         id="path7-7" /></clipPath><clipPath
       id="Clip0-9"><path
         inkscape:connector-curvature="0"
         d="m 0,0 170.079,0 0,170.079 L 0,170.079 0,0 z"
         transform="translate(0.460938,0.775391)"
         id="path7-4" /></clipPath><clipPath
       id="Clip0-4"><path
         inkscape:connector-curvature="0"
         d="m 0,0 340.157,0 0,226.771 L 0,226.771 0,0 z"
         transform="translate(0.921875,0.25293)"
         id="path7-5" /></clipPath><clipPath
       id="Clip0-5"><path
         inkscape:connector-curvature="0"
         d="m 0,0 255.119,0 0,170.079 L 0,170.079 0,0 z"
         transform="translate(0.147461,0.0595703)"
         id="path7-1" /></clipPath><clipPath
       id="Clip0-0"><path
         inkscape:connector-curvature="0"
         d="m 0,0 170.079,0 0,113.386 L 0,113.386 0,0 z"
         transform="translate(0.0673828,0.207031)"
         id="path7-9" /></clipPath></defs><sodipodi:namedview
     pagecolor="#ffffff"
     bordercolor="#666666"
     borderopacity="1"
     objecttolerance="10"
     gridtolerance="10"
     guidetolerance="10"
     inkscape:pageopacity="0"
     inkscape:pageshadow="2"
     inkscape:window-width="1280"
     inkscape:window-height="1004"
     id="namedview17626"
     showgrid="false"
     inkscape:zoom="1.4142136"
     inkscape:cx="111.30413"
     inkscape:cy="201.74106"
     inkscape:window-x="-8"
     inkscape:window-y="-8"
     inkscape:window-maximized="1"
     inkscape:current-layer="g17634"
     fit-margin-top="0"
     fit-margin-left="0"
     fit-margin-right="0"
     fit-margin-bottom="0"
     showguides="true"
     inkscape:guide-bbox="true" /><g
     id="g17634"
     inkscape:groupmode="layer"
     inkscape:label="GG1999P002"
     transform="matrix(1.25,0,0,-1.25,2890.1965,-1116.5661)"><path
       inkscape:connector-curvature="0"
       style="fill:#ffdb00;fill-rule:nonzero;stroke:none"
       d="m -2027.9548,-1027.1163 c 5.733,-5.734 5.733,-15.029 -8e-4,-20.764 l -129.571,-129.562 c -5.734,-5.734 -15.031,-5.734 -20.764,0 l -129.5658,129.562 c -5.7344,5.735 -5.7344,15.03 0,20.764 l 129.5716,129.56261 c 5.734,5.73438 15.03,5.73438 20.763,0 l 129.567,-129.56261 z"
       id="path11" /><path
       inkscape:connector-curvature="0"
       style="fill:#000000;fill-rule:nonzero;stroke:none"
       d="m -2305.457,-1044.9776 c -4.0957,4.096 -4.0957,10.737 0,14.833 l 130.2863,130.28232 c 4.096,4.0957 10.736,4.0957 14.832,0 l 130.289,-130.28232 c 4.096,-4.096 4.097,-10.737 0,-14.833 l -130.286,-130.283 c -4.096,-4.095 -10.736,-4.095 -14.832,0 l -130.2893,130.283 z"
       id="path13" /><path
       inkscape:connector-curvature="0"
       style="fill:#ffdb00;fill-rule:nonzero;stroke:none"
       d="m -2301.6484,-1041.0075 c -1.9932,1.992 -1.9932,5.223 0,7.216 l 130.2858,130.28271 c 1.993,1.99222 5.223,1.99222 7.216,0 l 130.289,-130.28271 c 1.993,-1.993 1.993,-5.224 0,-7.216 l -130.286,-130.283 c -1.993,-1.992 -5.223,-1.992 -7.216,0 l -130.2888,130.283 z"
       id="path15" /><path
       inkscape:connector-curvature="0"
       style="fill:#c0111e;fill-opacity:1;fill-rule:nonzero;stroke:none"
       d="m -2247.5488,-1036.9 c 0,44.0709 35.7259,79.7955 79.7959,79.7955 44.0701,0 79.7961,-35.7246 79.7961,-79.7955 0,-44.0715 -35.726,-79.7945 -79.7961,-79.7945 -44.07,0 -79.7959,35.723 -79.7959,79.7945 z"
       id="path17" /><path
       inkscape:connector-curvature="0"
       style="fill:#ffffff;fill-rule:nonzero;stroke:none"
       d="m -2220.9502,-1036.9 c 0,-29.38 23.8163,-53.1981 53.1973,-53.1981 29.38,0 53.1967,23.8181 53.1967,53.1981 0,29.38 -23.8167,53.19691 -53.1967,53.19691 -29.381,0 -53.1973,-23.81691 -53.1973,-53.19691 z"
       id="path19" /><path
       inkscape:connector-curvature="0"
       style="fill:#000000;fill-rule:nonzero;stroke:none"
       d="m -2206.8469,-1020.357 7.874,-2.713 c 1.241,3.476 3.884,5.214 7.928,5.214 1.632,0 3.228,-0.746 4.788,-2.235 1.596,-1.454 2.394,-3.068 2.394,-4.842 0,-3.617 -1.684,-5.426 -5.054,-5.426 l -2.182,0 0,-8.141 2.182,0 c 1.596,0 3.21,-0.868 4.842,-2.606 1.632,-1.739 2.447,-3.477 2.447,-5.214 0,-0.533 -0.071,-0.958 -0.214,-1.277 0,-2.022 -1.135,-4.008 -3.404,-5.959 -2.235,-1.916 -4.327,-2.873 -6.279,-2.873 -2.02,0 -3.971,0.816 -5.851,2.447 -1.881,1.631 -3.051,3.671 -3.512,6.119 l -8.246,-1.863 c 3.156,-9.86 9.434,-14.79 18.833,-14.79 4.151,0 7.982,1.809 11.492,5.427 3.512,3.653 5.268,7.679 5.268,12.077 0,2.412 -0.461,4.877 -1.384,7.395 -0.887,2.555 -2.057,4.433 -3.511,5.639 1.915,1.136 2.873,4.24 2.873,9.312 0,3.688 -1.631,7.182 -4.895,10.48 -3.263,3.299 -6.792,4.949 -10.587,4.949 -3.725,0 -6.952,-0.958 -9.684,-2.873 -2.695,-1.916 -4.735,-4.664 -6.118,-8.247 z"
       id="path21" /><path
       inkscape:connector-curvature="0"
       style="fill:#000000;fill-rule:evenodd;stroke:none"
       d="m -2145.3979,-1064.516 c 12.415,0 18.623,9.204 18.623,27.613 0,18.444 -6.208,27.666 -18.623,27.666 -12.414,0 -18.62,-9.222 -18.62,-27.666 0,-18.409 6.206,-27.613 18.62,-27.613 z m 0,8.14 c -6.916,0 -10.374,6.491 -10.374,19.473 0,12.981 3.458,19.472 10.374,19.472 6.881,0 10.322,-6.491 10.322,-19.472 0,-12.982 -3.441,-19.473 -10.322,-19.473 z"
       id="path23" /></g></svg>