<?xml version="1.0" encoding="UTF-8" standalone="no"?>
<!-- Created with Inkscape (http://www.inkscape.org/) -->

<svg
   xmlns:dc="http://purl.org/dc/elements/1.1/"
   xmlns:cc="http://creativecommons.org/ns#"
   xmlns:rdf="http://www.w3.org/1999/02/22-rdf-syntax-ns#"
   xmlns:svg="http://www.w3.org/2000/svg"
   xmlns="http://www.w3.org/2000/svg"
   xmlns:sodipodi="http://sodipodi.sourceforge.net/DTD/sodipodi-0.dtd"
   xmlns:inkscape="http://www.inkscape.org/namespaces/inkscape"
   width="360.62756"
   height="360.6124"
   id="svg3075"
   version="1.1"
   inkscape:version="0.48.2 r9819"
   sodipodi:docname="AJAX.svg">
  <defs
     id="defs3077" />
  <sodipodi:namedview
     id="base"
     pagecolor="#ffffff"
     bordercolor="#666666"
     borderopacity="1.0"
     inkscape:pageopacity="0.0"
     inkscape:pageshadow="2"
     inkscape:zoom="1.435"
     inkscape:cx="237.94986"
     inkscape:cy="170.01678"
     inkscape:document-units="px"
     inkscape:current-layer="ANZ"
     showgrid="false"
     borderlayer="true"
     inkscape:window-width="1280"
     inkscape:window-height="1004"
     inkscape:window-x="-8"
     inkscape:window-y="-8"
     inkscape:window-maximized="1"
     fit-margin-top="0"
     fit-margin-left="0"
     fit-margin-right="0"
     fit-margin-bottom="0" />
  <metadata
     id="metadata3080">
    <rdf:RDF>
      <cc:Work
         rdf:about="">
        <dc:format>image/svg+xml</dc:format>
        <dc:type
           rdf:resource="http://purl.org/dc/dcmitype/StillImage" />
        <dc:title />
      </cc:Work>
    </rdf:RDF>
  </metadata>
  <g
     inkscape:label="ANZ"
     inkscape:groupmode="layer"
     id="ANZ"
     transform="translate(-6.4790858,-734.02882)">
    <path
       inkscape:connector-curvature="0"
       style="fill:#ffdb00;fill-rule:nonzero;stroke:none"
       d="m 361.73209,901.35808 c 7.16625,7.1675 7.16625,18.7875 -0.001,25.955 L 199.76734,1089.2656 c -7.1675,7.1675 -18.78875,7.1675 -25.955,0 L 11.855067,927.31308 c -7.1679749,-7.1675 -7.1679749,-18.7875 0,-25.955 L 173.81959,739.40479 c 7.1675,-7.16796 18.7875,-7.16796 25.95375,0 l 161.95875,161.95329 z"
       id="path11" />
    <path
       inkscape:connector-curvature="0"
       style="fill:#000000;fill-rule:nonzero;stroke:none"
       d="m 14.663905,923.86898 c -5.1208505,-5.12 -5.1208505,-13.42 0,-18.54 L 177.52055,742.47487 c 5.12,-5.11964 13.42126,-5.11964 18.54125,0 l 162.86126,162.85411 c 5.12,5.12 5.12,13.42 0,18.54 l -162.8575,162.85372 c -5.12,5.12 -13.42126,5.12 -18.54125,0 L 14.663905,923.86898 z"
       id="path13" />
    <path
       inkscape:connector-curvature="0"
       style="fill:#ffdb00;fill-rule:nonzero;stroke:none"
       d="m 19.423442,918.90648 c -2.49025,-2.49 -2.49025,-6.5275 0,-9.01875 L 182.28069,747.0342 c 2.49125,-2.49147 6.53,-2.49147 9.02,0 l 162.86125,162.85353 c 2.49,2.49125 2.49,6.52875 0,9.01875 l -162.8575,162.85502 c -2.49,2.4912 -6.52875,2.4912 -9.02,0 L 19.423442,918.90648 z"
       id="path15" />
    <path
       inkscape:connector-curvature="0"
       style="fill:#000000;fill-rule:nonzero;stroke:none"
       d="m 275.37531,958.06381 0,22.32225 -35.43375,0 0,-22.32225 c 0,-39.14 -31.7275,-70.8675 -70.86463,-70.8675 -12.9,0 -24.99374,3.4475 -35.46499,9.5 l 15.9325,12.77 c 3.51375,2.69625 4.1775,7.73 1.48001,11.245 -1.69376,2.2075 -4.30376,3.29125 -6.88626,3.12125 l -90.004123,-4.3675 41.2195,-80.12862 c 1.145,-2.32175 3.38875,-4.0405 6.147503,-4.40425 4.39212,-0.57863 8.42037,2.51337 8.999,6.9055 l 5.42112,24.14987 c 15.63575,-9.04612 33.79201,-14.22312 53.15574,-14.22312 58.70713,0 106.29838,47.59062 106.29838,106.29937 z"
       id="path17" />
  </g>
</svg>
