<?xml version="1.0" encoding="UTF-8" standalone="no"?>
<!-- Generator: Adobe Illustrator 12.0.1, SVG Export Plug-In  -->

<svg
   xmlns:dc="http://purl.org/dc/elements/1.1/"
   xmlns:cc="http://creativecommons.org/ns#"
   xmlns:rdf="http://www.w3.org/1999/02/22-rdf-syntax-ns#"
   xmlns:svg="http://www.w3.org/2000/svg"
   xmlns="http://www.w3.org/2000/svg"
   xmlns:sodipodi="http://sodipodi.sourceforge.net/DTD/sodipodi-0.dtd"
   xmlns:inkscape="http://www.inkscape.org/namespaces/inkscape"
   version="1.1"
   width="336.61374"
   height="106.29875"
   viewBox="-0.779 0 336.61374 106.29875"
   enable-background="new -0.779 0 98 288"
   xml:space="preserve"
   id="svg2"
   inkscape:version="0.48.2 r9819"
   sodipodi:docname="AJAX1.svg"><metadata
   id="metadata36"><rdf:RDF><cc:Work
       rdf:about=""><dc:format>image/svg+xml</dc:format><dc:type
         rdf:resource="http://purl.org/dc/dcmitype/StillImage" /><dc:title></dc:title></cc:Work></rdf:RDF></metadata><sodipodi:namedview
   pagecolor="#ffffff"
   bordercolor="#666666"
   borderopacity="1"
   objecttolerance="10"
   gridtolerance="10"
   guidetolerance="10"
   inkscape:pageopacity="0"
   inkscape:pageshadow="2"
   inkscape:window-width="1280"
   inkscape:window-height="1004"
   id="namedview34"
   showgrid="false"
   fit-margin-top="0"
   fit-margin-left="0"
   fit-margin-right="0"
   fit-margin-bottom="0"
   inkscape:zoom="1.3867569"
   inkscape:cx="143.86195"
   inkscape:cy="-33.250787"
   inkscape:window-x="-8"
   inkscape:window-y="-8"
   inkscape:window-maximized="1"
   inkscape:current-layer="svg2" />
<defs
   id="defs4">
</defs>














<path
   inkscape:connector-curvature="0"
   style="fill:#ffdb00;fill-rule:nonzero;stroke:none"
   d="M -0.779,17.715999 C -0.779,7.9309119 7.1519124,-1.0712629e-6 16.937,-1.0712629e-6 l 301.1815,0 c 9.78375,0 17.71625,7.9309129712629 17.71625,17.7160000712629 l 0,70.8655 c 0,9.785125 -7.9325,17.717251 -17.71625,17.717251 l -301.1815,0 c -9.7850876,0 -17.716,-7.932126 -17.716,-17.717251 l 0,-70.8655 z"
   id="path11" /><path
   inkscape:connector-curvature="0"
   style="fill:#000000;fill-rule:nonzero;stroke:none"
   d="m 2.7634812,17.716104 c 0,-7.8271871 6.3452125,-14.1736251 14.1734998,-14.1736251 l 301.180249,0 c 7.82875,0 14.17375,6.346438 14.17375,14.1736251 l 0,70.865375 c 0,7.828375 -6.345,14.173631 -14.17375,14.173631 l -301.180249,0 c -7.8282873,0 -14.1734998,-6.345256 -14.1734998,-14.173631 l 0,-70.865375 z"
   id="path13" /><path
   inkscape:connector-curvature="0"
   style="fill:#ffdb00;fill-rule:nonzero;stroke:none"
   d="m 8.4324312,17.716039 c 0,-4.69725 3.8073248,-8.5033881 8.5045748,-8.5033881 l 301.181674,0 c 4.69625,0 8.50375,3.8061381 8.50375,8.5033881 l 0,70.865487 c 0,4.69725 -3.8075,8.504625 -8.50375,8.504625 l -301.181674,0 c -4.69725,0 -8.5045748,-3.807375 -8.5045748,-8.504625 l 0,-70.865487 z"
   id="path15" /><path
   style="fill:#000000;fill-rule:nonzero;stroke:none"
   d="m 37.842804,44.243097 0,35.433247 4.890125,0 0,-23.279998 10.559124,23.279998 4.039249,0 0,-35.433247 -5.137874,0 0,20.480873 -9.460499,-20.480873 -4.890125,0 z"
   id="path17"
   inkscape:connector-curvature="0" /><path
   style="fill:#000000;fill-rule:nonzero;stroke:none"
   d="m 64.771552,44.243097 0,35.433247 17.717249,0 0,-4.996249 -12.862499,0 0,-11.691874 7.547624,0 0,-4.85475 -7.547624,0 0,-8.894124 12.294874,0 0,-4.99625 -17.149624,0 z"
   id="path19"
   inkscape:connector-curvature="0" /><path
   style="fill:#000000;fill-rule:nonzero;stroke:none"
   d="m 93.932924,61.534346 -7.617249,18.141998 5.456625,0 5.030499,-11.728499 4.819371,11.728499 5.59925,0 -7.653746,-18.141998 7.263126,-17.291249 -5.59813,0 -4.429871,10.558999 -4.570374,-10.558999 -5.314875,0 7.015374,17.291249 z"
   id="path21"
   inkscape:connector-curvature="0" /><path
   style="fill:#000000;fill-rule:nonzero;stroke:none"
   d="m 111.15455,44.243097 0,4.677625 6.30625,0 0,30.755622 5.20862,0 0,-30.755622 6.20088,0 0,-4.677625 -17.71575,0 z"
   id="path23"
   inkscape:connector-curvature="0" /><path
   style="fill:#000000;fill-rule:evenodd;stroke:none"
   d="m 186.07778,26.553848 -21.73874,34.706997 0,5.315 21.73874,0 0,13.127374 7.28125,0 0,-13.127374 3.40125,0 0,-7.069125 -3.40125,0 0,-32.952872 -7.28125,0 z m 0,12.330374 0,20.622498 -12.64999,0 12.64999,-20.622498 z"
   id="path25"
   inkscape:connector-curvature="0" /><path
   style="fill:#000000;fill-rule:nonzero;stroke:none"
   d="m 256.48653,79.723969 -10.87375,-15.825124 10.87375,-11.088874 -7.75125,0 -10.60499,11.088874 0,-21.424623 -5.76,0 0,37.249747 5.76,0 0,-8.343499 3.5525,-3.55225 7.85874,11.895749 6.945,0 z"
   id="path27"
   inkscape:connector-curvature="0" /><path
   style="fill:#000000;fill-rule:nonzero;stroke:none"
   d="m 296.85903,79.723969 0,-15.394249 c 0,-4.1455 -0.32375,-6.191374 -1.2925,-7.806374 -1.4525,-2.691625 -4.30625,-4.144375 -7.805,-4.144375 -3.23,0 -5.4375,1.07675 -7.375,3.60725 -1.4525,-2.476875 -3.715,-3.660875 -6.83624,-3.660875 -2.6375,0 -4.41375,0.806875 -6.46,2.85275 l 0,-2.368125 -5.65125,0 0,26.913998 5.65125,0 0,-15.286874 c 0,-2.15325 0.26875,-3.391125 1.0775,-4.414 0.86125,-1.239 2.3675,-2.045874 3.82125,-2.045874 1.2925,0 2.63874,0.592 3.39124,1.668624 0.7,0.96925 0.8625,1.829875 0.8625,4.629 l 0,15.449124 5.92,0 0,-15.449124 c 0,-2.475625 0.16125,-3.391125 0.80875,-4.25175 0.915,-1.2915 2.42125,-2.099624 3.92875,-2.099624 1.66875,0 3.01375,0.808124 3.66,2.153374 0.3775,0.806875 0.485,1.938375 0.485,4.198 l 0,15.449124 5.81375,0 z"
   id="path29"
   inkscape:connector-curvature="0" /></svg>