<?xml version="1.0" encoding="UTF-8" standalone="no"?>
<!-- Created with Inkscape (http://www.inkscape.org/) -->

<svg
   xmlns:dc="http://purl.org/dc/elements/1.1/"
   xmlns:cc="http://creativecommons.org/ns#"
   xmlns:rdf="http://www.w3.org/1999/02/22-rdf-syntax-ns#"
   xmlns:svg="http://www.w3.org/2000/svg"
   xmlns="http://www.w3.org/2000/svg"
   xmlns:sodipodi="http://sodipodi.sourceforge.net/DTD/sodipodi-0.dtd"
   xmlns:inkscape="http://www.inkscape.org/namespaces/inkscape"
   width="360.61929"
   height="360.63492"
   id="svg3075"
   version="1.1"
   inkscape:version="0.48.2 r9819"
   sodipodi:docname="AJAX.svg">
  <defs
     id="defs3077" />
  <sodipodi:namedview
     id="base"
     pagecolor="#ffffff"
     bordercolor="#666666"
     borderopacity="1.0"
     inkscape:pageopacity="0.0"
     inkscape:pageshadow="2"
     inkscape:zoom="1.435"
     inkscape:cx="128.7517"
     inkscape:cy="182.61679"
     inkscape:document-units="px"
     inkscape:current-layer="ANZ"
     showgrid="false"
     borderlayer="true"
     inkscape:window-width="1280"
     inkscape:window-height="1004"
     inkscape:window-x="-8"
     inkscape:window-y="-8"
     inkscape:window-maximized="1"
     fit-margin-top="0"
     fit-margin-left="0"
     fit-margin-right="0"
     fit-margin-bottom="0" />
  <metadata
     id="metadata3080">
    <rdf:RDF>
      <cc:Work
         rdf:about="">
        <dc:format>image/svg+xml</dc:format>
        <dc:type
           rdf:resource="http://purl.org/dc/dcmitype/StillImage" />
        <dc:title></dc:title>
      </cc:Work>
    </rdf:RDF>
  </metadata>
  <g
     inkscape:label="ANZ"
     inkscape:groupmode="layer"
     id="ANZ"
     transform="translate(-6.9664484,-733.39122)">
    <path
       inkscape:connector-curvature="0"
       style="fill:#ffdb00;fill-rule:nonzero;stroke:none"
       d="m 362.21129,900.73173 c 7.16675,7.16625 7.16553,18.7875 -0.001,25.95625 l -161.9683,161.96252 c -7.1675,7.1675 -18.7875,7.1675 -25.95375,0 L 12.340542,926.68798 c -7.1662498,-7.16875 -7.1649998,-18.79 0.001,-25.95625 L 174.30928,738.76719 c 7.16875,-7.16796 18.78875,-7.16796 25.955,0 l 161.94701,161.96454 z"
       id="path11" />
    <path
       inkscape:connector-curvature="0"
       style="fill:#000000;fill-rule:nonzero;stroke:none"
       d="m 359.40489,922.97869 c 5.12085,-5.12 5.12085,-13.42 0,-18.54 L 196.54823,741.58458 c -5.11875,-5.11964 -13.42125,-5.11964 -18.54125,0 L 15.145732,904.43869 c -5.12,5.12 -5.12,13.42 0,18.54 L 178.00323,1085.8324 c 5.12,5.12 13.42125,5.12 18.54125,0 L 359.40489,922.97869 z"
       id="path13" />
    <path
       inkscape:connector-curvature="0"
       style="fill:#ffdb00;fill-rule:nonzero;stroke:none"
       d="m 354.64536,918.21887 c 2.49025,-2.49125 2.49025,-6.52875 0,-9.02 L 191.7881,746.34535 c -2.49125,-2.49148 -6.53,-2.49148 -9.02,0 L 19.906852,909.19887 c -2.49,2.49125 -2.49,6.52875 0,9.02 L 182.76435,1081.0726 c 2.49,2.4912 6.53,2.4912 9.02,0 L 354.64536,918.21887 z"
       id="path15" />
    <path
       inkscape:connector-curvature="0"
       style="fill:#000000;fill-rule:nonzero;stroke:none"
       d="m 124.8516,864.95247 c 0,-39.3335 31.84625,-71.2195 71.1815,-71.2195 39.335,0 71.22088,31.886 71.22088,71.2195 l 0.0391,13.33375 18.98675,-7.41 c 4.09188,-1.695 8.78426,0.24875 10.47851,4.34125 1.06575,2.57125 0.69825,5.3725 -0.73975,7.525 l -48.78413,75.763 -48.78387,-75.763 c -1.43876,-2.1525 -1.80501,-4.95375 -0.74,-7.525 1.695,-4.0925 6.38624,-6.03625 10.47999,-4.34125 l 19.02375,7.41 0,-13.33375 c 0,-17.22037 -13.95875,-31.18038 -31.18125,-31.18038 -17.22,0 -31.18025,13.96001 -31.18025,31.18038 l -0.02,146.20803 -40.04,0 0.0588,-146.20803 z"
       id="path17" />
  </g>
</svg>
