<?xml version="1.0" encoding="UTF-8" standalone="no"?>
<!-- Generator: Adobe Illustrator 12.0.1, SVG Export Plug-In  -->

<svg
   xmlns:dc="http://purl.org/dc/elements/1.1/"
   xmlns:cc="http://creativecommons.org/ns#"
   xmlns:rdf="http://www.w3.org/1999/02/22-rdf-syntax-ns#"
   xmlns:svg="http://www.w3.org/2000/svg"
   xmlns="http://www.w3.org/2000/svg"
   xmlns:sodipodi="http://sodipodi.sourceforge.net/DTD/sodipodi-0.dtd"
   xmlns:inkscape="http://www.inkscape.org/namespaces/inkscape"
   version="1.1"
   width="336.61374"
   height="106.29875"
   viewBox="-0.779 0 336.61374 106.29875"
   enable-background="new -0.779 0 98 288"
   xml:space="preserve"
   id="svg2"
   inkscape:version="0.48.2 r9819"
   sodipodi:docname="AJAX10.svg"><metadata
   id="metadata36"><rdf:RDF><cc:Work
       rdf:about=""><dc:format>image/svg+xml</dc:format><dc:type
         rdf:resource="http://purl.org/dc/dcmitype/StillImage" /><dc:title></dc:title></cc:Work></rdf:RDF></metadata><sodipodi:namedview
   pagecolor="#ffffff"
   bordercolor="#666666"
   borderopacity="1"
   objecttolerance="10"
   gridtolerance="10"
   guidetolerance="10"
   inkscape:pageopacity="0"
   inkscape:pageshadow="2"
   inkscape:window-width="1280"
   inkscape:window-height="1004"
   id="namedview34"
   showgrid="false"
   fit-margin-top="0"
   fit-margin-left="0"
   fit-margin-right="0"
   fit-margin-bottom="0"
   inkscape:zoom="1.3867569"
   inkscape:cx="143.86195"
   inkscape:cy="-33.250787"
   inkscape:window-x="-8"
   inkscape:window-y="-8"
   inkscape:window-maximized="1"
   inkscape:current-layer="svg2" />
<defs
   id="defs4">
</defs>














<path
   inkscape:connector-curvature="0"
   style="fill:#ffdb00;fill-rule:nonzero;stroke:none"
   d="M -0.779,17.715999 C -0.779,7.9309119 7.1519124,-1.0712629e-6 16.937,-1.0712629e-6 l 301.1815,0 c 9.78375,0 17.71625,7.9309129712629 17.71625,17.7160000712629 l 0,70.8655 c 0,9.785125 -7.9325,17.717251 -17.71625,17.717251 l -301.1815,0 c -9.7850876,0 -17.716,-7.932126 -17.716,-17.717251 l 0,-70.8655 z"
   id="path11" /><path
   inkscape:connector-curvature="0"
   style="fill:#000000;fill-rule:nonzero;stroke:none"
   d="m 2.7634812,17.716104 c 0,-7.8271871 6.3452125,-14.1736251 14.1734998,-14.1736251 l 301.180249,0 c 7.82875,0 14.17375,6.346438 14.17375,14.1736251 l 0,70.865375 c 0,7.828375 -6.345,14.173631 -14.17375,14.173631 l -301.180249,0 c -7.8282873,0 -14.1734998,-6.345256 -14.1734998,-14.173631 l 0,-70.865375 z"
   id="path13" /><path
   inkscape:connector-curvature="0"
   style="fill:#ffdb00;fill-rule:nonzero;stroke:none"
   d="m 8.4324312,17.716039 c 0,-4.69725 3.8073248,-8.5033881 8.5045748,-8.5033881 l 301.181674,0 c 4.69625,0 8.50375,3.8061381 8.50375,8.5033881 l 0,70.865487 c 0,4.69725 -3.8075,8.504625 -8.50375,8.504625 l -301.181674,0 c -4.69725,0 -8.5045748,-3.807375 -8.5045748,-8.504625 l 0,-70.865487 z"
   id="path15" /><path
   style="fill:#000000;fill-rule:nonzero;stroke:none"
   d="m 28.276163,44.24296 0,35.432125 4.888875,0 0,-23.27875 10.560375,23.27875 4.03925,0 0,-35.432125 -5.137875,0 0,20.47975 -9.46175,-20.47975 -4.888875,0 z"
   id="path17"
   inkscape:connector-curvature="0" /><path
   style="fill:#000000;fill-rule:nonzero;stroke:none"
   d="m 55.204913,44.24296 0,35.432125 17.71725,0 0,-4.995 -12.8625,0 0,-11.693125 7.546375,0 0,-4.85475 -7.546375,0 0,-8.894125 12.294875,0 0,-4.995125 -17.149625,0 z"
   id="path19"
   inkscape:connector-curvature="0" /><path
   style="fill:#000000;fill-rule:nonzero;stroke:none"
   d="m 84.366288,61.53421 -7.61725,18.140875 5.456625,0 5.0305,-11.72725 4.81925,11.72725 5.59825,0 -7.652625,-18.140875 7.263125,-17.29125 -5.598125,0 -4.429875,10.559125 -4.570375,-10.559125 -5.314875,0 7.015375,17.29125 z"
   id="path21"
   inkscape:connector-curvature="0" /><path
   style="fill:#000000;fill-rule:nonzero;stroke:none"
   d="m 101.58791,44.24296 0,4.676625 6.30613,0 0,30.7555 5.20875,0 0,-30.7555 6.20125,0 0,-4.676625 -17.71613,0 z"
   id="path23"
   inkscape:connector-curvature="0" /><path
   style="fill:#000000;fill-rule:nonzero;stroke:none"
   d="m 145.91404,40.106085 7.33375,0 c 0,-1.806625 0.7625,-3.454625 2.28625,-4.943875 1.5225,-1.488 3.15375,-2.2315 4.88875,-2.2315 1.70125,0 3.31375,0.76175 4.83875,2.28525 1.5575,1.524625 2.31875,3.02975 2.285,4.51775 -0.0362,2.19725 -0.9225,4.163875 -2.6575,5.899625 -0.5325,0.567625 -2.1975,1.843375 -4.9975,3.827 -4.3925,3.117625 -7.88375,7.8125 -10.47,14.084375 -2.2675,5.49325 -3.40125,10.879 -3.40125,16.15725 l 29.12625,0 0,-7.493875 -20.19625,0 c 0,-3.0115 1.2025,-6.289 3.6125,-9.83275 2.33875,-3.43625 5.475,-6.643125 9.40875,-9.619125 4.57,-3.472875 6.85625,-7.565875 6.85625,-12.277875 0,-4.252875 -1.4525,-7.81375 -4.35875,-10.683625 -2.87,-2.869875 -6.3075,-4.304125 -10.31125,-4.304125 -3.9675,0 -7.335,1.416 -10.09875,4.25175 -2.7625,2.834375 -4.145,6.289 -4.145,10.36375 z"
   id="path25"
   inkscape:connector-curvature="0" /><path
   style="fill:#000000;fill-rule:evenodd;stroke:none"
   d="m 199.86029,80.657835 c 5.4575,0 9.44375,-2.373125 11.95875,-7.120375 2.33875,-4.43 3.5075,-11.232875 3.5075,-20.410125 0,-18.425375 -5.19125,-27.63675 -15.5725,-27.63675 -10.205,0 -15.3075,9.211375 -15.3075,27.63675 0,18.3545 5.13875,27.5305 15.41375,27.5305 z m 0,-7.3865 c -5.35,0 -8.02625,-6.715125 -8.02625,-20.144 0,-13.429 2.6575,-20.144125 7.9725,-20.144125 2.72875,0 4.80125,1.966625 6.21875,5.900875 1.275,3.507125 1.9125,8.255625 1.9125,14.24325 0,13.428875 -2.69125,20.144 -8.0775,20.144 z"
   id="path27"
   inkscape:connector-curvature="0" /><path
   style="fill:#000000;fill-rule:nonzero;stroke:none"
   d="m 266.18654,79.72396 -10.93375,-15.913125 10.93375,-11.149875 -7.795,0 -10.6625,11.149875 0,-21.54175 -5.79125,0 0,37.454875 5.79125,0 0,-8.389875 3.57375,-3.57175 7.90125,11.961625 6.9825,0 z"
   id="path29"
   inkscape:connector-curvature="0" /><path
   style="fill:#000000;fill-rule:nonzero;stroke:none"
   d="m 306.77904,79.72396 0,-15.47975 c 0,-4.168625 -0.32375,-6.224375 -1.29875,-7.849125 -1.46125,-2.70625 -4.32875,-4.1675 -7.8475,-4.1675 -3.24875,0 -5.4675,1.08275 -7.41625,3.62675 -1.46,-2.49025 -3.73375,-3.680375 -6.87375,-3.680375 -2.65125,0 -4.4375,0.81175 -6.49375,2.868625 l 0,-2.381625 -5.68375,0 0,27.063 5.68375,0 0,-15.371125 c 0,-2.1655 0.27,-3.410625 1.08125,-4.438375 0.8675,-1.246375 2.3825,-2.058125 3.84375,-2.058125 1.29875,0 2.6525,0.595625 3.41,1.678375 0.70375,0.974125 0.865,1.839625 0.865,4.654625 l 0,15.534625 5.955,0 0,-15.534625 c 0,-2.489 0.16125,-3.4095 0.8125,-4.274875 0.92,-1.300125 2.435,-2.111875 3.95125,-2.111875 1.67625,0 3.03,0.81175 3.67875,2.1655 0.38,0.81175 0.48875,1.94825 0.48875,4.22125 l 0,15.534625 5.84375,0 z"
   id="path31"
   inkscape:connector-curvature="0" /></svg>