<?xml version="1.0" encoding="UTF-8" standalone="no"?>
<!-- Generator: Adobe Illustrator 12.0.1, SVG Export Plug-In  -->

<svg
   xmlns:dc="http://purl.org/dc/elements/1.1/"
   xmlns:cc="http://creativecommons.org/ns#"
   xmlns:rdf="http://www.w3.org/1999/02/22-rdf-syntax-ns#"
   xmlns:svg="http://www.w3.org/2000/svg"
   xmlns="http://www.w3.org/2000/svg"
   xmlns:sodipodi="http://sodipodi.sourceforge.net/DTD/sodipodi-0.dtd"
   xmlns:inkscape="http://www.inkscape.org/namespaces/inkscape"
   version="1.1"
   width="336.61374"
   height="106.29875"
   viewBox="-0.779 0 336.61374 106.29875"
   enable-background="new -0.779 0 98 288"
   xml:space="preserve"
   id="svg2"
   inkscape:version="0.48.2 r9819"
   sodipodi:docname="AJAX7.svg"><metadata
   id="metadata36"><rdf:RDF><cc:Work
       rdf:about=""><dc:format>image/svg+xml</dc:format><dc:type
         rdf:resource="http://purl.org/dc/dcmitype/StillImage" /><dc:title></dc:title></cc:Work></rdf:RDF></metadata><sodipodi:namedview
   pagecolor="#ffffff"
   bordercolor="#666666"
   borderopacity="1"
   objecttolerance="10"
   gridtolerance="10"
   guidetolerance="10"
   inkscape:pageopacity="0"
   inkscape:pageshadow="2"
   inkscape:window-width="1280"
   inkscape:window-height="1004"
   id="namedview34"
   showgrid="false"
   fit-margin-top="0"
   fit-margin-left="0"
   fit-margin-right="0"
   fit-margin-bottom="0"
   inkscape:zoom="1.3867569"
   inkscape:cx="143.86195"
   inkscape:cy="-33.250787"
   inkscape:window-x="-8"
   inkscape:window-y="-8"
   inkscape:window-maximized="1"
   inkscape:current-layer="svg2" />
<defs
   id="defs4">
</defs>














<path
   inkscape:connector-curvature="0"
   style="fill:#ffdb00;fill-rule:nonzero;stroke:none"
   d="M -0.779,17.715999 C -0.779,7.9309119 7.1519124,-1.0712629e-6 16.937,-1.0712629e-6 l 301.1815,0 c 9.78375,0 17.71625,7.9309129712629 17.71625,17.7160000712629 l 0,70.8655 c 0,9.785125 -7.9325,17.717251 -17.71625,17.717251 l -301.1815,0 c -9.7850876,0 -17.716,-7.932126 -17.716,-17.717251 l 0,-70.8655 z"
   id="path11" /><path
   inkscape:connector-curvature="0"
   style="fill:#000000;fill-rule:nonzero;stroke:none"
   d="m 2.7634812,17.716104 c 0,-7.8271871 6.3452125,-14.1736251 14.1734998,-14.1736251 l 301.180249,0 c 7.82875,0 14.17375,6.346438 14.17375,14.1736251 l 0,70.865375 c 0,7.828375 -6.345,14.173631 -14.17375,14.173631 l -301.180249,0 c -7.8282873,0 -14.1734998,-6.345256 -14.1734998,-14.173631 l 0,-70.865375 z"
   id="path13" /><path
   inkscape:connector-curvature="0"
   style="fill:#ffdb00;fill-rule:nonzero;stroke:none"
   d="m 8.4324312,17.716039 c 0,-4.69725 3.8073248,-8.5033881 8.5045748,-8.5033881 l 301.181674,0 c 4.69625,0 8.50375,3.8061381 8.50375,8.5033881 l 0,70.865487 c 0,4.69725 -3.8075,8.504625 -8.50375,8.504625 l -301.181674,0 c -4.69725,0 -8.5045748,-3.807375 -8.5045748,-8.504625 l 0,-70.865487 z"
   id="path15" /><path
   style="fill:#000000;fill-rule:nonzero;stroke:none"
   d="m 39.615244,44.242953 0,35.432125 4.889,0 0,-23.27875 10.559,23.27875 4.039375,0 0,-35.432125 -5.138,0 0,20.47975 -9.460375,-20.47975 -4.889,0 z"
   id="path17"
   inkscape:connector-curvature="0" /><path
   style="fill:#000000;fill-rule:nonzero;stroke:none"
   d="m 66.543994,44.242953 0,35.432125 17.716125,0 0,-4.995 -12.862625,0 0,-11.693125 7.547625,0 0,-4.85475 -7.547625,0 0,-8.892875 12.296125,0 0,-4.996375 -17.149625,0 z"
   id="path19"
   inkscape:connector-curvature="0" /><path
   style="fill:#000000;fill-rule:nonzero;stroke:none"
   d="m 95.705369,61.534328 -7.618375,18.14075 5.4565,0 5.03175,-11.72725 4.818126,11.72725 5.59937,0 -7.65387,-18.14075 7.26325,-17.291375 -5.59813,0 -4.428746,10.559125 -4.5715,-10.559125 -5.31375,0 7.015375,17.291375 z"
   id="path21"
   inkscape:connector-curvature="0" /><path
   style="fill:#000000;fill-rule:nonzero;stroke:none"
   d="m 112.92587,44.242953 0,4.676625 6.30738,0 0,30.7555 5.20925,0 0,-30.7555 6.2,0 0,-4.676625 -17.71663,0 z"
   id="path23"
   inkscape:connector-curvature="0" /><path
   style="fill:#000000;fill-rule:evenodd;stroke:none"
   d="m 176.63374,79.701953 c 3.8625,-2.44375 7.1575,-5.650625 9.88625,-9.620375 1.73625,-2.47925 3.685,-6.04125 5.84625,-10.682375 1.98375,-4.251625 2.97625,-9.761875 2.97625,-16.5295 0,-5.8105 -1.31125,-10.18675 -3.9325,-13.127375 -2.48125,-2.83575 -6.0775,-4.25175 -10.79,-4.25175 -4.42875,0 -7.99,1.611375 -10.6825,4.836375 -2.55125,3.082375 -3.82625,6.962875 -3.82625,11.6395 0,5.56275 1.6825,9.920625 5.04875,13.074875 2.6925,2.58675 5.705,3.89775 9.035,3.931875 1.27625,0.03663 2.71125,-0.17575 4.305,-0.637125 -1.20375,3.2605 -2.94,6.147375 -5.20875,8.66325 -0.95625,1.098625 -3.36625,3.36675 -7.2275,6.803 l 4.57,5.899625 z m 3.98625,-27.95525 c -2.055,0 -3.79,-0.921625 -5.20875,-2.764875 -1.41625,-1.842125 -2.125,-4.07475 -2.125,-6.696875 0,-2.586625 0.70875,-4.801 2.125,-6.643 1.41875,-1.8775 3.15375,-2.817375 5.20875,-2.817375 2.2325,0 4.0225,0.76175 5.36875,2.285125 1.55875,1.77125 2.33875,4.359125 2.33875,7.76 0,2.55125 -0.7625,4.6765 -2.285,6.37825 -1.525,1.665 -3.33125,2.49875 -5.4225,2.49875 z"
   id="path25"
   inkscape:connector-curvature="0" /><path
   style="fill:#000000;fill-rule:nonzero;stroke:none"
   d="m 255.06999,79.723953 -10.875,-15.826375 10.875,-11.088875 -7.7525,0 -10.60375,11.088875 0,-21.424625 -5.76,0 0,37.251 5.76,0 0,-8.3435 3.5525,-3.55225 7.85875,11.89575 6.945,0 z"
   id="path27"
   inkscape:connector-curvature="0" /><path
   style="fill:#000000;fill-rule:nonzero;stroke:none"
   d="m 295.44124,79.723953 0,-15.3955 c 0,-4.1455 -0.3225,-6.190125 -1.2925,-7.805125 -1.4525,-2.69175 -4.30625,-4.144375 -7.805,-4.144375 -3.23,0 -5.4375,1.0755 -7.37375,3.606 -1.4525,-2.47675 -3.715,-3.660875 -6.83625,-3.660875 -2.6375,0 -4.41375,0.808125 -6.46,2.854 l 0,-2.369375 -5.65375,0 0,26.91525 5.65375,0 0,-15.288125 c 0,-2.15325 0.26875,-3.391 1.07625,-4.414 0.8625,-1.23775 2.36875,-2.045875 3.82125,-2.045875 1.2925,0 2.63875,0.592 3.3925,1.668625 0.69875,0.96925 0.86125,1.831125 0.86125,4.630125 l 0,15.44925 5.92125,0 0,-15.44925 c 0,-2.4755 0.16,-3.391125 0.8075,-4.252875 0.91375,-1.2915 2.4225,-2.099625 3.93,-2.099625 1.6675,0 3.01375,0.808125 3.65875,2.153375 0.3775,0.808 0.485,1.938375 0.485,4.199125 l 0,15.44925 5.81375,0 z"
   id="path29"
   inkscape:connector-curvature="0" /></svg>