<?xml version="1.0" encoding="UTF-8" standalone="no"?>
<!-- Generator: Adobe Illustrator 12.0.1, SVG Export Plug-In  -->

<svg
   xmlns:dc="http://purl.org/dc/elements/1.1/"
   xmlns:cc="http://creativecommons.org/ns#"
   xmlns:rdf="http://www.w3.org/1999/02/22-rdf-syntax-ns#"
   xmlns:svg="http://www.w3.org/2000/svg"
   xmlns="http://www.w3.org/2000/svg"
   xmlns:sodipodi="http://sodipodi.sourceforge.net/DTD/sodipodi-0.dtd"
   xmlns:inkscape="http://www.inkscape.org/namespaces/inkscape"
   version="1.1"
   width="336.61374"
   height="106.29875"
   viewBox="-0.779 0 336.61374 106.29875"
   enable-background="new -0.779 0 98 288"
   xml:space="preserve"
   id="svg2"
   inkscape:version="0.48.2 r9819"
   sodipodi:docname="AJAX4.svg"><metadata
   id="metadata36"><rdf:RDF><cc:Work
       rdf:about=""><dc:format>image/svg+xml</dc:format><dc:type
         rdf:resource="http://purl.org/dc/dcmitype/StillImage" /><dc:title></dc:title></cc:Work></rdf:RDF></metadata><sodipodi:namedview
   pagecolor="#ffffff"
   bordercolor="#666666"
   borderopacity="1"
   objecttolerance="10"
   gridtolerance="10"
   guidetolerance="10"
   inkscape:pageopacity="0"
   inkscape:pageshadow="2"
   inkscape:window-width="1280"
   inkscape:window-height="1004"
   id="namedview34"
   showgrid="false"
   fit-margin-top="0"
   fit-margin-left="0"
   fit-margin-right="0"
   fit-margin-bottom="0"
   inkscape:zoom="1.3867569"
   inkscape:cx="143.86195"
   inkscape:cy="-33.250787"
   inkscape:window-x="-8"
   inkscape:window-y="-8"
   inkscape:window-maximized="1"
   inkscape:current-layer="svg2" />
<defs
   id="defs4">
</defs>














<path
   inkscape:connector-curvature="0"
   style="fill:#ffdb00;fill-rule:nonzero;stroke:none"
   d="M -0.779,17.715999 C -0.779,7.9309119 7.1519124,-1.0712629e-6 16.937,-1.0712629e-6 l 301.1815,0 c 9.78375,0 17.71625,7.9309129712629 17.71625,17.7160000712629 l 0,70.8655 c 0,9.785125 -7.9325,17.717251 -17.71625,17.717251 l -301.1815,0 c -9.7850876,0 -17.716,-7.932126 -17.716,-17.717251 l 0,-70.8655 z"
   id="path11" /><path
   inkscape:connector-curvature="0"
   style="fill:#000000;fill-rule:nonzero;stroke:none"
   d="m 2.7634812,17.716104 c 0,-7.8271871 6.3452125,-14.1736251 14.1734998,-14.1736251 l 301.180249,0 c 7.82875,0 14.17375,6.346438 14.17375,14.1736251 l 0,70.865375 c 0,7.828375 -6.345,14.173631 -14.17375,14.173631 l -301.180249,0 c -7.8282873,0 -14.1734998,-6.345256 -14.1734998,-14.173631 l 0,-70.865375 z"
   id="path13" /><path
   inkscape:connector-curvature="0"
   style="fill:#ffdb00;fill-rule:nonzero;stroke:none"
   d="m 8.4324312,17.716039 c 0,-4.69725 3.8073248,-8.5033881 8.5045748,-8.5033881 l 301.181674,0 c 4.69625,0 8.50375,3.8061381 8.50375,8.5033881 l 0,70.865487 c 0,4.69725 -3.8075,8.504625 -8.50375,8.504625 l -301.181674,0 c -4.69725,0 -8.5045748,-3.807375 -8.5045748,-8.504625 l 0,-70.865487 z"
   id="path15" /><path
   style="fill:#000000;fill-rule:nonzero;stroke:none"
   d="m 39.61531,44.243156 0,35.432125 4.888875,0 0,-23.27875 10.559125,23.27875 4.03925,0 0,-35.432125 -5.136625,0 0,20.47975 -9.46175,-20.47975 -4.888875,0 z"
   id="path17"
   inkscape:connector-curvature="0" /><path
   style="fill:#000000;fill-rule:nonzero;stroke:none"
   d="m 66.54406,44.243156 0,35.432125 17.71725,0 0,-4.995125 -12.862625,0 0,-11.693125 7.546375,0 0,-4.85475 -7.546375,0 0,-8.89275 12.295,0 0,-4.996375 -17.149625,0 z"
   id="path19"
   inkscape:connector-curvature="0" /><path
   style="fill:#000000;fill-rule:nonzero;stroke:none"
   d="m 95.705435,61.534406 -7.61725,18.140875 5.455375,0 5.03175,-11.72725 4.81925,11.72725 5.59813,0 -7.65375,-18.140875 7.26437,-17.29125 -5.59812,0 -4.42988,10.559125 -4.570375,-10.559125 -5.315,0 7.0155,17.29125 z"
   id="path21"
   inkscape:connector-curvature="0" /><path
   style="fill:#000000;fill-rule:nonzero;stroke:none"
   d="m 112.92581,44.243156 0,4.6765 6.30738,0 0,30.755625 5.20925,0 0,-30.755625 6.20125,0 0,-4.6765 -17.71788,0 z"
   id="path23"
   inkscape:connector-curvature="0" /><path
   style="fill:#000000;fill-rule:evenodd;stroke:none"
   d="m 177.11244,47.918656 c 2.1275,-5.17325 6.18375,-10.328375 12.1725,-15.46625 l -4.25375,-5.899625 c -6.4125,4.713125 -11.32,10.825125 -14.72125,18.336125 -2.79875,6.201125 -4.1975,12.3315 -4.1975,18.391125 0,5.38575 1.27375,9.6375 3.825,12.755125 2.5875,3.117625 6.1475,4.6765 10.68375,4.6765 4.46375,0 8.06,-1.593 10.79,-4.78275 2.62125,-3.046875 3.93125,-6.9275 3.93125,-11.639375 0,-5.03175 -1.20375,-9.053875 -3.6125,-12.065375 -2.48125,-3.153125 -5.98875,-4.73025 -10.52375,-4.73025 -1.205,0 -2.57,0.141625 -4.09375,0.42475 z m 3.50875,25.299125 c -2.37375,0 -4.19875,-0.920375 -5.475,-2.763625 -1.09875,-1.62975 -1.6475,-3.82575 -1.6475,-6.589375 0,-2.871125 0.7275,-5.15625 2.18,-6.85675 1.31125,-1.56 2.9575,-2.338875 4.9425,-2.338875 2.01875,0 3.72,0.797125 5.1025,2.391375 1.4875,1.7005 2.23125,3.96975 2.23125,6.80425 0,2.72825 -0.60125,4.92425 -1.80625,6.589375 -1.31125,1.84325 -3.15375,2.763625 -5.5275,2.763625 z"
   id="path25"
   inkscape:connector-curvature="0" /><path
   style="fill:#000000;fill-rule:nonzero;stroke:none"
   d="m 255.06994,79.724156 -10.87375,-15.8265 10.87375,-11.088875 -7.7525,0 -10.60375,11.088875 0,-21.4245 -5.75875,0 0,37.251 5.75875,0 0,-8.3435 3.55375,-3.55225 7.85875,11.89575 6.94375,0 z"
   id="path27"
   inkscape:connector-curvature="0" /><path
   style="fill:#000000;fill-rule:nonzero;stroke:none"
   d="m 295.44119,79.724157 0,-15.3955 c 0,-4.1455 -0.32125,-6.19025 -1.29125,-7.80525 -1.45375,-2.691625 -4.30625,-4.14425 -7.80625,-4.14425 -3.22875,0 -5.43625,1.075375 -7.37375,3.606 -1.4525,-2.475625 -3.71375,-3.660875 -6.83625,-3.660875 -2.6375,0 -4.41375,0.808 -6.45875,2.854 l 0,-2.3695 -5.65375,0 0,26.915375 5.65375,0 0,-15.288125 c 0,-2.153375 0.26875,-3.391125 1.075,-4.414 0.8625,-1.237875 2.37,-2.046 3.8225,-2.046 1.29125,0 2.6375,0.592125 3.39125,1.66875 0.69875,0.96925 0.86125,1.831 0.86125,4.630125 l 0,15.44925 5.9225,0 0,-15.44925 c 0,-2.475625 0.16,-3.391125 0.80625,-4.252875 0.915,-1.2915 2.4225,-2.099625 3.93,-2.099625 1.66875,0 3.015,0.808125 3.65875,2.15325 0.3775,0.808125 0.485,1.9385 0.485,4.19925 l 0,15.44925 5.81375,0 z"
   id="path29"
   inkscape:connector-curvature="0" /></svg>