<?xml version="1.0" encoding="UTF-8" standalone="no"?>
<!-- Generator: Adobe Illustrator 12.0.1, SVG Export Plug-In  -->

<svg
   xmlns:dc="http://purl.org/dc/elements/1.1/"
   xmlns:cc="http://creativecommons.org/ns#"
   xmlns:rdf="http://www.w3.org/1999/02/22-rdf-syntax-ns#"
   xmlns:svg="http://www.w3.org/2000/svg"
   xmlns="http://www.w3.org/2000/svg"
   xmlns:sodipodi="http://sodipodi.sourceforge.net/DTD/sodipodi-0.dtd"
   xmlns:inkscape="http://www.inkscape.org/namespaces/inkscape"
   version="1.1"
   width="336.61374"
   height="106.29875"
   viewBox="-0.779 0 336.61374 106.29875"
   enable-background="new -0.779 0 98 288"
   xml:space="preserve"
   id="svg2"
   inkscape:version="0.48.2 r9819"
   sodipodi:docname="AJAX11.svg"><metadata
   id="metadata36"><rdf:RDF><cc:Work
       rdf:about=""><dc:format>image/svg+xml</dc:format><dc:type
         rdf:resource="http://purl.org/dc/dcmitype/StillImage" /><dc:title></dc:title></cc:Work></rdf:RDF></metadata><sodipodi:namedview
   pagecolor="#ffffff"
   bordercolor="#666666"
   borderopacity="1"
   objecttolerance="10"
   gridtolerance="10"
   guidetolerance="10"
   inkscape:pageopacity="0"
   inkscape:pageshadow="2"
   inkscape:window-width="1280"
   inkscape:window-height="1004"
   id="namedview34"
   showgrid="false"
   fit-margin-top="0"
   fit-margin-left="0"
   fit-margin-right="0"
   fit-margin-bottom="0"
   inkscape:zoom="1.3867569"
   inkscape:cx="143.86195"
   inkscape:cy="-33.250787"
   inkscape:window-x="-8"
   inkscape:window-y="-8"
   inkscape:window-maximized="1"
   inkscape:current-layer="svg2" />
<defs
   id="defs4">
</defs>














<path
   inkscape:connector-curvature="0"
   style="fill:#ffdb00;fill-rule:nonzero;stroke:none"
   d="M -0.779,17.715999 C -0.779,7.9309119 7.1519124,-1.0712629e-6 16.937,-1.0712629e-6 l 301.1815,0 c 9.78375,0 17.71625,7.9309129712629 17.71625,17.7160000712629 l 0,70.8655 c 0,9.785125 -7.9325,17.717251 -17.71625,17.717251 l -301.1815,0 c -9.7850876,0 -17.716,-7.932126 -17.716,-17.717251 l 0,-70.8655 z"
   id="path11" /><path
   inkscape:connector-curvature="0"
   style="fill:#000000;fill-rule:nonzero;stroke:none"
   d="m 2.7634812,17.716104 c 0,-7.8271871 6.3452125,-14.1736251 14.1734998,-14.1736251 l 301.180249,0 c 7.82875,0 14.17375,6.346438 14.17375,14.1736251 l 0,70.865375 c 0,7.828375 -6.345,14.173631 -14.17375,14.173631 l -301.180249,0 c -7.8282873,0 -14.1734998,-6.345256 -14.1734998,-14.173631 l 0,-70.865375 z"
   id="path13" /><path
   inkscape:connector-curvature="0"
   style="fill:#ffdb00;fill-rule:nonzero;stroke:none"
   d="m 8.4324312,17.716039 c 0,-4.69725 3.8073248,-8.5033881 8.5045748,-8.5033881 l 301.181674,0 c 4.69625,0 8.50375,3.8061381 8.50375,8.5033881 l 0,70.865487 c 0,4.69725 -3.8075,8.504625 -8.50375,8.504625 l -301.181674,0 c -4.69725,0 -8.5045748,-3.807375 -8.5045748,-8.504625 l 0,-70.865487 z"
   id="path15" /><path
   style="fill:#000000;fill-rule:nonzero;stroke:none"
   d="m 28.276203,44.243081 0,35.433372 4.890125,0 0,-23.280123 10.559124,23.280123 4.039249,0 0,-35.433372 -5.137999,0 0,20.480873 -9.460374,-20.480873 -4.890125,0 z"
   id="path17"
   inkscape:connector-curvature="0" /><path
   style="fill:#000000;fill-rule:nonzero;stroke:none"
   d="m 55.206076,44.243081 0,35.433372 17.716124,0 0,-4.996374 -12.862624,0 0,-11.693124 7.547624,0 0,-4.8535 -7.547624,0 0,-8.894124 12.294999,0 0,-4.99625 -17.148499,0 z"
   id="path19"
   inkscape:connector-curvature="0" /><path
   style="fill:#000000;fill-rule:nonzero;stroke:none"
   d="m 84.367449,61.53433 -7.618374,18.142123 5.4565,0 5.031749,-11.728624 4.818125,11.728624 5.599374,0 -7.653749,-18.142123 7.263124,-17.291249 -5.598124,0 -4.42875,10.558999 -4.571499,-10.558999 -5.315,0 7.016624,17.291249 z"
   id="path21"
   inkscape:connector-curvature="0" /><path
   style="fill:#000000;fill-rule:nonzero;stroke:none"
   d="m 101.58795,44.243081 0,4.67775 6.30612,0 0,30.755622 5.20875,0 0,-30.755622 6.20113,0 0,-4.67775 -17.716,0 z"
   id="path23"
   inkscape:connector-curvature="0" /><path
   style="fill:#000000;fill-rule:nonzero;stroke:none"
   d="m 145.91432,40.106081 7.33375,0 c 0,-1.806625 0.7625,-3.454625 2.28625,-4.942625 1.52375,-1.488 3.15375,-2.2315 4.89,-2.2315 1.70125,0 3.3125,0.7605 4.83625,2.28525 1.55875,1.523375 2.32125,3.0285 2.285,4.516625 -0.035,2.19725 -0.92125,4.16375 -2.65625,5.900874 -0.5325,0.566375 -2.1975,1.842 -4.9975,3.826875 -4.3925,3.117625 -7.88375,7.812499 -10.47,14.084499 -2.2675,5.491875 -3.40125,10.877624 -3.40125,16.157124 l 29.12624,0 0,-7.493875 -20.19749,0 c 0,-3.012624 1.205,-6.290249 3.61375,-9.832749 2.34,-3.4375 5.475,-6.644249 9.4075,-9.620374 4.57124,-3.472875 6.85749,-7.564625 6.85749,-12.277749 0,-4.25175 -1.4525,-7.8125 -4.35999,-10.683624 -2.87,-2.869875 -6.30625,-4.30425 -10.31,-4.30425 -3.9675,0 -7.335,1.41725 -10.09875,4.25175 -2.76375,2.834499 -4.145,6.288999 -4.145,10.363749 z"
   id="path25"
   inkscape:connector-curvature="0" /><path
   style="fill:#000000;fill-rule:nonzero;stroke:none"
   d="m 188.69807,26.552582 -1.275,27.265623 6.8025,0.957125 c 1.48875,-2.16075 3.58,-3.24225 6.2725,-3.24225 5.06625,0.03538 7.58125,3.454625 7.5475,10.258749 0,2.905375 -0.7975,5.404125 -2.3925,7.494 -1.9125,2.551249 -4.60625,3.862249 -8.07875,3.932999 -1.7,0.0355 -3.63125,-0.743375 -5.79375,-2.338875 l -5.3675,5.102625 c 3.96875,3.153 7.99,4.73025 12.065,4.73025 4.99625,0 9.17625,-2.10825 12.54375,-6.3245 3.08249,-3.89775 4.62374,-8.326374 4.62374,-13.287374 0,-4.819374 -1.31125,-8.804874 -3.9325,-11.959249 -2.79999,-3.294625 -6.46749,-4.942624 -11.00249,-4.942624 -1.80875,0 -3.5275,0.247875 -5.155,0.744625 l 0.47875,-10.78975 17.32499,0 0,-7.601374 -24.66124,0 z"
   id="path27"
   inkscape:connector-curvature="0" /><path
   style="fill:#000000;fill-rule:nonzero;stroke:none"
   d="m 266.54056,79.723953 -10.9325,-15.912999 10.9325,-11.149999 -7.795,0 -10.66125,11.149999 0,-21.541748 -5.7925,0 0,37.454747 5.7925,0 0,-8.388624 3.5725,-3.573 7.90125,11.961624 6.9825,0 z"
   id="path29"
   inkscape:connector-curvature="0" /><path
   style="fill:#000000;fill-rule:nonzero;stroke:none"
   d="m 307.1343,79.723953 0,-15.479749 c 0,-4.167375 -0.32375,-6.224249 -1.3,-7.847874 -1.46,-2.70625 -4.33,-4.1675 -7.8475,-4.1675 -3.24749,0 -5.46624,1.081625 -7.41499,3.62675 -1.46125,-2.49025 -3.735,-3.681625 -6.87375,-3.681625 -2.6525,0 -4.4375,0.81175 -6.495,2.869875 l 0,-2.382875 -5.68375,0 0,27.062998 5.68375,0 0,-15.370999 c 0,-2.165625 0.27,-3.41075 1.0825,-4.4385 0.86625,-1.245125 2.3825,-2.056874 3.84375,-2.056874 1.29875,0 2.6525,0.595624 3.40875,1.678374 0.705,0.974125 0.86625,1.839625 0.86625,4.654625 l 0,15.533374 5.95375,0 0,-15.533374 c 0,-2.49025 0.1625,-3.410625 0.8125,-4.276125 0.92,-1.298875 2.435,-2.110624 3.95124,-2.110624 1.67625,0 3.03,0.811749 3.68,2.164374 0.37875,0.81175 0.4875,1.949375 0.4875,4.222375 l 0,15.533374 5.845,0 z"
   id="path31"
   inkscape:connector-curvature="0" /></svg>