<?xml version="1.0" encoding="UTF-8" standalone="no"?>
<!-- Generator: Adobe Illustrator 12.0.1, SVG Export Plug-In  -->

<svg
   xmlns:dc="http://purl.org/dc/elements/1.1/"
   xmlns:cc="http://creativecommons.org/ns#"
   xmlns:rdf="http://www.w3.org/1999/02/22-rdf-syntax-ns#"
   xmlns:svg="http://www.w3.org/2000/svg"
   xmlns="http://www.w3.org/2000/svg"
   xmlns:sodipodi="http://sodipodi.sourceforge.net/DTD/sodipodi-0.dtd"
   xmlns:inkscape="http://www.inkscape.org/namespaces/inkscape"
   version="1.1"
   width="336.61374"
   height="106.29875"
   viewBox="-0.779 0 336.61374 106.29875"
   enable-background="new -0.779 0 98 288"
   xml:space="preserve"
   id="svg2"
   inkscape:version="0.48.2 r9819"
   sodipodi:docname="AJAX9.svg"><metadata
   id="metadata36"><rdf:RDF><cc:Work
       rdf:about=""><dc:format>image/svg+xml</dc:format><dc:type
         rdf:resource="http://purl.org/dc/dcmitype/StillImage" /><dc:title></dc:title></cc:Work></rdf:RDF></metadata><sodipodi:namedview
   pagecolor="#ffffff"
   bordercolor="#666666"
   borderopacity="1"
   objecttolerance="10"
   gridtolerance="10"
   guidetolerance="10"
   inkscape:pageopacity="0"
   inkscape:pageshadow="2"
   inkscape:window-width="1280"
   inkscape:window-height="1004"
   id="namedview34"
   showgrid="false"
   fit-margin-top="0"
   fit-margin-left="0"
   fit-margin-right="0"
   fit-margin-bottom="0"
   inkscape:zoom="1.3867569"
   inkscape:cx="143.86195"
   inkscape:cy="-33.250787"
   inkscape:window-x="-8"
   inkscape:window-y="-8"
   inkscape:window-maximized="1"
   inkscape:current-layer="svg2" />
<defs
   id="defs4">
</defs>














<path
   inkscape:connector-curvature="0"
   style="fill:#ffdb00;fill-rule:nonzero;stroke:none"
   d="M -0.779,17.715999 C -0.779,7.9309119 7.1519124,-1.0712629e-6 16.937,-1.0712629e-6 l 301.1815,0 c 9.78375,0 17.71625,7.9309129712629 17.71625,17.7160000712629 l 0,70.8655 c 0,9.785125 -7.9325,17.717251 -17.71625,17.717251 l -301.1815,0 c -9.7850876,0 -17.716,-7.932126 -17.716,-17.717251 l 0,-70.8655 z"
   id="path11" /><path
   inkscape:connector-curvature="0"
   style="fill:#000000;fill-rule:nonzero;stroke:none"
   d="m 2.7634812,17.716104 c 0,-7.8271871 6.3452125,-14.1736251 14.1734998,-14.1736251 l 301.180249,0 c 7.82875,0 14.17375,6.346438 14.17375,14.1736251 l 0,70.865375 c 0,7.828375 -6.345,14.173631 -14.17375,14.173631 l -301.180249,0 c -7.8282873,0 -14.1734998,-6.345256 -14.1734998,-14.173631 l 0,-70.865375 z"
   id="path13" /><path
   inkscape:connector-curvature="0"
   style="fill:#ffdb00;fill-rule:nonzero;stroke:none"
   d="m 8.4324312,17.716039 c 0,-4.69725 3.8073248,-8.5033881 8.5045748,-8.5033881 l 301.181674,0 c 4.69625,0 8.50375,3.8061381 8.50375,8.5033881 l 0,70.865487 c 0,4.69725 -3.8075,8.504625 -8.50375,8.504625 l -301.181674,0 c -4.69725,0 -8.5045748,-3.807375 -8.5045748,-8.504625 l 0,-70.865487 z"
   id="path15" /><path
   inkscape:connector-curvature="0"
   style="fill:#000000;fill-rule:nonzero;stroke:none"
   d="m 36.417,43.671751 0,35.433375 4.889,0 0,-23.28 10.559,23.28 4.039375,0 0,-35.433375 -5.13675,0 0,20.481 -9.461625,-20.481 -4.889,0 z"
   id="path17" /><path
   inkscape:connector-curvature="0"
   style="fill:#000000;fill-rule:nonzero;stroke:none"
   d="m 63.34575,43.671751 0,35.433375 17.71725,0 0,-4.996375 -12.8625,0 0,-11.691875 7.546375,0 0,-4.85475 -7.546375,0 0,-8.894 12.294875,0 0,-4.996375 -17.149625,0 z"
   id="path19" /><path
   inkscape:connector-curvature="0"
   style="fill:#000000;fill-rule:nonzero;stroke:none"
   d="m 92.507125,60.963001 -7.618375,18.142125 5.4565,0 5.03175,-11.7285 4.81938,11.7285 5.59812,0 -7.653875,-18.142125 7.264505,-17.29125 -5.59938,0 -4.42875,10.559125 -4.57025,-10.559125 -5.315,0 7.015375,17.29125 z"
   id="path21" /><path
   inkscape:connector-curvature="0"
   style="fill:#000000;fill-rule:nonzero;stroke:none"
   d="m 109.72763,43.671751 0,4.67775 6.30738,0 0,30.755625 5.20875,0 0,-30.755625 6.201,0 0,-4.67775 -17.71713,0 z"
   id="path23" /><path
   inkscape:connector-curvature="0"
   style="fill:#000000;fill-rule:nonzero;stroke:none"
   d="m 158.58975,79.132001 8.45,0 0,-53.150625 -6.05875,0 c 0,0.850875 -0.78,1.66625 -2.3375,2.44625 -1.41875,0.708 -2.71125,1.06325 -3.88,1.06325 l 0,6.112125 3.82625,0 0,43.529 z"
   id="path25" /><path
   inkscape:connector-curvature="0"
   style="fill:#000000;fill-rule:nonzero;stroke:none"
   d="m 180.966,25.981376 -1.27625,27.266875 6.80125,0.957 c 1.48875,-2.161875 3.58,-3.243375 6.27375,-3.243375 5.06625,0.03663 7.58125,3.45575 7.54625,10.25875 0,2.90525 -0.7975,5.404 -2.39125,7.493875 -1.91375,2.55125 -4.6075,3.862375 -8.07875,3.933125 -1.70125,0.03538 -3.63125,-0.743375 -5.79375,-2.337625 l -5.36875,5.10125 c 3.96875,3.153125 7.99125,4.73025 12.06625,4.73025 4.99625,0 9.1775,-2.108125 12.54375,-6.3245 3.0825,-3.897625 4.6225,-8.326375 4.6225,-13.28725 0,-4.819375 -1.31,-8.805 -3.93125,-11.95925 -2.80125,-3.29475 -6.4675,-4.942625 -11.0025,-4.942625 -1.8075,0 -3.52625,0.24775 -5.15625,0.744625 l 0.47875,-10.789875 17.32625,0 0,-7.60125 -24.66,0 z"
   id="path27" /><path
   inkscape:connector-curvature="0"
   style="fill:#000000;fill-rule:nonzero;stroke:none"
   d="m 259.17225,79.152751 -10.9325,-15.913125 10.9325,-11.148625 -7.79375,0 -10.6625,11.148625 0,-21.54175 -5.79125,0 0,37.454875 5.79125,0 0,-8.388625 3.5725,-3.571875 7.90125,11.9605 6.9825,0 z"
   id="path29" /><path
   inkscape:connector-curvature="0"
   style="fill:#000000;fill-rule:nonzero;stroke:none"
   d="m 299.76725,79.152751 0,-15.47975 c 0,-4.1675 -0.325,-6.224375 -1.3,-7.847875 -1.46,-2.70625 -4.33,-4.1675 -7.84875,-4.1675 -3.24625,0 -5.46625,1.0815 -7.41375,3.62675 -1.46125,-2.49025 -3.73625,-3.681625 -6.87375,-3.681625 -2.65375,0 -4.43875,0.81175 -6.49625,2.869875 l 0,-2.381625 -5.68375,0 0,27.06175 5.68375,0 0,-15.371125 c 0,-2.1655 0.27125,-3.409375 1.0825,-4.4385 0.86625,-1.245 2.3825,-2.056875 3.84375,-2.056875 1.29875,0 2.6525,0.59575 3.40875,1.6785 0.705,0.974125 0.8675,1.839625 0.8675,4.6545 l 0,15.5335 5.9525,0 0,-15.5335 c 0,-2.489 0.1625,-3.410625 0.8125,-4.276125 0.92,-1.29875 2.43625,-2.1105 3.95125,-2.1105 1.6775,0 3.03125,0.81175 3.68,2.16425 0.37875,0.81175 0.4875,1.9495 0.4875,4.222375 l 0,15.5335 5.84625,0 z"
   id="path31" /></svg>