<?xml version="1.0" encoding="UTF-8" standalone="no"?>
<!-- Generator: Adobe Illustrator 12.0.1, SVG Export Plug-In  -->

<svg
   xmlns:dc="http://purl.org/dc/elements/1.1/"
   xmlns:cc="http://creativecommons.org/ns#"
   xmlns:rdf="http://www.w3.org/1999/02/22-rdf-syntax-ns#"
   xmlns:svg="http://www.w3.org/2000/svg"
   xmlns="http://www.w3.org/2000/svg"
   xmlns:sodipodi="http://sodipodi.sourceforge.net/DTD/sodipodi-0.dtd"
   xmlns:inkscape="http://www.inkscape.org/namespaces/inkscape"
   version="1.1"
   width="265.74875"
   height="265.7475"
   viewBox="-0.779 0 265.74875 265.7475"
   enable-background="new -0.779 0 98 288"
   xml:space="preserve"
   id="svg2"
   inkscape:version="0.48.2 r9819"
   sodipodi:docname="AJAX2.svg"><metadata
   id="metadata36"><rdf:RDF><cc:Work
       rdf:about=""><dc:format>image/svg+xml</dc:format><dc:type
         rdf:resource="http://purl.org/dc/dcmitype/StillImage" /><dc:title></dc:title></cc:Work></rdf:RDF></metadata><sodipodi:namedview
   pagecolor="#ffffff"
   bordercolor="#666666"
   borderopacity="1"
   objecttolerance="10"
   gridtolerance="10"
   guidetolerance="10"
   inkscape:pageopacity="0"
   inkscape:pageshadow="2"
   inkscape:window-width="1280"
   inkscape:window-height="1004"
   id="namedview34"
   showgrid="false"
   fit-margin-top="0"
   fit-margin-left="0"
   fit-margin-right="0"
   fit-margin-bottom="0"
   inkscape:zoom="1.3867569"
   inkscape:cx="216.80878"
   inkscape:cy="10.620831"
   inkscape:window-x="-8"
   inkscape:window-y="-8"
   inkscape:window-maximized="1"
   inkscape:current-layer="svg2" />
<defs
   id="defs4">
</defs>














<path
   inkscape:connector-curvature="0"
   style="fill:#ffdb00;fill-rule:nonzero;stroke:none"
   d="M -0.77900061,17.716 C -0.77900061,7.93212 7.153137,0 16.938375,0 L 247.25225,0 c 9.78625,0 17.7175,7.93212 17.7175,17.716 l 0,230.31525 c 0,9.785 -7.93125,17.71625 -17.7175,17.71625 l -230.313875,0 c -9.785238,0 -17.71737561,-7.93125 -17.71737561,-17.71625 l 0,-230.31525 z"
   id="path11" /><path
   inkscape:connector-curvature="0"
   style="fill:#000000;fill-rule:nonzero;stroke:none"
   d="m 3.8279333,17.71609 c 0,-7.24001 5.8691372,-13.11037 13.1103757,-13.11037 l 230.314631,0 c 7.24125,0 13.11125,5.87036 13.11125,13.11037 l 0,230.31463 c 0,7.24125 -5.87,13.11 -13.11125,13.11 l -230.314631,0 c -7.2412385,0 -13.1103757,-5.86875 -13.1103757,-13.11 l 0,-230.31463 z"
   id="path13" /><path
   inkscape:connector-curvature="0"
   style="fill:#ffdb00;fill-rule:nonzero;stroke:none"
   d="m 10.561334,17.71604 c 0,-3.52175 2.85525,-6.37815 6.377,-6.37815 l 230.314256,0 c 3.52375,0 6.37875,2.8564 6.37875,6.37815 l 0,230.31435 c 0,3.5225 -2.855,6.37875 -6.37875,6.37875 l -230.314256,0 c -3.52175,0 -6.377,-2.85625 -6.377,-6.37875 l 0,-230.31435 z"
   id="path15" /><path
   inkscape:connector-curvature="0"
   style="fill:#000000;fill-rule:nonzero;stroke:none"
   d="m 39.438334,44.19917 0,5.846 7.88325,0 0,38.44488 6.51125,0 0,-38.44488 7.7515,0 0,-5.846 -22.146,0 z"
   id="path17" /><path
   inkscape:connector-curvature="0"
   style="fill:#000000;fill-rule:evenodd;stroke:none"
   d="m 87.18371,66.92017 c 1.949375,-0.67875 3.529,-2.11062 4.739875,-4.29562 1.092625,-2.00813 1.63825,-4.14925 1.63825,-6.42213 0,-2.92362 -0.899625,-5.61037 -2.701375,-8.0615 -1.919,-2.627 -4.193125,-3.94175 -6.821375,-3.94175 l -14.836376,0 0,44.29088 6.110876,0 0,-20.55063 5.758,0 5.891125,20.55063 6.599125,0 -6.378125,-21.56988 z m -4.11875,-5.35887 -7.751375,0 0,-11.02913 7.795375,0 c 2.6575,0 3.98675,1.8165 3.98675,5.448 0,1.47713 -0.324625,2.732 -0.974125,3.76588 -0.7385,1.20975 -1.7565,1.81525 -3.056625,1.81525 z"
   id="path19" /><path
   inkscape:connector-curvature="0"
   style="fill:#000000;fill-rule:nonzero;stroke:none"
   d="m 115.04259,89.33105 c 3.01263,0 5.80313,-1.16575 8.37138,-3.4985 2.56875,-2.33163 3.8525,-4.91575 3.8525,-7.75025 l 0,-33.88313 -6.37675,0 0,33.484 c 0,1.59413 -0.62013,2.89425 -1.86038,3.89763 -1.123,0.9155 -2.46575,1.37325 -4.03075,1.37325 -1.50512,0 -2.8345,-0.487 -3.98562,-1.46113 -1.24025,-1.03387 -1.86038,-2.3035 -1.86038,-3.80975 l 0,-33.484 -6.245,0 0,33.88313 c 0,2.98212 1.29875,5.625 3.89763,7.92725 2.50862,2.2155 5.25512,3.3215 8.23737,3.3215 z"
   id="path21" /><path
   inkscape:connector-curvature="0"
   style="fill:#000000;fill-rule:nonzero;stroke:none"
   d="m 154.72771,76.70905 c 0,1.88962 -0.4875,3.43987 -1.46125,4.65087 -0.97375,1.21088 -2.185,1.81513 -3.63125,1.81513 -4.5775,0 -6.865,-5.9045 -6.865,-17.716 0,-3.80863 0.33875,-7.013 1.0175,-9.61188 1.0925,-4.13325 2.9675,-6.2 5.625,-6.2 1.4175,0 2.6575,0.56163 3.72125,1.68338 1.0625,1.12187 1.59375,2.31812 1.59375,3.5865 l 6.1575,0 c 0,-3.45463 -1.07875,-6.244 -3.23375,-8.37038 -2.15625,-2.15575 -4.9025,-3.23362 -8.23875,-3.23362 -8.56375,0 -12.84375,7.3815 -12.84375,22.146 0,6.73212 0.64875,11.89937 1.9475,15.50162 2.03875,5.58113 5.71375,8.37038 11.02875,8.37038 3.39625,0 6.14125,-1.12188 8.23875,-3.3655 2.09625,-2.27288 3.145,-5.35888 3.145,-9.2565 l -6.20125,0 z"
   id="path23" /><path
   inkscape:connector-curvature="0"
   style="fill:#000000;fill-rule:nonzero;stroke:none"
   d="m 168.45771,44.19917 0,44.29088 6.2,0 0,-13.86238 4.2525,-7.3975 7.35125,21.25988 6.55625,0 -9.92125,-28.523 8.77,-15.76788 -7.30875,0 -9.7,17.583 0,-17.583 -6.2,0 z"
   id="path25" /><path
   inkscape:connector-curvature="0"
   style="fill:#000000;fill-rule:nonzero;stroke:none"
   d="m 200.39146,75.6018 c 0,4.39937 1.21,7.83937 3.63125,10.31987 2.215,2.27413 5.06375,3.40938 8.54875,3.40938 3.395,0 6.23125,-1.12188 8.50375,-3.3655 2.3625,-2.362 3.54375,-5.46263 3.54375,-9.3005 0,-7.44138 -4.2525,-13.258 -12.75625,-17.45113 -2.00875,-0.97412 -3.01125,-2.68687 -3.01125,-5.138 0,-1.2695 0.56,-2.37675 1.68125,-3.3215 1.035,-0.88625 2.1725,-1.32812 3.4125,-1.32812 1.09125,0 2.14,0.57487 3.145,1.72725 1.0325,1.12187 1.54875,2.24362 1.54875,3.3655 l 6.11125,0 c 0,-3.1885 -1.0325,-5.846 -3.09875,-7.97238 -2.0375,-2.15575 -4.6075,-3.23362 -7.70625,-3.23362 -2.98375,0 -5.59625,1.01925 -7.84125,3.05662 -2.36125,2.09588 -3.5425,4.635 -3.5425,7.61838 0,1.9775 0.4275,3.85375 1.285,5.625 0.855,1.742 2.0225,3.1445 3.49875,4.20775 2.0375,1.24025 4.07375,2.47925 6.1125,3.7195 2.155,1.53562 3.6175,3.55837 4.385,6.06812 0.32375,1.06325 0.4875,2.0825 0.4875,3.05663 0,1.88962 -0.5325,3.46925 -1.59625,4.73875 -1.0325,1.2695 -2.42,1.88962 -4.1625,1.86037 -2.09625,-0.0293 -3.6025,-0.66412 -4.5175,-1.90425 -0.88625,-1.24025 -1.34375,-3.1605 -1.37375,-5.75812 l -6.28875,0 z"
   id="path27" /><path
   inkscape:connector-curvature="0"
   style="fill:#000000;fill-rule:nonzero;stroke:none"
   d="m 35.274459,155.93968 c 3.01275,0 5.80325,-1.165 8.371625,-3.49875 2.5695,-2.3325 3.85375,-4.915 3.85375,-7.75 l 0,-33.88401 -6.37825,0 0,33.48526 c 0,1.59375 -0.620125,2.8925 -1.86025,3.8975 -1.121875,0.915 -2.465875,1.37375 -4.03075,1.37375 -1.50525,0 -2.8345,-0.4875 -3.985625,-1.46125 -1.24025,-1.03375 -1.860375,-2.30375 -1.860375,-3.81 l 0,-33.48526 -6.245125,0 0,33.88401 c 0,2.9825 1.298875,5.625 3.89775,7.9275 2.50975,2.21375 5.25625,3.32125 8.23725,3.32125 z"
   id="path29" /><path
   inkscape:connector-curvature="0"
   style="fill:#000000;fill-rule:nonzero;stroke:none"
   d="m 56.800334,142.21092 c 0,4.39876 1.211,7.83876 3.631625,10.32001 2.214375,2.27375 5.064625,3.40875 8.548625,3.40875 3.395875,0 6.230376,-1.12125 8.504626,-3.365 2.362,-2.36251 3.542375,-5.4625 3.542375,-9.30251 0,-7.44 -4.251625,-13.25625 -12.756251,-17.45 -2.008125,-0.975 -3.0115,-2.68612 -3.0115,-5.13737 0,-1.2695 0.5615,-2.37663 1.683375,-3.3215 1.032625,-0.88625 2.170375,-1.32938 3.410625,-1.32938 1.0925,0 2.139875,0.57625 3.1445,1.7285 1.034001,1.12188 1.550251,2.24363 1.550251,3.3655 l 6.112125,0 c 0,-3.1885 -1.034,-5.84587 -3.100625,-7.97237 -2.037375,-2.15575 -4.605626,-3.23363 -7.706251,-3.23363 -2.98225,0 -5.59575,1.01925 -7.839375,3.05663 -2.36325,2.09587 -3.54375,4.635 -3.54375,7.61837 0,1.9775 0.4285,3.8525 1.28425,5.624 0.85575,1.7425 2.022625,3.145 3.49975,4.2075 2.036125,1.24 4.07475,2.48 6.112,3.72125 2.154625,1.535 3.617,3.5575 4.384751,6.0675 0.32475,1.06375 0.487125,2.0825 0.487125,3.055 0,1.89126 -0.53225,3.47126 -1.594251,4.74001 -1.033875,1.27 -2.421875,1.89 -4.16375,1.86125 -2.096,-0.03 -3.602375,-0.66625 -4.517875,-1.905 -0.885,-1.24 -1.344,-3.16 -1.372125,-5.75751 l -6.29025,0 z"
   id="path31" /><path
   inkscape:connector-curvature="0"
   style="fill:#000000;fill-rule:nonzero;stroke:none"
   d="m 90.50646,110.80692 0,44.29151 22.14475,0 0,-6.245 -16.077875,0 0,-14.61501 9.433505,0 0,-6.06875 -9.433505,0 0,-11.1165 15.368625,0 0,-6.24625 -21.4355,0 z"
   id="path33" /><path
   inkscape:connector-curvature="0"
   style="fill:#000000;fill-rule:nonzero;stroke:none"
   d="m 144.80521,110.80692 0,44.29151 22.14625,0 0,-5.845 -15.855,0 0,-38.44651 -6.29125,0 z"
   id="path35" /><path
   inkscape:connector-curvature="0"
   style="fill:#000000;fill-rule:evenodd;stroke:none"
   d="m 187.36896,155.93968 c 4.31125,0 7.56,-2.06625 9.745,-6.2 2.0375,-3.92625 3.055,-9.53751 3.055,-16.83126 0,-15.323 -4.23625,-22.9865 -12.71125,-22.9865 -8.68125,0 -13.02125,7.6635 -13.02125,22.9865 0,15.35626 4.31125,23.03126 12.9325,23.03126 z m 0,-6.37625 c -2.51,0 -4.295,-1.61 -5.35875,-4.82875 -0.85625,-2.62751 -1.28375,-6.57001 -1.28375,-11.82626 0,-11.219 2.21375,-16.8305 6.6425,-16.8305 4.4,0 6.6,5.6115 6.6,16.8305 0,11.10376 -2.2,16.65501 -6.6,16.65501 z"
   id="path37" /><path
   inkscape:connector-curvature="0"
   style="fill:#000000;fill-rule:nonzero;stroke:none"
   d="m 207.69896,110.80692 7.175,44.29151 5.2275,0 4.33875,-22.67626 4.25375,22.67626 5.49125,0 6.7325,-44.29151 -6.33375,0 -3.41,23.4315 -4.2075,-23.4315 -5.18375,0 -4.1625,23.03275 -3.67625,-23.03275 -6.245,0 z"
   id="path39" /><path
   inkscape:connector-curvature="0"
   style="fill:#000000;fill-rule:nonzero;stroke:none"
   d="m 89.621335,188.00843 6.421,0 c 0,-3.19 -1.165875,-5.89125 -3.498625,-8.10625 -2.303375,-2.24375 -5.04875,-3.365 -8.2385,-3.365 -5.04875,0 -8.577875,2.745 -10.585876,8.2375 -1.3575,3.66125 -2.036125,8.79874 -2.036125,15.41375 0,5.905 0.708,10.6875 2.125251,14.35 2.095875,5.345 5.595625,8.01625 10.49675,8.01625 2.45125,0 4.650875,-0.60501 6.599125,-1.81626 1.7725,-1.0925 3.056625,-2.47875 3.85375,-4.1625 0.797125,-1.7125 1.196375,-4.25125 1.196375,-7.61875 l 0,-8.76874 -11.339125,0 0,6.3775 5.314875,0 0,5.005 c 0,1.24 -0.620125,2.3625 -1.860375,3.365 -1.209625,1.005 -2.4645,1.5075 -3.764625,1.5075 -4.193125,0 -6.289,-5.04875 -6.289,-15.14876 l 0,-2.6575 c 0,-10.51249 2.095875,-15.76749 6.289,-15.76749 1.62475,0 2.909,0.45749 3.85375,1.37375 0.974125,0.88625 1.462375,2.14124 1.462375,3.765 z"
   id="path41" /><path
   inkscape:connector-curvature="0"
   style="fill:#000000;fill-rule:nonzero;stroke:none"
   d="m 105.38796,177.42217 0,44.29 22.146,0 0,-6.24374 -16.07787,0 0,-14.61625 9.43362,0 0,-6.06875 -9.43362,0 0,-11.11626 15.36912,0 0,-6.245 -21.43725,0 z"
   id="path43" /><path
   inkscape:connector-curvature="0"
   style="fill:#000000;fill-rule:evenodd;stroke:none"
   d="m 143.25646,203.28843 3.10125,-11.915 3.14375,11.915 -6.245,0 z m -10.58625,18.42374 6.4225,0 2.9675,-12.31125 9.03625,0 3.1875,12.31125 6.335,0 -11.1175,-44.29 -6.245,0 -10.58625,44.29 z"
   id="path45" /><path
   inkscape:connector-curvature="0"
   style="fill:#000000;fill-rule:evenodd;stroke:none"
   d="m 185.99771,200.14342 c 1.94875,-0.67875 3.52875,-2.11124 4.73875,-4.29624 1.0925,-2.00626 1.63875,-4.14751 1.63875,-6.42251 0,-2.92374 -0.90125,-5.60999 -2.70125,-8.06125 -1.92,-2.62625 -4.19375,-3.94125 -6.82125,-3.94125 l -14.8375,0 0,44.29 6.11125,0 0,-20.54999 5.75875,0 5.89,20.54999 6.6,0 -6.3775,-21.56875 z m -4.11875,-5.35999 -7.7525,0 0,-11.0275 7.79625,0 c 2.6575,0 3.98625,1.815 3.98625,5.44874 0,1.475 -0.32625,2.73 -0.975,3.76376 -0.7375,1.20999 -1.75625,1.815 -3.055,1.815 z"
   id="path47" /></svg>