<?xml version="1.0" encoding="UTF-8" standalone="no"?>
<!-- Created with Inkscape (http://www.inkscape.org/) -->

<svg
   xmlns:dc="http://purl.org/dc/elements/1.1/"
   xmlns:cc="http://creativecommons.org/ns#"
   xmlns:rdf="http://www.w3.org/1999/02/22-rdf-syntax-ns#"
   xmlns:svg="http://www.w3.org/2000/svg"
   xmlns="http://www.w3.org/2000/svg"
   xmlns:sodipodi="http://sodipodi.sourceforge.net/DTD/sodipodi-0.dtd"
   xmlns:inkscape="http://www.inkscape.org/namespaces/inkscape"
   width="360.62756"
   height="360.6127"
   id="svg2"
   sodipodi:version="0.32"
   inkscape:version="0.48.2 r9819"
   version="1.0"
   sodipodi:docname="AJAX.svg"
   inkscape:output_extension="org.inkscape.output.svg.inkscape">
  <defs
     id="defs4">
    <inkscape:perspective
       sodipodi:type="inkscape:persp3d"
       inkscape:vp_x="0 : 300.5 : 1"
       inkscape:vp_y="0 : 1000 : 0"
       inkscape:vp_z="601 : 300.5 : 1"
       inkscape:persp3d-origin="300.5 : 200.33333 : 1"
       id="perspective3380" />
    <inkscape:perspective
       id="perspective3990"
       inkscape:persp3d-origin="375 : 250 : 1"
       inkscape:vp_z="750 : 375 : 1"
       inkscape:vp_y="0 : 1000 : 0"
       inkscape:vp_x="0 : 375 : 1"
       sodipodi:type="inkscape:persp3d" />
  </defs>
  <sodipodi:namedview
     id="base"
     pagecolor="#ffffff"
     bordercolor="#666666"
     borderopacity="1.0"
     gridtolerance="10000"
     guidetolerance="10"
     objecttolerance="10"
     inkscape:pageopacity="0.0"
     inkscape:pageshadow="2"
     inkscape:zoom="1.0529557"
     inkscape:cx="39.877064"
     inkscape:cy="22.513491"
     inkscape:document-units="px"
     inkscape:current-layer="layer1"
     width="601px"
     height="601px"
     inkscape:window-width="1280"
     inkscape:window-height="1004"
     inkscape:window-x="-8"
     inkscape:window-y="-8"
     showgrid="false"
     fit-margin-top="0"
     fit-margin-left="0"
     fit-margin-right="0"
     fit-margin-bottom="0"
     inkscape:window-maximized="1"
     showguides="true"
     inkscape:guide-bbox="true" />
  <metadata
     id="metadata7">
    <rdf:RDF>
      <cc:Work
         rdf:about="">
        <dc:format>image/svg+xml</dc:format>
        <dc:type
           rdf:resource="http://purl.org/dc/dcmitype/StillImage" />
      </cc:Work>
    </rdf:RDF>
  </metadata>
  <g
     inkscape:label="Layer 1"
     inkscape:groupmode="layer"
     id="layer1"
     transform="translate(-128.89806,-151.2029)">
    <rect
       style="color:#000000;fill:#000000;fill-opacity:1;fill-rule:nonzero;stroke:none;stroke-width:0.8735441;marker:none;visibility:visible;display:inline;overflow:visible"
       id="rect3653"
       width="0"
       height="27.202072"
       x="578.73834"
       y="298.1684"
       rx="249.48199"
       ry="27.202072" />
    <path
       inkscape:connector-curvature="0"
       style="fill:#ffdb00;fill-rule:nonzero;stroke:none"
       d="m 484.15107,318.53246 c 7.16625,7.1675 7.16625,18.7875 -10e-4,25.95375 l -161.965,161.95375 c -7.16625,7.1675 -18.7875,7.1675 -25.95375,0 L 134.27404,344.48621 c -7.16797,-7.16625 -7.16797,-18.78625 0,-25.95375 l 161.96453,-161.9545 c 7.16625,-7.16675 18.7875,-7.16675 25.95375,0 l 161.95875,161.9545 z"
       id="path11" />
    <path
       inkscape:connector-curvature="0"
       style="fill:#000000;fill-rule:nonzero;stroke:none"
       d="m 137.08285,341.04337 c -5.12085,-5.12 -5.12085,-13.42 -0.001,-18.54 l 162.8564,-162.85412 c 5.12,-5.11963 13.42125,-5.11963 18.54125,0 L 481.342,322.50337 c 5.11875,5.12 5.11875,13.42 0,18.54 L 318.48325,503.89712 c -5.11875,5.12 -13.42125,5.12 -18.54125,0 L 137.08285,341.04337 z"
       id="path13" />
    <path
       inkscape:connector-curvature="0"
       style="fill:#ffdb00;fill-rule:nonzero;stroke:none"
       d="m 141.44325,336.18952 c -2.49149,-2.49125 -2.49149,-6.52875 0,-9.02 L 304.30176,164.316 c 2.49,-2.49023 6.5275,-2.49023 9.02,0 l 162.86,162.85352 c 2.49125,2.49125 2.49125,6.52875 0,9.02 l -162.8575,162.85375 c -2.49125,2.49125 -6.52875,2.49125 -9.02,0 L 141.44325,336.18952 z"
       id="path15" />
    <path
       inkscape:connector-curvature="0"
       style="fill:#000000;fill-rule:nonzero;stroke:none"
       d="m 291.49624,246.61575 -16.7875,6.515 c -3.61499,1.4965 -7.75875,-0.21975 -9.25624,-3.83425 -0.7975,-1.92512 -0.6825,-3.999 0.14374,-5.74462 l 43.615,-67.80275 43.61625,67.80275 c 0.82625,1.74562 0.94125,3.8195 0.14375,5.74462 -1.4975,3.6145 -5.64125,5.33075 -9.25625,3.83425 l -16.7875,-6.515 0,35.4325 -35.43125,0 0,-35.4325 z"
       id="path17" />
    <path
       inkscape:connector-curvature="0"
       style="fill:#000000;fill-rule:nonzero;stroke:none"
       d="m 326.92624,415.277 16.7875,-6.515 c 3.615,-1.4975 7.75875,0.21875 9.25625,3.83375 0.7975,1.92375 0.68375,3.99875 -0.1425,5.745 l -43.6175,67.8025 -43.615,-67.8025 c -0.82624,-1.74625 -0.94124,-3.82125 -0.14375,-5.745 1.4975,-3.615 5.64125,-5.33125 9.25625,-3.83375 l 16.7875,6.515 0,-35.43375 35.43125,0 0,35.43375 z"
       id="path19" />
    <path
       inkscape:connector-curvature="0"
       style="fill:#000000;fill-rule:nonzero;stroke:none"
       d="m 182.83362,310.24325 9.85837,3.3975 c 1.55513,-4.3525 4.86325,-6.5275 9.9255,-6.5275 2.0435,0 4.04175,0.9325 5.99613,2.7975 1.99825,1.82 2.99687,3.84125 2.99687,6.06125 0,4.53 -2.10937,6.79625 -6.32812,6.79625 l -2.732,0 0,10.19125 2.732,0 c 1.99825,0 4.0185,1.0875 6.062,3.26375 2.04337,2.17625 3.06512,4.3525 3.06512,6.5275 0,0.66625 -0.0902,1.2 -0.2685,1.6 0,2.53125 -1.42087,5.0175 -4.26275,7.46 -2.79662,2.39875 -5.4175,3.59625 -7.86012,3.59625 -2.5305,0 -4.97313,-1.02 -7.32788,-3.0625 -2.3535,-2.04375 -3.81837,-4.5975 -4.39575,-7.66125 l -10.32462,2.33125 c 3.95137,12.34625 11.81151,18.51875 23.58025,18.51875 5.19662,0 9.99275,-2.265 14.3885,-6.795 4.39687,-4.57375 6.59537,-9.61375 6.59537,-15.12125 0,-3.02 -0.57737,-6.105 -1.73212,-9.25875 -1.10963,-3.1975 -2.57575,-5.55125 -4.39575,-7.06125 2.3975,-1.42125 3.59613,-5.3075 3.59613,-11.6575 0,-4.62 -2.04213,-8.99375 -6.12912,-13.1225 -4.0845,-4.13125 -8.50338,-6.195 -13.25563,-6.195 -4.66301,0 -8.70475,1.19875 -12.12401,3.5975 -3.37399,2.3975 -5.92899,5.84 -7.65987,10.32375 z"
       id="path21" />
    <path
       inkscape:connector-curvature="0"
       style="fill:#000000;fill-rule:evenodd;stroke:none"
       d="m 297.115,322.4995 c -2.3975,0 -4.5075,-0.73125 -6.32875,-2.1975 -1.82,-1.465 -2.73,-3.19625 -2.73,-5.195 0,-2.62125 1.13124,-4.685 3.39625,-6.19625 1.73125,-1.19875 3.59625,-1.7975 5.595,-1.7975 2.71,0 4.885,0.62125 6.53,1.865 1.865,1.42 2.79625,3.4625 2.79625,6.12875 0,2.08625 -0.8875,3.84 -2.66375,5.26125 -1.7325,1.42125 -3.93,2.13125 -6.595,2.13125 z m 0.3325,32.50875 c -3.06375,0 -5.8175,-1.13125 -8.26,-3.3975 -2.3975,-2.265 -3.59625,-4.8175 -3.59625,-7.66 0,-2.93125 1.355,-5.52875 4.06376,-7.795 2.44249,-1.9975 4.83999,-2.9975 7.19374,-2.9975 3.375,0 6.28375,0.9775 8.72625,2.93125 2.57624,2.1325 3.86374,4.81875 3.86374,8.06 0,3.065 -1.2,5.64 -3.59749,7.72875 -2.3975,2.08625 -5.19624,3.13 -8.39375,3.13 z M 311.23749,327.097 c 3.59625,-2.88625 5.395,-7.03875 5.395,-12.4575 0,-5.10625 -1.8425,-9.43625 -5.52875,-12.98875 -3.68624,-3.5525 -8.36999,-5.32875 -14.05625,-5.32875 -5.28499,0 -9.81374,1.8425 -13.58874,5.52875 -3.775,3.68625 -5.66126,8.015 -5.66126,12.98875 0,2.93125 0.51,5.39625 1.53125,7.39375 0.84375,1.645 2.265,3.39875 4.26251,5.26375 -5.59376,3.73125 -8.39251,8.8825 -8.39251,15.45375 0,6.085 2.2425,11.36875 6.72876,15.855 4.52875,4.485 9.7025,6.7275 15.52,6.7275 6.795,0 12.23499,-2.11 16.32124,-6.32875 3.99626,-4.085 5.99501,-9.5025 5.99501,-16.25375 0,-5.95 -2.8425,-11.235 -8.52626,-15.85375 z"
       id="path23" />
    <path
       inkscape:connector-curvature="0"
       style="fill:#000000;fill-rule:nonzero;stroke:none"
       d="m 332.01999,313.907 9.92626,2.465 c 0.8,-3.02 2.2875,-5.3725 4.4625,-7.06125 2.17624,-1.73125 4.62,-2.59875 7.32874,-2.59875 3.15251,0 5.9725,0.93375 8.46001,2.79875 2.66374,1.99875 3.99625,4.53 3.99625,7.595 0,2.26375 -1.0875,4.2625 -3.26376,5.995 -1.42124,1.11 -3.68624,2.30875 -6.79499,3.59625 -3.10876,1.245 -4.95,2.06625 -5.5275,2.465 -12.52501,8.92625 -18.78625,20.6275 -18.78625,35.105 l 44.565,0 0,-10.8575 -32.575,0 c 2.17624,-4.39625 4.2625,-7.795 6.26125,-10.1925 2.04375,-2.3975 4.44125,-4.37375 7.19499,-5.92875 2.70876,-1.11 6.48377,-2.93 11.32376,-5.4625 1.7325,-1.1975 3.33124,-2.9075 4.79625,-5.12875 1.99875,-3.10875 2.99875,-6.35125 2.99875,-9.725 0,-6.75 -2.3325,-11.96875 -6.995,-15.65375 -4.21876,-3.33125 -9.66,-4.99625 -16.32125,-4.99625 -4.84,0 -9.34625,1.70875 -13.52126,5.12875 -4.35249,3.50875 -6.86249,7.66125 -7.52875,12.45625 z"
       id="path25" />
    <path
       inkscape:connector-curvature="0"
       style="fill:#000000;fill-rule:nonzero;stroke:none"
       d="m 244.58537,330.94575 c 0,-2.93625 2.37913,-5.315 5.31488,-5.315 2.936,0 5.31475,2.37875 5.31475,5.315 0,2.935 -2.37875,5.315 -5.31475,5.315 -2.93575,0 -5.31488,-2.38 -5.31488,-5.315 z"
       id="path27" />
    <path
       inkscape:connector-curvature="0"
       style="fill:#000000;fill-rule:nonzero;stroke:none"
       d="m 417.58874,334.00075 c 2.92376,-2.7825 6.0125,-4.175 9.26876,-4.175 1.745,0 3.32499,0.3075 4.74124,0.92125 2.40375,0.99 4.24375,2.475 5.51875,4.45625 l 0.14126,0.21375 0.28249,0.7775 0.14125,0.2125 0.6375,2.40625 c 0.0475,0.47125 0.07,0.92 0.07,1.34375 0.0475,0.3775 0.0713,0.73125 0.0713,1.0625 l 0,22.78125 -7.35874,0 0,-1.83875 0,-8.6325 0,-10.5425 -0.14126,-1.1325 -0.14125,-0.99125 c -0.095,-0.23375 -0.19,-0.4475 -0.28375,-0.635 -0.0937,-0.23625 -0.165,-0.4725 -0.21249,-0.70875 -1.22626,-1.93375 -2.66501,-2.9 -4.315,-2.9 -1.03876,0 -2.14626,0.35375 -3.32626,1.06125 -1.18,0.895 -2.05125,1.91 -2.6175,3.0425 l -0.28375,1.55625 0,21.72125 -7.5,0 0,-10.32875 0,-11.53375 -0.14124,-1.1325 -0.21251,-0.42375 0,-0.425 c -0.18875,-0.3775 -0.35374,-0.7075 -0.495,-0.99125 -0.14124,-0.28125 -0.25875,-0.5425 -0.3525,-0.7775 -1.13374,-1.085 -2.43125,-1.65125 -3.8925,-1.69875 -2.68875,0.3775 -4.62375,1.67375 -5.80124,3.8925 l -0.21376,0.7775 -0.07,1.41625 c 0.0475,0.0462 0.07,0.32875 0.07,0.8475 l 0,20.3775 -7.71125,0 0,-12.38125 0,-15.92 0,-5.4475 7.71125,0 0,2.47625 c 2.31126,-1.69875 4.695,-2.69 7.1475,-2.97125 4.05625,0 7.145,1.415 9.26875,4.24375 z"
       id="path29" />
  </g>
</svg>
