<?xml version="1.0" encoding="UTF-8" standalone="no"?>
<!-- Created with Inkscape (http://www.inkscape.org/) -->

<svg
   xmlns:dc="http://purl.org/dc/elements/1.1/"
   xmlns:cc="http://creativecommons.org/ns#"
   xmlns:rdf="http://www.w3.org/1999/02/22-rdf-syntax-ns#"
   xmlns:svg="http://www.w3.org/2000/svg"
   xmlns="http://www.w3.org/2000/svg"
   xmlns:sodipodi="http://sodipodi.sourceforge.net/DTD/sodipodi-0.dtd"
   xmlns:inkscape="http://www.inkscape.org/namespaces/inkscape"
   id="svg17624"
   version="1.1"
   inkscape:version="0.48.2 r9819"
   width="345.04001"
   height="241.28999"
   xml:space="preserve"
   sodipodi:docname="AA.svg"><metadata
     id="metadata17630"><rdf:RDF><cc:Work
         rdf:about=""><dc:format>image/svg+xml</dc:format><dc:type
           rdf:resource="http://purl.org/dc/dcmitype/StillImage" /><dc:title /></cc:Work></rdf:RDF></metadata><defs
     id="defs17628"><inkscape:perspective
       sodipodi:type="inkscape:persp3d"
       inkscape:vp_x="0 : 0.5 : 1"
       inkscape:vp_y="0 : 1000 : 0"
       inkscape:vp_z="1 : 0.5 : 1"
       inkscape:persp3d-origin="0.5 : 0.33333333 : 1"
       id="perspective17632" /><clipPath
       clipPathUnits="userSpaceOnUse"
       id="clipPath17642"><path
         d="m -2,710 501,0 0,-711 -501,0 0,711 z"
         id="path17644"
         inkscape:connector-curvature="0" /></clipPath><clipPath
       clipPathUnits="userSpaceOnUse"
       id="clipPath17648"><path
         d="m 0,708.06 498,0 0,-708 -498,0 0,708 z"
         id="path17650"
         inkscape:connector-curvature="0" /></clipPath><clipPath
       clipPathUnits="userSpaceOnUse"
       id="clipPath17798"><path
         d="m -2,710 501,0 0,-711 -501,0 0,711 z"
         id="path17800"
         inkscape:connector-curvature="0" /></clipPath><clipPath
       clipPathUnits="userSpaceOnUse"
       id="clipPath17804"><path
         d="m 0,708.06 498,0 0,-708 -498,0 0,708 z"
         id="path17806"
         inkscape:connector-curvature="0" /></clipPath><clipPath
       id="Clip0"><path
         inkscape:connector-curvature="0"
         d="m 0,0 212.597,0 0,269.292 L 0,269.292 0,0 z"
         transform="translate(0.923828,0.879883)"
         id="path7" /></clipPath></defs><sodipodi:namedview
     pagecolor="#ffffff"
     bordercolor="#666666"
     borderopacity="1"
     objecttolerance="10"
     gridtolerance="10"
     guidetolerance="10"
     inkscape:pageopacity="0"
     inkscape:pageshadow="2"
     inkscape:window-width="1280"
     inkscape:window-height="1004"
     id="namedview17626"
     showgrid="false"
     inkscape:zoom="1.4158115"
     inkscape:cx="260.56317"
     inkscape:cy="303.73805"
     inkscape:window-x="-8"
     inkscape:window-y="-8"
     inkscape:window-maximized="1"
     inkscape:current-layer="g17634"
     fit-margin-top="0.02"
     fit-margin-left="0.02"
     fit-margin-right="0.02"
     fit-margin-bottom="0.02"
     showguides="true"
     inkscape:guide-bbox="true" /><g
     id="g17634"
     inkscape:groupmode="layer"
     inkscape:label="GG1999P002"
     transform="matrix(1.25,0,0,-1.25,162.79344,115.3325)"><path
       inkscape:connector-curvature="0"
       style="fill:#ffffff;stroke:#000000;stroke-width:1.60000002;stroke-linecap:butt;stroke-linejoin:miter;stroke-miterlimit:4;stroke-opacity:1;stroke-dasharray:none"
       d="m -129.13675,-50.566407 245.486,141.729005 28.347,-49.0967 -245.4864,-141.730303 -28.3466,49.097998 z"
       id="path11" /><path
       inkscape:connector-curvature="0"
       style="fill:#ffffff;fill-rule:nonzero;stroke:#000000;stroke-width:1.60000002;stroke-linecap:butt;stroke-linejoin:miter;stroke-miterlimit:4;stroke-opacity:1;stroke-dasharray:none"
       d="m -100.78714,91.166498 245.4863,-141.736001 -28.345,-49.097998 -245.487,141.736299 28.3457,49.0977 z"
       id="path13" /><path
       inkscape:connector-curvature="0"
       style="fill:#000000;fill-rule:nonzero;stroke:none"
       d="m -73.368209,53.731918 5.9697,-0.6973 c 0.5157,5.5791 -1.6601,9.7745 -6.5263,12.584 -4.0362,2.3301 -8.1953,2.0557 -12.4776,-0.8252 -3.3164,-2.2168 -6.2363,-5.5361 -8.7588,-9.956 -2.5742,-4.5078 -3.8457,-8.7774 -3.8173,-12.8096 0.0566,-4.8916 2.125,-8.5146 6.206,-10.8701 2.3779,-1.374 4.8799,-1.8291 7.5039,-1.3652 2.4766,0.4609 4.7744,1.6943 6.8926,3.7002 l -4.1123,3.9892 c -0.9629,-0.8115 -2.2354,-1.3271 -3.8174,-1.5488 -1.5605,-0.2334 -2.8213,-0.0733 -3.7812,0.4814 -2.4219,1.3985 -3.4551,3.8418 -3.0996,7.3321 0.2841,2.6582 1.207,5.3398 2.7695,8.0459 1.8144,3.1425 3.706,5.5117 5.6758,7.1093 2.9453,2.4307 5.7715,2.8653 8.4775,1.3028 1.2002,-0.6924 2.0117,-1.5547 2.4356,-2.584 0.4355,-1.0088 0.5888,-2.3047 0.4599,-3.8887 z"
       id="path15" /><path
       inkscape:connector-curvature="0"
       style="fill:#000000;fill-rule:evenodd;stroke:none"
       d="m -55.746109,47.441918 6.874,-3.9688 c 1.0684,-0.6172 1.8037,-1.5361 2.2051,-2.7568 0.4219,-1.2334 0.3437,-2.3516 -0.2354,-3.3555 -0.6172,-1.0693 -1.5498,-1.8262 -2.7949,-2.2705 -1.3369,-0.4502 -2.539,-0.3672 -3.6084,0.251 l -7.0703,4.082 4.6299,8.0186 z m -2.0274,7.9785 -18.8964,-32.7315 4.9746,-2.872 8.2763,14.3359 6.3174,-3.6475 -2.9746,-17.3974 5.3027,-3.0615 3.0606,18.832 c 4.4609,0.2178 7.6357,1.9629 9.5254,5.2353 1.4238,2.4659 1.792,5.1202 1.1045,7.961 -0.6524,2.8496 -2.169,4.9609 -4.5469,6.3349 l -12.1436,7.0108 z"
       id="path17" /><path
       inkscape:connector-curvature="0"
       style="fill:#000000;fill-rule:evenodd;stroke:none"
       d="m -37.752005,-0.6098822 c 4.211,-2.4316 8.311804,-2.3848 12.300806,0.1416 3.122,1.9795 6.094,5.4131 8.916,10.3018 2.86,4.9531002 4.213,9.5400002 4.06,13.7597002 -0.162,4.4571 -2.04201,7.7256 -5.64301,9.8047 -7.68099,4.4346 -14.789996,0.9893 -21.329096,-10.3359 -3.3379,-5.7822 -4.7764,-10.7422 -4.3135,-14.8789002 0.4268,-3.7969 2.4297,-6.7266 6.0088,-8.793 z m 2.9854,5.1709 c -4.2764,2.4697 -4.1348,7.6533002 0.4258,15.5527002 2.3808,4.125 4.658204,6.8096 6.832606,8.0567 2.059,1.1973 4.168,1.1719 6.32799,-0.0752 4.05901,-2.3438 3.84001,-7.4102 -0.65799,-15.2002 -2.39301,-4.1465002 -4.646,-6.8897002 -6.758,-8.2305002 -2.040506,-1.2656 -4.097206,-1.3008 -6.170406,-0.1035 z"
       id="path19" /><path
       inkscape:connector-curvature="0"
       style="fill:#000000;fill-rule:nonzero;stroke:none"
       d="m -15.581209,-2.1957822 c -0.559,-2.93459 -0.107,-5.9311 1.358,-8.9880998 1.356,-2.79 3.092,-4.797 5.2099995,-6.019 3.185,-1.84 6.293,-2.326 9.32600004,-1.457 3.03299996,0.867 5.44899996,2.862 7.25099996,5.982 1.184,2.05 1.664,4.2169998 1.44,6.4997098 -0.228,2.0234 -0.985,3.98819 -2.271,5.89449 -0.58,0.8584 -1.634,1.8301 -3.161,2.915 -1.719,1.2549 -2.78599996,2.1035 -3.19999996,2.5469 -0.541,0.5742 -0.869,1.3164 -0.984,2.2256 -0.102,0.9326 0.055,1.7578 0.471,2.4785 0.655,1.1348002 1.72399996,1.9287002 3.20799996,2.3809002 1.518,0.4619 2.875,0.3183 4.071,-0.4307 2.538,-1.5527 3.5300005,-3.6387002 2.9770005,-6.2578002 l 5.695,-1.3233 c 0.486,3.0069 0.32,5.5166 -0.495,7.5303002 -0.795,2 -2.316,3.6494 -4.564,4.9473 -2.7710005,1.6006 -5.6740005,2.04 -8.7090005,1.3193 -3.184,-0.7793 -5.653,-2.6865 -7.404,-5.7197 -1.437,-2.4873002 -1.71,-4.9775002 -0.82,-7.4688002 0.802,-2.2382 1.949,-3.9043 3.441,-4.999 2.91900004,-2.1504 4.731,-4.0263 5.436,-5.62599 0.644,-1.5058 0.461,-3.13171 -0.546,-4.8777098 -0.643,-1.112 -1.74299996,-1.86 -3.301,-2.24 -1.524,-0.372 -2.809,-0.255 -3.857,0.35 -1.898,1.096 -3.191,2.308 -3.879,3.6359998 -0.667,1.31631 -0.928,3.1552 -0.787,5.5165 l -5.9059995,1.1846 z"
       id="path21" /><path
       inkscape:connector-curvature="0"
       style="fill:#000000;fill-rule:nonzero;stroke:none"
       d="m 12.273791,-18.277872 c -0.56,-2.936 -0.108,-5.932 1.357,-8.988 1.356,-2.79 3.093,-4.797 5.21,-6.019 3.186,-1.840005 6.294,-2.326005 9.326,-1.458005 3.033,0.867005 5.449,2.863005 7.251,5.983005 1.185,2.05 1.664,4.217 1.441,6.5 -0.229,2.023 -0.986,3.987 -2.272,5.893 -0.581,0.86 -1.634,1.831 -3.16,2.916 -1.721,1.255 -2.786,2.104 -3.2,2.546 -0.541,0.574 -0.869,1.3159998 -0.985,2.2269998 -0.101,0.9313 0.055,1.7575 0.471,2.4782 0.655,1.1347 1.725,1.9277 3.208,2.3808 1.518,0.4619 2.875,0.3184 4.071,-0.4316 2.538,-1.5518 3.53,-3.6377 2.978,-6.2563998 l 5.694,-1.325 c 0.487,3.0079998 0.321,5.5178998 -0.496,7.5315998 -0.794,2 -2.314,3.6494 -4.562,4.9473 -2.772,1.5996 -5.674,2.039 -8.709,1.3193 -3.185,-0.7793 -5.654,-2.6865 -7.405,-5.7197 -1.436,-2.4873 -1.71,-4.9775 -0.82,-7.4684998 0.803,-2.239 1.949,-3.905 3.441,-4.999 2.919,-2.151 4.732,-4.027 5.437,-5.626 0.644,-1.506 0.461,-3.133 -0.547,-4.878 -0.642,-1.114 -1.742,-1.86 -3.301,-2.24 -1.523,-0.372 -2.808,-0.255 -3.856,0.349 -1.899,1.097 -3.192,2.309 -3.88,3.637 -0.666,1.315 -0.928,3.154 -0.786,5.516 l -5.906,1.185 z"
       id="path23" /><path
       inkscape:connector-curvature="0"
       style="fill:#000000;fill-rule:nonzero;stroke:none"
       d="m 37.037791,-42.962887 5.139,-2.966 18.897,32.731005 -5.139,2.967 -18.897,-32.732005 z"
       id="path25" /><path
       inkscape:connector-curvature="0"
       style="fill:#000000;fill-rule:nonzero;stroke:none"
       d="m 68.732791,-17.619882 -18.898,-32.731005 5.073,-2.93 12.208,21.145005 0.23,-28.326005 4.387,-2.532 18.896,32.732005 -5.171,2.985 -12.303,-21.308005 -0.135,28.490005 -4.287,2.475 z"
       id="path27" /><path
       inkscape:connector-curvature="0"
       style="fill:#000000;fill-rule:nonzero;stroke:none"
       d="m 109.80179,-52.461887 5.757,-1.141 c 0.433,2.717 0.151,5.251 -0.848,7.602 -0.986,2.374 -2.57,4.191 -4.753,5.451 -7.702,4.447 -14.979999,0.735 -21.833999,-11.135 -2.545,-4.408 -3.804,-8.554 -3.777,-12.439 0.035,-4.675 2.028,-8.153 5.977,-10.434 2.75,-1.587 5.728,-1.998 8.935,-1.231 3.218999,0.788 5.608999,2.536 7.171999,5.242 l 3.949,6.841 -10.636999,6.142 -2.986,-5.172 5.563999,-3.212 -1.209,-2.095 c -0.516,-0.894 -1.566999,-1.554 -3.149999,-1.978 -1.767,-0.492 -3.285,-0.373 -4.551,0.357 -2.335,1.348 -3.399,3.534 -3.195,6.559 0.161,2.497 1.136,5.294 2.925,8.392 2.054,3.557 3.903,6.083 5.551,7.575 2.711999,2.478 5.430999,2.93 8.158999,1.356 1.221,-0.706 2.063,-1.642 2.523,-2.81 0.349,-0.958 0.492,-2.248 0.428,-3.87 z"
       id="path29" /><path
       inkscape:connector-curvature="0"
       style="fill:#000000;fill-rule:nonzero;stroke:none"
       d="m 35.808791,33.752418 24.2,-29.6699002 3.862,2.2295 -6.468,18.6103002 12.818,-14.9443002 4.058,2.3438002 -13.922,35.6035 -4.681,-2.7022 7.478,-18.7705 -13.108,15.5205 -3.829,-2.2119 6.75,-18.7959 -12.544,15.4512 -4.614,-2.6641 z"
       id="path31" /><path
       inkscape:connector-curvature="0"
       style="fill:#000000;fill-rule:evenodd;stroke:none"
       d="m 82.849791,35.424318 -2.793,10.1279 7.408,-7.4638 -4.615,-2.6641 z m 0.039,-18.1328 4.745,2.7402 -3.061,10.3653 6.677,3.8554 7.612,-7.7392 4.679999,2.7031 -27.113999,27.9873 -4.615,-2.6641 11.076,-37.248 z"
       id="path33" /><path
       inkscape:connector-curvature="0"
       style="fill:#000000;fill-rule:nonzero;stroke:none"
       d="m 88.243791,64.025918 18.468999,-13.1661 8.579,-14.8603 4.812,2.7783 -8.579,14.8604 -2.627,22.3125 -4.943,-2.8536 1.49,-14.6767 -12.094999,8.5537 -5.106,-2.9482 z"
       id="path35" /><path
       inkscape:connector-curvature="0"
       style="fill:#000000;fill-rule:evenodd;stroke:none"
       d="m -87.518609,-59.837887 c 1.1514,1.333 1.7071,3.065 1.669,5.197 -0.0489,1.95 -0.5586,3.764 -1.5283,5.445 -1.2481,2.16 -3.0596,3.762 -5.4366,4.805 -2.539,1.123 -4.7802,1.124 -6.7226,0.003 l -10.964901,-6.3302 18.898501,-32.732 4.5166,2.608 -8.7686,15.186 4.2549,2.457 13.1221,-12.674 4.8769,2.816 -13.917,13.219 z m -5.3301,2.203 -5.7285,-3.307 -4.705001,8.15 5.760701,3.327 c 1.9639,1.133 3.7207,0.358 5.2705,-2.327 0.6299,-1.09 0.9248,-2.156 0.8857,-3.197 -0.0283,-1.21 -0.5234,-2.092 -1.4834,-2.646 z"
       id="path37" /><path
       inkscape:connector-curvature="0"
       style="fill:#000000;fill-rule:evenodd;stroke:none"
       d="m -68.370109,-51.881887 -2.793,10.127 7.4082,-7.462 -4.6152,-2.665 z m 0.039,-18.132 4.7451,2.74 -3.0605,10.365 6.6768,3.855 7.6113,-7.739 4.6806,2.703 -27.1142,27.988005 -4.6152,-2.664 11.0761,-37.248005 z"
       id="path39" /><path
       inkscape:connector-curvature="0"
       style="fill:#000000;fill-rule:nonzero;stroke:none"
       d="m -42.540109,-55.123887 4.583,2.646 -18.8984,32.731005 -4.582,-2.645 18.8974,-32.732005 z"
       id="path41" /><path
       inkscape:connector-curvature="0"
       style="fill:#000000;fill-rule:nonzero;stroke:none"
       d="m -49.884809,-15.720882 18.8985,-32.732005 16.3661,9.448 -2.495,4.321 -11.718,-6.766 -16.4031,28.411005 -4.6485,-2.682 z"
       id="path43" /></g></svg>