<?xml version="1.0" encoding="UTF-8" standalone="no"?>
<!-- Generator: Adobe Illustrator 13.0.1, SVG Export Plug-In . SVG Version: 6.00 Build 14948)  -->

<svg
   xmlns:dc="http://purl.org/dc/elements/1.1/"
   xmlns:cc="http://creativecommons.org/ns#"
   xmlns:rdf="http://www.w3.org/1999/02/22-rdf-syntax-ns#"
   xmlns:svg="http://www.w3.org/2000/svg"
   xmlns="http://www.w3.org/2000/svg"
   xmlns:sodipodi="http://sodipodi.sourceforge.net/DTD/sodipodi-0.dtd"
   xmlns:inkscape="http://www.inkscape.org/namespaces/inkscape"
   version="1.1"
   id="Layer_1"
   x="0px"
   y="0px"
   width="265.74875"
   height="177.16499"
   viewBox="0 0 265.74876 177.16501"
   enable-background="new 0 0 300 250"
   xml:space="preserve"
   inkscape:version="0.48.2 r9819"
   sodipodi:docname="AJAX2.svg"><metadata
   id="metadata94"><rdf:RDF><cc:Work
       rdf:about=""><dc:format>image/svg+xml</dc:format><dc:type
         rdf:resource="http://purl.org/dc/dcmitype/StillImage" /><dc:title></dc:title></cc:Work></rdf:RDF></metadata><defs
   id="defs92" /><sodipodi:namedview
   pagecolor="#ffffff"
   bordercolor="#666666"
   borderopacity="1"
   objecttolerance="10"
   gridtolerance="10"
   guidetolerance="10"
   inkscape:pageopacity="0"
   inkscape:pageshadow="2"
   inkscape:window-width="1280"
   inkscape:window-height="1004"
   id="namedview90"
   showgrid="false"
   fit-margin-top="0"
   fit-margin-left="0"
   fit-margin-right="0"
   fit-margin-bottom="0"
   inkscape:zoom="1.3350176"
   inkscape:cx="-45.554319"
   inkscape:cy="109.03096"
   inkscape:window-x="-8"
   inkscape:window-y="-8"
   inkscape:window-maximized="1"
   inkscape:current-layer="Layer_1" />















<path
   inkscape:connector-curvature="0"
   style="fill:#ffdb00;fill-rule:nonzero;stroke:none"
   d="M -6.9251082e-6,17.71612 C -6.9251082e-6,7.93214 7.9321186,0 17.715994,0 L 248.03251,0 c 9.78375,0 17.71625,7.93214 17.71625,17.71612 l 0,141.73139 c 0,9.785 -7.9325,17.7175 -17.71625,17.7175 l -230.316516,0 c -9.7838754,0 -17.7160009251082,-7.9325 -17.7160009251082,-17.7175 l 0,-141.73139 z"
   id="path11" /><path
   inkscape:connector-curvature="0"
   style="fill:#000000;fill-rule:nonzero;stroke:none"
   d="m 3.5436908,17.71607 c 0,-7.82715 6.3452134,-14.17237 14.1736262,-14.17237 l 230.315143,0 c 7.8275,0 14.1725,6.34522 14.1725,14.17237 l 0,141.73264 c 0,7.82875 -6.345,14.17375 -14.1725,14.17375 l -230.315143,0 c -7.8284128,0 -14.1736262,-6.345 -14.1736262,-14.17375 l 0,-141.73264 z"
   id="path13" /><path
   inkscape:connector-curvature="0"
   style="fill:#ffdb00;fill-rule:nonzero;stroke:none"
   d="m 9.2126412,17.7161 c 0,-4.69613 3.8074128,-8.50345 8.5034128,-8.50345 l 230.316606,0 c 4.69625,0 8.50375,3.80732 8.50375,8.50345 l 0,141.73156 c 0,4.6975 -3.8075,8.505 -8.50375,8.505 l -230.316606,0 c -4.696,0 -8.5034128,-3.8075 -8.5034128,-8.505 l 0,-141.73156 z"
   id="path15" /><path
   style="fill:#000000;fill-rule:evenodd;stroke:none"
   d="m 52.530558,78.178725 c 1.743125,0 3.070001,-0.264875 3.978251,-0.797125 l 1.816375,2.745376 3.9355,-2.529376 -1.94575,-2.7465 c 1.600375,-1.081625 2.868625,-3.634 3.806125,-7.656251 0.86425,-3.632875 1.297626,-7.63425 1.297626,-12.002001 0,-15.355251 -4.296876,-23.032252 -12.888127,-23.032252 -4.786375,0 -8.18125,2.054501 -10.185626,6.163376 -1.773625,3.60475 -2.659875,9.22725 -2.659875,16.867626 0,7.713626 0.930125,13.379001 2.78925,16.997127 2.033751,3.994125 5.384626,5.99 10.056251,5.99 z m 0.129375,-6.420875 c -0.2015,0.05738 -0.496875,0.08662 -0.88625,0.08662 -2.119125,0 -3.712125,-1.665 -4.779,-4.996376 -0.922875,-2.927245 -1.384375,-6.812745 -1.384375,-11.656496 0,-11.101001 2.307125,-16.652751 6.92025,-16.652751 4.483626,0 6.724751,5.57975 6.724751,16.739501 0,3.013875 -0.129375,5.406501 -0.388125,7.180126 -0.361375,2.537875 -1.075375,4.837625 -2.141125,6.899501 l -2.552501,-4.195626 -4.2175,2.702625 2.703875,3.892876 z"
   id="path17"
   inkscape:connector-curvature="0" /><path
   style="fill:#000000;fill-rule:nonzero;stroke:none"
   d="m 87.989562,78.178725 c 3.015125,0 5.805625,-1.167 8.37275,-3.50225 2.567126,-2.336375 3.851378,-4.917 3.851378,-7.742876 l 0,-33.886753 -6.381878,0 0,33.477878 c 0,1.60025 -0.620125,2.905251 -1.860375,3.913501 -1.110875,0.909375 -2.452375,1.3635 -4.024625,1.3635 -1.50025,0 -2.827126,-0.490625 -3.980751,-1.470875 -1.24025,-1.02425 -1.860375,-2.292501 -1.860375,-3.806126 l 0,-33.477878 -6.252375,0 0,33.886753 c 0,2.984626 1.297625,5.622501 3.894,7.915001 2.50975,2.2205 5.256375,3.330125 8.242251,3.330125 z"
   id="path19"
   inkscape:connector-curvature="0" /><path
   style="fill:#000000;fill-rule:nonzero;stroke:none"
   d="m 109.27856,33.046846 0,44.290754 22.146,0 0,-6.25 -16.06812,0 0,-14.619127 9.42874,0 0,-6.055875 -9.42874,0 0,-11.115751 15.35562,0 0,-6.250001 -21.4335,0 z"
   id="path21"
   inkscape:connector-curvature="0" /><path
   style="fill:#000000;fill-rule:nonzero;stroke:none"
   d="m 150.88207,78.178725 c 3.01625,0 5.80625,-1.167 8.37375,-3.50225 2.56625,-2.336375 3.85125,-4.917 3.85125,-7.742876 l 0,-33.886753 -6.3825,0 0,33.477878 c 0,1.60025 -0.62,2.905251 -1.86,3.913501 -1.11125,0.909375 -2.4525,1.3635 -4.025,1.3635 -1.5,0 -2.82625,-0.490625 -3.98,-1.470875 -1.24125,-1.02425 -1.86125,-2.292501 -1.86125,-3.806126 l 0,-33.477878 -6.25251,0 0,33.886753 c 0,2.984626 1.29875,5.622501 3.895,7.915001 2.50876,2.2205 5.25751,3.330125 8.24126,3.330125 z"
   id="path23"
   inkscape:connector-curvature="0" /><path
   style="fill:#000000;fill-rule:nonzero;stroke:none"
   d="m 172.17207,33.046846 0,44.290754 22.145,0 0,-6.25 -16.0675,0 0,-14.619127 9.42875,0 0,-6.055875 -9.42875,0 0,-11.115751 15.355,0 0,-6.250001 -21.4325,0 z"
   id="path25"
   inkscape:connector-curvature="0" /><path
   style="fill:#000000;fill-rule:evenodd;stroke:none"
   d="m 211.47707,33.046846 -10.06,0 0,44.290754 10.06,0 c 5.61125,0 9.5125,-2.198375 11.705,-6.595375 1.73125,-3.490001 2.595,-9.069876 2.595,-16.739502 0,-6.530751 -0.9425,-11.477126 -2.8325,-14.835251 -2.29375,-4.08075 -6.11625,-6.120626 -11.4675,-6.120626 z m -0.21625,6.120626 c 3.39,0 5.69,1.521 6.9025,4.563 0.82125,2.089875 1.2325,5.557876 1.2325,10.401626 l 0,2.5305 c 0,4.542251 -0.3675,7.815001 -1.10375,9.819376 -1.12375,3.070001 -3.28125,4.605626 -6.46875,4.605626 l -4.24,0 0,-31.920128 3.6775,0 z"
   id="path27"
   inkscape:connector-curvature="0" /><path
   style="fill:#000000;fill-rule:nonzero;stroke:none"
   d="m 29.237056,143.95311 5.125751,0 10.903251,-44.292508 -6.381751,0 -6.987376,28.310008 -7.181376,-28.310008 -6.46725,0 10.988751,44.292508 z"
   id="path29"
   inkscape:connector-curvature="0" /><path
   style="fill:#000000;fill-rule:nonzero;stroke:none"
   d="m 53.326433,99.660602 0,44.292508 22.144752,0 0,-6.25 -16.068126,0 0,-14.62088 9.428751,0 0,-6.05463 -9.428751,0 0,-11.117 15.355251,0 0,-6.249998 -21.431877,0 z"
   id="path31"
   inkscape:connector-curvature="0" /><path
   style="fill:#000000;fill-rule:nonzero;stroke:none"
   d="m 83.012686,99.660602 0,44.292508 6.295126,0 0,-20.114 12.180248,0 0,20.114 5.885,0 0,-44.292508 -5.885,0 0,17.928498 -12.180248,0 0,-17.928498 -6.295126,0 z"
   id="path33"
   inkscape:connector-curvature="0" /><path
   style="fill:#000000;fill-rule:nonzero;stroke:none"
   d="m 116.70168,143.95311 6.20112,0 0,-44.292508 -6.20112,0 0,44.292508 z"
   id="path35"
   inkscape:connector-curvature="0" /><path
   style="fill:#000000;fill-rule:nonzero;stroke:none"
   d="m 150.26457,132.16561 c 0,1.88875 -0.49,3.43875 -1.47,4.65 -0.9675,1.21 -2.17875,1.81625 -3.635,1.81625 -4.57251,0 -6.85751,-5.90375 -6.85751,-17.71138 0,-3.80625 0.3375,-7.00813 1.015,-9.60338 1.09625,-4.13687 2.97125,-6.206 5.62501,-6.206 1.41375,0 2.655,0.5615 3.7225,1.687 1.0675,1.12425 1.6,2.3205 1.6,3.58888 l 6.14375,0 c 0,-3.4595 -1.07375,-6.27075 -3.2225,-8.43388 -2.16375,-2.119123 -4.91125,-3.178623 -8.24375,-3.178623 -8.56626,0 -12.85001,7.381503 -12.85001,22.144753 0,6.73263 0.65,11.90013 1.9475,15.50513 2.03375,5.58 5.71125,8.36875 11.03376,8.36875 3.40375,0 6.15125,-1.13875 8.2425,-3.41625 2.09125,-2.23375 3.13625,-5.305 3.13625,-9.21125 l -6.1875,0 z"
   id="path37"
   inkscape:connector-curvature="0" /><path
   style="fill:#000000;fill-rule:nonzero;stroke:none"
   d="m 163.84957,99.660602 0,44.292508 22.14625,0 0,-5.84 -15.8525,0 0,-38.452508 -6.29375,0 z"
   id="path39"
   inkscape:connector-curvature="0" /><path
   style="fill:#000000;fill-rule:nonzero;stroke:none"
   d="m 193.61082,99.660602 0,44.292508 22.145,0 0,-6.25 -16.06875,0 0,-14.62088 9.42875,0 0,-6.05463 -9.42875,0 0,-11.117 15.35625,0 0,-6.249998 -21.4325,0 z"
   id="path41"
   inkscape:connector-curvature="0" /><path
   style="fill:#000000;fill-rule:nonzero;stroke:none"
   d="m 223.20832,131.06311 c 0,4.39625 1.21125,7.835 3.635,10.31375 2.22,2.2775 5.07,3.41625 8.545,3.41625 3.40375,0 6.2375,-1.12375 8.5025,-3.37375 2.365,-2.36375 3.54875,-5.46375 3.54875,-9.29875 0,-7.43925 -4.25625,-13.25588 -12.765,-17.45263 -2.005,-0.96563 -3.0075,-2.67338 -3.0075,-5.1245 0,-1.26838 0.56375,-2.378 1.6875,-3.33013 1.03875,-0.88012 2.1775,-1.3195 3.4175,-1.3195 1.0825,0 2.1425,0.55538 3.18125,1.665 1.01,1.1535 1.51375,2.2925 1.51375,3.418 l 6.10125,0 c 0,-3.18612 -1.01625,-5.86062 -3.05,-8.02375 -2.0625,-2.119123 -4.64375,-3.178623 -7.745,-3.178623 -2.985,0 -5.6025,1.01675 -7.85375,3.049253 -2.365,2.10575 -3.5475,4.64962 -3.5475,7.63425 0,1.97512 0.4325,3.8355 1.2975,5.57987 0.85125,1.77363 2.02,3.186 3.505,4.23825 2.03375,1.24025 4.0675,2.4805 6.10125,3.71951 2.1625,1.543 3.62625,3.56875 4.39125,6.0775 0.31625,1.06625 0.475,2.0825 0.475,3.04875 0,1.89 -0.51125,3.4675 -1.535,4.7375 -1.0375,1.23875 -2.41625,1.85875 -4.1325,1.85875 -0.0275,0 -0.0575,0 -0.0863,0 -2.09125,-0.0288 -3.5875,-0.6625 -4.48875,-1.9025 -0.90125,-1.24125 -1.36625,-3.15875 -1.395,-5.7525 l -6.29625,0 z"
   id="path43"
   inkscape:connector-curvature="0" /></svg>