<?xml version="1.0" encoding="UTF-8" standalone="no"?>
<!-- Created with Inkscape (http://www.inkscape.org/) -->

<svg
   xmlns:dc="http://purl.org/dc/elements/1.1/"
   xmlns:cc="http://creativecommons.org/ns#"
   xmlns:rdf="http://www.w3.org/1999/02/22-rdf-syntax-ns#"
   xmlns:svg="http://www.w3.org/2000/svg"
   xmlns="http://www.w3.org/2000/svg"
   xmlns:sodipodi="http://sodipodi.sourceforge.net/DTD/sodipodi-0.dtd"
   xmlns:inkscape="http://www.inkscape.org/namespaces/inkscape"
   id="svg17624"
   version="1.1"
   inkscape:version="0.48.2 r9819"
   width="360.62769"
   height="360.61176"
   xml:space="preserve"
   sodipodi:docname="AA7.svg"><metadata
     id="metadata17630"><rdf:RDF><cc:Work
         rdf:about=""><dc:format>image/svg+xml</dc:format><dc:type
           rdf:resource="http://purl.org/dc/dcmitype/StillImage" /><dc:title></dc:title></cc:Work></rdf:RDF></metadata><defs
     id="defs17628"><inkscape:perspective
       sodipodi:type="inkscape:persp3d"
       inkscape:vp_x="0 : 0.5 : 1"
       inkscape:vp_y="0 : 1000 : 0"
       inkscape:vp_z="1 : 0.5 : 1"
       inkscape:persp3d-origin="0.5 : 0.33333333 : 1"
       id="perspective17632" /><clipPath
       clipPathUnits="userSpaceOnUse"
       id="clipPath17642"><path
         d="m -2,710 501,0 0,-711 -501,0 0,711 z"
         id="path17644"
         inkscape:connector-curvature="0" /></clipPath><clipPath
       clipPathUnits="userSpaceOnUse"
       id="clipPath17648"><path
         d="m 0,708.06 498,0 0,-708 -498,0 0,708 z"
         id="path17650"
         inkscape:connector-curvature="0" /></clipPath><clipPath
       clipPathUnits="userSpaceOnUse"
       id="clipPath17798"><path
         d="m -2,710 501,0 0,-711 -501,0 0,711 z"
         id="path17800"
         inkscape:connector-curvature="0" /></clipPath><clipPath
       clipPathUnits="userSpaceOnUse"
       id="clipPath17804"><path
         d="m 0,708.06 498,0 0,-708 -498,0 0,708 z"
         id="path17806"
         inkscape:connector-curvature="0" /></clipPath><clipPath
       id="Clip0"><path
         inkscape:connector-curvature="0"
         d="m 0,0 212.597,0 0,269.292 L 0,269.292 0,0 z"
         transform="translate(0.923828,0.879883)"
         id="path7" /></clipPath><clipPath
       id="Clip0-8"><path
         inkscape:connector-curvature="0"
         d="m 0,0 170.079,0 0,113.386 L 0,113.386 0,0 z"
         transform="translate(0.0986328,0.822266)"
         id="path7-8" /></clipPath><clipPath
       id="Clip0-1"><path
         inkscape:connector-curvature="0"
         d="m 0,0 287.009,0 0,159.449 L 0,159.449 0,0 z"
         transform="translate(0.396484,0.267578)"
         id="path7-7" /></clipPath><clipPath
       id="Clip0-9"><path
         inkscape:connector-curvature="0"
         d="m 0,0 170.079,0 0,170.079 L 0,170.079 0,0 z"
         transform="translate(0.460938,0.775391)"
         id="path7-4" /></clipPath><clipPath
       id="Clip0-4"><path
         inkscape:connector-curvature="0"
         d="m 0,0 340.157,0 0,226.771 L 0,226.771 0,0 z"
         transform="translate(0.921875,0.25293)"
         id="path7-5" /></clipPath><clipPath
       id="Clip0-5"><path
         inkscape:connector-curvature="0"
         d="m 0,0 255.119,0 0,170.079 L 0,170.079 0,0 z"
         transform="translate(0.147461,0.0595703)"
         id="path7-1" /></clipPath><clipPath
       id="Clip0-0"><path
         inkscape:connector-curvature="0"
         d="m 0,0 170.079,0 0,113.386 L 0,113.386 0,0 z"
         transform="translate(0.0673828,0.207031)"
         id="path7-9" /></clipPath></defs><sodipodi:namedview
     pagecolor="#ffffff"
     bordercolor="#666666"
     borderopacity="1"
     objecttolerance="10"
     gridtolerance="10"
     guidetolerance="10"
     inkscape:pageopacity="0"
     inkscape:pageshadow="2"
     inkscape:window-width="1280"
     inkscape:window-height="1004"
     id="namedview17626"
     showgrid="false"
     inkscape:zoom="1.4142136"
     inkscape:cx="94.652938"
     inkscape:cy="135.87453"
     inkscape:window-x="-8"
     inkscape:window-y="-8"
     inkscape:window-maximized="1"
     inkscape:current-layer="g17634"
     fit-margin-top="0"
     fit-margin-left="0"
     fit-margin-right="0"
     fit-margin-bottom="0"
     showguides="true"
     inkscape:guide-bbox="true" /><g
     id="g17634"
     inkscape:groupmode="layer"
     inkscape:label="GG1999P002"
     transform="matrix(1.25,0,0,-1.25,2888.6039,-1112.7887)"><path
       inkscape:connector-curvature="0"
       style="fill:#ffdb00;fill-rule:nonzero;stroke:none"
       d="m -2026.6815,-1024.0946 c 5.734,-5.733 5.734,-15.03 0,-20.763 l -129.572,-129.563 c -5.734,-5.733 -15.03,-5.733 -20.763,0 l -129.5666,129.563 c -5.7334,5.733 -5.7334,15.03 0,20.763 l 129.5706,129.56361 c 5.734,5.7334 15.031,5.7334 20.764,0 l 129.566,-129.56361 z"
       id="path11" /><path
       inkscape:connector-curvature="0"
       style="fill:#000000;fill-rule:nonzero;stroke:none"
       d="m -2304.3361,-1042.1033 c -4.0957,4.096 -4.0957,10.736 0,14.832 l 130.2853,130.28328 c 4.096,4.0957 10.737,4.0957 14.833,0 l 130.289,-130.28328 c 4.096,-4.096 4.096,-10.736 0,-14.832 l -130.286,-130.283 c -4.096,-4.096 -10.737,-4.096 -14.833,0 l -130.2883,130.283 z"
       id="path13" /><path
       inkscape:connector-curvature="0"
       style="fill:#ffdb00;fill-rule:nonzero;stroke:none"
       d="m -2300.5275,-1038.1333 c -1.9922,1.993 -1.9922,5.223 0,7.215 l 130.2858,130.28381 c 1.992,1.99217 5.224,1.99217 7.216,0 l 130.289,-130.28381 c 1.992,-1.992 1.992,-5.222 0,-7.215 l -130.286,-130.284 c -1.993,-1.992 -5.224,-1.992 -7.216,0 l -130.2888,130.284 z"
       id="path15" /><path
       inkscape:connector-curvature="0"
       style="fill:#c0111e;fill-opacity:1;fill-rule:nonzero;stroke:none"
       d="m -2246.4279,-1034.0261 c 0,44.071 35.7255,79.7959 79.7955,79.7959 44.0715,0 79.7965,-35.7249 79.7965,-79.7959 0,-44.0701 -35.725,-79.7951 -79.7965,-79.7951 -44.07,0 -79.7955,35.725 -79.7955,79.7951 z"
       id="path17-9" /><path
       inkscape:connector-curvature="0"
       style="fill:#ffffff;fill-rule:nonzero;stroke:none"
       d="m -2219.8293,-1034.0261 c 0,-29.38 23.8179,-53.1958 53.1969,-53.1958 29.381,0 53.1981,23.8158 53.1981,53.1958 0,29.381 -23.8171,53.1972 -53.1981,53.1972 -29.379,0 -53.1969,-23.8162 -53.1969,-53.1972 z"
       id="path19" /><path
       inkscape:connector-curvature="0"
       style="fill:#000000;fill-rule:evenodd;stroke:none"
       d="m -2190.3554,-1027.1251 c -1.915,0 -3.601,0.585 -5.055,1.755 -1.454,1.171 -2.182,2.555 -2.182,4.151 0,2.092 0.905,3.741 2.714,4.948 1.383,0.958 2.873,1.435 4.469,1.435 2.163,0 3.901,-0.496 5.214,-1.489 1.49,-1.135 2.234,-2.765 2.234,-4.894 0,-1.667 -0.708,-3.069 -2.128,-4.204 -1.382,-1.134 -3.138,-1.702 -5.266,-1.702 z m 0.265,-25.964 c -2.447,0 -4.646,0.905 -6.597,2.713 -1.915,1.81 -2.873,3.849 -2.873,6.12 0,2.34 1.083,4.415 3.246,6.224 1.951,1.597 3.866,2.395 5.746,2.395 2.695,0 5.018,-0.781 6.97,-2.342 2.056,-1.702 3.086,-3.848 3.086,-6.438 0,-2.447 -0.958,-4.504 -2.874,-6.172 -1.915,-1.666 -4.15,-2.5 -6.704,-2.5 z m 11.013,22.293 c 2.873,2.305 4.311,5.623 4.311,9.949 0,4.079 -1.472,7.537 -4.417,10.375 -2.944,2.838 -6.686,4.256 -11.226,4.256 -4.221,0 -7.838,-1.472 -10.853,-4.415 -3.015,-2.945 -4.523,-6.403 -4.523,-10.375 0,-2.341 0.408,-4.31 1.225,-5.906 0.674,-1.313 1.808,-2.714 3.404,-4.204 -4.469,-2.979 -6.703,-7.094 -6.703,-12.343 0,-4.859 1.791,-9.08 5.373,-12.663 3.618,-3.581 7.75,-5.372 12.396,-5.372 5.427,0 9.772,1.685 13.036,5.054 3.192,3.263 4.788,7.59 4.788,12.981 0,4.753 -2.27,8.974 -6.811,12.663 z"
       id="path21" /><path
       inkscape:connector-curvature="0"
       style="fill:#000000;fill-rule:evenodd;stroke:none"
       d="m -2144.1224,-1061.4941 c 12.414,0 18.622,9.203 18.622,27.613 0,18.443 -6.208,27.665 -18.622,27.665 -12.414,0 -18.621,-9.222 -18.621,-27.665 0,-18.41 6.207,-27.613 18.621,-27.613 z m 0,8.139 c -6.917,0 -10.374,6.491 -10.374,19.474 0,12.981 3.457,19.472 10.374,19.472 6.881,0 10.321,-6.491 10.321,-19.472 0,-12.983 -3.44,-19.474 -10.321,-19.474 z"
       id="path23" /></g></svg>