<?xml version="1.0" encoding="UTF-8" standalone="no"?>
<!-- Created with Inkscape (http://www.inkscape.org/) -->

<svg
   xmlns:dc="http://purl.org/dc/elements/1.1/"
   xmlns:cc="http://creativecommons.org/ns#"
   xmlns:rdf="http://www.w3.org/1999/02/22-rdf-syntax-ns#"
   xmlns:svg="http://www.w3.org/2000/svg"
   xmlns="http://www.w3.org/2000/svg"
   xmlns:sodipodi="http://sodipodi.sourceforge.net/DTD/sodipodi-0.dtd"
   xmlns:inkscape="http://www.inkscape.org/namespaces/inkscape"
   width="360.62726"
   height="360.61176"
   id="svg2"
   sodipodi:version="0.32"
   inkscape:version="0.48.2 r9819"
   version="1.0"
   sodipodi:docname="AJAX.svg"
   inkscape:output_extension="org.inkscape.output.svg.inkscape">
  <defs
     id="defs4">
    <inkscape:perspective
       sodipodi:type="inkscape:persp3d"
       inkscape:vp_x="0 : 300.5 : 1"
       inkscape:vp_y="0 : 1000 : 0"
       inkscape:vp_z="601 : 300.5 : 1"
       inkscape:persp3d-origin="300.5 : 200.33333 : 1"
       id="perspective3380" />
    <inkscape:perspective
       id="perspective3990"
       inkscape:persp3d-origin="375 : 250 : 1"
       inkscape:vp_z="750 : 375 : 1"
       inkscape:vp_y="0 : 1000 : 0"
       inkscape:vp_x="0 : 375 : 1"
       sodipodi:type="inkscape:persp3d" />
  </defs>
  <sodipodi:namedview
     id="base"
     pagecolor="#ffffff"
     bordercolor="#666666"
     borderopacity="1.0"
     gridtolerance="10000"
     guidetolerance="10"
     objecttolerance="10"
     inkscape:pageopacity="0.0"
     inkscape:pageshadow="2"
     inkscape:zoom="1.0529557"
     inkscape:cx="222.0632"
     inkscape:cy="-36.190165"
     inkscape:document-units="px"
     inkscape:current-layer="layer1"
     width="601px"
     height="601px"
     inkscape:window-width="1280"
     inkscape:window-height="1004"
     inkscape:window-x="-8"
     inkscape:window-y="-8"
     showgrid="false"
     fit-margin-top="0"
     fit-margin-left="0"
     fit-margin-right="0"
     fit-margin-bottom="0"
     inkscape:window-maximized="1"
     showguides="true"
     inkscape:guide-bbox="true" />
  <metadata
     id="metadata7">
    <rdf:RDF>
      <cc:Work
         rdf:about="">
        <dc:format>image/svg+xml</dc:format>
        <dc:type
           rdf:resource="http://purl.org/dc/dcmitype/StillImage" />
        <dc:title></dc:title>
      </cc:Work>
    </rdf:RDF>
  </metadata>
  <g
     inkscape:label="Layer 1"
     inkscape:groupmode="layer"
     id="layer1"
     transform="translate(-123.02993,874.55373)">
    <rect
       style="color:#000000;fill:#000000;fill-opacity:1;fill-rule:nonzero;stroke:none;stroke-width:0.8735441;marker:none;visibility:visible;display:inline;overflow:visible"
       id="rect3653"
       width="0"
       height="27.202072"
       x="578.73834"
       y="298.1684"
       rx="249.48199"
       ry="27.202072" />
    <path
       inkscape:connector-curvature="0"
       style="fill:#ffdb00;fill-rule:nonzero;stroke:none"
       d="m 478.28169,-707.22542 c 7.1675,7.1675 7.1675,18.7875 -0.001,25.95375 l -161.96375,161.955 c -7.16625,7.16625 -18.7875,7.16625 -25.955,0 l -161.95603,-161.955 c -7.16797,-7.16625 -7.16797,-18.78625 0,-25.95375 l 161.96328,-161.95325 c 7.1675,-7.16675 18.78875,-7.16675 25.955,0 l 161.9575,161.95325 z"
       id="path11" />
    <path
       inkscape:connector-curvature="0"
       style="fill:#000000;fill-rule:nonzero;stroke:none"
       d="m 131.21231,-684.97836 c -5.11963,-5.11875 -5.12085,-13.41875 0,-18.53875 l 162.8579,-162.84662 c 5.12,-5.11963 13.42125,-5.11963 18.54,0 l 162.865,162.84662 c 5.12,5.12 5.12125,13.42 0,18.53875 l -162.8575,162.8475 c -5.12,5.11875 -13.42,5.11875 -18.54,0 l -162.8654,-162.8475 z"
       id="path13" />
    <path
       inkscape:connector-curvature="0"
       style="fill:#ffdb00;fill-rule:nonzero;stroke:none"
       d="m 135.97308,-689.73694 c -2.49148,-2.49125 -2.49148,-6.53 0,-9.02 L 298.8291,-861.60427 c 2.49125,-2.49017 6.52875,-2.49017 9.02125,0 l 162.86375,162.84733 c 2.49125,2.49 2.49125,6.52875 0,9.02 l -162.8575,162.84625 c -2.49125,2.49 -6.52875,2.49 -9.02,0 L 135.97308,-689.73694 z"
       id="path15" />
    <path
       inkscape:connector-curvature="0"
       style="fill:#000000;fill-rule:evenodd;stroke:none"
       d="m 321.0447,-658.28926 0,88.05125 -35.4325,0 0,-53.14875 34.90875,-34.91 0.52375,0.007 z m 1.83375,-47.73937 12.02625,12.02625 -7.7675,7.76562 -12.02625,-12.02562 -15.785,15.78437 12.02625,12.0275 -7.76625,7.765 -12.0275,-12.02625 -15.78375,15.78625 12.0275,12.02625 -7.7675,7.7675 -12.02625,-12.02625 -15.785,15.78375 12.02625,12.02625 -7.7675,7.7675 -12.0265,-12.02625 -15.78488,15.785 -7.76612,-7.76625 15.78362,-15.78625 -12.02624,-12.025 7.76724,-7.7675 12.02638,12.025 15.78525,-15.78375 -12.02625,-12.0275 7.7675,-7.76625 12.02625,12.0275 15.785,-15.78625 -12.0275,-12.02562 7.76625,-7.7675 12.02625,12.02562 15.785,-15.78312 -12.02625,-12.0275 7.7675,-7.76625 12.02625,12.02625 15.785,-15.78375 -12.02625,-12.02625 7.76625,-7.7675 12.0275,12.02625 15.78375,-15.78513 -12.02625,-12.02637 7.7675,-7.76738 12.02625,12.02638 15.785,-15.78363 7.7675,7.76613 -15.785,15.78487 12.02625,12.02638 -7.7675,7.7675 -12.02625,-12.02625 -15.785,15.785 12.02625,12.02625 -7.76625,7.76624 -12.02625,-12.02624 -15.785,15.78499 z m -37.26,-24.18875 0,-88.05063 35.4325,0 0,53.14813 -34.90875,34.91 -0.52375,-0.008 z"
       id="path17" />
  </g>
</svg>
