<?xml version="1.0" encoding="UTF-8" standalone="no"?>
<!-- Created with Inkscape (http://www.inkscape.org/) -->

<svg
   xmlns:dc="http://purl.org/dc/elements/1.1/"
   xmlns:cc="http://creativecommons.org/ns#"
   xmlns:rdf="http://www.w3.org/1999/02/22-rdf-syntax-ns#"
   xmlns:svg="http://www.w3.org/2000/svg"
   xmlns="http://www.w3.org/2000/svg"
   xmlns:sodipodi="http://sodipodi.sourceforge.net/DTD/sodipodi-0.dtd"
   xmlns:inkscape="http://www.inkscape.org/namespaces/inkscape"
   width="265.74875"
   height="177.16624"
   id="svg2"
   sodipodi:version="0.32"
   inkscape:version="0.48.2 r9819"
   version="1.0"
   sodipodi:docname="AJAX2.svg"
   inkscape:output_extension="org.inkscape.output.svg.inkscape">
  <defs
     id="defs4">
    <inkscape:perspective
       sodipodi:type="inkscape:persp3d"
       inkscape:vp_x="0 : 300.5 : 1"
       inkscape:vp_y="0 : 1000 : 0"
       inkscape:vp_z="601 : 300.5 : 1"
       inkscape:persp3d-origin="300.5 : 200.33333 : 1"
       id="perspective3380" />
    <inkscape:perspective
       id="perspective3990"
       inkscape:persp3d-origin="375 : 250 : 1"
       inkscape:vp_z="750 : 375 : 1"
       inkscape:vp_y="0 : 1000 : 0"
       inkscape:vp_x="0 : 375 : 1"
       sodipodi:type="inkscape:persp3d" />
  </defs>
  <sodipodi:namedview
     id="base"
     pagecolor="#ffffff"
     bordercolor="#666666"
     borderopacity="1.0"
     gridtolerance="10000"
     guidetolerance="10"
     objecttolerance="10"
     inkscape:pageopacity="0.0"
     inkscape:pageshadow="2"
     inkscape:zoom="2.1059114"
     inkscape:cx="103.63051"
     inkscape:cy="-6.299489"
     inkscape:document-units="px"
     inkscape:current-layer="layer1"
     width="601px"
     height="601px"
     inkscape:window-width="1280"
     inkscape:window-height="1004"
     inkscape:window-x="-8"
     inkscape:window-y="-8"
     showgrid="false"
     fit-margin-top="0"
     fit-margin-left="0"
     fit-margin-right="0"
     fit-margin-bottom="0"
     inkscape:window-maximized="1"
     showguides="true"
     inkscape:guide-bbox="true" />
  <metadata
     id="metadata7">
    <rdf:RDF>
      <cc:Work
         rdf:about="">
        <dc:format>image/svg+xml</dc:format>
        <dc:type
           rdf:resource="http://purl.org/dc/dcmitype/StillImage" />
        <dc:title></dc:title>
      </cc:Work>
    </rdf:RDF>
  </metadata>
  <g
     inkscape:label="Layer 1"
     inkscape:groupmode="layer"
     id="layer1"
     transform="translate(91.412946,420.41072)">
    <rect
       style="color:#000000;fill:#000000;fill-opacity:1;fill-rule:nonzero;stroke:none;stroke-width:0.8735441;marker:none;visibility:visible;display:inline;overflow:visible"
       id="rect3653"
       width="0"
       height="27.202072"
       x="578.73834"
       y="298.1684"
       rx="249.48199"
       ry="27.202072" />
    <path
       inkscape:connector-curvature="0"
       style="fill:#ffdb00;fill-rule:nonzero;stroke:none"
       d="m -91.412946,-402.69334 c 0,-9.78524 7.9309,-17.71738 17.716,-17.71738 l 230.315256,0 c 9.785,0 17.71749,7.93214 17.71749,17.71738 l 0,141.73262 c 0,9.78375 -7.9325,17.71625 -17.7175,17.71625 l -230.315246,0 c -9.7851,0 -17.716,-7.9325 -17.716,-17.71625 l 0,-141.73262 z"
       id="path11" />
    <path
       inkscape:connector-curvature="0"
       style="fill:#000000;fill-rule:nonzero;stroke:none"
       d="m -87.870467,-402.69339 c 0,-7.8284 6.346437,-14.17363 14.173625,-14.17363 l 230.315122,0 c 7.82876,0 14.17376,6.34523 14.17376,14.17363 l 0,141.73262 c 0,7.8275 -6.345,14.1725 -14.17376,14.1725 l -230.315122,0 c -7.827188,0 -14.173625,-6.345 -14.173625,-14.1725 l 0,-141.73262 z"
       id="path13" />
    <path
       inkscape:connector-curvature="0"
       style="fill:#ffdb00;fill-rule:nonzero;stroke:none"
       d="m -82.200305,-402.69339 c 0,-4.69725 3.8074,-8.50468 8.5034,-8.50468 l 230.315345,0 c 4.6975,0 8.505,3.80743 8.505,8.50468 l 0,141.73282 c 0,4.69625 -3.8075,8.50375 -8.505,8.50375 l -230.315345,0 c -4.696,0 -8.5034,-3.8075 -8.5034,-8.50375 l 0,-141.73282 z"
       id="path15" />
    <path
       inkscape:connector-curvature="0"
       style="fill:#000000;fill-rule:nonzero;stroke:none"
       d="m -34.54403,-387.23439 6.289,44.29075 6.289125,0 6.99825,-27.81375 6.954375,27.81375 6.333,0 6.15725,-44.29075 -6.998375,0 -3.366625,23.164 -5.756875,-23.164 -6.29025,0 -6.289125,23.164 -3.366625,-23.164 -6.953125,0 z"
       id="path17" />
    <path
       inkscape:connector-curvature="0"
       style="fill:#000000;fill-rule:nonzero;stroke:none"
       d="m 12.537225,-387.23439 0,44.29075 6.776125,0 0,-19.3995 15.90075,0 0,19.3995 6.95375,0 0,-44.29075 -6.95375,0 0,17.539 -15.90075,0 0,-17.539 -6.776125,0 z"
       id="path19" />
    <path
       inkscape:connector-curvature="0"
       style="fill:#000000;fill-rule:nonzero;stroke:none"
       d="m 52.399095,-387.23439 0,44.29075 27.016255,0 0,-6.90925 -20.151255,0 0,-12.49025 12.932505,0 0,-6.90912 -12.932505,0 0,-10.89601 18.513755,0 0,-7.08612 -25.378755,0 z"
       id="path21" />
    <path
       inkscape:connector-curvature="0"
       style="fill:#000000;fill-rule:nonzero;stroke:none"
       d="m 87.7441,-387.23439 0,44.29075 6.865,0 0,-28.61212 16.82999,28.61212 5.935,0 0,-44.29075 -6.99875,0 0,28.833 -16.82999,-28.833 -5.80125,0 z"
       id="path23" />
    <path
       inkscape:connector-curvature="0"
       style="fill:#000000;fill-rule:nonzero;stroke:none"
       d="m -11.69003,-320.61452 6.289,44.291 6.290375,0 6.997,-27.814 6.954375,27.814 6.333,0 6.15725,-44.291 -6.99825,0 -3.36675,23.16526 -5.756875,-23.16526 -6.289,0 -6.290375,23.16526 -3.365375,-23.16526 -6.954375,0 z"
       id="path25" />
    <path
       inkscape:connector-curvature="0"
       style="fill:#000000;fill-rule:nonzero;stroke:none"
       d="m 35.170345,-320.61452 0,44.291 27.01625,0 0,-6.90875 -20.1525,0 0,-12.48974 12.93375,0 0,-6.91038 -12.93375,0 0,-10.896 18.515,0 0,-7.08613 -25.37875,0 z"
       id="path27" />
    <path
       inkscape:connector-curvature="0"
       style="fill:#000000;fill-rule:nonzero;stroke:none"
       d="m 67.63535,-320.61452 0,6.51113 10.1875,0 0,37.77987 6.6875,0 0,-37.77987 10.1425,0 0,-6.51112 -27.0175,0 z"
       id="path29" />
  </g>
</svg>
