<?xml version="1.0" encoding="UTF-8" standalone="no"?>
<!-- Created with Inkscape (http://www.inkscape.org/) -->

<svg
   xmlns:dc="http://purl.org/dc/elements/1.1/"
   xmlns:cc="http://creativecommons.org/ns#"
   xmlns:rdf="http://www.w3.org/1999/02/22-rdf-syntax-ns#"
   xmlns:svg="http://www.w3.org/2000/svg"
   xmlns="http://www.w3.org/2000/svg"
   xmlns:sodipodi="http://sodipodi.sourceforge.net/DTD/sodipodi-0.dtd"
   xmlns:inkscape="http://www.inkscape.org/namespaces/inkscape"
   id="svg17624"
   version="1.1"
   inkscape:version="0.48.2 r9819"
   width="360.62756"
   height="360.61234"
   xml:space="preserve"
   sodipodi:docname="AA.svg"><metadata
     id="metadata17630"><rdf:RDF><cc:Work
         rdf:about=""><dc:format>image/svg+xml</dc:format><dc:type
           rdf:resource="http://purl.org/dc/dcmitype/StillImage" /><dc:title /></cc:Work></rdf:RDF></metadata><defs
     id="defs17628"><inkscape:perspective
       sodipodi:type="inkscape:persp3d"
       inkscape:vp_x="0 : 0.5 : 1"
       inkscape:vp_y="0 : 1000 : 0"
       inkscape:vp_z="1 : 0.5 : 1"
       inkscape:persp3d-origin="0.5 : 0.33333333 : 1"
       id="perspective17632" /><clipPath
       clipPathUnits="userSpaceOnUse"
       id="clipPath17642"><path
         d="m -2,710 501,0 0,-711 -501,0 0,711 z"
         id="path17644"
         inkscape:connector-curvature="0" /></clipPath><clipPath
       clipPathUnits="userSpaceOnUse"
       id="clipPath17648"><path
         d="m 0,708.06 498,0 0,-708 -498,0 0,708 z"
         id="path17650"
         inkscape:connector-curvature="0" /></clipPath><clipPath
       clipPathUnits="userSpaceOnUse"
       id="clipPath17798"><path
         d="m -2,710 501,0 0,-711 -501,0 0,711 z"
         id="path17800"
         inkscape:connector-curvature="0" /></clipPath><clipPath
       clipPathUnits="userSpaceOnUse"
       id="clipPath17804"><path
         d="m 0,708.06 498,0 0,-708 -498,0 0,708 z"
         id="path17806"
         inkscape:connector-curvature="0" /></clipPath><clipPath
       id="Clip0"><path
         inkscape:connector-curvature="0"
         d="m 0,0 212.597,0 0,269.292 L 0,269.292 0,0 z"
         transform="translate(0.923828,0.879883)"
         id="path7" /></clipPath><clipPath
       id="Clip0-8"><path
         inkscape:connector-curvature="0"
         d="m 0,0 170.079,0 0,113.386 L 0,113.386 0,0 z"
         transform="translate(0.0986328,0.822266)"
         id="path7-8" /></clipPath><clipPath
       id="Clip0-1"><path
         inkscape:connector-curvature="0"
         d="m 0,0 287.009,0 0,159.449 L 0,159.449 0,0 z"
         transform="translate(0.396484,0.267578)"
         id="path7-7" /></clipPath><clipPath
       id="Clip0-9"><path
         inkscape:connector-curvature="0"
         d="m 0,0 170.079,0 0,170.079 L 0,170.079 0,0 z"
         transform="translate(0.460938,0.775391)"
         id="path7-4" /></clipPath><clipPath
       id="Clip0-4"><path
         inkscape:connector-curvature="0"
         d="m 0,0 340.157,0 0,226.771 L 0,226.771 0,0 z"
         transform="translate(0.921875,0.25293)"
         id="path7-5" /></clipPath><clipPath
       id="Clip0-5"><path
         inkscape:connector-curvature="0"
         d="m 0,0 255.119,0 0,170.079 L 0,170.079 0,0 z"
         transform="translate(0.147461,0.0595703)"
         id="path7-1" /></clipPath><clipPath
       id="Clip0-0"><path
         inkscape:connector-curvature="0"
         d="m 0,0 170.079,0 0,113.386 L 0,113.386 0,0 z"
         transform="translate(0.0673828,0.207031)"
         id="path7-9" /></clipPath></defs><sodipodi:namedview
     pagecolor="#ffffff"
     bordercolor="#666666"
     borderopacity="1"
     objecttolerance="10"
     gridtolerance="10"
     guidetolerance="10"
     inkscape:pageopacity="0"
     inkscape:pageshadow="2"
     inkscape:window-width="1280"
     inkscape:window-height="1004"
     id="namedview17626"
     showgrid="false"
     inkscape:zoom="1.4142136"
     inkscape:cx="226.05657"
     inkscape:cy="202.38152"
     inkscape:window-x="-8"
     inkscape:window-y="-8"
     inkscape:window-maximized="1"
     inkscape:current-layer="g17634"
     fit-margin-top="0"
     fit-margin-left="0"
     fit-margin-right="0"
     fit-margin-bottom="0"
     showguides="true"
     inkscape:guide-bbox="true" /><g
     id="g17634"
     inkscape:groupmode="layer"
     inkscape:label="GG1999P002"
     transform="matrix(1.25,0,0,-1.25,2890.2307,-1117.2067)"><path
       inkscape:connector-curvature="0"
       style="fill:#ffdb00;fill-rule:nonzero;stroke:none"
       d="m -2027.9822,-1027.6287 c 5.733,-5.734 5.733,-15.029 -8e-4,-20.764 l -129.571,-129.562 c -5.734,-5.734 -15.031,-5.734 -20.764,0 l -129.5658,129.562 c -5.7344,5.735 -5.7344,15.03 0,20.764 l 129.5716,129.56257 c 5.734,5.7344 15.03,5.7344 20.763,0 l 129.567,-129.56257 z"
       id="path11" /><path
       inkscape:connector-curvature="0"
       style="fill:#000000;fill-rule:nonzero;stroke:none"
       d="m -2305.4845,-1045.49 c -4.0957,4.096 -4.0957,10.737 0,14.833 l 130.2863,130.28227 c 4.096,4.0957 10.736,4.0957 14.832,0 l 130.289,-130.28227 c 4.096,-4.096 4.097,-10.737 0,-14.833 l -130.286,-130.283 c -4.096,-4.095 -10.736,-4.095 -14.832,0 l -130.2893,130.283 z"
       id="path13" /><path
       inkscape:connector-curvature="0"
       style="fill:#ffdb00;fill-rule:nonzero;stroke:none"
       d="m -2301.6758,-1041.52 c -1.9932,1.992 -1.9932,5.223 0,7.216 l 130.2858,130.28277 c 1.993,1.9922 5.223,1.9922 7.216,0 l 130.289,-130.28277 c 1.993,-1.993 1.993,-5.224 0,-7.216 l -130.286,-130.283 c -1.993,-1.992 -5.223,-1.992 -7.216,0 l -130.2888,130.283 z"
       id="path15" /><path
       inkscape:connector-curvature="0"
       style="fill:#c0111e;fill-opacity:1;fill-rule:nonzero;stroke:none"
       d="m -2247.5762,-1037.4124 c 0,44.07087 35.7259,79.79547 79.7959,79.79547 44.0701,0 79.7961,-35.7246 79.7961,-79.79547 0,-44.0715 -35.726,-79.7945 -79.7961,-79.7945 -44.07,0 -79.7959,35.723 -79.7959,79.7945 z"
       id="path17" /><path
       inkscape:connector-curvature="0"
       style="fill:#ffffff;fill-rule:nonzero;stroke:none"
       d="m -2220.9776,-1037.4124 c 0,-29.38 23.8163,-53.1981 53.1973,-53.1981 29.38,0 53.1967,23.8181 53.1967,53.1981 0,29.38 -23.8167,53.19687 -53.1967,53.19687 -29.381,0 -53.1973,-23.81687 -53.1973,-53.19687 z"
       id="path19" /><path
       inkscape:connector-curvature="0"
       style="fill:#000000;fill-rule:nonzero;stroke:none"
       d="m -2194.8563,-1064.2514 8.352,0 0,53.204 -6.65,0 c -1.276,-2.023 -3.315,-3.352 -6.117,-3.991 l 0,-6.33 4.415,0 0,-42.883 z"
       id="path21" /><path
       inkscape:connector-curvature="0"
       style="fill:#000000;fill-rule:evenodd;stroke:none"
       d="m -2155.6453,-1065.2624 c 12.414,0 18.621,9.204 18.621,27.613 0,18.444 -6.207,27.665 -18.621,27.665 -12.415,0 -18.621,-9.221 -18.621,-27.665 0,-18.409 6.206,-27.613 18.621,-27.613 z m 0,8.14 c -6.917,0 -10.375,6.491 -10.375,19.473 0,12.981 3.458,19.472 10.375,19.472 6.881,0 10.321,-6.491 10.321,-19.472 0,-12.982 -3.44,-19.473 -10.321,-19.473 z"
       id="path23-1" /></g></svg>