<?xml version="1.0" encoding="UTF-8" standalone="no"?>
<!-- Generator: Adobe Illustrator 12.0.1, SVG Export Plug-In  -->

<svg
   xmlns:dc="http://purl.org/dc/elements/1.1/"
   xmlns:cc="http://creativecommons.org/ns#"
   xmlns:rdf="http://www.w3.org/1999/02/22-rdf-syntax-ns#"
   xmlns:svg="http://www.w3.org/2000/svg"
   xmlns="http://www.w3.org/2000/svg"
   xmlns:sodipodi="http://sodipodi.sourceforge.net/DTD/sodipodi-0.dtd"
   xmlns:inkscape="http://www.inkscape.org/namespaces/inkscape"
   version="1.1"
   width="336.61374"
   height="106.29875"
   viewBox="-0.779 0 336.61374 106.29875"
   enable-background="new -0.779 0 98 288"
   xml:space="preserve"
   id="svg2"
   inkscape:version="0.48.2 r9819"
   sodipodi:docname="AJAX6.svg"><metadata
   id="metadata36"><rdf:RDF><cc:Work
       rdf:about=""><dc:format>image/svg+xml</dc:format><dc:type
         rdf:resource="http://purl.org/dc/dcmitype/StillImage" /><dc:title></dc:title></cc:Work></rdf:RDF></metadata><sodipodi:namedview
   pagecolor="#ffffff"
   bordercolor="#666666"
   borderopacity="1"
   objecttolerance="10"
   gridtolerance="10"
   guidetolerance="10"
   inkscape:pageopacity="0"
   inkscape:pageshadow="2"
   inkscape:window-width="1280"
   inkscape:window-height="1004"
   id="namedview34"
   showgrid="false"
   fit-margin-top="0"
   fit-margin-left="0"
   fit-margin-right="0"
   fit-margin-bottom="0"
   inkscape:zoom="1.3867569"
   inkscape:cx="143.86195"
   inkscape:cy="-33.250787"
   inkscape:window-x="-8"
   inkscape:window-y="-8"
   inkscape:window-maximized="1"
   inkscape:current-layer="svg2" />
<defs
   id="defs4">
</defs>














<path
   inkscape:connector-curvature="0"
   style="fill:#ffdb00;fill-rule:nonzero;stroke:none"
   d="M -0.779,17.715999 C -0.779,7.9309119 7.1519124,-1.0712629e-6 16.937,-1.0712629e-6 l 301.1815,0 c 9.78375,0 17.71625,7.9309129712629 17.71625,17.7160000712629 l 0,70.8655 c 0,9.785125 -7.9325,17.717251 -17.71625,17.717251 l -301.1815,0 c -9.7850876,0 -17.716,-7.932126 -17.716,-17.717251 l 0,-70.8655 z"
   id="path11" /><path
   inkscape:connector-curvature="0"
   style="fill:#000000;fill-rule:nonzero;stroke:none"
   d="m 2.7634812,17.716104 c 0,-7.8271871 6.3452125,-14.1736251 14.1734998,-14.1736251 l 301.180249,0 c 7.82875,0 14.17375,6.346438 14.17375,14.1736251 l 0,70.865375 c 0,7.828375 -6.345,14.173631 -14.17375,14.173631 l -301.180249,0 c -7.8282873,0 -14.1734998,-6.345256 -14.1734998,-14.173631 l 0,-70.865375 z"
   id="path13" /><path
   inkscape:connector-curvature="0"
   style="fill:#ffdb00;fill-rule:nonzero;stroke:none"
   d="m 8.4324312,17.716039 c 0,-4.69725 3.8073248,-8.5033881 8.5045748,-8.5033881 l 301.181674,0 c 4.69625,0 8.50375,3.8061381 8.50375,8.5033881 l 0,70.865487 c 0,4.69725 -3.8075,8.504625 -8.50375,8.504625 l -301.181674,0 c -4.69725,0 -8.5045748,-3.807375 -8.5045748,-8.504625 l 0,-70.865487 z"
   id="path15" /><path
   style="fill:#000000;fill-rule:nonzero;stroke:none"
   d="m 39.61524,44.243149 0,35.433375 4.889,0 0,-23.28 10.559,23.28 4.039375,0 0,-35.433375 -5.138,0 0,20.47975 -9.460375,-20.47975 -4.889,0 z"
   id="path17"
   inkscape:connector-curvature="0" /><path
   style="fill:#000000;fill-rule:nonzero;stroke:none"
   d="m 66.54399,44.243149 0,35.433375 17.716125,0 0,-4.996375 -12.862625,0 0,-11.693125 7.547625,0 0,-4.8535 -7.547625,0 0,-8.894 12.296125,0 0,-4.996375 -17.149625,0 z"
   id="path19"
   inkscape:connector-curvature="0" /><path
   style="fill:#000000;fill-rule:nonzero;stroke:none"
   d="m 95.705365,61.534399 -7.618375,18.142125 5.4565,0 5.03175,-11.7285 4.81938,11.7285 5.59812,0 -7.65387,-18.142125 7.2645,-17.29125 -5.59938,0 -4.42875,10.559125 -4.5715,-10.559125 -5.31375,0 7.015375,17.29125 z"
   id="path21"
   inkscape:connector-curvature="0" /><path
   style="fill:#000000;fill-rule:nonzero;stroke:none"
   d="m 112.92587,44.243149 0,4.6765 6.30738,0 0,30.756875 5.20837,0 0,-30.756875 6.20125,0 0,-4.6765 -17.717,0 z"
   id="path23"
   inkscape:connector-curvature="0" /><path
   style="fill:#000000;fill-rule:evenodd;stroke:none"
   d="m 170.73412,51.002149 c -1.16875,1.027875 -2.215,2.81625 -3.135,5.3675 -0.9925,2.658625 -1.48875,5.173375 -1.48875,7.547625 0,4.32375 1.4175,8.167625 4.2525,11.534375 2.94125,3.507125 6.48375,5.26 10.63,5.26 3.86125,0 7.245,-1.77125 10.15125,-5.31375 2.8,-3.366625 4.19875,-7.086125 4.19875,-11.160875 0,-4.252875 -1.55875,-8.752375 -4.6775,-13.501 2.515,-3.826875 3.77375,-7.369375 3.77375,-10.629875 0,-3.931875 -1.3275,-7.35225 -3.98625,-10.2575 -2.6575,-2.90525 -5.81125,-4.357875 -9.46,-4.357875 -3.75625,0 -7.08625,1.417125 -9.9925,4.251625 -2.87,2.799125 -4.305,6.112125 -4.305,9.939 0,2.3035 0.35375,4.37625 1.06375,6.21825 0.60125,1.488 1.59375,3.18975 2.975,5.1025 z m 9.99375,-3.826875 c -1.7725,0 -3.31375,-0.690875 -4.62625,-2.07275 -1.30875,-1.41725 -1.96625,-3.100625 -1.96625,-5.048875 0,-1.949375 0.6575,-3.6145 1.96625,-4.99625 1.3125,-1.41725 2.85375,-2.1265 4.62625,-2.1265 1.735,0 3.20625,0.70925 4.41,2.1265 1.24125,1.38175 1.86,3.046875 1.86,4.99625 0,1.94825 -0.61875,3.631625 -1.86,5.048875 -1.20375,1.381875 -2.675,2.07275 -4.41,2.07275 z m 0,26.097375 c -1.95,0 -3.61625,-0.887375 -4.99625,-2.658625 -1.3825,-1.77125 -2.07375,-3.933125 -2.07375,-6.484375 0,-2.90525 0.6725,-5.26125 2.02,-7.069125 1.38125,-1.806625 3.065,-2.71 5.05,-2.71 1.9475,0 3.6125,0.955875 4.995,2.869875 1.38125,1.914125 2.0725,4.216375 2.0725,6.90925 0,2.55125 -0.69125,4.713125 -2.0725,6.484375 -1.3825,1.77125 -3.0475,2.658625 -4.995,2.658625 z"
   id="path25"
   inkscape:connector-curvature="0" /><path
   style="fill:#000000;fill-rule:nonzero;stroke:none"
   d="m 255.06912,79.724149 -10.87375,-15.8265 10.87375,-11.08875 -7.75125,0 -10.60375,11.08875 0,-21.42325 -5.76125,0 0,37.24975 5.76125,0 0,-8.3435 3.55125,-3.55225 7.86,11.89575 6.94375,0 z"
   id="path27"
   inkscape:connector-curvature="0" /><path
   style="fill:#000000;fill-rule:nonzero;stroke:none"
   d="m 295.44162,79.724149 0,-15.3955 c 0,-4.1455 -0.32375,-6.19025 -1.2925,-7.80525 -1.4525,-2.691625 -4.30625,-4.14425 -7.805,-4.14425 -3.23,0 -5.4375,1.0755 -7.375,3.606 -1.4525,-2.475625 -3.71375,-3.660875 -6.835,-3.660875 -2.63875,0 -4.415,0.808 -6.46,2.854 l 0,-2.369375 -5.6525,0 0,26.91525 5.6525,0 0,-15.286875 c 0,-2.1545 0.2675,-3.392375 1.07625,-4.414125 0.86125,-1.239 2.3675,-2.047125 3.8225,-2.047125 1.29125,0 2.6375,0.59325 3.39,1.67 0.7,0.96925 0.8625,1.82975 0.8625,4.628875 l 0,15.44925 5.92,0 0,-15.44925 c 0,-2.475625 0.16125,-3.391125 0.80875,-4.25175 0.91375,-1.292625 2.42125,-2.099625 3.92875,-2.099625 1.6675,0 3.01375,0.807 3.66,2.152125 0.3775,0.808125 0.485,1.9385 0.485,4.19925 l 0,15.44925 5.81375,0 z"
   id="path29"
   inkscape:connector-curvature="0" /></svg>