<?xml version="1.0" encoding="UTF-8" standalone="no"?>
<!-- Generator: Adobe Illustrator 15.0.0, SVG Export Plug-In . SVG Version: 6.00 Build 0)  -->

<svg
   xmlns:ns="http://ns.adobe.com/SaveForWeb/1.0/"
   xmlns:dc="http://purl.org/dc/elements/1.1/"
   xmlns:cc="http://creativecommons.org/ns#"
   xmlns:rdf="http://www.w3.org/1999/02/22-rdf-syntax-ns#"
   xmlns:svg="http://www.w3.org/2000/svg"
   xmlns="http://www.w3.org/2000/svg"
   xmlns:sodipodi="http://sodipodi.sourceforge.net/DTD/sodipodi-0.dtd"
   xmlns:inkscape="http://www.inkscape.org/namespaces/inkscape"
   version="1.1"
   id="레이어_1"
   x="0px"
   y="0px"
   width="360.61911"
   height="360.63519"
   viewBox="0 0 360.61911 360.6352"
   enable-background="new 0 0 500 500"
   xml:space="preserve"
   inkscape:version="0.48.2 r9819"
   sodipodi:docname="AJAX2.svg"><defs
   id="defs15" /><sodipodi:namedview
   pagecolor="#ffffff"
   bordercolor="#666666"
   borderopacity="1"
   objecttolerance="10"
   gridtolerance="10"
   guidetolerance="10"
   inkscape:pageopacity="0"
   inkscape:pageshadow="2"
   inkscape:window-width="1280"
   inkscape:window-height="1004"
   id="namedview13"
   showgrid="false"
   fit-margin-top="0"
   fit-margin-left="0"
   fit-margin-right="0"
   fit-margin-bottom="0"
   inkscape:zoom="2"
   inkscape:cx="279.49547"
   inkscape:cy="150.06496"
   inkscape:window-x="-8"
   inkscape:window-y="-8"
   inkscape:window-maximized="1"
   inkscape:current-layer="레이어_1" />
<metadata
   id="metadata3">
	<ns:sfw>
		<ns:slices />
		<ns:sliceSourceBounds
   height="474.5"
   width="474.5"
   y="309"
   x="9.5"
   bottomLeftOrigin="true" />
	</ns:sfw>
<rdf:RDF><cc:Work
     rdf:about=""><dc:format>image/svg+xml</dc:format><dc:type
       rdf:resource="http://purl.org/dc/dcmitype/StillImage" /><dc:title></dc:title></cc:Work></rdf:RDF></metadata>




<path
   inkscape:connector-curvature="0"
   style="fill:#ffdb00;fill-rule:nonzero;stroke:none"
   d="m 355.24395,167.34051 c 7.1675,7.1675 7.16625,18.7875 0,25.95625 L 193.2752,355.26051 c -7.1675,7.16625 -18.7875,7.16625 -25.95375,0 L 5.374449,193.29676 c -7.1667501,-7.16875 -7.1655301,-18.78875 0.00122,-25.95625 L 167.3427,5.3759812 c 7.16875,-7.167975 18.7875,-7.167975 25.955,0 L 355.24395,167.34051 z"
   id="path11" /><path
   inkscape:connector-curvature="0"
   style="fill:#000000;fill-rule:nonzero;stroke:none"
   d="m 8.1832809,190.22939 c -5.119625,-5.12 -5.12085,-13.42125 0,-18.54 L 171.03994,8.8427781 c 5.12125,-5.1196375 13.4225,-5.1196375 18.54125,0 l 162.865,162.8466119 c 5.12,5.11875 5.12125,13.42 0,18.54 l -162.8575,162.84625 c -5.12,5.12 -13.42,5.12 -18.54,0 L 8.1832809,190.22939 z"
   id="path13" /><path
   inkscape:connector-curvature="0"
   style="fill:#ffdb00;fill-rule:nonzero;stroke:none"
   d="m 13.04533,185.36699 c -2.491437,-2.49 -2.491437,-6.52875 0,-9.01875 L 175.9014,13.502187 c 2.49125,-2.49145 6.53,-2.49145 9.02125,0 L 347.7864,176.34824 c 2.49125,2.49 2.49125,6.52875 0,9.01875 L 184.93015,348.21324 c -2.4925,2.4925 -6.53,2.4925 -9.02125,0 L 13.04533,185.36699 z"
   id="path15" /><path
   inkscape:connector-curvature="0"
   style="fill:#000000;fill-rule:nonzero;stroke:none"
   d="m 74.013331,229.34994 212.598759,0 -212.598759,-95.67 0,95.67 z"
   id="path17" /><path
   inkscape:connector-curvature="0"
   style="fill:#000000;fill-rule:evenodd;stroke:none"
   d="m 230.16446,170.90244 c 3.075,-6.74625 10.14,-10.13 15.7825,-7.5575 5.6425,2.57 7.72375,10.1225 4.65,16.86875 -3.075,6.745 -10.14125,10.1275 -15.7825,7.5575 -5.6425,-2.57125 -7.72375,-10.12375 -4.65,-16.86875 z m 7.105,3.2375 c -1.21375,2.66 -0.80375,5.45375 0.915,6.23625 1.71875,0.78375 4.095,-0.73875 5.30875,-3.4 1.2125,-2.66125 0.8025,-5.45375 -0.91625,-6.23625 -1.71875,-0.78375 -4.09625,0.73875 -5.3075,3.4 z m -27.74375,-45.3425 c 3.07375,-6.7455 10.14,-10.128 15.78125,-7.55725 5.6425,2.57087 7.72375,10.1235 4.65,16.8685 -3.07375,6.74625 -10.13875,10.12875 -15.78125,7.5575 -5.6425,-2.57 -7.725,-10.1225 -4.65,-16.86875 z m 7.10375,3.2375 c -1.21375,2.66125 -0.80375,5.45375 0.915,6.23625 1.72,0.78375 4.09625,-0.73875 5.30875,-3.39875 1.2125,-2.66125 0.8025,-5.455 -0.91625,-6.2375 -1.71875,-0.78375 -4.09375,0.73875 -5.3075,3.4 z m 32.89375,0.48 5.1325,5.9025 -44.115,38.34875 -5.1325,-5.90375 44.115,-38.3475 z"
   id="path19" /><path
   inkscape:connector-curvature="0"
   style="fill:#000000;fill-rule:nonzero;stroke:none"
   d="m 130.25321,142.13494 7.5975,3.4325 21.83875,-48.415375 -6.05,-2.733125 c -1.99125,1.315875 -4.39125,1.68825 -7.2025,1.118125 l -2.59875,5.760495 4.01625,1.81525 -17.60125,39.02213 z"
   id="path21" /><path
   inkscape:connector-curvature="0"
   style="fill:#000000;fill-rule:nonzero;stroke:none"
   d="m 164.91071,113.73169 6.4025,5.04887 c 1.57125,-1.93237 3.4225,-3.15437 5.5575,-3.667 2.14875,-0.5445 4.20625,-0.37237 6.17625,0.51638 2.29,1.03512 4.0325,2.63912 5.2275,4.81075 1.28125,2.32662 1.41875,4.60425 0.41375,6.8305 -0.74125,1.6475 -2.1875,2.7425 -4.335,3.28625 -1.3975,0.3425 -3.43625,0.46875 -6.11625,0.385 -2.66625,-0.11625 -4.275,-0.125 -4.825,-0.0238 -12.02375,2.37875 -20.40875,8.8275 -25.155,19.35 l 32.375,14.62625 3.56,-7.89125 -23.665,-10.69125 c 3.02125,-2.48125 5.6525,-4.265 7.89,-5.3525 2.27,-1.0725 4.66,-1.72125 7.17,-1.9475 2.3325,0.0812 5.67125,-0.002 10.01875,-0.25375 1.65,-0.3025 3.3725,-1.02125 5.165,-2.15375 2.47125,-1.60375 4.26125,-3.6325 5.36625,-6.085 2.21375,-4.90625 2.23,-9.464 0.05,-13.673 -1.9725,-3.80613 -5.37875,-6.80175 -10.21875,-8.988 -3.51625,-1.58825 -7.35125,-1.825 -11.505,-0.7105 -4.3125,1.12187 -7.4975,3.31662 -9.5525,6.58325 z"
   id="path23" /></svg>