<?xml version="1.0" encoding="UTF-8" standalone="no"?>
<!-- Generator: Adobe Illustrator 12.0.1, SVG Export Plug-In  -->

<svg
   xmlns:dc="http://purl.org/dc/elements/1.1/"
   xmlns:cc="http://creativecommons.org/ns#"
   xmlns:rdf="http://www.w3.org/1999/02/22-rdf-syntax-ns#"
   xmlns:svg="http://www.w3.org/2000/svg"
   xmlns="http://www.w3.org/2000/svg"
   xmlns:sodipodi="http://sodipodi.sourceforge.net/DTD/sodipodi-0.dtd"
   xmlns:inkscape="http://www.inkscape.org/namespaces/inkscape"
   version="1.1"
   width="336.61374"
   height="106.29875"
   viewBox="-0.779 0 336.61374 106.29875"
   enable-background="new -0.779 0 98 288"
   xml:space="preserve"
   id="svg2"
   inkscape:version="0.48.2 r9819"
   sodipodi:docname="AJAX5.svg"><metadata
   id="metadata36"><rdf:RDF><cc:Work
       rdf:about=""><dc:format>image/svg+xml</dc:format><dc:type
         rdf:resource="http://purl.org/dc/dcmitype/StillImage" /><dc:title></dc:title></cc:Work></rdf:RDF></metadata><sodipodi:namedview
   pagecolor="#ffffff"
   bordercolor="#666666"
   borderopacity="1"
   objecttolerance="10"
   gridtolerance="10"
   guidetolerance="10"
   inkscape:pageopacity="0"
   inkscape:pageshadow="2"
   inkscape:window-width="1280"
   inkscape:window-height="1004"
   id="namedview34"
   showgrid="false"
   fit-margin-top="0"
   fit-margin-left="0"
   fit-margin-right="0"
   fit-margin-bottom="0"
   inkscape:zoom="1.3867569"
   inkscape:cx="143.86195"
   inkscape:cy="-33.250787"
   inkscape:window-x="-8"
   inkscape:window-y="-8"
   inkscape:window-maximized="1"
   inkscape:current-layer="svg2" />
<defs
   id="defs4">
</defs>














<path
   inkscape:connector-curvature="0"
   style="fill:#ffdb00;fill-rule:nonzero;stroke:none"
   d="M -0.779,17.715999 C -0.779,7.9309119 7.1519124,-1.0712629e-6 16.937,-1.0712629e-6 l 301.1815,0 c 9.78375,0 17.71625,7.9309129712629 17.71625,17.7160000712629 l 0,70.8655 c 0,9.785125 -7.9325,17.717251 -17.71625,17.717251 l -301.1815,0 c -9.7850876,0 -17.716,-7.932126 -17.716,-17.717251 l 0,-70.8655 z"
   id="path11" /><path
   inkscape:connector-curvature="0"
   style="fill:#000000;fill-rule:nonzero;stroke:none"
   d="m 2.7634812,17.716104 c 0,-7.8271871 6.3452125,-14.1736251 14.1734998,-14.1736251 l 301.180249,0 c 7.82875,0 14.17375,6.346438 14.17375,14.1736251 l 0,70.865375 c 0,7.828375 -6.345,14.173631 -14.17375,14.173631 l -301.180249,0 c -7.8282873,0 -14.1734998,-6.345256 -14.1734998,-14.173631 l 0,-70.865375 z"
   id="path13" /><path
   inkscape:connector-curvature="0"
   style="fill:#ffdb00;fill-rule:nonzero;stroke:none"
   d="m 8.4324312,17.716039 c 0,-4.69725 3.8073248,-8.5033881 8.5045748,-8.5033881 l 301.181674,0 c 4.69625,0 8.50375,3.8061381 8.50375,8.5033881 l 0,70.865487 c 0,4.69725 -3.8075,8.504625 -8.50375,8.504625 l -301.181674,0 c -4.69725,0 -8.5045748,-3.807375 -8.5045748,-8.504625 l 0,-70.865487 z"
   id="path15" /><path
   style="fill:#000000;fill-rule:nonzero;stroke:none"
   d="m 39.615271,44.243177 0,35.433375 4.888875,0 0,-23.280125 10.559125,23.280125 4.039375,0 0,-35.433375 -5.138,0 0,20.47975 -9.4605,-20.47975 -4.888875,0 z"
   id="path17"
   inkscape:connector-curvature="0" /><path
   style="fill:#000000;fill-rule:nonzero;stroke:none"
   d="m 66.544022,44.243177 0,35.433375 17.716,0 0,-4.996375 -12.8625,0 0,-11.693125 7.547625,0 0,-4.8535 -7.547625,0 0,-8.894 12.296125,0 0,-4.996375 -17.149625,0 z"
   id="path19"
   inkscape:connector-curvature="0" /><path
   style="fill:#000000;fill-rule:nonzero;stroke:none"
   d="m 95.705397,61.534427 -7.618375,18.142125 5.4565,0 5.03175,-11.7285 4.818128,11.7285 5.59937,0 -7.65387,-18.142125 7.26437,-17.29125 -5.59925,0 -4.428748,10.559125 -4.5715,-10.559125 -5.31375,0 7.015375,17.29125 z"
   id="path21"
   inkscape:connector-curvature="0" /><path
   style="fill:#000000;fill-rule:nonzero;stroke:none"
   d="m 112.9259,44.243177 0,4.6765 6.30725,0 0,30.756875 5.20863,0 0,-30.756875 6.2,0 0,-4.6765 -17.71588,0 z"
   id="path23"
   inkscape:connector-curvature="0" /><path
   style="fill:#000000;fill-rule:nonzero;stroke:none"
   d="m 173.07302,79.702177 7.495,0 c 0,-16.51125 4.92375,-31.7285 14.775,-45.654375 l 0,-7.495125 -29.2325,0 0,7.495125 20.09,0 c -8.75125,14.207875 -13.1275,29.426375 -13.1275,45.654375 z"
   id="path25"
   inkscape:connector-curvature="0" /><path
   style="fill:#000000;fill-rule:nonzero;stroke:none"
   d="m 255.06927,79.724177 -10.87375,-15.8265 10.87375,-11.088875 -7.75125,0 -10.60375,11.088875 0,-21.42325 -5.76125,0 0,37.24975 5.76125,0 0,-8.3435 3.55125,-3.55225 7.85875,11.89575 6.945,0 z"
   id="path27"
   inkscape:connector-curvature="0" /><path
   style="fill:#000000;fill-rule:nonzero;stroke:none"
   d="m 295.44177,79.724177 0,-15.395625 c 0,-4.1455 -0.32375,-6.190125 -1.2925,-7.805125 -1.4525,-2.691625 -4.3075,-4.14425 -7.805,-4.14425 -3.23,0 -5.4375,1.075375 -7.375,3.605875 -1.4525,-2.4755 -3.71375,-3.660875 -6.83625,-3.660875 -2.6375,0 -4.41375,0.808125 -6.46,2.854 l 0,-2.369375 -5.65125,0 0,26.915375 5.65125,0 0,-15.286875 c 0,-2.154625 0.26875,-3.392375 1.0775,-4.414125 0.86125,-1.239 2.3675,-2.047125 3.82125,-2.047125 1.2925,0 2.63875,0.59325 3.39125,1.67 0.7,0.969125 0.8625,1.82975 0.8625,4.628875 l 0,15.44925 5.92,0 0,-15.44925 c 0,-2.475625 0.16125,-3.391125 0.80875,-4.25175 0.91375,-1.29275 2.42125,-2.099625 3.92875,-2.099625 1.66875,0 3.01375,0.806875 3.66,2.152125 0.3775,0.808125 0.485,1.9385 0.485,4.19925 l 0,15.44925 5.81375,0 z"
   id="path29"
   inkscape:connector-curvature="0" /></svg>