<?xml version="1.0" encoding="UTF-8" standalone="no"?>
<!-- Generator: Adobe Illustrator 12.0.1, SVG Export Plug-In  -->

<svg
   xmlns:dc="http://purl.org/dc/elements/1.1/"
   xmlns:cc="http://creativecommons.org/ns#"
   xmlns:rdf="http://www.w3.org/1999/02/22-rdf-syntax-ns#"
   xmlns:svg="http://www.w3.org/2000/svg"
   xmlns="http://www.w3.org/2000/svg"
   xmlns:sodipodi="http://sodipodi.sourceforge.net/DTD/sodipodi-0.dtd"
   xmlns:inkscape="http://www.inkscape.org/namespaces/inkscape"
   version="1.1"
   width="336.61374"
   height="106.29875"
   viewBox="-0.779 0 336.61374 106.29875"
   enable-background="new -0.779 0 98 288"
   xml:space="preserve"
   id="svg2"
   inkscape:version="0.48.2 r9819"
   sodipodi:docname="AJAX3.svg"><metadata
   id="metadata36"><rdf:RDF><cc:Work
       rdf:about=""><dc:format>image/svg+xml</dc:format><dc:type
         rdf:resource="http://purl.org/dc/dcmitype/StillImage" /><dc:title></dc:title></cc:Work></rdf:RDF></metadata><sodipodi:namedview
   pagecolor="#ffffff"
   bordercolor="#666666"
   borderopacity="1"
   objecttolerance="10"
   gridtolerance="10"
   guidetolerance="10"
   inkscape:pageopacity="0"
   inkscape:pageshadow="2"
   inkscape:window-width="1280"
   inkscape:window-height="1004"
   id="namedview34"
   showgrid="false"
   fit-margin-top="0"
   fit-margin-left="0"
   fit-margin-right="0"
   fit-margin-bottom="0"
   inkscape:zoom="1.3867569"
   inkscape:cx="143.86195"
   inkscape:cy="-33.250787"
   inkscape:window-x="-8"
   inkscape:window-y="-8"
   inkscape:window-maximized="1"
   inkscape:current-layer="svg2" />
<defs
   id="defs4">
</defs>














<path
   inkscape:connector-curvature="0"
   style="fill:#ffdb00;fill-rule:nonzero;stroke:none"
   d="M -0.779,17.715999 C -0.779,7.9309119 7.1519124,-1.0712629e-6 16.937,-1.0712629e-6 l 301.1815,0 c 9.78375,0 17.71625,7.9309129712629 17.71625,17.7160000712629 l 0,70.8655 c 0,9.785125 -7.9325,17.717251 -17.71625,17.717251 l -301.1815,0 c -9.7850876,0 -17.716,-7.932126 -17.716,-17.717251 l 0,-70.8655 z"
   id="path11" /><path
   inkscape:connector-curvature="0"
   style="fill:#000000;fill-rule:nonzero;stroke:none"
   d="m 2.7634812,17.716104 c 0,-7.8271871 6.3452125,-14.1736251 14.1734998,-14.1736251 l 301.180249,0 c 7.82875,0 14.17375,6.346438 14.17375,14.1736251 l 0,70.865375 c 0,7.828375 -6.345,14.173631 -14.17375,14.173631 l -301.180249,0 c -7.8282873,0 -14.1734998,-6.345256 -14.1734998,-14.173631 l 0,-70.865375 z"
   id="path13" /><path
   inkscape:connector-curvature="0"
   style="fill:#ffdb00;fill-rule:nonzero;stroke:none"
   d="m 8.4324312,17.716039 c 0,-4.69725 3.8073248,-8.5033881 8.5045748,-8.5033881 l 301.181674,0 c 4.69625,0 8.50375,3.8061381 8.50375,8.5033881 l 0,70.865487 c 0,4.69725 -3.8075,8.504625 -8.50375,8.504625 l -301.181674,0 c -4.69725,0 -8.5045748,-3.807375 -8.5045748,-8.504625 l 0,-70.865487 z"
   id="path15" /><path
   style="fill:#000000;fill-rule:nonzero;stroke:none"
   d="m 39.614008,44.243068 0,35.433372 4.89025,0 0,-23.280123 10.558999,23.280123 4.039374,0 0,-35.433372 -5.137999,0 0,20.479748 -9.460374,-20.479748 -4.89025,0 z"
   id="path17"
   inkscape:connector-curvature="0" /><path
   style="fill:#000000;fill-rule:nonzero;stroke:none"
   d="m 66.544007,44.243068 0,35.433372 17.715999,0 0,-4.996374 -12.862499,0 0,-11.693124 7.547624,0 0,-4.8535 -7.547624,0 0,-8.893999 12.294874,0 0,-4.996375 -17.148374,0 z"
   id="path19"
   inkscape:connector-curvature="0" /><path
   style="fill:#000000;fill-rule:nonzero;stroke:none"
   d="m 95.705379,61.534317 -7.618374,18.142123 5.4565,0 5.031749,-11.728624 4.818126,11.728624 5.59937,0 -7.65387,-18.142123 7.26325,-17.291249 -5.59813,0 -4.428746,10.558999 -4.571499,-10.558999 -5.315,0 7.016624,17.291249 z"
   id="path21"
   inkscape:connector-curvature="0" /><path
   style="fill:#000000;fill-rule:nonzero;stroke:none"
   d="m 112.92588,44.243068 0,4.67775 6.30612,0 0,30.755622 5.20975,0 0,-30.755622 6.2,0 0,-4.67775 -17.71587,0 z"
   id="path23"
   inkscape:connector-curvature="0" /><path
   style="fill:#000000;fill-rule:nonzero;stroke:none"
   d="m 166.1105,65.989817 c 0,4.429999 1.47125,8.026124 4.41125,10.789874 2.835,2.622 6.36,3.931875 10.57625,3.931875 4.14625,0 7.5825,-1.593 10.31125,-4.78275 2.6225,-3.046875 3.93375,-6.766374 3.93375,-11.160874 0,-2.869875 -0.585,-5.598125 -1.75375,-8.184749 -1.24125,-2.765 -2.8175,-4.517875 -4.73125,-5.2625 3.3675,-2.799125 5.04875,-7.138624 5.04875,-13.021249 0,-3.36675 -1.345,-6.34275 -4.03875,-8.929499 -2.6575,-2.586625 -5.58,-3.879375 -8.77,-3.879375 -3.22375,0 -6.13,1.0095 -8.715,3.028625 -3.0125,2.303499 -4.52,5.297874 -4.52,8.983124 l 7.07,0.903375 c 0,-1.311125 0.67375,-2.533 2.02,-3.667 1.34625,-1.134125 2.64,-1.70175 3.87875,-1.70175 1.3125,0 2.5525,0.53225 3.72125,1.5955 1.27625,1.1695 1.91375,2.55125 1.91375,4.1455 0,2.019 -0.51375,3.95025 -1.54125,5.793499 -1.13375,1.983625 -2.445,2.976 -3.93375,2.976 l -3.135,0 0,7.494 4.5175,0 c 2.2325,0 3.79125,1.275625 4.6775,3.826874 0.46,1.41725 0.74375,3.525375 0.85,6.324375 0.0712,2.23275 -0.585,4.128499 -1.9675,5.687374 -1.38125,1.55875 -3.0275,2.33875 -4.9425,2.33875 -4.89,0 -7.33375,-2.409625 -7.33375,-7.228999 l -7.5475,0 z"
   id="path25"
   inkscape:connector-curvature="0" /><path
   style="fill:#000000;fill-rule:nonzero;stroke:none"
   d="m 255.06924,79.723941 -10.87375,-15.826374 10.87375,-11.087624 -7.75125,0 -10.60375,11.087624 0,-21.423373 -5.76125,0 0,37.249747 5.76125,0 0,-8.343499 3.55125,-3.55225 7.85875,11.895749 6.945,0 z"
   id="path27"
   inkscape:connector-curvature="0" /><path
   style="fill:#000000;fill-rule:nonzero;stroke:none"
   d="m 295.44049,79.723941 0,-15.395499 c 0,-4.1455 -0.3225,-6.190124 -1.29125,-7.805124 -1.4525,-2.691625 -4.3075,-4.14425 -7.805,-4.14425 -3.23,0 -5.4375,1.075375 -7.375,3.605875 -1.4525,-2.4755 -3.71375,-3.659625 -6.8375,-3.659625 -2.63625,0 -4.41375,0.806875 -6.4575,2.85275 l 0,-2.368125 -5.65375,0 0,26.913998 5.65375,0 0,-15.286749 c 0,-2.154625 0.2675,-3.392375 1.075,-4.414125 0.86125,-1.239 2.36875,-2.045874 3.82125,-2.045874 1.29375,0 2.64,0.592 3.3925,1.668624 0.7,0.96925 0.86125,1.829875 0.86125,4.629 l 0,15.449124 5.92125,0 0,-15.449124 c 0,-2.475625 0.16125,-3.391125 0.80875,-4.25175 0.91375,-1.29275 2.42125,-2.099624 3.92875,-2.099624 1.6675,0 3.01375,0.806874 3.66,2.152124 0.3775,0.808125 0.485,1.9385 0.485,4.19925 l 0,15.449124 5.8125,0 z"
   id="path29"
   inkscape:connector-curvature="0" /></svg>