<?xml version="1.0" encoding="UTF-8" standalone="no"?>
<!-- Created with Inkscape (http://www.inkscape.org/) -->

<svg
   xmlns:dc="http://purl.org/dc/elements/1.1/"
   xmlns:cc="http://creativecommons.org/ns#"
   xmlns:rdf="http://www.w3.org/1999/02/22-rdf-syntax-ns#"
   xmlns:svg="http://www.w3.org/2000/svg"
   xmlns="http://www.w3.org/2000/svg"
   xmlns:sodipodi="http://sodipodi.sourceforge.net/DTD/sodipodi-0.dtd"
   xmlns:inkscape="http://www.inkscape.org/namespaces/inkscape"
   width="212.59875"
   height="88.63884"
   id="svg3075"
   version="1.1"
   inkscape:version="0.48.4 r9939"
   sodipodi:docname="Ajax.svg">
  <defs
     id="defs3077" />
  <sodipodi:namedview
     id="base"
     pagecolor="#ffffff"
     bordercolor="#666666"
     borderopacity="1.0"
     inkscape:pageopacity="0.0"
     inkscape:pageshadow="2"
     inkscape:zoom="2.87"
     inkscape:cx="129.6734"
     inkscape:cy="17.1435"
     inkscape:document-units="px"
     inkscape:current-layer="ANZ"
     showgrid="false"
     borderlayer="true"
     inkscape:window-width="1280"
     inkscape:window-height="1001"
     inkscape:window-x="-8"
     inkscape:window-y="-8"
     inkscape:window-maximized="1"
     fit-margin-top="0"
     fit-margin-left="0"
     fit-margin-right="0"
     fit-margin-bottom="0" />
  <metadata
     id="metadata3080">
    <rdf:RDF>
      <cc:Work
         rdf:about="">
        <dc:format>image/svg+xml</dc:format>
        <dc:type
           rdf:resource="http://purl.org/dc/dcmitype/StillImage" />
        <dc:title />
      </cc:Work>
    </rdf:RDF>
  </metadata>
  <g
     inkscape:label="ANZ"
     inkscape:groupmode="layer"
     id="ANZ"
     transform="translate(-129.448,-975.06046)">
    <path
       inkscape:connector-curvature="0"
       style="fill:#ffdb00;fill-rule:nonzero;stroke:none"
       d="m 129.448,989.23396 c 0,-7.82829 6.34521,-14.1735 14.17363,-14.1735 l 184.25138,0 c 7.82625,0 14.17375,6.34521 14.17375,14.1735 l 0,60.29304 c 0,7.8271 -6.3475,14.1723 -14.17375,14.1723 l -184.25138,0 c -7.82842,0 -14.17363,-6.3452 -14.17363,-14.1723 l 0,-60.29304 z"
       id="path11" />
    <path
       inkscape:connector-curvature="0"
       style="fill:#000000;fill-rule:nonzero;stroke:none"
       d="m 131.92848,989.23401 c 0,-6.45871 5.23437,-11.69308 11.69311,-11.69308 l 184.25189,0 c 6.4575,0 11.6925,5.23437 11.6925,11.69308 l 0,60.29299 c 0,6.4575 -5.235,11.6919 -11.6925,11.6919 l -184.25189,0 c -6.45874,0 -11.69311,-5.2344 -11.69311,-11.6919 l 0,-60.29299 z"
       id="path13" />
    <path
       inkscape:connector-curvature="0"
       style="fill:#ffdb00;fill-rule:nonzero;stroke:none"
       d="m 135.82617,989.23401 c 0,-4.30538 3.48999,-7.79537 7.79542,-7.79537 l 184.25209,0 c 4.305,0 7.795,3.48999 7.795,7.79537 l 0,60.29299 c 0,4.3043 -3.49,7.7943 -7.795,7.7943 l -184.25209,0 c -4.30543,0 -7.79542,-3.49 -7.79542,-7.7943 l 0,-60.29299 z"
       id="path15" />
    <path
       inkscape:connector-curvature="0"
       style="fill:#000000;fill-rule:nonzero;stroke:none"
       d="m 179.076,1027.4462 c 0,3.8229 1.05225,6.8136 3.15585,8.9696 1.92595,1.9768 4.40268,2.9645 7.43122,2.9645 2.95167,0 5.4161,-0.9751 7.39239,-2.9256 2.05325,-2.0537 3.07988,-4.7483 3.07988,-8.0858 0,-6.4669 -3.69623,-11.5241 -11.08853,-15.1687 -1.74557,-0.8465 -2.61737,-2.336 -2.61737,-4.4657 0,-1.1037 0.48717,-2.0664 1.46254,-2.8876 0.8984,-0.7705 1.88699,-1.1545 2.96486,-1.1545 0.94967,0 1.86049,0.5 2.73329,1.5013 0.89831,0.9753 1.34751,1.9496 1.34751,2.9248 l 5.3126,0 c 0,-2.7709 -0.89751,-5.0816 -2.69432,-6.9296 -1.77112,-1.8735 -4.00473,-2.80971 -6.69908,-2.80971 -2.59264,0 -4.86428,0.88461 -6.81495,2.65581 -2.05317,1.8226 -3.07979,4.0292 -3.07979,6.6227 0,1.7194 0.37223,3.3492 1.1159,4.8893 0.74458,1.5141 1.7588,2.7337 3.04268,3.6573 1.77028,1.0776 3.54148,2.156 5.31259,3.2335 1.87378,1.3356 3.14445,3.0931 3.81113,5.2754 0.28206,0.9236 0.42359,1.81 0.42359,2.6557 0,1.6443 -0.46162,3.0161 -1.38565,4.1207 -0.89841,1.1029 -2.1045,1.6416 -3.61927,1.6163 -1.82243,-0.025 -3.13112,-0.5776 -3.92695,-1.6551 -0.7702,-1.0785 -1.16806,-2.7464 -1.19368,-5.0046 l -5.46644,0 z"
       id="path15-1" />
    <path
       inkscape:connector-curvature="0"
       style="fill:#000000;fill-rule:nonzero;stroke:none"
       d="m 208.48888,1000.1479 0,38.5018 19.25102,0 0,-5.0827 -13.78376,0 0,-33.4191 -5.46726,0 z"
       id="path17-7" />
    <path
       inkscape:connector-curvature="0"
       style="fill:#000000;fill-rule:evenodd;stroke:none"
       d="m 245.67961,1039.3803 c 3.74748,0 6.57083,-1.7964 8.47025,-5.3894 1.77112,-3.4137 2.65594,-8.2905 2.65594,-14.6306 0,-13.3206 -3.68255,-19.98111 -11.04922,-19.98111 -7.54623,0 -11.31843,6.66051 -11.31843,19.98111 0,13.3466 3.74657,20.02 11.24146,20.02 z m 0,-5.5442 c -2.18147,0 -3.73418,-1.3989 -4.65823,-4.1969 -0.74456,-2.2836 -1.11681,-5.71 -1.11681,-10.2789 0,-9.7538 1.92496,-14.6298 5.77504,-14.6298 3.82435,0 5.737,4.876 5.737,14.6298 0,9.6505 -1.91265,14.4758 -5.737,14.4758 z"
       id="path19-4" />
    <path
       inkscape:connector-curvature="0"
       style="fill:#000000;fill-rule:nonzero;stroke:none"
       d="m 263.54434,1000.1479 6.23599,38.5018 4.54367,0 3.77312,-19.7132 3.69614,19.7132 4.77458,0 5.85116,-38.5018 -5.50619,0 -2.96361,20.3669 -3.65721,-20.3669 -4.50563,0 -3.61829,20.0201 -3.1954,-20.0201 -5.42833,0 z"
       id="path21-0" />
  </g>
</svg>
