<?xml version="1.0" encoding="UTF-8" standalone="no"?>
<!-- Created with Inkscape (http://www.inkscape.org/) -->

<svg
   xmlns:dc="http://purl.org/dc/elements/1.1/"
   xmlns:cc="http://creativecommons.org/ns#"
   xmlns:rdf="http://www.w3.org/1999/02/22-rdf-syntax-ns#"
   xmlns:svg="http://www.w3.org/2000/svg"
   xmlns="http://www.w3.org/2000/svg"
   xmlns:sodipodi="http://sodipodi.sourceforge.net/DTD/sodipodi-0.dtd"
   xmlns:inkscape="http://www.inkscape.org/namespaces/inkscape"
   width="360.62402"
   height="360.65298"
   id="svg2"
   sodipodi:version="0.32"
   inkscape:version="0.48.2 r9819"
   version="1.0"
   sodipodi:docname="AJAX4.svg"
   inkscape:output_extension="org.inkscape.output.svg.inkscape">
  <defs
     id="defs4">
    <inkscape:perspective
       sodipodi:type="inkscape:persp3d"
       inkscape:vp_x="0 : 300.5 : 1"
       inkscape:vp_y="0 : 1000 : 0"
       inkscape:vp_z="601 : 300.5 : 1"
       inkscape:persp3d-origin="300.5 : 200.33333 : 1"
       id="perspective3380" />
    <inkscape:perspective
       id="perspective3990"
       inkscape:persp3d-origin="375 : 250 : 1"
       inkscape:vp_z="750 : 375 : 1"
       inkscape:vp_y="0 : 1000 : 0"
       inkscape:vp_x="0 : 375 : 1"
       sodipodi:type="inkscape:persp3d" />
  </defs>
  <sodipodi:namedview
     id="base"
     pagecolor="#ffffff"
     bordercolor="#666666"
     borderopacity="1.0"
     gridtolerance="10000"
     guidetolerance="10"
     objecttolerance="10"
     inkscape:pageopacity="0.0"
     inkscape:pageshadow="2"
     inkscape:zoom="1.0529557"
     inkscape:cx="11.526487"
     inkscape:cy="109.65934"
     inkscape:document-units="px"
     inkscape:current-layer="layer1"
     width="601px"
     height="601px"
     inkscape:window-width="1280"
     inkscape:window-height="1004"
     inkscape:window-x="-8"
     inkscape:window-y="-8"
     showgrid="false"
     fit-margin-top="0"
     fit-margin-left="0"
     fit-margin-right="0"
     fit-margin-bottom="0"
     inkscape:window-maximized="1"
     showguides="true"
     inkscape:guide-bbox="true" />
  <metadata
     id="metadata7">
    <rdf:RDF>
      <cc:Work
         rdf:about="">
        <dc:format>image/svg+xml</dc:format>
        <dc:type
           rdf:resource="http://purl.org/dc/dcmitype/StillImage" />
        <dc:title></dc:title>
      </cc:Work>
    </rdf:RDF>
  </metadata>
  <g
     inkscape:label="Layer 1"
     inkscape:groupmode="layer"
     id="layer1"
     transform="translate(-46.214603,783.49474)">
    <rect
       style="color:#000000;fill:#000000;fill-opacity:1;fill-rule:nonzero;stroke:none;stroke-width:0.8735441;marker:none;visibility:visible;display:inline;overflow:visible"
       id="rect3653"
       width="0"
       height="27.202072"
       x="578.73834"
       y="298.1684"
       rx="249.48199"
       ry="27.202072" />
    <path
       inkscape:connector-curvature="0"
       style="fill:#ffdb00;fill-rule:nonzero;stroke:none"
       d="m 401.46466,-616.14923 c 7.16625,7.16875 7.165,18.79 -0.002,25.9575 l -161.975,161.97375 c -7.1675,7.1675 -18.78875,7.16875 -25.955,0.001 l -161.943752,-161.971 c -7.16675,-7.1675 -7.165529,-18.78875 0.0024,-25.9575 L 213.56466,-778.11876 c 7.16875,-7.16797 18.7875,-7.16797 25.955,0 l 161.945,161.96953 z"
       id="path11" />
    <path
       inkscape:connector-curvature="0"
       style="fill:#000000;fill-rule:nonzero;stroke:none"
       d="m 54.51615,-593.54029 c -5.12085,-5.11875 -5.12085,-13.41875 -0.0012,-18.5375 L 217.3728,-774.91441 c 5.12,-5.1184 13.42,-5.11963 18.54125,0 l 162.8675,162.83287 c 5.12125,5.11875 5.12125,13.41875 0.001,18.5375 l -162.8575,162.8375 c -5.12,5.11875 -13.42,5.11875 -18.54125,0 L 54.51615,-593.54029 z"
       id="path13" />
    <path
       inkscape:connector-curvature="0"
       style="fill:#ffdb00;fill-rule:nonzero;stroke:none"
       d="m 59.276841,-598.30009 c -2.490188,-2.49125 -2.490188,-6.52875 0,-9.01875 L 222.1354,-770.15615 c 2.49,-2.49019 6.52875,-2.49019 9.01875,0 l 162.86875,162.83356 c 2.49125,2.49 2.49125,6.5275 0,9.01875 l -162.8575,162.835 c -2.49,2.49125 -6.52875,2.49125 -9.02,10e-4 L 59.276841,-598.30009 z"
       id="path15" />
    <path
       inkscape:connector-curvature="0"
       style="fill:#000000;fill-rule:nonzero;stroke:none"
       d="m 182.23996,-506.31141 0,-97.44025 -26.57512,0 6.543,16.77525 c 1.49775,3.61625 -0.21975,7.76 -3.83425,9.2575 -2.27175,0.94125 -4.74613,0.6175 -6.648,-0.65375 l -66.927499,-43.09525 66.927499,-43.09525 c 1.90187,-1.27075 4.37625,-1.59537 6.648,-0.65425 3.6145,1.49775 5.332,5.64213 3.83425,9.25825 l -6.53938,16.775 26.5715,0 88.93689,0 26.57125,0 -6.54125,-16.775 c -1.49626,-3.61612 0.22,-7.7605 3.83624,-9.25825 2.27125,-0.94112 4.74751,-0.6165 6.64751,0.65425 l 66.92624,43.094 -66.92624,43.0965 c -1.9,1.27125 -4.37626,1.59375 -6.64751,0.65375 -3.61625,-1.4975 -5.3325,-5.64125 -3.83625,-9.2575 l 6.53875,-16.77525 -26.56874,0 -16.65251,0 0,22.324 16.65251,0 0,10.98375 -16.65251,0 0,22.3225 16.65251,0 0,10.98375 -16.65251,0 0,22.32375 -10.985,0 0,-22.32375 -16.655,0 0,-10.98375 16.655,0 0,-22.3225 -16.655,0 0,-10.98375 16.655,0 0,-22.324 -38.97687,0 0,97.44025 -22.32251,0 z m 44.64438,-166.18137 16.655,0 0,-22.32175 -16.655,-10e-4 0,-10.98388 16.655,0 0,-22.323 10.985,0 0,22.323 16.6525,0 0,10.98388 -16.6525,10e-4 0,22.32175 16.6525,0 0,10.98512 -16.6525,0 0,22.3235 -10.985,0 0,-22.3235 -16.655,0 0,-10.98512 z"
       id="path17" />
  </g>
</svg>
