<?xml version="1.0" encoding="UTF-8" standalone="no"?>
<!-- Created with Inkscape (http://www.inkscape.org/) -->

<svg
   xmlns:dc="http://purl.org/dc/elements/1.1/"
   xmlns:cc="http://creativecommons.org/ns#"
   xmlns:rdf="http://www.w3.org/1999/02/22-rdf-syntax-ns#"
   xmlns:svg="http://www.w3.org/2000/svg"
   xmlns="http://www.w3.org/2000/svg"
   xmlns:sodipodi="http://sodipodi.sourceforge.net/DTD/sodipodi-0.dtd"
   xmlns:inkscape="http://www.inkscape.org/namespaces/inkscape"
   width="360.61948"
   height="360.63425"
   id="svg2"
   sodipodi:version="0.32"
   inkscape:version="0.48.2 r9819"
   version="1.0"
   sodipodi:docname="AJAX.svg"
   inkscape:output_extension="org.inkscape.output.svg.inkscape">
  <defs
     id="defs4">
    <inkscape:perspective
       sodipodi:type="inkscape:persp3d"
       inkscape:vp_x="0 : 300.5 : 1"
       inkscape:vp_y="0 : 1000 : 0"
       inkscape:vp_z="601 : 300.5 : 1"
       inkscape:persp3d-origin="300.5 : 200.33333 : 1"
       id="perspective3380" />
    <inkscape:perspective
       id="perspective3990"
       inkscape:persp3d-origin="375 : 250 : 1"
       inkscape:vp_z="750 : 375 : 1"
       inkscape:vp_y="0 : 1000 : 0"
       inkscape:vp_x="0 : 375 : 1"
       sodipodi:type="inkscape:persp3d" />
  </defs>
  <sodipodi:namedview
     id="base"
     pagecolor="#ffffff"
     bordercolor="#666666"
     borderopacity="1.0"
     gridtolerance="10000"
     guidetolerance="10"
     objecttolerance="10"
     inkscape:pageopacity="0.0"
     inkscape:pageshadow="2"
     inkscape:zoom="1.0529557"
     inkscape:cx="160.83691"
     inkscape:cy="235.35403"
     inkscape:document-units="px"
     inkscape:current-layer="layer1"
     width="601px"
     height="601px"
     inkscape:window-width="1280"
     inkscape:window-height="1004"
     inkscape:window-x="-8"
     inkscape:window-y="-8"
     showgrid="false"
     fit-margin-top="0"
     fit-margin-left="0"
     fit-margin-right="0"
     fit-margin-bottom="0"
     inkscape:window-maximized="1"
     showguides="true"
     inkscape:guide-bbox="true" />
  <metadata
     id="metadata7">
    <rdf:RDF>
      <cc:Work
         rdf:about="">
        <dc:format>image/svg+xml</dc:format>
        <dc:type
           rdf:resource="http://purl.org/dc/dcmitype/StillImage" />
        <dc:title></dc:title>
      </cc:Work>
    </rdf:RDF>
  </metadata>
  <g
     inkscape:label="Layer 1"
     inkscape:groupmode="layer"
     id="layer1"
     transform="translate(103.09582,627.21555)">
    <rect
       style="color:#000000;fill:#000000;fill-opacity:1;fill-rule:nonzero;stroke:none;stroke-width:0.8735441;marker:none;visibility:visible;display:inline;overflow:visible"
       id="rect3653"
       width="0"
       height="27.202072"
       x="578.73834"
       y="298.1684"
       rx="249.48199"
       ry="27.202072" />
    <path
       inkscape:connector-curvature="0"
       style="fill:#ffdb00;fill-rule:nonzero;stroke:none"
       d="m -97.720191,-459.87599 c -7.167499,7.1675 -7.167499,18.7875 0,25.955 l 161.968754,161.965 c 7.16625,7.16625 18.7875,7.16625 25.95375,0 l 161.946997,-161.965 c 7.16675,-7.1675 7.16553,-18.7875 -0.002,-25.955 L 90.181063,-621.84049 c -7.16875,-7.16675 -18.7875,-7.16675 -25.955,0 l -161.946254,161.9645 z"
       id="path11" />
    <path
       inkscape:connector-curvature="0"
       style="fill:#000000;fill-rule:nonzero;stroke:none"
       d="m 249.27091,-437.61939 c 5.12084,-5.11875 5.12084,-13.42 0.001,-18.54 L 86.414255,-619.00601 c -5.12,-5.11963 -13.42125,-5.11963 -18.54125,0 l -162.864996,162.84662 c -5.119999,5.12 -5.119999,13.42125 0,18.54 l 162.857496,162.8475 c 5.12,5.12 13.42125,5.12 18.54125,0 l 162.864155,-162.8475 z"
       id="path13" />
    <path
       inkscape:connector-curvature="0"
       style="fill:#ffdb00;fill-rule:nonzero;stroke:none"
       d="m 244.41008,-442.48055 c 2.49144,-2.49 2.49144,-6.52875 0,-9.01875 L 81.551517,-614.34665 c -2.49,-2.4914 -6.5275,-2.4914 -9.01875,0 L -90.330981,-451.4993 c -2.4925,2.49 -2.4925,6.52875 -0.001,9.01875 L 72.525267,-279.6343 c 2.49125,2.49125 6.52875,2.49125 9.02,0 L 244.41008,-442.48055 z"
       id="path15" />
    <path
       inkscape:connector-curvature="0"
       style="fill:#000000;fill-rule:nonzero;stroke:none"
       d="m -29.015291,-436.31239 56.26875,0 0,22.32387 -16.65375,0 0,10.98375 16.65375,0.001 0,22.32125 -16.65375,0 0,10.985 16.65375,0 0,22.32375 10.98375,0 0,-22.32375 16.653368,0 0,-10.985 -16.653368,0 0,-22.32125 16.653368,-0.001 0,-10.98375 -16.653368,0 0,-22.32387 65.552121,0 0,88.93887 35.4315,0 0,-140.13513 16.77612,6.54 c 3.6145,1.4975 7.76001,-0.22 9.25663,-3.835 0.94113,-2.27125 0.6165,-4.74625 -0.65425,-6.6475 l -43.095,-66.92737 -43.095001,66.92737 c -1.27125,1.90125 -1.595,4.37625 -0.655,6.6475 1.49875,3.615 5.64375,5.3325 9.25875,3.835 l 16.776251,-6.54 0,28.875 -65.552121,0 0,-22.3225 16.653368,0 0,-10.98625 -16.653368,0 0,-22.32237 16.653368,0 0,-10.98388 -16.653368,0 0,-22.323 -10.98375,0 0,22.323 -16.65375,0 0,10.98388 16.65375,0 0,22.32237 -16.65375,0 0,10.98625 16.65375,0 0,22.3225 -56.26875,0 0,22.32126 z"
       id="path17" />
  </g>
</svg>
