<?xml version="1.0" encoding="UTF-8" standalone="no"?>
<!-- Created with Inkscape (http://www.inkscape.org/) -->

<svg
   xmlns:dc="http://purl.org/dc/elements/1.1/"
   xmlns:cc="http://creativecommons.org/ns#"
   xmlns:rdf="http://www.w3.org/1999/02/22-rdf-syntax-ns#"
   xmlns:svg="http://www.w3.org/2000/svg"
   xmlns="http://www.w3.org/2000/svg"
   xmlns:sodipodi="http://sodipodi.sourceforge.net/DTD/sodipodi-0.dtd"
   xmlns:inkscape="http://www.inkscape.org/namespaces/inkscape"
   id="svg17624"
   version="1.1"
   inkscape:version="0.48.2 r9819"
   width="416.5625"
   height="387.92969"
   xml:space="preserve"
   sodipodi:docname="AJAX1.svg"><metadata
     id="metadata17630"><rdf:RDF><cc:Work
         rdf:about=""><dc:format>image/svg+xml</dc:format><dc:type
           rdf:resource="http://purl.org/dc/dcmitype/StillImage" /><dc:title></dc:title></cc:Work></rdf:RDF></metadata><defs
     id="defs17628"><inkscape:perspective
       sodipodi:type="inkscape:persp3d"
       inkscape:vp_x="0 : 0.5 : 1"
       inkscape:vp_y="0 : 1000 : 0"
       inkscape:vp_z="1 : 0.5 : 1"
       inkscape:persp3d-origin="0.5 : 0.33333333 : 1"
       id="perspective17632" /><clipPath
       clipPathUnits="userSpaceOnUse"
       id="clipPath17642"><path
         d="m -2,710 501,0 0,-711 -501,0 0,711 z"
         id="path17644"
         inkscape:connector-curvature="0" /></clipPath><clipPath
       clipPathUnits="userSpaceOnUse"
       id="clipPath17648"><path
         d="m 0,708.06 498,0 0,-708 -498,0 0,708 z"
         id="path17650"
         inkscape:connector-curvature="0" /></clipPath><clipPath
       clipPathUnits="userSpaceOnUse"
       id="clipPath17798"><path
         d="m -2,710 501,0 0,-711 -501,0 0,711 z"
         id="path17800"
         inkscape:connector-curvature="0" /></clipPath><clipPath
       clipPathUnits="userSpaceOnUse"
       id="clipPath17804"><path
         d="m 0,708.06 498,0 0,-708 -498,0 0,708 z"
         id="path17806"
         inkscape:connector-curvature="0" /></clipPath><clipPath
       id="Clip0"><path
         inkscape:connector-curvature="0"
         d="m 0,0 212.597,0 0,269.292 L 0,269.292 0,0 z"
         transform="translate(0.923828,0.879883)"
         id="path7" /></clipPath></defs><sodipodi:namedview
     pagecolor="#ffffff"
     bordercolor="#666666"
     borderopacity="1"
     objecttolerance="10"
     gridtolerance="10"
     guidetolerance="10"
     inkscape:pageopacity="0"
     inkscape:pageshadow="2"
     inkscape:window-width="1280"
     inkscape:window-height="1004"
     id="namedview17626"
     showgrid="false"
     inkscape:zoom="1.0853633"
     inkscape:cx="107.30073"
     inkscape:cy="100.56906"
     inkscape:window-x="-8"
     inkscape:window-y="-8"
     inkscape:window-maximized="1"
     inkscape:current-layer="g17634"
     fit-margin-top="0"
     fit-margin-left="0"
     fit-margin-right="0"
     fit-margin-bottom="0"
     showguides="true"
     inkscape:guide-bbox="true" /><g
     id="g17634"
     inkscape:groupmode="layer"
     inkscape:label="GG1999P002"
     transform="matrix(1.25,0,0,-1.25,-42.96875,-279.25781)"><path
       inkscape:connector-curvature="0"
       style="fill:#ffffff;fill-rule:nonzero;stroke:#000000;stroke-width:1.60000002;stroke-linecap:butt;stroke-linejoin:miter;stroke-miterlimit:4;stroke-opacity:1;stroke-dasharray:none"
       d="m 35.178289,-246.8868 c 0,12.5244 10.1523,22.6777 22.6767,22.6777 l 286.300301,0 c 12.524,0 22.677,-10.1533 22.677,-22.6777 l 0,-263.39479 c 0,-12.524 -10.153,-22.677 -22.677,-22.677 l -286.300301,0 c -12.5244,0 -22.6767,10.153 -22.6767,22.677 z"
       id="path11"
       sodipodi:nodetypes="sssssssss" /><path
       inkscape:connector-curvature="0"
       style="fill:#c0111e;fill-opacity:1;fill-rule:nonzero;stroke:none"
       d="m 42.264229,-246.88681 c 0,8.61036 6.98049,15.5908 15.5908,15.5908 l 286.300201,0 c 8.61,0 15.59,-6.98044 15.59,-15.5908 l 0,-263.39469 c 0,-8.61 -6.98,-15.59 -15.59,-15.59 l -286.300201,0 c -8.61031,0 -15.5908,6.98 -15.5908,15.59 z"
       id="path13"
       sodipodi:nodetypes="sssssssss" /><path
       inkscape:connector-curvature="0"
       style="fill:#ffffff;fill-rule:nonzero;stroke:none"
       d="m 92.440017,-252.81654 245.478303,-141.72701 -28.346,-49.096 -245.478001,141.7273 28.345698,49.09571 z"
       id="path15" /><path
       inkscape:connector-curvature="0"
       style="fill:#ffffff;fill-rule:nonzero;stroke:none"
       d="m 64.045519,-394.65665 245.477001,141.72101 28.347,-49.09571 -245.477403,-141.7203 -28.346598,49.095 z"
       id="path17" /><path
       inkscape:connector-curvature="0"
       style="fill:#000000;fill-rule:nonzero;stroke:none"
       d="m 119.90581,-290.32045 5.9688,-0.6972 c 0.5156,5.5791 -1.6592,9.7734 -6.5254,12.583 -4.0371,2.331 -8.19529,2.0556 -12.47759,-0.8252 -3.3164,-2.2159 -6.2363,-5.5352 -8.758803,-9.9551 -2.5742,-4.5078 -3.8457,-8.7774 -3.8173,-12.8086 0.0566,-4.8916 2.125,-8.5147 6.205003,-10.8701 2.3789,-1.3731 4.8799,-1.8281 7.5039,-1.3653 2.4776,0.461 4.7745,1.6944 6.89359,3.7002 l -4.11229,3.9893 c -0.9629,-0.8115 -2.2354,-1.3271 -3.8184,-1.5488 -1.5595,-0.2334 -2.8203,-0.0733 -3.7802,0.4814 -2.4219,1.3985 -3.455103,3.8418 -3.0996,7.3311 0.2841,2.6582 1.207,5.3408 2.7695,8.0459 1.8135,3.1425 3.706,5.5117 5.6758,7.1093 2.9453,2.4307 5.77049,2.8653 8.47649,1.3028 1.2002,-0.6934 2.0127,-1.5547 2.4356,-2.584 0.4365,-1.0088 0.5898,-2.3047 0.4609,-3.8887 z"
       id="path19" /><path
       inkscape:connector-curvature="0"
       style="fill:#000000;fill-rule:evenodd;stroke:none"
       d="m 137.52691,-296.61045 6.874,-3.9678 c 1.068,-0.6172 1.804,-1.5371 2.204,-2.7568 0.423,-1.2334 0.345,-2.3516 -0.235,-3.3555 -0.617,-1.0693 -1.549,-1.8262 -2.794,-2.2705 -1.337,-0.4502 -2.539,-0.3672 -3.609,0.25 l -7.0699,4.082 4.6299,8.0186 z m -2.026,7.9785 -18.8978,-32.7295 4.9746,-2.8725 8.2773,14.3354 6.3169,-3.6475 -2.9751,-17.3969 5.3031,-3.061 3.06,18.831 c 4.461,0.2178 7.636,1.9629 9.526,5.2353 1.423,2.4659 1.792,5.1192 1.104,7.96 -0.652,2.8506 -2.169,4.9609 -4.547,6.335 l -12.142,7.0107 z"
       id="path21" /><path
       inkscape:connector-curvature="0"
       style="fill:#000000;fill-rule:evenodd;stroke:none"
       d="m 155.51991,-344.65895 c 4.211,-2.432 8.312,-2.385 12.301,0.14 3.122,1.981 6.094,5.414 8.916,10.302 2.86,4.953 4.213,9.54 4.06,13.7588 -0.162,4.4571 -2.042,7.7256 -5.643,9.8037 -7.681,4.4346 -14.79,0.9893 -21.328,-10.3349 -3.339,-5.7826 -4.778,-10.7416 -4.314,-14.8776 0.426,-3.796 2.43,-6.727 6.008,-8.792 z m 2.986,5.171 c -4.277,2.468 -4.135,7.653 0.425,15.551 2.381,4.1243 4.659,6.8099 6.833,8.056 2.059,1.1972 4.168,1.1719 6.328,-0.0752 4.06,-2.3438 3.84,-7.4088 -0.658,-15.1988 -2.393,-4.146 -4.646,-6.889 -6.759,-8.23 -2.04,-1.267 -4.096,-1.301 -6.169,-0.103 z"
       id="path23" /><path
       inkscape:connector-curvature="0"
       style="fill:#000000;fill-rule:nonzero;stroke:none"
       d="m 177.69091,-346.24495 c -0.56,-2.935 -0.107,-5.931 1.357,-8.989 1.356,-2.79 3.093,-4.795 5.209,-6.018 3.186,-1.839 6.294,-2.325 9.328,-1.457 3.032,0.867 5.449,2.861 7.25,5.981 1.184,2.051 1.664,4.218 1.44,6.5 -0.228,2.024 -0.985,3.988 -2.27,5.894 -0.582,0.859 -1.635,1.831 -3.162,2.916 -1.719,1.255 -2.786,2.103 -3.199,2.546 -0.542,0.574 -0.87,1.316 -0.984,2.226 -0.103,0.932 0.055,1.758 0.471,2.478 0.654,1.135 1.724,1.928 3.208,2.381 1.517,0.462 2.874,0.318 4.071,-0.431 2.537,-1.553 3.529,-3.638 2.977,-6.257 l 5.695,-1.324 c 0.485,3.007 0.319,5.517 -0.496,7.53 -0.795,2 -2.316,3.65 -4.563,4.948 -2.771,1.599 -5.675,2.039 -8.709,1.319 -3.185,-0.779 -5.653,-2.687 -7.404,-5.719 -1.437,-2.488 -1.71,-4.977 -0.821,-7.47 0.802,-2.237 1.95,-3.903 3.442,-4.998 2.918,-2.15 4.73,-4.026 5.435,-5.626 0.644,-1.505 0.461,-3.131 -0.545,-4.878 -0.643,-1.112 -1.744,-1.858 -3.302,-2.239 -1.524,-0.372 -2.809,-0.255 -3.856,0.35 -1.898,1.096 -3.192,2.307 -3.88,3.637 -0.666,1.315 -0.928,3.154 -0.787,5.515 l -5.905,1.185 z"
       id="path25" /><path
       inkscape:connector-curvature="0"
       style="fill:#000000;fill-rule:nonzero;stroke:none"
       d="m 205.54491,-362.32695 c -0.561,-2.935 -0.108,-5.931 1.356,-8.988 1.356,-2.79 3.094,-4.796 5.21,-6.018 3.186,-1.839 6.295,-2.325 9.327,-1.457 3.032,0.867 5.449,2.861 7.25,5.981 1.185,2.051 1.664,4.218 1.441,6.5 -0.229,2.023 -0.986,3.988 -2.271,5.894 -0.581,0.858 -1.634,1.83 -3.16,2.915 -1.721,1.255 -2.787,2.103 -3.2,2.546 -0.542,0.574 -0.87,1.316 -0.985,2.226 -0.101,0.932 0.055,1.758 0.471,2.478 0.655,1.135 1.725,1.929 3.208,2.381 1.518,0.463 2.875,0.319 4.071,-0.431 2.537,-1.552 3.53,-3.638 2.978,-6.257 l 5.694,-1.324 c 0.486,3.008 0.32,5.518 -0.496,7.531 -0.794,2 -2.315,3.65 -4.562,4.947 -2.772,1.6 -5.675,2.04 -8.709,1.319 -3.186,-0.779 -5.654,-2.686 -7.405,-5.719 -1.436,-2.487 -1.71,-4.977 -0.821,-7.469 0.803,-2.238 1.95,-3.904 3.442,-4.999 2.918,-2.15 4.731,-4.025 5.437,-5.625 0.643,-1.507 0.461,-3.132 -0.547,-4.878 -0.642,-1.113 -1.743,-1.859 -3.302,-2.24 -1.523,-0.371 -2.808,-0.255 -3.855,0.35 -1.899,1.096 -3.192,2.308 -3.88,3.636 -0.666,1.316 -0.929,3.155 -0.786,5.517 l -5.906,1.184 z"
       id="path27" /><path
       inkscape:connector-curvature="0"
       style="fill:#000000;fill-rule:nonzero;stroke:none"
       d="m 230.30791,-387.00995 5.139,-2.967 18.897,32.73 -5.138,2.967 -18.898,-32.73 z"
       id="path29" /><path
       inkscape:connector-curvature="0"
       style="fill:#000000;fill-rule:nonzero;stroke:none"
       d="m 262.00291,-361.66895 -18.898,-32.73 5.073,-2.928 12.207,21.142 0.23,-28.324 4.38701,-2.532 18.897,32.73 -5.172,2.986 -12.303,-21.307 -0.134,28.487 -4.28701,2.476 z"
       id="path31" /><path
       inkscape:connector-curvature="0"
       style="fill:#000000;fill-rule:nonzero;stroke:none"
       d="m 303.07092,-396.50895 5.757,-1.142 c 0.433,2.717 0.151,5.251 -0.848,7.603 -0.986,2.373 -2.571,4.189 -4.753,5.449 -7.702,4.447 -14.98,0.737 -21.834,-11.134 -2.545,-4.407 -3.804,-8.553 -3.778,-12.438 0.036,-4.675 2.028,-8.152 5.978,-10.433 2.749,-1.588 5.727,-1.999 8.934,-1.231 3.22,0.789 5.61,2.536 7.173,5.242 l 3.949,6.84 -10.638,6.142 -2.985,-5.171 5.564,-3.213 -1.209,-2.095 c -0.517,-0.895 -1.567,-1.554 -3.15,-1.978 -1.768,-0.492 -3.285,-0.373 -4.551,0.358 -2.335,1.348 -3.399,3.534 -3.196,6.558 0.162,2.497 1.137,5.293 2.926,8.392 2.054,3.557 3.903,6.081 5.551,7.574 2.711,2.479 5.43,2.931 8.159,1.356 1.221,-0.705 2.062,-1.642 2.523,-2.81 0.349,-0.958 0.491,-2.248 0.428,-3.869 z"
       id="path33" /><path
       inkscape:connector-curvature="0"
       style="fill:#000000;fill-rule:nonzero;stroke:none"
       d="m 229.04091,-310.29605 24.2,-29.6689 3.862,2.23 -6.468,18.6089 12.819,-14.9439 4.05701,2.344 -13.92201,35.6018 -4.681,-2.7021 7.477,-18.7696 -13.106,15.5196 -3.83,-2.211 6.751,-18.7959 -12.544,15.4512 -4.615,-2.6641 z"
       id="path35" /><path
       inkscape:connector-curvature="0"
       style="fill:#000000;fill-rule:evenodd;stroke:none"
       d="m 276.08192,-308.62515 -2.793,10.128 7.407,-7.4629 -4.614,-2.6651 z m 0.039,-18.1308 4.745,2.74 -3.061,10.3645 6.677,3.8554 7.61,-7.7382 4.681,2.7021 -27.113,27.9863 -4.615,-2.664 11.076,-37.2461 z"
       id="path37" /><path
       inkscape:connector-curvature="0"
       style="fill:#000000;fill-rule:nonzero;stroke:none"
       d="m 281.47492,-280.02355 18.469,-13.166 8.579,-14.8594 4.812,2.7783 -8.579,14.8594 -2.627,22.31051 -4.943,-2.8535 1.491,-14.67481 -12.096,8.5528 -5.106,-2.9473 z"
       id="path39" /><path
       inkscape:connector-curvature="0"
       style="fill:#000000;fill-rule:evenodd;stroke:none"
       d="m 105.71832,-403.88195 c 1.1514,1.333 1.707,3.065 1.669,5.196 -0.0489,1.95 -0.5586,3.765 -1.5284,5.446 -1.248,2.16 -3.0595,3.76 -5.4365,4.803 -2.539003,1.123 -4.779303,1.124 -6.722603,0.003 l -10.9639,-6.3302 18.898403,-32.729 4.5157,2.607 -8.768603,15.187 4.254903,2.456 13.12209,-12.673 4.8769,2.815 -13.91699,13.219 z m -5.3301,2.202 -5.727503,-3.306 -4.7061,8.149 5.7608,3.326 c 1.9639,1.134 3.7207,0.359 5.270503,-2.325 0.6299,-1.091 0.9248,-2.156 0.8857,-3.197 -0.0283,-1.21 -0.5234,-2.092 -1.4834,-2.647 z"
       id="path41" /><path
       inkscape:connector-curvature="0"
       style="fill:#000000;fill-rule:evenodd;stroke:none"
       d="m 124.86681,-395.92695 -2.793,10.128 7.4072,-7.463 -4.6142,-2.665 z m 0.038,-18.131 4.7461,2.739 -3.0605,10.366 6.6767,3.854 7.6108,-7.737 4.68,2.702 -27.114,27.986 -4.6143,-2.664 11.0752,-37.246 z"
       id="path43" /><path
       inkscape:connector-curvature="0"
       style="fill:#000000;fill-rule:nonzero;stroke:none"
       d="m 150.69592,-399.16795 4.583,2.645 -18.898,32.731 -4.5825,-2.646 18.8975,-32.73 z"
       id="path45" /><path
       inkscape:connector-curvature="0"
       style="fill:#000000;fill-rule:nonzero;stroke:none"
       d="m 143.35091,-359.76795 18.899,-32.73 16.365,9.448 -2.494,4.32 -11.718,-6.764 -16.404,28.409 -4.648,-2.683 z"
       id="path47" /><path
       style="fill:#ffffff;stroke:none"
       d="m 184.00423,-424.85625 0,-42.525 -32.6,0 0,-36.85 99.2,0 0,36.85 -32.6,0 0,42.525 -34,0 z"
       id="path11-2"
       inkscape:connector-curvature="0" /><path
       inkscape:connector-curvature="0"
       style="fill:#000000;fill-rule:nonzero;stroke:none"
       d="m 156.50492,-475.16107 0,-2.80671 3.78417,0 0,-18.45309 3.125,0 0,18.45309 3.72073,0 0,2.80671 -10.6299,0 z"
       id="path17-7" /><path
       inkscape:connector-curvature="0"
       style="fill:#000000;fill-rule:evenodd;stroke:none"
       d="m 179.63479,-486.06738 c 0.9365,0.3252 1.6944,1.01271 2.2754,2.06151 0.5244,0.96389 0.7861,1.9912 0.7861,3.083 0,1.4034 -0.4316,2.6924 -1.2959,3.8692 -0.9218,1.26169 -2.0127,1.8916 -3.2744,1.8926 l -7.122,0 0,-21.2598 2.9336,0 0,9.86429 2.7636,0 2.8281,-9.86429 3.167,0 -3.0615,10.35349 z m -1.9765,2.57131 -3.7207,0 0,5.29389 3.7421,0 c 1.2754,0 1.9131,-0.87109 1.9131,-2.6142 0,-0.709 -0.1562,-1.31149 -0.4677,-1.8076 -0.3545,-0.58109 -0.8428,-0.87209 -1.4668,-0.87209 z"
       id="path19-6" /><path
       inkscape:connector-curvature="0"
       style="fill:#000000;fill-rule:evenodd;stroke:none"
       d="m 191.30669,-487.57718 1.4883,5.7188 1.5097,-5.7188 -2.998,0 z m -5.0811,-8.84369 3.083,0 1.4239,5.91009 4.3369,0 1.5312,-5.91009 3.0401,0 -5.336,21.2598 -2.998,0 -5.0811,-21.2598 z"
       id="path21-1" /><path
       inkscape:connector-curvature="0"
       style="fill:#000000;fill-rule:nonzero;stroke:none"
       d="m 212.01269,-490.76658 c 0,-0.9072 -0.2334,-1.6514 -0.7011,-2.2324 -0.4678,-0.58109 -1.0489,-0.87109 -1.7432,-0.87109 -2.1963,0 -3.2949,2.834 -3.2949,8.50389 0,1.82811 0.1621,3.3662 0.4883,4.61331 0.5244,1.98429 1.4248,2.97649 2.7002,2.97649 0.6806,0 1.2754,-0.26949 1.7861,-0.8086 0.5098,-0.53809 0.7646,-1.11229 0.7646,-1.7216 l 2.9561,0 c 0,1.6582 -0.5176,2.998 -1.5527,4.01851 -1.0342,1.0342 -2.3526,1.5518 -3.9541,1.5518 -4.1104,0 -6.1651,-3.543 -6.1651,-10.62991 0,-3.23149 0.3115,-5.71189 0.9356,-7.4414 0.9775,-2.67869 2.7422,-4.0176 5.2939,-4.0176 1.6289,0 2.9473,0.53811 3.9541,1.6152 1.0059,1.0918 1.5088,2.57331 1.5088,4.4434 l -2.9766,0 z"
       id="path23-4" /><path
       inkscape:connector-curvature="0"
       style="fill:#000000;fill-rule:nonzero;stroke:none"
       d="m 218.58209,-475.16107 0,-21.2598 2.9765,0 0,6.65329 2.0411,3.5508 3.5293,-10.20409 3.1464,0 -4.7627,13.6904 4.21,7.5694 -3.5078,0 -4.6563,-8.44051 0,8.44051 -2.9765,0 z"
       id="path25-2" /><path
       inkscape:connector-curvature="0"
       style="fill:#000000;fill-rule:nonzero;stroke:none"
       d="m 233.91019,-490.23538 c 0,-2.11129 0.5811,-3.76269 1.7432,-4.95309 1.0634,-1.0918 2.4306,-1.63671 4.1035,-1.63671 1.6299,0 2.9912,0.53811 4.082,1.6152 1.1338,1.1338 1.7012,2.62211 1.7012,4.46491 0,3.57129 -2.042,6.3642 -6.1231,8.376 -0.9638,0.46869 -1.4462,1.29 -1.4462,2.46669 0,0.6094 0.2695,1.14071 0.8085,1.5938 0.4961,0.4258 1.042,0.63771 1.6368,0.63771 0.5244,0 1.0273,-0.2754 1.5097,-0.82911 0.4961,-0.53809 0.7432,-1.0762 0.7432,-1.6152 l 2.93461,0 c 0,1.5302 -0.49611,2.8066 -1.48831,3.82711 -0.9776,1.0342 -2.211,1.5518 -3.6992,1.5518 -1.4317,0 -2.6856,-0.48931 -3.7627,-1.4668 -1.1348,-1.00691 -1.7012,-2.2256 -1.7012,-3.65731 0,-0.9492 0.2051,-1.8496 0.6162,-2.6992 0.4111,-0.83689 0.9707,-1.50969 1.6797,-2.02049 0.9785,-0.59471 1.9561,-1.1904 2.9346,-1.78511 1.0341,-0.73729 1.7353,-1.70809 2.1045,-2.91309 0.1552,-0.5098 0.2334,-0.99911 0.2334,-1.4668 0,-0.90731 -0.2549,-1.66511 -0.7657,-2.2744 -0.4961,-0.6094 -1.1621,-0.90731 -1.998,-0.8936 -1.0059,0.0147 -1.7285,0.31929 -2.169,0.91409 -0.4248,0.59571 -0.6445,1.5166 -0.6582,2.7636 l -3.0195,0 z"
       id="path27-3" /><path
       style="font-size:medium;font-style:normal;font-variant:normal;font-weight:normal;font-stretch:normal;text-indent:0;text-align:start;text-decoration:none;line-height:normal;letter-spacing:normal;word-spacing:normal;text-transform:none;direction:ltr;block-progression:tb;writing-mode:lr-tb;text-anchor:start;baseline-shift:baseline;color:#000000;fill:#000000;fill-opacity:1;stroke:none;stroke-width:0.76529968;marker:none;visibility:visible;display:inline;overflow:visible;enable-background:accumulate;font-family:Sans;-inkscape-font-specification:Sans"
       d="m 191.56658,-462.68125 7.65625,0 0,-0.75 -7.65625,0 z m 11.46875,0 7.65625,0 0,-0.75 -7.65625,0 z m -13.9375,9 0.75,0 0,-7.65625 -0.75,0 z m 23.03125,0.28125 0.78125,0 0,-7.65625 -0.78125,0 z m -23.03125,11.1875 0.75,0 0,-7.65625 -0.75,0 z m 23.03125,0.28125 0.78125,0 0,-7.65625 -0.78125,0 z m -23.03125,11.1875 0.375,0 0,0.53125 7.65625,0 0,-0.75 -7.28125,0 0,-7.4375 -0.75,0 z m 23.03125,0.15625 0.28125,0 0,0.375 0.0937,0 0.40625,0 0,-0.375 0,-7.53125 -0.78125,0 z m -11.1875,0.375 7.65625,0 0,-0.75 -7.65625,0 z"
       id="path3097"
       inkscape:connector-curvature="0" /></g></svg>