<?xml version="1.0" encoding="UTF-8" standalone="no"?>
<!-- Created with Inkscape (http://www.inkscape.org/) -->

<svg
   xmlns:dc="http://purl.org/dc/elements/1.1/"
   xmlns:cc="http://creativecommons.org/ns#"
   xmlns:rdf="http://www.w3.org/1999/02/22-rdf-syntax-ns#"
   xmlns:svg="http://www.w3.org/2000/svg"
   xmlns="http://www.w3.org/2000/svg"
   xmlns:sodipodi="http://sodipodi.sourceforge.net/DTD/sodipodi-0.dtd"
   xmlns:inkscape="http://www.inkscape.org/namespaces/inkscape"
   id="svg17624"
   version="1.1"
   inkscape:version="0.48.2 r9819"
   width="360.62723"
   height="360.6127"
   xml:space="preserve"
   sodipodi:docname="AA8.svg"><metadata
     id="metadata17630"><rdf:RDF><cc:Work
         rdf:about=""><dc:format>image/svg+xml</dc:format><dc:type
           rdf:resource="http://purl.org/dc/dcmitype/StillImage" /><dc:title></dc:title></cc:Work></rdf:RDF></metadata><defs
     id="defs17628"><inkscape:perspective
       sodipodi:type="inkscape:persp3d"
       inkscape:vp_x="0 : 0.5 : 1"
       inkscape:vp_y="0 : 1000 : 0"
       inkscape:vp_z="1 : 0.5 : 1"
       inkscape:persp3d-origin="0.5 : 0.33333333 : 1"
       id="perspective17632" /><clipPath
       clipPathUnits="userSpaceOnUse"
       id="clipPath17642"><path
         d="m -2,710 501,0 0,-711 -501,0 0,711 z"
         id="path17644"
         inkscape:connector-curvature="0" /></clipPath><clipPath
       clipPathUnits="userSpaceOnUse"
       id="clipPath17648"><path
         d="m 0,708.06 498,0 0,-708 -498,0 0,708 z"
         id="path17650"
         inkscape:connector-curvature="0" /></clipPath><clipPath
       clipPathUnits="userSpaceOnUse"
       id="clipPath17798"><path
         d="m -2,710 501,0 0,-711 -501,0 0,711 z"
         id="path17800"
         inkscape:connector-curvature="0" /></clipPath><clipPath
       clipPathUnits="userSpaceOnUse"
       id="clipPath17804"><path
         d="m 0,708.06 498,0 0,-708 -498,0 0,708 z"
         id="path17806"
         inkscape:connector-curvature="0" /></clipPath><clipPath
       id="Clip0"><path
         inkscape:connector-curvature="0"
         d="m 0,0 212.597,0 0,269.292 L 0,269.292 0,0 z"
         transform="translate(0.923828,0.879883)"
         id="path7" /></clipPath><clipPath
       id="Clip0-8"><path
         inkscape:connector-curvature="0"
         d="m 0,0 170.079,0 0,113.386 L 0,113.386 0,0 z"
         transform="translate(0.0986328,0.822266)"
         id="path7-8" /></clipPath><clipPath
       id="Clip0-1"><path
         inkscape:connector-curvature="0"
         d="m 0,0 287.009,0 0,159.449 L 0,159.449 0,0 z"
         transform="translate(0.396484,0.267578)"
         id="path7-7" /></clipPath><clipPath
       id="Clip0-9"><path
         inkscape:connector-curvature="0"
         d="m 0,0 170.079,0 0,170.079 L 0,170.079 0,0 z"
         transform="translate(0.460938,0.775391)"
         id="path7-4" /></clipPath><clipPath
       id="Clip0-4"><path
         inkscape:connector-curvature="0"
         d="m 0,0 340.157,0 0,226.771 L 0,226.771 0,0 z"
         transform="translate(0.921875,0.25293)"
         id="path7-5" /></clipPath><clipPath
       id="Clip0-5"><path
         inkscape:connector-curvature="0"
         d="m 0,0 255.119,0 0,170.079 L 0,170.079 0,0 z"
         transform="translate(0.147461,0.0595703)"
         id="path7-1" /></clipPath><clipPath
       id="Clip0-0"><path
         inkscape:connector-curvature="0"
         d="m 0,0 170.079,0 0,113.386 L 0,113.386 0,0 z"
         transform="translate(0.0673828,0.207031)"
         id="path7-9" /></clipPath></defs><sodipodi:namedview
     pagecolor="#ffffff"
     bordercolor="#666666"
     borderopacity="1"
     objecttolerance="10"
     gridtolerance="10"
     guidetolerance="10"
     inkscape:pageopacity="0"
     inkscape:pageshadow="2"
     inkscape:window-width="1280"
     inkscape:window-height="1004"
     id="namedview17626"
     showgrid="false"
     inkscape:zoom="1.4142136"
     inkscape:cx="133.89395"
     inkscape:cy="135.09883"
     inkscape:window-x="-8"
     inkscape:window-y="-8"
     inkscape:window-maximized="1"
     inkscape:current-layer="g17634"
     fit-margin-top="0"
     fit-margin-left="0"
     fit-margin-right="0"
     fit-margin-bottom="0"
     showguides="true"
     inkscape:guide-bbox="true" /><g
     id="g17634"
     inkscape:groupmode="layer"
     inkscape:label="GG1999P002"
     transform="matrix(1.25,0,0,-1.25,2888.5284,-1112.0122)"><path
       inkscape:connector-curvature="0"
       style="fill:#ffdb00;fill-rule:nonzero;stroke:none"
       d="m -2026.6211,-1023.4734 c 5.734,-5.733 5.733,-15.029 0,-20.763 l -129.572,-129.563 c -5.734,-5.734 -15.03,-5.734 -20.764,0 l -129.5656,129.563 c -5.7334,5.734 -5.7334,15.03 0,20.763 l 129.5706,129.5636 c 5.734,5.7334 15.03,5.7334 20.764,0 l 129.566,-129.5636 z"
       id="path11" /><path
       inkscape:connector-curvature="0"
       style="fill:#000000;fill-rule:nonzero;stroke:none"
       d="m -2304.2757,-1041.4821 c -4.0957,4.096 -4.0957,10.737 0,14.832 l 130.2863,130.28328 c 4.095,4.0957 10.736,4.0957 14.832,0 l 130.289,-130.28328 c 4.095,-4.095 4.096,-10.736 0,-14.832 l -130.286,-130.283 c -4.096,-4.096 -10.737,-4.096 -14.833,0 l -130.2883,130.283 z"
       id="path13" /><path
       inkscape:connector-curvature="0"
       style="fill:#ffdb00;fill-rule:nonzero;stroke:none"
       d="m -2300.4672,-1037.5121 c -1.9931,1.992 -1.9931,5.223 0,7.216 l 130.2859,130.28275 c 1.992,1.99223 5.223,1.99223 7.216,0 l 130.288,-130.28275 c 1.993,-1.993 1.993,-5.224 0,-7.216 l -130.285,-130.283 c -1.993,-1.992 -5.224,-1.992 -7.217,0 l -130.2879,130.283 z"
       id="path15" /><path
       inkscape:connector-curvature="0"
       style="fill:#c0111e;fill-opacity:1;fill-rule:nonzero;stroke:none"
       d="m -2246.3676,-1033.4053 c 0,44.07096 35.7254,79.79626 79.7965,79.79626 44.0695,0 79.7946,-35.7253 79.7946,-79.79626 0,-44.0697 -35.725,-79.7947 -79.7946,-79.7947 -44.071,0 -79.7965,35.725 -79.7965,79.7947 z"
       id="path17" /><path
       inkscape:connector-curvature="0"
       style="fill:#ffffff;fill-rule:nonzero;stroke:none"
       d="m -2219.7687,-1033.4053 c 0,-29.379 23.8177,-53.1973 53.1977,-53.1973 29.3789,0 53.1973,23.8183 53.1973,53.1973 0,29.381 -23.8184,53.19766 -53.1973,53.19766 -29.38,0 -53.1977,-23.81666 -53.1977,-53.19766 z"
       id="path19" /><path
       inkscape:connector-curvature="0"
       style="fill:#000000;fill-rule:evenodd;stroke:none"
       d="m -2207.8001,-1021.8753 c 0,-4.363 1.791,-8.194 5.373,-11.492 3.476,-3.193 7.396,-4.789 11.7581,-4.789 l 1.4899,0 c 3.085,0 4.841,0.267 5.267,0.798 -3.086,-7.023 -7.361,-12.307 -12.823,-15.854 l 5.108,-6.651 c 5.427,3.689 9.932,8.779 13.515,15.27 3.936,7.165 5.905,14.684 5.905,22.559 0,4.503 -1.738,8.371 -5.214,11.597 -3.441,3.229 -7.591,4.842 -12.45,4.842 -4.539,0 -8.619,-1.524 -12.237,-4.575 -3.795,-3.228 -5.692,-7.13 -5.692,-11.705 z m 17.77,-8.087 c -2.625,0 -4.8599,0.745 -6.705,2.234 -1.843,1.526 -2.766,3.423 -2.766,5.694 0,2.198 0.923,4.079 2.766,5.638 1.8451,1.562 4.08,2.342 6.705,2.342 2.695,0 4.965,-0.78 6.809,-2.342 1.881,-1.559 2.82,-3.44 2.82,-5.638 0,-2.271 -0.939,-4.168 -2.82,-5.694 -1.844,-1.489 -4.114,-2.234 -6.809,-2.234 z"
       id="path21" /><path
       inkscape:connector-curvature="0"
       style="fill:#000000;fill-rule:evenodd;stroke:none"
       d="m -2144.0631,-1060.8733 c 12.414,0 18.621,9.204 18.621,27.613 0,18.443 -6.207,27.665 -18.621,27.665 -12.415,0 -18.621,-9.222 -18.621,-27.665 0,-18.409 6.206,-27.613 18.621,-27.613 z m 0,8.139 c -6.917,0 -10.375,6.492 -10.375,19.474 0,12.98 3.458,19.473 10.375,19.473 6.881,0 10.322,-6.493 10.322,-19.473 0,-12.982 -3.441,-19.474 -10.322,-19.474 z"
       id="path23" /></g></svg>