<?xml version="1.0" encoding="UTF-8" standalone="no"?>
<!-- Generator: Adobe Illustrator 13.0.0, SVG Export Plug-In  -->

<svg
   xmlns:dc="http://purl.org/dc/elements/1.1/"
   xmlns:cc="http://creativecommons.org/ns#"
   xmlns:rdf="http://www.w3.org/1999/02/22-rdf-syntax-ns#"
   xmlns:svg="http://www.w3.org/2000/svg"
   xmlns="http://www.w3.org/2000/svg"
   xmlns:sodipodi="http://sodipodi.sourceforge.net/DTD/sodipodi-0.dtd"
   xmlns:inkscape="http://www.inkscape.org/namespaces/inkscape"
   version="1.1"
   x="0px"
   y="0px"
   width="124.99999"
   height="100.18749"
   viewBox="-0.451 -0.943 125 100.18748"
   enable-background="new -0.451 -0.943 370 828"
   xml:space="preserve"
   id="svg2"
   inkscape:version="0.48.2 r9819"
   sodipodi:docname="New Zealand PW-15 (3).svg"><metadata
   id="metadata48"><rdf:RDF><cc:Work
       rdf:about=""><dc:format>image/svg+xml</dc:format><dc:type
         rdf:resource="http://purl.org/dc/dcmitype/StillImage" /><dc:title></dc:title></cc:Work></rdf:RDF></metadata><sodipodi:namedview
   pagecolor="#ffffff"
   bordercolor="#666666"
   borderopacity="1"
   objecttolerance="10"
   gridtolerance="10"
   guidetolerance="10"
   inkscape:pageopacity="0"
   inkscape:pageshadow="2"
   inkscape:window-width="1280"
   inkscape:window-height="1004"
   id="namedview46"
   showgrid="false"
   fit-margin-top="0"
   fit-margin-left="0"
   fit-margin-right="0"
   fit-margin-bottom="0"
   inkscape:zoom="3.2246802"
   inkscape:cx="118.31391"
   inkscape:cy="4.0577921"
   inkscape:window-x="-8"
   inkscape:window-y="-8"
   inkscape:window-maximized="1"
   inkscape:current-layer="svg2" />
<defs
   id="defs4">
</defs>




















<path
   inkscape:connector-curvature="0"
   style="fill:#ffffff;stroke:#000000;stroke-width:1.00000012;stroke-linecap:butt;stroke-linejoin:miter;stroke-miterlimit:4;stroke-opacity:1;stroke-dasharray:none"
   d="m 40.793148,-0.44731196 0,53.12500396 -40.750003,0 0,46.062503 124.000015,0 0,-46.062503 -40.75001,0 0,-53.12500396 -42.500002,0 z"
   id="path11" /><path
   inkscape:connector-curvature="0"
   style="fill:#000000;fill-rule:evenodd;stroke:none"
   d="m 65.728399,8.3991262 -14.492126,23.1385028 0,3.5425 14.492126,0 0,8.751125 4.853625,0 0,-8.751125 2.268,0 0,-4.712125 -2.268,0 0,-21.9688778 -4.853625,0 z m 0,8.2201888 0,13.748689 -8.43375,0 8.43375,-13.748689 z"
   id="path15" /><path
   inkscape:connector-curvature="0"
   style="fill:#000000;fill-rule:nonzero;stroke:none"
   d="m 6.413258,62.428693 0,3.50825 4.730226,0 0,23.067626 3.906287,0 0,-23.067626 4.650862,0 0,-3.50825 -13.287375,0 z"
   id="path17" /><path
   inkscape:connector-curvature="0"
   style="fill:#000000;fill-rule:evenodd;stroke:none"
   d="m 35.326897,76.062693 c 1.169375,-0.40775 2.116625,-1.267125 2.843,-2.578125 0.6555,-1.204875 0.982625,-2.489 0.982625,-3.85375 0,-1.754125 -0.5395,-3.3655 -1.619875,-4.836375 -1.152375,-1.576 -2.515875,-2.3645 -4.093,-2.36575 l -8.902625,0 0,26.575876 3.667,0 0,-12.331501 3.454625,0 3.535125,12.331501 3.95875,0 -3.825625,-12.941876 z m -2.472,-3.215375 -4.650875,0 0,-6.617375 4.67775,0 c 1.59425,0 2.391375,1.088875 2.391375,3.269 0,0.885 -0.195375,1.63825 -0.58475,2.258375 -0.443125,0.72625 -1.0535,1.09 -1.8335,1.09 z"
   id="path19" /><path
   inkscape:connector-curvature="0"
   style="fill:#000000;fill-rule:evenodd;stroke:none"
   d="m 49.915523,77.949944 1.86025,-7.149751 1.88725,7.149751 -3.7475,0 z m -6.351375,11.054625 3.85375,0 1.77975,-7.388875 5.421125,0 1.914125,7.388875 3.800001,0 -6.669876,-26.575876 -3.7475,0 -6.351375,26.575876 z"
   id="path21" /><path
   inkscape:connector-curvature="0"
   style="fill:#000000;fill-rule:nonzero;stroke:none"
   d="m 75.799275,81.935569 c 0,1.134 -0.293,2.064125 -0.87775,2.7905 -0.584625,0.72625 -1.311,1.088875 -2.178876,1.088875 -2.745375,0 -4.11875,-3.5425 -4.11875,-10.629876 0,-2.28525 0.203875,-4.207875 0.611625,-5.766625 0.65425,-2.4805 1.77975,-3.72075 3.374,-3.72075 0.850875,0 1.594251,0.336875 2.232751,1.01075 0.637125,0.672625 0.957,1.390375 0.957,2.152125 l 3.693875,0 c 0,-2.07275 -0.647,-3.746375 -1.93975,-5.022 -1.294,-1.293875 -2.941875,-1.940875 -4.943876,-1.940875 -5.137875,0 -7.70625,4.428625 -7.70625,13.287375 0,4.039251 0.389375,7.139876 1.169375,9.301751 1.222,3.348375 3.42775,5.021875 6.6175,5.021875 2.037376,0 3.684001,-0.6725 4.942626,-2.019 1.25725,-1.36475 1.886,-3.215375 1.886,-5.554125 l -3.7195,0 z"
   id="path23" /><path
   inkscape:connector-curvature="0"
   style="fill:#000000;fill-rule:nonzero;stroke:none"
   d="m 84.0109,62.428693 0,26.575876 3.7195,0 0,-8.317875 2.551251,-4.438501 4.411625,12.756376 3.933125,0 -5.953375,-17.114251 5.2625,-9.461625 -4.38475,0 -5.820376,10.5505 0,-10.5505 -3.7195,0 z"
   id="path25" /><path
   inkscape:connector-curvature="0"
   style="fill:#000000;fill-rule:nonzero;stroke:none"
   d="m 103.17103,81.271444 c 0,2.639125 0.72638,4.703375 2.17775,6.191375 1.32938,1.36475 3.03963,2.045875 5.12938,2.045875 2.03737,0 3.73912,-0.6725 5.10262,-2.019 1.41725,-1.41725 2.1265,-3.277625 2.1265,-5.581 0,-4.464125 -2.55137,-7.954126 -7.65388,-10.470001 -1.20487,-0.58475 -1.80662,-1.6125 -1.80662,-3.0835 0,-0.76175 0.33563,-1.42575 1.0095,-1.99225 0.62013,-0.532125 1.3025,-0.797125 2.04588,-0.797125 0.6555,0 1.28425,0.3455 1.88725,1.036375 0.62012,0.672625 0.93012,1.3465 0.93012,2.019125 l 3.667,0 c 0,-1.912875 -0.62013,-3.507125 -1.86038,-4.78275 -1.22187,-1.293875 -2.76362,-1.940875 -4.62399,-1.940875 -1.78951,0 -3.35688,0.6115 -4.70338,1.8335 -1.41725,1.2585 -2.12638,2.782 -2.12638,4.5715 0,1.1865 0.25751,2.312 0.77026,3.37525 0.51387,1.044875 1.21462,1.886 2.10075,2.524375 1.22199,0.7435 2.44387,1.488125 3.667,2.2315 1.29275,0.921626 2.17049,2.135001 2.63062,3.641376 0.19413,0.637125 0.29175,1.24875 0.29175,1.8335 0,1.134 -0.31863,2.08125 -0.95575,2.84425 -0.62013,0.7605 -1.45262,1.13275 -2.49887,1.115625 -1.25725,-0.01825 -2.16063,-0.399125 -2.70988,-1.1425 -0.53225,-0.744625 -0.80687,-1.89575 -0.824,-3.454625 l -3.77325,0 z"
   id="path27" /></svg>