<?xml version="1.0" encoding="UTF-8" standalone="no"?>
<!-- Generator: Adobe Illustrator 15.0.0, SVG Export Plug-In . SVG Version: 6.00 Build 0)  -->

<svg
   xmlns:ns="http://ns.adobe.com/SaveForWeb/1.0/"
   xmlns:dc="http://purl.org/dc/elements/1.1/"
   xmlns:cc="http://creativecommons.org/ns#"
   xmlns:rdf="http://www.w3.org/1999/02/22-rdf-syntax-ns#"
   xmlns:svg="http://www.w3.org/2000/svg"
   xmlns="http://www.w3.org/2000/svg"
   xmlns:sodipodi="http://sodipodi.sourceforge.net/DTD/sodipodi-0.dtd"
   xmlns:inkscape="http://www.inkscape.org/namespaces/inkscape"
   version="1.1"
   id="레이어_1"
   x="0px"
   y="0px"
   width="360.61963"
   height="360.63425"
   viewBox="0 0 360.61963 360.63425"
   enable-background="new 0 0 500 500"
   xml:space="preserve"
   inkscape:version="0.48.2 r9819"
   sodipodi:docname="AJAX3.svg"><defs
   id="defs15" /><sodipodi:namedview
   pagecolor="#ffffff"
   bordercolor="#666666"
   borderopacity="1"
   objecttolerance="10"
   gridtolerance="10"
   guidetolerance="10"
   inkscape:pageopacity="0"
   inkscape:pageshadow="2"
   inkscape:window-width="1280"
   inkscape:window-height="1004"
   id="namedview13"
   showgrid="false"
   fit-margin-top="0"
   fit-margin-left="0"
   fit-margin-right="0"
   fit-margin-bottom="0"
   inkscape:zoom="1.4142136"
   inkscape:cx="207.50397"
   inkscape:cy="116.57356"
   inkscape:window-x="-8"
   inkscape:window-y="-8"
   inkscape:window-maximized="1"
   inkscape:current-layer="레이어_1" />
<metadata
   id="metadata3">
	<ns:sfw>
		<ns:slices />
		<ns:sliceSourceBounds
   height="474.5"
   width="474.5"
   y="309"
   x="9.5"
   bottomLeftOrigin="true" />
	</ns:sfw>
<rdf:RDF><cc:Work
     rdf:about=""><dc:format>image/svg+xml</dc:format><dc:type
       rdf:resource="http://purl.org/dc/dcmitype/StillImage" /><dc:title></dc:title></cc:Work></rdf:RDF></metadata>




<path
   inkscape:connector-curvature="0"
   style="fill:#ffdb00;fill-rule:nonzero;stroke:none"
   d="m 355.24566,167.33956 c 7.16625,7.1675 7.165,18.7875 -0.002,25.955 L 193.27741,355.25957 c -7.16875,7.16625 -18.7875,7.16625 -25.955,0 L 5.3749091,193.29456 c -7.1667502,-7.1675 -7.1667502,-18.7875 0.00122,-25.955 L 167.34441,5.3750626 c 7.16625,-7.1667501 18.7875,-7.1667501 25.95375,0 L 355.24566,167.33956 z"
   id="path11" /><path
   inkscape:connector-curvature="0"
   style="fill:#000000;fill-rule:nonzero;stroke:none"
   d="m 8.1837397,190.22967 c -5.1196251,-5.12 -5.1196251,-13.41875 0,-18.53875 L 171.04161,8.844299 c 5.11875,-5.1196251 13.42,-5.1196251 18.54125,0 L 352.44661,171.69092 c 5.12,5.12 5.12,13.41875 10e-4,18.53875 l -162.8575,162.84751 c -5.12,5.12 -13.4225,5.12 -18.54125,0 L 8.1837397,190.22967 z"
   id="path13" /><path
   inkscape:connector-curvature="0"
   style="fill:#ffdb00;fill-rule:nonzero;stroke:none"
   d="m 13.045753,185.36852 c -2.490188,-2.49 -2.4914,-6.5275 0,-9.01875 L 175.90311,13.502537 c 2.49125,-2.490263 6.52875,-2.490263 9.02,0 l 162.865,162.847233 c 2.49,2.49125 2.49,6.52875 0,9.01875 l -162.8575,162.84751 c -2.49125,2.49 -6.53,2.49 -9.02,0 L 13.045753,185.36852 z"
   id="path15" /><path
   inkscape:connector-curvature="0"
   style="fill:#000000;fill-rule:evenodd;stroke:none"
   d="m 205.40925,139.13342 c -3.015,-6.7725 -0.86625,-14.30625 4.7975,-16.82838 5.665,-2.522 12.70125,0.92275 15.71625,7.69588 3.015,6.77125 0.86625,14.30625 -4.7975,16.8275 -5.665,2.5225 -12.70125,-0.9225 -15.71625,-7.695 z m 7.1325,-3.17625 c 1.18875,2.6725 3.5525,4.215 5.27875,3.4475 1.725,-0.7675 2.16,-3.5575 0.97,-6.22875 -1.18875,-2.6725 -3.55249,-4.21625 -5.27875,-3.44625 -1.72625,0.7675 -2.16,3.55625 -0.97,6.2275 z m -52.345,-9.26625 c -3.015,-6.77238 -0.8675,-14.30663 4.7975,-16.82851 5.66375,-2.52199 12.7,0.924 15.71501,7.6965 3.015,6.7725 0.86749,14.30701 -4.7975,16.82826 -5.66376,2.5225 -12.70001,-0.92375 -15.71501,-7.69625 z m 7.13125,-3.17501 c 1.19,2.67251 3.55375,4.21501 5.27875,3.44751 1.72626,-0.76875 2.16,-3.55738 0.97125,-6.22951 -1.19,-2.67212 -3.55375,-4.215 -5.28,-3.44725 -1.72375,0.76913 -2.15875,3.55713 -0.97,6.22925 z m 22.1575,-24.319998 7.82125,0.06825 -0.51,58.453008 -7.82249,-0.0675 0.51124,-58.453758 z"
   id="path17" /><path
   inkscape:connector-curvature="0"
   style="fill:#000000;fill-rule:nonzero;stroke:none"
   d="m 117.82,193.50592 7.60675,-3.41625 -21.79375,-48.44375 -6.055996,2.72 c -0.334375,2.36375 -1.646625,4.40875 -3.9355,6.13625 l 2.59275,5.765 4.020996,-1.80625 17.56475,39.045 z"
   id="path19" /><path
   inkscape:connector-curvature="0"
   style="fill:#000000;fill-rule:nonzero;stroke:none"
   d="m 119.51063,148.72217 8.02487,-1.45125 c -0.40625,-2.45625 -0.0937,-4.655 0.93625,-6.5925 1.01625,-1.97125 2.50875,-3.39875 4.47875,-4.28375 2.29375,-1.03 4.65,-1.2725 7.0675,-0.72875 2.5925,0.58375 4.38875,1.98875 5.3925,4.21625 0.74125,1.6475 0.6025,3.455 -0.4125,5.42625 -0.67,1.2725 -1.92625,2.88375 -3.765,4.83625 -1.85375,1.92 -2.92625,3.12 -3.21375,3.59875 -6.1875,10.5825 -6.91375,21.13875 -2.1775,31.6675 l 32.40875,-14.56125 -3.55125,-7.895 -23.69,10.64125 c 0.145,-3.9075 0.55125,-7.06 1.22,-9.4575 0.7,-2.41125 1.7975,-4.63125 3.2925,-6.66125 1.60625,-1.6925 3.75625,-4.24875 6.44875,-7.6725 0.86625,-1.4375 1.47125,-3.2025 1.81,-5.2975 0.43625,-2.9125 0.10125,-5.5975 -1.0025,-8.05125 -2.2075,-4.90875 -5.61125,-7.9425 -10.2075,-9.1 -4.15875,-1.04375 -8.65875,-0.4775 -13.50375,1.7 -3.52125,1.58125 -6.2395,4.2975 -8.156,8.1475 -2.01775,3.97375 -2.48412,7.8125 -1.40012,11.51875 z"
   id="path21" /><path
   inkscape:connector-curvature="0"
   style="fill:#000000;fill-rule:nonzero;stroke:none"
   d="m 286.61263,228.84966 -212.598751,0 212.598751,-95.66999 0,95.66999 z"
   id="path23" /></svg>