<?xml version="1.0" encoding="UTF-8" standalone="no"?>
<!-- Generator: Adobe Illustrator 13.0.1, SVG Export Plug-In . SVG Version: 6.00 Build 14948)  -->

<svg
   xmlns:dc="http://purl.org/dc/elements/1.1/"
   xmlns:cc="http://creativecommons.org/ns#"
   xmlns:rdf="http://www.w3.org/1999/02/22-rdf-syntax-ns#"
   xmlns:svg="http://www.w3.org/2000/svg"
   xmlns="http://www.w3.org/2000/svg"
   xmlns:sodipodi="http://sodipodi.sourceforge.net/DTD/sodipodi-0.dtd"
   xmlns:inkscape="http://www.inkscape.org/namespaces/inkscape"
   version="1.1"
   id="Layer_1"
   x="0px"
   y="0px"
   width="265.74875"
   height="110.90575"
   viewBox="0 0 265.74876 110.90576"
   enable-background="new 0 0 300 250"
   xml:space="preserve"
   inkscape:version="0.48.2 r9819"
   sodipodi:docname="AJAX1.svg"><metadata
   id="metadata94"><rdf:RDF><cc:Work
       rdf:about=""><dc:format>image/svg+xml</dc:format><dc:type
         rdf:resource="http://purl.org/dc/dcmitype/StillImage" /><dc:title /></cc:Work></rdf:RDF></metadata><defs
   id="defs92" /><sodipodi:namedview
   pagecolor="#ffffff"
   bordercolor="#666666"
   borderopacity="1"
   objecttolerance="10"
   gridtolerance="10"
   guidetolerance="10"
   inkscape:pageopacity="0"
   inkscape:pageshadow="2"
   inkscape:window-width="1280"
   inkscape:window-height="1004"
   id="namedview90"
   showgrid="false"
   fit-margin-top="0"
   fit-margin-left="0"
   fit-margin-right="0"
   fit-margin-bottom="0"
   inkscape:zoom="1.3350176"
   inkscape:cx="-65.709173"
   inkscape:cy="-18.625548"
   inkscape:window-x="-8"
   inkscape:window-y="-8"
   inkscape:window-maximized="1"
   inkscape:current-layer="Layer_1" />















<path
   inkscape:connector-curvature="0"
   style="fill:#ffdb00;fill-rule:nonzero;stroke:none"
   d="M -1.0611749e-5,17.716127 C -1.0611749e-5,7.932126 7.9321151,0 17.717241,0 L 248.03252,0 c 9.78375,0 17.71625,7.932126 17.71625,17.716127 l 0,75.472384 c 0,9.785119 -7.9325,17.717249 -17.71625,17.717249 l -230.315279,0 c -9.7851259,0 -17.717251611749,-7.93213 -17.717251611749,-17.717249 l 0,-75.472384 z"
   id="path11" /><path
   inkscape:connector-curvature="0"
   style="fill:#000000;fill-rule:nonzero;stroke:none"
   d="m 3.188471,17.716107 c 0,-8.022501 6.505126,-14.527626 14.527626,-14.527626 l 230.316153,0 c 8.0225,0 14.5275,6.505125 14.5275,14.527626 l 0,75.472384 c 0,8.023749 -6.505,14.527629 -14.5275,14.527629 l -230.316153,0 c -8.0225,0 -14.527626,-6.50388 -14.527626,-14.527629 l 0,-75.472384 z"
   id="path13" /><path
   inkscape:connector-curvature="0"
   style="fill:#ffdb00;fill-rule:nonzero;stroke:none"
   d="m 7.7953964,17.71609 c 0,-5.478501 4.4420876,-9.920689 9.9218386,-9.920689 l 230.314445,0 c 5.47875,0 9.92125,4.442188 9.92125,9.920689 l 0,75.472321 c 0,5.47987 -4.4425,9.921869 -9.92125,9.921869 l -230.314445,0 c -5.479751,0 -9.9218386,-4.441999 -9.9218386,-9.921869 l 0,-75.472321 z"
   id="path15" /><path
   inkscape:connector-curvature="0"
   style="fill:#000000;fill-rule:nonzero;stroke:none"
   d="m 67.368114,33.354469 -1.0595,22.858872 6.552751,2.12038 c 0.85075,-3.18725 3.150625,-4.78025 6.899375,-4.78025 2.364501,0 4.318876,0.62012 5.861876,1.86037 1.715,1.355 2.573125,3.21525 2.573125,5.57976 0,2.898 -0.75675,5.13925 -2.2705,6.72612 -0.908125,0.98025 -2.48775,1.95313 -4.7375,2.91988 -1.239001,0.53225 -2.673376,0.79962 -4.303001,0.79962 -2.17775,0 -4.909625,-0.48337 -8.197,-1.449 l -3.136001,6.14013 c 1.38425,0.80687 3.128626,1.427 5.233126,1.85912 1.587,0.33213 3.014,0.49813 4.28225,0.49813 5.119625,0 9.610626,-1.377 13.475376,-4.13088 4.426251,-3.12875 6.639376,-7.24487 6.639376,-12.34862 0,-4.72788 -1.506375,-8.56326 -4.520251,-11.50401 -2.92725,-2.8405 -6.56,-4.26025 -10.900876,-4.26025 -0.590875,0 -2.638,0.54688 -6.142625,1.64313 l 0.390625,-7.49025 18.794002,0 0,-7.042252 -25.434628,0 z"
   id="path17" /><path
   inkscape:connector-curvature="0"
   style="fill:#000000;fill-rule:evenodd;stroke:none"
   d="m 118.10674,78.487601 c 10.33413,0 15.50163,-7.66238 15.50163,-22.98838 0,-15.354 -5.1675,-23.031002 -15.50163,-23.031002 -10.3345,0 -15.50175,7.677002 -15.50175,23.031002 0,15.326 5.16725,22.98838 15.50175,22.98838 z m 0,-6.76763 c -5.76662,0 -8.64875,-5.4065 -8.64875,-16.22075 0,-10.813 2.88213,-16.21938 8.64875,-16.21938 5.72263,0 8.58288,5.40638 8.58288,16.21938 0,10.81425 -2.86025,16.22075 -8.58288,16.22075 z"
   id="path19" /><path
   inkscape:connector-curvature="0"
   style="fill:#000000;fill-rule:nonzero;stroke:none"
   d="m 182.52962,52.197221 c 2.46875,-2.34975 5.0775,-3.52413 7.825,-3.52413 1.47375,0 2.80876,0.25875 4.00376,0.77638 2.03125,0.83612 3.585,2.091 4.66,3.76337 l 0.11875,0.1795 0.23875,0.658 0.12,0.17813 0.53875,2.03125 c 0.0388,0.39925 0.0688,0.76662 0.0888,1.106 0.02,0.33812 0.0288,0.647 0.0288,0.92525 l 0,19.23838 -6.21125,0 0,-1.554 0,-7.28888 0,-8.90125 -0.12,-0.95588 -0.12,-0.83612 c -0.08,-0.199 -0.16,-0.38825 -0.23875,-0.56763 -0.08,-0.1795 -0.13875,-0.36875 -0.18,-0.56762 -1.035,-1.63338 -2.25001,-2.45 -3.64376,-2.45 -0.87625,0 -1.8125,0.29912 -2.80875,0.896 -0.995,0.75687 -1.7325,1.61375 -2.20875,2.56962 l -0.24,1.31463 0,18.34113 -6.3325,0 0,-8.72325 0,-9.7375 -0.12,-0.95576 -0.17875,-0.35887 0,-0.359 c -0.15875,-0.3185 -0.29875,-0.59688 -0.4175,-0.83613 -0.12,-0.23925 -0.22,-0.45775 -0.3,-0.65675 -0.955,-0.91675 -2.05,-1.394 -3.28625,-1.43437 -2.27,0.31862 -3.9025,1.41362 -4.89875,3.28625 l -0.17875,0.65662 -0.06,1.19513 c 0.04,0.0403 0.06,0.2795 0.06,0.7165 l 0,17.20713 -6.51249,0 0,-10.45538 0,-13.44238 0,-4.60087 6.51249,0 0,2.09112 c 1.95125,-1.43312 3.96375,-2.26925 6.03375,-2.5085 3.425,0 6.03375,1.195 7.8275,3.58388 z"
   id="path21" /></svg>