<?xml version="1.0" encoding="UTF-8" standalone="no"?>
<!-- Generator: Adobe Illustrator 13.0.1, SVG Export Plug-In . SVG Version: 6.00 Build 14948)  -->

<svg
   xmlns:dc="http://purl.org/dc/elements/1.1/"
   xmlns:cc="http://creativecommons.org/ns#"
   xmlns:rdf="http://www.w3.org/1999/02/22-rdf-syntax-ns#"
   xmlns:svg="http://www.w3.org/2000/svg"
   xmlns="http://www.w3.org/2000/svg"
   xmlns:sodipodi="http://sodipodi.sourceforge.net/DTD/sodipodi-0.dtd"
   xmlns:inkscape="http://www.inkscape.org/namespaces/inkscape"
   version="1.1"
   id="Layer_1"
   x="0px"
   y="0px"
   width="360.62851"
   height="360.61176"
   viewBox="0 0 360.6285 360.61176"
   enable-background="new 0 0 300 250"
   xml:space="preserve"
   inkscape:version="0.48.2 r9819"
   sodipodi:docname="AJAX.svg"><metadata
   id="metadata94"><rdf:RDF><cc:Work
       rdf:about=""><dc:format>image/svg+xml</dc:format><dc:type
         rdf:resource="http://purl.org/dc/dcmitype/StillImage" /><dc:title></dc:title></cc:Work></rdf:RDF></metadata><defs
   id="defs92" /><sodipodi:namedview
   pagecolor="#ffffff"
   bordercolor="#666666"
   borderopacity="1"
   objecttolerance="10"
   gridtolerance="10"
   guidetolerance="10"
   inkscape:pageopacity="0"
   inkscape:pageshadow="2"
   inkscape:window-width="1280"
   inkscape:window-height="1004"
   id="namedview90"
   showgrid="false"
   fit-margin-top="0"
   fit-margin-left="0"
   fit-margin-right="0"
   fit-margin-bottom="0"
   inkscape:zoom="0.944"
   inkscape:cx="-30.290533"
   inkscape:cy="61.132744"
   inkscape:window-x="-8"
   inkscape:window-y="-8"
   inkscape:window-maximized="1"
   inkscape:current-layer="Layer_1" />















<path
   inkscape:connector-curvature="0"
   style="fill:#ffdb00;fill-rule:nonzero;stroke:none"
   d="m 355.25301,167.32956 c 7.1675,7.16625 7.1675,18.78625 -0.001,25.95375 l -161.964,161.95375 c -7.1675,7.16625 -18.7875,7.16625 -25.955,0 L 5.3759742,193.28331 c -7.167975,-7.1675 -7.167975,-18.7875 0,-25.95375 L 167.34051,5.3750625 c 7.16625,-7.16675 18.7875,-7.16675 25.955,0 L 355.25301,167.32956 z"
   id="path11" /><path
   inkscape:connector-curvature="0"
   style="fill:#000000;fill-rule:nonzero;stroke:none"
   d="m 8.1848062,189.84047 c -5.12085,-5.12 -5.12085,-13.42125 -0.00123,-18.54 L 171.04147,8.4463525 c 5.12,-5.11963 13.42125,-5.11963 18.54125,0 L 352.44397,171.30047 c 5.12,5.11875 5.12,13.42 0,18.54 l -162.8575,162.85375 c -5.12,5.12 -13.42,5.12 -18.54125,0 L 8.1848062,189.84047 z"
   id="path13" /><path
   inkscape:connector-curvature="0"
   style="fill:#ffdb00;fill-rule:nonzero;stroke:none"
   d="m 12.944281,184.87797 c -2.490188,-2.49 -2.490188,-6.52875 0,-9.02 L 175.80285,13.004393 c 2.49125,-2.49018 6.52875,-2.49018 9.01875,0 L 347.68285,175.85797 c 2.49125,2.49125 2.49125,6.53 0,9.02 l -162.8575,162.85375 c -2.49,2.49 -6.52875,2.49 -9.01875,0 L 12.944281,184.87797 z"
   id="path15" /><path
   inkscape:connector-curvature="0"
   style="fill:#000000;fill-rule:nonzero;stroke:none"
   d="m 149.31004,281.61327 c 0,-17.12375 13.88125,-31.00375 31.00375,-31.00375 17.1225,0 31.00375,13.88 31.00375,31.00375 0,17.12375 -13.88125,31.00375 -31.00375,31.00375 -17.1225,0 -31.00375,-13.88 -31.00375,-31.00375 z"
   id="path17" /><path
   inkscape:connector-curvature="0"
   style="fill:#000000;fill-rule:nonzero;stroke:none"
   d="m 180.31379,51.120903 c 22.015,0 39.86375,17.87837 39.86375,39.86212 0,21.969007 -33.13,146.161627 -33.13,146.161627 l -6.73375,0 -6.7325,0 c 0,0 -33.13,-124.19262 -33.13,-146.161627 0,-21.98375 17.8475,-39.86212 39.8625,-39.86212 z"
   id="path19" /></svg>