<?xml version="1.0" encoding="UTF-8" standalone="no"?>
<!-- Created with Inkscape (http://www.inkscape.org/) -->

<svg
   xmlns:dc="http://purl.org/dc/elements/1.1/"
   xmlns:cc="http://creativecommons.org/ns#"
   xmlns:rdf="http://www.w3.org/1999/02/22-rdf-syntax-ns#"
   xmlns:svg="http://www.w3.org/2000/svg"
   xmlns="http://www.w3.org/2000/svg"
   xmlns:sodipodi="http://sodipodi.sourceforge.net/DTD/sodipodi-0.dtd"
   xmlns:inkscape="http://www.inkscape.org/namespaces/inkscape"
   version="1.1"
   width="100%"
   height="100%"
   viewBox="0 0 360.62721 360.61237"
   id="svg2"
   inkscape:version="0.48.2 r9819"
   sodipodi:docname="AJAX1.svg">
  <sodipodi:namedview
     pagecolor="#ffffff"
     bordercolor="#666666"
     borderopacity="1"
     objecttolerance="10"
     gridtolerance="10"
     guidetolerance="10"
     inkscape:pageopacity="0"
     inkscape:pageshadow="2"
     inkscape:window-width="1280"
     inkscape:window-height="1004"
     id="namedview317"
     showgrid="false"
     inkscape:zoom="1.8215071"
     inkscape:cx="47.640377"
     inkscape:cy="169.63851"
     inkscape:window-x="-8"
     inkscape:window-y="-8"
     inkscape:window-maximized="1"
     inkscape:current-layer="svg2"
     fit-margin-top="0"
     fit-margin-left="0"
     fit-margin-right="0"
     fit-margin-bottom="0" />
  <metadata
     id="metadata8">
    <rdf:RDF>
      <cc:Work
         rdf:about="">
        <dc:format>image/svg+xml</dc:format>
        <dc:type
           rdf:resource="http://purl.org/dc/dcmitype/StillImage" />
        <dc:title />
      </cc:Work>
    </rdf:RDF>
  </metadata>
  <defs
     id="defs6">
    <clipPath
       id="clipPath220">
      <path
         d="m 0,0 595.276,0 0,841.89 L 0,841.89 0,0 z"
         id="path222"
         inkscape:connector-curvature="0" />
    </clipPath>
    <clipPath
       id="clipPath244">
      <path
         d="m 0,0 595.276,0 0,841.89 L 0,841.89 0,0 z"
         id="path246"
         inkscape:connector-curvature="0" />
    </clipPath>
    <clipPath
       id="clipPath504">
      <path
         d="m 440.788,528.662 58.15,0 0,63.886 -58.15,0 0,-63.886 z"
         id="path506"
         inkscape:connector-curvature="0" />
    </clipPath>
    <clipPath
       id="clipPath564">
      <path
         d="m 167.953,459.481 62.363,0 0,36.85 -62.363,0 0,-36.85 z"
         id="path566"
         inkscape:connector-curvature="0" />
    </clipPath>
    <clipPath
       id="clipPath682">
      <path
         d="m 167.953,459.481 62.363,0 0,36.85 -62.363,0 0,-36.85 z"
         id="path684"
         inkscape:connector-curvature="0" />
    </clipPath>
    <clipPath
       id="clipPath732">
      <path
         d="m 435.827,468.507 62.362,0 0,36.851 -62.362,0 0,-36.851 z"
         id="path734"
         inkscape:connector-curvature="0" />
    </clipPath>
    <clipPath
       id="clipPath860">
      <path
         d="m 34.016,406.772 62.363,0 0,36.85 -62.363,0 0,-36.85 z"
         id="path862"
         inkscape:connector-curvature="0" />
    </clipPath>
    <clipPath
       id="clipPath1118">
      <path
         d="m 167.953,406.772 62.363,0 0,36.85 -62.363,0 0,-36.85 z"
         id="path1120"
         inkscape:connector-curvature="0" />
    </clipPath>
    <clipPath
       id="clipPath1168">
      <path
         d="m 167.953,406.772 62.363,0 0,36.85 -62.363,0 0,-36.85 z"
         id="path1170"
         inkscape:connector-curvature="0" />
    </clipPath>
    <clipPath
       id="clipPath2652">
      <path
         d="m 301.89,406.772 62.362,0 0,36.85 -62.362,0 0,-36.85 z"
         id="path2654"
         inkscape:connector-curvature="0" />
    </clipPath>
    <clipPath
       id="clipPath3618">
      <path
         d="m 435.827,406.772 62.362,0 0,36.85 -62.362,0 0,-36.85 z"
         id="path3620"
         inkscape:connector-curvature="0" />
    </clipPath>
    <clipPath
       id="clipPath3780">
      <path
         d="m 0,0 595.276,0 0,841.89 L 0,841.89 0,0 z"
         id="path3782"
         inkscape:connector-curvature="0" />
    </clipPath>
    <clipPath
       id="clipPath3800">
      <path
         d="m 0,0 595.276,0 0,841.89 L 0,841.89 0,0 z"
         id="path3802"
         inkscape:connector-curvature="0" />
    </clipPath>
    <clipPath
       id="clipPath3820">
      <path
         d="m 0,0 595.276,0 0,841.89 L 0,841.89 0,0 z"
         id="path3822"
         inkscape:connector-curvature="0" />
    </clipPath>
    <clipPath
       id="clipPath3840">
      <path
         d="m 0,0 595.276,0 0,841.89 L 0,841.89 0,0 z"
         id="path3842"
         inkscape:connector-curvature="0" />
    </clipPath>
    <clipPath
       id="clipPath3860">
      <path
         d="m 0,0 595.276,0 0,841.89 L 0,841.89 0,0 z"
         id="path3862"
         inkscape:connector-curvature="0" />
    </clipPath>
    <clipPath
       id="clipPath3880">
      <path
         d="m 0,0 595.276,0 0,841.89 L 0,841.89 0,0 z"
         id="path3882"
         inkscape:connector-curvature="0" />
    </clipPath>
    <clipPath
       id="clipPath3930">
      <path
         d="m 167.953,335.039 62.363,0 0,39.685 -62.363,0 0,-39.685 z"
         id="path3932"
         inkscape:connector-curvature="0" />
    </clipPath>
    <clipPath
       id="clipPath3966">
      <path
         d="m 301.89,335.039 62.362,0 0,39.685 -62.362,0 0,-39.685 z"
         id="path3968"
         inkscape:connector-curvature="0" />
    </clipPath>
    <clipPath
       id="clipPath4000">
      <path
         d="m 34.016,285.165 62.363,0 0,39.686 -62.363,0 0,-39.686 z"
         id="path4002"
         inkscape:connector-curvature="0" />
    </clipPath>
    <clipPath
       id="clipPath4298">
      <path
         d="m 167.953,285.165 62.363,0 0,39.686 -62.363,0 0,-39.686 z"
         id="path4300"
         inkscape:connector-curvature="0" />
    </clipPath>
    <clipPath
       id="clipPath4334">
      <path
         d="m 167.953,285.165 62.363,0 0,39.686 -62.363,0 0,-39.686 z"
         id="path4336"
         inkscape:connector-curvature="0" />
    </clipPath>
    <clipPath
       id="clipPath4620">
      <path
         d="m 301.89,285.165 62.362,0 0,39.686 -62.362,0 0,-39.686 z"
         id="path4622"
         inkscape:connector-curvature="0" />
    </clipPath>
    <clipPath
       id="clipPath4632">
      <path
         d="m 301.89,285.165 62.362,0 0,39.686 -62.362,0 0,-39.686 z"
         id="path4634"
         inkscape:connector-curvature="0" />
    </clipPath>
    <clipPath
       id="clipPath4930">
      <path
         d="m 435.827,285.165 62.362,0 0,39.686 -62.362,0 0,-39.686 z"
         id="path4932"
         inkscape:connector-curvature="0" />
    </clipPath>
    <clipPath
       id="clipPath5206">
      <path
         d="m 0,0 595.276,0 0,841.89 L 0,841.89 0,0 z"
         id="path5208"
         inkscape:connector-curvature="0" />
    </clipPath>
    <clipPath
       id="clipPath5226">
      <path
         d="m 0,0 595.276,0 0,841.89 L 0,841.89 0,0 z"
         id="path5228"
         inkscape:connector-curvature="0" />
    </clipPath>
    <clipPath
       id="clipPath5246">
      <path
         d="m 0,0 595.276,0 0,841.89 L 0,841.89 0,0 z"
         id="path5248"
         inkscape:connector-curvature="0" />
    </clipPath>
    <clipPath
       id="clipPath5266">
      <path
         d="m 0,0 595.276,0 0,841.89 L 0,841.89 0,0 z"
         id="path5268"
         inkscape:connector-curvature="0" />
    </clipPath>
    <clipPath
       id="clipPath5286">
      <path
         d="m 0,0 595.276,0 0,841.89 L 0,841.89 0,0 z"
         id="path5288"
         inkscape:connector-curvature="0" />
    </clipPath>
    <clipPath
       id="clipPath5306">
      <path
         d="m 0,0 595.276,0 0,841.89 L 0,841.89 0,0 z"
         id="path5308"
         inkscape:connector-curvature="0" />
    </clipPath>
    <clipPath
       id="clipPath5326">
      <path
         d="m 0,0 595.276,0 0,841.89 L 0,841.89 0,0 z"
         id="path5328"
         inkscape:connector-curvature="0" />
    </clipPath>
    <clipPath
       id="clipPath5346">
      <path
         d="m 0,0 595.276,0 0,841.89 L 0,841.89 0,0 z"
         id="path5348"
         inkscape:connector-curvature="0" />
    </clipPath>
    <clipPath
       id="clipPath5408">
      <path
         d="m 34.016,163.292 62.363,0 0,39.685 -62.363,0 0,-39.685 z"
         id="path5410"
         inkscape:connector-curvature="0" />
    </clipPath>
    <clipPath
       id="clipPath5718">
      <path
         d="m 167.953,163.292 62.363,0 0,39.685 -62.363,0 0,-39.685 z"
         id="path5720"
         inkscape:connector-curvature="0" />
    </clipPath>
    <clipPath
       id="clipPath5826">
      <path
         d="m 301.89,163.292 62.362,0 0,39.685 -62.362,0 0,-39.685 z"
         id="path5828"
         inkscape:connector-curvature="0" />
    </clipPath>
    <clipPath
       id="clipPath7160">
      <path
         d="m 435.827,163.292 62.362,0 0,39.685 -62.362,0 0,-39.685 z"
         id="path7162"
         inkscape:connector-curvature="0" />
    </clipPath>
    <clipPath
       id="clipPath7504">
      <path
         d="m 0,0 595.276,0 0,841.89 L 0,841.89 0,0 z"
         id="path7506"
         inkscape:connector-curvature="0" />
    </clipPath>
    <clipPath
       id="clipPath7524">
      <path
         d="m 0,0 595.276,0 0,841.89 L 0,841.89 0,0 z"
         id="path7526"
         inkscape:connector-curvature="0" />
    </clipPath>
    <clipPath
       id="clipPath7544">
      <path
         d="m 0,0 595.276,0 0,841.89 L 0,841.89 0,0 z"
         id="path7546"
         inkscape:connector-curvature="0" />
    </clipPath>
    <clipPath
       id="clipPath7564">
      <path
         d="m 0,0 595.276,0 0,841.89 L 0,841.89 0,0 z"
         id="path7566"
         inkscape:connector-curvature="0" />
    </clipPath>
    <clipPath
       id="clipPath7584">
      <path
         d="m 0,0 595.276,0 0,841.89 L 0,841.89 0,0 z"
         id="path7586"
         inkscape:connector-curvature="0" />
    </clipPath>
    <clipPath
       id="clipPath7604">
      <path
         d="m 0,0 595.276,0 0,841.89 L 0,841.89 0,0 z"
         id="path7606"
         inkscape:connector-curvature="0" />
    </clipPath>
    <clipPath
       id="clipPath7624">
      <path
         d="m 0,0 595.276,0 0,841.89 L 0,841.89 0,0 z"
         id="path7626"
         inkscape:connector-curvature="0" />
    </clipPath>
    <clipPath
       id="clipPath7644">
      <path
         d="m 0,0 595.276,0 0,841.89 L 0,841.89 0,0 z"
         id="path7646"
         inkscape:connector-curvature="0" />
    </clipPath>
    <clipPath
       id="clipPath7690">
      <path
         d="m 34.016,91.559 62.363,0 0,39.686 -62.363,0 0,-39.686 z"
         id="path7692"
         inkscape:connector-curvature="0" />
    </clipPath>
    <clipPath
       id="clipPath7714">
      <path
         d="m 435.827,91.559 62.362,0 0,39.686 -62.362,0 0,-39.686 z"
         id="path7716"
         inkscape:connector-curvature="0" />
    </clipPath>
    <clipPath
       id="clipPath7728">
      <path
         d="m 34.016,41.685 62.363,0 0,39.685 -62.363,0 0,-39.685 z"
         id="path7730"
         inkscape:connector-curvature="0" />
    </clipPath>
    <clipPath
       id="clipPath7740">
      <path
         d="m 34.016,41.685 62.363,0 0,39.685 -62.363,0 0,-39.685 z"
         id="path7742"
         inkscape:connector-curvature="0" />
    </clipPath>
    <clipPath
       id="clipPath7802">
      <path
         d="m 167.953,41.685 62.363,0 0,39.685 -62.363,0 0,-39.685 z"
         id="path7804"
         inkscape:connector-curvature="0" />
    </clipPath>
    <clipPath
       id="clipPath8374">
      <path
         d="m 301.89,41.685 62.362,0 0,39.685 -62.362,0 0,-39.685 z"
         id="path8376"
         inkscape:connector-curvature="0" />
    </clipPath>
    <clipPath
       id="clipPath8668">
      <path
         d="m 435.827,41.685 62.362,0 0,39.685 -62.362,0 0,-39.685 z"
         id="path8670"
         inkscape:connector-curvature="0" />
    </clipPath>
    <clipPath
       id="clipPath8680">
      <path
         d="m 435.827,41.685 62.362,0 0,39.685 -62.362,0 0,-39.685 z"
         id="path8682"
         inkscape:connector-curvature="0" />
    </clipPath>
    <clipPath
       id="clipPath8928">
      <path
         d="m 0,0 595.276,0 0,841.89 L 0,841.89 0,0 z"
         id="path8930"
         inkscape:connector-curvature="0" />
    </clipPath>
    <clipPath
       id="clipPath8948">
      <path
         d="m 0,0 595.276,0 0,841.89 L 0,841.89 0,0 z"
         id="path8950"
         inkscape:connector-curvature="0" />
    </clipPath>
    <clipPath
       id="clipPath8968">
      <path
         d="m 0,0 595.276,0 0,841.89 L 0,841.89 0,0 z"
         id="path8970"
         inkscape:connector-curvature="0" />
    </clipPath>
    <clipPath
       id="clipPath8988">
      <path
         d="m 0,0 595.276,0 0,841.89 L 0,841.89 0,0 z"
         id="path8990"
         inkscape:connector-curvature="0" />
    </clipPath>
    <clipPath
       id="clipPath9008">
      <path
         d="m 0,0 595.276,0 0,841.89 L 0,841.89 0,0 z"
         id="path9010"
         inkscape:connector-curvature="0" />
    </clipPath>
    <clipPath
       id="clipPath9028">
      <path
         d="m 0,0 595.276,0 0,841.89 L 0,841.89 0,0 z"
         id="path9030"
         inkscape:connector-curvature="0" />
    </clipPath>
    <clipPath
       id="clipPath9048">
      <path
         d="m 0,0 595.276,0 0,841.89 L 0,841.89 0,0 z"
         id="path9050"
         inkscape:connector-curvature="0" />
    </clipPath>
    <clipPath
       id="clipPath9068">
      <path
         d="m 0,0 595.276,0 0,841.89 L 0,841.89 0,0 z"
         id="path9070"
         inkscape:connector-curvature="0" />
    </clipPath>
    <clipPath
       id="clipPath9088">
      <path
         d="m 0,0 595.276,0 0,841.89 L 0,841.89 0,0 z"
         id="path9090"
         inkscape:connector-curvature="0" />
    </clipPath>
    <clipPath
       id="clipPath9104">
      <path
         d="m 0,0 595.276,0 0,841.89 L 0,841.89 0,0 z"
         id="path9106"
         inkscape:connector-curvature="0" />
    </clipPath>
    <clipPath
       id="clipPath9132">
      <path
         d="m 0,0 595.276,0 0,841.89 L 0,841.89 0,0 z"
         id="path9134"
         inkscape:connector-curvature="0" />
    </clipPath>
    <clipPath
       id="clipPath9142">
      <path
         d="m 0,841.89 595.276,0 L 595.276,0 0,0 0,841.89 z"
         id="path9144"
         inkscape:connector-curvature="0" />
    </clipPath>
    <clipPath
       id="clipPath9160">
      <path
         d="m 0,0 595.276,0 0,841.89 L 0,841.89 0,0 z"
         id="path9162"
         inkscape:connector-curvature="0" />
    </clipPath>
    <clipPath
       id="clipPath9170">
      <path
         d="m 0,841.89 595.276,0 L 595.276,0 0,0 0,841.89 z"
         id="path9172"
         inkscape:connector-curvature="0" />
    </clipPath>
    <clipPath
       id="clipPath9190">
      <path
         d="m 0,841.89 595.276,0 L 595.276,0 0,0 0,841.89 z"
         id="path9192"
         inkscape:connector-curvature="0" />
    </clipPath>
    <clipPath
       id="clipPath7160-4">
      <path
         d="m 435.827,163.292 62.362,0 0,39.685 -62.362,0 0,-39.685 z"
         id="path7162-0"
         inkscape:connector-curvature="0" />
    </clipPath>
  </defs>
  <path
     inkscape:connector-curvature="0"
     style="fill:#a2ff31;fill-opacity:1;fill-rule:nonzero;stroke:none"
     d="m 355.25066,167.32801 c 7.16875,7.1675 7.16875,18.7875 0,25.955 L 193.28691,355.23676 c -7.1675,7.1675 -18.7875,7.1675 -25.955,0 L 5.3749113,193.28301 c -7.16675,-7.1675 -7.16675,-18.7875 0.00121,-25.955 L 167.33941,5.375968 c 7.1675,-7.167963 18.7875,-7.167963 25.955,0 L 355.25066,167.32801 z"
     id="path11" />
  <path
     inkscape:connector-curvature="0"
     style="fill:#000000;fill-rule:nonzero;stroke:none"
     d="m 8.1837485,189.5765 c -5.1196375,-5.11875 -5.1196375,-13.42 0,-18.54 L 171.04161,8.182375 c 5.12,-5.119625 13.42,-5.119625 18.54125,0 l 162.86,162.854125 c 5.12125,5.12 5.12125,13.42125 0,18.54 l -162.85625,162.855 c -5.12125,5.11875 -13.42125,5.11875 -18.54125,0 L 8.1837485,189.5765 z"
     id="path13" />
  <path
     inkscape:connector-curvature="0"
     style="fill:#a2ff31;fill-opacity:1;fill-rule:nonzero;stroke:none"
     d="m 12.944486,184.81542 c -2.490238,-2.49 -2.49145,-6.52875 0,-9.02 L 175.80304,12.943113 c 2.49,-2.49145 6.5275,-2.49145 9.02,0 L 347.68429,175.79542 c 2.49,2.49125 2.49,6.53 0,9.02 L 184.82554,347.66917 c -2.49125,2.49125 -6.52875,2.49125 -9.01875,0 L 12.944486,184.81542 z"
     id="path15" />
  <path
     inkscape:connector-curvature="0"
     style="fill:#000000;fill-rule:evenodd;stroke:none"
     d="m 66.395361,206.88099 -22.146,0 17.790625,-70.86625 19.193125,0 -14.83775,70.86625 z m 44.646009,0 -22.146009,0 11.661379,-70.86625 18.96125,0 -8.47662,70.86625 z m 44.64486,0 -22.14499,0 5.90375,-70.86625 19.19375,0 -2.95251,70.86625 z m 20.19813,-124.016004 8.8575,0 2.2475,203.740004 -13.2875,0 2.1825,-203.740004 z m 118.345,124.016004 22.1475,0 -17.79125,-70.86625 -19.19249,0 14.83624,70.86625 z m -44.64375,0 22.14376,0 -11.66001,-70.86625 -18.96124,0 8.47749,70.86625 z m -44.6475,0 22.1475,0 -5.905,-70.86625 -19.19374,0 2.95124,70.86625 z"
     id="path17" />
</svg>
