<?xml version="1.0" encoding="UTF-8" standalone="no"?>
<!-- Created with Inkscape (http://www.inkscape.org/) -->

<svg
   xmlns:dc="http://purl.org/dc/elements/1.1/"
   xmlns:cc="http://creativecommons.org/ns#"
   xmlns:rdf="http://www.w3.org/1999/02/22-rdf-syntax-ns#"
   xmlns:svg="http://www.w3.org/2000/svg"
   xmlns="http://www.w3.org/2000/svg"
   xmlns:sodipodi="http://sodipodi.sourceforge.net/DTD/sodipodi-0.dtd"
   xmlns:inkscape="http://www.inkscape.org/namespaces/inkscape"
   width="212.59875"
   height="88.63884"
   id="svg3075"
   version="1.1"
   inkscape:version="0.48.4 r9939"
   sodipodi:docname="AJAX1.svg">
  <defs
     id="defs3077" />
  <sodipodi:namedview
     id="base"
     pagecolor="#ffffff"
     bordercolor="#666666"
     borderopacity="1.0"
     inkscape:pageopacity="0.0"
     inkscape:pageshadow="2"
     inkscape:zoom="2.87"
     inkscape:cx="83.089392"
     inkscape:cy="58.684898"
     inkscape:document-units="px"
     inkscape:current-layer="ANZ"
     showgrid="false"
     borderlayer="true"
     inkscape:window-width="1280"
     inkscape:window-height="1004"
     inkscape:window-x="-8"
     inkscape:window-y="-8"
     inkscape:window-maximized="1"
     fit-margin-top="0"
     fit-margin-left="0"
     fit-margin-right="0"
     fit-margin-bottom="0" />
  <metadata
     id="metadata3080">
    <rdf:RDF>
      <cc:Work
         rdf:about="">
        <dc:format>image/svg+xml</dc:format>
        <dc:type
           rdf:resource="http://purl.org/dc/dcmitype/StillImage" />
        <dc:title />
      </cc:Work>
    </rdf:RDF>
  </metadata>
  <g
     inkscape:label="ANZ"
     inkscape:groupmode="layer"
     id="ANZ"
     transform="translate(-129.448,-975.06046)">
    <path
       inkscape:connector-curvature="0"
       style="fill:#ffdb00;fill-rule:nonzero;stroke:none"
       d="m 129.448,989.23396 c 0,-7.82829 6.34521,-14.1735 14.17363,-14.1735 l 184.25138,0 c 7.82625,0 14.17375,6.34521 14.17375,14.1735 l 0,60.29304 c 0,7.8271 -6.3475,14.1723 -14.17375,14.1723 l -184.25138,0 c -7.82842,0 -14.17363,-6.3452 -14.17363,-14.1723 l 0,-60.29304 z"
       id="path11" />
    <path
       inkscape:connector-curvature="0"
       style="fill:#000000;fill-rule:nonzero;stroke:none"
       d="m 131.92848,989.23401 c 0,-6.45871 5.23437,-11.69308 11.69311,-11.69308 l 184.25189,0 c 6.4575,0 11.6925,5.23437 11.6925,11.69308 l 0,60.29299 c 0,6.4575 -5.235,11.6919 -11.6925,11.6919 l -184.25189,0 c -6.45874,0 -11.69311,-5.2344 -11.69311,-11.6919 l 0,-60.29299 z"
       id="path13" />
    <path
       inkscape:connector-curvature="0"
       style="fill:#ffdb00;fill-rule:nonzero;stroke:none"
       d="m 135.82617,989.23401 c 0,-4.30538 3.48999,-7.79537 7.79542,-7.79537 l 184.25209,0 c 4.305,0 7.795,3.48999 7.795,7.79537 l 0,60.29299 c 0,4.3043 -3.49,7.7943 -7.795,7.7943 l -184.25209,0 c -4.30543,0 -7.79542,-3.49 -7.79542,-7.7943 l 0,-60.29299 z"
       id="path15" />
    <path
       inkscape:connector-curvature="0"
       style="fill:#000000;fill-rule:nonzero;stroke:none"
       d="m 162.75484,1001.5583 0,35.4333 17.71737,0 0,-4.9963 -12.86262,0 0,-11.6932 7.54637,0 0,-4.8535 -7.54637,0 0,-8.894 12.295,0 0,-4.9963 -17.14975,0 z"
       id="path17" />
    <path
       inkscape:connector-curvature="0"
       style="fill:#000000;fill-rule:nonzero;stroke:none"
       d="m 192.02371,1018.8495 -7.61837,18.1421 5.4565,0 5.03175,-11.7285 4.81812,11.7285 5.59938,0 -7.65388,-18.1421 7.26325,-17.2912 -5.59825,0 -4.42862,10.5591 -4.5715,-10.5591 -5.315,0 7.01662,17.2912 z"
       id="path19" />
    <path
       inkscape:connector-curvature="0"
       style="fill:#000000;fill-rule:nonzero;stroke:none"
       d="m 211.19234,1001.5583 0,35.4333 17.71613,0 0,-4.9963 -12.86251,0 0,-11.6932 7.54751,0 0,-4.8535 -7.54751,0 0,-8.894 12.29488,0 0,-4.9963 -17.1485,0 z"
       id="path21" />
    <path
       inkscape:connector-curvature="0"
       style="fill:#000000;fill-rule:nonzero;stroke:none"
       d="m 235.14497,1001.5583 0,35.4333 5.03062,0 0,-20.1611 6.55513,20.1611 6.51975,-20.1611 0,20.1611 4.92562,0 0,-35.4333 -5.35037,0 -6.095,19.0271 -6.55513,-19.0271 -5.03062,0 z"
       id="path23" />
    <path
       inkscape:connector-curvature="0"
       style="fill:#000000;fill-rule:evenodd;stroke:none"
       d="m 265.43985,1001.5583 0,35.4333 4.92375,0 0,-15.2002 5.52875,0 c 2.50375,0 4.605,-0.8753 6.30625,-2.622 1.81875,-1.8898 2.7275,-4.3824 2.7275,-7.4769 0,-3.0945 -0.81375,-5.5517 -2.445,-7.3706 -1.605,-1.842 -3.8025,-2.7636 -6.58875,-2.7636 l -10.4525,0 z m 4.92375,4.9608 6.06,0 c 0.9675,0 1.81875,0.5312 2.55125,1.5943 0.66125,0.9925 0.9925,2.0789 0.9925,3.2605 0,1.4869 -0.29625,2.7051 -0.88625,3.6487 -0.615,1.0157 -1.44125,1.5234 -2.48125,1.5234 l -6.23625,0 0,-10.0269 z"
       id="path25" />
    <path
       inkscape:connector-curvature="0"
       style="fill:#000000;fill-rule:nonzero;stroke:none"
       d="m 290.9861,1001.5583 0,4.6777 6.3075,0 0,30.7556 5.20875,0 0,-30.7556 6.20125,0 0,-4.6777 -17.7175,0 z"
       id="path27" />
  </g>
</svg>
