<?xml version="1.0" encoding="UTF-8" standalone="no"?>
<!-- Created with Inkscape (http://www.inkscape.org/) -->

<svg
   xmlns:dc="http://purl.org/dc/elements/1.1/"
   xmlns:cc="http://creativecommons.org/ns#"
   xmlns:rdf="http://www.w3.org/1999/02/22-rdf-syntax-ns#"
   xmlns:svg="http://www.w3.org/2000/svg"
   xmlns="http://www.w3.org/2000/svg"
   xmlns:sodipodi="http://sodipodi.sourceforge.net/DTD/sodipodi-0.dtd"
   xmlns:inkscape="http://www.inkscape.org/namespaces/inkscape"
   width="360.6268"
   height="360.61176"
   id="svg2"
   sodipodi:version="0.32"
   inkscape:version="0.48.2 r9819"
   version="1.0"
   sodipodi:docname="AJAX3.svg"
   inkscape:output_extension="org.inkscape.output.svg.inkscape">
  <defs
     id="defs4">
    <inkscape:perspective
       sodipodi:type="inkscape:persp3d"
       inkscape:vp_x="0 : 300.5 : 1"
       inkscape:vp_y="0 : 1000 : 0"
       inkscape:vp_z="601 : 300.5 : 1"
       inkscape:persp3d-origin="300.5 : 200.33333 : 1"
       id="perspective3380" />
    <inkscape:perspective
       id="perspective3990"
       inkscape:persp3d-origin="375 : 250 : 1"
       inkscape:vp_z="750 : 375 : 1"
       inkscape:vp_y="0 : 1000 : 0"
       inkscape:vp_x="0 : 375 : 1"
       sodipodi:type="inkscape:persp3d" />
  </defs>
  <sodipodi:namedview
     id="base"
     pagecolor="#ffffff"
     bordercolor="#666666"
     borderopacity="1.0"
     gridtolerance="10000"
     guidetolerance="10"
     objecttolerance="10"
     inkscape:pageopacity="0.0"
     inkscape:pageshadow="2"
     inkscape:zoom="1.0529557"
     inkscape:cx="53.460364"
     inkscape:cy="130.71128"
     inkscape:document-units="px"
     inkscape:current-layer="layer1"
     width="601px"
     height="601px"
     inkscape:window-width="1280"
     inkscape:window-height="1004"
     inkscape:window-x="-8"
     inkscape:window-y="-8"
     showgrid="false"
     fit-margin-top="0"
     fit-margin-left="0"
     fit-margin-right="0"
     fit-margin-bottom="0"
     inkscape:window-maximized="1"
     showguides="true"
     inkscape:guide-bbox="true" />
  <metadata
     id="metadata7">
    <rdf:RDF>
      <cc:Work
         rdf:about="">
        <dc:format>image/svg+xml</dc:format>
        <dc:type
           rdf:resource="http://purl.org/dc/dcmitype/StillImage" />
        <dc:title></dc:title>
      </cc:Work>
    </rdf:RDF>
  </metadata>
  <g
     inkscape:label="Layer 1"
     inkscape:groupmode="layer"
     id="layer1"
     transform="translate(-1.9898943,-239.06101)">
    <rect
       style="color:#000000;fill:#000000;fill-opacity:1;fill-rule:nonzero;stroke:none;stroke-width:0.8735441;marker:none;visibility:visible;display:inline;overflow:visible"
       id="rect3653"
       width="0"
       height="27.202072"
       x="578.73834"
       y="298.1684"
       rx="249.48199"
       ry="27.202072" />
    <path
       inkscape:connector-curvature="0"
       style="fill:#ffdb00;fill-rule:nonzero;stroke:none"
       d="m 357.2412,406.39058 c 7.1675,7.16625 7.1675,18.78625 -10e-4,25.9525 l -161.9625,161.955 c -7.1675,7.16625 -18.78875,7.16625 -25.95625,0 L 7.3654087,432.34308 c -7.16796247,-7.16625 -7.16674247,-18.78625 0,-25.9525 L 169.3287,244.43606 c 7.16875,-7.16674 18.78875,-7.16674 25.95625,0 L 357.2412,406.39058 z"
       id="path11" />
    <path
       inkscape:connector-curvature="0"
       style="fill:#000000;fill-rule:nonzero;stroke:none"
       d="m 10.174259,428.90146 c -5.1196378,-5.11875 -5.1196378,-13.42 0,-18.54 L 173.03087,247.50735 c 5.12125,-5.11964 13.4225,-5.11964 18.54125,0 l 162.86125,162.85411 c 5.12,5.12 5.12,13.42125 0,18.54 l -162.8575,162.855 c -5.11875,5.11875 -13.42,5.11875 -18.54,0 L 10.174259,428.90146 z"
       id="path13" />
    <path
       inkscape:connector-curvature="0"
       style="fill:#ffdb00;fill-rule:nonzero;stroke:none"
       d="m 14.534596,424.0489 c -2.490225,-2.4925 -2.490225,-6.53 0,-9.02 L 177.39312,252.17412 c 2.49,-2.49147 6.52875,-2.49147 9.01875,0 L 349.27312,415.0289 c 2.49125,2.49 2.49125,6.5275 0,9.02 l -162.8575,162.8525 c -2.49,2.49125 -6.52875,2.49125 -9.02,0 L 14.534596,424.0489 z"
       id="path15" />
    <path
       inkscape:connector-curvature="0"
       style="fill:#000000;fill-rule:nonzero;stroke:none"
       d="m 160.15785,471.95362 -26.57375,44.29125 -22.78,-13.6875 22.78,-37.96 0,-91.58763 -22.78,-37.95962 22.78,-13.68775 26.57375,44.29237 0,106.29888 z"
       id="path17" />
    <path
       inkscape:connector-curvature="0"
       style="fill:#000000;fill-rule:nonzero;stroke:none"
       d="m 204.4491,471.95362 0,-106.29888 26.575,-44.29237 22.77875,13.68775 -22.77875,37.95962 0,91.58763 22.77875,37.96 -22.77875,13.6875 -26.575,-44.29125 z"
       id="path19" />
  </g>
</svg>
