<?xml version="1.0" encoding="UTF-8" standalone="no"?>
<!-- Generator: Adobe Illustrator 12.0.1, SVG Export Plug-In  -->

<svg
   xmlns:dc="http://purl.org/dc/elements/1.1/"
   xmlns:cc="http://creativecommons.org/ns#"
   xmlns:rdf="http://www.w3.org/1999/02/22-rdf-syntax-ns#"
   xmlns:svg="http://www.w3.org/2000/svg"
   xmlns="http://www.w3.org/2000/svg"
   xmlns:sodipodi="http://sodipodi.sourceforge.net/DTD/sodipodi-0.dtd"
   xmlns:inkscape="http://www.inkscape.org/namespaces/inkscape"
   version="1.1"
   width="265.74875"
   height="110.90575"
   viewBox="-0.779 0 265.74875 110.90575"
   enable-background="new -0.779 0 98 288"
   xml:space="preserve"
   id="svg2"
   inkscape:version="0.48.2 r9819"
   sodipodi:docname="AJAX1.svg"><metadata
   id="metadata36"><rdf:RDF><cc:Work
       rdf:about=""><dc:format>image/svg+xml</dc:format><dc:type
         rdf:resource="http://purl.org/dc/dcmitype/StillImage" /></cc:Work></rdf:RDF></metadata><sodipodi:namedview
   pagecolor="#ffffff"
   bordercolor="#666666"
   borderopacity="1"
   objecttolerance="10"
   gridtolerance="10"
   guidetolerance="10"
   inkscape:pageopacity="0"
   inkscape:pageshadow="2"
   inkscape:window-width="1280"
   inkscape:window-height="1004"
   id="namedview34"
   showgrid="false"
   fit-margin-top="0"
   fit-margin-left="0"
   fit-margin-right="0"
   fit-margin-bottom="0"
   inkscape:zoom="1.3867569"
   inkscape:cx="-7.5052992"
   inkscape:cy="29.883178"
   inkscape:window-x="-8"
   inkscape:window-y="-8"
   inkscape:window-maximized="1"
   inkscape:current-layer="svg2" />
<defs
   id="defs4">
</defs>














<path
   inkscape:connector-curvature="0"
   style="fill:#a2ff31;fill-opacity:1;fill-rule:nonzero;stroke:none"
   d="M -0.77900363,17.71613 C -0.77900363,7.93214 7.151909,0 16.937121,0 L 247.25225,0 c 9.785,0 17.7175,7.93214 17.7175,17.71613 l 0,75.47362 c 0,9.78387 -7.9325,17.716 -17.7175,17.716 l -230.315129,0 c -9.7852121,0 -17.71612463,-7.93213 -17.71612463,-17.716 l 0,-75.47362 z"
   id="path11" /><path
   inkscape:connector-curvature="0"
   style="fill:#000000;fill-rule:nonzero;stroke:none"
   d="m 2.4094777,17.71607 c 0,-8.02246 6.5039,-14.52637 14.5276253,-14.52637 l 230.314877,0 c 8.02375,0 14.5275,6.50391 14.5275,14.52637 l 0,75.47363 c 0,8.0225 -6.50375,14.52637 -14.5275,14.52637 l -230.314877,0 c -8.0237254,0 -14.5276254,-6.50387 -14.5276254,-14.52637 l 0,-75.47363 z"
   id="path13" /><path
   inkscape:connector-curvature="0"
   style="fill:#a2ff31;fill-opacity:1;fill-rule:nonzero;stroke:none"
   d="m 7.0164027,17.71608 c 0,-5.4785 4.4409123,-9.92067 9.9206623,-9.92067 l 230.315595,0 c 5.48,0 9.92125,4.44217 9.92125,9.92067 l 0,75.47358 c 0,5.4785 -4.44125,9.92062 -9.92125,9.92062 l -230.315595,0 c -5.47975,0 -9.9206623,-4.44212 -9.9206623,-9.92062 l 0,-75.47358 z"
   id="path15" /><path
   inkscape:connector-curvature="0"
   style="fill:#000000;fill-rule:nonzero;stroke:none"
   d="m 38.019815,64.67896 c 0,4.39825 1.211,7.83813 3.631625,10.31863 2.214375,2.27412 5.0635,3.41062 8.5485,3.41062 3.394875,0 6.2305,-1.12187 8.5035,-3.3655 2.362,-2.362 3.543625,-5.46262 3.543625,-9.30175 0,-7.44137 -4.252875,-13.258 -12.75625,-17.45 -2.008125,-0.97525 -3.0115,-2.68788 -3.0115,-5.13787 0,-1.27075 0.56025,-2.37676 1.682125,-3.32151 1.033875,-0.88624 2.171625,-1.32937 3.411875,-1.32937 1.09125,0 2.139875,0.57613 3.1445,1.72725 1.03275,1.12188 1.549125,2.24375 1.549125,3.3655 l 6.112,0 c 0,-3.1885 -1.03275,-5.84587 -3.099375,-7.97113 -2.037375,-2.15587 -4.606875,-3.23374 -7.70625,-3.23374 -2.98225,0 -5.59575,1.01812 -7.840625,3.05674 -2.362,2.09588 -3.5425,4.63501 -3.5425,7.61713 0,1.97875 0.42725,3.85375 1.28425,5.625 0.85575,1.74313 2.022625,3.1445 3.4985,4.20775 2.037375,1.24025 4.07475,2.4805 6.11325,3.72075 2.154625,1.53563 3.617,3.55838 4.38475,6.06813 0.3235,1.06199 0.487125,2.08124 0.487125,3.05537 0,1.89088 -0.53225,3.4705 -1.5955,4.74 -1.032625,1.2695 -2.420625,1.88963 -4.162625,1.85912 -2.097125,-0.0281 -3.60225,-0.66399 -4.51775,-1.90424 -0.88625,-1.24026 -1.344,-3.15925 -1.37325,-5.75688 l -6.289125,0 z"
   id="path17" /><path
   inkscape:connector-curvature="0"
   style="fill:#000000;fill-rule:nonzero;stroke:none"
   d="m 88.112565,65.78609 c 0,1.88975 -0.487,3.44 -1.461125,4.64975 -0.974125,1.21087 -2.185125,1.81637 -3.631625,1.81637 -4.576375,0 -6.86525,-5.90575 -6.86525,-17.71613 0,-3.80974 0.339375,-7.01287 1.018125,-9.61175 1.0925,-4.13337 2.9675,-6.20112 5.625,-6.20112 1.41725,0 2.6575,0.5615 3.720625,1.68325 1.06325,1.12188 1.59425,2.31812 1.59425,3.58762 l 6.15725,0 c 0,-3.4545 -1.077875,-6.24499 -3.233625,-8.37025 -2.15575,-2.15587 -4.901125,-3.23374 -8.2385,-3.23374 -8.56325,0 -12.84425,7.38162 -12.84425,22.146 0,6.73225 0.649375,11.8995 1.94825,15.50175 2.0385,5.58112 5.714125,8.37037 11.029,8.37037 3.396,0 6.141375,-1.12187 8.2385,-3.3655 2.096,-2.27412 3.144625,-5.35888 3.144625,-9.25662 l -6.20125,0 z"
   id="path19" /><path
   inkscape:connector-curvature="0"
   style="fill:#000000;fill-rule:nonzero;stroke:none"
   d="m 101.88707,33.27521 0,44.29187 6.29025,0 0,-20.10862 12.17887,0 0,20.10862 5.89113,0 0,-44.29187 -5.89113,0 0,17.93938 -12.17887,0 0,-17.93938 -6.29025,0 z"
   id="path21" /><path
   inkscape:connector-curvature="0"
   style="fill:#000000;fill-rule:evenodd;stroke:none"
   d="m 148.48107,78.40821 c 4.31125,0 7.56,-2.06662 9.74375,-6.2 2.03875,-3.927 3.05625,-9.53725 3.05625,-16.831 0,-15.32475 -4.23625,-22.98712 -12.71125,-22.98712 -8.68125,0 -13.02125,7.66237 -13.02125,22.98712 0,15.354 4.31125,23.031 12.9325,23.031 z m 0,-6.37813 c -2.51,0 -4.295,-1.60899 -5.35875,-4.82674 -0.8575,-2.62813 -1.28375,-6.56975 -1.28375,-11.82613 0,-11.22075 2.21375,-16.83112 6.6425,-16.83112 4.4,0 6.59875,5.61037 6.59875,16.83112 0,11.10225 -2.19875,16.65288 -6.59875,16.65288 z"
   id="path23" /><path
   inkscape:connector-curvature="0"
   style="fill:#000000;fill-rule:evenodd;stroke:none"
   d="m 181.74482,78.40821 c 4.31,0 7.5575,-2.06662 9.7425,-6.2 2.0375,-3.927 3.0575,-9.53725 3.0575,-16.831 0,-15.32475 -4.23875,-22.98712 -12.7125,-22.98712 -8.68125,0 -13.02125,7.66237 -13.02125,22.98712 0,15.354 4.31,23.031 12.93375,23.031 z m 0,-6.37813 c -2.51125,0 -4.2975,-1.60899 -5.36125,-4.82674 -0.855,-2.62813 -1.28375,-6.56975 -1.28375,-11.82613 0,-11.22075 2.215,-16.83112 6.645,-16.83112 4.39875,0 6.59875,5.61037 6.59875,16.83112 0,11.10225 -2.2,16.65288 -6.59875,16.65288 z"
   id="path25" /><path
   inkscape:connector-curvature="0"
   style="fill:#000000;fill-rule:nonzero;stroke:none"
   d="m 203.84482,33.27521 0,44.29187 22.14625,0 0,-5.84587 -15.8575,0 0,-38.446 -6.28875,0 z"
   id="path27" /></svg>