<?xml version="1.0" encoding="UTF-8" standalone="no"?>
<!-- Generator: Adobe Illustrator 12.0.1, SVG Export Plug-In  -->

<svg
   xmlns:dc="http://purl.org/dc/elements/1.1/"
   xmlns:cc="http://creativecommons.org/ns#"
   xmlns:rdf="http://www.w3.org/1999/02/22-rdf-syntax-ns#"
   xmlns:svg="http://www.w3.org/2000/svg"
   xmlns="http://www.w3.org/2000/svg"
   xmlns:sodipodi="http://sodipodi.sourceforge.net/DTD/sodipodi-0.dtd"
   xmlns:inkscape="http://www.inkscape.org/namespaces/inkscape"
   version="1.1"
   width="336.61374"
   height="106.29875"
   viewBox="-0.779 0 336.61374 106.29875"
   enable-background="new -0.779 0 98 288"
   xml:space="preserve"
   id="svg2"
   inkscape:version="0.48.2 r9819"
   sodipodi:docname="AJAX8.svg"><metadata
   id="metadata36"><rdf:RDF><cc:Work
       rdf:about=""><dc:format>image/svg+xml</dc:format><dc:type
         rdf:resource="http://purl.org/dc/dcmitype/StillImage" /><dc:title></dc:title></cc:Work></rdf:RDF></metadata><sodipodi:namedview
   pagecolor="#ffffff"
   bordercolor="#666666"
   borderopacity="1"
   objecttolerance="10"
   gridtolerance="10"
   guidetolerance="10"
   inkscape:pageopacity="0"
   inkscape:pageshadow="2"
   inkscape:window-width="1280"
   inkscape:window-height="1004"
   id="namedview34"
   showgrid="false"
   fit-margin-top="0"
   fit-margin-left="0"
   fit-margin-right="0"
   fit-margin-bottom="0"
   inkscape:zoom="1.3867569"
   inkscape:cx="143.86195"
   inkscape:cy="-33.250787"
   inkscape:window-x="-8"
   inkscape:window-y="-8"
   inkscape:window-maximized="1"
   inkscape:current-layer="svg2" />
<defs
   id="defs4">
</defs>














<path
   inkscape:connector-curvature="0"
   style="fill:#ffdb00;fill-rule:nonzero;stroke:none"
   d="M -0.779,17.715999 C -0.779,7.9309119 7.1519124,-1.0712629e-6 16.937,-1.0712629e-6 l 301.1815,0 c 9.78375,0 17.71625,7.9309129712629 17.71625,17.7160000712629 l 0,70.8655 c 0,9.785125 -7.9325,17.717251 -17.71625,17.717251 l -301.1815,0 c -9.7850876,0 -17.716,-7.932126 -17.716,-17.717251 l 0,-70.8655 z"
   id="path11" /><path
   inkscape:connector-curvature="0"
   style="fill:#000000;fill-rule:nonzero;stroke:none"
   d="m 2.7634812,17.716104 c 0,-7.8271871 6.3452125,-14.1736251 14.1734998,-14.1736251 l 301.180249,0 c 7.82875,0 14.17375,6.346438 14.17375,14.1736251 l 0,70.865375 c 0,7.828375 -6.345,14.173631 -14.17375,14.173631 l -301.180249,0 c -7.8282873,0 -14.1734998,-6.345256 -14.1734998,-14.173631 l 0,-70.865375 z"
   id="path13" /><path
   inkscape:connector-curvature="0"
   style="fill:#ffdb00;fill-rule:nonzero;stroke:none"
   d="m 8.4324312,17.716039 c 0,-4.69725 3.8073248,-8.5033881 8.5045748,-8.5033881 l 301.181674,0 c 4.69625,0 8.50375,3.8061381 8.50375,8.5033881 l 0,70.865487 c 0,4.69725 -3.8075,8.504625 -8.50375,8.504625 l -301.181674,0 c -4.69725,0 -8.5045748,-3.807375 -8.5045748,-8.504625 l 0,-70.865487 z"
   id="path15" /><path
   style="fill:#000000;fill-rule:nonzero;stroke:none"
   d="m 35.716406,44.243103 0,35.433247 4.888875,0 0,-23.279998 10.560249,23.279998 4.039374,0 0,-35.433247 -5.137999,0 0,20.480873 -9.461624,-20.480873 -4.888875,0 z"
   id="path17"
   inkscape:connector-curvature="0" /><path
   style="fill:#000000;fill-rule:nonzero;stroke:none"
   d="m 62.645029,44.243103 0,35.433247 17.717374,0 0,-4.996249 -12.862624,0 0,-11.693124 7.547624,0 0,-4.8535 -7.547624,0 0,-8.894124 12.294999,0 0,-4.99625 -17.149749,0 z"
   id="path19"
   inkscape:connector-curvature="0" /><path
   style="fill:#000000;fill-rule:nonzero;stroke:none"
   d="m 91.806402,61.534352 -7.617124,18.141998 5.4565,0 5.030499,-11.728499 4.819375,11.728499 5.598128,0 -7.652628,-18.141998 7.263248,-17.291249 -5.598123,0 -4.43,10.558999 -4.570249,-10.558999 -5.315,0 7.015374,17.291249 z"
   id="path21"
   inkscape:connector-curvature="0" /><path
   style="fill:#000000;fill-rule:nonzero;stroke:none"
   d="m 109.02815,44.243103 0,4.677625 6.30612,0 0,30.755622 5.20875,0 0,-30.755622 6.20138,0 0,-4.677625 -17.71625,0 z"
   id="path23"
   inkscape:connector-curvature="0" /><path
   style="fill:#000000;fill-rule:nonzero;stroke:none"
   d="m 157.18065,79.703225 8.45,0 0,-53.150621 -6.0575,0 c 0,0.850875 -0.78,1.66625 -2.34,2.44625 -1.41625,0.708 -2.71125,1.06325 -3.87875,1.06325 l 0,6.112124 3.82625,0 0,43.528997 z"
   id="path25"
   inkscape:connector-curvature="0" /><path
   style="fill:#000000;fill-rule:evenodd;stroke:none"
   d="m 192.41815,80.6591 c 5.45625,0 9.44375,-2.373125 11.95875,-7.121625 2.3375,-4.428749 3.5075,-11.232874 3.5075,-20.410123 0,-18.424124 -5.19125,-27.636748 -15.5725,-27.636748 -10.205,0 -15.3075,9.212624 -15.3075,27.636748 0,18.355623 5.1375,27.531748 15.41375,27.531748 z m 0,-7.3865 c -5.35,0 -8.02625,-6.715124 -8.02625,-20.145248 0,-13.427749 2.6575,-20.142874 7.9725,-20.142874 2.73,0 4.80125,1.966625 6.21875,5.899625 1.275,3.508375 1.91375,8.255624 1.91375,14.243249 0,13.430124 -2.69375,20.145248 -8.07875,20.145248 z"
   id="path27"
   inkscape:connector-curvature="0" /><path
   style="fill:#000000;fill-rule:nonzero;stroke:none"
   d="m 258.74314,79.723975 -10.9325,-15.912999 10.9325,-11.148749 -7.7925,0 -10.6625,11.148749 0,-21.541748 -5.7925,0 0,37.454747 5.7925,0 0,-8.388624 3.57125,-3.57175 7.9025,11.960374 6.98125,0 z"
   id="path29"
   inkscape:connector-curvature="0" /><path
   style="fill:#000000;fill-rule:nonzero;stroke:none"
   d="m 299.33814,79.723976 0,-15.479749 c 0,-4.1675 -0.325,-6.224374 -1.29875,-7.847874 -1.46125,-2.70625 -4.33,-4.1675 -7.84875,-4.1675 -3.2475,0 -5.46625,1.081625 -7.415,3.62675 -1.46125,-2.49025 -3.73375,-3.681625 -6.87375,-3.681625 -2.65125,0 -4.43875,0.81175 -6.49375,2.869875 l 0,-2.381625 -5.685,0 0,27.061748 5.685,0 0,-15.371124 c 0,-2.1655 0.27,-3.409375 1.08125,-4.438375 0.86625,-1.245125 2.38125,-2.056874 3.8425,-2.056874 1.29875,0 2.6525,0.595624 3.41,1.678374 0.70375,0.974125 0.86625,1.839625 0.86625,4.654625 l 0,15.533374 5.95375,0 0,-15.533374 c 0,-2.489 0.1625,-3.41075 0.8125,-4.276125 0.91875,-1.298875 2.435,-2.110624 3.95,-2.110624 1.6775,0 3.03125,0.811749 3.68125,2.164249 0.37875,0.81175 0.48625,1.9495 0.48625,4.2225 l 0,15.533374 5.84625,0 z"
   id="path31"
   inkscape:connector-curvature="0" /></svg>