<?xml version="1.0" encoding="UTF-8" standalone="no"?>
<!-- Created with Inkscape (http://www.inkscape.org/) -->

<svg
   xmlns:dc="http://purl.org/dc/elements/1.1/"
   xmlns:cc="http://creativecommons.org/ns#"
   xmlns:rdf="http://www.w3.org/1999/02/22-rdf-syntax-ns#"
   xmlns:svg="http://www.w3.org/2000/svg"
   xmlns="http://www.w3.org/2000/svg"
   xmlns:sodipodi="http://sodipodi.sourceforge.net/DTD/sodipodi-0.dtd"
   xmlns:inkscape="http://www.inkscape.org/namespaces/inkscape"
   width="212.5975"
   height="141.7325"
   id="svg2"
   sodipodi:version="0.32"
   inkscape:version="0.48.2 r9819"
   version="1.0"
   sodipodi:docname="AJAX7.svg"
   inkscape:output_extension="org.inkscape.output.svg.inkscape">
  <defs
     id="defs4">
    <inkscape:perspective
       sodipodi:type="inkscape:persp3d"
       inkscape:vp_x="0 : 300.5 : 1"
       inkscape:vp_y="0 : 1000 : 0"
       inkscape:vp_z="601 : 300.5 : 1"
       inkscape:persp3d-origin="300.5 : 200.33333 : 1"
       id="perspective3380" />
    <inkscape:perspective
       id="perspective3990"
       inkscape:persp3d-origin="375 : 250 : 1"
       inkscape:vp_z="750 : 375 : 1"
       inkscape:vp_y="0 : 1000 : 0"
       inkscape:vp_x="0 : 375 : 1"
       sodipodi:type="inkscape:persp3d" />
  </defs>
  <sodipodi:namedview
     id="base"
     pagecolor="#ffffff"
     bordercolor="#666666"
     borderopacity="1.0"
     gridtolerance="10000"
     guidetolerance="10"
     objecttolerance="10"
     inkscape:pageopacity="0.0"
     inkscape:pageshadow="2"
     inkscape:zoom="2.5733333"
     inkscape:cx="154.30747"
     inkscape:cy="30.569093"
     inkscape:document-units="px"
     inkscape:current-layer="layer1"
     width="601px"
     height="601px"
     inkscape:window-width="1280"
     inkscape:window-height="1004"
     inkscape:window-x="-8"
     inkscape:window-y="-8"
     showgrid="false"
     fit-margin-top="0"
     fit-margin-left="0"
     fit-margin-right="0"
     fit-margin-bottom="0"
     inkscape:window-maximized="1" />
  <metadata
     id="metadata7">
    <rdf:RDF>
      <cc:Work
         rdf:about="">
        <dc:format>image/svg+xml</dc:format>
        <dc:type
           rdf:resource="http://purl.org/dc/dcmitype/StillImage" />
        <dc:title></dc:title>
      </cc:Work>
    </rdf:RDF>
  </metadata>
  <g
     inkscape:label="Layer 1"
     inkscape:groupmode="layer"
     id="layer1"
     transform="translate(-3.0061336,-457.32105)">
    <rect
       style="color:#000000;fill:#000000;fill-opacity:1;fill-rule:nonzero;stroke:none;stroke-width:0.8735441;marker:none;visibility:visible;display:inline;overflow:visible"
       id="rect3653"
       width="0"
       height="27.202072"
       x="578.73834"
       y="298.1684"
       rx="249.48199"
       ry="27.202072" />
    <path
       inkscape:connector-curvature="0"
       style="fill:#ffdb00;fill-rule:nonzero;stroke:none"
       d="m 3.0061337,471.49468 c 0,-7.82842 6.3452125,-14.17363 14.1723743,-14.17363 l 184.251382,0 c 7.82875,0 14.17375,6.34521 14.17375,14.17363 l 0,113.38512 c 0,7.82875 -6.345,14.17375 -14.17375,14.17375 l -184.251382,0 c -7.8271618,0 -14.1723744,-6.345 -14.1723744,-14.17375 l 0,-113.38512 z"
       id="path11" />
    <path
       inkscape:connector-curvature="0"
       style="fill:#000000;fill-rule:nonzero;stroke:none"
       d="m 5.8406049,471.49462 c 0,-6.2622 5.0756871,-11.3391 11.3378621,-11.3391 l 184.250893,0 c 6.2625,0 11.34,5.0769 11.34,11.3391 l 0,113.38515 c 0,6.262 -5.0775,11.33825 -11.34,11.33825 l -184.250892,0 c -6.262176,0 -11.3378631,-5.07625 -11.3378631,-11.33825 l 0,-113.38515 z"
       id="path13" />
    <path
       inkscape:connector-curvature="0"
       style="fill:#ffdb00;fill-rule:nonzero;stroke:none"
       d="m 10.446317,471.49463 c 0,-3.71825 3.013913,-6.73218 6.73215,-6.73218 l 184.251603,0 c 3.71875,0 6.73375,3.01393 6.73375,6.73218 l 0,113.38507 c 0,3.71875 -3.015,6.734 -6.73375,6.734 l -184.251603,0 c -3.718237,0 -6.73215,-3.01525 -6.73215,-6.734 l 0,-113.38507 z"
       id="path15" />
    <path
       style="fill:#000000;fill-rule:evenodd;stroke:none"
       d="m 53.958221,564.98102 c 15.684875,0 27.778375,-5.12575 36.283,-15.37725 3.54375,-4.25288 5.976625,-8.07863 7.299875,-11.4795 1.842,-4.773 2.763624,-11.05588 2.763624,-18.85138 0,-9.11737 -2.857624,-15.94475 -8.575499,-20.48087 -5.054875,-4.01613 -11.9995,-6.023 -20.834875,-6.023 -7.464625,0 -13.841625,1.93725 -19.133375,5.81063 -5.574875,4.01599 -8.36175,9.09537 -8.36175,15.23674 0,6.85063 2.503625,12.33038 7.511,16.44051 4.724125,3.92087 10.6775,5.8825 17.858875,5.8825 8.315375,0 14.032,-0.87525 17.149625,-2.622 -3.68525,6.99212 -8.103,11.97625 -13.252,14.95237 -4.865625,2.83437 -11.10225,4.25162 -18.7085,4.25162 l 0,12.25963 z M 71.320346,523.8079 c -4.67775,0 -8.385,-0.75563 -11.1255,-2.26688 -3.024875,-1.6065 -4.536125,-3.9685 -4.536125,-7.08612 0,-3.11901 1.51125,-5.50426 4.536125,-7.15825 2.786875,-1.55888 6.495375,-2.33888 11.1255,-2.33888 10.299125,0 15.44925,3.16525 15.44925,9.49713 0,6.23525 -5.150125,9.353 -15.44925,9.353 z"
       id="path17"
       inkscape:connector-curvature="0" />
    <path
       style="fill:#000000;fill-rule:nonzero;stroke:none"
       d="m 122.98047,492.76902 -2.196,33.51937 12.47238,3.68525 c 1.2275,-1.18037 3.6375,-2.14962 7.2275,-2.90525 2.92875,-0.61399 5.5275,-0.92162 7.795,-0.92162 3.78,0 7.03875,0.96925 9.78,2.90525 3.3075,2.31562 4.96,5.57487 4.96,9.78025 0,3.82688 -1.29875,7.08625 -3.89625,9.779 -2.59875,2.6465 -5.86,3.993 -9.78,4.03937 -4.01625,0.0476 -8.505,-0.44925 -13.465,-1.48799 -5.15,-1.0865 -9.1415,-2.43288 -11.97713,-4.03938 l -5.243,10.70187 c 8.739,4.77051 19.25013,7.15588 31.53388,7.15588 6.94625,0 12.9,-2.62087 17.86,-7.86625 4.81875,-5.1965 7.22875,-11.29025 7.22875,-18.2825 0,-6.37813 -2.505,-12.11913 -7.5125,-17.2205 -5.0075,-5.15012 -10.6775,-7.7245 -17.0075,-7.7245 -5.2925,0 -11.08,0.874 -17.3625,2.622 l 0.92,-11.5515 35.08,0 0,-12.18875 -46.41763,0 z"
       id="path19"
       inkscape:connector-curvature="0" />
  </g>
</svg>
