<?xml version="1.0" encoding="UTF-8" standalone="no"?>
<!-- Generator: Adobe Illustrator 13.0.1, SVG Export Plug-In . SVG Version: 6.00 Build 14948)  -->

<svg
   xmlns:dc="http://purl.org/dc/elements/1.1/"
   xmlns:cc="http://creativecommons.org/ns#"
   xmlns:rdf="http://www.w3.org/1999/02/22-rdf-syntax-ns#"
   xmlns:svg="http://www.w3.org/2000/svg"
   xmlns="http://www.w3.org/2000/svg"
   xmlns:sodipodi="http://sodipodi.sourceforge.net/DTD/sodipodi-0.dtd"
   xmlns:inkscape="http://www.inkscape.org/namespaces/inkscape"
   version="1.1"
   id="Layer_1"
   x="0px"
   y="0px"
   width="265.74875"
   height="110.90575"
   viewBox="0 0 265.74876 110.90576"
   enable-background="new 0 0 300 250"
   xml:space="preserve"
   inkscape:version="0.48.2 r9819"
   sodipodi:docname="AJAX1.svg"><metadata
   id="metadata94"><rdf:RDF><cc:Work
       rdf:about=""><dc:format>image/svg+xml</dc:format><dc:type
         rdf:resource="http://purl.org/dc/dcmitype/StillImage" /><dc:title></dc:title></cc:Work></rdf:RDF></metadata><defs
   id="defs92" /><sodipodi:namedview
   pagecolor="#ffffff"
   bordercolor="#666666"
   borderopacity="1"
   objecttolerance="10"
   gridtolerance="10"
   guidetolerance="10"
   inkscape:pageopacity="0"
   inkscape:pageshadow="2"
   inkscape:window-width="1280"
   inkscape:window-height="1004"
   id="namedview90"
   showgrid="false"
   fit-margin-top="0"
   fit-margin-left="0"
   fit-margin-right="0"
   fit-margin-bottom="0"
   inkscape:zoom="1.3350176"
   inkscape:cx="62.876473"
   inkscape:cy="-18.625548"
   inkscape:window-x="-8"
   inkscape:window-y="-8"
   inkscape:window-maximized="1"
   inkscape:current-layer="Layer_1" />















<path
   inkscape:connector-curvature="0"
   style="fill:#ffdb00;fill-rule:nonzero;stroke:none"
   d="M -1.0611749e-5,17.716127 C -1.0611749e-5,7.932126 7.9321151,0 17.717241,0 L 248.03252,0 c 9.78375,0 17.71625,7.932126 17.71625,17.716127 l 0,75.472384 c 0,9.785119 -7.9325,17.717249 -17.71625,17.717249 l -230.315279,0 c -9.7851259,0 -17.717251611749,-7.93213 -17.717251611749,-17.717249 l 0,-75.472384 z"
   id="path11" /><path
   inkscape:connector-curvature="0"
   style="fill:#000000;fill-rule:nonzero;stroke:none"
   d="m 3.188471,17.716107 c 0,-8.022501 6.505126,-14.527626 14.527626,-14.527626 l 230.316153,0 c 8.0225,0 14.5275,6.505125 14.5275,14.527626 l 0,75.472384 c 0,8.023749 -6.505,14.527629 -14.5275,14.527629 l -230.316153,0 c -8.0225,0 -14.527626,-6.50388 -14.527626,-14.527629 l 0,-75.472384 z"
   id="path13" /><path
   inkscape:connector-curvature="0"
   style="fill:#ffdb00;fill-rule:nonzero;stroke:none"
   d="m 7.7953964,17.71609 c 0,-5.478501 4.4420876,-9.920689 9.9218386,-9.920689 l 230.314445,0 c 5.47875,0 9.92125,4.442188 9.92125,9.920689 l 0,75.472321 c 0,5.47987 -4.4425,9.921869 -9.92125,9.921869 l -230.314445,0 c -5.479751,0 -9.9218386,-4.441999 -9.9218386,-9.921869 l 0,-75.472321 z"
   id="path15" /><path
   style="fill:#000000;fill-rule:nonzero;stroke:none"
   d="m 58.06274,77.646556 6.956752,0 0,-44.292005 -5.531001,0 c -1.065625,1.687 -2.764876,2.796625 -5.098876,3.33 l 0,5.256376 3.673125,0 0,35.705629 z"
   id="path17"
   inkscape:connector-curvature="0" /><path
   style="fill:#000000;fill-rule:evenodd;stroke:none"
   d="m 91.256119,78.487556 c 10.334501,0 15.501751,-7.662376 15.501751,-22.988253 0,-15.354002 -5.16725,-23.029878 -15.501751,-23.029878 -10.334501,0 -15.501752,7.675876 -15.501752,23.029878 0,15.325877 5.167251,22.988253 15.501752,22.988253 z m 0,-6.767626 c -5.765376,0 -8.648751,-5.406501 -8.648751,-16.220627 0,-10.813002 2.883375,-16.219502 8.648751,-16.219502 5.722626,0 8.582751,5.4065 8.582751,16.219502 0,10.814126 -2.860125,16.220627 -8.582751,16.220627 z"
   id="path19"
   inkscape:connector-curvature="0" /><path
   style="fill:#000000;fill-rule:evenodd;stroke:none"
   d="m 130.21838,78.487556 c 10.335,0 15.50125,-7.662376 15.50125,-22.988253 0,-15.354002 -5.16625,-23.029878 -15.50125,-23.029878 -10.33551,0 -15.50276,7.675876 -15.50276,23.029878 0,15.325877 5.16725,22.988253 15.50276,22.988253 z m 0,-6.767626 c -5.76626,0 -8.64851,-5.406501 -8.64851,-16.220627 0,-10.813002 2.88225,-16.219502 8.64851,-16.219502 5.72125,0 8.5825,5.4065 8.5825,16.219502 0,10.814126 -2.86125,16.220627 -8.5825,16.220627 z"
   id="path21"
   inkscape:connector-curvature="0" /><path
   style="fill:#000000;fill-rule:nonzero;stroke:none"
   d="m 193.67464,52.197302 c 2.46875,-2.349875 5.0775,-3.52425 7.82625,-3.52425 1.47375,0 2.80875,0.258875 4.00375,0.776375 2.03125,0.83625 3.58375,2.091125 4.65875,3.763501 l 0.12,0.179375 0.23875,0.658 0.12,0.17825 0.5375,2.03125 c 0.04,0.399125 0.0687,0.76775 0.0888,1.105875 0.0213,0.338125 0.03,0.647 0.03,0.925375 l 0,19.238253 -6.2125,0 0,-1.554001 0,-7.288751 0,-8.901376 -0.12,-0.955875 -0.12,-0.836125 c -0.0788,-0.199 -0.15875,-0.38825 -0.23875,-0.567625 -0.08,-0.1795 -0.13875,-0.368625 -0.17875,-0.567625 -1.03625,-1.63325 -2.25125,-2.45 -3.645,-2.45 -0.87625,0 -1.81125,0.299125 -2.8075,0.896 -0.99625,0.756875 -1.7325,1.61375 -2.21,2.569625 l -0.24,1.314625 0,18.341128 -6.33125,0 0,-8.723127 0,-9.737626 -0.12,-0.95575 -0.17875,-0.358875 0,-0.358875 c -0.16,-0.318625 -0.3,-0.597 -0.41875,-0.83625 -0.12,-0.23925 -0.21875,-0.45775 -0.29875,-0.65675 -0.95625,-0.91675 -2.05125,-1.394 -3.28625,-1.43425 -2.27,0.318625 -3.90376,1.41475 -4.90001,3.286125 l -0.1775,0.65675 -0.06,1.195 c 0.0388,0.04038 0.06,0.279625 0.06,0.716625 l 0,17.207003 -6.5125,0 0,-10.455377 0,-13.442376 0,-4.599626 6.5125,0 0,2.089875 c 1.95,-1.433125 3.96251,-2.26925 6.03376,-2.5085 3.425,0 6.03375,1.195 7.82625,3.584 z"
   id="path23"
   inkscape:connector-curvature="0" /></svg>