<?xml version="1.0" encoding="UTF-8" standalone="no"?>
<!-- Created with Inkscape (http://www.inkscape.org/) -->

<svg
   xmlns:dc="http://purl.org/dc/elements/1.1/"
   xmlns:cc="http://creativecommons.org/ns#"
   xmlns:rdf="http://www.w3.org/1999/02/22-rdf-syntax-ns#"
   xmlns:svg="http://www.w3.org/2000/svg"
   xmlns="http://www.w3.org/2000/svg"
   xmlns:sodipodi="http://sodipodi.sourceforge.net/DTD/sodipodi-0.dtd"
   xmlns:inkscape="http://www.inkscape.org/namespaces/inkscape"
   width="214.09375"
   height="90.09375"
   id="svg2"
   sodipodi:version="0.32"
   inkscape:version="0.48.2 r9819"
   version="1.0"
   sodipodi:docname="AJAX1.svg"
   inkscape:output_extension="org.inkscape.output.svg.inkscape">
  <defs
     id="defs4">
    <inkscape:perspective
       sodipodi:type="inkscape:persp3d"
       inkscape:vp_x="0 : 300.5 : 1"
       inkscape:vp_y="0 : 1000 : 0"
       inkscape:vp_z="601 : 300.5 : 1"
       inkscape:persp3d-origin="300.5 : 200.33333 : 1"
       id="perspective3380" />
    <inkscape:perspective
       id="perspective3990"
       inkscape:persp3d-origin="375 : 250 : 1"
       inkscape:vp_z="750 : 375 : 1"
       inkscape:vp_y="0 : 1000 : 0"
       inkscape:vp_x="0 : 375 : 1"
       sodipodi:type="inkscape:persp3d" />
  </defs>
  <sodipodi:namedview
     id="base"
     pagecolor="#ffffff"
     bordercolor="#666666"
     borderopacity="1.0"
     gridtolerance="10000"
     guidetolerance="10"
     objecttolerance="10"
     inkscape:pageopacity="0.0"
     inkscape:pageshadow="2"
     inkscape:zoom="2.0232335"
     inkscape:cx="49.315019"
     inkscape:cy="93.032708"
     inkscape:document-units="px"
     inkscape:current-layer="layer1"
     width="601px"
     height="601px"
     inkscape:window-width="1280"
     inkscape:window-height="1004"
     inkscape:window-x="-8"
     inkscape:window-y="-8"
     showgrid="false"
     fit-margin-top="0"
     fit-margin-left="0"
     fit-margin-right="0"
     fit-margin-bottom="0"
     inkscape:window-maximized="1" />
  <metadata
     id="metadata7">
    <rdf:RDF>
      <cc:Work
         rdf:about="">
        <dc:format>image/svg+xml</dc:format>
        <dc:type
           rdf:resource="http://purl.org/dc/dcmitype/StillImage" />
        <dc:title />
      </cc:Work>
    </rdf:RDF>
  </metadata>
  <g
     inkscape:label="Layer 1"
     inkscape:groupmode="layer"
     id="layer1"
     transform="translate(-71.875,-487.8125)">
    <rect
       style="color:#000000;fill:#000000;fill-opacity:1;fill-rule:nonzero;stroke:none;stroke-width:0.8735441;marker:none;visibility:visible;display:inline;overflow:visible"
       id="rect3653"
       width="0"
       height="27.202072"
       x="578.73834"
       y="298.1684"
       rx="249.48199"
       ry="27.202072" />
    <path
       inkscape:connector-curvature="0"
       style="fill:#ffffff;fill-rule:nonzero;stroke:#000000;stroke-width:1.5;stroke-miterlimit:4;stroke-opacity:1;stroke-dasharray:none"
       d="m 72.615723,499.18896 c 0,-5.87158 4.759525,-10.62988 10.629875,-10.62988 l 191.338872,0 c 5.87,0 10.63,4.7583 10.63,10.62988 l 0,67.32299 c 0,5.87038 -4.76,10.62988 -10.63,10.62988 l -191.338872,0 c -5.87035,0 -10.629875,-4.7595 -10.629875,-10.62988 l 0,-67.32299 z"
       id="path11" />
    <path
       inkscape:connector-curvature="0"
       style="fill:#0069b3;fill-rule:nonzero;stroke:none"
       d="m 78.9939,499.18896 c 0,-2.34862 1.903075,-4.25292 4.2517,-4.25292 l 191.33955,0 c 2.34875,0 4.25125,1.9043 4.25125,4.25292 l 0,67.32183 c 0,2.34862 -1.9025,4.25287 -4.25125,4.25287 l -191.33955,0 c -2.348625,0 -4.2517,-1.90425 -4.2517,-4.25287 l 0,-67.32183 z"
       id="path13" />
    <path
       inkscape:connector-curvature="0"
       style="fill:#ffffff;fill-rule:evenodd;stroke:none"
       d="m 104.21362,554.90188 0,-9.37263 -5.917995,0 0,2.36087 3.894125,0 0,0.65063 c 0,0.96438 -0.116,1.687 -0.36625,2.24125 -0.53963,1.18037 -1.67725,1.95187 -2.94925,1.95187 -2.4865,0 -4.067375,-2.43412 -4.067375,-6.21699 0,-3.80613 1.619875,-6.33676 4.028375,-6.33676 1.46475,0 2.42912,0.74713 3.31537,2.79551 l 2.179,-0.65063 c -0.907,-2.98837 -2.98837,-4.67412 -5.378495,-4.67412 -1.60025,0 -3.045625,0.60174 -4.105125,1.73462 -1.464875,1.54175 -2.39025,4.26387 -2.39025,7.05938 0,2.31312 0.636,4.77049 1.579625,6.21574 1.080375,1.615 2.891875,2.6025 4.7815,2.6025 1.502755,0 2.524375,-0.5785 3.430245,-1.97499 l 0,1.61375 1.9665,0 z"
       id="path15" />
    <path
       inkscape:connector-curvature="0"
       style="fill:#ffffff;fill-rule:evenodd;stroke:none"
       d="m 115.8945,548.9265 c 0,-3.7585 -1.90913,-6.36113 -4.72288,-6.36113 -2.67937,0 -4.47137,2.55376 -4.47137,6.36113 0,3.73412 1.88837,6.3135 4.62525,6.3135 2.69887,0 4.569,-2.6025 4.569,-6.3135 z m -2.19725,-0.0476 c 0,2.312 -1.00213,3.855 -2.44875,3.855 -1.48438,0 -2.467,-1.543 -2.467,-3.855 0,-2.26563 1.00225,-3.85613 2.48662,-3.85613 1.46475,0 2.42913,1.54288 2.42913,3.85613 z"
       id="path17" />
    <path
       inkscape:connector-curvature="0"
       style="fill:#ffffff;fill-rule:evenodd;stroke:none"
       d="m 127.26662,548.9265 c 0,-3.7585 -1.908,-6.36113 -4.72175,-6.36113 -2.67938,0 -4.47263,2.55376 -4.47263,6.36113 0,3.73412 1.88963,6.3135 4.62651,6.3135 2.69899,0 4.56787,-2.6025 4.56787,-6.3135 z m -2.19725,-0.0476 c 0,2.312 -1.00225,3.855 -2.4475,3.855 -1.48437,0 -2.46712,-1.543 -2.46712,-3.855 0,-2.26563 1.00225,-3.85613 2.48662,-3.85613 1.46488,0 2.428,1.54288 2.428,3.85613 z"
       id="path19" />
    <path
       inkscape:connector-curvature="0"
       style="fill:#ffffff;fill-rule:evenodd;stroke:none"
       d="m 138.1955,554.90188 0,-16.67363 -2.04338,0 0,5.56637 c -0.78987,-0.81899 -1.52225,-1.18037 -2.50487,-1.18037 -2.48663,0 -4.22125,2.55375 -4.22125,6.24025 0,3.6865 1.7725,6.33663 4.27862,6.33663 0.96438,0 1.79313,-0.41013 2.4475,-1.22926 l 0,0.94001 2.04338,0 z m -2.06175,-5.83138 c 0,1.012 -0.0585,1.6395 -0.19288,2.07275 -0.28925,0.91562 -1.11812,1.59062 -2.02388,1.59062 -1.42699,0 -2.35112,-1.49412 -2.35112,-3.80737 0,-2.36088 0.92413,-3.855 2.4085,-3.855 0.90575,0 1.77363,0.69825 2.00563,1.63825 0.11475,0.45775 0.15375,1.084 0.15375,2.36075 z"
       id="path21" />
    <path
       inkscape:connector-curvature="0"
       style="fill:#ffffff;fill-rule:nonzero;stroke:none"
       d="m 148.66187,551.21537 c 0,-1.9275 -1.04,-3.06037 -3.0835,-3.51812 -1.11813,-0.2405 -1.23412,-0.26488 -1.44537,-0.36125 -0.48213,-0.19287 -0.73238,-0.55425 -0.73238,-1.012 0,-0.79475 0.69338,-1.39775 1.61862,-1.39775 0.65551,0 1.00226,0 1.69563,0.98875 l 1.71625,-0.98875 c -0.84838,-1.831 -2.10075,-2.312 -3.43137,-2.312 -2.17775,0 -3.70001,1.565 -3.70001,3.7585 0,0.86675 0.26863,1.73463 0.75075,2.36087 0.53963,0.67513 1.07913,0.96438 2.40975,1.22926 0.96425,0.19287 1.15713,0.2405 1.38788,0.36137 0.42362,0.216 0.6555,0.62625 0.6555,1.10838 0,0.79462 -0.71287,1.34887 -1.75413,1.34887 -0.96437,0 -1.46487,-0.26488 -2.31325,-1.54175 l -1.42574,1.42087 c 0.78975,1.8555 2.35112,2.48175 3.79637,2.48175 2.25587,0 3.855,-1.61374 3.855,-3.927 z"
       id="path23" />
    <path
       inkscape:connector-curvature="0"
       style="fill:#ffffff;fill-rule:nonzero;stroke:none"
       d="m 165.97137,538.03538 -2.33275,0 -3.02613,13.27637 -3.02612,-13.27637 -2.3315,0 4.04662,16.8665 2.7185,0 3.95138,-16.8665 z"
       id="path25" />
    <path
       inkscape:connector-curvature="0"
       style="fill:#ffffff;fill-rule:evenodd;stroke:none"
       d="m 176.36087,549.842 0,-0.52975 c 0,-4.19312 -1.65775,-6.72238 -4.41413,-6.72238 -2.60249,0 -4.33712,2.50613 -4.33712,6.21575 0,3.783 1.79325,6.41001 4.58737,6.41001 1.4465,0 2.815,-0.55425 3.66213,-2.53063 l -1.52225,-1.61375 c -0.78975,1.44537 -1.27187,1.63825 -2.12037,1.63825 -1.38788,0 -2.27413,-1.084 -2.42913,-2.8675 l 6.5735,0 z m -2.19725,-2.02388 -4.37625,0 c 0.0586,-0.72262 0.1355,-1.05962 0.30888,-1.44537 0.40524,-0.86788 1.11812,-1.39762 1.90787,-1.39762 1.25375,0 2.10088,1.10837 2.1595,2.84299 z"
       id="path27" />
    <path
       inkscape:connector-curvature="0"
       style="fill:#ffffff;fill-rule:nonzero;stroke:none"
       d="m 186.59637,554.90188 0,-7.54151 c 0,-1.56612 -0.13538,-2.28887 -0.52113,-3.06037 -0.53962,-1.10837 -1.59912,-1.759 -2.73687,-1.759 -1.04125,0 -1.792,0.36137 -2.62088,1.32575 l 0,-5.6385 -2.08249,0 0,16.67363 2.08249,0 0,-6.33676 c 0,-2.24112 0.71288,-3.39712 2.04225,-3.39712 0.61775,0 1.08038,0.2405 1.4075,0.7715 0.25025,0.43325 0.32838,0.86662 0.32838,1.903 l 0,7.05938 2.10075,0 z"
       id="path29" />
    <path
       inkscape:connector-curvature="0"
       style="fill:#ffffff;fill-rule:evenodd;stroke:none"
       d="m 191.78075,539.74688 c 0,-0.84351 -0.59688,-1.615 -1.272,-1.615 -0.75188,0 -1.34888,0.74699 -1.34888,1.615 0,0.91549 0.597,1.63812 1.32938,1.63812 0.69462,0 1.2915,-0.72263 1.2915,-1.63812 z m -0.26975,15.155 0,-12.02638 -2.08125,0 0,12.02638 2.08125,0 z"
       id="path31" />
    <path
       inkscape:connector-curvature="0"
       style="fill:#ffffff;fill-rule:nonzero;stroke:none"
       d="m 202.55625,551.89037 -1.85126,-1.13275 c -0.53874,1.30126 -1.19499,1.903 -2.09999,1.903 -1.408,0 -2.39062,-1.54175 -2.39062,-3.78175 0,-2.12037 1.00211,-3.73537 2.33312,-3.73537 0.90499,0 1.5025,0.55425 2.06124,1.83113 l 1.87002,-1.18038 c -0.69376,-1.99963 -2.10001,-3.0835 -3.87376,-3.0835 -2.66037,0 -4.49151,2.52925 -4.49151,6.16812 0,3.66213 1.79201,6.1915 4.39402,6.1915 1.8125,0 3.27749,-1.13162 4.04875,-3.18 z"
       id="path33" />
    <path
       inkscape:connector-curvature="0"
       style="fill:#ffffff;fill-rule:nonzero;stroke:none"
       d="m 208.78249,554.85425 -0.425,-2.16925 c -0.655,0.0489 -0.4625,0.0489 -0.67499,0.0489 -0.84625,0 -1.07875,-0.33813 -1.07875,-1.56612 l 0,-12.93951 -2.04376,0 0,13.32401 c 0,1.80787 0.15501,2.43412 0.73376,2.96387 0.42374,0.38575 0.94374,0.55425 1.715,0.55425 0.53999,0 1.31125,-0.0965 1.77374,-0.21613 z"
       id="path35" />
    <path
       inkscape:connector-curvature="0"
       style="fill:#ffffff;fill-rule:evenodd;stroke:none"
       d="m 218.76624,549.842 0,-0.52975 c 0,-4.19312 -1.65749,-6.72238 -4.41374,-6.72238 -2.6025,0 -4.33625,2.50613 -4.33625,6.21575 0,3.783 1.7925,6.41001 4.58625,6.41001 1.4475,0 2.815,-0.55425 3.6625,-2.53063 l -1.5225,-1.61375 c -0.78875,1.44537 -1.27125,1.63825 -2.12,1.63825 -1.3875,0 -2.27375,-1.084 -2.42875,-2.8675 l 6.57249,0 z m -2.19624,-2.02388 -4.37625,0 c 0.0587,-0.72262 0.135,-1.05962 0.30875,-1.44537 0.40501,-0.86788 1.1175,-1.39762 1.9075,-1.39762 1.25375,0 2.10125,1.10837 2.16,2.84299 z"
       id="path37" />
    <path
       inkscape:connector-curvature="0"
       style="fill:#ffffff;fill-rule:evenodd;stroke:none"
       d="m 238.40749,546.7585 c 0,-2.4585 -0.51999,-4.72288 -1.425,-6.217 -1.08,-1.78225 -2.85249,-2.843 -4.78,-2.843 -3.6825,0 -6.0925,3.518 -6.0925,8.86712 0,2.4085 0.46376,4.38488 1.36876,5.8545 1.07875,1.80663 2.85249,2.843 4.8,2.843 3.64375,0 6.12874,-3.46912 6.12874,-8.50462 z m -2.31124,-0.21725 c 0,3.83063 -1.48501,6.21587 -3.85501,6.21587 -2.35249,0 -3.875,-2.45737 -3.875,-6.24024 0,-3.83063 1.48376,-6.24026 3.83625,-6.24026 2.33251,0 3.89376,2.50613 3.89376,6.26463 z"
       id="path39" />
    <path
       inkscape:connector-curvature="0"
       style="fill:#ffffff;fill-rule:evenodd;stroke:none"
       d="m 248.70124,554.90188 0,-7.37313 c 0,-1.80663 -0.135,-2.65012 -0.61625,-3.44475 -0.57749,-0.94 -1.54249,-1.49413 -2.69874,-1.49413 -0.94375,0 -1.5425,0.26488 -2.44875,1.18038 l 0,-0.9155 -2.04251,0 0,12.04713 2.04251,0 0,-6.81888 c 0,-1.03638 0.13625,-1.66262 0.48249,-2.1435 0.34625,-0.48225 0.9825,-0.796 1.52376,-0.796 0.55749,0 1.11625,0.31375 1.36875,0.796 0.23,0.43325 0.3075,0.96312 0.3075,2.11912 l 0,6.84326 2.08125,0 z"
       id="path41" />
    <path
       inkscape:connector-curvature="0"
       style="fill:#ffffff;fill-rule:nonzero;stroke:none"
       d="m 255.90999,554.85425 -0.42375,-2.16925 c -0.655,0.0489 -0.4625,0.0489 -0.675,0.0489 -0.84625,0 -1.07875,-0.33813 -1.07875,-1.56613 l 0,-12.9395 -2.04375,0 0,13.324 c 0,1.80788 0.155,2.43413 0.7325,2.96388 0.42375,0.38575 0.945,0.55425 1.715,0.55425 0.54125,0 1.31125,-0.0965 1.77375,-0.21613 z"
       id="path43" />
    <path
       inkscape:connector-curvature="0"
       style="fill:#ffffff;fill-rule:nonzero;stroke:none"
       d="m 265.375,542.85475 -2.255,0 -2.12,8.40938 -1.9475,-8.40938 -2.35125,0 3.27625,12.36088 c -0.30876,0.98749 -0.57875,1.25237 -1.2525,1.25237 -0.36626,0 -0.6175,-0.0476 -1.08001,-0.28925 l -0.4425,2.16913 c 0.635,0.28812 1.21375,0.45774 1.90875,0.45774 0.80876,0 1.36876,-0.19287 1.77251,-0.62737 0.36625,-0.36138 0.52,-0.72262 0.84875,-1.85425 l 3.6425,-13.46925 z"
       id="path45" />
    <path
       inkscape:connector-curvature="0"
       style="fill:#ffffff;fill-rule:nonzero;stroke:none"
       d="m 101.89312,520.04712 c 0,-4.082 -2.17662,-7.002 -5.19287,-7.002 -1.110875,0 -1.904375,0.3125 -3.08475,1.106 l 0.205,-3.96849 7.25587,0 0,-3.08963 -9.79612,0 -0.52125,10.14775 2.652625,0.59563 c 0.589625,-1.33301 1.4295,-1.89938 2.722125,-1.89938 1.814,0 3.0835,1.7005 3.0835,4.11012 0,2.43775 -1.2475,4.02463 -3.128625,4.02463 -1.474625,0 -2.336375,-0.87888 -3.06275,-3.0615 l -2.47075,0.85087 c 0.748375,3.23113 2.811375,5.13063 5.64575,5.13063 3.379,0 5.692255,-2.8065 5.692255,-6.94463 z"
       id="path47" />
    <path
       inkscape:connector-curvature="0"
       style="fill:#ffffff;fill-rule:evenodd;stroke:none"
       d="m 125.001,526.73662 0,-8.10674 c 0,-2.18263 -0.13551,-3.26051 -0.5445,-4.11013 -0.61151,-1.41725 -1.81388,-2.18263 -3.2885,-2.18263 -1.35988,0 -2.29013,0.56651 -3.10675,1.8995 -0.6115,-1.305 -1.56375,-1.92874 -2.87963,-1.92874 -1.11087,0 -1.85912,0.42599 -2.72087,1.50262 l 0,-1.2475 -2.38163,0 0,14.17362 2.38163,0 0,-8.05062 c 0,-1.134 0.1135,-1.78588 0.45287,-2.32413 0.36375,-0.65187 0.99851,-1.07675 1.61,-1.07675 0.5445,0 1.11213,0.31126 1.42951,0.87775 0.29425,0.5115 0.36249,0.96438 0.36249,2.43888 l 0,8.13487 2.49514,0 0,-8.13487 c 0,-1.30362 0.0671,-1.78588 0.33937,-2.23988 0.38575,-0.68 1.0205,-1.106 1.65524,-1.106 0.70312,0 1.27076,0.426 1.54175,1.134 0.15875,0.426 0.20512,1.0205 0.20512,2.21188 l 0,8.13487 2.44876,0 z"
       id="path49" />
    <path
       inkscape:connector-curvature="0"
       style="fill:#ffffff;fill-rule:evenodd;stroke:none"
       d="m 131.44137,508.907 c 0,-0.9925 -0.70313,-1.89937 -1.49775,-1.89937 -0.88375,0 -1.58687,0.87887 -1.58687,1.89937 0,1.07662 0.70312,1.9275 1.56487,1.9275 0.81662,0 1.51975,-0.85088 1.51975,-1.9275 z m -0.31738,17.82962 0,-14.148 -2.44987,0 0,14.148 2.44987,0 z"
       id="path51" />
    <path
       inkscape:connector-curvature="0"
       style="fill:#ffffff;fill-rule:evenodd;stroke:none"
       d="m 143.9805,526.73662 0,-8.67437 c 0,-2.12525 -0.1575,-3.11762 -0.72512,-4.05275 -0.67987,-1.10587 -1.81401,-1.75775 -3.17501,-1.75775 -1.11087,0 -1.814,0.31125 -2.87975,1.38912 l 0,-1.07787 -2.4035,0 0,14.17362 2.4035,0 0,-8.02249 c 0,-1.21826 0.15875,-1.95563 0.56763,-2.522 0.40775,-0.56763 1.15612,-0.93626 1.79087,-0.93626 0.65788,0 1.31588,0.36863 1.61013,0.93626 0.27212,0.51024 0.3625,1.13399 0.3625,2.49387 l 0,8.05062 2.44875,0 z"
       id="path53" />
    <path
       inkscape:connector-curvature="0"
       style="fill:#ffffff;fill-rule:nonzero;stroke:none"
       d="m 169.87762,526.73662 0,-19.84262 -3.10663,0 -4.48974,7.39875 -4.55813,-7.39875 -3.15188,0 0,19.84262 2.67588,0 0,-15.27837 5.03413,8.16287 4.8755,-7.93587 0,15.05137 2.72087,0 z"
       id="path55" />
    <path
       inkscape:connector-curvature="0"
       style="fill:#ffffff;fill-rule:evenodd;stroke:none"
       d="m 187.22637,526.73662 -5.10262,-19.84262 -3.26538,0 -5.48825,19.84262 2.699,0 0.99725,-3.57187 6.50889,0 0.90686,3.57187 2.74426,0 z m -4.30912,-6.37824 -5.1245,0 2.69775,-9.94876 2.42675,9.94876 z"
       id="path57" />
    <path
       inkscape:connector-curvature="0"
       style="fill:#ffffff;fill-rule:nonzero;stroke:none"
       d="m 202.21499,526.73662 -5.23775,-10.57375 4.6265,-9.26887 -2.97125,0 -3.197,6.66138 -3.0615,-6.66138 -3.01637,0 4.60338,9.38238 -5.37487,10.46024 3.08474,0 3.76463,-7.70999 3.71825,7.70999 3.06125,0 z"
       id="path59" />
    <path
       inkscape:connector-curvature="0"
       style="fill:#ffffff;fill-rule:nonzero;stroke:none"
       d="m 208.06625,526.73662 0,-19.84262 -2.69749,0 0,19.84262 2.69749,0 z"
       id="path61" />
    <path
       inkscape:connector-curvature="0"
       style="fill:#ffffff;fill-rule:nonzero;stroke:none"
       d="m 228.95124,526.73662 0,-19.84262 -3.10625,0 -4.48999,7.39875 -4.55875,-7.39875 -3.15125,0 0,19.84262 2.675,0 0,-15.27837 5.035,8.16287 4.875,-7.93587 0,15.05137 2.72124,0 z"
       id="path63" />
    <path
       inkscape:connector-curvature="0"
       style="fill:#ffffff;fill-rule:nonzero;stroke:none"
       d="m 246.66249,518.7995 0,-11.9055 -2.67625,0 0,11.9055 c 0,1.98487 -0.15875,2.77837 -0.68,3.68537 -0.635,1.0205 -1.65625,1.615 -2.8575,1.615 -2.2,0 -3.4475,-1.92625 -3.4475,-5.30037 l 0,-11.9055 -2.6525,0 0,11.9055 c 0,2.75025 0.3175,4.33725 1.18001,5.669 1.04249,1.64425 2.83375,2.55125 4.94374,2.55125 1.88125,0 3.46875,-0.73725 4.6025,-2.12525 1.18,-1.50262 1.5875,-3.0615 1.5875,-6.095 z"
       id="path65" />
    <path
       inkscape:connector-curvature="0"
       style="fill:#ffffff;fill-rule:nonzero;stroke:none"
       d="m 267.27499,526.73662 0,-19.84262 -3.10625,0 -4.49,7.39875 -4.55875,-7.39875 -3.15125,0 0,19.84262 2.67625,0 0,-15.27837 5.03375,8.16287 4.875,-7.93587 0,15.05137 2.72125,0 z"
       id="path67" />
  </g>
</svg>
