<?xml version="1.0" encoding="UTF-8" standalone="no"?>
<!-- Created with Inkscape (http://www.inkscape.org/) -->

<svg
   xmlns:dc="http://purl.org/dc/elements/1.1/"
   xmlns:cc="http://creativecommons.org/ns#"
   xmlns:rdf="http://www.w3.org/1999/02/22-rdf-syntax-ns#"
   xmlns:svg="http://www.w3.org/2000/svg"
   xmlns="http://www.w3.org/2000/svg"
   xmlns:sodipodi="http://sodipodi.sourceforge.net/DTD/sodipodi-0.dtd"
   xmlns:inkscape="http://www.inkscape.org/namespaces/inkscape"
   width="360.6196"
   height="360.63489"
   id="svg2"
   sodipodi:version="0.32"
   inkscape:version="0.48.2 r9819"
   version="1.0"
   sodipodi:docname="AJAX6.svg"
   inkscape:output_extension="org.inkscape.output.svg.inkscape">
  <defs
     id="defs4">
    <inkscape:perspective
       sodipodi:type="inkscape:persp3d"
       inkscape:vp_x="0 : 300.5 : 1"
       inkscape:vp_y="0 : 1000 : 0"
       inkscape:vp_z="601 : 300.5 : 1"
       inkscape:persp3d-origin="300.5 : 200.33333 : 1"
       id="perspective3380" />
    <inkscape:perspective
       id="perspective3990"
       inkscape:persp3d-origin="375 : 250 : 1"
       inkscape:vp_z="750 : 375 : 1"
       inkscape:vp_y="0 : 1000 : 0"
       inkscape:vp_x="0 : 375 : 1"
       sodipodi:type="inkscape:persp3d" />
  </defs>
  <sodipodi:namedview
     id="base"
     pagecolor="#ffffff"
     bordercolor="#666666"
     borderopacity="1.0"
     gridtolerance="10000"
     guidetolerance="10"
     objecttolerance="10"
     inkscape:pageopacity="0.0"
     inkscape:pageshadow="2"
     inkscape:zoom="1.0529557"
     inkscape:cx="192.48427"
     inkscape:cy="102.08337"
     inkscape:document-units="px"
     inkscape:current-layer="layer1"
     width="601px"
     height="601px"
     inkscape:window-width="1280"
     inkscape:window-height="1004"
     inkscape:window-x="-8"
     inkscape:window-y="-8"
     showgrid="false"
     fit-margin-top="0"
     fit-margin-left="0"
     fit-margin-right="0"
     fit-margin-bottom="0"
     inkscape:window-maximized="1"
     showguides="true"
     inkscape:guide-bbox="true" />
  <metadata
     id="metadata7">
    <rdf:RDF>
      <cc:Work
         rdf:about="">
        <dc:format>image/svg+xml</dc:format>
        <dc:type
           rdf:resource="http://purl.org/dc/dcmitype/StillImage" />
        <dc:title></dc:title>
      </cc:Work>
    </rdf:RDF>
  </metadata>
  <g
     inkscape:label="Layer 1"
     inkscape:groupmode="layer"
     id="layer1"
     transform="translate(-85.099692,867.02918)">
    <rect
       style="color:#000000;fill:#000000;fill-opacity:1;fill-rule:nonzero;stroke:none;stroke-width:0.8735441;marker:none;visibility:visible;display:inline;overflow:visible"
       id="rect3653"
       width="0"
       height="27.202072"
       x="578.73834"
       y="298.1684"
       rx="249.48199"
       ry="27.202072" />
    <path
       inkscape:connector-curvature="0"
       style="fill:#ffdb00;fill-rule:nonzero;stroke:none"
       d="m 440.34474,-699.68992 c 7.16625,7.1675 7.16625,18.78875 -10e-4,25.95625 l -161.96775,161.96375 c -7.1675,7.1675 -18.78875,7.1675 -25.955,0 L 90.473997,-673.73367 c -7.16675,-7.1675 -7.16553,-18.78875 0.0024,-25.95625 L 252.44224,-861.65321 c 7.16875,-7.16796 18.78875,-7.16796 25.955,0 l 161.9475,161.96329 z"
       id="path11" />
    <path
       inkscape:connector-curvature="0"
       style="fill:#000000;fill-rule:nonzero;stroke:none"
       d="m 93.327989,-677.22219 c -5.12085,-5.11875 -5.12085,-13.41875 -0.0012,-18.53875 L 256.18339,-858.60755 c 5.12,-5.11964 13.4225,-5.11964 18.54125,0 l 162.86375,162.84661 c 5.12125,5.12 5.12125,13.42 10e-4,18.53875 l -162.8575,162.8475 c -5.11875,5.12 -13.42,5.12 -18.54125,0 L 93.327989,-677.22219 z"
       id="path13" />
    <path
       inkscape:connector-curvature="0"
       style="fill:#ffdb00;fill-rule:nonzero;stroke:none"
       d="m 98.188892,-682.08208 c -2.490288,-2.49125 -2.490288,-6.53 0,-9.02 L 261.0461,-853.94941 c 2.49,-2.49017 6.53,-2.49017 9.02,0 l 162.865,162.84733 c 2.49,2.49 2.49,6.52875 0,9.02 l -162.8575,162.84625 c -2.49,2.49 -6.53,2.49 -9.02,0 L 98.188892,-682.08208 z"
       id="path15" />
    <path
       inkscape:connector-curvature="0"
       style="fill:#000000;fill-rule:nonzero;stroke:none"
       d="m 309.70551,-620.67141 -16.65375,0 0,22.3225 -10.985,0 0,-22.3225 -16.65413,0 0,-10.985 16.65413,0 0,-22.32375 -16.65413,10e-4 0,-10.985 16.65413,0 0,-22.322 -38.62287,0 0,88.937 -35.432,0 0,-88.937 -57.75637,0 0,-35.43375 131.81124,10e-4 0,-22.32425 -16.65413,0 0,-10.98387 16.65413,0 0,-22.323 -16.65413,0 0,-10.98388 16.65413,0 0,-22.323 10.985,0 0,22.323 16.65375,0 0,10.98388 -16.65375,0 0,22.323 16.65375,0 0,10.98387 -16.65375,0 0,22.32425 78.66125,0 0,35.4325 -78.66125,0 0,22.322 16.65375,0 0,10.985 -16.65375,-10e-4 0,22.32375 16.65375,0 0,10.985 z"
       id="path17" />
  </g>
</svg>
