<?xml version="1.0" encoding="UTF-8" standalone="no"?>
<!-- Generator: Adobe Illustrator 13.0.1, SVG Export Plug-In . SVG Version: 6.00 Build 14948)  -->

<svg
   xmlns:dc="http://purl.org/dc/elements/1.1/"
   xmlns:cc="http://creativecommons.org/ns#"
   xmlns:rdf="http://www.w3.org/1999/02/22-rdf-syntax-ns#"
   xmlns:svg="http://www.w3.org/2000/svg"
   xmlns="http://www.w3.org/2000/svg"
   xmlns:sodipodi="http://sodipodi.sourceforge.net/DTD/sodipodi-0.dtd"
   xmlns:inkscape="http://www.inkscape.org/namespaces/inkscape"
   version="1.1"
   id="Layer_1"
   x="0px"
   y="0px"
   width="265.75"
   height="265.7475"
   viewBox="0 0 265.75 265.74751"
   enable-background="new 0 0 300 250"
   xml:space="preserve"
   inkscape:version="0.48.2 r9819"
   sodipodi:docname="AJAX1.svg"><metadata
   id="metadata94"><rdf:RDF><cc:Work
       rdf:about=""><dc:format>image/svg+xml</dc:format><dc:type
         rdf:resource="http://purl.org/dc/dcmitype/StillImage" /><dc:title /></cc:Work></rdf:RDF></metadata><defs
   id="defs92" /><sodipodi:namedview
   pagecolor="#ffffff"
   bordercolor="#666666"
   borderopacity="1"
   objecttolerance="10"
   gridtolerance="10"
   guidetolerance="10"
   inkscape:pageopacity="0"
   inkscape:pageshadow="2"
   inkscape:window-width="1280"
   inkscape:window-height="1004"
   id="namedview90"
   showgrid="false"
   fit-margin-top="0"
   fit-margin-left="0"
   fit-margin-right="0"
   fit-margin-bottom="0"
   inkscape:zoom="1.3350176"
   inkscape:cx="98.137765"
   inkscape:cy="46.269261"
   inkscape:window-x="-8"
   inkscape:window-y="-8"
   inkscape:window-maximized="1"
   inkscape:current-layer="Layer_1" />















<path
   inkscape:connector-curvature="0"
   style="fill:#a2ff31;fill-opacity:1;fill-rule:nonzero;stroke:none"
   d="M -6.2207617e-6,17.717251 C -6.2207617e-6,7.932138 7.9321316,0 17.715994,0 L 248.03251,0 c 9.785,0 17.7175,7.932138 17.7175,17.717251 l 0,230.314009 c 0,9.785 -7.9325,17.71625 -17.7175,17.71625 l -230.316516,0 c -9.7838624,0 -17.7160002207617,-7.93125 -17.7160002207617,-17.71625 l 0,-230.314009 z"
   id="path11" /><path
   inkscape:connector-curvature="0"
   style="fill:#000000;fill-rule:nonzero;stroke:none"
   d="m 4.6057015,17.717305 c 0,-7.241237 5.8703625,-13.110375 13.1102505,-13.110375 l 230.316018,0 c 7.24125,0 13.11,5.869138 13.11,13.110375 l 0,230.314635 c 0,7.24 -5.86875,13.11125 -13.11,13.11125 l -230.316018,0 c -7.239888,0 -13.1102505,-5.87125 -13.1102505,-13.11125 l 0,-230.314635 z"
   id="path13" /><path
   inkscape:connector-curvature="0"
   style="fill:#a2ff31;fill-opacity:1;fill-rule:nonzero;stroke:none"
   d="m 11.339102,17.717298 c 0,-3.523 2.855287,-6.378188 6.378163,-6.378188 l 230.315605,0 c 3.5225,0 6.3775,2.855188 6.3775,6.378188 l 0,230.314322 c 0,3.5225 -2.855,6.37875 -6.3775,6.37875 l -230.315605,0 c -3.522876,0 -6.378163,-2.85625 -6.378163,-6.37875 l 0,-230.314322 z"
   id="path15" /><path
   inkscape:connector-curvature="0"
   style="fill:#000000;fill-rule:nonzero;stroke:none"
   d="m 38.800015,74.891417 c 0,4.399375 1.211,7.839251 3.631625,10.318501 2.214375,2.275375 5.0635,3.410625 8.548626,3.410625 3.39475,0 6.230375,-1.12175 8.503375,-3.365375 2.362,-2.362125 3.54375,-5.462751 3.54375,-9.301751 0,-7.44025 -4.253,-13.258125 -12.756375,-17.45 -2.008126,-0.975375 -3.011501,-2.688 -3.011501,-5.138001 0,-1.269499 0.56025,-2.376624 1.682126,-3.321499 1.034,-0.88625 2.171625,-1.329375 3.411875,-1.329375 1.09125,0 2.139875,0.57625 3.1445,1.727375 1.03275,1.12175 1.549125,2.243624 1.549125,3.365499 l 6.112,0 c 0,-3.188499 -1.032625,-5.844749 -3.099375,-7.971249 -2.03725,-2.155751 -4.606875,-3.233626 -7.70625,-3.233626 -2.983375,0 -5.595751,1.018 -7.840626,3.056626 -2.362,2.096 -3.542375,4.635 -3.542375,7.617249 0,1.97875 0.427125,3.853751 1.284125,5.625001 0.85575,1.743125 2.02275,3.1445 3.4985,4.20775 2.037375,1.24025 4.074751,2.480375 6.113251,3.720625 2.154625,1.535625 3.617,3.558375 4.384875,6.068125 0.3235,1.06325 0.487,2.081375 0.487,3.0555 0,1.890875 -0.53225,3.470375 -1.5955,4.74 -1.032625,1.2695 -2.420625,1.889626 -4.1625,1.860251 -2.09725,-0.02925 -3.602376,-0.665251 -4.517876,-1.905501 -0.88625,-1.24025 -1.344,-3.159125 -1.37325,-5.75675 l -6.289125,0 z"
   id="path17" /><path
   inkscape:connector-curvature="0"
   style="fill:#000000;fill-rule:nonzero;stroke:none"
   d="m 88.892767,75.998542 c 0,1.889625 -0.487,3.439875 -1.461125,4.649625 -0.974125,1.212125 -2.18625,1.816376 -3.631625,1.816376 -4.577625,0 -6.86525,-5.905751 -6.86525,-17.716001 0,-3.808625 0.339375,-7.013 1.018125,-9.611876 1.0925,-4.133249 2.9675,-6.201124 5.625,-6.201124 1.41725,0 2.6575,0.5615 3.72075,1.683375 1.063125,1.12175 1.594125,2.318124 1.594125,3.587624 l 6.15725,0 c 0,-3.454624 -1.077875,-6.243874 -3.233625,-8.370374 -2.15575,-2.155751 -4.902375,-3.233626 -8.2385,-3.233626 -8.56325,0 -12.84425,7.381626 -12.84425,22.146001 0,6.732125 0.649375,11.899375 1.94825,15.50175 2.037375,5.581001 5.714125,8.370251 11.029,8.370251 3.396,0 6.141375,-1.12175 8.237375,-3.365375 2.097125,-2.273 3.14575,-5.358876 3.14575,-9.256626 l -6.20125,0 z"
   id="path19" /><path
   inkscape:connector-curvature="0"
   style="fill:#000000;fill-rule:nonzero;stroke:none"
   d="m 102.66727,43.487541 0,44.292002 6.289,0 0,-20.108626 12.18025,0 0,20.108626 5.891,0 0,-44.292002 -5.891,0 0,17.939501 -12.18025,0 0,-17.939501 -6.289,0 z"
   id="path21" /><path
   inkscape:connector-curvature="0"
   style="fill:#000000;fill-rule:evenodd;stroke:none"
   d="m 149.26127,88.620543 c 4.31125,0 7.56,-2.066625 9.74375,-6.199875 2.03875,-3.927001 3.05625,-9.537376 3.05625,-16.831126 0,-15.324625 -4.23625,-22.987001 -12.7125,-22.987001 -8.68,0 -13.02125,7.662376 -13.02125,22.987001 0,15.354 4.3125,23.031001 12.93375,23.031001 z m 0,-6.378125 c -2.51,0 -4.295,-1.608876 -5.35875,-4.826626 -0.85625,-2.62825 -1.28375,-6.569875 -1.28375,-11.82625 0,-11.219376 2.2125,-16.831 6.6425,-16.831 4.4,0 6.59875,5.611624 6.59875,16.831 0,11.102375 -2.19875,16.652876 -6.59875,16.652876 z"
   id="path23" /><path
   inkscape:connector-curvature="0"
   style="fill:#000000;fill-rule:evenodd;stroke:none"
   d="m 182.52502,88.620543 c 4.31,0 7.5575,-2.066625 9.7425,-6.199875 2.0375,-3.927001 3.0575,-9.537376 3.0575,-16.831126 0,-15.324625 -4.23875,-22.987001 -12.7125,-22.987001 -8.68125,0 -13.02125,7.662376 -13.02125,22.987001 0,15.354 4.31,23.031001 12.93375,23.031001 z m 0,-6.378125 c -2.51125,0 -4.2975,-1.608876 -5.36125,-4.826626 -0.855,-2.62825 -1.28375,-6.569875 -1.28375,-11.82625 0,-11.219376 2.215,-16.831 6.645,-16.831 4.39875,0 6.59875,5.611624 6.59875,16.831 0,11.102375 -2.2,16.652876 -6.59875,16.652876 z"
   id="path25" /><path
   inkscape:connector-curvature="0"
   style="fill:#000000;fill-rule:nonzero;stroke:none"
   d="m 204.84627,43.487541 0,44.292002 22.14625,0 0,-5.846001 -15.8575,0 0,-38.446001 -6.28875,0 z"
   id="path27" /><path
   inkscape:connector-curvature="0"
   style="fill:#000000;fill-rule:evenodd;stroke:none"
   d="m 92.923642,134.90042 5.935001,0 c 2.185007,0 3.839127,1.0925 4.960877,3.2775 0.8265,1.565 1.24025,3.29125 1.24025,5.18124 0,1.18125 -0.36987,2.3475 -1.10712,3.5 -0.857,1.3275 -1.93488,1.99375 -3.23363,1.99375 l -7.795378,0 0,-13.95249 z m 0,-17.93875 6.644254,0 c 2.036124,0 3.409374,0.63475 4.118624,1.9055 0.44313,0.79712 0.66525,2.06662 0.66525,3.80862 0,1.32813 -0.39912,2.58338 -1.19625,3.76463 -0.94487,1.4175 -2.185,2.125 -3.720754,2.125 l -6.511124,0 0,-11.60375 z m -5.935125,38.13499 13.996633,0 c 3.1885,0 5.7715,-1.21 7.75137,-3.63125 1.74075,-2.18625 2.61238,-4.725 2.61238,-7.61875 0,-5.81749 -1.919,-9.77374 -5.75813,-11.86874 1.88975,-1.44875 3.17388,-2.88 3.85375,-4.2975 0.67875,-1.4175 1.01938,-3.30663 1.01938,-5.66875 0,-2.83438 -0.75438,-5.28563 -2.2595,-7.35225 -1.86038,-2.56963 -4.54713,-3.85375 -8.06038,-3.85375 l -13.155503,0 0,44.29099 z"
   id="path29" /><path
   inkscape:connector-curvature="0"
   style="fill:#000000;fill-rule:nonzero;stroke:none"
   d="m 132.83002,155.93791 c 3.01125,0 5.80125,-1.16625 8.37125,-3.49875 2.56875,-2.33125 3.8525,-4.91625 3.8525,-7.75 l 0,-33.88349 -6.37875,0 0,33.48349 c 0,1.595 -0.61875,2.895 -1.85875,3.8975 -1.1225,0.91625 -2.4675,1.37375 -4.03,1.37375 -1.5075,0 -2.835,-0.4875 -3.98625,-1.46125 -1.24,-1.03375 -1.86125,-2.30375 -1.86125,-3.81 l 0,-33.48349 -6.24425,0 0,33.88349 c 0,2.98125 1.29888,5.625 3.898,7.92625 2.50875,2.21625 5.255,3.3225 8.2375,3.3225 z"
   id="path31" /><path
   inkscape:connector-curvature="0"
   style="fill:#000000;fill-rule:nonzero;stroke:none"
   d="m 154.57627,142.20792 c 0,4.39999 1.21,7.83999 3.63125,10.31999 2.215,2.27375 5.06375,3.41 8.54875,3.41 3.395,0 6.23125,-1.1225 8.50375,-3.36625 2.3625,-2.36125 3.54375,-5.4625 3.54375,-9.30125 0,-7.43999 -4.2525,-13.25749 -12.75625,-17.44999 -2.00875,-0.97375 -3.01125,-2.68688 -3.01125,-5.138 0,-1.26963 0.56,-2.37675 1.68125,-3.32163 1.035,-0.88612 2.1725,-1.32812 3.4125,-1.32812 1.09125,0 2.14,0.575 3.145,1.72737 1.0325,1.12175 1.54875,2.24363 1.54875,3.3655 l 6.11125,0 c 0,-3.1885 -1.0325,-5.846 -3.09875,-7.9725 -2.0375,-2.15575 -4.6075,-3.23362 -7.70625,-3.23362 -2.9825,0 -5.59625,1.01925 -7.84125,3.05662 -2.36125,2.096 -3.5425,4.635 -3.5425,7.6185 0,1.9775 0.4275,3.8525 1.285,5.62463 0.855,1.7425 2.0225,3.145 3.49875,4.2075 2.0375,1.24125 4.07375,2.48 6.1125,3.72 2.155,1.53625 3.6175,3.55875 4.38375,6.06875 0.325,1.0625 0.48875,2.0825 0.48875,3.05499 0,1.89125 -0.5325,3.47 -1.59625,4.74 -1.0325,1.26875 -2.42,1.89 -4.1625,1.86 -2.09625,-0.0288 -3.6025,-0.66375 -4.5175,-1.90375 -0.88625,-1.24 -1.34375,-3.16125 -1.37375,-5.75874 l -6.28875,0 z"
   id="path33" /><path
   inkscape:connector-curvature="0"
   style="fill:#000000;fill-rule:evenodd;stroke:none"
   d="m 75.384517,200.73792 c 1.94825,-0.67875 3.527875,-2.11125 4.73875,-4.2975 1.0925,-2.00625 1.639375,-4.1475 1.639375,-6.42125 0,-2.92375 -0.900875,-5.61 -2.701375,-8.06125 -1.920125,-2.6275 -4.193125,-3.94125 -6.82125,-3.9425 l -14.837626,0 0,44.29125 6.112,0 0,-20.55 5.758125,0 5.889876,20.55 6.60025,0 -6.378125,-21.56875 z m -4.119875,-5.36 -7.750251,0 0,-11.02875 7.795376,0 c 2.6575,0 3.985625,1.81625 3.985625,5.44875 0,1.47625 -0.32475,2.73 -0.974125,3.76375 -0.7385,1.21125 -1.756625,1.81625 -3.056625,1.81625 z"
   id="path35" /><path
   inkscape:connector-curvature="0"
   style="fill:#000000;fill-rule:evenodd;stroke:none"
   d="m 102.26927,223.14792 c 4.31038,0 7.55863,-2.06625 9.74363,-6.2 2.03737,-3.92625 3.05662,-9.5375 3.05662,-16.83125 0,-15.32375 -4.23825,-22.98625 -12.71237,-22.98625 -8.680383,0 -13.021258,7.6625 -13.021258,22.98625 0,15.355 4.310375,23.03125 12.933378,23.03125 z m 0,-6.3775 c -2.511004,0 -4.296877,-1.60875 -5.360128,-4.8275 -0.855625,-2.6275 -1.284125,-6.57 -1.284125,-11.82625 0,-11.21875 2.214376,-16.83 6.644253,-16.83 4.39938,0 6.59913,5.61125 6.59913,16.83 0,11.1025 -2.19975,16.65375 -6.59913,16.65375 z"
   id="path37" /><path
   inkscape:connector-curvature="0"
   style="fill:#000000;fill-rule:nonzero;stroke:none"
   d="m 136.50502,223.14792 c 3.0125,0 5.80375,-1.165 8.37125,-3.49875 2.56875,-2.3325 3.8525,-4.915 3.8525,-7.75 l 0,-33.88375 -6.37625,0 0,33.485 c 0,1.59375 -0.62,2.8925 -1.86,3.8975 -1.12375,0.915 -2.46625,1.3725 -4.03125,1.3725 -1.505,0 -2.835,-0.48625 -3.98625,-1.46125 -1.24,-1.0325 -1.86125,-2.3025 -1.86125,-3.80875 l 0,-33.485 -6.24375,0 0,33.88375 c 0,2.98125 1.29875,5.625 3.8975,7.9275 2.50875,2.21375 5.255,3.32125 8.2375,3.32125 z"
   id="path39" /><path
   inkscape:connector-curvature="0"
   style="fill:#000000;fill-rule:nonzero;stroke:none"
   d="m 156.26002,178.01542 0,5.8475 7.8825,0 0,38.44375 6.51125,0 0,-38.44375 7.7525,0 0,-5.8475 -22.14625,0 z"
   id="path41" /><path
   inkscape:connector-curvature="0"
   style="fill:#000000;fill-rule:nonzero;stroke:none"
   d="m 186.15627,178.01542 0,44.29125 22.14625,0 0,-6.245 -16.08,0 0,-14.615 9.435,0 0,-6.06875 -9.435,0 0,-11.11625 15.37,0 0,-6.24625 -21.43625,0 z"
   id="path43" /></svg>