<?xml version="1.0" encoding="UTF-8" standalone="no"?>
<!-- Created with Inkscape (http://www.inkscape.org/) -->

<svg
   xmlns:dc="http://purl.org/dc/elements/1.1/"
   xmlns:cc="http://creativecommons.org/ns#"
   xmlns:rdf="http://www.w3.org/1999/02/22-rdf-syntax-ns#"
   xmlns:svg="http://www.w3.org/2000/svg"
   xmlns="http://www.w3.org/2000/svg"
   xmlns:sodipodi="http://sodipodi.sourceforge.net/DTD/sodipodi-0.dtd"
   xmlns:inkscape="http://www.inkscape.org/namespaces/inkscape"
   width="360.6268"
   height="360.6127"
   id="svg2"
   sodipodi:version="0.32"
   inkscape:version="0.48.2 r9819"
   version="1.0"
   sodipodi:docname="AJAX.svg"
   inkscape:output_extension="org.inkscape.output.svg.inkscape">
  <defs
     id="defs4">
    <inkscape:perspective
       sodipodi:type="inkscape:persp3d"
       inkscape:vp_x="0 : 300.5 : 1"
       inkscape:vp_y="0 : 1000 : 0"
       inkscape:vp_z="601 : 300.5 : 1"
       inkscape:persp3d-origin="300.5 : 200.33333 : 1"
       id="perspective3380" />
    <inkscape:perspective
       id="perspective3990"
       inkscape:persp3d-origin="375 : 250 : 1"
       inkscape:vp_z="750 : 375 : 1"
       inkscape:vp_y="0 : 1000 : 0"
       inkscape:vp_x="0 : 375 : 1"
       sodipodi:type="inkscape:persp3d" />
  </defs>
  <sodipodi:namedview
     id="base"
     pagecolor="#ffffff"
     bordercolor="#666666"
     borderopacity="1.0"
     gridtolerance="10000"
     guidetolerance="10"
     objecttolerance="10"
     inkscape:pageopacity="0.0"
     inkscape:pageshadow="2"
     inkscape:zoom="1.0529557"
     inkscape:cx="-148.69977"
     inkscape:cy="20.89423"
     inkscape:document-units="px"
     inkscape:current-layer="layer1"
     width="601px"
     height="601px"
     inkscape:window-width="1280"
     inkscape:window-height="1004"
     inkscape:window-x="-8"
     inkscape:window-y="-8"
     showgrid="false"
     fit-margin-top="0"
     fit-margin-left="0"
     fit-margin-right="0"
     fit-margin-bottom="0"
     inkscape:window-maximized="1"
     showguides="true"
     inkscape:guide-bbox="true" />
  <metadata
     id="metadata7">
    <rdf:RDF>
      <cc:Work
         rdf:about="">
        <dc:format>image/svg+xml</dc:format>
        <dc:type
           rdf:resource="http://purl.org/dc/dcmitype/StillImage" />
        <dc:title />
      </cc:Work>
    </rdf:RDF>
  </metadata>
  <g
     inkscape:label="Layer 1"
     inkscape:groupmode="layer"
     id="layer1"
     transform="translate(-69.212,817.4703)">
    <rect
       style="color:#000000;fill:#000000;fill-opacity:1;fill-rule:nonzero;stroke:none;stroke-width:0.8735441;marker:none;visibility:visible;display:inline;overflow:visible"
       id="rect3653"
       width="0"
       height="27.202072"
       x="578.73834"
       y="298.1684"
       rx="249.48199"
       ry="27.202072" />
    <path
       inkscape:connector-curvature="0"
       style="fill:#ffdb00;fill-rule:nonzero;stroke:none"
       d="m 424.4633,-650.14074 c 7.1675,7.1675 7.1675,18.7875 -10e-4,25.95375 l -161.9625,161.95375 c -7.1675,7.1675 -18.78875,7.1675 -25.95625,0 L 74.587514,-624.18699 c -7.167962,-7.16625 -7.166742,-18.78625 0,-25.95375 L 236.5508,-812.09524 c 7.16875,-7.16675 18.78875,-7.16675 25.95625,0 l 161.95625,161.9545 z"
       id="path11" />
    <path
       inkscape:connector-curvature="0"
       style="fill:#000000;fill-rule:nonzero;stroke:none"
       d="m 77.440299,-627.66298 c -5.12085,-5.12 -5.12085,-13.42 -0.0012,-18.53875 L 240.2957,-809.04958 c 5.12,-5.1184 13.4225,-5.1184 18.54125,0 l 162.86375,162.84785 c 5.12125,5.11875 5.12125,13.41875 0.001,18.53875 l -162.8575,162.84625 c -5.11875,5.12 -13.42,5.12 -18.54125,0 L 77.440299,-627.66298 z"
       id="path13" />
    <path
       inkscape:connector-curvature="0"
       style="fill:#ffdb00;fill-rule:nonzero;stroke:none"
       d="m 82.301202,-632.52414 c -2.490288,-2.49125 -2.490288,-6.53 0,-9.02 l 162.857208,-162.846 c 2.49,-2.49025 6.53,-2.49025 9.02,0 l 162.865,162.846 c 2.49,2.49 2.49,6.52875 0,9.02 l -162.8575,162.84625 c -2.49,2.49125 -6.53,2.49125 -9.02,0 L 82.301202,-632.52414 z"
       id="path15" />
    <path
       inkscape:connector-curvature="0"
       style="fill:#000000;fill-rule:evenodd;stroke:none"
       d="m 288.3247,-632.23489 0,17.0075 -10.985,0 0,-17.0075 -22.3225,0 0,17.0075 -10.9835,0 0,-17.0075 -22.32375,0 0,17.0075 -10.98375,0 0,-17.0075 -22.32275,0 0,17.0075 -10.98387,0 0,-17.0075 -22.323,0 0,17.0075 -10.98388,0 0,-17.0075 -22.323,0 0,-10.98512 22.323,0 0,-17.0075 10.98388,0 0,17.0075 22.323,0 0,-17.0075 10.98387,0 0,17.0075 22.32275,0 0,-17.0075 10.98375,0 0,17.0075 22.32375,0 0,-17.0075 10.9835,0 0,17.0075 22.3225,0 0,-17.0075 10.985,0 0,17.0075 22.32375,0 0,-17.0075 10.98375,0 0,17.0075 22.3225,0 0,-17.0075 10.98375,0 0,17.0075 22.32375,0 0,10.98512 -22.32375,0 0,17.0075 -10.98375,0 0,-17.0075 -22.3225,0 0,17.0075 -10.98375,0 0,-17.0075 -22.32375,0 z m -56.516,118.52375 35.43225,0 10e-4,-88.05125 -35.4335,0 0,88.05125 z m 0,-159.98138 35.43225,0 10e-4,-88.04987 -35.4335,0 0,88.04988 z"
       id="path17" />
  </g>
</svg>
