<?xml version="1.0" encoding="UTF-8" standalone="no"?>
<!-- Created with Inkscape (http://www.inkscape.org/) -->

<svg
   xmlns:dc="http://purl.org/dc/elements/1.1/"
   xmlns:cc="http://creativecommons.org/ns#"
   xmlns:rdf="http://www.w3.org/1999/02/22-rdf-syntax-ns#"
   xmlns:svg="http://www.w3.org/2000/svg"
   xmlns="http://www.w3.org/2000/svg"
   xmlns:sodipodi="http://sodipodi.sourceforge.net/DTD/sodipodi-0.dtd"
   xmlns:inkscape="http://www.inkscape.org/namespaces/inkscape"
   width="360.62711"
   height="360.61182"
   id="svg3075"
   version="1.1"
   inkscape:version="0.48.2 r9819"
   sodipodi:docname="AJAX.svg">
  <defs
     id="defs3077" />
  <sodipodi:namedview
     id="base"
     pagecolor="#ffffff"
     bordercolor="#666666"
     borderopacity="1.0"
     inkscape:pageopacity="0.0"
     inkscape:pageshadow="2"
     inkscape:zoom="1.435"
     inkscape:cx="147.23549"
     inkscape:cy="170.65437"
     inkscape:document-units="px"
     inkscape:current-layer="ANZ"
     showgrid="false"
     borderlayer="true"
     inkscape:window-width="1280"
     inkscape:window-height="1004"
     inkscape:window-x="-8"
     inkscape:window-y="-8"
     inkscape:window-maximized="1"
     fit-margin-top="0"
     fit-margin-left="0"
     fit-margin-right="0"
     fit-margin-bottom="0" />
  <metadata
     id="metadata3080">
    <rdf:RDF>
      <cc:Work
         rdf:about="">
        <dc:format>image/svg+xml</dc:format>
        <dc:type
           rdf:resource="http://purl.org/dc/dcmitype/StillImage" />
        <dc:title></dc:title>
      </cc:Work>
    </rdf:RDF>
  </metadata>
  <g
     inkscape:label="ANZ"
     inkscape:groupmode="layer"
     id="ANZ"
     transform="translate(-5.9956919,-734.667)">
    <path
       inkscape:connector-curvature="0"
       style="fill:#ffdb00;fill-rule:nonzero;stroke:none"
       d="m 11.370254,901.99657 c -7.1662495,7.16625 -7.1662495,18.78625 0.001,25.95375 L 173.334,1089.9041 c 7.16875,7.1663 18.78875,7.1663 25.95625,0 L 361.24729,927.95032 c 7.16796,-7.1675 7.16674,-18.7875 0,-25.95375 L 199.28275,740.04205 c -7.1675,-7.16673 -18.7875,-7.16673 -25.95625,0 L 11.370254,901.99657 z"
       id="path11" />
    <path
       inkscape:connector-curvature="0"
       style="fill:#000000;fill-rule:nonzero;stroke:none"
       d="m 358.43845,924.50747 c 5.12085,-5.12 5.12085,-13.42125 0,-18.54 L 195.58179,743.11336 c -5.12125,-5.11964 -13.42125,-5.11964 -18.54125,0 L 14.179294,905.96747 c -5.1199995,5.11875 -5.1199995,13.42 0,18.54 L 177.03679,1087.3612 c 5.12,5.12 13.42,5.12 18.54,0 L 358.43845,924.50747 z"
       id="path13" />
    <path
       inkscape:connector-curvature="0"
       style="fill:#ffdb00;fill-rule:nonzero;stroke:none"
       d="m 354.2783,920.19028 c 2.49022,-2.49125 2.49145,-6.5275 0,-9.0175 L 191.42474,748.33551 c -2.49,-2.49023 -6.52875,-2.49023 -9.02,0 L 19.543494,911.17278 c -2.49,2.49 -2.49,6.52625 0,9.0175 L 182.39724,1083.0265 c 2.49125,2.49 6.53,2.49 9.02,0 L 354.2783,920.19028 z"
       id="path15" />
    <path
       inkscape:connector-curvature="0"
       style="fill:#000000;fill-rule:nonzero;stroke:none"
       d="m 118.60654,979.80238 c 0,-57.5445 39.08251,-105.96075 92.15288,-120.15325 l -12.04125,-16.46862 c -2.69626,-3.51438 -2.03375,-8.54863 1.48,-11.24513 2.20875,-1.69438 5.00875,-2.06425 7.46,-1.23288 l 85.80588,27.51213 -60.55338,66.72825 c -1.70625,1.94625 -4.3175,3.02625 -7.0775,2.6625 -4.39,-0.57875 -7.4825,-4.60625 -6.90375,-8.99875 l 2.2325,-20.29375 c -36.02249,9.64875 -62.51662,42.475 -62.51662,81.4895 l 0,31.17872 -40.03875,0 0,-31.17872 z"
       id="path17" />
  </g>
</svg>
