<?xml version="1.0" encoding="UTF-8" standalone="no"?>
<!-- Generator: Adobe Illustrator 12.0.1, SVG Export Plug-In  -->

<svg
   xmlns:dc="http://purl.org/dc/elements/1.1/"
   xmlns:cc="http://creativecommons.org/ns#"
   xmlns:rdf="http://www.w3.org/1999/02/22-rdf-syntax-ns#"
   xmlns:svg="http://www.w3.org/2000/svg"
   xmlns="http://www.w3.org/2000/svg"
   xmlns:sodipodi="http://sodipodi.sourceforge.net/DTD/sodipodi-0.dtd"
   xmlns:inkscape="http://www.inkscape.org/namespaces/inkscape"
   version="1.1"
   width="283.465"
   height="88.582741"
   viewBox="-0.779 0 283.465 88.582739"
   enable-background="new -0.779 0 98 288"
   xml:space="preserve"
   id="svg2"
   inkscape:version="0.48.2 r9819"
   sodipodi:docname="AJAX12.svg"><metadata
   id="metadata36"><rdf:RDF><cc:Work
       rdf:about=""><dc:format>image/svg+xml</dc:format><dc:type
         rdf:resource="http://purl.org/dc/dcmitype/StillImage" /><dc:title></dc:title></cc:Work></rdf:RDF></metadata><sodipodi:namedview
   pagecolor="#ffffff"
   bordercolor="#666666"
   borderopacity="1"
   objecttolerance="10"
   gridtolerance="10"
   guidetolerance="10"
   inkscape:pageopacity="0"
   inkscape:pageshadow="2"
   inkscape:window-width="1280"
   inkscape:window-height="1004"
   id="namedview34"
   showgrid="false"
   fit-margin-top="0"
   fit-margin-left="0"
   fit-margin-right="0"
   fit-margin-bottom="0"
   inkscape:zoom="1.3867569"
   inkscape:cx="30.954231"
   inkscape:cy="-62.723739"
   inkscape:window-x="-8"
   inkscape:window-y="-8"
   inkscape:window-maximized="1"
   inkscape:current-layer="svg2" />
<defs
   id="defs4">
<clipPath
   id="Clip0"><path
     inkscape:connector-curvature="0"
     d="m 0,0 226.772,0 0,70.8662 L 0,70.8662 0,0 z"
     transform="translate(0.332031,0.630859)"
     id="path7" /></clipPath></defs>














<path
   inkscape:connector-curvature="0"
   style="fill:#ffdb00;fill-rule:nonzero;stroke:none"
   d="M -0.779,14.172374 C -0.779,6.3452105 5.5662126,-1.4640498e-6 13.394625,-1.4640498e-6 l 255.118875,0 c 7.82625,0 14.1725,6.3452119640498 14.1725,14.1723754640498 l 0,60.23675 c 0,7.827125 -6.34625,14.17362 -14.1725,14.17362 l -255.118875,0 C 5.5662126,88.582744 -0.779,82.236249 -0.779,74.409124 l 0,-60.23675 z"
   id="path11" /><path
   inkscape:connector-curvature="0"
   style="fill:#000000;fill-rule:nonzero;stroke:none"
   d="m 2.4106988,14.172425 c 0,-6.0657385 4.9169875,-10.9839505 10.9838882,-10.9839505 l 255.118613,0 c 6.065,0 10.98375,4.918212 10.98375,10.9839505 l 0,60.2368 c 0,6.066875 -4.91875,10.983879 -10.98375,10.983879 l -255.118613,0 c -6.0669007,0 -10.9838882,-4.917004 -10.9838882,-10.983879 l 0,-60.2368 z"
   id="path13" /><path
   inkscape:connector-curvature="0"
   style="fill:#ffdb00;fill-rule:nonzero;stroke:none"
   d="m 7.0164113,14.172425 c 0,-3.521787 2.855225,-6.3770125 6.3781747,-6.3770125 l 255.119324,0 c 3.52125,0 6.3775,2.8552255 6.3775,6.3770125 l 0,60.236738 c 0,3.52175 -2.85625,6.378125 -6.3775,6.378125 l -255.119324,0 c -3.5229498,0 -6.3781748,-2.856375 -6.3781748,-6.378125 l 0,-60.236738 z"
   id="path15" /><g
   transform="matrix(1.25,0,0,1.25,-1.1940387,-0.78857547)"
   id="Background"
   style="fill:#000000;stroke:none"><g
     id="Group1"
     clip-path="url(#Clip0)"
     style="fill:#000000;stroke:none"><path
       inkscape:connector-curvature="0"
       style="fill:#000000;fill-rule:nonzero;stroke:none"
       d="m 11.622,21.3731 c 0,1.2089 -0.3125,2.2011 -0.9355,2.9765 -0.6231,0.7744 -1.3985,1.1621 -2.3242,1.1621 -2.9287,0 -4.3936,-3.7802 -4.3936,-11.3388 0,-2.4375 0.2168,-4.4883 0.6514,-6.1514 0.6992,-2.6455 1.8994,-3.9688 3.6006,-3.9688 0.9072,0 1.7002,0.3594 2.3808,1.0782 0.6807,0.7177 1.0205,1.4834 1.0205,2.2959 l 3.9405,0 C 15.5625,5.2149 14.872,3.4297 13.4931,2.0693 12.1132,0.6895 10.3554,0 8.2207,0 2.7402,0 0,4.7236 0,14.1729 c 0,4.3086 0.416,7.6162 1.247,9.9209 1.3037,3.5722 3.6563,5.3574 7.0586,5.3574 2.1729,0 3.9307,-0.7178 5.2725,-2.1543 1.3418,-1.4551 2.0127,-3.4297 2.0127,-5.9238 l -3.9688,0 z"
       transform="translate(24.5684,21.3203)"
       id="path17" /><path
       inkscape:connector-curvature="0"
       style="fill:#000000;fill-rule:evenodd;stroke:none"
       d="m 8.2774,29.4512 c 2.7588,0 4.8379,-1.3223 6.2363,-3.9678 1.3037,-2.5137 1.956,-6.1035 1.956,-10.7715 C 16.4697,4.9043 13.7578,0 8.334,0 2.7783,0 0,4.9043 0,14.7119 0,24.5381 2.7588,29.4512 8.2774,29.4512 z m 0,-4.082 c -1.6065,0 -2.75,-1.0293 -3.4297,-3.0889 -0.5489,-1.6817 -0.8223,-4.2051 -0.8223,-7.5684 0,-7.1816 1.417,-10.7724 4.252,-10.7724 2.8154,0 4.2236,3.5908 4.2236,10.7724 0,7.1055 -1.4082,10.6573 -4.2236,10.6573 z"
       transform="translate(44.9492,21.3203)"
       id="path19" /><path
       inkscape:connector-curvature="0"
       style="fill:#000000;fill-rule:nonzero;stroke:none"
       d="m 0,0 0,28.3467 3.9111,0 0,-18.624 8.4473,18.624 3.2314,0 0,-28.3467 -4.1093,0 0,16.3848 L 3.9111,0 0,0 z"
       transform="translate(67.3711,21.8867)"
       id="path21" /><path
       inkscape:connector-curvature="0"
       style="fill:#000000;fill-rule:nonzero;stroke:none"
       d="m 11.6219,21.3731 c 0,1.2089 -0.311,2.2011 -0.9354,2.9765 -0.6231,0.7744 -1.3985,1.1621 -2.3242,1.1621 -2.9287,0 -4.3936,-3.7802 -4.3936,-11.3388 0,-2.4375 0.2168,-4.4883 0.6514,-6.1514 0.6992,-2.6455 1.8994,-3.9688 3.6006,-3.9688 0.9072,0 1.7002,0.3594 2.3808,1.0782 0.6804,0.7177 1.0204,1.4834 1.0204,2.2959 l 3.941,0 c 0,-2.2119 -0.691,-3.9971 -2.07,-5.3575 C 12.1129,0.6895 10.3554,0 8.2207,0 2.7402,0 0,4.7236 0,14.1729 c 0,4.3086 0.416,7.6162 1.247,9.9209 1.3047,3.5722 3.6563,5.3574 7.0586,5.3574 2.1729,0 3.9303,-0.7178 5.2723,-2.1543 1.342,-1.4551 2.013,-3.4297 2.013,-5.9238 l -3.969,0 z"
       transform="translate(88.9141,21.3203)"
       id="path23" /><path
       inkscape:connector-curvature="0"
       style="fill:#000000;fill-rule:nonzero;stroke:none"
       d="m 0,0 0,28.3467 14.173,0 0,-3.9971 -10.29,0 0,-9.3545 6.037,0 0,-3.8828 -6.037,0 0,-7.1152 9.836,0 L 13.719,0 0,0 z"
       transform="translate(109.352,21.8867)"
       id="path25" /><path
       inkscape:connector-curvature="0"
       style="fill:#000000;fill-rule:evenodd;stroke:none"
       d="m 6.774,16.5547 1.985,-7.625 2.012,7.625 -3.997,0 z M 0,28.3467 l 4.11,0 1.899,-7.8809 5.783,0 2.041,7.8809 4.054,0 L 10.771,0 6.774,0 0,28.3467 z"
       transform="translate(126.672,21.8867)"
       id="path27" /><path
       inkscape:connector-curvature="0"
       style="fill:#000000;fill-rule:nonzero;stroke:none"
       d="m 0,0 0,28.3467 14.173,0 0,-3.7422 -10.148,0 L 4.025,0 0,0 z"
       transform="translate(149.292,21.8867)"
       id="path29" /><path
       inkscape:connector-curvature="0"
       style="fill:#000000;fill-rule:nonzero;stroke:none"
       d="m 0,0 0,28.3467 14.173,0 0,-3.9971 -10.29,0 0,-9.3545 6.038,0 0,-3.8828 -6.038,0 0,-7.1152 9.837,0 L 13.72,0 0,0 z"
       transform="translate(168.256,21.8867)"
       id="path31" /><path
       inkscape:connector-curvature="0"
       style="fill:#000000;fill-rule:evenodd;stroke:none"
       d="M 6.435,0 0,0 l 0,28.3467 6.435,0 c 3.591,0 6.086,-1.4082 7.483,-4.2236 1.116,-2.2305 1.673,-5.8018 1.673,-10.7149 0,-4.1767 -0.604,-7.3418 -1.814,-9.4961 C 12.303,1.3037 9.856,0 6.435,0 z M 6.293,3.9121 c 2.174,0 3.648,0.9737 4.422,2.92 0.53,1.3417 0.794,3.5615 0.794,6.6611 l 0,1.6152 c 0,2.9112 -0.236,5.0078 -0.708,6.293 -0.719,1.9658 -2.098,2.9482 -4.139,2.9482 l -2.721,0 0,-20.4375 2.352,0 z"
       transform="translate(187.275,21.8867)"
       id="path33" /></g></g></svg>