<?xml version="1.0" encoding="UTF-8" standalone="no"?>
<!-- Generator: Adobe Illustrator 13.0.1, SVG Export Plug-In . SVG Version: 6.00 Build 14948)  -->

<svg
   xmlns:dc="http://purl.org/dc/elements/1.1/"
   xmlns:cc="http://creativecommons.org/ns#"
   xmlns:rdf="http://www.w3.org/1999/02/22-rdf-syntax-ns#"
   xmlns:svg="http://www.w3.org/2000/svg"
   xmlns="http://www.w3.org/2000/svg"
   xmlns:sodipodi="http://sodipodi.sourceforge.net/DTD/sodipodi-0.dtd"
   xmlns:inkscape="http://www.inkscape.org/namespaces/inkscape"
   version="1.1"
   id="Layer_1"
   x="0px"
   y="0px"
   width="265.74875"
   height="177.16499"
   viewBox="0 0 265.74874 177.165"
   enable-background="new 0 0 300 250"
   xml:space="preserve"
   inkscape:version="0.48.2 r9819"
   sodipodi:docname="AJAX3.svg"><metadata
   id="metadata94"><rdf:RDF><cc:Work
       rdf:about=""><dc:format>image/svg+xml</dc:format><dc:type
         rdf:resource="http://purl.org/dc/dcmitype/StillImage" /><dc:title></dc:title></cc:Work></rdf:RDF></metadata><defs
   id="defs92" /><sodipodi:namedview
   pagecolor="#ffffff"
   bordercolor="#666666"
   borderopacity="1"
   objecttolerance="10"
   gridtolerance="10"
   guidetolerance="10"
   inkscape:pageopacity="0"
   inkscape:pageshadow="2"
   inkscape:window-width="1280"
   inkscape:window-height="1004"
   id="namedview90"
   showgrid="false"
   fit-margin-top="0"
   fit-margin-left="0"
   fit-margin-right="0"
   fit-margin-bottom="0"
   inkscape:zoom="1.888"
   inkscape:cx="128.07385"
   inkscape:cy="22.627356"
   inkscape:window-x="-8"
   inkscape:window-y="-8"
   inkscape:window-maximized="1"
   inkscape:current-layer="Layer_1" />















<path
   inkscape:connector-curvature="0"
   style="fill:#ffdb00;fill-rule:nonzero;stroke:none"
   d="M -1.2980997e-5,17.716126 C -1.2980997e-5,7.932126 7.9321122,0 17.717238,0 L 248.0325,0 c 9.78375,0 17.71625,7.932126 17.71625,17.716126 l 0,141.731384 c 0,9.78625 -7.9325,17.7175 -17.71625,17.7175 l -230.315262,0 c -9.7851258,0 -17.717250980997,-7.93125 -17.717250980997,-17.7175 l 0,-141.731384 z"
   id="path11" /><path
   inkscape:connector-curvature="0"
   style="fill:#000000;fill-rule:nonzero;stroke:none"
   d="M 3.5436933,17.716075 C 3.5436933,9.888913 9.8889062,3.5437 17.717318,3.5437 l 230.315142,0 c 7.8275,0 14.17375,6.345213 14.17375,14.172375 l 0,141.732625 c 0,7.82876 -6.34625,14.17376 -14.17375,14.17376 l -230.315142,0 c -7.8284118,0 -14.1736247,-6.345 -14.1736247,-14.17376 l 0,-141.732625 z"
   id="path13" /><path
   inkscape:connector-curvature="0"
   style="fill:#ffdb00;fill-rule:nonzero;stroke:none"
   d="m 9.212631,17.716116 c 0,-4.696125 3.807387,-8.503475 8.504638,-8.503475 l 230.315371,0 c 4.69625,0 8.50375,3.80735 8.50375,8.503475 l 0,141.732774 c 0,4.69625 -3.8075,8.50376 -8.50375,8.50376 l -230.315371,0 c -4.697251,0 -8.504638,-3.80751 -8.504638,-8.50376 l 0,-141.732774 z"
   id="path15" /><path
   inkscape:connector-curvature="0"
   style="fill:#000000;fill-rule:nonzero;stroke:none"
   d="m 60.76777,133.55187 c 1.153625,3.30125 3.36675,6.07625 6.640625,8.32375 3.01275,2.0325 5.954625,3.05 8.8245,3.05 4.311501,0 7.750251,-1.3275 10.316126,-3.98 2.567125,-2.66625 3.850125,-6.11125 3.850125,-10.335 0,-2.76875 -0.77875,-5.24875 -2.33525,-7.4405 -1.428125,-1.91762 -3.35325,-3.46675 -5.775125,-4.64962 -1.0815,-0.53225 -2.7185,-0.90088 -4.909626,-1.10225 -2.4805,-0.26 -4.058875,-0.49813 -4.736375,-0.71413 -0.89475,-0.26 -1.66625,-0.83625 -2.314375,-1.72975 -0.6495,-0.85087 -0.974125,-1.76637 -0.974125,-2.74662 0,-1.52825 0.63475,-2.96988 1.903,-4.32488 1.182875,-1.26837 2.5745,-1.90312 4.174875,-1.90312 0.05738,0 0.11475,0 0.173375,0 3.488751,0.0866 5.716501,1.62112 6.683251,4.60575 l 6.55275,-1.98975 c -1.26825,-3.3435 -2.890625,-5.79475 -4.86575,-7.35238 -2.004375,-1.570997 -4.5275,-2.357122 -7.569501,-2.357122 -3.75,0 -6.95075,1.254872 -9.60325,3.763372 -2.78325,2.65263 -4.174875,6.034 -4.174875,10.14288 0,3.374 1.182875,6.062 3.547375,8.06637 2.119125,1.803 4.26025,2.81863 6.423375,3.04938 4.224875,0.476 7.159376,1.31987 8.802501,2.52987 1.542875,1.15375 2.314375,2.91375 2.314375,5.2775 0,1.49875 -0.66275,2.88375 -1.98975,4.1525 -1.369625,1.2975 -2.761125,1.94625 -4.174751,1.94625 -2.565875,0 -4.570375,-0.46875 -6.012,-1.40625 -1.485625,-0.95125 -2.847875,-2.6675 -4.088125,-5.1475 l -6.683375,2.27125 z"
   id="path17" /><path
   inkscape:connector-curvature="0"
   style="fill:#000000;fill-rule:nonzero;stroke:none"
   d="m 97.821021,99.792503 0,6.509997 10.189259,0 0,37.78187 6.68337,0 0,-37.78187 10.14463,0 0,-6.509997 -27.017259,0 z"
   id="path19" /><path
   inkscape:connector-curvature="0"
   style="fill:#000000;fill-rule:evenodd;stroke:none"
   d="m 148.63953,144.92562 c 5.69375,0 9.8225,-2.45125 12.38875,-7.3525 2.0175,-3.835 3.0275,-9.06125 3.0275,-15.67862 0,-6.70413 -1.31875,-12.15325 -3.9575,-16.34888 -2.76625,-4.42625 -6.58625,-6.639372 -11.45875,-6.639372 -10.3925,0 -15.5875,7.663622 -15.5875,22.988252 0,7.82862 1.4475,13.70362 4.34375,17.62487 2.6525,3.605 6.4,5.40625 11.24375,5.40625 z m 0,-7.005 c -5.79375,0 -8.69125,-5.34125 -8.69125,-16.02487 0,-5.57988 0.7425,-9.63863 2.2275,-12.1765 1.3825,-2.42188 3.53875,-3.63288 6.46375,-3.63288 5.49125,0 8.2375,5.26988 8.2375,15.80938 0,5.60737 -0.6775,9.70987 -2.0325,12.30487 -1.34,2.48 -3.40875,3.72 -6.205,3.72 z"
   id="path21" /><path
   inkscape:connector-curvature="0"
   style="fill:#000000;fill-rule:evenodd;stroke:none"
   d="m 181.36578,106.34525 10.25125,0 c 1.41375,0 2.6825,0.53338 3.80625,1.60025 1.08125,1.09625 1.6225,2.2925 1.6225,3.59013 0,1.71637 -0.4725,3.17512 -1.41625,4.37987 -0.945,1.20363 -2.15125,1.8055 -3.6225,1.8055 l -10.64125,0 0,-11.37575 z m -6.85625,-6.552747 0,44.291867 6.85625,0 0,-19.35662 9.17,0 c 3.96625,0 7.24625,-1.28287 9.84125,-3.84887 2.50875,-2.5085 3.76375,-5.60913 3.76375,-9.29925 0,-3.31663 -1.255,-6.106 -3.76375,-8.37038 -2.50875,-2.27787 -5.48,-3.416747 -8.91125,-3.416747 l -16.95625,0 z"
   id="path23" /><path
   inkscape:connector-curvature="0"
   style="fill:#000000;fill-rule:nonzero;stroke:none"
   d="m 53.511895,44.028371 6.466125,-2.789374 c -2.753875,-5.968001 -7.41825,-8.952626 -13.992876,-8.952626 -5.463875,0 -9.530125,2.7185 -12.197375,8.153126 -2.032375,4.138124 -3.04925,9.125875 -3.04925,14.9645 0,0.08675 0,0.173375 0,0.260125 0.02925,6.083875 1.24025,11.16575 3.634,15.24525 2.926,4.9305 7.150875,7.39625 12.673375,7.39625 3.215376,0 6.019251,-1.002125 8.411876,-3.005375 2.24975,-1.917625 3.857375,-4.52025 4.823,-7.806375 l -6.50875,-1.643 c -0.505375,1.397625 -1.478375,2.6745 -2.92,3.826875 -1.485625,1.140125 -2.877125,1.709 -4.173626,1.709 -3.273875,0 -5.753125,-1.87375 -7.440125,-5.622625 -1.2695,-2.85525 -1.903125,-6.11325 -1.903125,-9.775375 0,-4.252875 0.5335,-7.771 1.600375,-10.554126 1.571,-4.195624 4.180875,-6.292749 7.829625,-6.292749 1.628376,0 2.959001,0.393 3.989251,1.178 1.0315,0.786125 1.950625,2.022624 2.7575,3.708499 z"
   id="path25" /><path
   inkscape:connector-curvature="0"
   style="fill:#000000;fill-rule:evenodd;stroke:none"
   d="m 79.132021,33.172621 -15.012126,44.248001 7.397375,0 4.067375,-12.5 14.188251,0 4.34825,12.5 7.159384,0 -15.140384,-44.248001 -7.008125,0 z m 8.025,24.675251 -9.041751,0 4.433501,-13.214126 4.60825,13.214126 z"
   id="path27" /><path
   inkscape:connector-curvature="0"
   style="fill:#000000;fill-rule:nonzero;stroke:none"
   d="m 104.10153,33.172621 0,6.508751 10.188,0 0,37.782 6.68462,0 0,-37.782 10.14538,0 0,-6.508751 -27.018,0 z"
   id="path29" /><path
   inkscape:connector-curvature="0"
   style="fill:#000000;fill-rule:nonzero;stroke:none"
   d="m 136.36453,33.172621 0,6.508751 10.18875,0 0,37.782 6.68375,0 0,-37.782 10.145,0 0,-6.508751 -27.0175,0 z"
   id="path31" /><path
   inkscape:connector-curvature="0"
   style="fill:#000000;fill-rule:nonzero;stroke:none"
   d="m 171.28453,33.172621 0,44.290751 27.0175,0 0,-6.50875 -20.2475,0 0,-37.782001 -6.77,0 z"
   id="path33" /><path
   inkscape:connector-curvature="0"
   style="fill:#000000;fill-rule:nonzero;stroke:none"
   d="m 206.45953,33.172621 0,44.290751 27.01875,0 0,-6.89575 -20.16,0 0,-12.495125 12.935,0 0,-6.91775 -12.935,0 0,-10.896 18.5375,0 0,-7.086126 -25.39625,0 z"
   id="path35" /></svg>