<?xml version="1.0" encoding="UTF-8" standalone="no"?>
<!-- Created with Inkscape (http://www.inkscape.org/) -->

<svg
   xmlns:dc="http://purl.org/dc/elements/1.1/"
   xmlns:cc="http://creativecommons.org/ns#"
   xmlns:rdf="http://www.w3.org/1999/02/22-rdf-syntax-ns#"
   xmlns:svg="http://www.w3.org/2000/svg"
   xmlns="http://www.w3.org/2000/svg"
   xmlns:sodipodi="http://sodipodi.sourceforge.net/DTD/sodipodi-0.dtd"
   xmlns:inkscape="http://www.inkscape.org/namespaces/inkscape"
   width="360.61966"
   height="360.63489"
   id="svg2"
   sodipodi:version="0.32"
   inkscape:version="0.48.2 r9819"
   version="1.0"
   sodipodi:docname="A1.svg"
   inkscape:output_extension="org.inkscape.output.svg.inkscape">
  <defs
     id="defs4">
    <inkscape:perspective
       sodipodi:type="inkscape:persp3d"
       inkscape:vp_x="0 : 300.5 : 1"
       inkscape:vp_y="0 : 1000 : 0"
       inkscape:vp_z="601 : 300.5 : 1"
       inkscape:persp3d-origin="300.5 : 200.33333 : 1"
       id="perspective3380" />
    <inkscape:perspective
       id="perspective3990"
       inkscape:persp3d-origin="375 : 250 : 1"
       inkscape:vp_z="750 : 375 : 1"
       inkscape:vp_y="0 : 1000 : 0"
       inkscape:vp_x="0 : 375 : 1"
       sodipodi:type="inkscape:persp3d" />
  </defs>
  <sodipodi:namedview
     id="base"
     pagecolor="#ffffff"
     bordercolor="#666666"
     borderopacity="1.0"
     gridtolerance="10000"
     guidetolerance="10"
     objecttolerance="10"
     inkscape:pageopacity="0.0"
     inkscape:pageshadow="2"
     inkscape:zoom="1.0529557"
     inkscape:cx="43.733117"
     inkscape:cy="103.4733"
     inkscape:document-units="px"
     inkscape:current-layer="layer1"
     width="601px"
     height="601px"
     inkscape:window-width="1280"
     inkscape:window-height="1004"
     inkscape:window-x="-8"
     inkscape:window-y="-8"
     showgrid="false"
     fit-margin-top="0"
     fit-margin-left="0"
     fit-margin-right="0"
     fit-margin-bottom="0"
     inkscape:window-maximized="1"
     showguides="true"
     inkscape:guide-bbox="true" />
  <metadata
     id="metadata7">
    <rdf:RDF>
      <cc:Work
         rdf:about="">
        <dc:format>image/svg+xml</dc:format>
        <dc:type
           rdf:resource="http://purl.org/dc/dcmitype/StillImage" />
        <dc:title></dc:title>
      </cc:Work>
    </rdf:RDF>
  </metadata>
  <g
     inkscape:label="Layer 1"
     inkscape:groupmode="layer"
     id="layer1"
     transform="translate(-85.696462,867.37696)">
    <rect
       style="color:#000000;fill:#000000;fill-opacity:1;fill-rule:nonzero;stroke:none;stroke-width:0.8735441;marker:none;visibility:visible;display:inline;overflow:visible"
       id="rect3653"
       width="0"
       height="27.202072"
       x="578.73834"
       y="298.1684"
       rx="249.48199"
       ry="27.202072" />
    <path
       inkscape:connector-curvature="0"
       style="fill:#ffdb00;fill-rule:nonzero;stroke:none"
       d="m 91.070431,-700.0377 c -7.16625,7.1675 -7.165,18.78875 0.002,25.95625 L 253.03918,-512.1177 c 7.16875,7.1675 18.78875,7.1675 25.955,0 l 161.94701,-161.96375 c 7.16675,-7.1675 7.16675,-18.78875 -0.001,-25.95625 L 278.97168,-862.00098 c -7.16625,-7.16797 -18.7875,-7.16797 -25.95375,0 L 91.070431,-700.0377 z"
       id="path11" />
    <path
       inkscape:connector-curvature="0"
       style="fill:#000000;fill-rule:nonzero;stroke:none"
       d="m 438.08841,-677.56871 c 5.12085,-5.12 5.12085,-13.42 10e-4,-18.53875 L 275.23176,-858.95533 c -5.11875,-5.11963 -13.42125,-5.11963 -18.54125,0 L 93.825511,-696.10746 c -5.11875,5.11875 -5.11875,13.41875 0,18.53875 l 162.857499,162.84625 c 5.12,5.12 13.42125,5.12 18.54125,0 l 162.86415,-162.84625 z"
       id="path13" />
    <path
       inkscape:connector-curvature="0"
       style="fill:#ffdb00;fill-rule:nonzero;stroke:none"
       d="m 433.22638,-682.43111 c 2.49143,-2.49125 2.49143,-6.53 10e-4,-9.02 L 270.37031,-854.29717 c -2.4925,-2.49019 -6.53,-2.49019 -9.02,0 L 98.485311,-691.45111 c -2.49,2.49 -2.49125,6.52875 0,9.02 l 162.857499,162.84625 c 2.49,2.49 6.52875,2.49 9.02,0 l 162.86357,-162.84625 z"
       id="path15" />
    <path
       inkscape:connector-curvature="0"
       style="fill:#000000;fill-rule:nonzero;stroke:none"
       d="m 159.349,-687.63429 0,11.1625 56.69375,0 0,22.3215 -16.655,0 0,10.985 16.655,0 0,22.3225 -16.655,0 0,10.985 16.655,0 0,22.3225 10.98375,0 0,-22.3225 16.65375,0 0,-10.985 -16.65375,0 0,-22.3225 16.65375,0 0,-10.985 -16.65375,0 0,-22.3215 65.55137,0 0,88.9365 35.43238,0 0,-88.9365 66.61499,0 0,-11.1625 0,-11.16125 -66.61499,0 0,-28.875 16.775,6.54 c 3.61562,1.4975 7.76,-0.22 9.25775,-3.83375 0.94112,-2.2725 0.6165,-4.74625 -0.65425,-6.64875 l -43.09463,-66.92725 -43.09512,66.92725 c -1.27125,1.9025 -1.595,4.37625 -0.655,6.64875 1.4975,3.61375 5.64262,5.33125 9.25762,3.83375 l 16.77625,-6.54 0,28.875 -65.55137,0 0,-22.3225 16.65375,0 0,-10.98375 -16.65375,0 0,-22.3235 16.65375,0 0,-10.98513 -16.65375,0 0,-22.32174 -10.98375,0 0,22.32174 -16.655,0 0,10.98513 16.655,0 0,22.3235 -16.655,0 0,10.98375 16.655,0 0,22.3225 -56.69375,0 0,11.16125 z"
       id="path17" />
  </g>
</svg>
