<?xml version="1.0" encoding="UTF-8" standalone="no"?>
<!-- Generator: Adobe Illustrator 13.0.1, SVG Export Plug-In . SVG Version: 6.00 Build 14948)  -->

<svg
   xmlns:dc="http://purl.org/dc/elements/1.1/"
   xmlns:cc="http://creativecommons.org/ns#"
   xmlns:rdf="http://www.w3.org/1999/02/22-rdf-syntax-ns#"
   xmlns:svg="http://www.w3.org/2000/svg"
   xmlns="http://www.w3.org/2000/svg"
   xmlns:sodipodi="http://sodipodi.sourceforge.net/DTD/sodipodi-0.dtd"
   xmlns:inkscape="http://www.inkscape.org/namespaces/inkscape"
   version="1.1"
   id="Layer_1"
   x="0px"
   y="0px"
   width="265.74875"
   height="110.90575"
   viewBox="0 0 265.74874 110.90575"
   enable-background="new 0 0 300 250"
   xml:space="preserve"
   inkscape:version="0.48.2 r9819"
   sodipodi:docname="AJAX4.svg"><metadata
   id="metadata94"><rdf:RDF><cc:Work
       rdf:about=""><dc:format>image/svg+xml</dc:format><dc:type
         rdf:resource="http://purl.org/dc/dcmitype/StillImage" /><dc:title></dc:title></cc:Work></rdf:RDF></metadata><defs
   id="defs92" /><sodipodi:namedview
   pagecolor="#ffffff"
   bordercolor="#666666"
   borderopacity="1"
   objecttolerance="10"
   gridtolerance="10"
   guidetolerance="10"
   inkscape:pageopacity="0"
   inkscape:pageshadow="2"
   inkscape:window-width="1280"
   inkscape:window-height="1004"
   id="namedview90"
   showgrid="false"
   fit-margin-top="0"
   fit-margin-left="0"
   fit-margin-right="0"
   fit-margin-bottom="0"
   inkscape:zoom="1.888"
   inkscape:cx="127.76135"
   inkscape:cy="21.916896"
   inkscape:window-x="-8"
   inkscape:window-y="-8"
   inkscape:window-maximized="1"
   inkscape:current-layer="Layer_1" />















<path
   inkscape:connector-curvature="0"
   style="fill:#ffdb00;fill-rule:nonzero;stroke:none"
   d="M -8.6309118e-6,17.716126 C -8.6309118e-6,7.932125 7.9321167,0 17.717242,0 L 248.0325,0 c 9.78375,0 17.71625,7.932125 17.71625,17.716126 l 0,75.472378 c 0,9.785126 -7.9325,17.717246 -17.71625,17.717246 l -230.315258,0 C 7.9321167,110.90575 -8.6309118e-6,102.97363 -8.6309118e-6,93.188504 l 0,-75.472378 z"
   id="path11" /><path
   inkscape:connector-curvature="0"
   style="fill:#000000;fill-rule:nonzero;stroke:none"
   d="M 3.1896915,17.716076 C 3.1896915,9.6936 9.6935918,3.1897 17.717192,3.1897 l 230.315008,0 c 8.0225,0 14.5275,6.5039 14.5275,14.526376 l 0,75.472378 c 0,8.023746 -6.505,14.527616 -14.5275,14.527616 l -230.315008,0 c -8.0236002,0 -14.5275005,-6.50387 -14.5275005,-14.527616 l 0,-75.472378 z"
   id="path13" /><path
   inkscape:connector-curvature="0"
   style="fill:#ffdb00;fill-rule:nonzero;stroke:none"
   d="m 7.7954042,17.716085 c 0,-5.4785 4.4420878,-9.920675 9.9218378,-9.920675 l 230.315668,0 c 5.47875,0 9.92,4.442175 9.92,9.920675 l 0,75.472329 c 0,5.47975 -4.44125,9.921876 -9.92,9.921876 l -230.315668,0 c -5.47975,0 -9.9218378,-4.442126 -9.9218378,-9.921876 l 0,-75.472329 z"
   id="path15" /><path
   inkscape:connector-curvature="0"
   style="fill:#000000;fill-rule:nonzero;stroke:none"
   d="m 85.342994,44.652084 6.506376,-2.20575 c -1.138875,-3.01275 -2.90525,-5.43462 -5.297876,-7.26562 -2.39375,-1.801753 -5.068375,-2.702628 -8.023625,-2.702628 -10.422375,0 -15.633625,8.029748 -15.633625,24.090498 0,5.968 1.152375,10.91313 3.4595,14.83525 2.768625,4.729 6.826125,7.09225 12.174125,7.09225 3.7195,0 6.981125,-1.33662 9.785126,-4.01125 2.804,-2.6745 4.2065,-5.84225 4.2065,-9.50437 l 0,-9.25538 -14.389626,0 0,7.00313 7.535375,0 0,2.83212 c 0,1.21088 -0.68475,2.49263 -2.054375,3.84638 -1.497875,1.54175 -3.10425,2.31325 -4.818125,2.31325 -3.1555,0 -5.5115,-1.60038 -7.066625,-4.79975 -1.311125,-2.62338 -1.966625,-6.0315 -1.966625,-10.22713 0,-4.81325 0.402875,-8.46062 1.20975,-10.93987 1.297625,-4.093 3.79025,-6.14013 7.47925,-6.14013 1.6565,0 3.054125,0.45525 4.193125,1.3635 0.921625,0.77763 1.8225,2.00313 2.701375,3.6755 z"
   id="path17" /><path
   inkscape:connector-curvature="0"
   style="fill:#000000;fill-rule:evenodd;stroke:none"
   d="m 115.0025,33.364211 -15.011009,44.246873 7.397379,0 4.06625,-12.5 14.18988,0 4.3475,12.5 7.16,0 -15.14075,-44.246873 -7.00925,0 z m 8.02487,24.675373 -9.04175,0 4.43475,-13.21412 4.607,13.21412 z"
   id="path19" /><path
   inkscape:connector-curvature="0"
   style="fill:#000000;fill-rule:nonzero;stroke:none"
   d="m 139.97375,33.364211 0,6.508873 10.1875,0 0,37.782 6.68375,0 0,-37.782 10.14624,0 0,-6.508873 -27.01749,0 z"
   id="path21" /><path
   inkscape:connector-curvature="0"
   style="fill:#000000;fill-rule:nonzero;stroke:none"
   d="m 175.11374,33.364211 0,44.290873 27.01751,0 0,-6.897 -20.16,0 0,-12.49387 12.93625,0 0,-6.91775 -12.93625,0 0,-10.896 18.5375,0 0,-7.086253 -25.39501,0 z"
   id="path23" /></svg>