<?xml version="1.0" encoding="UTF-8" standalone="no"?>
<!-- Created with Inkscape (http://www.inkscape.org/) -->

<svg
   xmlns:dc="http://purl.org/dc/elements/1.1/"
   xmlns:cc="http://creativecommons.org/ns#"
   xmlns:rdf="http://www.w3.org/1999/02/22-rdf-syntax-ns#"
   xmlns:svg="http://www.w3.org/2000/svg"
   xmlns="http://www.w3.org/2000/svg"
   xmlns:sodipodi="http://sodipodi.sourceforge.net/DTD/sodipodi-0.dtd"
   xmlns:inkscape="http://www.inkscape.org/namespaces/inkscape"
   version="1.1"
   width="100%"
   height="100%"
   viewBox="0 0 159.44875 212.5975"
   id="svg2"
   inkscape:version="0.48.2 r9819"
   sodipodi:docname="AJAX4.svg">
  <sodipodi:namedview
     pagecolor="#ffffff"
     bordercolor="#666666"
     borderopacity="1"
     objecttolerance="10"
     gridtolerance="10"
     guidetolerance="10"
     inkscape:pageopacity="0"
     inkscape:pageshadow="2"
     inkscape:window-width="1280"
     inkscape:window-height="1004"
     id="namedview317"
     showgrid="false"
     inkscape:zoom="1.288"
     inkscape:cx="117.76536"
     inkscape:cy="51.749497"
     inkscape:window-x="-8"
     inkscape:window-y="-8"
     inkscape:window-maximized="1"
     inkscape:current-layer="svg2"
     fit-margin-top="0"
     fit-margin-left="0"
     fit-margin-right="0"
     fit-margin-bottom="0"
     showguides="true"
     inkscape:guide-bbox="true" />
  <metadata
     id="metadata8">
    <rdf:RDF>
      <cc:Work
         rdf:about="">
        <dc:format>image/svg+xml</dc:format>
        <dc:type
           rdf:resource="http://purl.org/dc/dcmitype/StillImage" />
        <dc:title></dc:title>
      </cc:Work>
    </rdf:RDF>
  </metadata>
  <defs
     id="defs6">
    <clipPath
       id="clipPath220">
      <path
         d="m 0,0 595.276,0 0,841.89 L 0,841.89 0,0 z"
         id="path222"
         inkscape:connector-curvature="0" />
    </clipPath>
    <clipPath
       id="clipPath244">
      <path
         d="m 0,0 595.276,0 0,841.89 L 0,841.89 0,0 z"
         id="path246"
         inkscape:connector-curvature="0" />
    </clipPath>
    <clipPath
       id="clipPath504">
      <path
         d="m 440.788,528.662 58.15,0 0,63.886 -58.15,0 0,-63.886 z"
         id="path506"
         inkscape:connector-curvature="0" />
    </clipPath>
    <clipPath
       id="clipPath564">
      <path
         d="m 167.953,459.481 62.363,0 0,36.85 -62.363,0 0,-36.85 z"
         id="path566"
         inkscape:connector-curvature="0" />
    </clipPath>
    <clipPath
       id="clipPath682">
      <path
         d="m 167.953,459.481 62.363,0 0,36.85 -62.363,0 0,-36.85 z"
         id="path684"
         inkscape:connector-curvature="0" />
    </clipPath>
    <clipPath
       id="clipPath732">
      <path
         d="m 435.827,468.507 62.362,0 0,36.851 -62.362,0 0,-36.851 z"
         id="path734"
         inkscape:connector-curvature="0" />
    </clipPath>
    <clipPath
       id="clipPath860">
      <path
         d="m 34.016,406.772 62.363,0 0,36.85 -62.363,0 0,-36.85 z"
         id="path862"
         inkscape:connector-curvature="0" />
    </clipPath>
    <clipPath
       id="clipPath1118">
      <path
         d="m 167.953,406.772 62.363,0 0,36.85 -62.363,0 0,-36.85 z"
         id="path1120"
         inkscape:connector-curvature="0" />
    </clipPath>
    <clipPath
       id="clipPath1168">
      <path
         d="m 167.953,406.772 62.363,0 0,36.85 -62.363,0 0,-36.85 z"
         id="path1170"
         inkscape:connector-curvature="0" />
    </clipPath>
    <clipPath
       id="clipPath2652">
      <path
         d="m 301.89,406.772 62.362,0 0,36.85 -62.362,0 0,-36.85 z"
         id="path2654"
         inkscape:connector-curvature="0" />
    </clipPath>
    <clipPath
       id="clipPath3618">
      <path
         d="m 435.827,406.772 62.362,0 0,36.85 -62.362,0 0,-36.85 z"
         id="path3620"
         inkscape:connector-curvature="0" />
    </clipPath>
    <clipPath
       id="clipPath3780">
      <path
         d="m 0,0 595.276,0 0,841.89 L 0,841.89 0,0 z"
         id="path3782"
         inkscape:connector-curvature="0" />
    </clipPath>
    <clipPath
       id="clipPath3800">
      <path
         d="m 0,0 595.276,0 0,841.89 L 0,841.89 0,0 z"
         id="path3802"
         inkscape:connector-curvature="0" />
    </clipPath>
    <clipPath
       id="clipPath3820">
      <path
         d="m 0,0 595.276,0 0,841.89 L 0,841.89 0,0 z"
         id="path3822"
         inkscape:connector-curvature="0" />
    </clipPath>
    <clipPath
       id="clipPath3840">
      <path
         d="m 0,0 595.276,0 0,841.89 L 0,841.89 0,0 z"
         id="path3842"
         inkscape:connector-curvature="0" />
    </clipPath>
    <clipPath
       id="clipPath3860">
      <path
         d="m 0,0 595.276,0 0,841.89 L 0,841.89 0,0 z"
         id="path3862"
         inkscape:connector-curvature="0" />
    </clipPath>
    <clipPath
       id="clipPath3880">
      <path
         d="m 0,0 595.276,0 0,841.89 L 0,841.89 0,0 z"
         id="path3882"
         inkscape:connector-curvature="0" />
    </clipPath>
    <clipPath
       id="clipPath3930">
      <path
         d="m 167.953,335.039 62.363,0 0,39.685 -62.363,0 0,-39.685 z"
         id="path3932"
         inkscape:connector-curvature="0" />
    </clipPath>
    <clipPath
       id="clipPath3966">
      <path
         d="m 301.89,335.039 62.362,0 0,39.685 -62.362,0 0,-39.685 z"
         id="path3968"
         inkscape:connector-curvature="0" />
    </clipPath>
    <clipPath
       id="clipPath4000">
      <path
         d="m 34.016,285.165 62.363,0 0,39.686 -62.363,0 0,-39.686 z"
         id="path4002"
         inkscape:connector-curvature="0" />
    </clipPath>
    <clipPath
       id="clipPath4298">
      <path
         d="m 167.953,285.165 62.363,0 0,39.686 -62.363,0 0,-39.686 z"
         id="path4300"
         inkscape:connector-curvature="0" />
    </clipPath>
    <clipPath
       id="clipPath4334">
      <path
         d="m 167.953,285.165 62.363,0 0,39.686 -62.363,0 0,-39.686 z"
         id="path4336"
         inkscape:connector-curvature="0" />
    </clipPath>
    <clipPath
       id="clipPath4620">
      <path
         d="m 301.89,285.165 62.362,0 0,39.686 -62.362,0 0,-39.686 z"
         id="path4622"
         inkscape:connector-curvature="0" />
    </clipPath>
    <clipPath
       id="clipPath4632">
      <path
         d="m 301.89,285.165 62.362,0 0,39.686 -62.362,0 0,-39.686 z"
         id="path4634"
         inkscape:connector-curvature="0" />
    </clipPath>
    <clipPath
       id="clipPath4930">
      <path
         d="m 435.827,285.165 62.362,0 0,39.686 -62.362,0 0,-39.686 z"
         id="path4932"
         inkscape:connector-curvature="0" />
    </clipPath>
    <clipPath
       id="clipPath5206">
      <path
         d="m 0,0 595.276,0 0,841.89 L 0,841.89 0,0 z"
         id="path5208"
         inkscape:connector-curvature="0" />
    </clipPath>
    <clipPath
       id="clipPath5226">
      <path
         d="m 0,0 595.276,0 0,841.89 L 0,841.89 0,0 z"
         id="path5228"
         inkscape:connector-curvature="0" />
    </clipPath>
    <clipPath
       id="clipPath5246">
      <path
         d="m 0,0 595.276,0 0,841.89 L 0,841.89 0,0 z"
         id="path5248"
         inkscape:connector-curvature="0" />
    </clipPath>
    <clipPath
       id="clipPath5266">
      <path
         d="m 0,0 595.276,0 0,841.89 L 0,841.89 0,0 z"
         id="path5268"
         inkscape:connector-curvature="0" />
    </clipPath>
    <clipPath
       id="clipPath5286">
      <path
         d="m 0,0 595.276,0 0,841.89 L 0,841.89 0,0 z"
         id="path5288"
         inkscape:connector-curvature="0" />
    </clipPath>
    <clipPath
       id="clipPath5306">
      <path
         d="m 0,0 595.276,0 0,841.89 L 0,841.89 0,0 z"
         id="path5308"
         inkscape:connector-curvature="0" />
    </clipPath>
    <clipPath
       id="clipPath5326">
      <path
         d="m 0,0 595.276,0 0,841.89 L 0,841.89 0,0 z"
         id="path5328"
         inkscape:connector-curvature="0" />
    </clipPath>
    <clipPath
       id="clipPath5346">
      <path
         d="m 0,0 595.276,0 0,841.89 L 0,841.89 0,0 z"
         id="path5348"
         inkscape:connector-curvature="0" />
    </clipPath>
    <clipPath
       id="clipPath5408">
      <path
         d="m 34.016,163.292 62.363,0 0,39.685 -62.363,0 0,-39.685 z"
         id="path5410"
         inkscape:connector-curvature="0" />
    </clipPath>
    <clipPath
       id="clipPath5718">
      <path
         d="m 167.953,163.292 62.363,0 0,39.685 -62.363,0 0,-39.685 z"
         id="path5720"
         inkscape:connector-curvature="0" />
    </clipPath>
    <clipPath
       id="clipPath5826">
      <path
         d="m 301.89,163.292 62.362,0 0,39.685 -62.362,0 0,-39.685 z"
         id="path5828"
         inkscape:connector-curvature="0" />
    </clipPath>
    <clipPath
       id="clipPath7160">
      <path
         d="m 435.827,163.292 62.362,0 0,39.685 -62.362,0 0,-39.685 z"
         id="path7162"
         inkscape:connector-curvature="0" />
    </clipPath>
    <clipPath
       id="clipPath7504">
      <path
         d="m 0,0 595.276,0 0,841.89 L 0,841.89 0,0 z"
         id="path7506"
         inkscape:connector-curvature="0" />
    </clipPath>
    <clipPath
       id="clipPath7524">
      <path
         d="m 0,0 595.276,0 0,841.89 L 0,841.89 0,0 z"
         id="path7526"
         inkscape:connector-curvature="0" />
    </clipPath>
    <clipPath
       id="clipPath7544">
      <path
         d="m 0,0 595.276,0 0,841.89 L 0,841.89 0,0 z"
         id="path7546"
         inkscape:connector-curvature="0" />
    </clipPath>
    <clipPath
       id="clipPath7564">
      <path
         d="m 0,0 595.276,0 0,841.89 L 0,841.89 0,0 z"
         id="path7566"
         inkscape:connector-curvature="0" />
    </clipPath>
    <clipPath
       id="clipPath7584">
      <path
         d="m 0,0 595.276,0 0,841.89 L 0,841.89 0,0 z"
         id="path7586"
         inkscape:connector-curvature="0" />
    </clipPath>
    <clipPath
       id="clipPath7604">
      <path
         d="m 0,0 595.276,0 0,841.89 L 0,841.89 0,0 z"
         id="path7606"
         inkscape:connector-curvature="0" />
    </clipPath>
    <clipPath
       id="clipPath7624">
      <path
         d="m 0,0 595.276,0 0,841.89 L 0,841.89 0,0 z"
         id="path7626"
         inkscape:connector-curvature="0" />
    </clipPath>
    <clipPath
       id="clipPath7644">
      <path
         d="m 0,0 595.276,0 0,841.89 L 0,841.89 0,0 z"
         id="path7646"
         inkscape:connector-curvature="0" />
    </clipPath>
    <clipPath
       id="clipPath7690">
      <path
         d="m 34.016,91.559 62.363,0 0,39.686 -62.363,0 0,-39.686 z"
         id="path7692"
         inkscape:connector-curvature="0" />
    </clipPath>
    <clipPath
       id="clipPath7714">
      <path
         d="m 435.827,91.559 62.362,0 0,39.686 -62.362,0 0,-39.686 z"
         id="path7716"
         inkscape:connector-curvature="0" />
    </clipPath>
    <clipPath
       id="clipPath7728">
      <path
         d="m 34.016,41.685 62.363,0 0,39.685 -62.363,0 0,-39.685 z"
         id="path7730"
         inkscape:connector-curvature="0" />
    </clipPath>
    <clipPath
       id="clipPath7740">
      <path
         d="m 34.016,41.685 62.363,0 0,39.685 -62.363,0 0,-39.685 z"
         id="path7742"
         inkscape:connector-curvature="0" />
    </clipPath>
    <clipPath
       id="clipPath7802">
      <path
         d="m 167.953,41.685 62.363,0 0,39.685 -62.363,0 0,-39.685 z"
         id="path7804"
         inkscape:connector-curvature="0" />
    </clipPath>
    <clipPath
       id="clipPath8374">
      <path
         d="m 301.89,41.685 62.362,0 0,39.685 -62.362,0 0,-39.685 z"
         id="path8376"
         inkscape:connector-curvature="0" />
    </clipPath>
    <clipPath
       id="clipPath8668">
      <path
         d="m 435.827,41.685 62.362,0 0,39.685 -62.362,0 0,-39.685 z"
         id="path8670"
         inkscape:connector-curvature="0" />
    </clipPath>
    <clipPath
       id="clipPath8680">
      <path
         d="m 435.827,41.685 62.362,0 0,39.685 -62.362,0 0,-39.685 z"
         id="path8682"
         inkscape:connector-curvature="0" />
    </clipPath>
    <clipPath
       id="clipPath8928">
      <path
         d="m 0,0 595.276,0 0,841.89 L 0,841.89 0,0 z"
         id="path8930"
         inkscape:connector-curvature="0" />
    </clipPath>
    <clipPath
       id="clipPath8948">
      <path
         d="m 0,0 595.276,0 0,841.89 L 0,841.89 0,0 z"
         id="path8950"
         inkscape:connector-curvature="0" />
    </clipPath>
    <clipPath
       id="clipPath8968">
      <path
         d="m 0,0 595.276,0 0,841.89 L 0,841.89 0,0 z"
         id="path8970"
         inkscape:connector-curvature="0" />
    </clipPath>
    <clipPath
       id="clipPath8988">
      <path
         d="m 0,0 595.276,0 0,841.89 L 0,841.89 0,0 z"
         id="path8990"
         inkscape:connector-curvature="0" />
    </clipPath>
    <clipPath
       id="clipPath9008">
      <path
         d="m 0,0 595.276,0 0,841.89 L 0,841.89 0,0 z"
         id="path9010"
         inkscape:connector-curvature="0" />
    </clipPath>
    <clipPath
       id="clipPath9028">
      <path
         d="m 0,0 595.276,0 0,841.89 L 0,841.89 0,0 z"
         id="path9030"
         inkscape:connector-curvature="0" />
    </clipPath>
    <clipPath
       id="clipPath9048">
      <path
         d="m 0,0 595.276,0 0,841.89 L 0,841.89 0,0 z"
         id="path9050"
         inkscape:connector-curvature="0" />
    </clipPath>
    <clipPath
       id="clipPath9068">
      <path
         d="m 0,0 595.276,0 0,841.89 L 0,841.89 0,0 z"
         id="path9070"
         inkscape:connector-curvature="0" />
    </clipPath>
    <clipPath
       id="clipPath9088">
      <path
         d="m 0,0 595.276,0 0,841.89 L 0,841.89 0,0 z"
         id="path9090"
         inkscape:connector-curvature="0" />
    </clipPath>
    <clipPath
       id="clipPath9104">
      <path
         d="m 0,0 595.276,0 0,841.89 L 0,841.89 0,0 z"
         id="path9106"
         inkscape:connector-curvature="0" />
    </clipPath>
    <clipPath
       id="clipPath9132">
      <path
         d="m 0,0 595.276,0 0,841.89 L 0,841.89 0,0 z"
         id="path9134"
         inkscape:connector-curvature="0" />
    </clipPath>
    <clipPath
       id="clipPath9142">
      <path
         d="m 0,841.89 595.276,0 L 595.276,0 0,0 0,841.89 z"
         id="path9144"
         inkscape:connector-curvature="0" />
    </clipPath>
    <clipPath
       id="clipPath9160">
      <path
         d="m 0,0 595.276,0 0,841.89 L 0,841.89 0,0 z"
         id="path9162"
         inkscape:connector-curvature="0" />
    </clipPath>
    <clipPath
       id="clipPath9170">
      <path
         d="m 0,841.89 595.276,0 L 595.276,0 0,0 0,841.89 z"
         id="path9172"
         inkscape:connector-curvature="0" />
    </clipPath>
    <clipPath
       id="clipPath9190">
      <path
         d="m 0,841.89 595.276,0 L 595.276,0 0,0 0,841.89 z"
         id="path9192"
         inkscape:connector-curvature="0" />
    </clipPath>
    <clipPath
       id="clipPath7160-4">
      <path
         d="m 435.827,163.292 62.362,0 0,39.685 -62.362,0 0,-39.685 z"
         id="path7162-0"
         inkscape:connector-curvature="0" />
    </clipPath>
  </defs>
  <g
     id="g3141"
     transform="translate(-4.9157791,216.36973)"
     style="fill:#ffdb00;fill-opacity:1;stroke:none" />
  <path
     inkscape:connector-curvature="0"
     style="fill:#ffdb00;fill-rule:nonzero;stroke:none"
     d="M 159.44875,17.715996 C 159.44875,7.9309053 151.51662,-4.6793509e-6 141.7315,-4.6793509e-6 l -124.01525,0 C 7.93125,-4.6793509e-6 0,7.9309053 0,17.715996 L 0,194.88125 c 0,9.78375 7.93125,17.71625 17.71625,17.71625 l 124.01525,0 c 9.78512,0 17.71725,-7.9325 17.71725,-17.71625 l 0,-177.165254 z"
     id="path11" />
  <path
     inkscape:connector-curvature="0"
     style="fill:#000000;fill-rule:nonzero;stroke:none"
     d="m 155.90505,17.716116 c 0,-7.8271907 -6.34522,-14.1736307 -14.17363,-14.1736307 l -124.01512,0 c -7.8274995,0 -14.1725,6.34644 -14.1725,14.1736307 l 0,177.165124 c 0,7.8275 6.3450005,14.1725 14.1725,14.1725 l 124.01512,0 c 7.82841,0 14.17363,-6.345 14.17363,-14.1725 l 0,-177.165124 z"
     id="path13" />
  <path
     inkscape:connector-curvature="0"
     style="fill:#ffdb00;fill-rule:nonzero;stroke:none"
     d="m 148.81887,17.716046 c 0,-3.9135 -3.1738,-7.08616 -7.08742,-7.08616 l -124.01508,0 c -3.91375,0 -7.08625,3.17266 -7.08625,7.08616 l 0,177.166344 c 0,3.91375 3.1725,7.08625 7.08625,7.08625 l 124.01508,0 c 3.91362,0 7.08742,-3.1725 7.08742,-7.08625 l 0,-177.166344 z"
     id="path15" />
  <path
     inkscape:connector-curvature="0"
     style="fill:#000000;fill-rule:nonzero;stroke:none"
     d="m 79.723449,17.716046 -62.007499,0 62.007499,88.582754 -62.007499,88.5835 62.007499,0 62.008001,-88.5835 -62.008001,-88.582754 z"
     id="path17" />
</svg>
