<?xml version="1.0" encoding="UTF-8" standalone="no"?>
<!-- Generator: Adobe Illustrator 13.0.1, SVG Export Plug-In . SVG Version: 6.00 Build 14948)  -->

<svg
   xmlns:dc="http://purl.org/dc/elements/1.1/"
   xmlns:cc="http://creativecommons.org/ns#"
   xmlns:rdf="http://www.w3.org/1999/02/22-rdf-syntax-ns#"
   xmlns:svg="http://www.w3.org/2000/svg"
   xmlns="http://www.w3.org/2000/svg"
   xmlns:sodipodi="http://sodipodi.sourceforge.net/DTD/sodipodi-0.dtd"
   xmlns:inkscape="http://www.inkscape.org/namespaces/inkscape"
   version="1.1"
   id="Layer_1"
   x="0px"
   y="0px"
   width="265.74875"
   height="177.16499"
   viewBox="0 0 265.74876 177.16501"
   enable-background="new 0 0 300 250"
   xml:space="preserve"
   inkscape:version="0.48.2 r9819"
   sodipodi:docname="AJAX1.svg"><metadata
   id="metadata94"><rdf:RDF><cc:Work
       rdf:about=""><dc:format>image/svg+xml</dc:format><dc:type
         rdf:resource="http://purl.org/dc/dcmitype/StillImage" /><dc:title></dc:title></cc:Work></rdf:RDF></metadata><defs
   id="defs92" /><sodipodi:namedview
   pagecolor="#ffffff"
   bordercolor="#666666"
   borderopacity="1"
   objecttolerance="10"
   gridtolerance="10"
   guidetolerance="10"
   inkscape:pageopacity="0"
   inkscape:pageshadow="2"
   inkscape:window-width="1280"
   inkscape:window-height="1004"
   id="namedview90"
   showgrid="false"
   fit-margin-top="0"
   fit-margin-left="0"
   fit-margin-right="0"
   fit-margin-bottom="0"
   inkscape:zoom="1.3350176"
   inkscape:cx="-45.554319"
   inkscape:cy="109.03096"
   inkscape:window-x="-8"
   inkscape:window-y="-8"
   inkscape:window-maximized="1"
   inkscape:current-layer="Layer_1" />















<path
   inkscape:connector-curvature="0"
   style="fill:#ffdb00;fill-rule:nonzero;stroke:none"
   d="M -6.9251082e-6,17.71612 C -6.9251082e-6,7.93214 7.9321186,0 17.715994,0 L 248.03251,0 c 9.78375,0 17.71625,7.93214 17.71625,17.71612 l 0,141.73139 c 0,9.785 -7.9325,17.7175 -17.71625,17.7175 l -230.316516,0 c -9.7838754,0 -17.7160009251082,-7.9325 -17.7160009251082,-17.7175 l 0,-141.73139 z"
   id="path11" /><path
   inkscape:connector-curvature="0"
   style="fill:#000000;fill-rule:nonzero;stroke:none"
   d="m 3.5436908,17.71607 c 0,-7.82715 6.3452134,-14.17237 14.1736262,-14.17237 l 230.315143,0 c 7.8275,0 14.1725,6.34522 14.1725,14.17237 l 0,141.73264 c 0,7.82875 -6.345,14.17375 -14.1725,14.17375 l -230.315143,0 c -7.8284128,0 -14.1736262,-6.345 -14.1736262,-14.17375 l 0,-141.73264 z"
   id="path13" /><path
   inkscape:connector-curvature="0"
   style="fill:#ffdb00;fill-rule:nonzero;stroke:none"
   d="m 9.2126412,17.7161 c 0,-4.69613 3.8074128,-8.50345 8.5034128,-8.50345 l 230.316606,0 c 4.69625,0 8.50375,3.80732 8.50375,8.50345 l 0,141.73156 c 0,4.6975 -3.8075,8.505 -8.50375,8.505 l -230.316606,0 c -4.696,0 -8.5034128,-3.8075 -8.5034128,-8.505 l 0,-141.73156 z"
   id="path15" /><path
   style="fill:#000000;fill-rule:evenodd;stroke:none"
   d="m 68.475309,144.79311 c 1.744375,0 3.070125,-0.265 3.97825,-0.79625 l 1.816501,2.745 3.9355,-2.53 -1.94575,-2.7475 c 1.60025,-1.08125 2.868625,-3.6325 3.806125,-7.655 0.86425,-3.63375 1.297625,-7.63375 1.297625,-12.00276 0,-15.354 -4.29575,-23.032123 -12.888251,-23.032123 -4.786375,0 -8.181126,2.054373 -10.185501,6.163253 -1.77375,3.60475 -2.659875,9.22737 -2.659875,16.86775 0,7.71388 0.930125,13.37888 2.78925,16.99763 2.03375,3.99375 5.384501,5.99 10.056126,5.99 z m 0.129375,-6.42125 c -0.201375,0.0588 -0.49675,0.0862 -0.886125,0.0862 -2.11925,0 -3.71225,-1.665 -4.779125,-4.995 -0.922876,-2.9275 -1.384251,-6.8125 -1.384251,-11.65763 0,-11.10113 2.307126,-16.65163 6.920126,-16.65163 4.483625,0 6.724876,5.57975 6.724876,16.7395 0,3.01226 -0.129375,5.40601 -0.388125,7.17976 -0.361375,2.5375 -1.0755,4.83625 -2.141126,6.89875 l -2.5525,-4.19625 -4.2175,2.70375 2.70375,3.8925 z"
   id="path17"
   inkscape:connector-curvature="0" /><path
   style="fill:#000000;fill-rule:nonzero;stroke:none"
   d="m 103.89044,144.79311 c 3.01512,0 5.80562,-1.1675 8.37275,-3.5025 2.56712,-2.33625 3.85137,-4.91625 3.85137,-7.7425 l 0,-33.887508 -6.38187,0 0,33.477508 c 0,1.60125 -0.62013,2.905 -1.86038,3.915 -1.11087,0.90875 -2.45237,1.3625 -4.02462,1.3625 -1.50025,0 -2.82713,-0.49 -3.980753,-1.47125 -1.24025,-1.0225 -1.860375,-2.2925 -1.860375,-3.80625 l 0,-33.477508 -6.252376,0 0,33.887508 c 0,2.985 1.297625,5.6225 3.894001,7.915 2.50975,2.22125 5.256373,3.33 8.242253,3.33 z"
   id="path19"
   inkscape:connector-curvature="0" /><path
   style="fill:#000000;fill-rule:nonzero;stroke:none"
   d="m 125.13581,99.660602 0,44.292508 22.14626,0 0,-6.25 -16.07,0 0,-14.62088 9.43,0 0,-6.05463 -9.43,0 0,-11.117 15.355,0 0,-6.249998 -21.43126,0 z"
   id="path21"
   inkscape:connector-curvature="0" /><path
   style="fill:#000000;fill-rule:nonzero;stroke:none"
   d="m 166.69582,144.79311 c 3.01375,0 5.805,-1.1675 8.37251,-3.5025 2.56749,-2.33625 3.85,-4.91625 3.85,-7.7425 l 0,-33.887508 -6.38126,0 0,33.477508 c 0,1.60125 -0.62,2.905 -1.86125,3.915 -1.11,0.90875 -2.4525,1.3625 -4.0225,1.3625 -1.50125,0 -2.8275,-0.49 -3.98125,-1.47125 -1.24125,-1.0225 -1.86125,-2.2925 -1.86125,-3.80625 l 0,-33.477508 -6.25125,0 0,33.887508 c 0,2.985 1.2975,5.6225 3.89375,7.915 2.50875,2.22125 5.25625,3.33 8.2425,3.33 z"
   id="path23"
   inkscape:connector-curvature="0" /><path
   style="fill:#000000;fill-rule:nonzero;stroke:none"
   d="m 187.94082,99.660602 0,44.292508 22.145,0 0,-6.25 -16.06875,0 0,-14.62088 9.42875,0 0,-6.05463 -9.42875,0 0,-11.117 15.355,0 0,-6.249998 -21.43125,0 z"
   id="path25"
   inkscape:connector-curvature="0" /><path
   style="fill:#000000;fill-rule:nonzero;stroke:none"
   d="m 47.480433,33.046846 0,44.290754 6.29525,0 0,-20.113502 12.180126,0 0,20.113502 5.885,0 0,-44.290754 -5.885,0 0,17.928502 -12.180126,0 0,-17.928502 -6.29525,0 z"
   id="path27"
   inkscape:connector-curvature="0" /><path
   style="fill:#000000;fill-rule:nonzero;stroke:none"
   d="m 81.76881,77.3376 6.201126,0 0,-44.290754 -6.201126,0 0,44.290754 z"
   id="path29"
   inkscape:connector-curvature="0" /><path
   style="fill:#000000;fill-rule:evenodd;stroke:none"
   d="m 107.19844,33.046846 -10.059753,0 0,44.290754 10.059753,0 c 5.61037,0 9.51175,-2.198375 11.70412,-6.595375 1.731,-3.490001 2.5965,-9.069876 2.5965,-16.739502 0,-6.530751 -0.94487,-11.477126 -2.8345,-14.835251 -2.29375,-4.08075 -6.11575,-6.120626 -11.46612,-6.120626 z m -0.216,6.120626 c 3.38862,0 5.68962,1.521 6.90062,4.563 0.82275,2.089875 1.23288,5.557876 1.23288,10.401626 l 0,2.5305 c 0,4.542251 -0.36738,7.815001 -1.10225,9.819376 -1.1255,3.07 -3.2825,4.605626 -6.46975,4.605626 l -4.24075,0 0,-31.920128 3.67925,0 z"
   id="path31"
   inkscape:connector-curvature="0" /><path
   style="fill:#000000;fill-rule:evenodd;stroke:none"
   d="m 140.70332,33.046846 -10.06,0 0,44.290754 10.06,0 c 5.61,0 9.51125,-2.198375 11.70375,-6.595375 1.73125,-3.490001 2.59625,-9.069876 2.59625,-16.739502 0,-6.530751 -0.945,-11.477126 -2.83375,-14.835251 -2.2925,-4.08075 -6.11625,-6.120626 -11.46625,-6.120626 z m -0.21625,6.120626 c 3.38875,0 5.69,1.521 6.90125,4.563 0.8225,2.089875 1.23375,5.557876 1.23375,10.401626 l 0,2.5305 c 0,4.542251 -0.36875,7.815001 -1.10375,9.819376 -1.125,3.07 -3.28125,4.605626 -6.47,4.605626 l -4.23875,0 0,-31.920128 3.6775,0 z"
   id="path33"
   inkscape:connector-curvature="0" /><path
   style="fill:#000000;fill-rule:nonzero;stroke:none"
   d="m 164.41456,33.046846 0,44.290754 22.14501,0 0,-6.25 -16.06876,0 0,-14.619127 9.42876,0 0,-6.055875 -9.42876,0 0,-11.115751 15.35501,0 0,-6.250001 -21.43126,0 z"
   id="path35"
   inkscape:connector-curvature="0" /><path
   style="fill:#000000;fill-rule:nonzero;stroke:none"
   d="m 193.99082,33.046846 0,44.290754 6.12251,0 0,-29.110003 13.19749,29.110003 5.04001,0 0,-44.290754 -6.42625,0 0,25.605502 -11.81125,-25.605502 -6.12251,0 z"
   id="path37"
   inkscape:connector-curvature="0" /></svg>