<?xml version="1.0" encoding="UTF-8" standalone="no"?>
<!-- Created with Inkscape (http://www.inkscape.org/) -->

<svg
   xmlns:dc="http://purl.org/dc/elements/1.1/"
   xmlns:cc="http://creativecommons.org/ns#"
   xmlns:rdf="http://www.w3.org/1999/02/22-rdf-syntax-ns#"
   xmlns:svg="http://www.w3.org/2000/svg"
   xmlns="http://www.w3.org/2000/svg"
   xmlns:sodipodi="http://sodipodi.sourceforge.net/DTD/sodipodi-0.dtd"
   xmlns:inkscape="http://www.inkscape.org/namespaces/inkscape"
   width="360.6268"
   height="360.61301"
   id="svg2"
   sodipodi:version="0.32"
   inkscape:version="0.48.2 r9819"
   version="1.0"
   sodipodi:docname="AJAX2.svg"
   inkscape:output_extension="org.inkscape.output.svg.inkscape">
  <defs
     id="defs4">
    <inkscape:perspective
       sodipodi:type="inkscape:persp3d"
       inkscape:vp_x="0 : 300.5 : 1"
       inkscape:vp_y="0 : 1000 : 0"
       inkscape:vp_z="601 : 300.5 : 1"
       inkscape:persp3d-origin="300.5 : 200.33333 : 1"
       id="perspective3380" />
    <inkscape:perspective
       id="perspective3990"
       inkscape:persp3d-origin="375 : 250 : 1"
       inkscape:vp_z="750 : 375 : 1"
       inkscape:vp_y="0 : 1000 : 0"
       inkscape:vp_x="0 : 375 : 1"
       sodipodi:type="inkscape:persp3d" />
  </defs>
  <sodipodi:namedview
     id="base"
     pagecolor="#ffffff"
     bordercolor="#666666"
     borderopacity="1.0"
     gridtolerance="10000"
     guidetolerance="10"
     objecttolerance="10"
     inkscape:pageopacity="0.0"
     inkscape:pageshadow="2"
     inkscape:zoom="1.0529557"
     inkscape:cx="228.53792"
     inkscape:cy="130.99812"
     inkscape:document-units="px"
     inkscape:current-layer="layer1"
     width="601px"
     height="601px"
     inkscape:window-width="1280"
     inkscape:window-height="1004"
     inkscape:window-x="-8"
     inkscape:window-y="-8"
     showgrid="false"
     fit-margin-top="0"
     fit-margin-left="0"
     fit-margin-right="0"
     fit-margin-bottom="0"
     inkscape:window-maximized="1"
     showguides="true"
     inkscape:guide-bbox="true" />
  <metadata
     id="metadata7">
    <rdf:RDF>
      <cc:Work
         rdf:about="">
        <dc:format>image/svg+xml</dc:format>
        <dc:type
           rdf:resource="http://purl.org/dc/dcmitype/StillImage" />
        <dc:title></dc:title>
      </cc:Work>
    </rdf:RDF>
  </metadata>
  <g
     inkscape:label="Layer 1"
     inkscape:groupmode="layer"
     id="layer1"
     transform="translate(-1.3265962,-239.34674)">
    <rect
       style="color:#000000;fill:#000000;fill-opacity:1;fill-rule:nonzero;stroke:none;stroke-width:0.8735441;marker:none;visibility:visible;display:inline;overflow:visible"
       id="rect3653"
       width="0"
       height="27.202072"
       x="578.73834"
       y="298.1684"
       rx="249.48199"
       ry="27.202072" />
    <path
       inkscape:connector-curvature="0"
       style="fill:#ffdb00;fill-rule:nonzero;stroke:none"
       d="m 356.5779,406.67505 c 7.1675,7.16875 7.1675,18.78875 -10e-4,25.955 l -161.9625,161.955 c -7.1675,7.16625 -18.78875,7.16625 -25.95625,0 L 6.7021106,432.63005 c -7.1679625,-7.16625 -7.1667425,-18.78625 0,-25.955 L 168.6654,244.7218 c 7.16875,-7.16675 18.78875,-7.16675 25.95625,0 L 356.5779,406.67505 z"
       id="path11" />
    <path
       inkscape:connector-curvature="0"
       style="fill:#000000;fill-rule:nonzero;stroke:none"
       d="m 9.5109606,429.18724 c -5.1196375,-5.12125 -5.1196375,-13.42 0,-18.54125 L 172.36757,247.79308 c 5.12125,-5.12085 13.4225,-5.12085 18.54125,0 l 162.86125,162.85291 c 5.12,5.12125 5.12,13.42 0,18.54125 l -162.8575,162.85375 c -5.11875,5.12 -13.42,5.12 -18.54,0 L 9.5109606,429.18724 z"
       id="path13" />
    <path
       inkscape:connector-curvature="0"
       style="fill:#ffdb00;fill-rule:nonzero;stroke:none"
       d="m 13.871298,424.33214 c -2.490225,-2.49 -2.490225,-6.5275 0,-9.01875 L 176.72982,252.45982 c 2.49,-2.49143 6.52875,-2.49143 9.01875,0 l 162.86125,162.85357 c 2.49125,2.49125 2.49125,6.52875 0,9.01875 l -162.8575,162.855 c -2.49,2.49125 -6.52875,2.49125 -9.02,0 L 13.871298,424.33214 z"
       id="path15" />
    <path
       inkscape:connector-curvature="0"
       style="fill:#000000;fill-rule:nonzero;stroke:none"
       d="m 155.06455,450.41443 19.84375,-53.5375 0,-70.97587 -26.575,0 0,66.61337 -19.8425,53.15 0,66.61413 26.57375,0 0,-61.86412 z"
       id="path17" />
    <path
       inkscape:connector-curvature="0"
       style="fill:#000000;fill-rule:nonzero;stroke:none"
       d="m 208.21455,450.41443 -19.8425,-53.5375 0,-70.97587 26.575,0 0,66.61337 19.8425,53.15 0,66.61413 -26.575,0 0,-61.86412 z"
       id="path19" />
  </g>
</svg>
