<?xml version="1.0" encoding="UTF-8" standalone="no"?>
<!-- Generator: Adobe Illustrator 13.0.0, SVG Export Plug-In  -->

<svg
   xmlns:dc="http://purl.org/dc/elements/1.1/"
   xmlns:cc="http://creativecommons.org/ns#"
   xmlns:rdf="http://www.w3.org/1999/02/22-rdf-syntax-ns#"
   xmlns:svg="http://www.w3.org/2000/svg"
   xmlns="http://www.w3.org/2000/svg"
   xmlns:sodipodi="http://sodipodi.sourceforge.net/DTD/sodipodi-0.dtd"
   xmlns:inkscape="http://www.inkscape.org/namespaces/inkscape"
   version="1.1"
   x="0px"
   y="0px"
   width="124.99999"
   height="100.21874"
   viewBox="-0.451 -0.943 125 100.21873"
   enable-background="new -0.451 -0.943 370 828"
   xml:space="preserve"
   id="svg2"
   inkscape:version="0.48.2 r9819"
   sodipodi:docname="AJAX1.svg"><metadata
   id="metadata48"><rdf:RDF><cc:Work
       rdf:about=""><dc:format>image/svg+xml</dc:format><dc:type
         rdf:resource="http://purl.org/dc/dcmitype/StillImage" /><dc:title></dc:title></cc:Work></rdf:RDF></metadata><sodipodi:namedview
   pagecolor="#ffffff"
   bordercolor="#666666"
   borderopacity="1"
   objecttolerance="10"
   gridtolerance="10"
   guidetolerance="10"
   inkscape:pageopacity="0"
   inkscape:pageshadow="2"
   inkscape:window-width="1280"
   inkscape:window-height="1004"
   id="namedview46"
   showgrid="false"
   fit-margin-top="0"
   fit-margin-left="0"
   fit-margin-right="0"
   fit-margin-bottom="0"
   inkscape:zoom="3.2246802"
   inkscape:cx="57.116942"
   inkscape:cy="34.6041"
   inkscape:window-x="-8"
   inkscape:window-y="-8"
   inkscape:window-maximized="1"
   inkscape:current-layer="svg2" />
<defs
   id="defs4">
</defs>




















<path
   style="fill:#ffffff;stroke:#000000;stroke-width:1.00000012;stroke-linecap:butt;stroke-linejoin:miter;stroke-miterlimit:4;stroke-opacity:1;stroke-dasharray:none"
   d="m 40.8075,-0.43382614 0,53.15625114 -40.75,0 0,46.0625 124,0 0,-46.0625 -40.75,0 0,-53.15625114 -42.5,0 z"
   id="path11"
   inkscape:connector-curvature="0" /><path
   inkscape:connector-curvature="0"
   style="fill:#000000;fill-rule:nonzero;stroke:none"
   d="m 52.319576,17.453324 4.889,0 c 0,-1.20475 0.507751,-2.30337 1.524626,-3.29587 1.014375,-0.99238 2.102,-1.488 3.25925,-1.488 1.134,0 2.20825,0.50775 3.223875,1.52337 1.04,1.01563 1.547874,2.01913 1.524625,3.0115 -0.02437,1.46488 -0.61525,2.77588 -1.772375,3.93317 -0.354001,0.37837 -1.464875,1.22925 -3.331375,2.55125 -2.9285,2.07887 -5.255126,5.20875 -6.980001,9.39087 -1.511125,3.66088 -2.26675,7.251 -2.26675,10.77025 l 19.416501,0 0,-4.99512 -13.464375,0 c 0,-2.008 0.80325,-4.19313 2.409625,-6.55513 1.558875,-2.29125 3.649875,-4.42875 6.272,-6.41362 3.046875,-2.31563 4.57025,-5.04275 4.57025,-8.18479 0,-2.8345 -0.968,-5.20875 -2.90525,-7.12285 -1.914,-1.9128408 -4.20525,-2.8698608 -6.87375,-2.8698608 -2.6465,0 -4.890126,0.94481 -6.733376,2.8344608 -1.842125,1.88962 -2.7625,4.19312 -2.7625,6.91037 z"
   id="path15" /><path
   inkscape:connector-curvature="0"
   style="fill:#000000;fill-rule:nonzero;stroke:none"
   d="m 6.43336,62.447204 0,3.50838 4.730213,0 0,23.06637 3.90625,0 0,-23.06637 4.650913,0 0,-3.50838 -13.287376,0 z"
   id="path17" /><path
   inkscape:connector-curvature="0"
   style="fill:#000000;fill-rule:evenodd;stroke:none"
   d="m 35.345699,76.080084 c 1.170625,-0.4065 2.118,-1.26588 2.84425,-2.57688 0.6555,-1.20487 0.982625,-2.489 0.982625,-3.85375 0,-1.75425 -0.539499,-3.3655 -1.619875,-4.8365 -1.15225,-1.57712 -2.515875,-2.3645 -4.093,-2.36575 l -8.9025,0 0,26.57475 3.667,0 0,-12.33037 3.4545,0 3.535125,12.33037 3.95875,0 -3.826875,-12.94187 z m -2.470625,-3.21413 -4.650875,0 0,-6.61737 4.677625,0 c 1.594251,0 2.391376,1.08887 2.391376,3.26775 0,0.88625 -0.19525,1.63937 -0.584626,2.2595 -0.443125,0.72637 -1.0535,1.09012 -1.8335,1.09012 z"
   id="path19" /><path
   inkscape:connector-curvature="0"
   style="fill:#000000;fill-rule:evenodd;stroke:none"
   d="m 49.935575,77.967334 1.860376,-7.1485 1.887124,7.1485 -3.7475,0 z m -6.351375,11.05462 3.85375,0 1.779876,-7.38762 5.421124,0 1.914,7.38762 3.800127,0 -6.670002,-26.57475 -3.7475,0 -6.351375,26.57475 z"
   id="path21" /><path
   inkscape:connector-curvature="0"
   style="fill:#000000;fill-rule:nonzero;stroke:none"
   d="m 75.818077,81.954084 c 0,1.134 -0.29175,2.06425 -0.876375,2.7905 -0.58475,0.72637 -1.311126,1.08887 -2.179001,1.08887 -2.745375,0 -4.118625,-3.5425 -4.118625,-10.62987 0,-2.28513 0.202625,-4.20775 0.610375,-5.76663 0.6555,-2.48037 1.781,-3.72062 3.37525,-3.72062 0.85075,0 1.594251,0.33687 2.232626,1.01075 0.63725,0.67262 0.95575,1.39037 0.95575,2.152 l 3.695125,0 c 0,-2.07275 -0.647,-3.7475 -1.940875,-5.02313 -1.29275,-1.29275 -2.94075,-1.93975 -4.942626,-1.93975 -5.138,0 -7.706375,4.42875 -7.706375,13.28738 0,4.03937 0.389375,7.13987 1.1695,9.30175 1.221875,3.34837 3.42775,5.022 6.617375,5.022 2.036126,0 3.684126,-0.67263 4.942626,-2.019 1.257375,-1.36475 1.886,-3.21663 1.886,-5.55425 l -3.72075,0 z"
   id="path23" /><path
   inkscape:connector-curvature="0"
   style="fill:#000000;fill-rule:nonzero;stroke:none"
   d="m 84.029827,62.447204 0,26.57475 3.720625,0 0,-8.31662 2.551376,-4.4385 4.411626,12.75512 3.932999,0 -5.953374,-17.113 5.262499,-9.46175 -4.38475,0 -5.820376,10.55063 0,-10.55063 -3.720625,0 z"
   id="path25" /><path
   inkscape:connector-curvature="0"
   style="fill:#000000;fill-rule:nonzero;stroke:none"
   d="m 103.18995,81.290084 c 0,2.63912 0.72638,4.70337 2.179,6.19137 1.32925,1.36475 3.03825,2.04588 5.12938,2.04588 2.03737,0 3.739,-0.67263 5.1025,-2.019 1.41725,-1.41725 2.1265,-3.27763 2.1265,-5.58113 0,-4.46412 -2.5525,-7.95525 -7.65388,-10.47 -1.20475,-0.58587 -1.80775,-1.6125 -1.80775,-3.08337 0,-0.76175 0.33688,-1.42588 1.01063,-1.99225 0.62012,-0.53225 1.3025,-0.79713 2.046,-0.79713 0.6555,0 1.28412,0.34425 1.88712,1.03638 0.62013,0.67262 0.929,1.34525 0.929,2.019 l 3.66826,0 c 0,-1.91275 -0.62013,-3.50825 -1.86038,-4.78388 -1.222,-1.29275 -2.76375,-1.93975 -4.624,-1.93975 -1.78963,0 -3.357,0.61163 -4.70338,1.8335 -1.4185,1.25863 -2.1265,2.782 -2.1265,4.57163 0,1.1865 0.25638,2.312 0.77025,3.374 0.51388,1.04612 1.21338,1.88712 2.09963,2.52562 1.22312,0.74338 2.44512,1.488 3.66825,2.23138 1.29262,0.92162 2.16912,2.13512 2.63062,3.64137 0.194,0.63725 0.29175,1.24888 0.29175,1.8335 0,1.13413 -0.31862,2.08138 -0.95712,2.843 -0.62013,0.76175 -1.45263,1.13413 -2.4975,1.117 -1.25738,-0.0184 -2.16063,-0.39912 -2.71125,-1.14262 -0.531,-0.74463 -0.80563,-1.89575 -0.82275,-3.4545 l -3.77438,0 z"
   id="path27" /></svg>