<?xml version="1.0" encoding="UTF-8" standalone="no"?>
<!-- Created with Inkscape (http://www.inkscape.org/) -->

<svg
   xmlns:dc="http://purl.org/dc/elements/1.1/"
   xmlns:cc="http://creativecommons.org/ns#"
   xmlns:rdf="http://www.w3.org/1999/02/22-rdf-syntax-ns#"
   xmlns:svg="http://www.w3.org/2000/svg"
   xmlns="http://www.w3.org/2000/svg"
   xmlns:sodipodi="http://sodipodi.sourceforge.net/DTD/sodipodi-0.dtd"
   xmlns:inkscape="http://www.inkscape.org/namespaces/inkscape"
   width="360.62643"
   height="360.61267"
   id="svg3075"
   version="1.1"
   inkscape:version="0.48.2 r9819"
   sodipodi:docname="AJAX2.svg">
  <defs
     id="defs3077" />
  <sodipodi:namedview
     id="base"
     pagecolor="#ffffff"
     bordercolor="#666666"
     borderopacity="1.0"
     inkscape:pageopacity="0.0"
     inkscape:pageshadow="2"
     inkscape:zoom="1.435"
     inkscape:cx="259.72462"
     inkscape:cy="40.239212"
     inkscape:document-units="px"
     inkscape:current-layer="ANZ"
     showgrid="false"
     borderlayer="true"
     inkscape:window-width="1280"
     inkscape:window-height="1004"
     inkscape:window-x="-8"
     inkscape:window-y="-8"
     inkscape:window-maximized="1"
     fit-margin-top="0"
     fit-margin-left="0"
     fit-margin-right="0"
     fit-margin-bottom="0" />
  <metadata
     id="metadata3080">
    <rdf:RDF>
      <cc:Work
         rdf:about="">
        <dc:format>image/svg+xml</dc:format>
        <dc:type
           rdf:resource="http://purl.org/dc/dcmitype/StillImage" />
        <dc:title></dc:title>
      </cc:Work>
    </rdf:RDF>
  </metadata>
  <g
     inkscape:label="ANZ"
     inkscape:groupmode="layer"
     id="ANZ"
     transform="translate(-8.2495633,-732.25786)">
    <path
       inkscape:connector-curvature="0"
       style="fill:#ffdb00;fill-rule:nonzero;stroke:none"
       d="m 13.625188,899.58742 c -7.1674996,7.1675 -7.1674996,18.78625 0,25.95375 L 175.58894,1087.4949 c 7.1675,7.1675 18.7875,7.1675 25.955,0 l 161.957,-161.95373 c 7.16675,-7.1675 7.16675,-18.78625 0,-25.95375 L 201.53769,737.63292 c -7.16875,-7.16675 -18.78875,-7.16675 -25.95625,0 L 13.625188,899.58742 z"
       id="path11" />
    <path
       inkscape:connector-curvature="0"
       style="fill:#000000;fill-rule:nonzero;stroke:none"
       d="m 360.69211,922.09833 c 5.11963,-5.12 5.11963,-13.42 0,-18.54 L 197.83424,740.70421 c -5.12,-5.11963 -13.42125,-5.11963 -18.54,0 L 16.432988,903.55833 c -5.12,5.12 -5.12125,13.42 0,18.54 L 179.29049,1084.9521 c 5.11875,5.12 13.42,5.12 18.54,0 L 360.69211,922.09833 z"
       id="path13" />
    <path
       inkscape:connector-curvature="0"
       style="fill:#ffdb00;fill-rule:nonzero;stroke:none"
       d="m 355.93134,917.13583 c 2.49148,-2.49 2.49148,-6.52875 0,-9.02 L 193.07532,745.26233 c -2.49125,-2.49025 -6.53,-2.49025 -9.02125,0 L 21.194068,908.11583 c -2.49125,2.49125 -2.49125,6.53 0,9.02 L 184.05032,1079.9896 c 2.49125,2.4912 6.53,2.4912 9.02125,0 L 355.93134,917.13583 z"
       id="path15" />
    <path
       inkscape:connector-curvature="0"
       style="fill:#000000;fill-rule:nonzero;stroke:none"
       d="m 166.23859,871.96333 16.77625,6.545 c 3.615,1.4975 7.76,-0.22 9.25625,-3.835 0.94125,-2.27125 0.61875,-4.745 -0.6525,-6.6475 l -43.09625,-66.92738 -43.09475,66.92738 c -1.27,1.9025 -1.59375,4.37625 -0.65375,6.6475 1.4975,3.615 5.6425,5.3325 9.2575,3.83499 l 16.77625,-6.54499 0,22.32124 c 0,27.00501 23.141,48.89763 50.14725,48.89763 l 0.4925,-0.002 0.49375,0.002 c 10.4,0 20.04125,-3.4325 27.96625,-9.195 0.54,-0.57625 1.13,-1.1075 1.7625,-1.58125 0.4475,-0.33625 0.915,-0.645 1.405,-0.92375 1.96625,-1.12375 4.2425,-1.76375 6.66875,-1.76375 7.43625,0 13.465,6.0275 13.465,13.46375 l 0,44.29125 7.2825,0 28.15025,0 0,-44.29125 c 0,-27.00512 -21.89212,-48.89763 -48.89775,-48.89763 -2.75,0 -5.44625,0.22751 -8.07375,0.66251 -8.69125,1.445 -16.60625,5.18124 -23.10625,10.5675 -2.16625,1.365 -4.785,2.23375 -7.60875,2.23375 -7.43625,0 -14.71625,-6.0275 -14.71625,-13.46376 l 0,-22.32124 z"
       id="path17" />
  </g>
</svg>
