<?xml version="1.0" encoding="UTF-8" standalone="no"?>
<!-- Generator: Adobe Illustrator 13.0.1, SVG Export Plug-In . SVG Version: 6.00 Build 14948)  -->

<svg
   xmlns:dc="http://purl.org/dc/elements/1.1/"
   xmlns:cc="http://creativecommons.org/ns#"
   xmlns:rdf="http://www.w3.org/1999/02/22-rdf-syntax-ns#"
   xmlns:svg="http://www.w3.org/2000/svg"
   xmlns="http://www.w3.org/2000/svg"
   xmlns:sodipodi="http://sodipodi.sourceforge.net/DTD/sodipodi-0.dtd"
   xmlns:inkscape="http://www.inkscape.org/namespaces/inkscape"
   version="1.1"
   id="Layer_1"
   x="0px"
   y="0px"
   width="141.7325"
   height="709.40625"
   viewBox="0 0 141.7325 709.40624"
   enable-background="new 0 0 300 250"
   xml:space="preserve"
   inkscape:version="0.48.2 r9819"
   sodipodi:docname="AJAX2.svg"><metadata
   id="metadata94"><rdf:RDF><cc:Work
       rdf:about=""><dc:format>image/svg+xml</dc:format><dc:type
         rdf:resource="http://purl.org/dc/dcmitype/StillImage" /><dc:title></dc:title></cc:Work></rdf:RDF></metadata><defs
   id="defs92" /><sodipodi:namedview
   pagecolor="#ffffff"
   bordercolor="#666666"
   borderopacity="1"
   objecttolerance="10"
   gridtolerance="10"
   guidetolerance="10"
   inkscape:pageopacity="0"
   inkscape:pageshadow="2"
   inkscape:window-width="1280"
   inkscape:window-height="1004"
   id="namedview90"
   showgrid="false"
   fit-margin-top="0"
   fit-margin-left="0"
   fit-margin-right="0"
   fit-margin-bottom="0"
   inkscape:zoom="0.944"
   inkscape:cx="182.89606"
   inkscape:cy="294.28891"
   inkscape:window-x="-8"
   inkscape:window-y="-8"
   inkscape:window-maximized="1"
   inkscape:current-layer="Layer_1" />















<path
   inkscape:connector-curvature="0"
   style="fill:#ffffff;fill-rule:nonzero;stroke:#000000;stroke-width:1.5;stroke-miterlimit:4;stroke-opacity:1;stroke-dasharray:none"
   d="m 57.579381,248.03041 26.574625,0 0,106.30125 -26.574625,0 0,-106.30125 z"
   id="path11" /><path
   inkscape:connector-curvature="0"
   style="fill:#ffffff;fill-rule:nonzero;stroke:#000000;stroke-width:1.5;stroke-miterlimit:4;stroke-opacity:1;stroke-dasharray:none"
   d="m 57.579381,460.63041 26.574625,0 0,106.29875 -26.574625,0 0,-106.29875 z"
   id="path13" /><path
   inkscape:connector-curvature="0"
   style="fill:#ffffff;fill-rule:nonzero;stroke:#000000;stroke-width:1.5;stroke-miterlimit:4;stroke-opacity:1;stroke-dasharray:none"
   d="m 57.579381,673.22791 26.574625,0 0,35.4325 -26.574625,0 0,-35.4325 z"
   id="path15" /><path
   inkscape:connector-curvature="0"
   style="fill:#161413;fill-rule:nonzero;stroke:#000000;stroke-width:1.5;stroke-miterlimit:4;stroke-opacity:1;stroke-dasharray:none"
   d="m 84.154006,140.48791 0,107.5425 -26.574625,0 0,-107.5425 c 4.304125,0.8175 8.74625,1.24375 13.287375,1.24375 4.541,0 8.983125,-0.42625 13.28725,-1.24375 z"
   id="path17" /><path
   inkscape:connector-curvature="0"
   style="fill:#161413;fill-rule:nonzero;stroke:#000000;stroke-width:1.5;stroke-miterlimit:4;stroke-opacity:1;stroke-dasharray:none"
   d="m 57.579381,354.33041 26.574625,0 0,106.3 -26.574625,0 0,-106.3 z"
   id="path21" /><path
   inkscape:connector-curvature="0"
   style="fill:#161413;fill-rule:nonzero;stroke:#000000;stroke-width:1.5;stroke-miterlimit:4;stroke-opacity:1;stroke-dasharray:none"
   d="m 57.579381,566.92916 26.574625,0 0,106.29875 -26.574625,0 0,-106.29875 z"
   id="path23" /><path
   inkscape:connector-curvature="0"
   style="fill:#ef7c23;fill-rule:nonzero;stroke:none"
   d="M 0,70.865371 C 0,31.727241 31.72725,-9.5824411e-6 70.86675,-9.5824411e-6 110.00487,-9.5824411e-6 141.7325,31.727241 141.7325,70.865371 c 0,39.139489 -31.72763,70.865869 -70.86575,70.865869 C 31.72725,141.73124 0,110.00486 0,70.865371 z"
   id="path19" /></svg>