<?xml version="1.0" encoding="UTF-8" standalone="no"?>
<!-- Created with Inkscape (http://www.inkscape.org/) -->

<svg
   xmlns:dc="http://purl.org/dc/elements/1.1/"
   xmlns:cc="http://creativecommons.org/ns#"
   xmlns:rdf="http://www.w3.org/1999/02/22-rdf-syntax-ns#"
   xmlns:svg="http://www.w3.org/2000/svg"
   xmlns="http://www.w3.org/2000/svg"
   xmlns:sodipodi="http://sodipodi.sourceforge.net/DTD/sodipodi-0.dtd"
   xmlns:inkscape="http://www.inkscape.org/namespaces/inkscape"
   id="svg17624"
   version="1.1"
   inkscape:version="0.48.2 r9819"
   width="360.62863"
   height="360.6124"
   xml:space="preserve"
   sodipodi:docname="AA5.svg"><metadata
     id="metadata17630"><rdf:RDF><cc:Work
         rdf:about=""><dc:format>image/svg+xml</dc:format><dc:type
           rdf:resource="http://purl.org/dc/dcmitype/StillImage" /><dc:title></dc:title></cc:Work></rdf:RDF></metadata><defs
     id="defs17628"><inkscape:perspective
       sodipodi:type="inkscape:persp3d"
       inkscape:vp_x="0 : 0.5 : 1"
       inkscape:vp_y="0 : 1000 : 0"
       inkscape:vp_z="1 : 0.5 : 1"
       inkscape:persp3d-origin="0.5 : 0.33333333 : 1"
       id="perspective17632" /><clipPath
       clipPathUnits="userSpaceOnUse"
       id="clipPath17642"><path
         d="m -2,710 501,0 0,-711 -501,0 0,711 z"
         id="path17644"
         inkscape:connector-curvature="0" /></clipPath><clipPath
       clipPathUnits="userSpaceOnUse"
       id="clipPath17648"><path
         d="m 0,708.06 498,0 0,-708 -498,0 0,708 z"
         id="path17650"
         inkscape:connector-curvature="0" /></clipPath><clipPath
       clipPathUnits="userSpaceOnUse"
       id="clipPath17798"><path
         d="m -2,710 501,0 0,-711 -501,0 0,711 z"
         id="path17800"
         inkscape:connector-curvature="0" /></clipPath><clipPath
       clipPathUnits="userSpaceOnUse"
       id="clipPath17804"><path
         d="m 0,708.06 498,0 0,-708 -498,0 0,708 z"
         id="path17806"
         inkscape:connector-curvature="0" /></clipPath><clipPath
       id="Clip0"><path
         inkscape:connector-curvature="0"
         d="m 0,0 212.597,0 0,269.292 L 0,269.292 0,0 z"
         transform="translate(0.923828,0.879883)"
         id="path7" /></clipPath><clipPath
       id="Clip0-8"><path
         inkscape:connector-curvature="0"
         d="m 0,0 170.079,0 0,113.386 L 0,113.386 0,0 z"
         transform="translate(0.0986328,0.822266)"
         id="path7-8" /></clipPath><clipPath
       id="Clip0-1"><path
         inkscape:connector-curvature="0"
         d="m 0,0 287.009,0 0,159.449 L 0,159.449 0,0 z"
         transform="translate(0.396484,0.267578)"
         id="path7-7" /></clipPath><clipPath
       id="Clip0-9"><path
         inkscape:connector-curvature="0"
         d="m 0,0 170.079,0 0,170.079 L 0,170.079 0,0 z"
         transform="translate(0.460938,0.775391)"
         id="path7-4" /></clipPath><clipPath
       id="Clip0-4"><path
         inkscape:connector-curvature="0"
         d="m 0,0 340.157,0 0,226.771 L 0,226.771 0,0 z"
         transform="translate(0.921875,0.25293)"
         id="path7-5" /></clipPath><clipPath
       id="Clip0-5"><path
         inkscape:connector-curvature="0"
         d="m 0,0 255.119,0 0,170.079 L 0,170.079 0,0 z"
         transform="translate(0.147461,0.0595703)"
         id="path7-1" /></clipPath><clipPath
       id="Clip0-0"><path
         inkscape:connector-curvature="0"
         d="m 0,0 170.079,0 0,113.386 L 0,113.386 0,0 z"
         transform="translate(0.0673828,0.207031)"
         id="path7-9" /></clipPath></defs><sodipodi:namedview
     pagecolor="#ffffff"
     bordercolor="#666666"
     borderopacity="1"
     objecttolerance="10"
     gridtolerance="10"
     guidetolerance="10"
     inkscape:pageopacity="0"
     inkscape:pageshadow="2"
     inkscape:window-width="1280"
     inkscape:window-height="1004"
     id="namedview17626"
     showgrid="false"
     inkscape:zoom="1.4142136"
     inkscape:cx="93.950652"
     inkscape:cy="137.61202"
     inkscape:window-x="-8"
     inkscape:window-y="-8"
     inkscape:window-maximized="1"
     inkscape:current-layer="g17634"
     fit-margin-top="0"
     fit-margin-left="0"
     fit-margin-right="0"
     fit-margin-bottom="0"
     showguides="true"
     inkscape:guide-bbox="true" /><g
     id="g17634"
     inkscape:groupmode="layer"
     inkscape:label="GG1999P002"
     transform="matrix(1.25,0,0,-1.25,2889.1108,-1114.5256)"><path
       inkscape:connector-curvature="0"
       style="fill:#ffdb00;fill-rule:nonzero;stroke:none"
       d="m -2027.087,-1025.4839 c 5.735,-5.734 5.735,-15.029 0,-20.763 l -129.571,-129.563 c -5.734,-5.734 -15.03,-5.734 -20.764,0 l -129.5666,129.563 c -5.7334,5.734 -5.7334,15.029 0,20.763 l 129.5716,129.56262 c 5.733,5.73438 15.03,5.73438 20.764,0 l 129.565,-129.56262 z"
       id="path11" /><path
       inkscape:connector-curvature="0"
       style="fill:#000000;fill-rule:nonzero;stroke:none"
       d="m -2304.7407,-1043.4926 c -4.0967,4.095 -4.0967,10.736 0,14.832 l 130.2863,130.28327 c 4.096,4.0957 10.737,4.0957 14.833,0 l 130.289,-130.28327 c 4.096,-4.096 4.096,-10.737 0,-14.832 l -130.286,-130.284 c -4.096,-4.095 -10.736,-4.095 -14.833,0 l -130.2883,130.284 z"
       id="path13" /><path
       inkscape:connector-curvature="0"
       style="fill:#ffdb00;fill-rule:nonzero;stroke:none"
       d="m -2300.933,-1039.5237 c -1.9922,1.992 -1.9922,5.223 0,7.215 l 130.2868,130.28395 c 1.992,1.99312 5.223,1.99312 7.215,0 l 130.289,-130.28395 c 1.993,-1.992 1.993,-5.223 0,-7.215 l -130.286,-130.283 c -1.992,-1.993 -5.223,-1.993 -7.215,0 l -130.2898,130.283 z"
       id="path15" /><path
       inkscape:connector-curvature="0"
       style="fill:#c0111e;fill-opacity:1;fill-rule:nonzero;stroke:none"
       d="m -2246.8324,-1035.4151 c 0,44.06995 35.725,79.79555 79.795,79.79555 44.071,0 79.796,-35.7256 79.796,-79.79555 0,-44.0714 -35.725,-79.7964 -79.796,-79.7964 -44.07,0 -79.795,35.725 -79.795,79.7964 z"
       id="path17-0" /><path
       inkscape:connector-curvature="0"
       style="fill:#ffffff;fill-rule:nonzero;stroke:none"
       d="m -2220.2347,-1035.4151 c 0,-29.381 23.8173,-53.198 53.1973,-53.198 29.381,0 53.1967,23.817 53.1967,53.198 0,29.38 -23.8157,53.19695 -53.1967,53.19695 -29.38,0 -53.1973,-23.81695 -53.1973,-53.19695 z"
       id="path19" /><path
       inkscape:connector-curvature="0"
       style="fill:#000000;fill-rule:evenodd;stroke:none"
       d="m -2188.3144,-1008.6681 c -6.81,-4.754 -11.971,-11.049 -15.482,-18.888 -2.909,-6.42 -4.363,-12.964 -4.363,-19.633 0,-4.219 1.986,-7.925 5.959,-11.119 3.795,-3.05 8.016,-4.574 12.662,-4.574 3.653,0 7.218,1.364 10.694,4.097 4.115,3.191 6.171,7.146 6.171,11.863 0,4.788 -1.808,8.832 -5.427,12.13 -3.475,3.122 -7.537,4.681 -12.182,4.681 -2.023,0 -3.938,-0.336 -5.746,-1.01 0.637,2.518 2.446,5.498 5.426,8.938 2.27,2.625 4.593,4.86 6.97,6.704 l -4.682,6.811 z m -2.181,-45.809 c -2.306,0 -4.416,0.745 -6.331,2.236 -1.916,1.489 -2.873,3.226 -2.873,5.212 0,2.128 0.85,4.062 2.554,5.799 1.737,1.775 3.9,2.66 6.49,2.66 2.66,0 4.983,-0.885 6.97,-2.66 1.986,-1.737 2.979,-3.671 2.979,-5.799 0,-2.021 -1.047,-3.777 -3.139,-5.266 -2.092,-1.454 -4.31,-2.182 -6.65,-2.182 z"
       id="path21" /><path
       inkscape:connector-curvature="0"
       style="fill:#000000;fill-rule:evenodd;stroke:none"
       d="m -2144.5294,-1062.8821 c 12.415,0 18.622,9.203 18.622,27.612 0,18.444 -6.207,27.665 -18.622,27.665 -12.414,0 -18.62,-9.221 -18.62,-27.665 0,-18.409 6.206,-27.612 18.62,-27.612 z m 0,8.139 c -6.916,0 -10.374,6.492 -10.374,19.473 0,12.981 3.458,19.472 10.374,19.472 6.882,0 10.322,-6.491 10.322,-19.472 0,-12.981 -3.44,-19.473 -10.322,-19.473 z"
       id="path23" /></g></svg>