<?xml version="1.0" encoding="UTF-8" standalone="no"?>
<!-- Generator: Adobe Illustrator 13.0.0, SVG Export Plug-In  -->

<svg
   xmlns:dc="http://purl.org/dc/elements/1.1/"
   xmlns:cc="http://creativecommons.org/ns#"
   xmlns:rdf="http://www.w3.org/1999/02/22-rdf-syntax-ns#"
   xmlns:svg="http://www.w3.org/2000/svg"
   xmlns="http://www.w3.org/2000/svg"
   xmlns:sodipodi="http://sodipodi.sourceforge.net/DTD/sodipodi-0.dtd"
   xmlns:inkscape="http://www.inkscape.org/namespaces/inkscape"
   version="1.1"
   x="0px"
   y="0px"
   width="125.03124"
   height="100.18749"
   viewBox="-0.451 -0.943 125.03125 100.18748"
   enable-background="new -0.451 -0.943 370 828"
   xml:space="preserve"
   id="svg2"
   inkscape:version="0.48.2 r9819"
   sodipodi:docname="New Zealand PW-15 (2).svg"><metadata
   id="metadata48"><rdf:RDF><cc:Work
       rdf:about=""><dc:format>image/svg+xml</dc:format><dc:type
         rdf:resource="http://purl.org/dc/dcmitype/StillImage" /><dc:title></dc:title></cc:Work></rdf:RDF></metadata><sodipodi:namedview
   pagecolor="#ffffff"
   bordercolor="#666666"
   borderopacity="1"
   objecttolerance="10"
   gridtolerance="10"
   guidetolerance="10"
   inkscape:pageopacity="0"
   inkscape:pageshadow="2"
   inkscape:window-width="1280"
   inkscape:window-height="1004"
   id="namedview46"
   showgrid="false"
   fit-margin-top="0"
   fit-margin-left="0"
   fit-margin-right="0"
   fit-margin-bottom="0"
   inkscape:zoom="3.2246802"
   inkscape:cx="57.680414"
   inkscape:cy="53.504496"
   inkscape:window-x="-8"
   inkscape:window-y="-8"
   inkscape:window-maximized="1"
   inkscape:current-layer="svg2" />
<defs
   id="defs4">
</defs>




















<path
   inkscape:connector-curvature="0"
   style="fill:#ffffff;stroke:#000000;stroke-width:1.00000012;stroke-linecap:butt;stroke-linejoin:miter;stroke-miterlimit:4;stroke-opacity:1;stroke-dasharray:none"
   d="m 40.7907,-0.4582607 0,53.1562547 -40.75001,0 0,46.031253 124.03126,0 0,-46.031253 -40.750001,0 0,-53.1562547 -42.531249,0 z"
   id="path11-1" /><path
   inkscape:connector-curvature="0"
   style="fill:#000000;fill-rule:nonzero;stroke:none"
   d="m 52.30945,34.682118 c 0,2.952875 0.98025,5.350375 2.94075,7.193625 1.88962,1.748 4.2395,2.620876 7.05075,2.620876 2.76362,0 5.05487,-1.062001 6.87375,-3.188501 1.74812,-2.03125 2.62212,-4.51175 2.62212,-7.44025 0,-1.914 -0.38937,-3.732875 -1.1695,-5.45775 -0.82637,-1.842001 -1.87737,-3.011501 -3.153,-3.507001 2.24363,-1.8665 3.36663,-4.759625 3.36663,-8.681625 0,-2.243751 -0.89838,-4.228626 -2.694,-5.952215 -1.77125,-1.7248495 -3.7195,-2.5866625 -5.846,-2.5866625 -2.14963,0 -4.08688,0.6726 -5.8105,2.019038 C 54.48232,11.23724 53.4777,13.233116 53.4777,15.690367 l 4.71312,0.601875 c 0,-0.874 0.44925,-1.68825 1.3465,-2.445126 0.89713,-0.755625 1.76025,-1.13275 2.58663,-1.13275 0.874,0 1.7005,0.354 2.47925,1.062 0.85087,0.780001 1.27687,1.701626 1.27687,2.764876 0,1.34525 -0.343,2.633125 -1.02787,3.861125 -0.75563,1.32325 -1.62963,1.984875 -2.622,1.984875 l -2.09113,0 0,4.99625 3.01275,0 c 1.488,0 2.52688,0.849626 3.11763,2.550126 0.30762,0.946 0.49562,2.351 0.56637,4.2175 0.0476,1.488 -0.38937,2.7515 -1.311,3.7915 -0.92162,1.038875 -2.019,1.558875 -3.29462,1.558875 -3.2605,0 -4.89013,-1.6065 -4.89013,-4.819375 l -5.03062,0 z"
   id="path15-7" /><path
   inkscape:connector-curvature="0"
   style="fill:#000000;fill-rule:nonzero;stroke:none"
   d="m 6.42326,62.42137 0,3.508375 4.73022,0 0,23.066376 3.90622,0 0,-23.066376 4.65081,0 0,-3.508375 -13.28725,0 z"
   id="path17-4" /><path
   inkscape:connector-curvature="0"
   style="fill:#000000;fill-rule:evenodd;stroke:none"
   d="m 35.33557,76.054245 c 1.1695,-0.40775 2.118,-1.267125 2.84425,-2.578125 0.6555,-1.203625 0.98275,-2.489 0.98275,-3.852625 0,-1.754125 -0.53962,-3.366625 -1.62112,-4.836375 -1.15113,-1.577125 -2.51463,-2.36575 -4.09188,-2.36575 l -8.9025,0 0,26.574751 3.667,0 0,-12.330376 3.4545,0 3.534,12.330376 3.96,0 -3.827,-12.941876 z m -2.47062,-3.215375 -4.65088,0 0,-6.617375 4.67775,0 c 1.59425,0 2.39125,1.09 2.39125,3.269 0,0.88625 -0.19525,1.638125 -0.58462,2.25825 -0.44313,0.726375 -1.0535,1.090125 -1.8335,1.090125 z"
   id="path19-0" /><path
   inkscape:connector-curvature="0"
   style="fill:#000000;fill-rule:evenodd;stroke:none"
   d="m 49.92545,77.941371 1.86037,-7.149626 1.886,7.149626 -3.74637,0 z m -6.35125,11.05475 3.8525,0 1.781,-7.38775 5.42112,0 1.91413,7.38775 3.8,0 -6.67113,-26.574751 -3.74637,0 -6.35125,26.574751 z"
   id="path21-9" /><path
   inkscape:connector-curvature="0"
   style="fill:#000000;fill-rule:nonzero;stroke:none"
   d="m 75.80807,81.926996 c 0,1.134 -0.29175,2.06425 -0.8765,2.7905 -0.58475,0.726375 -1.311,1.090125 -2.179,1.090125 -2.7465,0 -4.11862,-3.54375 -4.11862,-10.629876 0,-2.285125 0.20262,-4.20775 0.61037,-5.767875 0.6555,-2.47925 1.781,-3.7195 3.37525,-3.7195 0.85088,0 1.59425,0.337 2.23263,1.009625 0.63725,0.67375 0.95587,1.3915 0.95587,2.152 l 3.695004,0 c 0,-2.07275 -0.647,-3.74625 -1.940875,-5.021875 -1.292749,-1.294 -2.940749,-1.93975 -4.942629,-1.93975 -5.138,0 -7.70637,4.42875 -7.70637,13.287375 0,4.039251 0.3895,7.139876 1.1695,9.300501 1.22187,3.348375 3.42775,5.022 6.61737,5.022 2.03613,0 3.68413,-0.672625 4.942629,-2.019 1.257375,-1.363625 1.886,-3.215375 1.886,-5.55425 l -3.720629,0 z"
   id="path23-4" /><path
   inkscape:connector-curvature="0"
   style="fill:#000000;fill-rule:nonzero;stroke:none"
   d="m 84.019699,62.42137 0,26.574751 3.72075,0 0,-8.317875 2.551251,-4.438501 4.411625,12.756376 3.933125,0 -5.953374,-17.114251 5.262374,-9.4605 -4.384749,0 -5.820252,10.5505 0,-10.5505 -3.72075,0 z"
   id="path25-8" /><path
   inkscape:connector-curvature="0"
   style="fill:#000000;fill-rule:nonzero;stroke:none"
   d="m 103.17983,81.262996 c 0,2.639125 0.72638,4.70325 2.179,6.191375 1.32937,1.36475 3.03838,2.045875 5.12937,2.045875 2.03738,0 3.73775,-0.672625 5.10251,-2.019 1.41724,-1.41725 2.12649,-3.277625 2.12649,-5.581125 0,-4.464125 -2.5525,-7.954126 -7.65375,-10.470001 -1.20487,-0.584625 -1.80787,-1.6125 -1.80787,-3.08225 0,-0.76175 0.33688,-1.427 1.0095,-1.993375 0.62012,-0.531 1.3025,-0.797125 2.04712,-0.797125 0.6555,0 1.28413,0.3455 1.88726,1.036375 0.61999,0.672625 0.92887,1.3465 0.92887,2.019 l 3.66825,0 c 0,-1.91275 -0.62013,-3.507 -1.86038,-4.782625 -1.22312,-1.294 -2.76362,-1.93975 -4.624,-1.93975 -1.78962,0 -3.357,0.610375 -4.70337,1.8335 -1.4185,1.257375 -2.1265,2.78075 -2.1265,4.570375 0,1.187625 0.25637,2.312 0.77025,3.375125 0.514,1.045 1.21337,1.88725 2.09962,2.5245 1.22313,0.744625 2.44513,1.488 3.66825,2.232625 1.29275,0.921626 2.16913,2.135001 2.63063,3.640126 0.19412,0.6385 0.29175,1.25 0.29175,1.8335 0,1.134 -0.31863,2.0825 -0.957,2.84425 -0.62013,0.76175 -1.45275,1.134 -2.49763,1.11575 -1.25737,-0.01713 -2.16187,-0.398 -2.71112,-1.142625 -0.531,-0.744625 -0.80575,-1.89575 -0.82275,-3.4545 l -3.7745,0 z"
   id="path27-8" /></svg>