<?xml version="1.0" encoding="UTF-8" standalone="no"?>
<!-- Created with Inkscape (http://www.inkscape.org/) -->

<svg
   xmlns:dc="http://purl.org/dc/elements/1.1/"
   xmlns:cc="http://creativecommons.org/ns#"
   xmlns:rdf="http://www.w3.org/1999/02/22-rdf-syntax-ns#"
   xmlns:svg="http://www.w3.org/2000/svg"
   xmlns="http://www.w3.org/2000/svg"
   xmlns:sodipodi="http://sodipodi.sourceforge.net/DTD/sodipodi-0.dtd"
   xmlns:inkscape="http://www.inkscape.org/namespaces/inkscape"
   width="360.62753"
   height="360.61237"
   id="svg2"
   sodipodi:version="0.32"
   inkscape:version="0.48.2 r9819"
   version="1.0"
   sodipodi:docname="AJAX.svg"
   inkscape:output_extension="org.inkscape.output.svg.inkscape">
  <defs
     id="defs4">
    <inkscape:perspective
       sodipodi:type="inkscape:persp3d"
       inkscape:vp_x="0 : 300.5 : 1"
       inkscape:vp_y="0 : 1000 : 0"
       inkscape:vp_z="601 : 300.5 : 1"
       inkscape:persp3d-origin="300.5 : 200.33333 : 1"
       id="perspective3380" />
    <inkscape:perspective
       id="perspective3990"
       inkscape:persp3d-origin="375 : 250 : 1"
       inkscape:vp_z="750 : 375 : 1"
       inkscape:vp_y="0 : 1000 : 0"
       inkscape:vp_x="0 : 375 : 1"
       sodipodi:type="inkscape:persp3d" />
  </defs>
  <sodipodi:namedview
     id="base"
     pagecolor="#ffffff"
     bordercolor="#666666"
     borderopacity="1.0"
     gridtolerance="10000"
     guidetolerance="10"
     objecttolerance="10"
     inkscape:pageopacity="0.0"
     inkscape:pageshadow="2"
     inkscape:zoom="1.4891042"
     inkscape:cx="214.27806"
     inkscape:cy="180.87228"
     inkscape:document-units="px"
     inkscape:current-layer="layer1"
     width="601px"
     height="601px"
     inkscape:window-width="1280"
     inkscape:window-height="1004"
     inkscape:window-x="-8"
     inkscape:window-y="-8"
     showgrid="false"
     fit-margin-top="0"
     fit-margin-left="0"
     fit-margin-right="0"
     fit-margin-bottom="0"
     inkscape:window-maximized="1"
     showguides="true"
     inkscape:guide-bbox="true" />
  <metadata
     id="metadata7">
    <rdf:RDF>
      <cc:Work
         rdf:about="">
        <dc:format>image/svg+xml</dc:format>
        <dc:type
           rdf:resource="http://purl.org/dc/dcmitype/StillImage" />
        <dc:title></dc:title>
      </cc:Work>
    </rdf:RDF>
  </metadata>
  <g
     inkscape:label="Layer 1"
     inkscape:groupmode="layer"
     id="layer1"
     transform="translate(-2.2520403,648.50029)">
    <rect
       style="color:#000000;fill:#000000;fill-opacity:1;fill-rule:nonzero;stroke:none;stroke-width:0.8735441;marker:none;visibility:visible;display:inline;overflow:visible"
       id="rect3653"
       width="0"
       height="27.202072"
       x="578.73834"
       y="298.1684"
       rx="249.48199"
       ry="27.202072" />
    <path
       inkscape:connector-curvature="0"
       style="fill:#ffdb00;fill-rule:nonzero;stroke:none"
       d="m 357.50395,-481.17198 c 7.1675,7.16875 7.1675,18.7875 0,25.955 l -161.96499,161.9525 c -7.1675,7.16875 -18.7875,7.16875 -25.95375,0 L 7.6269516,-455.21698 c -7.16675004,-7.1675 -7.16675004,-18.78625 0.00121,-25.955 L 169.59145,-643.12523 c 7.1675,-7.16675 18.78875,-7.16675 25.955,0 l 161.9575,161.95325 z"
       id="path11" />
    <path
       inkscape:connector-curvature="0"
       style="fill:#000000;fill-rule:nonzero;stroke:none"
       d="m 10.43579,-458.65978 c -5.1196375,-5.12125 -5.1196375,-13.42 0,-18.54125 l 162.85661,-162.8529 c 5.12,-5.12085 13.42126,-5.12085 18.54125,0 l 162.86,162.8529 c 5.12125,5.12125 5.12125,13.42 0.001,18.54125 l -162.8575,162.8525 c -5.11875,5.12125 -13.42125,5.12125 -18.54125,0 L 10.43579,-458.65978 z"
       id="path13" />
    <path
       inkscape:connector-curvature="0"
       style="fill:#ffdb00;fill-rule:nonzero;stroke:none"
       d="m 14.79734,-463.5149 c -2.491437,-2.49 -2.491437,-6.5275 0,-9.02 l 162.85731,-162.85232 c 2.49125,-2.49143 6.52875,-2.49143 9.02,0 L 349.5359,-472.5349 c 2.49125,2.4925 2.49125,6.53 0,9.02 l -162.85875,162.85375 c -2.49,2.4925 -6.5275,2.4925 -9.01875,0 L 14.79734,-463.5149 z"
       id="path15" />
    <path
       style="fill:#000000;fill-rule:evenodd;stroke:none"
       d="m 123.41797,-525.8911 c -14.40977,0.56053 -26.596216,9.75344 -31.593755,22.53125 l -0.125,0.25 -0.09375,0.25 c -4.046625,9.66375 -13.5225,16.375 -24.5625,16.375 l -8.5,0 0,35.4375 248.031245,0 0,-35.4375 -8.5,0 c -11.04124,0 -20.51499,-6.71125 -24.5625,-16.375 l -0.0937,-0.25 -0.0937,-0.25 c -5.16,-13.19 -17.98,-22.53125 -33,-22.53125 -15.2375,0 -28.24875,9.595 -33.25,23.09375 -4.01625,9.58125 -13.46187,16.3125 -24.5,16.3125 -11.04,0 -20.51625,-6.73125 -24.53125,-16.3125 -5.00375,-13.49875 -17.97913,-23.09375 -33.21875,-23.09375 -0.46929,0 -0.94142,-0.0181 -1.40625,0 z"
       id="path17"
       inkscape:connector-curvature="0"
       sodipodi:nodetypes="scccsccccscccscscss" />
  </g>
</svg>
