<?xml version="1.0" encoding="UTF-8" standalone="no"?>
<!-- Created with Inkscape (http://www.inkscape.org/) -->

<svg
   xmlns:dc="http://purl.org/dc/elements/1.1/"
   xmlns:cc="http://creativecommons.org/ns#"
   xmlns:rdf="http://www.w3.org/1999/02/22-rdf-syntax-ns#"
   xmlns:svg="http://www.w3.org/2000/svg"
   xmlns="http://www.w3.org/2000/svg"
   xmlns:sodipodi="http://sodipodi.sourceforge.net/DTD/sodipodi-0.dtd"
   xmlns:inkscape="http://www.inkscape.org/namespaces/inkscape"
   width="212.5975"
   height="141.7325"
   id="svg2"
   sodipodi:version="0.32"
   inkscape:version="0.48.2 r9819"
   version="1.0"
   sodipodi:docname="AJAX5.svg"
   inkscape:output_extension="org.inkscape.output.svg.inkscape">
  <defs
     id="defs4">
    <inkscape:perspective
       sodipodi:type="inkscape:persp3d"
       inkscape:vp_x="0 : 300.5 : 1"
       inkscape:vp_y="0 : 1000 : 0"
       inkscape:vp_z="601 : 300.5 : 1"
       inkscape:persp3d-origin="300.5 : 200.33333 : 1"
       id="perspective3380" />
    <inkscape:perspective
       id="perspective3990"
       inkscape:persp3d-origin="375 : 250 : 1"
       inkscape:vp_z="750 : 375 : 1"
       inkscape:vp_y="0 : 1000 : 0"
       inkscape:vp_x="0 : 375 : 1"
       sodipodi:type="inkscape:persp3d" />
  </defs>
  <sodipodi:namedview
     id="base"
     pagecolor="#ffffff"
     bordercolor="#666666"
     borderopacity="1.0"
     gridtolerance="10000"
     guidetolerance="10"
     objecttolerance="10"
     inkscape:pageopacity="0.0"
     inkscape:pageshadow="2"
     inkscape:zoom="2.5733333"
     inkscape:cx="154.30747"
     inkscape:cy="30.569093"
     inkscape:document-units="px"
     inkscape:current-layer="layer1"
     width="601px"
     height="601px"
     inkscape:window-width="1280"
     inkscape:window-height="1004"
     inkscape:window-x="-8"
     inkscape:window-y="-8"
     showgrid="false"
     fit-margin-top="0"
     fit-margin-left="0"
     fit-margin-right="0"
     fit-margin-bottom="0"
     inkscape:window-maximized="1" />
  <metadata
     id="metadata7">
    <rdf:RDF>
      <cc:Work
         rdf:about="">
        <dc:format>image/svg+xml</dc:format>
        <dc:type
           rdf:resource="http://purl.org/dc/dcmitype/StillImage" />
        <dc:title></dc:title>
      </cc:Work>
    </rdf:RDF>
  </metadata>
  <g
     inkscape:label="Layer 1"
     inkscape:groupmode="layer"
     id="layer1"
     transform="translate(-3.0061336,-457.32105)">
    <rect
       style="color:#000000;fill:#000000;fill-opacity:1;fill-rule:nonzero;stroke:none;stroke-width:0.8735441;marker:none;visibility:visible;display:inline;overflow:visible"
       id="rect3653"
       width="0"
       height="27.202072"
       x="578.73834"
       y="298.1684"
       rx="249.48199"
       ry="27.202072" />
    <path
       inkscape:connector-curvature="0"
       style="fill:#ffdb00;fill-rule:nonzero;stroke:none"
       d="m 3.0061337,471.49468 c 0,-7.82842 6.3452125,-14.17363 14.1723743,-14.17363 l 184.251382,0 c 7.82875,0 14.17375,6.34521 14.17375,14.17363 l 0,113.38512 c 0,7.82875 -6.345,14.17375 -14.17375,14.17375 l -184.251382,0 c -7.8271618,0 -14.1723744,-6.345 -14.1723744,-14.17375 l 0,-113.38512 z"
       id="path11" />
    <path
       inkscape:connector-curvature="0"
       style="fill:#000000;fill-rule:nonzero;stroke:none"
       d="m 5.8406049,471.49462 c 0,-6.2622 5.0756871,-11.3391 11.3378621,-11.3391 l 184.250893,0 c 6.2625,0 11.34,5.0769 11.34,11.3391 l 0,113.38515 c 0,6.262 -5.0775,11.33825 -11.34,11.33825 l -184.250892,0 c -6.262176,0 -11.3378631,-5.07625 -11.3378631,-11.33825 l 0,-113.38515 z"
       id="path13" />
    <path
       inkscape:connector-curvature="0"
       style="fill:#ffdb00;fill-rule:nonzero;stroke:none"
       d="m 10.446317,471.49463 c 0,-3.71825 3.013913,-6.73218 6.73215,-6.73218 l 184.251603,0 c 3.71875,0 6.73375,3.01393 6.73375,6.73218 l 0,113.38507 c 0,3.71875 -3.015,6.734 -6.73375,6.734 l -184.251603,0 c -3.718237,0 -6.73215,-3.01525 -6.73215,-6.734 l 0,-113.38507 z"
       id="path15" />
    <path
       style="fill:#000000;fill-rule:nonzero;stroke:none"
       d="m 66.571751,563.63459 12.19,0 0,-1.48812 c 0,-10.58225 2.0545,-20.88138 6.1645,-30.89713 4.016125,-9.73275 9.661875,-18.54375 16.937249,-26.43312 l 0,-12.04838 -56.691874,0 0,12.544 40.463875,0 c -6.047375,7.135 -10.795875,16.3 -14.244375,27.49625 -3.211625,10.34675 -4.819375,20.62137 -4.819375,30.8265 z"
       id="path17"
       inkscape:connector-curvature="0" />
    <path
       style="fill:#000000;fill-rule:nonzero;stroke:none"
       d="m 121.06637,492.76784 -2.196,33.5205 12.4715,3.68525 c 1.23,-1.18038 3.63875,-2.14962 7.23,-2.90525 2.9275,-0.614 5.525,-0.92163 7.795,-0.92163 3.77875,0 7.03875,0.96925 9.77875,2.90526 3.3075,2.31574 4.96125,5.575 4.96125,9.78037 0,3.82687 -1.29875,7.08612 -3.8975,9.779 -2.5975,2.6465 -5.85875,3.99287 -9.78,4.03925 -4.015,0.0476 -8.50375,-0.44912 -13.465,-1.488 -5.15,-1.08638 -9.14062,-2.43288 -11.97625,-4.03925 l -5.243,10.70062 c 8.739,4.77175 19.2505,7.157 31.53425,7.157 6.94625,0 12.89875,-2.62087 17.8575,-7.86625 4.82125,-5.1965 7.22875,-11.29025 7.22875,-18.28237 0,-6.37825 -2.5025,-12.11925 -7.51125,-17.2205 -5.0075,-5.15013 -10.67625,-7.72463 -17.00875,-7.72463 -5.29,0 -11.0775,0.87401 -17.36125,2.62213 l 0.92125,-11.55163 35.0775,0 0,-12.18987 -46.41675,0 z"
       id="path19"
       inkscape:connector-curvature="0" />
  </g>
</svg>
