<?xml version="1.0" encoding="UTF-8" standalone="no"?>
<!-- Created with Inkscape (http://www.inkscape.org/) -->

<svg
   xmlns:dc="http://purl.org/dc/elements/1.1/"
   xmlns:cc="http://creativecommons.org/ns#"
   xmlns:rdf="http://www.w3.org/1999/02/22-rdf-syntax-ns#"
   xmlns:svg="http://www.w3.org/2000/svg"
   xmlns="http://www.w3.org/2000/svg"
   xmlns:sodipodi="http://sodipodi.sourceforge.net/DTD/sodipodi-0.dtd"
   xmlns:inkscape="http://www.inkscape.org/namespaces/inkscape"
   width="212.59875"
   height="141.7325"
   id="svg2"
   sodipodi:version="0.32"
   inkscape:version="0.48.2 r9819"
   version="1.0"
   sodipodi:docname="AJAX1.svg"
   inkscape:output_extension="org.inkscape.output.svg.inkscape">
  <defs
     id="defs4">
    <inkscape:perspective
       sodipodi:type="inkscape:persp3d"
       inkscape:vp_x="0 : 300.5 : 1"
       inkscape:vp_y="0 : 1000 : 0"
       inkscape:vp_z="601 : 300.5 : 1"
       inkscape:persp3d-origin="300.5 : 200.33333 : 1"
       id="perspective3380" />
    <inkscape:perspective
       id="perspective3990"
       inkscape:persp3d-origin="375 : 250 : 1"
       inkscape:vp_z="750 : 375 : 1"
       inkscape:vp_y="0 : 1000 : 0"
       inkscape:vp_x="0 : 375 : 1"
       sodipodi:type="inkscape:persp3d" />
  </defs>
  <sodipodi:namedview
     id="base"
     pagecolor="#ffffff"
     bordercolor="#666666"
     borderopacity="1.0"
     gridtolerance="10000"
     guidetolerance="10"
     objecttolerance="10"
     inkscape:pageopacity="0.0"
     inkscape:pageshadow="2"
     inkscape:zoom="1.8196215"
     inkscape:cx="69.379442"
     inkscape:cy="-6.7246967"
     inkscape:document-units="px"
     inkscape:current-layer="layer1"
     width="601px"
     height="601px"
     inkscape:window-width="1280"
     inkscape:window-height="1004"
     inkscape:window-x="-8"
     inkscape:window-y="-8"
     showgrid="false"
     fit-margin-top="0"
     fit-margin-left="0"
     fit-margin-right="0"
     fit-margin-bottom="0"
     inkscape:window-maximized="1" />
  <metadata
     id="metadata7">
    <rdf:RDF>
      <cc:Work
         rdf:about="">
        <dc:format>image/svg+xml</dc:format>
        <dc:type
           rdf:resource="http://purl.org/dc/dcmitype/StillImage" />
      </cc:Work>
    </rdf:RDF>
  </metadata>
  <g
     inkscape:label="Layer 1"
     inkscape:groupmode="layer"
     id="layer1"
     transform="translate(-4.1340636,-455.92975)">
    <rect
       style="color:#000000;fill:#000000;fill-opacity:1;fill-rule:nonzero;stroke:none;stroke-width:0.8735441;marker:none;visibility:visible;display:inline;overflow:visible"
       id="rect3653"
       width="0"
       height="27.202072"
       x="578.73834"
       y="298.1684"
       rx="249.48199"
       ry="27.202072" />
    <path
       inkscape:connector-curvature="0"
       style="fill:#ffdb00;fill-rule:nonzero;stroke:none"
       d="m 4.1340636,470.10325 c 0,-7.82829 6.3452254,-14.1735 14.1723744,-14.1735 l 184.252632,0 c 7.8275,0 14.17375,6.34521 14.17375,14.1735 l 0,113.38525 c 0,7.8275 -6.34625,14.17375 -14.17375,14.17375 l -184.252631,0 c -7.82715,0 -14.1723754,-6.34625 -14.1723754,-14.17375 l 0,-113.38525 z"
       id="path11" />
    <path
       inkscape:connector-curvature="0"
       style="fill:#000000;fill-rule:nonzero;stroke:none"
       d="m 6.9685336,470.1033 c 0,-6.26217 5.0756874,-11.33907 11.3378874,-11.33907 l 184.252119,0 c 6.26125,0 11.33875,5.0769 11.33875,11.33907 l 0,113.38543 c 0,6.263 -5.0775,11.33925 -11.33875,11.33925 l -184.252119,0 c -6.2622,0 -11.3378874,-5.07625 -11.3378874,-11.33925 l 0,-113.38543 z"
       id="path13" />
    <path
       inkscape:connector-curvature="0"
       style="fill:#ffdb00;fill-rule:nonzero;stroke:none"
       d="m 11.574246,470.1033 c 0,-3.71823 3.013925,-6.73215 6.732175,-6.73215 l 184.251579,0 c 3.7175,0 6.7325,3.01392 6.7325,6.73215 l 0,113.38535 c 0,3.7175 -3.015,6.73125 -6.7325,6.73125 l -184.251579,0 c -3.71825,0 -6.732175,-3.01375 -6.732175,-6.73125 l 0,-113.38535 z"
       id="path15" />
    <path
       inkscape:connector-curvature="0"
       style="fill:#000000;fill-rule:nonzero;stroke:none"
       d="m 71.739046,562.24318 12.26075,0 0,-70.86537 -10.0635,0 c -0.992375,1.93725 -2.503625,3.59 -4.536125,4.96087 -2.03,1.322 -4.179625,2.12525 -6.44775,2.4085 l 0,10.27588 8.786625,0 0,53.22012 z"
       id="path17" />
    <path
       inkscape:connector-curvature="0"
       style="fill:#000000;fill-rule:nonzero;stroke:none"
       d="m 105.68192,491.37781 -2.196,33.51925 12.47188,3.68525 c 1.22925,-1.18038 3.63775,-2.14963 7.229,-2.90525 2.9285,-0.614 5.52675,-0.92163 7.7955,-0.92163 3.77875,0 7.03875,0.96925 9.77875,2.9065 3.3075,2.3145 4.96125,5.57375 4.96125,9.779 0,3.827 -1.29875,7.08625 -3.8975,9.77913 -2.5975,2.6465 -5.85875,3.99287 -9.77875,4.03925 -4.01675,0.0476 -8.50525,-0.44913 -13.46613,-1.488 -5.15025,-1.08638 -9.14062,-2.43288 -11.97637,-4.03925 l -5.24288,10.70187 c 8.739,4.7705 19.2505,7.15575 31.53413,7.15575 6.94625,0 12.89875,-2.62087 17.8575,-7.86625 4.82125,-5.1965 7.23,-11.29025 7.23,-18.2825 0,-6.37812 -2.50375,-12.11787 -7.5125,-17.22037 -5.0075,-5.15013 -10.67625,-7.72463 -17.00875,-7.72463 -5.29013,0 -11.0775,0.874 -17.36163,2.622 l 0.92163,-11.5515 35.0775,0 0,-12.18862 -46.41663,0 z"
       id="path19" />
  </g>
</svg>
