<?xml version="1.0" encoding="UTF-8" standalone="no"?>
<!-- Created with Inkscape (http://www.inkscape.org/) -->

<svg
   xmlns:dc="http://purl.org/dc/elements/1.1/"
   xmlns:cc="http://creativecommons.org/ns#"
   xmlns:rdf="http://www.w3.org/1999/02/22-rdf-syntax-ns#"
   xmlns:svg="http://www.w3.org/2000/svg"
   xmlns="http://www.w3.org/2000/svg"
   xmlns:sodipodi="http://sodipodi.sourceforge.net/DTD/sodipodi-0.dtd"
   xmlns:inkscape="http://www.inkscape.org/namespaces/inkscape"
   width="360.62805"
   height="360.61179"
   id="svg3075"
   version="1.1"
   inkscape:version="0.48.2 r9819"
   sodipodi:docname="AJAX3.svg">
  <defs
     id="defs3077" />
  <sodipodi:namedview
     id="base"
     pagecolor="#ffffff"
     bordercolor="#666666"
     borderopacity="1.0"
     inkscape:pageopacity="0.0"
     inkscape:pageshadow="2"
     inkscape:zoom="1.435"
     inkscape:cx="-55.123535"
     inkscape:cy="140.16079"
     inkscape:document-units="px"
     inkscape:current-layer="ANZ"
     showgrid="false"
     borderlayer="true"
     inkscape:window-width="1280"
     inkscape:window-height="1004"
     inkscape:window-x="-8"
     inkscape:window-y="-8"
     inkscape:window-maximized="1"
     fit-margin-top="0"
     fit-margin-left="0"
     fit-margin-right="0"
     fit-margin-bottom="0" />
  <metadata
     id="metadata3080">
    <rdf:RDF>
      <cc:Work
         rdf:about="">
        <dc:format>image/svg+xml</dc:format>
        <dc:type
           rdf:resource="http://purl.org/dc/dcmitype/StillImage" />
        <dc:title></dc:title>
      </cc:Work>
    </rdf:RDF>
  </metadata>
  <g
     inkscape:label="ANZ"
     inkscape:groupmode="layer"
     id="ANZ"
     transform="translate(-11.192674,-729.66264)">
    <path
       inkscape:connector-curvature="0"
       style="fill:#ffdb00;fill-rule:nonzero;stroke:none"
       d="m 16.568174,896.9922 c -7.1675002,7.16625 -7.1675002,18.78625 0.001,25.9525 l 161.962496,161.955 c 7.16875,7.1663 18.7875,7.1663 25.95625,0 l 161.95729,-161.955 c 7.16797,-7.16625 7.16675,-18.78625 0,-25.9525 L 204.48067,735.0377 c -7.1675,-7.16675 -18.7875,-7.16675 -25.95625,0 L 16.568174,896.9922 z"
       id="path11" />
    <path
       inkscape:connector-curvature="0"
       style="fill:#000000;fill-rule:nonzero;stroke:none"
       d="m 363.63637,919.50311 c 5.11963,-5.12 5.11963,-13.42125 0,-18.54 L 200.77849,738.10899 c -5.12,-5.11963 -13.42,-5.11963 -18.54,0 L 19.377244,900.96311 c -5.12,5.11875 -5.12,13.42 0,18.54 L 182.23474,1082.3569 c 5.12,5.1187 13.42,5.1187 18.54,0 L 363.63637,919.50311 z"
       id="path13" />
    <path
       inkscape:connector-curvature="0"
       style="fill:#ffdb00;fill-rule:nonzero;stroke:none"
       d="m 359.47616,915.18592 c 2.49029,-2.49 2.49029,-6.5275 0,-9.0175 L 196.62269,743.33121 c -2.49,-2.49029 -6.52875,-2.49029 -9.02,0 L 24.741444,906.16842 c -2.49,2.49 -2.49,6.5275 0,9.0175 L 187.59519,1078.0222 c 2.49125,2.4912 6.53,2.4912 9.02,0 L 359.47616,915.18592 z"
       id="path15" />
    <path
       inkscape:connector-curvature="0"
       style="fill:#000000;fill-rule:nonzero;stroke:none"
       d="m 123.80453,974.79809 0,31.18001 40.03875,0 0,-31.18001 c 0,-7.08 0.87125,-13.95625 2.51625,-20.5275 l 35.12788,21.11125 12.40999,-20.6525 -38.24749,-22.9845 c 11.10375,-18.66125 29.21,-32.67625 50.70999,-38.43625 l -2.2325,20.295 c -0.57875,4.39125 2.5125,8.42 6.90375,8.9975 2.75875,0.36375 5.37125,-0.71625 7.0775,-2.6625 l 60.55338,-66.72825 -85.80588,-27.51225 c -2.45125,-0.83125 -5.25249,-0.46137 -7.45999,1.23288 -3.51375,2.69662 -4.17625,7.73075 -1.48,11.24512 l 12.04124,16.46875 c -53.07037,14.1925 -92.15287,62.60875 -92.15287,120.15325 z"
       id="path17" />
  </g>
</svg>
