<?xml version="1.0" encoding="UTF-8" standalone="no"?>
<!-- Created with Inkscape (http://www.inkscape.org/) -->

<svg
   xmlns:dc="http://purl.org/dc/elements/1.1/"
   xmlns:cc="http://creativecommons.org/ns#"
   xmlns:rdf="http://www.w3.org/1999/02/22-rdf-syntax-ns#"
   xmlns:svg="http://www.w3.org/2000/svg"
   xmlns="http://www.w3.org/2000/svg"
   xmlns:sodipodi="http://sodipodi.sourceforge.net/DTD/sodipodi-0.dtd"
   xmlns:inkscape="http://www.inkscape.org/namespaces/inkscape"
   version="1.1"
   width="100%"
   height="100%"
   viewBox="0 0 292.32249 106.3"
   id="svg2"
   inkscape:version="0.48.2 r9819"
   sodipodi:docname="AJAX1.svg">
  <sodipodi:namedview
     pagecolor="#ffffff"
     bordercolor="#666666"
     borderopacity="1"
     objecttolerance="10"
     gridtolerance="10"
     guidetolerance="10"
     inkscape:pageopacity="0"
     inkscape:pageshadow="2"
     inkscape:window-width="1280"
     inkscape:window-height="1004"
     id="namedview317"
     showgrid="false"
     inkscape:zoom="3.6430142"
     inkscape:cx="104.14094"
     inkscape:cy="40.495532"
     inkscape:window-x="-8"
     inkscape:window-y="-8"
     inkscape:window-maximized="1"
     inkscape:current-layer="svg2"
     fit-margin-top="0"
     fit-margin-left="0"
     fit-margin-right="0"
     fit-margin-bottom="0"
     showguides="true"
     inkscape:guide-bbox="true" />
  <metadata
     id="metadata8">
    <rdf:RDF>
      <cc:Work
         rdf:about="">
        <dc:format>image/svg+xml</dc:format>
        <dc:type
           rdf:resource="http://purl.org/dc/dcmitype/StillImage" />
        <dc:title></dc:title>
      </cc:Work>
    </rdf:RDF>
  </metadata>
  <defs
     id="defs6">
    <clipPath
       id="clipPath220">
      <path
         d="m 0,0 595.276,0 0,841.89 L 0,841.89 0,0 z"
         id="path222"
         inkscape:connector-curvature="0" />
    </clipPath>
    <clipPath
       id="clipPath244">
      <path
         d="m 0,0 595.276,0 0,841.89 L 0,841.89 0,0 z"
         id="path246"
         inkscape:connector-curvature="0" />
    </clipPath>
    <clipPath
       id="clipPath504">
      <path
         d="m 440.788,528.662 58.15,0 0,63.886 -58.15,0 0,-63.886 z"
         id="path506"
         inkscape:connector-curvature="0" />
    </clipPath>
    <clipPath
       id="clipPath564">
      <path
         d="m 167.953,459.481 62.363,0 0,36.85 -62.363,0 0,-36.85 z"
         id="path566"
         inkscape:connector-curvature="0" />
    </clipPath>
    <clipPath
       id="clipPath682">
      <path
         d="m 167.953,459.481 62.363,0 0,36.85 -62.363,0 0,-36.85 z"
         id="path684"
         inkscape:connector-curvature="0" />
    </clipPath>
    <clipPath
       id="clipPath732">
      <path
         d="m 435.827,468.507 62.362,0 0,36.851 -62.362,0 0,-36.851 z"
         id="path734"
         inkscape:connector-curvature="0" />
    </clipPath>
    <clipPath
       id="clipPath860">
      <path
         d="m 34.016,406.772 62.363,0 0,36.85 -62.363,0 0,-36.85 z"
         id="path862"
         inkscape:connector-curvature="0" />
    </clipPath>
    <clipPath
       id="clipPath1118">
      <path
         d="m 167.953,406.772 62.363,0 0,36.85 -62.363,0 0,-36.85 z"
         id="path1120"
         inkscape:connector-curvature="0" />
    </clipPath>
    <clipPath
       id="clipPath1168">
      <path
         d="m 167.953,406.772 62.363,0 0,36.85 -62.363,0 0,-36.85 z"
         id="path1170"
         inkscape:connector-curvature="0" />
    </clipPath>
    <clipPath
       id="clipPath2652">
      <path
         d="m 301.89,406.772 62.362,0 0,36.85 -62.362,0 0,-36.85 z"
         id="path2654"
         inkscape:connector-curvature="0" />
    </clipPath>
    <clipPath
       id="clipPath3618">
      <path
         d="m 435.827,406.772 62.362,0 0,36.85 -62.362,0 0,-36.85 z"
         id="path3620"
         inkscape:connector-curvature="0" />
    </clipPath>
    <clipPath
       id="clipPath3780">
      <path
         d="m 0,0 595.276,0 0,841.89 L 0,841.89 0,0 z"
         id="path3782"
         inkscape:connector-curvature="0" />
    </clipPath>
    <clipPath
       id="clipPath3800">
      <path
         d="m 0,0 595.276,0 0,841.89 L 0,841.89 0,0 z"
         id="path3802"
         inkscape:connector-curvature="0" />
    </clipPath>
    <clipPath
       id="clipPath3820">
      <path
         d="m 0,0 595.276,0 0,841.89 L 0,841.89 0,0 z"
         id="path3822"
         inkscape:connector-curvature="0" />
    </clipPath>
    <clipPath
       id="clipPath3840">
      <path
         d="m 0,0 595.276,0 0,841.89 L 0,841.89 0,0 z"
         id="path3842"
         inkscape:connector-curvature="0" />
    </clipPath>
    <clipPath
       id="clipPath3860">
      <path
         d="m 0,0 595.276,0 0,841.89 L 0,841.89 0,0 z"
         id="path3862"
         inkscape:connector-curvature="0" />
    </clipPath>
    <clipPath
       id="clipPath3880">
      <path
         d="m 0,0 595.276,0 0,841.89 L 0,841.89 0,0 z"
         id="path3882"
         inkscape:connector-curvature="0" />
    </clipPath>
    <clipPath
       id="clipPath3930">
      <path
         d="m 167.953,335.039 62.363,0 0,39.685 -62.363,0 0,-39.685 z"
         id="path3932"
         inkscape:connector-curvature="0" />
    </clipPath>
    <clipPath
       id="clipPath3966">
      <path
         d="m 301.89,335.039 62.362,0 0,39.685 -62.362,0 0,-39.685 z"
         id="path3968"
         inkscape:connector-curvature="0" />
    </clipPath>
    <clipPath
       id="clipPath4000">
      <path
         d="m 34.016,285.165 62.363,0 0,39.686 -62.363,0 0,-39.686 z"
         id="path4002"
         inkscape:connector-curvature="0" />
    </clipPath>
    <clipPath
       id="clipPath4298">
      <path
         d="m 167.953,285.165 62.363,0 0,39.686 -62.363,0 0,-39.686 z"
         id="path4300"
         inkscape:connector-curvature="0" />
    </clipPath>
    <clipPath
       id="clipPath4334">
      <path
         d="m 167.953,285.165 62.363,0 0,39.686 -62.363,0 0,-39.686 z"
         id="path4336"
         inkscape:connector-curvature="0" />
    </clipPath>
    <clipPath
       id="clipPath4620">
      <path
         d="m 301.89,285.165 62.362,0 0,39.686 -62.362,0 0,-39.686 z"
         id="path4622"
         inkscape:connector-curvature="0" />
    </clipPath>
    <clipPath
       id="clipPath4632">
      <path
         d="m 301.89,285.165 62.362,0 0,39.686 -62.362,0 0,-39.686 z"
         id="path4634"
         inkscape:connector-curvature="0" />
    </clipPath>
    <clipPath
       id="clipPath4930">
      <path
         d="m 435.827,285.165 62.362,0 0,39.686 -62.362,0 0,-39.686 z"
         id="path4932"
         inkscape:connector-curvature="0" />
    </clipPath>
    <clipPath
       id="clipPath5206">
      <path
         d="m 0,0 595.276,0 0,841.89 L 0,841.89 0,0 z"
         id="path5208"
         inkscape:connector-curvature="0" />
    </clipPath>
    <clipPath
       id="clipPath5226">
      <path
         d="m 0,0 595.276,0 0,841.89 L 0,841.89 0,0 z"
         id="path5228"
         inkscape:connector-curvature="0" />
    </clipPath>
    <clipPath
       id="clipPath5246">
      <path
         d="m 0,0 595.276,0 0,841.89 L 0,841.89 0,0 z"
         id="path5248"
         inkscape:connector-curvature="0" />
    </clipPath>
    <clipPath
       id="clipPath5266">
      <path
         d="m 0,0 595.276,0 0,841.89 L 0,841.89 0,0 z"
         id="path5268"
         inkscape:connector-curvature="0" />
    </clipPath>
    <clipPath
       id="clipPath5286">
      <path
         d="m 0,0 595.276,0 0,841.89 L 0,841.89 0,0 z"
         id="path5288"
         inkscape:connector-curvature="0" />
    </clipPath>
    <clipPath
       id="clipPath5306">
      <path
         d="m 0,0 595.276,0 0,841.89 L 0,841.89 0,0 z"
         id="path5308"
         inkscape:connector-curvature="0" />
    </clipPath>
    <clipPath
       id="clipPath5326">
      <path
         d="m 0,0 595.276,0 0,841.89 L 0,841.89 0,0 z"
         id="path5328"
         inkscape:connector-curvature="0" />
    </clipPath>
    <clipPath
       id="clipPath5346">
      <path
         d="m 0,0 595.276,0 0,841.89 L 0,841.89 0,0 z"
         id="path5348"
         inkscape:connector-curvature="0" />
    </clipPath>
    <clipPath
       id="clipPath5408">
      <path
         d="m 34.016,163.292 62.363,0 0,39.685 -62.363,0 0,-39.685 z"
         id="path5410"
         inkscape:connector-curvature="0" />
    </clipPath>
    <clipPath
       id="clipPath5718">
      <path
         d="m 167.953,163.292 62.363,0 0,39.685 -62.363,0 0,-39.685 z"
         id="path5720"
         inkscape:connector-curvature="0" />
    </clipPath>
    <clipPath
       id="clipPath5826">
      <path
         d="m 301.89,163.292 62.362,0 0,39.685 -62.362,0 0,-39.685 z"
         id="path5828"
         inkscape:connector-curvature="0" />
    </clipPath>
    <clipPath
       id="clipPath7160">
      <path
         d="m 435.827,163.292 62.362,0 0,39.685 -62.362,0 0,-39.685 z"
         id="path7162"
         inkscape:connector-curvature="0" />
    </clipPath>
    <clipPath
       id="clipPath7504">
      <path
         d="m 0,0 595.276,0 0,841.89 L 0,841.89 0,0 z"
         id="path7506"
         inkscape:connector-curvature="0" />
    </clipPath>
    <clipPath
       id="clipPath7524">
      <path
         d="m 0,0 595.276,0 0,841.89 L 0,841.89 0,0 z"
         id="path7526"
         inkscape:connector-curvature="0" />
    </clipPath>
    <clipPath
       id="clipPath7544">
      <path
         d="m 0,0 595.276,0 0,841.89 L 0,841.89 0,0 z"
         id="path7546"
         inkscape:connector-curvature="0" />
    </clipPath>
    <clipPath
       id="clipPath7564">
      <path
         d="m 0,0 595.276,0 0,841.89 L 0,841.89 0,0 z"
         id="path7566"
         inkscape:connector-curvature="0" />
    </clipPath>
    <clipPath
       id="clipPath7584">
      <path
         d="m 0,0 595.276,0 0,841.89 L 0,841.89 0,0 z"
         id="path7586"
         inkscape:connector-curvature="0" />
    </clipPath>
    <clipPath
       id="clipPath7604">
      <path
         d="m 0,0 595.276,0 0,841.89 L 0,841.89 0,0 z"
         id="path7606"
         inkscape:connector-curvature="0" />
    </clipPath>
    <clipPath
       id="clipPath7624">
      <path
         d="m 0,0 595.276,0 0,841.89 L 0,841.89 0,0 z"
         id="path7626"
         inkscape:connector-curvature="0" />
    </clipPath>
    <clipPath
       id="clipPath7644">
      <path
         d="m 0,0 595.276,0 0,841.89 L 0,841.89 0,0 z"
         id="path7646"
         inkscape:connector-curvature="0" />
    </clipPath>
    <clipPath
       id="clipPath7690">
      <path
         d="m 34.016,91.559 62.363,0 0,39.686 -62.363,0 0,-39.686 z"
         id="path7692"
         inkscape:connector-curvature="0" />
    </clipPath>
    <clipPath
       id="clipPath7714">
      <path
         d="m 435.827,91.559 62.362,0 0,39.686 -62.362,0 0,-39.686 z"
         id="path7716"
         inkscape:connector-curvature="0" />
    </clipPath>
    <clipPath
       id="clipPath7728">
      <path
         d="m 34.016,41.685 62.363,0 0,39.685 -62.363,0 0,-39.685 z"
         id="path7730"
         inkscape:connector-curvature="0" />
    </clipPath>
    <clipPath
       id="clipPath7740">
      <path
         d="m 34.016,41.685 62.363,0 0,39.685 -62.363,0 0,-39.685 z"
         id="path7742"
         inkscape:connector-curvature="0" />
    </clipPath>
    <clipPath
       id="clipPath7802">
      <path
         d="m 167.953,41.685 62.363,0 0,39.685 -62.363,0 0,-39.685 z"
         id="path7804"
         inkscape:connector-curvature="0" />
    </clipPath>
    <clipPath
       id="clipPath8374">
      <path
         d="m 301.89,41.685 62.362,0 0,39.685 -62.362,0 0,-39.685 z"
         id="path8376"
         inkscape:connector-curvature="0" />
    </clipPath>
    <clipPath
       id="clipPath8668">
      <path
         d="m 435.827,41.685 62.362,0 0,39.685 -62.362,0 0,-39.685 z"
         id="path8670"
         inkscape:connector-curvature="0" />
    </clipPath>
    <clipPath
       id="clipPath8680">
      <path
         d="m 435.827,41.685 62.362,0 0,39.685 -62.362,0 0,-39.685 z"
         id="path8682"
         inkscape:connector-curvature="0" />
    </clipPath>
    <clipPath
       id="clipPath8928">
      <path
         d="m 0,0 595.276,0 0,841.89 L 0,841.89 0,0 z"
         id="path8930"
         inkscape:connector-curvature="0" />
    </clipPath>
    <clipPath
       id="clipPath8948">
      <path
         d="m 0,0 595.276,0 0,841.89 L 0,841.89 0,0 z"
         id="path8950"
         inkscape:connector-curvature="0" />
    </clipPath>
    <clipPath
       id="clipPath8968">
      <path
         d="m 0,0 595.276,0 0,841.89 L 0,841.89 0,0 z"
         id="path8970"
         inkscape:connector-curvature="0" />
    </clipPath>
    <clipPath
       id="clipPath8988">
      <path
         d="m 0,0 595.276,0 0,841.89 L 0,841.89 0,0 z"
         id="path8990"
         inkscape:connector-curvature="0" />
    </clipPath>
    <clipPath
       id="clipPath9008">
      <path
         d="m 0,0 595.276,0 0,841.89 L 0,841.89 0,0 z"
         id="path9010"
         inkscape:connector-curvature="0" />
    </clipPath>
    <clipPath
       id="clipPath9028">
      <path
         d="m 0,0 595.276,0 0,841.89 L 0,841.89 0,0 z"
         id="path9030"
         inkscape:connector-curvature="0" />
    </clipPath>
    <clipPath
       id="clipPath9048">
      <path
         d="m 0,0 595.276,0 0,841.89 L 0,841.89 0,0 z"
         id="path9050"
         inkscape:connector-curvature="0" />
    </clipPath>
    <clipPath
       id="clipPath9068">
      <path
         d="m 0,0 595.276,0 0,841.89 L 0,841.89 0,0 z"
         id="path9070"
         inkscape:connector-curvature="0" />
    </clipPath>
    <clipPath
       id="clipPath9088">
      <path
         d="m 0,0 595.276,0 0,841.89 L 0,841.89 0,0 z"
         id="path9090"
         inkscape:connector-curvature="0" />
    </clipPath>
    <clipPath
       id="clipPath9104">
      <path
         d="m 0,0 595.276,0 0,841.89 L 0,841.89 0,0 z"
         id="path9106"
         inkscape:connector-curvature="0" />
    </clipPath>
    <clipPath
       id="clipPath9132">
      <path
         d="m 0,0 595.276,0 0,841.89 L 0,841.89 0,0 z"
         id="path9134"
         inkscape:connector-curvature="0" />
    </clipPath>
    <clipPath
       id="clipPath9142">
      <path
         d="m 0,841.89 595.276,0 L 595.276,0 0,0 0,841.89 z"
         id="path9144"
         inkscape:connector-curvature="0" />
    </clipPath>
    <clipPath
       id="clipPath9160">
      <path
         d="m 0,0 595.276,0 0,841.89 L 0,841.89 0,0 z"
         id="path9162"
         inkscape:connector-curvature="0" />
    </clipPath>
    <clipPath
       id="clipPath9170">
      <path
         d="m 0,841.89 595.276,0 L 595.276,0 0,0 0,841.89 z"
         id="path9172"
         inkscape:connector-curvature="0" />
    </clipPath>
    <clipPath
       id="clipPath9190">
      <path
         d="m 0,841.89 595.276,0 L 595.276,0 0,0 0,841.89 z"
         id="path9192"
         inkscape:connector-curvature="0" />
    </clipPath>
    <clipPath
       id="clipPath7160-4">
      <path
         d="m 435.827,163.292 62.362,0 0,39.685 -62.362,0 0,-39.685 z"
         id="path7162-0"
         inkscape:connector-curvature="0" />
    </clipPath>
  </defs>
  <g
     id="g3141"
     transform="translate(-2.0153894,107.39501)"
     style="fill:#ffdb00;fill-opacity:1;stroke:none" />
  <path
     inkscape:connector-curvature="0"
     style="fill:#ffdb00;fill-rule:nonzero;stroke:none"
     d="M -5.4224331e-7,8.8586374 C -5.4224331e-7,3.9660625 3.9660619,0 8.8586368,0 L 283.46499,0 c 4.89125,0 8.8575,3.9660625 8.8575,8.8586374 l 0,88.5839856 c 0,4.892507 -3.96625,8.857377 -8.8575,8.857377 l -274.6063532,0 C 3.9660619,106.3 -5.4224331e-7,102.33513 -5.4224331e-7,97.442623 l 0,-88.5839856 z"
     id="path11" />
  <path
     inkscape:connector-curvature="0"
     style="fill:#000000;fill-rule:nonzero;stroke:none"
     d="m 1.7724644,8.8586398 c 0,-3.9147874 3.1725999,-7.0873998 7.0861749,-7.0873998 l 274.6063207,0 c 3.91375,0 7.08625,3.1726124 7.08625,7.0873998 l 0,88.5840982 c 0,3.913502 -3.1725,7.086122 -7.08625,7.086122 l -274.6063207,0 c -3.913575,0 -7.0861749,-3.17262 -7.0861749,-7.086122 l 0,-88.5840982 z"
     id="path13" />
  <path
     inkscape:connector-curvature="0"
     style="fill:#ffdb00;fill-rule:nonzero;stroke:none"
     d="m 5.3149394,8.8586399 c 0,-1.958 1.5869125,-3.5437 3.5436999,-3.5437 l 274.6062907,0 c 1.95625,0 3.5425,1.5857 3.5425,3.5437 l 0,88.5851731 c 0,1.958 -1.58625,3.543747 -3.5425,3.543747 l -274.6062907,0 c -1.9567874,0 -3.5436999,-1.585747 -3.5436999,-3.543747 l 0,-88.5851731 z"
     id="path15" />
  <path
     inkscape:connector-curvature="0"
     style="fill:#000000;fill-rule:nonzero;stroke:none"
     d="m 160.51803,70.301563 c 2.515,3.402 5.7925,6.04125 9.8325,7.918625 3.68375,1.665125 7.475,2.49875 11.3725,2.49875 4.92625,0 9.5675,-1.452625 13.92625,-4.357875 4.92625,-3.33125 7.38625,-7.441375 7.38625,-12.331499 0,-3.0115 -0.86625,-5.987625 -2.60375,-8.9295 -1.55875,-2.65625 -3.17,-4.285875 -4.83625,-4.888875 1.4175,-0.815375 2.53375,-2.268125 3.34875,-4.357875 0.815,-1.984875 1.22125,-4.181 1.22125,-6.590625 0,-3.933125 -2.05375,-7.2815 -6.16375,-10.046375 -3.65,-2.47925 -7.4775,-3.7195 -11.48125,-3.7195 -4.46375,0 -8.16625,0.6555 -11.10875,1.966625 -2.76125,1.240125 -5.7225,3.489875 -8.875,6.750375 l 6.85625,6.058375 c 3.8975,-3.649875 7.91875,-5.473625 12.06625,-5.473625 2.23125,0 4.17875,0.35275 5.845,1.062 2.375,0.9925 3.56125,2.622125 3.56125,4.890125 0,1.452625 -0.56625,2.6575 -1.70125,3.6145 -1.0975,0.9205 -2.355,1.381875 -3.77375,1.381875 l -3.93125,0 0,9.3005 3.93125,0 c 2.09125,0 3.9875,0.850875 5.6875,2.551375 1.70125,1.665 2.55125,3.649875 2.55125,5.95325 0,2.622124 -1.39875,4.676624 -4.19875,6.164624 -2.3025,1.204875 -4.87125,1.807875 -7.7075,1.807875 -3.64875,0 -6.5375,-0.6555 -8.6625,-1.966625 -0.56625,-0.355125 -2.32125,-1.89575 -5.26125,-4.625249 l -7.28125,5.368749 z"
     id="path17" />
  <path
     inkscape:connector-curvature="0"
     style="fill:#000000;fill-rule:nonzero;stroke:none"
     d="m 219.88428,26.558814 -1.6475,25.140375 9.355,2.76375 c 0.92,-0.885 2.7275,-1.612625 5.42125,-2.179 2.19625,-0.46025 4.145,-0.690875 5.845,-0.690875 2.835,0 5.28,0.72625 7.33625,2.178875 2.48,1.737125 3.71875,4.181 3.71875,7.33525 0,2.869875 -0.9725,5.313749 -2.9225,7.333999 -1.9475,1.984875 -4.3925,2.994375 -7.33375,3.02975 -3.0125,0.03538 -6.37875,-0.336875 -10.09875,-1.11575 -3.86375,-0.815375 -6.85625,-1.824875 -8.9825,-3.02975 l -3.9325,8.026125 c 6.55375,3.577875 14.4375,5.367375 23.65125,5.367375 5.20875,0 9.6725,-1.9665 13.39375,-5.899625 3.61375,-3.897625 5.42125,-8.468 5.42125,-13.712124 0,-4.784 -1.87875,-9.089375 -5.63375,-12.915 -3.75625,-3.863625 -8.0075,-5.79475 -12.75625,-5.79475 -3.96875,0 -8.31,0.65675 -13.02125,1.96775 l 0.69125,-8.66325 26.3075,0 0,-9.143125 -34.8125,0 z"
     id="path19" />
  <path
     inkscape:connector-curvature="0"
     style="fill:#000000;fill-rule:nonzero;stroke:none"
     d="m 70.866637,97.442638 -31.004625,0 L 8.8586393,53.150639 39.862013,8.8586398 l 31.004624,0 -31.004625,44.2919992 31.004625,44.291999 z"
     id="path21" />
  <path
     inkscape:connector-curvature="0"
     style="fill:#000000;fill-rule:nonzero;stroke:none"
     d="m 132.87428,97.442638 -31.00413,0 -31.003499,-44.291999 31.003499,-44.2919992 31.00413,0 -31.00413,44.2919992 31.00413,44.291999 z"
     id="path23" />
</svg>
