<?xml version="1.0" encoding="UTF-8" standalone="no"?>
<!-- Created with Inkscape (http://www.inkscape.org/) -->

<svg
   xmlns:dc="http://purl.org/dc/elements/1.1/"
   xmlns:cc="http://creativecommons.org/ns#"
   xmlns:rdf="http://www.w3.org/1999/02/22-rdf-syntax-ns#"
   xmlns:svg="http://www.w3.org/2000/svg"
   xmlns="http://www.w3.org/2000/svg"
   xmlns:sodipodi="http://sodipodi.sourceforge.net/DTD/sodipodi-0.dtd"
   xmlns:inkscape="http://www.inkscape.org/namespaces/inkscape"
   width="318.89999"
   height="318.89749"
   id="svg2"
   version="1.1"
   inkscape:version="0.48.2 r9819"
   sodipodi:docname="AJAX1.svg"
   style="enable-background:new">
  <defs
     id="defs4" />
  <sodipodi:namedview
     id="base"
     pagecolor="#ffffff"
     bordercolor="#666666"
     borderopacity="1.0"
     inkscape:pageopacity="0.0"
     inkscape:pageshadow="2"
     inkscape:zoom="1.5206955"
     inkscape:cx="106.2726"
     inkscape:cy="98.541085"
     inkscape:document-units="px"
     inkscape:current-layer="layer2"
     showgrid="false"
     fit-margin-top="0"
     fit-margin-left="0"
     fit-margin-right="0"
     fit-margin-bottom="0"
     inkscape:window-width="1280"
     inkscape:window-height="1004"
     inkscape:window-x="-8"
     inkscape:window-y="-8"
     inkscape:window-maximized="1"
     showguides="true"
     inkscape:guide-bbox="true" />
  <metadata
     id="metadata7">
    <rdf:RDF>
      <cc:Work
         rdf:about="">
        <dc:format>image/svg+xml</dc:format>
        <dc:type
           rdf:resource="http://purl.org/dc/dcmitype/StillImage" />
        <dc:title />
      </cc:Work>
    </rdf:RDF>
  </metadata>
  <g
     inkscape:groupmode="layer"
     id="layer2"
     inkscape:label="Layer"
     style="display:inline"
     transform="translate(42.205988,511.06533)">
    <g
       id="g3603" />
    <g
       id="g4817"
       transform="matrix(0.0207679,-0.99978433,0.99978433,0.0207679,-7.8775245,373.38928)"
       style="display:inline" />
    <g
       id="g7777" />
    <g
       id="g7870" />
    <g
       transform="matrix(-1,0,0,1,399.91001,0)"
       id="g8065">
      <g
         id="g8071"
         transform="matrix(-1,0,0,1,399.51753,0)" />
    </g>
    <g
       id="g8220"
       style="fill:#000000" />
    <g
       transform="translate(0.04276,0)"
       id="use5805">
      <g
         id="g5872"
         transform="matrix(-1,0,0,1,399.95793,0)"
         style="stroke:#ff00ff" />
    </g>
    <g
       id="g6470"
       transform="translate(0.168235,0)" />
    <g
       id="g6092"
       transform="matrix(0.30641772,-0.58841724,0.58841724,0.30641772,0.83541787,370.4644)"
       style="fill:none;stroke:#00ff00;stroke-width:1.50733972;stroke-miterlimit:4;stroke-dasharray:none" />
    <path
       inkscape:connector-curvature="0"
       style="fill:#ffdb00;fill-rule:nonzero;stroke:none;fill-opacity:1"
       d="m -42.205988,-489.80558 c 0,-11.74192 9.51904,-21.25975 21.261,-21.25975 l 276.378998,0 c 11.74,0 21.26,9.51783 21.26,21.25975 l 0,276.37775 c 0,11.7425 -9.52,21.26 -21.26,21.26 l -276.378998,0 c -11.74196,0 -21.261,-9.5175 -21.261,-21.26 l 0,-276.37775 z"
       id="path3069" />
    <path
       inkscape:connector-curvature="0"
       style="fill:#000000;fill-rule:nonzero;stroke:none"
       d="m -36.889818,-489.80564 c 0,-8.80608 7.13861,-15.94475 15.94487,-15.94475 l 276.378878,0 c 8.805,0 15.945,7.13867 15.945,15.94475 l 0,276.37775 c 0,8.80625 -7.14,15.945 -15.945,15.945 l -276.378878,0 c -8.80626,0 -15.94487,-7.13875 -15.94487,-15.945 l 0,-276.37775 z"
       id="path3071" />
    <path
       inkscape:connector-curvature="0"
       style="fill:#ffdb00;fill-rule:nonzero;stroke:none;fill-opacity:1"
       d="m -28.917458,-489.8056 c 0,-4.403 3.56937,-7.97238 7.9725,-7.97238 l 276.378748,0 c 4.40125,0 7.97125,3.56938 7.97125,7.97238 l 0,276.37762 c 0,4.40375 -3.57,7.9725 -7.97125,7.9725 l -276.378748,0 c -4.40313,0 -7.9725,-3.56875 -7.9725,-7.9725 l 0,-276.37762 z"
       id="path3073" />
    <path
       inkscape:connector-curvature="0"
       style="fill:#000000;fill-rule:nonzero;stroke:none"
       d="m 45.491792,-471.17035 0,46.50637 34.414,0 0,-8.092 -26.27688,0 0,-12.97487 13.7195,0 0,-8.092 -13.7195,0 0,-9.25425 25.4395,0 0,-8.09325 -33.57662,0 z"
       id="path3075" />
    <path
       inkscape:connector-curvature="0"
       style="fill:#000000;fill-rule:nonzero;stroke:none"
       d="m 101.85591,-448.80098 -15.159998,24.137 9.53375,0 10.417498,-16.6955 10.46375,16.6955 9.58,0 -15.2075,-24.137 13.905,-22.36937 -9.76625,0 -8.975,14.64975 -9.068748,-14.64975 -9.20875,0 13.486248,22.36937 z"
       id="path3077" />
    <path
       inkscape:connector-curvature="0"
       style="fill:#000000;fill-rule:nonzero;stroke:none"
       d="m 136.64341,-424.66398 7.85875,0 0,-46.50637 -7.85875,0 0,46.50637 z"
       id="path3079" />
    <path
       inkscape:connector-curvature="0"
       style="fill:#000000;fill-rule:nonzero;stroke:none"
       d="m 154.54716,-471.17035 0,7.53425 13.0675,0 0,38.97212 8.185,0 0,-38.97212 13.16125,0 0,-7.53425 -34.41375,0 z"
       id="path3081" />
    <path
       inkscape:connector-curvature="0"
       style="fill:#000000;fill-rule:nonzero;stroke:none"
       d="m 4.8325417,-359.95373 c 1.30137,2.41875 3.93687,4.5875 7.9053703,6.51 3.75113,1.83 7.13013,2.745 10.13788,2.745 4.83637,0 9.10037,-1.19375 12.78937,-3.5825 4.24675,-2.75875 6.37075,-6.495 6.37075,-11.20625 0,-3.03875 -0.94475,-5.55 -2.83562,-7.535 -1.4575,-1.55 -3.61213,-2.8675 -6.46488,-3.9525 -0.37225,-0.12375 -2.74412,-0.8375 -7.1155,-2.14 -1.7675,-0.46375 -3.53512,-0.945 -5.3015,-1.44 -1.86037,-0.5275 -3.20925,-1.1175 -4.04662,-1.7675 -1.0535,-0.8675 -1.56488,-2.03125 -1.53438,-3.48875 0.0305,-1.5505 1.101,-2.82125 3.20913,-3.81362 1.70537,-0.77525 3.47175,-1.16213 5.30162,-1.16213 2.29363,0 4.20038,0.32463 5.72013,0.9765 1.55037,0.65063 3.16162,1.82988 4.8365,3.53525 l 5.85937,-5.48837 c -1.85912,-2.10813 -4.3555,-3.844 -7.48662,-5.20875 -3.13225,-1.36475 -6.10838,-2.04588 -8.92938,-2.04588 -4.24812,0 -7.93712,1.08525 -11.06937,3.25438 -3.5645003,2.48175 -5.3467503,5.79837 -5.3467503,9.95262 0,3.19375 0.83625,5.7825 2.50987,7.7675 1.3341303,1.61125 3.3801303,2.97625 6.1388803,4.09125 0.4345,0.1875 3.0395,1.07125 7.81375,2.65125 2.17037,0.55875 4.34075,1.1 6.51,1.6275 2.66725,0.96125 4.00025,2.51125 4.00025,4.65125 0,2.2625 -1.37938,3.9525 -4.13825,5.06875 -1.95438,0.775 -4.07838,1.1625 -6.372,1.1625 -2.4805,0 -4.729,-0.51125 -6.74325,-1.53375 -1.70525,-0.9 -3.48875,-2.32625 -5.34788,-4.27875 l -6.3708703,4.65 z"
       id="path3083" />
    <path
       inkscape:connector-curvature="0"
       style="fill:#000000;fill-rule:evenodd;stroke:none"
       d="m 54.174662,-398.08923 0,46.50675 8.13713,0 0,-18.18375 15.57987,0 c 3.8135,0 7.038,-1.535 9.673,-4.605 2.5425,-2.97625 3.81375,-6.4175 3.81375,-10.32375 0,-3.56512 -1.535,-6.71212 -4.60375,-9.44037 -3.0075,-2.6355 -6.34025,-3.95263 -9.99875,-3.95388 l -22.60125,0 z m 7.7185,8.09325 14.60325,0 c 1.82988,0 3.38013,0.52738 4.65088,1.58075 1.39487,1.1475 2.09362,2.6665 2.09362,4.55775 0,1.98375 -0.59,3.51875 -1.76775,4.60375 -1.17787,1.055 -2.74412,1.5825 -4.69725,1.5825 l -14.88275,0 0,-12.32475 z"
       id="path3085" />
    <path
       inkscape:connector-curvature="0"
       style="fill:#000000;fill-rule:nonzero;stroke:none"
       d="m 103.74841,-398.08923 0,46.50675 34.41375,0 0,-8.0925 -26.275,0 0,-12.975 13.71875,0 0,-8.09125 -13.71875,0 0,-9.25475 25.4375,0 0,-8.09325 -33.57625,0 z"
       id="path3087" />
    <path
       inkscape:connector-curvature="0"
       style="fill:#000000;fill-rule:nonzero;stroke:none"
       d="m 148.20841,-398.08923 0,46.50675 34.41375,0 0,-8.0925 -26.27625,0 0,-12.975 13.71875,0 0,-8.09125 -13.71875,0 0,-9.25475 25.43875,0 0,-8.09325 -33.57625,0 z"
       id="path3089" />
    <path
       inkscape:connector-curvature="0"
       style="fill:#000000;fill-rule:evenodd;stroke:none"
       d="m 192.43466,-398.08923 0,46.50675 16.18375,0 c 6.29375,0 11.425,-2.32625 15.3925,-6.97625 3.7525,-4.4025 5.6275,-9.75125 5.6275,-16.04375 0,-6.45 -1.9375,-11.89012 -5.8125,-16.32375 -4.155,-4.77537 -9.64125,-7.16175 -16.4625,-7.163 l -14.92875,0 z m 7.99875,38.41425 0,-30.321 8.045,0 c 3.845,0 7.05375,1.58075 9.6275,4.74225 2.44875,3.0075 3.67375,6.5575 3.67375,10.65125 0,3.78125 -1.16375,7.16125 -3.4875,10.1375 -2.48125,3.19375 -5.56625,4.79 -9.255,4.79 l -8.60375,0 z"
       id="path3091" />
    <path
       inkscape:connector-curvature="0"
       style="fill:#000000;fill-rule:evenodd;stroke:none"
       d="m 49.808162,-283.76248 c 2.7295,-7.0075 7.65875,-12.92875 14.79,-17.765 7.19363,-4.8375 14.60338,-7.255 22.23025,-7.255 1.48625,0 2.91375,0.0925 4.2775,0.28 l 0,-16.55875 c -17.859,0 -32.3365,5.52 -43.43637,16.55875 -11.2855,11.34625 -16.9275,26.445 -16.9275,45.29625 0,10.4175 3.68887,18.6325 11.06812,24.6475 6.82,5.51875 15.47113,8.2775 25.95088,8.2775 9.67287,0 18.01237,-2.2 25.01987,-6.60375 8.246248,-5.20875 12.369998,-12.4625 12.369998,-21.765 0,-9.3625 -4.09125,-16.64875 -12.276248,-21.8575 -6.94625,-4.46375 -15.3175,-6.695 -25.11362,-6.695 -5.45775,0 -11.44038,1.14625 -17.95288,3.44 z m 18.69625,37.01875 c -13.3935,0 -20.05975,-3.9675 -19.9975,-11.90625 0.0623,-8.06125 6.72725,-12.09125 19.9975,-12.09125 13.64138,0 20.4315,4.03 20.37025,12.09125 0,4.5275 -2.01625,7.7525 -6.04625,9.675 -3.22412,1.4875 -7.99825,2.23125 -14.324,2.23125 z"
       id="path3093" />
    <path
       inkscape:connector-curvature="0"
       style="fill:#000000;fill-rule:nonzero;stroke:none"
       d="m 135.09966,-325.06123 -2.8825,43.99625 16.36875,4.83625 c 1.6125,-1.54875 4.77625,-2.82125 9.48875,-3.81375 3.8425,-0.805 7.25375,-1.20875 10.23125,-1.20875 4.96,0 9.2375,1.27125 12.835,3.81375 4.34125,3.03875 6.51,7.31625 6.51,12.83625 0,5.02125 -1.70375,9.3 -5.115,12.835 -3.41,3.4725 -7.68875,5.24 -12.835,5.3 -5.27125,0.0625 -11.1625,-0.5875 -17.6725,-1.9525 -6.76,-1.42625 -11.9975,-3.1925 -15.72,-5.3 l -6.88125,14.045 c 11.47,6.26125 25.26625,9.3925 41.38875,9.3925 9.11625,0 16.92875,-3.44 23.43875,-10.32375 6.32625,-6.82125 9.4875,-14.82 9.4875,-23.99625 0,-8.37125 -3.28625,-15.90625 -9.8575,-22.60125 -6.57375,-6.76125 -14.01375,-10.14 -22.325,-10.14 -6.94375,0 -14.54,1.1475 -22.78625,3.44125 l 1.2075,-15.16 46.04125,0 0,-16 -60.9225,0 z"
       id="path3095" />
  </g>
</svg>
