<?xml version="1.0" encoding="UTF-8" standalone="no"?>
<!-- Created with Inkscape (http://www.inkscape.org/) -->

<svg
   xmlns:dc="http://purl.org/dc/elements/1.1/"
   xmlns:cc="http://creativecommons.org/ns#"
   xmlns:rdf="http://www.w3.org/1999/02/22-rdf-syntax-ns#"
   xmlns:svg="http://www.w3.org/2000/svg"
   xmlns="http://www.w3.org/2000/svg"
   xmlns:sodipodi="http://sodipodi.sourceforge.net/DTD/sodipodi-0.dtd"
   xmlns:inkscape="http://www.inkscape.org/namespaces/inkscape"
   id="svg17624"
   version="1.1"
   inkscape:version="0.48.2 r9819"
   width="267.86093"
   height="338.72031"
   xml:space="preserve"
   sodipodi:docname="AJAX1.svg"><metadata
     id="metadata17630"><rdf:RDF><cc:Work
         rdf:about=""><dc:format>image/svg+xml</dc:format><dc:type
           rdf:resource="http://purl.org/dc/dcmitype/StillImage" /><dc:title /></cc:Work></rdf:RDF></metadata><defs
     id="defs17628"><inkscape:perspective
       sodipodi:type="inkscape:persp3d"
       inkscape:vp_x="0 : 0.5 : 1"
       inkscape:vp_y="0 : 1000 : 0"
       inkscape:vp_z="1 : 0.5 : 1"
       inkscape:persp3d-origin="0.5 : 0.33333333 : 1"
       id="perspective17632" /><clipPath
       clipPathUnits="userSpaceOnUse"
       id="clipPath17642"><path
         d="m -2,710 501,0 0,-711 -501,0 0,711 z"
         id="path17644"
         inkscape:connector-curvature="0" /></clipPath><clipPath
       clipPathUnits="userSpaceOnUse"
       id="clipPath17648"><path
         d="m 0,708.06 498,0 0,-708 -498,0 0,708 z"
         id="path17650"
         inkscape:connector-curvature="0" /></clipPath><clipPath
       clipPathUnits="userSpaceOnUse"
       id="clipPath17798"><path
         d="m -2,710 501,0 0,-711 -501,0 0,711 z"
         id="path17800"
         inkscape:connector-curvature="0" /></clipPath><clipPath
       clipPathUnits="userSpaceOnUse"
       id="clipPath17804"><path
         d="m 0,708.06 498,0 0,-708 -498,0 0,708 z"
         id="path17806"
         inkscape:connector-curvature="0" /></clipPath><clipPath
       id="Clip0"><path
         inkscape:connector-curvature="0"
         d="m 0,0 212.597,0 0,269.292 L 0,269.292 0,0 z"
         transform="translate(0.923828,0.879883)"
         id="path7" /></clipPath></defs><sodipodi:namedview
     pagecolor="#ffffff"
     bordercolor="#666666"
     borderopacity="1"
     objecttolerance="10"
     gridtolerance="10"
     guidetolerance="10"
     inkscape:pageopacity="0"
     inkscape:pageshadow="2"
     inkscape:window-width="1280"
     inkscape:window-height="1004"
     id="namedview17626"
     showgrid="false"
     inkscape:zoom="2.0022598"
     inkscape:cx="136.99736"
     inkscape:cy="107.08894"
     inkscape:window-x="-8"
     inkscape:window-y="-8"
     inkscape:window-maximized="1"
     inkscape:current-layer="g17634"
     fit-margin-top="0.2"
     fit-margin-left="0.2"
     fit-margin-right="0.2"
     fit-margin-bottom="0.2"
     showguides="true"
     inkscape:guide-bbox="true" /><g
     id="g17634"
     inkscape:groupmode="layer"
     inkscape:label="GG1999P002"
     transform="matrix(1.25,0,0,-1.25,14.926562,249.10625)"><path
       inkscape:connector-curvature="0"
       style="fill:#ffffff;fill-rule:nonzero;stroke:#000000;stroke-width:1.36000001;stroke-miterlimit:4;stroke-opacity:1;stroke-dasharray:none"
       d="m -11.100896,187.11235 c 0,6.26273 5.0761701,11.3389 11.33790005,11.3389 l 189.92209595,0 c 6.261,0 11.337,-5.07617 11.337,-11.3389 l 0,-246.615098 c 0,-6.262 -5.076,-11.338 -11.337,-11.338 l -189.92209595,0 c -6.26172995,0 -11.33790005,5.076 -11.33790005,11.338 l 0,246.615098 z"
       id="path11" /><path
       inkscape:connector-curvature="0"
       style="fill:#c0111e;fill-opacity:1;fill-rule:nonzero;stroke:none"
       d="m -7.1331259,187.11233 c 0,4.07036 3.29981,7.37017 7.37009995,7.37017 l 189.92189595,0 c 4.07,0 7.37,-3.29981 7.37,-7.37017 l 0,-246.61383 c 0,-4.07 -3.3,-7.37 -7.37,-7.37 l -189.92189595,0 c -4.07028995,0 -7.37009995,3.3 -7.37009995,7.37 l 0,246.61383 z"
       id="path13" /><path
       inkscape:connector-curvature="0"
       style="fill:#ffffff;fill-rule:nonzero;stroke:none"
       d="m -0.89682595,187.11143 c 0,0.6259 0.5078,1.1338 1.1338,1.1338 l 189.92220595,0 c 0.626,0 1.133,-0.5079 1.133,-1.1338 l 0,-246.614202 c 0,-0.626 -0.507,-1.134 -1.133,-1.134 l -189.92220595,0 c -0.626,0 -1.1338,0.508 -1.1338,1.134 l 0,246.614202 z"
       id="path15" /><g
       transform="matrix(1,0,0,-1,-12.024726,199.33113)"
       id="Background"
       style="fill:#000000;stroke:none"><g
         id="Group1"
         clip-path="url(#Clip0)"
         style="fill:#000000;stroke:none"><path
           inkscape:connector-curvature="0"
           style="fill:#000000;fill-rule:nonzero;stroke:none"
           d="m 0,0 0,3.7364 5.0518,0 0,24.6103 4.167,0 0,-24.6103 4.955,0 L 14.1738,0 0,0 z"
           transform="translate(40.3242,36.3574)"
           id="path17" /><path
           inkscape:connector-curvature="0"
           style="fill:#000000;fill-rule:nonzero;stroke:none"
           d="m 7.7676,28.8848 c 1.9297,0 3.7158,-0.7471 5.3584,-2.2422 1.6435,-1.4951 2.4648,-3.1465 2.4648,-4.9551 l 0,-21.6875 -4.0849,0 0,21.4258 c 0,1.0244 -0.3965,1.8594 -1.1905,2.5049 -0.7109,0.582 -1.5693,0.8721 -2.5752,0.8721 -0.9599,0 -1.8095,-0.3135 -2.5478,-0.9414 C 4.3984,23.2061 4.0019,22.3946 4.0019,21.4258 L 4.0019,0 0,0 0,21.6875 c 0,1.9102 0.831,3.5987 2.4922,5.0664 1.6064,1.4209 3.3642,2.1309 5.2754,2.1309 z"
           transform="translate(60.2295,36.3574)"
           id="path19" /><path
           inkscape:connector-curvature="0"
           style="fill:#000000;fill-rule:evenodd;stroke:none"
           d="m 11.5059,14.5469 c 1.2548,-0.4336 2.2705,-1.3516 3.0459,-2.7549 0.6923,-1.2822 1.039,-2.6523 1.039,-4.1103 0,-1.8731 -0.5771,-3.5948 -1.7314,-5.1631 C 12.6318,0.8399 11.1787,0 9.498,0 L 0,0 l 0,28.3467 3.918,0 0,-13.1494 3.6836,0 3.7656,13.1494 4.2236,0 -4.0849,-13.7998 z m -2.6309,-3.4355 -4.957,0 0,-7.0577 4.9853,0 c 1.6983,0 2.5469,1.1621 2.5469,3.4873 0,0.9405 -0.207,1.7432 -0.6231,2.4082 -0.4707,0.7745 -1.1211,1.1622 -1.9521,1.1622 z"
           transform="translate(82.2461,36.3574)"
           id="path21" /><path
           inkscape:connector-curvature="0"
           style="fill:#000000;fill-rule:nonzero;stroke:none"
           d="m 0,0 0,28.3467 3.918,0 0,-18.6309 8.446,18.6309 3.227,0 0,-28.3467 -4.113,0 0,16.3877 L 3.918,0 0,0 z"
           transform="translate(104.328,36.3574)"
           id="path23" /><path
           inkscape:connector-curvature="0"
           style="fill:#000000;fill-rule:nonzero;stroke:none"
           d="m 0,28.3467 3.968,0 L 3.968,0 0,0 0,28.3467 z"
           transform="translate(126.146,36.3574)"
           id="path25" /><path
           inkscape:connector-curvature="0"
           style="fill:#000000;fill-rule:nonzero;stroke:none"
           d="m 0,0 0,28.3467 3.918,0 0,-18.6309 8.446,18.6309 3.227,0 0,-28.3467 -4.114,0 0,16.3877 L 3.918,0 0,0 z"
           transform="translate(136.423,36.3574)"
           id="path27" /><path
           inkscape:connector-curvature="0"
           style="fill:#000000;fill-rule:nonzero;stroke:none"
           d="m 11.474,7.335 4.112,0 C 15.586,5.2959 14.853,3.5616 13.385,2.1319 11.89,0.711 10.123,0 8.083,0 4.845,0 2.584,1.7579 1.301,5.2735 0.434,7.6172 0,10.9063 0,15.1416 c 0,3.7735 0.453,6.8321 1.357,9.1758 1.348,3.4229 3.59,5.1348 6.726,5.1348 1.57,0 2.977,-0.3877 4.223,-1.1631 1.135,-0.7012 1.956,-1.6006 2.464,-2.6982 0.507,-1.0704 0.761,-2.6846 0.761,-4.8438 l 0,-5.6055 -7.253,0 0,4.0772 3.405,0 0,3.2021 c 0,0.795 -0.388,1.5166 -1.163,2.1631 -0.794,0.6377 -1.606,0.9561 -2.438,0.9561 -2.685,0 -4.028,-3.2295 -4.028,-9.6905 l 0,-1.7031 c 0,-6.7275 1.343,-10.0918 4.028,-10.0918 1.035,0 1.865,0.2823 2.493,0.8448 0.599,0.5908 0.899,1.4023 0.899,2.4355 z"
           transform="translate(158.524,35.79)"
           id="path29" /><path
           inkscape:connector-curvature="0"
           style="fill:#000000;fill-rule:nonzero;stroke:none"
           d="m 0,0 0,3.7363 5.0517,0 0,24.6107 4.1661,0 0,-24.6107 4.955,0 L 14.1728,0 0,0 z"
           transform="translate(43.1592,78.877)"
           id="path31" /><path
           inkscape:connector-curvature="0"
           style="fill:#000000;fill-rule:evenodd;stroke:none"
           d="m 11.5068,14.5468 c 1.2549,-0.4336 2.2705,-1.3515 3.0459,-2.7539 0.6924,-1.2832 1.0381,-2.6533 1.0381,-4.1113 0,-1.8731 -0.5771,-3.5938 -1.7305,-5.1631 C 12.6328,0.8398 11.1787,0 9.499,0 L 0,0 l 0,28.347 3.9189,0 0,-13.1498 3.6827,0 3.7666,13.1498 4.2226,0 -4.084,-13.8002 z m -2.6318,-3.4355 -4.9561,0 0,-7.0576 4.9844,0 c 1.6983,0 2.5479,1.1621 2.5479,3.4873 0,0.9414 -0.208,1.7441 -0.6231,2.4082 -0.4707,0.7754 -1.1221,1.1621 -1.9531,1.1621 z"
           transform="translate(62.9961,78.877)"
           id="path33" /><path
           inkscape:connector-curvature="0"
           style="fill:#000000;fill-rule:evenodd;stroke:none"
           d="m 6.7695,16.5537 1.9942,-7.626 2.0068,7.626 -4.001,0 z M 0,28.347 l 4.1113,0 1.8975,-7.8763 5.7861,0 2.0352,7.8763 4.0563,0 L 10.7705,0 6.7695,0 0,28.347 z"
           transform="translate(83.9336,78.877)"
           id="path35" /><path
           inkscape:connector-curvature="0"
           style="fill:#000000;fill-rule:nonzero;stroke:none"
           d="m 0,0 0,28.347 3.944,0 0,-13.6898 5.814,0 0,-4.0557 -5.814,0 0,-6.6894 10.229,0 L 14.173,0 0,0 z"
           transform="translate(106.967,78.877)"
           id="path37" /><path
           inkscape:connector-curvature="0"
           style="fill:#000000;fill-rule:nonzero;stroke:none"
           d="m 0,0 0,28.347 3.944,0 0,-13.6898 5.813,0 0,-4.0557 -5.813,0 0,-6.6894 10.229,0 L 14.173,0 0,0 z"
           transform="translate(126.181,78.877)"
           id="path39" /><path
           inkscape:connector-curvature="0"
           style="fill:#000000;fill-rule:nonzero;stroke:none"
           d="m 0,28.347 3.967,0 L 3.967,0 0,0 0,28.347 z"
           transform="translate(145.395,78.877)"
           id="path41" /><path
           inkscape:connector-curvature="0"
           style="fill:#000000;fill-rule:nonzero;stroke:none"
           d="m 11.63,21.3701 c 0,1.2093 -0.314,2.2013 -0.942,2.9753 -0.618,0.776 -1.393,1.163 -2.325,1.163 -2.927,0 -4.39,-3.778 -4.39,-11.3356 0,-2.4355 0.217,-4.4844 0.651,-6.1455 0.702,-2.6484 1.901,-3.9717 3.6,-3.9717 0.905,0 1.699,0.3594 2.381,1.0791 0.684,0.7198 1.025,1.4854 1.025,2.2979 l 3.932,0 C 15.562,5.2177 14.875,3.4189 13.499,2.0351 12.115,0.6787 10.356,0 8.224,0 2.741,0 0,4.7246 0,14.1728 c 0,4.3086 0.415,7.6166 1.246,9.9226 1.301,3.572 3.655,5.357 7.061,5.357 2.178,0 3.937,-0.729 5.276,-2.187 1.338,-1.429 2.007,-3.395 2.007,-5.8953 l -3.96,0 z"
           transform="translate(155.632,78.3096)"
           id="path43" /><path
           inkscape:connector-curvature="0"
           style="fill:#000000;fill-rule:nonzero;stroke:none"
           d="m 0,0 0,3.737 5.0517,0 0,24.61 4.167,0 0,-24.61 4.955,0 0,-3.737 L 0,0 z"
           transform="translate(89.3633,163.916)"
           id="path45" /><path
           inkscape:connector-curvature="0"
           style="fill:#000000;fill-rule:evenodd;stroke:none"
           d="m 8.276,29.452 c 2.759,0 4.839,-1.324 6.241,-3.973 1.301,-2.51 1.952,-6.099 1.952,-10.767 C 16.469,4.904 13.757,0 8.331,0 2.777,0 0,4.904 0,14.712 c 0,9.826 2.759,14.74 8.276,14.74 z m 0,-4.082 C 6.671,25.37 5.526,24.34 4.844,22.283 4.3,20.594 4.027,18.07 4.027,14.712 4.027,7.533 5.443,3.944 8.276,3.944 c 2.814,0 4.221,3.589 4.221,10.768 0,7.105 -1.407,10.658 -4.221,10.658 z"
           transform="translate(108.591,163.35)"
           id="path47" /><path
           inkscape:connector-curvature="0"
           style="fill:#000000;fill-rule:nonzero;stroke:none"
           d="m 11.4746,7.335 4.1123,0 c 0,-2.039 -0.7343,-3.774 -2.2011,-5.204 C 11.8906,0.71 10.1231,0 8.084,0 4.8447,0 2.584,1.758 1.3018,5.273 0.4336,7.616 0,10.905 0,15.141 c 0,3.773 0.4522,6.833 1.3574,9.175 1.3467,3.424 3.5889,5.135 6.7266,5.135 1.5684,0 2.9756,-0.386 4.2217,-1.162 1.1347,-0.701 1.956,-1.6 2.4638,-2.699 0.5079,-1.07 0.7618,-2.685 0.7618,-4.844 l 0,-5.605 -7.2539,0 0,4.078 3.4052,0 0,3.202 c 0,0.795 -0.3877,1.516 -1.1631,2.162 -0.7929,0.638 -1.6054,0.957 -2.4365,0.957 -2.6865,0 -4.0293,-3.23 -4.0293,-9.69 l 0,-1.703 c 0,-6.729 1.3428,-10.092 4.0293,-10.092 1.0332,0 1.8643,0.281 2.4922,0.844 0.5996,0.59 0.8994,1.402 0.8994,2.436 z"
           transform="translate(32.1035,120.83)"
           id="path49" /><path
           inkscape:connector-curvature="0"
           style="fill:#000000;fill-rule:nonzero;stroke:none"
           d="m 0,28.347 3.9687,0 L 3.9687,0 0,0 0,28.347 z"
           transform="translate(54.2422,121.396)"
           id="path51" /><path
           inkscape:connector-curvature="0"
           style="fill:#000000;fill-rule:nonzero;stroke:none"
           d="m 7.0332,28.347 3.2803,0 L 17.292,0 13.208,0 8.7354,18.119 4.1397,0 0,0 7.0332,28.347 z"
           transform="translate(62.79,121.396)"
           id="path53" /><path
           inkscape:connector-curvature="0"
           style="fill:#000000;fill-rule:nonzero;stroke:none"
           d="m 0,0 0,28.347 14.1728,0 0,-4 -10.2842,0 0,-9.356 6.0352,0 0,-3.876 -6.0352,0 0,-7.115 9.8272,0 0,-4 L 0,0 z"
           transform="translate(84.6182,121.396)"
           id="path55" /><path
           inkscape:connector-curvature="0"
           style="fill:#000000;fill-rule:nonzero;stroke:none"
           d="m 0,0 4.595,28.347 3.336,0 2.782,-14.519 2.726,14.519 3.516,0 L 21.26,0 17.204,0 15.016,14.991 12.332,0 9.011,0 6.352,14.741 4,0 0,0 z"
           transform="translate(121.963,121.396)"
           id="path57" /><path
           inkscape:connector-curvature="0"
           style="fill:#000000;fill-rule:evenodd;stroke:none"
           d="m 6.771,16.554 1.993,-7.626 2.008,7.626 -4.001,0 z M 0,28.347 l 4.112,0 1.897,-7.876 5.787,0 2.035,7.876 4.056,0 L 10.772,0 6.771,0 0,28.347 z"
           transform="translate(142.83,121.396)"
           id="path59" /><path
           inkscape:connector-curvature="0"
           style="fill:#000000;fill-rule:nonzero;stroke:none"
           d="m 0,0 7.061,15.475 0,12.872 4.167,0 0,-12.872 L 17.887,0 13.61,0 9.069,10.09 4.416,0 0,0 z"
           transform="translate(162.317,121.396)"
           id="path61" /><path
           inkscape:connector-curvature="0"
           style="fill:#000000;fill-rule:evenodd;stroke:none"
           d="m 3.458,3.571 2.0918,0 c 0.7022,0 1.3389,0.369 1.9121,1.107 0.5997,0.831 0.9004,1.86 0.9004,3.087 0,1.264 -0.2539,2.335 -0.7617,3.211 -0.5078,0.867 -1.1133,1.302 -1.8144,1.302 l -2.3282,0 0,-8.707 z M 0,0 l 0,28.346 3.458,0 0,-12.332 2.5762,0 c 1.6055,0 2.9863,-0.784 4.1397,-2.352 1.1357,-1.57 1.7031,-3.419 1.7031,-5.551 0,-2.159 -0.586,-4.051 -1.7578,-5.675 C 8.9473,0.812 7.6231,0 6.1465,0 L 0,0 z"
           transform="translate(21.0488,206.4)"
           id="path63" /><path
           inkscape:connector-curvature="0"
           style="fill:#000000;fill-rule:nonzero;stroke:none"
           d="m 0,0 0,28.346 10.7998,0 0,-3.46 -7.2549,0 0,-10.201 4.4854,0 0,-3.487 -4.4854,0 0,-7.683 6.8946,0 0,-3.515 L 0,0 z"
           transform="translate(39.1455,206.4)"
           id="path65" /><path
           inkscape:connector-curvature="0"
           style="fill:#000000;fill-rule:evenodd;stroke:none"
           d="m 5.3291,3.515 c 2.0605,0 3.0898,3.3 3.0898,9.897 0,3.34 -0.1289,5.813 -0.3877,7.418 -0.4433,2.76 -1.3076,4.139 -2.5918,4.139 l -2.0087,0 0,-21.454 1.8984,0 z M 5.0117,0 0,0 l 0,28.346 5.6201,0 c 0.9785,0 1.9795,-0.368 3.0039,-1.106 0.8682,-0.647 1.5186,-1.375 1.9522,-2.188 0.3418,-0.637 0.6328,-2.007 0.872,-4.11 0.2862,-2.298 0.4297,-4.808 0.4297,-7.53 0,-2.666 -0.1523,-4.973 -0.457,-6.92 C 11.1621,4.71 10.8164,3.53 10.3828,2.949 8.9248,0.983 7.1338,0 5.0117,0 z"
           transform="translate(54.4336,206.4)"
           id="path67" /><path
           inkscape:connector-curvature="0"
           style="fill:#000000;fill-rule:nonzero;stroke:none"
           d="m 0,0 0,28.346 10.7998,0 0,-3.46 -7.2549,0 0,-10.201 4.4863,0 0,-3.487 -4.4863,0 0,-7.683 6.8955,0 0,-3.515 L 0,0 z"
           transform="translate(71.8506,206.4)"
           id="path69" /><path
           inkscape:connector-curvature="0"
           style="fill:#000000;fill-rule:nonzero;stroke:none"
           d="m 0,21.91 c 0,2.685 0.6231,4.668 1.8682,5.95 1.0244,1.042 2.4043,1.564 4.1397,1.564 1.7255,0 3.1748,-0.701 4.3466,-2.104 1.0147,-1.227 1.5225,-2.528 1.5225,-3.903 0,-1.946 -0.4795,-4.055 -1.4395,-6.325 C 9.2647,14.37 7.6182,12.092 5.4952,10.255 5.0616,9.877 4.6924,9.245 4.3877,8.359 4.1114,7.547 3.9727,6.772 3.9727,6.034 c 0,-1.624 0.6963,-2.435 2.0898,-2.435 1.3663,0 2.0489,1.019 2.0489,3.058 l 3.4883,0 C 11.5997,4.563 11.042,2.911 9.9249,1.702 8.9004,0.567 7.6045,0 6.0352,0 4.586,0 3.3125,0.513 2.2149,1.537 1.0245,2.671 0.4288,4.143 0.4288,5.951 c 0,1.173 0.3095,2.506 0.9277,4 0.5908,1.394 1.2275,2.45 1.9102,3.17 1.541,1.606 2.3808,2.505 2.5195,2.699 0.8486,1.061 1.5449,2.385 2.0898,3.972 0.3604,1.016 0.5401,1.984 0.5401,2.907 0,0.988 -0.208,1.772 -0.6231,2.353 -0.4336,0.591 -1.0469,0.886 -1.8408,0.886 -0.7754,0 -1.3799,-0.324 -1.8135,-0.969 C 3.6495,24.258 3.4053,23.238 3.4053,21.91 L 0,21.91 z"
           transform="translate(87.1396,205.833)"
           id="path71" /><path
           inkscape:connector-curvature="0"
           style="fill:#000000;fill-rule:nonzero;stroke:none"
           d="m 0,0 0,3.488 3.683,0 0,24.858 3.601,0 0,-24.858 3.516,0 L 10.8,0 0,0 z"
           transform="translate(103.564,206.4)"
           id="path73" /><path
           inkscape:connector-curvature="0"
           style="fill:#000000;fill-rule:evenodd;stroke:none"
           d="m 5.756,11.474 -2.326,0 0,-7.986 2.326,0 c 0.738,0 1.351,0.48 1.841,1.439 0.416,0.831 0.623,1.739 0.623,2.727 0,0.831 -0.236,1.661 -0.706,2.492 -0.535,0.886 -1.121,1.328 -1.758,1.328 z m 3.225,2.354 c 1.801,-1.32 2.703,-3.313 2.703,-5.98 0,-2.852 -0.656,-4.936 -1.966,-6.256 C 8.702,0.531 7.364,0 5.703,0 L 0,0 l 0,28.346 3.43,0 0,-13.26 2.09,0 2.839,13.26 3.518,0 -2.896,-14.518 z"
           transform="translate(118.875,206.4)"
           id="path75" /><path
           inkscape:connector-curvature="0"
           style="fill:#000000;fill-rule:nonzero;stroke:none"
           d="m 0,28.346 3.544,0 L 3.544,0 0,0 0,28.346 z"
           transform="translate(136.291,206.4)"
           id="path77" /><path
           inkscape:connector-curvature="0"
           style="fill:#000000;fill-rule:evenodd;stroke:none"
           d="m 0,28.346 3.628,0 1.33,-7.142 4.887,0 1.579,7.142 3.627,0 L 9.07,0 5.525,0 0,28.346 z m 5.788,-10.657 1.62,-8.305 1.87,8.305 -3.49,0 z"
           transform="translate(144.428,206.4)"
           id="path79" /><path
           inkscape:connector-curvature="0"
           style="fill:#000000;fill-rule:nonzero;stroke:none"
           d="m 0,0 0,28.346 3.544,0 0,-16.774 5.272,16.774 3.057,0 0,-28.346 -3.482,0 0,15.086 L 3.544,0 0,0 z"
           transform="translate(164.032,206.4)"
           id="path81" /><path
           inkscape:connector-curvature="0"
           style="fill:#000000;fill-rule:nonzero;stroke:none"
           d="m 0,21.91 c 0,2.685 0.623,4.668 1.869,5.95 1.024,1.042 2.404,1.564 4.139,1.564 1.726,0 3.174,-0.701 4.346,-2.104 1.016,-1.227 1.524,-2.528 1.524,-3.903 0,-1.946 -0.481,-4.055 -1.44,-6.325 -1.173,-2.722 -2.82,-5 -4.942,-6.837 C 5.062,9.877 4.693,9.245 4.388,8.359 4.112,7.547 3.973,6.772 3.973,6.034 c 0,-1.624 0.697,-2.435 2.09,-2.435 1.366,0 2.049,1.019 2.049,3.058 l 3.488,0 C 11.6,4.563 11.042,2.911 9.925,1.702 8.901,0.567 7.604,0 6.036,0 4.587,0 3.313,0.513 2.216,1.537 1.024,2.671 0.429,4.143 0.429,5.951 c 0,1.173 0.309,2.506 0.928,4 0.59,1.394 1.227,2.45 1.91,3.17 1.541,1.606 2.381,2.505 2.52,2.699 0.848,1.061 1.545,2.385 2.09,3.972 0.359,1.016 0.54,1.984 0.54,2.907 0,0.988 -0.208,1.772 -0.623,2.353 -0.434,0.591 -1.048,0.886 -1.841,0.886 -0.776,0 -1.38,-0.324 -1.814,-0.969 C 3.65,24.258 3.406,23.238 3.406,21.91 L 0,21.91 z"
           transform="translate(181.555,205.833)"
           id="path83" /></g></g></g></svg>