<?xml version="1.0" encoding="UTF-8" standalone="no"?>
<!-- Created with Inkscape (http://www.inkscape.org/) -->

<svg
   xmlns:dc="http://purl.org/dc/elements/1.1/"
   xmlns:cc="http://creativecommons.org/ns#"
   xmlns:rdf="http://www.w3.org/1999/02/22-rdf-syntax-ns#"
   xmlns:svg="http://www.w3.org/2000/svg"
   xmlns="http://www.w3.org/2000/svg"
   xmlns:sodipodi="http://sodipodi.sourceforge.net/DTD/sodipodi-0.dtd"
   xmlns:inkscape="http://www.inkscape.org/namespaces/inkscape"
   id="svg17624"
   version="1.1"
   inkscape:version="0.48.2 r9819"
   width="214.50156"
   height="257.00156"
   xml:space="preserve"
   sodipodi:docname="AJAX1.svg"><metadata
     id="metadata17630"><rdf:RDF><cc:Work
         rdf:about=""><dc:format>image/svg+xml</dc:format><dc:type
           rdf:resource="http://purl.org/dc/dcmitype/StillImage" /><dc:title /></cc:Work></rdf:RDF></metadata><defs
     id="defs17628"><inkscape:perspective
       sodipodi:type="inkscape:persp3d"
       inkscape:vp_x="0 : 0.5 : 1"
       inkscape:vp_y="0 : 1000 : 0"
       inkscape:vp_z="1 : 0.5 : 1"
       inkscape:persp3d-origin="0.5 : 0.33333333 : 1"
       id="perspective17632" /><clipPath
       clipPathUnits="userSpaceOnUse"
       id="clipPath17642"><path
         d="m -2,710 501,0 0,-711 -501,0 0,711 z"
         id="path17644"
         inkscape:connector-curvature="0" /></clipPath><clipPath
       clipPathUnits="userSpaceOnUse"
       id="clipPath17648"><path
         d="m 0,708.06 498,0 0,-708 -498,0 0,708 z"
         id="path17650"
         inkscape:connector-curvature="0" /></clipPath><clipPath
       clipPathUnits="userSpaceOnUse"
       id="clipPath17798"><path
         d="m -2,710 501,0 0,-711 -501,0 0,711 z"
         id="path17800"
         inkscape:connector-curvature="0" /></clipPath><clipPath
       clipPathUnits="userSpaceOnUse"
       id="clipPath17804"><path
         d="m 0,708.06 498,0 0,-708 -498,0 0,708 z"
         id="path17806"
         inkscape:connector-curvature="0" /></clipPath><clipPath
       id="Clip0"><path
         inkscape:connector-curvature="0"
         d="m 0,0 212.597,0 0,269.292 L 0,269.292 0,0 z"
         transform="translate(0.923828,0.879883)"
         id="path7" /></clipPath><clipPath
       id="Clip0-8"><path
         inkscape:connector-curvature="0"
         d="m 0,0 170.079,0 0,113.386 L 0,113.386 0,0 z"
         transform="translate(0.0986328,0.822266)"
         id="path7-8" /></clipPath><clipPath
       id="Clip0-1"><path
         inkscape:connector-curvature="0"
         d="m 0,0 287.009,0 0,159.449 L 0,159.449 0,0 z"
         transform="translate(0.396484,0.267578)"
         id="path7-7" /></clipPath><clipPath
       id="Clip0-9"><path
         inkscape:connector-curvature="0"
         d="m 0,0 170.079,0 0,170.079 L 0,170.079 0,0 z"
         transform="translate(0.460938,0.775391)"
         id="path7-4" /></clipPath><clipPath
       id="Clip0-4"><path
         inkscape:connector-curvature="0"
         d="m 0,0 340.157,0 0,226.771 L 0,226.771 0,0 z"
         transform="translate(0.921875,0.25293)"
         id="path7-5" /></clipPath><clipPath
       id="Clip0-5"><path
         inkscape:connector-curvature="0"
         d="m 0,0 255.119,0 0,170.079 L 0,170.079 0,0 z"
         transform="translate(0.147461,0.0595703)"
         id="path7-1" /></clipPath></defs><sodipodi:namedview
     pagecolor="#ffffff"
     bordercolor="#666666"
     borderopacity="1"
     objecttolerance="10"
     gridtolerance="10"
     guidetolerance="10"
     inkscape:pageopacity="0"
     inkscape:pageshadow="2"
     inkscape:window-width="1280"
     inkscape:window-height="1004"
     id="namedview17626"
     showgrid="false"
     inkscape:zoom="2.0000001"
     inkscape:cx="134.93665"
     inkscape:cy="147.04964"
     inkscape:window-x="-8"
     inkscape:window-y="-8"
     inkscape:window-maximized="1"
     inkscape:current-layer="g17634"
     fit-margin-top="0.2"
     fit-margin-left="0.2"
     fit-margin-right="0.2"
     fit-margin-bottom="0.2"
     showguides="true"
     inkscape:guide-bbox="true" /><g
     id="g17634"
     inkscape:groupmode="layer"
     inkscape:label="GG1999P002"
     transform="matrix(1.25,0,0,-1.25,762.77813,-749.33125)"><path
       inkscape:connector-curvature="0"
       style="fill:#ffffff;fill-rule:nonzero;stroke:#000000;stroke-width:1.20000005;stroke-miterlimit:4;stroke-opacity:1;stroke-dasharray:none"
       d="m -609.46267,-611.55805 c 0,6.26172 5.07715,11.3379 11.3389,11.3379 l 147.4011,0 c 6.263,0 11.339,-5.07618 11.339,-11.3379 l 0,-181.4181 c 0,-6.262 -5.076,-11.339 -11.339,-11.339 l -147.4011,0 c -6.26175,0 -11.3389,5.077 -11.3389,11.339 l 0,181.4181 z"
       id="path11" /><path
       inkscape:connector-curvature="0"
       style="fill:#c0111e;fill-opacity:1;fill-rule:nonzero;stroke:none"
       d="m -606.06033,-611.55804 c 0,4.38281 3.55274,7.93652 7.93651,7.93652 l 147.40149,0 c 4.384,0 7.937,-3.55371 7.937,-7.93652 l 0,-181.41748 c 0,-4.384 -3.553,-7.937 -7.937,-7.937 l -147.40149,0 c -4.38377,0 -7.93651,3.553 -7.93651,7.937 l 0,181.41748 z"
       id="path13" /><path
       inkscape:connector-curvature="0"
       style="fill:#ffffff;fill-rule:nonzero;stroke:none"
       d="m -601.52517,-611.55804 c 0,1.8779 1.52246,3.40136 3.40135,3.40136 l 147.40165,0 c 1.879,0 3.402,-1.52346 3.402,-3.40136 l 0,-181.41764 c 0,-1.879 -1.523,-3.402 -3.402,-3.402 l -147.40165,0 c -1.87889,0 -3.40135,1.523 -3.40135,3.402 l 0,181.41764 z"
       id="path15" /><path
       inkscape:connector-curvature="0"
       style="fill:#c0111e;fill-opacity:1;fill-rule:nonzero;stroke:none"
       d="m -560.23902,-748.04674 0,19.842 -3.8828,0 -5.6123,-7.398 -5.6983,7.398 -3.9404,0 0,-19.842 3.3457,0 0,15.279 6.293,-8.163 6.0937,7.936 0,-15.052 3.4014,0 z"
       id="path17" /><path
       inkscape:connector-curvature="0"
       style="fill:#c0111e;fill-opacity:1;fill-rule:evenodd;stroke:none"
       d="m -542.29472,-741.01674 c 0,4.423 -2.8066,7.483 -6.9453,7.483 -3.9404,0 -6.5762,-3.004 -6.5762,-7.483 0,-4.394 2.7774,-7.427 6.8028,-7.427 3.9687,0 6.7187,3.061 6.7187,7.427 z m -3.2324,0.056 c 0,-2.72 -1.4736,-4.535 -3.5996,-4.535 -2.1826,0 -3.6279,1.815 -3.6279,4.535 0,2.665 1.4736,4.536 3.6562,4.536 2.1543,0 3.5713,-1.814 3.5713,-4.536 z"
       id="path19" /><path
       inkscape:connector-curvature="0"
       style="fill:#c0111e;fill-opacity:1;fill-rule:evenodd;stroke:none"
       d="m -526.84642,-748.04674 0,8.674 c 0,2.126 -0.1983,3.118 -0.9073,4.054 -0.8506,1.105 -2.2675,1.757 -3.9687,1.757 -1.3887,0 -2.2676,-0.312 -3.5996,-1.389 l 0,1.077 -3.0049,0 0,-14.173 3.0049,0 0,8.022 c 0,1.22 0.1982,1.956 0.709,2.522 0.5097,0.568 1.4453,0.936 2.2392,0.936 0.8223,0 1.6445,-0.368 2.0127,-0.936 0.3399,-0.509 0.4531,-1.132 0.4531,-2.494 l 0,-8.05 3.0616,0 z"
       id="path21-1" /><path
       inkscape:connector-curvature="0"
       style="fill:#c0111e;fill-opacity:1;fill-rule:nonzero;stroke:none"
       d="m -517.37872,-740.64774 0,2.664 -5.8955,0 0,-2.664 5.8955,0 z"
       id="path23-7" /><path
       inkscape:connector-curvature="0"
       style="fill:#c0111e;fill-opacity:1;fill-rule:nonzero;stroke:none"
       d="m -497.50732,-742.26374 c 0,1.446 -0.483,2.721 -1.418,3.742 -0.991,1.049 -2.296,1.558 -4.649,1.955 -2.38101,0.397 -2.80601,0.482 -3.71401,0.879 -1.133,0.426 -1.756,1.19 -1.756,2.126 0,1.616 1.616,2.75 3.826,2.75 1.75801,0 3.03401,-0.595 4.50801,-2.155 l 2.635,2.013 c -1.841,2.154 -4.223,3.175 -7.39801,3.175 -4.1954,0 -7.0294,-2.353 -7.0294,-5.868 0,-1.757 0.708,-3.26 1.9834,-4.252 0.992,-0.709 2.098,-1.106 4.564,-1.53 2.01201,-0.313 2.69301,-0.483 3.40201,-0.823 1.02,-0.482 1.588,-1.303 1.588,-2.352 0,-1.645 -1.645,-2.863 -3.91201,-2.863 -2.07,0 -3.686,0.85 -5.5561,2.834 l -2.665,-1.956 c 2.1826,-2.579 5.0171,-3.883 8.3911,-3.883 4.30801,0 7.20001,2.466 7.20001,6.208 z"
       id="path25-4" /><path
       inkscape:connector-curvature="0"
       style="fill:#c0111e;fill-opacity:1;fill-rule:evenodd;stroke:none"
       d="m -481.54832,-746.09174 c -1.361,0.568 -1.503,0.879 -1.503,2.807 l 0,5.188 c 0,1.672 -0.197,2.324 -0.935,3.118 -0.85,0.907 -2.438,1.417 -4.393,1.417 -1.956,0 -3.969,-0.482 -5.897,-1.446 l 1.247,-2.409 c 1.985,0.85 2.977,1.106 4.337,1.106 1.815,0 2.579,-0.681 2.609,-2.268 l 0,-0.454 c -2.382,-0.226 -3.205,-0.34 -4.139,-0.51 -3.033,-0.595 -4.48,-1.899 -4.48,-4.167 0,-2.665 2.326,-4.706 5.387,-4.706 1.615,0 2.891,0.596 3.826,1.758 0.284,-0.964 1.106,-1.559 2.438,-1.758 l 1.503,2.324 z m -4.535,2.524 c 0,-0.822 -0.143,-1.134 -0.54,-1.503 -0.538,-0.481 -1.473,-0.794 -2.21,-0.794 -1.446,0 -2.637,0.937 -2.637,2.099 0,0.963 0.624,1.53 2.013,1.841 0.935,0.228 1.672,0.313 3.374,0.483 l 0,-2.126 z"
       id="path27-0" /><path
       inkscape:connector-curvature="0"
       style="fill:#c0111e;fill-opacity:1;fill-rule:nonzero;stroke:none"
       d="m -469.47232,-747.81974 -0.369,2.665 c -0.653,-0.114 -1.191,-0.171 -1.701,-0.171 -1.474,0 -1.814,0.398 -1.814,2.154 l 0,6.691 3.685,0 0,2.607 -3.685,0 0,5.443 -3.005,-1.078 0,-4.365 -2.608,0 0,-2.607 2.608,0 0,-7.711 c 0,-2.862 1.077,-4.025 3.855,-4.025 0.964,0 2.069,0.141 3.034,0.397 z"
       id="path29" /><path
       inkscape:connector-curvature="0"
       style="fill:#c0111e;fill-opacity:1;fill-rule:evenodd;stroke:none"
       d="m -570.25852,-713.58974 c 0,1.219 -0.3975,2.466 -1.0772,3.289 -0.4258,0.51 -0.8223,0.765 -1.7295,1.247 1.5879,0.794 2.3818,2.239 2.3818,4.167 0,3.23101 -2.665,5.47031 -6.6337,5.47031 -3.9688,0 -6.6329,-2.2673 -6.6329,-5.61231 0,-1.871 0.7081,-3.146 2.4092,-4.167 -1.8427,-0.964 -2.6367,-2.239 -2.6367,-4.28 0,-3.543 2.835,-5.952 6.917,-5.952 4.2236,0 7.002,2.352 7.002,5.838 z m -3.6856,8.249 c 0,-1.644 -1.2754,-2.608 -3.4297,-2.608 -2.126,0 -3.3447,0.964 -3.3447,2.665 0,1.672 1.332,2.806 3.3164,2.806 2.126,0 3.458,-1.134 3.458,-2.863 z m 0.4258,-8.277 c 0,-1.758 -1.418,-2.835 -3.6856,-2.835 -2.2959,0 -3.7695,1.162 -3.7695,2.948 0,1.871 1.502,3.062 3.7979,3.062 2.2675,0 3.6572,-1.191 3.6572,-3.175 z"
       id="path31" /><path
       inkscape:connector-curvature="0"
       style="fill:#c0111e;fill-opacity:1;fill-rule:evenodd;stroke:none"
       d="m -554.10132,-717.30274 c -1.3604,0.567 -1.503,0.878 -1.503,2.806 l 0,5.188 c 0,1.673 -0.1972,2.324 -0.9345,3.118 -0.8506,0.907 -2.4375,1.417 -4.3936,1.417 -1.956,0 -3.9687,-0.482 -5.8965,-1.445 l 1.2471,-2.41 c 1.9844,0.85 2.9766,1.106 4.3369,1.106 1.8145,0 2.5801,-0.681 2.6084,-2.268 l 0,-0.454 c -2.3818,-0.226 -3.2031,-0.34 -4.1387,-0.51 -3.0332,-0.595 -4.4794,-1.899 -4.4794,-4.167 0,-2.665 2.3252,-4.706 5.3867,-4.706 1.6152,0 2.8916,0.596 3.8261,1.758 0.2842,-0.964 1.1055,-1.558 2.4375,-1.758 l 1.503,2.325 z m -4.5352,2.523 c 0,-0.822 -0.1426,-1.134 -0.539,-1.503 -0.5381,-0.481 -1.4737,-0.793 -2.211,-0.793 -1.4453,0 -2.6357,0.936 -2.6357,2.098 0,0.963 0.623,1.53 2.0117,1.842 0.9355,0.227 1.6728,0.312 3.374,0.482 l 0,-2.126 z"
       id="path33" /><path
       inkscape:connector-curvature="0"
       style="fill:#c0111e;fill-opacity:1;fill-rule:evenodd;stroke:none"
       d="m -531.84942,-719.25874 0,8.107 c 0,2.183 -0.1699,3.26 -0.6806,4.11 -0.7647,1.418 -2.2676,2.183 -4.1104,2.183 -1.7002,0 -2.8623,-0.566 -3.8828,-1.9 -0.7656,1.305 -1.9561,1.928 -3.6006,1.928 -1.3887,0 -2.3242,-0.425 -3.4014,-1.502 l 0,1.247 -2.9765,0 0,-14.173 2.9765,0 0,8.05 c 0,1.134 0.1417,1.786 0.5665,2.325 0.4541,0.652 1.248,1.078 2.0127,1.078 0.6806,0 1.3896,-0.313 1.7861,-0.879 0.3691,-0.511 0.4541,-0.964 0.4541,-2.439 l 0,-8.135 3.1181,0 0,8.135 c 0,1.304 0.085,1.786 0.4249,2.24 0.4824,0.68 1.2753,1.105 2.0693,1.105 0.8789,0 1.5879,-0.425 1.9277,-1.133 0.1983,-0.426 0.2549,-1.021 0.2549,-2.212 l 0,-8.135 3.0615,0 z"
       id="path35" /><path
       inkscape:connector-curvature="0"
       style="fill:#c0111e;fill-opacity:1;fill-rule:nonzero;stroke:none"
       d="m -522.18342,-711.85974 0,2.664 -5.8955,0 0,-2.664 5.8955,0 z"
       id="path37" /><path
       inkscape:connector-curvature="0"
       style="fill:#c0111e;fill-opacity:1;fill-rule:evenodd;stroke:none"
       d="m -503.75832,-703.80974 c -1.134,2.92001 -3.232,4.39331 -6.2366,4.39331 -4.875,0 -7.54,-3.76931 -7.54,-10.60131 0,-2.721 0.3974,-4.875 1.2471,-6.293 1.1337,-1.955 3.2597,-3.147 5.6982,-3.147 1.7283,0 3.4583,0.596 4.5353,1.532 1.417,1.275 2.239,3.259 2.239,5.329 0,3.826 -2.522,6.463 -6.2079,6.463 -1.7002,0 -2.9199,-0.482 -4.3369,-1.672 0.2275,1.756 0.4541,2.607 0.8789,3.401 0.7373,1.275 1.9277,1.983 3.4014,1.983 1.5595,0 2.5805,-0.736 3.4025,-2.38 l 2.919,0.992 z m -3.288,-9.042 c 0,-2.212 -1.474,-3.799 -3.5716,-3.799 -2.0977,0 -3.6289,1.729 -3.6289,4.082 0,2.098 1.6162,3.657 3.7138,3.657 2.0977,0 3.4867,-1.588 3.4867,-3.94 z"
       id="path39" /><path
       inkscape:connector-curvature="0"
       style="fill:#c0111e;fill-opacity:1;fill-rule:evenodd;stroke:none"
       d="m -486.69432,-712.20074 c 0,4.337 -2.551,7.37 -6.236,7.37 -1.559,0 -2.523,-0.396 -3.77,-1.615 l 0,1.36 -3.005,0 0,-18.368 3.005,0 0,5.414 c 1.191,-1.049 2.325,-1.474 3.827,-1.474 3.6,0 6.179,3.061 6.179,7.313 z m -3.203,-0.085 c 0,-2.665 -1.389,-4.365 -3.515,-4.365 -0.963,0 -1.729,0.34 -2.352,0.964 -0.681,0.679 -0.879,1.502 -0.879,3.571 0,1.531 0.113,2.354 0.481,2.977 0.511,0.85 1.588,1.417 2.75,1.417 2.183,0 3.515,-1.757 3.515,-4.564 z"
       id="path41" /><path
       inkscape:connector-curvature="0"
       style="fill:#c0111e;fill-opacity:1;fill-rule:evenodd;stroke:none"
       d="m -464.66832,-719.25874 0,8.107 c 0,2.183 -0.17,3.26 -0.68,4.11 -0.766,1.418 -2.269,2.183 -4.111,2.183 -1.701,0 -2.863,-0.566 -3.883,-1.9 -0.766,1.305 -1.956,1.928 -3.6,1.928 -1.389,0 -2.325,-0.425 -3.402,-1.502 l 0,1.247 -2.977,0 0,-14.173 2.977,0 0,8.05 c 0,1.134 0.141,1.786 0.567,2.325 0.453,0.652 1.247,1.078 2.013,1.078 0.68,0 1.389,-0.313 1.785,-0.879 0.369,-0.511 0.454,-0.964 0.454,-2.439 l 0,-8.135 3.118,0 0,8.135 c 0,1.304 0.085,1.786 0.425,2.24 0.483,0.68 1.276,1.105 2.069,1.105 0.879,0 1.588,-0.425 1.928,-1.133 0.198,-0.426 0.255,-1.021 0.255,-2.212 l 0,-8.135 3.062,0 z"
       id="path43" /><path
       inkscape:connector-curvature="0"
       style="fill:#c0111e;fill-opacity:1;fill-rule:nonzero;stroke:none"
       d="m -559.22573,-756.97574 0,-8.504 91.4957,0 0,-8.504 -91.4957,0 0,-8.504 -21.89029,12.756 21.89029,12.756 z"
       id="path45" /><path
       inkscape:connector-curvature="0"
       style="fill:#c0111e;fill-opacity:1;fill-rule:nonzero;stroke:none"
       d="m -558.43822,-656.06294 c 0,18.7871 15.2285,34.0156 34.0156,34.0156 18.7873,0 34.0153,-15.2285 34.0153,-34.0156 0,-18.7871 -15.228,-34.0156 -34.0153,-34.0156 -18.7871,0 -34.0156,15.2285 -34.0156,34.0156 z"
       id="path47" /><path
       inkscape:connector-curvature="0"
       style="fill:#264d8e;fill-opacity:1;fill-rule:nonzero;stroke:none"
       d="m -549.93432,-656.06294 c 0,5.8184 1.9472,11.1826 5.2265,15.4746 l 15.4746,-15.4746 -15.4746,-15.4746 c -3.2793,4.292 -5.2265,9.6563 -5.2265,15.4746 z"
       id="path49" /><path
       inkscape:connector-curvature="0"
       style="fill:#264d8e;fill-opacity:1;fill-rule:nonzero;stroke:none"
       d="m -504.13732,-640.58834 c 3.279,-4.292 5.226,-9.6562 5.226,-15.4746 0,-5.8183 -1.947,-11.1826 -5.226,-15.4746 l -15.4748,15.4746 15.4748,15.4746 z"
       id="path51" /><path
       inkscape:connector-curvature="0"
       style="fill:#264d8e;fill-opacity:1;fill-rule:nonzero;stroke:none"
       d="m -539.89722,-635.77774 c 4.292,3.2793 9.6562,5.2265 15.4746,5.2265 5.8183,0 11.1826,-1.9472 15.4743,-5.2265 l -15.4743,-15.4746 -15.4746,15.4746 z"
       id="path53" /><path
       inkscape:connector-curvature="0"
       style="fill:#264d8e;fill-opacity:1;fill-rule:nonzero;stroke:none"
       d="m -524.42262,-660.87344 15.4743,-15.4746 c -4.2917,-3.2793 -9.656,-5.2266 -15.4743,-5.2266 -5.8184,0 -11.1826,1.9473 -15.4746,5.2266 l 15.4746,15.4746 z"
       id="path55" /></g></svg>