<?xml version="1.0" encoding="UTF-8" standalone="no"?>
<!-- Generator: Adobe Illustrator 12.0.1, SVG Export Plug-In  -->

<svg
   xmlns:dc="http://purl.org/dc/elements/1.1/"
   xmlns:cc="http://creativecommons.org/ns#"
   xmlns:rdf="http://www.w3.org/1999/02/22-rdf-syntax-ns#"
   xmlns:svg="http://www.w3.org/2000/svg"
   xmlns="http://www.w3.org/2000/svg"
   xmlns:sodipodi="http://sodipodi.sourceforge.net/DTD/sodipodi-0.dtd"
   xmlns:inkscape="http://www.inkscape.org/namespaces/inkscape"
   version="1.1"
   width="214.60156"
   height="214.60156"
   viewBox="0 0 214.60158 214.60158"
   enable-background="new 0 0 288 288"
   xml:space="preserve"
   id="svg2"
   inkscape:version="0.48.2 r9819"
   sodipodi:docname="AJAX1.svg"><metadata
   id="metadata72"><rdf:RDF><cc:Work
       rdf:about=""><dc:format>image/svg+xml</dc:format><dc:type
         rdf:resource="http://purl.org/dc/dcmitype/StillImage" /><dc:title /></cc:Work></rdf:RDF></metadata><sodipodi:namedview
   pagecolor="#ffffff"
   bordercolor="#666666"
   borderopacity="1"
   objecttolerance="10"
   gridtolerance="10"
   guidetolerance="10"
   inkscape:pageopacity="0"
   inkscape:pageshadow="2"
   inkscape:window-width="1280"
   inkscape:window-height="1004"
   id="namedview70"
   showgrid="false"
   fit-margin-top="0.25"
   fit-margin-left="0.25"
   fit-margin-right="0.25"
   fit-margin-bottom="0.25"
   inkscape:zoom="1.6388888"
   inkscape:cx="169.18923"
   inkscape:cy="102.18009"
   inkscape:window-x="-8"
   inkscape:window-y="-8"
   inkscape:window-maximized="1"
   inkscape:current-layer="Group1" />
<defs
   id="defs4">
<clipPath
   id="Clip0"><path
     inkscape:connector-curvature="0"
     d="m 0,0 425.197,0 0,340.157 L 0,340.157 0,0 z"
     transform="translate(0.474609,0.964844)"
     id="path7" /></clipPath><clipPath
   id="Clip0-1"><path
     inkscape:connector-curvature="0"
     d="m 0,0 269.291,0 0,141.733 L 0,141.733 0,0 z"
     transform="translate(0.0644531,0.324219)"
     id="path7-7" /></clipPath><clipPath
   id="Clip0-17"><path
     inkscape:connector-curvature="0"
     d="m 0,0 269.291,0 0,141.732 L 0,141.732 0,0 z"
     transform="translate(0.727539,0.548828)"
     id="path7-4" /></clipPath><clipPath
   id="Clip0-174"><path
     inkscape:connector-curvature="0"
     d="m 0,0 340.158,0 0,340.158 L 0,340.158 0,0 z"
     transform="translate(0.630859,0.112305)"
     id="path7-0" /></clipPath><clipPath
   id="Clip0-1740"><path
     inkscape:connector-curvature="0"
     d="m 0,0 269.291,0 0,85.04 L 0,85.04 0,0 z"
     transform="translate(0.40332,0.554688)"
     id="path7-9" /></clipPath></defs>
































<g
   transform="matrix(1.2500001,0,0,1.2500001,-13.734376,-204.5547)"
   id="Background"
   style="fill:#000000"><g
     id="Group1"
     clip-path="url(#Clip0-174)"
     style="fill:#000000"><path
       inkscape:connector-curvature="0"
       style="fill:#ffffff;fill-rule:nonzero;stroke:#000000;stroke-width:1.20000005;stroke-miterlimit:4;stroke-opacity:1;stroke-dasharray:none"
       d="m 11.782098,175.77492 c 0,-6.26175 5.07617,-11.3389 11.3379,-11.3389 l 147.402102,0 c 6.262,0 11.339,5.07715 11.339,11.3389 l 0,147.4021 c 0,6.262 -5.077,11.338 -11.339,11.338 l -147.402102,0 c -6.26173,0 -11.3379,-5.076 -11.3379,-11.338 l 0,-147.4021 z"
       id="path11" /><path
       inkscape:connector-curvature="0"
       style="fill:#0069b3;fill-rule:nonzero;stroke:none"
       d="m 19.152218,175.77494 c 0,-2.19146 1.77636,-3.9688 3.96778,-3.9688 l 147.402222,0 c 2.192,0 3.969,1.77734 3.969,3.9688 l 0,147.4012 c 0,2.192 -1.777,3.969 -3.969,3.969 l -147.402222,0 c -2.19142,0 -3.96778,-1.777 -3.96778,-3.969 l 0,-147.4012 z"
       id="path13" /><path
       style="fill:#ffffff;fill-rule:evenodd;stroke:none"
       d="m 74.144373,180.02681 0,56.6934 9.9121,0 0,-22.1729 18.995197,0 c 4.6513,0 8.5828,-1.874 11.7948,-5.6201 3.102,-3.6172 4.651,-7.8066 4.651,-12.5683 0,-4.3555 -1.864,-8.1934 -5.592,-11.5157 -3.6732,-3.2109 -7.7435,-4.8164 -12.2113,-4.8164 l -27.549797,0 z m 9.4141,9.8555 17.804697,0 c 2.2334,0 4.125,0.6455 5.6748,1.9375 1.6992,1.4033 2.5478,3.2578 2.5478,5.5645 0,2.4169 -0.7197,4.2626 -2.1591,5.5361 -1.4405,1.3291 -3.3506,1.9932 -5.7315,1.9932 l -18.136697,0 0,-15.0313 z"
       id="path15"
       inkscape:connector-curvature="0" /><path
       style="fill:#ffffff;fill-rule:nonzero;stroke:none"
       d="m 138.91997,301.9163 0,5.669 -98.792197,0 0,5.67 98.792197,0 0,5.669 14.5938,-8.504 -14.5938,-8.504 z"
       id="path17"
       inkscape:connector-curvature="0" /><path
       style="fill:#ffffff;fill-rule:nonzero;stroke:none"
       d="m 62.740074,290.56931 6.7696,0 0,-42.52 -4.8389,0 c 0,0.6777 -0.623,1.3281 -1.8691,1.9512 -1.1348,0.5673 -2.1729,0.8515 -3.1143,0.8515 l 0,4.8994 3.0527,0 0,34.8179 z"
       id="path19"
       inkscape:connector-curvature="0" /><path
       style="fill:#ffffff;fill-rule:nonzero;stroke:none"
       d="m 78.582873,258.88621 5.8779,0 c 0,-1.4394 0.6094,-2.7539 1.8282,-3.9443 1.2177,-1.1905 2.5195,-1.7862 3.9043,-1.7862 1.3574,0 2.666,0.6094 3.9257,1.8272 1.1905,1.1904 1.7862,2.3672 1.7862,3.5303 0,0.0273 0,0.0546 0,0.083 -0.042,1.7568 -0.7549,3.3281 -2.1397,4.7119 -0.4297,0.457 -1.7588,1.4812 -3.9873,3.0732 -3.5176,2.491 -6.3144,6.242 -8.3916,11.253 -1.8135,4.401 -2.7207,8.713 -2.7207,12.935 l 23.302697,0 0,-6 -16.158197,0 c 0,-2.409 0.9629,-5.032 2.8868,-7.87 1.8838,-2.74 4.3964,-5.3 7.54,-7.681 3.6553,-2.782 5.482397,-6.0549 5.482397,-9.8196 0,-3.4053 -1.1484,-6.2559 -3.447197,-8.5537 -2.3262,-2.2979 -5.0889,-3.4463 -8.2871,-3.4463 -3.1846,0 -5.8809,1.1348 -8.0899,3.4043 -2.208,2.2695 -3.3125,5.0313 -3.3125,8.2832 z"
       id="path21"
       inkscape:connector-curvature="0" /><path
       style="fill:#ffffff;fill-rule:evenodd;stroke:none"
       d="m 121.61348,291.33431 c 4.359,0 7.549,-1.903 9.57,-5.709 1.868,-3.543 2.802,-8.982 2.802,-16.317 0,-14.7395 -4.152,-22.1096 -12.455,-22.1096 -8.16601,0 -12.24941,7.3701 -12.24941,22.1096 0,14.683 4.1104,22.026 12.33241,22.026 z m 0,-5.915 c -4.27801,0 -6.41601,-5.37 -6.41601,-16.11 0,-10.7415 2.125,-16.1116 6.37401,-16.1116 2.186,0 3.841,1.5713 4.962,4.7129 1.024,2.8096 1.536,6.6097 1.536,11.3987 0,10.74 -2.153,16.11 -6.456,16.11 z"
       id="path23"
       inkscape:connector-curvature="0" /></g></g></svg>