<?xml version="1.0" encoding="UTF-8" standalone="no"?>
<!-- Generator: Adobe Illustrator 14.0.0, SVG Export Plug-In  -->

<svg
   xmlns:dc="http://purl.org/dc/elements/1.1/"
   xmlns:cc="http://creativecommons.org/ns#"
   xmlns:rdf="http://www.w3.org/1999/02/22-rdf-syntax-ns#"
   xmlns:svg="http://www.w3.org/2000/svg"
   xmlns="http://www.w3.org/2000/svg"
   xmlns:sodipodi="http://sodipodi.sourceforge.net/DTD/sodipodi-0.dtd"
   xmlns:inkscape="http://www.inkscape.org/namespaces/inkscape"
   version="1.1"
   x="0px"
   y="0px"
   width="606.40002"
   height="606.40009"
   viewBox="0 -0.321 606.40004 606.40021"
   enable-background="new 0 -0.321 144 120"
   xml:space="preserve"
   id="svg2"
   inkscape:version="0.48.4 r9939"
   sodipodi:docname="Ajax.svg"><metadata
   id="metadata44"><rdf:RDF><cc:Work
       rdf:about=""><dc:format>image/svg+xml</dc:format><dc:type
         rdf:resource="http://purl.org/dc/dcmitype/StillImage" /><dc:title></dc:title></cc:Work></rdf:RDF></metadata><sodipodi:namedview
   pagecolor="#ffffff"
   bordercolor="#666666"
   borderopacity="1"
   objecttolerance="10"
   gridtolerance="10"
   guidetolerance="10"
   inkscape:pageopacity="0"
   inkscape:pageshadow="2"
   inkscape:window-width="1280"
   inkscape:window-height="1001"
   id="namedview42"
   showgrid="false"
   fit-margin-top="0.2"
   fit-margin-left="0.2"
   fit-margin-right="0.2"
   fit-margin-bottom="0.2"
   inkscape:zoom="0.67006655"
   inkscape:cx="423.24101"
   inkscape:cy="282.32591"
   inkscape:window-x="-8"
   inkscape:window-y="-8"
   inkscape:window-maximized="1"
   inkscape:current-layer="svg2"
   showguides="true"
   inkscape:guide-bbox="true" />
<defs
   id="defs4">
</defs>


















<path
   sodipodi:nodetypes="sssss"
   inkscape:connector-curvature="0"
   style="fill:#000000;fill-opacity:1;stroke:none"
   d="M 303.20002,605.87918 C 135.85765,605.87918 0.19994556,470.22144 0.19994556,302.87912 0.19994556,135.53676 135.85765,-0.12099996 303.20001,-0.12099996 c 167.34239,0 303.00007,135.65775996 303.00007,303.00011996 0,167.34231 -135.65768,303.00006 -303.00006,303.00006 z"
   id="path3019" /><path
   sodipodi:nodetypes="sssss"
   inkscape:connector-curvature="0"
   style="fill:#ffffff;fill-opacity:1;stroke:none"
   d="M 303.20005,602.87919 C 137.51453,602.87919 3.2000155,468.56461 3.2000155,302.87916 3.2000155,137.19367 137.51453,2.87907 303.20004,2.87907 c 165.68552,0 300.00004,134.3146 300.00004,300.00009 0,165.68544 -134.31452,300.00003 -300.00003,300.00003 z"
   id="path3021" /><path
   sodipodi:nodetypes="ccccccccccccccccccc"
   inkscape:connector-curvature="0"
   id="path3843"
   d="M 149.40424,562.74091 133.31753,552.31105 118.29151,540.82057 103.97259,528.62297 90.007231,516.07182 77.45615,502.10652 65.258551,487.7876 53.768065,472.76158 43.338212,456.67487 456.9958,43.017268 l 16.08671,10.429861 15.02602,11.490485 14.31892,12.197606 13.9653,12.551089 12.55114,13.965361 12.1976,14.31892 11.49048,15.02602 10.42986,16.08672 z"
   style="fill:#000000;fill-opacity:1;stroke:none" /></svg>