<?xml version="1.0" encoding="UTF-8" standalone="no"?>
<!-- Created with Inkscape (http://www.inkscape.org/) -->

<svg
   xmlns:dc="http://purl.org/dc/elements/1.1/"
   xmlns:cc="http://creativecommons.org/ns#"
   xmlns:rdf="http://www.w3.org/1999/02/22-rdf-syntax-ns#"
   xmlns:svg="http://www.w3.org/2000/svg"
   xmlns="http://www.w3.org/2000/svg"
   xmlns:sodipodi="http://sodipodi.sourceforge.net/DTD/sodipodi-0.dtd"
   xmlns:inkscape="http://www.inkscape.org/namespaces/inkscape"
   id="svg17624"
   version="1.1"
   inkscape:version="0.48.2 r9819"
   width="240.79062"
   height="207.07968"
   xml:space="preserve"
   sodipodi:docname="AJAX1.svg"><metadata
     id="metadata17630"><rdf:RDF><cc:Work
         rdf:about=""><dc:format>image/svg+xml</dc:format><dc:type
           rdf:resource="http://purl.org/dc/dcmitype/StillImage" /><dc:title /></cc:Work></rdf:RDF></metadata><defs
     id="defs17628"><inkscape:perspective
       sodipodi:type="inkscape:persp3d"
       inkscape:vp_x="0 : 0.5 : 1"
       inkscape:vp_y="0 : 1000 : 0"
       inkscape:vp_z="1 : 0.5 : 1"
       inkscape:persp3d-origin="0.5 : 0.33333333 : 1"
       id="perspective17632" /><clipPath
       clipPathUnits="userSpaceOnUse"
       id="clipPath17642"><path
         d="m -2,710 501,0 0,-711 -501,0 0,711 z"
         id="path17644"
         inkscape:connector-curvature="0" /></clipPath><clipPath
       clipPathUnits="userSpaceOnUse"
       id="clipPath17648"><path
         d="m 0,708.06 498,0 0,-708 -498,0 0,708 z"
         id="path17650"
         inkscape:connector-curvature="0" /></clipPath><clipPath
       clipPathUnits="userSpaceOnUse"
       id="clipPath17798"><path
         d="m -2,710 501,0 0,-711 -501,0 0,711 z"
         id="path17800"
         inkscape:connector-curvature="0" /></clipPath><clipPath
       clipPathUnits="userSpaceOnUse"
       id="clipPath17804"><path
         d="m 0,708.06 498,0 0,-708 -498,0 0,708 z"
         id="path17806"
         inkscape:connector-curvature="0" /></clipPath><clipPath
       id="Clip0"><path
         inkscape:connector-curvature="0"
         d="m 0,0 212.597,0 0,269.292 L 0,269.292 0,0 z"
         transform="translate(0.923828,0.879883)"
         id="path7" /></clipPath><clipPath
       id="Clip0-8"><path
         inkscape:connector-curvature="0"
         d="m 0,0 170.079,0 0,113.386 L 0,113.386 0,0 z"
         transform="translate(0.0986328,0.822266)"
         id="path7-8" /></clipPath><clipPath
       id="Clip0-1"><path
         inkscape:connector-curvature="0"
         d="m 0,0 287.009,0 0,159.449 L 0,159.449 0,0 z"
         transform="translate(0.396484,0.267578)"
         id="path7-7" /></clipPath><clipPath
       id="Clip0-9"><path
         inkscape:connector-curvature="0"
         d="m 0,0 170.079,0 0,170.079 L 0,170.079 0,0 z"
         transform="translate(0.460938,0.775391)"
         id="path7-4" /></clipPath><clipPath
       id="Clip0-4"><path
         inkscape:connector-curvature="0"
         d="m 0,0 340.157,0 0,226.771 L 0,226.771 0,0 z"
         transform="translate(0.921875,0.25293)"
         id="path7-5" /></clipPath><clipPath
       id="Clip0-5"><path
         inkscape:connector-curvature="0"
         d="m 0,0 255.119,0 0,170.079 L 0,170.079 0,0 z"
         transform="translate(0.147461,0.0595703)"
         id="path7-1" /></clipPath><clipPath
       id="Clip0-48"><path
         inkscape:connector-curvature="0"
         d="m 0,0 191.339,0 0,164.409 L 0,164.409 0,0 z"
         transform="translate(0.0849609,0.916016)"
         id="path7-82" /></clipPath></defs><sodipodi:namedview
     pagecolor="#ffffff"
     bordercolor="#666666"
     borderopacity="1"
     objecttolerance="10"
     gridtolerance="10"
     guidetolerance="10"
     inkscape:pageopacity="0"
     inkscape:pageshadow="2"
     inkscape:window-width="1280"
     inkscape:window-height="1004"
     id="namedview17626"
     showgrid="false"
     inkscape:zoom="2.8284272"
     inkscape:cx="191.95341"
     inkscape:cy="91.291554"
     inkscape:window-x="-8"
     inkscape:window-y="-8"
     inkscape:window-maximized="1"
     inkscape:current-layer="g17634"
     fit-margin-top="0.2"
     fit-margin-left="0.2"
     fit-margin-right="0.2"
     fit-margin-bottom="0.2"
     showguides="true"
     inkscape:guide-bbox="true" /><g
     id="g17634"
     inkscape:groupmode="layer"
     inkscape:label="GG1999P002"
     transform="matrix(1.25,0,0,-1.25,980.35625,-747.33906)"><path
       inkscape:connector-curvature="0"
       style="fill:#ffffff;fill-rule:nonzero;stroke:#000000;stroke-width:0.95999998;stroke-miterlimit:4;stroke-opacity:1;stroke-dasharray:none"
       d="m -783.64076,-606.99967 c 0,4.69629 3.80762,8.5039 8.50391,8.5039 l 174.33109,0 c 4.696,0 8.504,-3.80761 8.504,-8.5039 l 0,-147.4011 c 0,-4.698 -3.808,-8.504 -8.504,-8.504 l -174.33109,0 c -4.69629,0 -8.50391,3.806 -8.50391,8.504 l 0,147.4011 z"
       id="path11" /><path
       inkscape:connector-curvature="0"
       style="fill:#c0111e;fill-opacity:1;fill-rule:nonzero;stroke:none"
       d="m -781.089,-606.99967 c 0,3.13086 2.53808,5.66894 5.66894,5.66894 l 174.89806,0 c 3.131,0 5.669,-2.53808 5.669,-5.66894 l 0,-147.40106 c 0,-3.132 -2.538,-5.67 -5.669,-5.67 l -174.89806,0 c -3.13086,0 -5.66894,2.538 -5.66894,5.67 l 0,147.40106 z"
       id="path13" /><path
       inkscape:connector-curvature="0"
       style="fill:#ffffff;fill-rule:nonzero;stroke:none"
       d="m -777.12025,-606.99967 c 0,0.62597 0.50781,1.13379 1.13379,1.13379 l 176.03221,0 c 0.625,0 1.133,-0.50782 1.133,-1.13379 l 0,-147.40121 c 0,-0.627 -0.508,-1.134 -1.133,-1.134 l -176.03221,0 c -0.62598,0 -1.13379,0.507 -1.13379,1.134 l 0,147.40121 z"
       id="path15" /><path
       inkscape:connector-curvature="0"
       style="fill:#c0111e;fill-opacity:1;fill-rule:nonzero;stroke:none"
       d="m -770.48252,-696.99965 c 0,19.5693 15.8632,35.4326 35.4326,35.4326 19.5703,0 35.4336,-15.8633 35.4336,-35.4326 0,-19.5691 -15.8633,-35.4341 -35.4336,-35.4341 -19.5694,0 -35.4326,15.865 -35.4326,35.4341 z"
       id="path47" /><path
       inkscape:connector-curvature="0"
       style="fill:#264d8e;fill-opacity:1;fill-rule:nonzero;stroke:none"
       d="m -761.62412,-696.99965 c 0,6.0605 2.0293,11.6484 5.4443,16.1191 l 16.1191,-16.1191 -16.1191,-16.1191 c -3.415,4.471 -5.4443,10.058 -5.4443,16.1191 z"
       id="path49" /><path
       inkscape:connector-curvature="0"
       style="fill:#264d8e;fill-opacity:1;fill-rule:nonzero;stroke:none"
       d="m -713.91912,-680.88055 c 3.4151,-4.4707 5.4444,-10.0586 5.4444,-16.1191 0,-6.0611 -2.0293,-11.6481 -5.4444,-16.1191 l -16.1191,16.1191 16.1191,16.1191 z"
       id="path51" /><path
       inkscape:connector-curvature="0"
       style="fill:#264d8e;fill-opacity:1;fill-rule:nonzero;stroke:none"
       d="m -751.16812,-675.86975 c 4.4707,3.416 10.0576,5.4453 16.1182,5.4453 6.0615,0 11.6484,-2.0293 16.1191,-5.4453 l -16.1191,-16.1192 -16.1182,16.1192 z"
       id="path53" /><path
       inkscape:connector-curvature="0"
       style="fill:#264d8e;fill-opacity:1;fill-rule:nonzero;stroke:none"
       d="m -735.04992,-702.01075 16.1191,-16.119 c -4.4707,-3.416 -10.0576,-5.445 -16.1191,-5.445 -6.0606,0 -11.6475,2.029 -16.1182,5.445 l 16.1182,16.119 z"
       id="path55" /><g
       transform="matrix(1,0,0,-1,-783.72572,-597.57975)"
       id="Background"
       style="fill:#000000;stroke:none"><g
         id="Group1"
         clip-path="url(#Clip0-48)"
         style="fill:#000000;stroke:none"><path
           inkscape:connector-curvature="0"
           style="fill:#000000;fill-rule:nonzero;stroke:none"
           d="M 10.9414,5.6338 14.0449,4.2949 C 12.7266,1.4316 10.4873,0 7.3272,0 4.7051,0 2.7559,1.3037 1.4805,3.9121 0.4883,5.9248 0,8.3623 0.0137,11.2256 c 0.0137,2.9199 0.5957,5.3574 1.7432,7.3135 1.4033,2.3672 3.4306,3.5498 6.08,3.5498 1.545,0 2.8916,-0.4815 4.0401,-1.4453 1.0771,-0.9219 1.8496,-2.168 2.3174,-3.7422 l -3.126,-0.7862 c -0.2402,0.6661 -0.7149,1.2754 -1.4238,1.8282 -0.6944,0.5527 -1.3536,0.8291 -1.9776,0.8291 -1.5732,0 -2.7637,-0.8994 -3.5713,-2.7002 -0.6093,-1.374 -0.914,-2.9405 -0.914,-4.6983 0,-2.041 0.2549,-3.7275 0.7656,-5.0595 0.751,-2.0127 2.0049,-3.0186 3.7627,-3.0186 0.7793,0 1.417,0.1914 1.9131,0.5732 0.4961,0.3692 0.9355,0.9571 1.3183,1.7647 z"
           transform="translate(21.6572,23.0205)"
           id="path17" /><path
           inkscape:connector-curvature="0"
           style="fill:#000000;fill-rule:nonzero;stroke:none"
           d="m 0,0 0,21.2598 12.9678,0 0,-3.125 -9.7148,0 L 3.253,0 0,0 z"
           transform="translate(39.8691,23.4463)"
           id="path19" /><path
           inkscape:connector-curvature="0"
           style="fill:#000000;fill-rule:nonzero;stroke:none"
           d="m 0,0 0,21.2598 12.9687,0 0,-3.3165 -9.6728,0 0,-5.9951 6.207,0 0,-3.3174 -6.207,0 0,-5.2294 8.8857,0 L 12.1816,0 0,0 z"
           transform="translate(56.834,23.4463)"
           id="path21" /><path
           inkscape:connector-curvature="0"
           style="fill:#000000;fill-rule:evenodd;stroke:none"
           d="M 7.207,0 0,21.2383 l 3.5498,0 1.956,-5.9951 6.8028,0 2.084,5.9951 3.4443,0 L 10.5654,0 7.207,0 z m 3.8477,11.8418 -4.3369,0 2.1259,-6.336 2.211,6.336 z"
           transform="translate(72.3965,23.4463)"
           id="path23" /><path
           inkscape:connector-curvature="0"
           style="fill:#000000;fill-rule:evenodd;stroke:none"
           d="m 3.2314,3.3164 4.4651,0 c 0.694,0 1.31,0.2412 1.849,0.7227 0.553,0.4824 0.83,1.0488 0.83,1.7011 0,0.6944 -0.242,1.3252 -0.724,1.8916 -0.525,0.5957 -1.134,0.8926 -1.828,0.8926 l -4.5921,0 0,-5.208 z M 0,0 l 0,21.2598 3.2314,0 0,-9.3116 4.1021,0 3.445,9.3116 3.444,0 -3.806,-10.0352 c 2.113,-1.3604 3.168,-3.1035 3.168,-5.2295 0,-1.6016 -0.567,-2.998 -1.701,-4.1885 C 10.7645,0.6016 9.4325,0 7.8865,0 L 0,0 z"
           transform="translate(94.1875,23.4463)"
           id="path25" /><path
           inkscape:connector-curvature="0"
           style="fill:#000000;fill-rule:nonzero;stroke:none"
           d="m 0,0 3.019,21.2598 3.018,0 3.36,-13.3516 3.338,13.3516 3.04,0 L 18.73,0 15.37,0 13.755,11.1191 10.991,0 7.972,0 4.953,11.1191 3.338,0 0,0 z"
           transform="translate(112.322,23.4463)"
           id="path27" /><path
           inkscape:connector-curvature="0"
           style="fill:#000000;fill-rule:evenodd;stroke:none"
           d="M 7.207,0 0,21.2383 l 3.55,0 1.956,-5.9951 6.803,0 2.084,5.9951 3.444,0 L 10.566,0 7.207,0 z m 3.848,11.8418 -4.337,0 2.126,-6.336 2.211,6.336 z"
           transform="translate(132.455,23.4463)"
           id="path29" /><path
           inkscape:connector-curvature="0"
           style="fill:#000000;fill-rule:nonzero;stroke:none"
           d="m 0,0 7.463,12.1182 0,9.1416 3.295,0 0,-9.1416 L 18.071,0 14.159,0 9.035,8.248 3.975,0 0,0 z"
           transform="translate(151.844,23.4463)"
           id="path31" /><path
           inkscape:connector-curvature="0"
           style="fill:#000000;fill-rule:nonzero;stroke:none"
           d="M 15.307,15.874 15.307,0 12.2,0 7.71,5.919 3.1513,0 0,0 l 0,15.874 2.6758,0 0,-12.224 5.0342,6.532 4.875,-6.35 0,12.042 2.722,0 z"
           transform="translate(95.293,126.916)"
           id="path33" /><path
           inkscape:connector-curvature="0"
           style="fill:#000000;fill-rule:evenodd;stroke:none"
           d="M 10.817,5.986 C 10.817,2.448 8.572,0 5.261,0 2.109,0 0,2.403 0,5.986 c 0,3.515 2.222,5.941 5.442,5.941 3.176,0 5.375,-2.449 5.375,-5.941 z M 8.232,5.94 c 0,2.177 -1.18,3.629 -2.88,3.629 -1.746,0 -2.903,-1.452 -2.903,-3.629 0,-2.131 1.18,-3.628 2.926,-3.628 1.723,0 2.857,1.451 2.857,3.628 z"
           transform="translate(114.137,131.18)"
           id="path35" /><path
           inkscape:connector-curvature="0"
           style="fill:#000000;fill-rule:evenodd;stroke:none"
           d="m 9.184,11.588 0,-6.939 C 9.184,2.948 9.025,2.154 8.458,1.405 7.778,0.522 6.644,0 5.283,0 4.173,0 3.47,0.249 2.403,1.111 l 0,-0.862 -2.403,0 0,11.339 2.403,0 0,-6.418 c 0,-0.976 0.159,-1.564 0.568,-2.018 0.408,-0.454 1.156,-0.749 1.791,-0.749 0.658,0 1.315,0.295 1.61,0.749 0.272,0.408 0.362,0.907 0.362,1.996 l 0,6.44 2.45,0 z"
           transform="translate(128.129,131.202)"
           id="path37" /><path
           inkscape:connector-curvature="0"
           style="fill:#000000;fill-rule:nonzero;stroke:none"
           d="M 4.717,2.132 4.717,0 0,0 l 0,2.132 4.717,0 z"
           transform="translate(140.17,134.739)"
           id="path39" /><path
           inkscape:connector-curvature="0"
           style="fill:#000000;fill-rule:nonzero;stroke:none"
           d="M 10.045,2.517 10.045,0 0,0 l 0,15.874 2.699,0 0,-6.78 6.757,0 0,-2.495 -6.757,0 0,-4.082 7.346,0 z"
           transform="translate(149.649,126.916)"
           id="path41" /><path
           inkscape:connector-curvature="0"
           style="fill:#000000;fill-rule:evenodd;stroke:none"
           d="m 6.009,2.495 0,-2.472 C 5.759,0 5.578,0 5.465,0 4.127,0 3.243,0.409 2.381,1.475 l 0,-1.316 -2.381,0 0,11.339 2.403,0 0,-5.261 c 0,-1.723 0.341,-2.631 1.134,-3.198 0.59,-0.363 1.18,-0.521 2.472,-0.544 z"
           transform="translate(161.804,131.292)"
           id="path43" /><path
           inkscape:connector-curvature="0"
           style="fill:#000000;fill-rule:evenodd;stroke:none"
           d="M 3.085,1.519 C 3.085,0.725 2.382,0 1.588,0 0.703,0 0,0.703 0,1.519 0,2.381 0.703,3.06 1.565,3.06 c 0.817,0 1.52,-0.679 1.52,-1.541 z m -0.319,14.264 0,-11.318 -2.449,0 0,11.318 2.449,0 z"
           transform="translate(169.763,127.007)"
           id="path45" /><path
           inkscape:connector-curvature="0"
           style="fill:#000000;fill-rule:nonzero;stroke:none"
           d="m 2.359,21.2598 2.722,0 C 5.081,14.0459 6.356,7.8877 8.907,2.7861 L 8.907,0 0,0 l 0,2.6152 6.165,0 C 3.628,7.959 2.359,14.1738 2.359,21.2598 z"
           transform="translate(105.846,56.084)"
           id="path57" /><path
           inkscape:connector-curvature="0"
           style="fill:#000000;fill-rule:nonzero;stroke:none"
           d="M 8.099,2.3604 8.099,0 0,0 l 0,2.3604 8.099,0 z"
           transform="translate(118.006,68.0957)"
           id="path59" /><path
           inkscape:connector-curvature="0"
           style="fill:#000000;fill-rule:evenodd;stroke:none"
           d="M 4.38,10.3887 C 3.628,10.3887 3.132,9.9355 2.892,9.0283 2.764,8.5605 2.701,7.7949 2.701,6.7324 2.701,5.4277 2.779,4.4931 2.934,3.9258 3.175,3.0898 3.643,2.6719 4.337,2.6719 c 0.794,0 1.326,0.4179 1.595,1.2539 0.184,0.5673 0.276,1.5019 0.276,2.8066 0,1.1758 -0.113,2.041 -0.34,2.5938 -0.284,0.7089 -0.78,1.0625 -1.488,1.0625 z M 1.787,21.6348 C 4.862,19.042 6.874,16.1719 7.824,13.0254 8.561,10.6015 8.922,8.4892 8.909,6.6894 8.894,4.3515 8.511,2.6504 7.76,1.5869 7.023,0.5664 5.882,0.043 4.337,0.0137 2.906,0 1.815,0.5596 1.063,1.6933 0.355,2.7568 0,4.2168 0,6.0732 c 0,2.4375 0.333,4.1885 0.999,5.251 0.425,0.6943 1.127,1.1973 2.105,1.5098 0.482,0.1552 0.915,0.2402 1.297,0.2549 0.227,0 0.418,-0.043 0.574,-0.128 -0.411,1.1621 -1.141,2.3887 -2.189,3.6787 -0.894,1.0205 -1.787,2.041 -2.679,3.0616 l 1.68,1.9336 z"
           transform="translate(129.315,55.709)"
           id="path61" /><path
           inkscape:connector-curvature="0"
           style="fill:#000000;fill-rule:evenodd;stroke:none"
           d="M 7.887,7.5137 C 7.072,7.1738 6.986,6.9873 6.986,5.831 l 0,-3.1113 C 6.986,1.7168 6.868,1.3262 6.425,0.8496 5.916,0.3066 4.963,0 3.791,0 2.618,0 1.41,0.289 0.254,0.8672 l 0.748,1.4453 c 1.19,-0.5108 1.786,-0.6631 2.601,-0.6631 1.088,0 1.547,0.4072 1.564,1.3594 l 0,0.2724 C 3.74,3.417 3.247,3.4853 2.685,3.5869 0.866,3.9443 0,4.7265 0,6.0859 0,7.6836 1.393,8.9082 3.229,8.9082 4.198,8.9082 4.963,8.5508 5.524,7.8545 5.695,8.4316 6.187,8.789 6.986,8.9082 L 7.887,7.5137 z M 5.167,6.001 C 5.167,6.4941 5.083,6.6816 4.844,6.9023 4.521,7.1914 3.96,7.3779 3.518,7.3779 2.652,7.3779 1.937,6.8174 1.937,6.1201 1.937,5.542 2.311,5.2021 3.144,5.0146 3.706,4.8789 4.147,4.8281 5.167,4.7265 l 0,1.2745 z"
           transform="translate(141.062,68.584)"
           id="path63" /><path
           inkscape:connector-curvature="0"
           style="fill:#000000;fill-rule:evenodd;stroke:none"
           d="m 11.186,8.6533 0,-4.8623 C 11.186,2.4814 11.084,1.8359 10.778,1.3261 10.319,0.4756 9.418,0.0166 8.313,0.0166 7.293,0.0166 6.596,0.3564 5.984,1.1562 5.526,0.374 4.811,0 3.826,0 2.993,0 2.431,0.2548 1.786,0.9013 l 0,-0.748 -1.786,0 0,8.5 1.786,0 0,-4.8281 C 1.786,3.1445 1.871,2.7539 2.125,2.4306 2.397,2.04 2.873,1.7851 3.332,1.7851 c 0.408,0 0.833,0.1865 1.071,0.5264 0.221,0.3066 0.272,0.5781 0.272,1.4619 l 0,4.8799 1.87,0 0,-4.8799 C 6.545,2.9922 6.596,2.7031 6.8,2.4306 7.089,2.0224 7.565,1.7675 8.041,1.7675 c 0.527,0 0.953,0.2549 1.156,0.6807 0.119,0.2549 0.153,0.6113 0.153,1.3252 l 0,4.8799 1.836,0 z"
           transform="translate(151.108,68.6182)"
           id="path65" /><path
           inkscape:connector-curvature="0"
           style="fill:#000000;fill-rule:evenodd;stroke:none"
           d="m 6.7187,5.2305 0,8.2271 -3.9121,0 3.9121,-8.2271 z M 6.3994,0 0,13.4796 l 0,2.572 6.7187,0 0,5.208 2.6577,0 0,-5.208 1.041,0 0,-2.594 -1.041,0 0,-13.4576 -2.977,0 z"
           transform="translate(90.7676,91.4824)"
           id="path67" /><path
           inkscape:connector-curvature="0"
           style="fill:#000000;fill-rule:nonzero;stroke:none"
           d="M 8.099,2.359 8.099,0 0,0 l 0,2.359 8.099,0 z"
           transform="translate(104.396,103.495)"
           id="path69" /><path
           inkscape:connector-curvature="0"
           style="fill:#000000;fill-rule:nonzero;stroke:none"
           d="m 0.638,0 -0.34,10.2266 2.466,0.446 c 0.51,-0.68 1.105,-1.02 1.786,-1.02 0.708,0 1.183,0.404 1.424,1.212 0.156,0.539 0.234,1.466 0.234,2.785 0,2.182 -0.837,3.869 -2.509,5.059 -0.283,0.2 -0.702,0.298 -1.255,0.298 -0.424,0 -0.885,-0.092 -1.381,-0.276 L 0,21.0046 c 0.879,0.355 1.396,0.546 1.552,0.575 0.226,0.056 0.673,0.084 1.339,0.084 1.489,0 2.878,-0.864 4.167,-2.593 1.233,-1.687 1.849,-3.437 1.849,-5.251 0,-2.281 -0.353,-3.976 -1.062,-5.081 C 7.094,7.5762 5.903,6.9951 4.274,6.9951 3.947,6.9951 3.529,7.0947 3.019,7.293 l 0.17,-4.6983 5.124,0 L 8.313,0 0.638,0 z"
           transform="translate(115.705,91.4824)"
           id="path71" /><path
           inkscape:connector-curvature="0"
           style="fill:#000000;fill-rule:nonzero;stroke:none"
           d="M 0,1.275 C 0,0.571 0.572,0 1.276,0 1.981,0 2.551,0.571 2.551,1.275 2.551,1.98 1.981,2.551 1.276,2.551 0.572,2.551 0,1.98 0,1.275 z"
           transform="translate(127.447,100.803)"
           id="path73" /><path
           inkscape:connector-curvature="0"
           style="fill:#000000;fill-rule:nonzero;stroke:none"
           d="m 0,17.7954 c 0,1.232 0.425,2.26 1.275,3.082 0.851,0.807 1.864,1.211 3.04,1.211 1.489,0 2.637,-0.644 3.445,-1.934 0.736,-1.162 1.105,-2.686 1.105,-4.57 0,-2.609 -0.524,-4.458 -1.573,-5.549 C 8.058,8.6319 8.439,6.959 8.439,5.0176 8.439,3.6143 8.064,2.4385 7.313,1.4883 6.52,0.4961 5.521,0 4.315,0 3.182,0 2.211,0.3477 1.402,1.042 0.481,1.836 0.021,2.9199 0.021,4.2949 l 2.508,0 C 2.529,3.8272 2.756,3.4307 3.21,3.1045 3.593,2.835 3.976,2.7002 4.357,2.7002 c 0.27,0 0.582,0.1983 0.936,0.5957 0.354,0.3828 0.539,0.751 0.553,1.1055 C 5.86,4.6983 5.867,4.8613 5.867,4.8897 5.867,5.8682 5.726,6.711 5.442,7.4199 5.088,8.3125 4.578,8.7598 3.911,8.7598 l -0.914,0 0,2.6146 1.36,0 c 0.696,0 1.212,0.539 1.553,1.616 0.227,0.751 0.34,1.615 0.34,2.594 0,1.005 -0.148,1.878 -0.446,2.615 -0.368,0.864 -0.865,1.296 -1.489,1.296 -0.878,0 -1.474,-0.567 -1.786,-1.7 l -2.529,0 z"
           transform="translate(131.416,91.0576)"
           id="path75" /><path
           inkscape:connector-curvature="0"
           style="fill:#000000;fill-rule:evenodd;stroke:none"
           d="m 4.783,22.0884 c 1.97,-0.014 3.303,-1.055 3.997,-3.125 0.524,-1.558 0.786,-4.195 0.786,-7.909 C 9.566,7.4551 9.304,4.8545 8.78,3.2529 8.057,1.084 6.724,0 4.783,0 2.841,0 1.516,1.084 0.807,3.2529 0.269,4.8545 0,7.4551 0,11.0544 c 0,3.629 0.261,6.23 0.786,7.803 0.709,2.169 2.041,3.245 3.997,3.231 z m 0,-2.699 c -0.907,-0.014 -1.524,-0.837 -1.85,-2.467 -0.241,-1.204 -0.361,-3.153 -0.361,-5.846 0,-2.6223 0.135,-4.5637 0.404,-5.8254 0.34,-1.6152 0.943,-2.4229 1.807,-2.4229 0.864,0 1.467,0.8077 1.808,2.4229 0.268,1.2617 0.403,3.2031 0.403,5.8254 0,2.693 -0.12,4.642 -0.361,5.846 -0.34,1.659 -0.957,2.481 -1.85,2.467 z"
           transform="translate(143.513,91.0576)"
           id="path77" /><path
           inkscape:connector-curvature="0"
           style="fill:#000000;fill-rule:evenodd;stroke:none"
           d="M 7.803,4.42 C 7.803,1.819 6.273,0 4.063,0 3.128,0 2.55,0.238 1.802,0.968 l 0,-0.815 -1.802,0 0,11.899 1.802,0 0,-4.13 C 2.516,8.55 3.196,8.805 4.097,8.805 6.256,8.805 7.803,6.969 7.803,4.42 z M 5.882,4.47 C 5.882,6.069 5.049,7.089 3.774,7.089 3.196,7.089 2.737,6.884 2.363,6.51 1.954,6.103 1.836,5.61 1.836,4.369 c 0,-0.918 0.068,-1.411 0.289,-1.785 0.306,-0.51 0.953,-0.85 1.649,-0.85 1.309,0 2.108,1.054 2.108,2.736 z"
           transform="translate(156.36,104.013)"
           id="path79" /><path
           inkscape:connector-curvature="0"
           style="fill:#000000;fill-rule:evenodd;stroke:none"
           d="m 11.186,8.653 0,-4.862 c 0,-1.31 -0.102,-1.955 -0.408,-2.465 -0.459,-0.851 -1.36,-1.31 -2.465,-1.31 -1.02,0 -1.717,0.34 -2.329,1.14 C 5.525,0.374 4.811,0 3.825,0 2.992,0 2.431,0.255 1.785,0.901 l 0,-0.748 -1.785,0 0,8.5 1.785,0 0,-4.828 C 1.785,3.144 1.87,2.754 2.125,2.43 2.397,2.04 2.873,1.785 3.332,1.785 c 0.408,0 0.833,0.186 1.071,0.526 0.221,0.307 0.272,0.578 0.272,1.463 l 0,4.879 1.87,0 0,-4.879 C 6.545,2.992 6.596,2.703 6.8,2.43 7.089,2.023 7.565,1.767 8.041,1.767 8.568,1.767 8.993,2.023 9.197,2.448 9.316,2.703 9.35,3.06 9.35,3.774 l 0,4.879 1.836,0 z"
           transform="translate(166.186,104.013)"
           id="path81" /></g></g></g></svg>