<?xml version="1.0" encoding="UTF-8" standalone="no"?>
<!-- Created with Inkscape (http://www.inkscape.org/) -->

<svg
   xmlns:dc="http://purl.org/dc/elements/1.1/"
   xmlns:cc="http://creativecommons.org/ns#"
   xmlns:rdf="http://www.w3.org/1999/02/22-rdf-syntax-ns#"
   xmlns:svg="http://www.w3.org/2000/svg"
   xmlns="http://www.w3.org/2000/svg"
   xmlns:sodipodi="http://sodipodi.sourceforge.net/DTD/sodipodi-0.dtd"
   xmlns:inkscape="http://www.inkscape.org/namespaces/inkscape"
   id="svg17624"
   version="1.1"
   inkscape:version="0.48.4 r9939"
   width="200.2"
   height="200.2"
   xml:space="preserve"
   sodipodi:docname="Ajax.svg"><metadata
     id="metadata17630"><rdf:RDF><cc:Work
         rdf:about=""><dc:format>image/svg+xml</dc:format><dc:type
           rdf:resource="http://purl.org/dc/dcmitype/StillImage" /><dc:title /></cc:Work></rdf:RDF></metadata><defs
     id="defs17628"><inkscape:perspective
       sodipodi:type="inkscape:persp3d"
       inkscape:vp_x="0 : 0.5 : 1"
       inkscape:vp_y="0 : 1000 : 0"
       inkscape:vp_z="1 : 0.5 : 1"
       inkscape:persp3d-origin="0.5 : 0.33333333 : 1"
       id="perspective17632" /><clipPath
       clipPathUnits="userSpaceOnUse"
       id="clipPath17642"><path
         d="m -2,710 501,0 0,-711 -501,0 0,711 z"
         id="path17644"
         inkscape:connector-curvature="0" /></clipPath><clipPath
       clipPathUnits="userSpaceOnUse"
       id="clipPath17648"><path
         d="m 0,708.06 498,0 0,-708 -498,0 0,708 z"
         id="path17650"
         inkscape:connector-curvature="0" /></clipPath><clipPath
       clipPathUnits="userSpaceOnUse"
       id="clipPath17798"><path
         d="m -2,710 501,0 0,-711 -501,0 0,711 z"
         id="path17800"
         inkscape:connector-curvature="0" /></clipPath><clipPath
       clipPathUnits="userSpaceOnUse"
       id="clipPath17804"><path
         d="m 0,708.06 498,0 0,-708 -498,0 0,708 z"
         id="path17806"
         inkscape:connector-curvature="0" /></clipPath><clipPath
       id="Clip0"><path
         inkscape:connector-curvature="0"
         d="m 0,0 212.597,0 0,269.292 L 0,269.292 0,0 z"
         transform="translate(0.923828,0.879883)"
         id="path7" /></clipPath></defs><sodipodi:namedview
     pagecolor="#ffffff"
     bordercolor="#666666"
     borderopacity="1"
     objecttolerance="10"
     gridtolerance="10"
     guidetolerance="10"
     inkscape:pageopacity="0"
     inkscape:pageshadow="2"
     inkscape:window-width="1280"
     inkscape:window-height="1001"
     id="namedview17626"
     showgrid="false"
     inkscape:zoom="1.6491337"
     inkscape:cx="73.358287"
     inkscape:cy="68.887489"
     inkscape:window-x="-8"
     inkscape:window-y="-8"
     inkscape:window-maximized="1"
     inkscape:current-layer="g17634"
     fit-margin-top="0.1"
     fit-margin-left="0.1"
     fit-margin-right="0.1"
     fit-margin-bottom="0.1"
     showguides="true"
     inkscape:guide-bbox="true" /><g
     id="g17634"
     inkscape:groupmode="layer"
     inkscape:label="GG1999P002"
     transform="matrix(1.25,0,0,-1.25,160.49062,77.404678)"><path
       sodipodi:nodetypes="sssss"
       inkscape:connector-curvature="0"
       id="path3787"
       d="m 31.6875,-18.156349 c 0,44.18241 -35.816846,80.000091 -80.000009,80.000091 -44.183435,0 -79.999991,-35.817587 -79.999991,-80.000001 0,-44.18334 35.816556,-80 79.999991,-80 44.183163,0 80.000009,35.81656 80.000009,79.9999 z"
       style="fill:#0069b3;fill-opacity:1;fill-rule:nonzero;stroke:none" /><path
       style="fill:#ffffff;fill-rule:nonzero;stroke:none"
       d="m -112.3109,-2.1570588 127.996848,0 0,-31.9983992 -127.996848,0 z"
       id="path13"
       inkscape:connector-curvature="0"
       sodipodi:nodetypes="ccccc" /><path
       inkscape:connector-curvature="0"
       style="fill:#0069b3;fill-opacity:1;fill-rule:nonzero;stroke:none;overflow:visible"
       d="m -74.178096,-7.9410566 0,-20.4304004 12.46245,0 0,3.186664 -9.29559,0 0,5.761656 5.9654,0 0,3.187628 -5.9654,0 0,5.025529 8.5401,0 0,3.2689234 -11.70696,0 z"
       id="path21-7" /><path
       inkscape:connector-curvature="0"
       style="fill:#0069b3;fill-opacity:1;fill-rule:nonzero;stroke:none;overflow:visible"
       d="m -54.094806,-17.870165 -5.00535,-10.501292 3.53431,0 3.18752,6.782711 3.53431,-6.782711 3.41182,0 -5.08702,10.501292 4.73977,9.9291084 -3.53474,0 -3.06414,-6.0683044 -2.86045,6.0683044 -3.67787,0 4.82184,-9.9291084 z"
       id="path23-4" /><path
       inkscape:connector-curvature="0"
       style="fill:#0069b3;fill-opacity:1;fill-rule:nonzero;stroke:none;overflow:visible"
       d="m -41.774976,-28.371457 3.20727,0 0,20.4304004 -3.20727,0 0,-20.4304004 z"
       id="path25-0" /><path
       inkscape:connector-curvature="0"
       style="fill:#0069b3;fill-opacity:1;fill-rule:nonzero;stroke:none;overflow:visible"
       d="m -34.910636,-7.9410566 0,-3.0032094 4.69928,0 0,-17.427191 3.0848,0 0,17.427191 4.67861,0 0,3.0032094 -12.46268,0 z"
       id="path27-9" /></g></svg>