<?xml version="1.0" encoding="UTF-8" standalone="no"?>
<!-- Created with Inkscape (http://www.inkscape.org/) -->

<svg
   xmlns:dc="http://purl.org/dc/elements/1.1/"
   xmlns:cc="http://creativecommons.org/ns#"
   xmlns:rdf="http://www.w3.org/1999/02/22-rdf-syntax-ns#"
   xmlns:svg="http://www.w3.org/2000/svg"
   xmlns="http://www.w3.org/2000/svg"
   xmlns:sodipodi="http://sodipodi.sourceforge.net/DTD/sodipodi-0.dtd"
   xmlns:inkscape="http://www.inkscape.org/namespaces/inkscape"
   id="svg17624"
   version="1.1"
   inkscape:version="0.48.2 r9819"
   width="320.11719"
   height="107.5"
   xml:space="preserve"
   sodipodi:docname="AA4.svg"><metadata
     id="metadata17630"><rdf:RDF><cc:Work
         rdf:about=""><dc:format>image/svg+xml</dc:format><dc:type
           rdf:resource="http://purl.org/dc/dcmitype/StillImage" /><dc:title></dc:title></cc:Work></rdf:RDF></metadata><defs
     id="defs17628"><inkscape:perspective
       sodipodi:type="inkscape:persp3d"
       inkscape:vp_x="0 : 0.5 : 1"
       inkscape:vp_y="0 : 1000 : 0"
       inkscape:vp_z="1 : 0.5 : 1"
       inkscape:persp3d-origin="0.5 : 0.33333333 : 1"
       id="perspective17632" /><clipPath
       clipPathUnits="userSpaceOnUse"
       id="clipPath17642"><path
         d="m -2,710 501,0 0,-711 -501,0 0,711 z"
         id="path17644"
         inkscape:connector-curvature="0" /></clipPath><clipPath
       clipPathUnits="userSpaceOnUse"
       id="clipPath17648"><path
         d="m 0,708.06 498,0 0,-708 -498,0 0,708 z"
         id="path17650"
         inkscape:connector-curvature="0" /></clipPath><clipPath
       clipPathUnits="userSpaceOnUse"
       id="clipPath17798"><path
         d="m -2,710 501,0 0,-711 -501,0 0,711 z"
         id="path17800"
         inkscape:connector-curvature="0" /></clipPath><clipPath
       clipPathUnits="userSpaceOnUse"
       id="clipPath17804"><path
         d="m 0,708.06 498,0 0,-708 -498,0 0,708 z"
         id="path17806"
         inkscape:connector-curvature="0" /></clipPath><clipPath
       id="Clip0"><path
         inkscape:connector-curvature="0"
         d="m 0,0 212.597,0 0,269.292 L 0,269.292 0,0 z"
         transform="translate(0.923828,0.879883)"
         id="path7" /></clipPath><clipPath
       id="Clip0-8"><path
         inkscape:connector-curvature="0"
         d="m 0,0 170.079,0 0,113.386 L 0,113.386 0,0 z"
         transform="translate(0.0986328,0.822266)"
         id="path7-8" /></clipPath><clipPath
       id="Clip0-1"><path
         inkscape:connector-curvature="0"
         d="m 0,0 287.009,0 0,159.449 L 0,159.449 0,0 z"
         transform="translate(0.396484,0.267578)"
         id="path7-7" /></clipPath><clipPath
       id="Clip0-9"><path
         inkscape:connector-curvature="0"
         d="m 0,0 170.079,0 0,170.079 L 0,170.079 0,0 z"
         transform="translate(0.460938,0.775391)"
         id="path7-4" /></clipPath><clipPath
       id="Clip0-4"><path
         inkscape:connector-curvature="0"
         d="m 0,0 340.157,0 0,226.771 L 0,226.771 0,0 z"
         transform="translate(0.921875,0.25293)"
         id="path7-5" /></clipPath><clipPath
       id="Clip0-5"><path
         inkscape:connector-curvature="0"
         d="m 0,0 255.119,0 0,170.079 L 0,170.079 0,0 z"
         transform="translate(0.147461,0.0595703)"
         id="path7-1" /></clipPath></defs><sodipodi:namedview
     pagecolor="#ffffff"
     bordercolor="#666666"
     borderopacity="1"
     objecttolerance="10"
     gridtolerance="10"
     guidetolerance="10"
     inkscape:pageopacity="0"
     inkscape:pageshadow="2"
     inkscape:window-width="1280"
     inkscape:window-height="1004"
     id="namedview17626"
     showgrid="false"
     inkscape:zoom="1.4142136"
     inkscape:cx="182.79034"
     inkscape:cy="196.52999"
     inkscape:window-x="-8"
     inkscape:window-y="-8"
     inkscape:window-maximized="1"
     inkscape:current-layer="g17634"
     fit-margin-top="0"
     fit-margin-left="0"
     fit-margin-right="0"
     fit-margin-bottom="0"
     showguides="true"
     inkscape:guide-bbox="true" /><g
     id="g17634"
     inkscape:groupmode="layer"
     inkscape:label="GG1999P002"
     transform="matrix(1.25,0,0,-1.25,1143.5938,-1310.2734)"><path
       inkscape:connector-curvature="0"
       style="fill:#ffffff;fill-rule:nonzero;stroke:#000000;stroke-width:0.95999998;stroke-miterlimit:4;stroke-opacity:1;stroke-dasharray:none"
       d="m -914.3945,-1060.0421 c 0,6.2617 5.07617,11.3388 11.3379,11.3388 l 232.4411,0 c 6.262,0 11.339,-5.0771 11.339,-11.3388 l 0,-62.3623 c 0,-6.2618 -5.077,-11.3389 -11.339,-11.3389 l -232.4411,0 c -6.26173,0 -11.3379,5.0771 -11.3379,11.3389 l 0,62.3623 z"
       id="path11" /><path
       inkscape:connector-curvature="0"
       style="fill:#c0111e;fill-opacity:1;fill-rule:nonzero;stroke:none"
       d="m -911.56051,-1060.0421 c 0,4.6962 3.80761,8.5038 8.50393,8.5038 l 232.44107,0 c 4.696,0 8.504,-3.8076 8.504,-8.5038 l 0,-62.3624 c 0,-4.6963 -3.808,-8.5039 -8.504,-8.5039 l -232.44107,0 c -4.69632,0 -8.50393,3.8076 -8.50393,8.5039 l 0,62.3624 z"
       id="path13" /><path
       inkscape:connector-curvature="0"
       style="fill:#ffffff;fill-rule:nonzero;stroke:none"
       d="m -907.30856,-1060.0421 c 0,2.3486 1.9043,4.2519 4.25198,4.2519 l 232.44102,0 c 2.348,0 4.252,-1.9033 4.252,-4.2519 l 0,-62.3623 c 0,-2.3487 -1.904,-4.252 -4.252,-4.252 l -232.44102,0 c -2.34768,0 -4.25198,1.9033 -4.25198,4.252 l 0,62.3623 z"
       id="path15" /><path
       inkscape:connector-curvature="0"
       style="fill:#c0111e;fill-opacity:1;fill-rule:nonzero;stroke:none"
       d="m -880.90328,-1084.0812 0,-28.3467 3.9394,0 0,13.6914 5.8116,0 0,4.0528 -5.8116,0 0,6.6904 10.2334,0 0,3.9121 -14.1728,0 z"
       id="path17" /><path
       inkscape:connector-curvature="0"
       style="fill:#c0111e;fill-opacity:1;fill-rule:evenodd;stroke:none"
       d="m -853.66308,-1112.9669 c 2.7588,0 4.8379,1.3232 6.2364,3.9687 1.3037,2.5137 1.956,6.1035 1.956,10.7715 0,9.8076 -2.7119,14.7119 -8.1357,14.7119 -5.5557,0 -8.334,-4.9043 -8.334,-14.7119 0,-9.8262 2.7588,-14.7402 8.2773,-14.7402 z m 0,4.082 c -1.6064,0 -2.75,1.0303 -3.4297,3.0898 -0.5488,1.6817 -0.8222,4.2051 -0.8222,7.5684 0,7.1807 1.417,10.7715 4.2519,10.7715 2.8155,0 4.2237,-3.5908 4.2237,-10.7715 0,-7.1055 -1.4082,-10.6582 -4.2237,-10.6582 z"
       id="path19" /><path
       inkscape:connector-curvature="0"
       style="fill:#c0111e;fill-opacity:1;fill-rule:evenodd;stroke:none"
       d="m -828.09568,-1098.6232 c 1.2481,0.4346 2.2588,1.3506 3.0332,2.75 0.6992,1.2842 1.0488,2.6543 1.0488,4.1094 0,1.8711 -0.5761,3.5908 -1.7285,5.1592 -1.2285,1.6816 -2.6836,2.5224 -4.3662,2.5234 l -9.4951,0 0,-28.3467 3.9111,0 0,13.1524 3.6856,0 3.7695,-13.1524 4.2236,0 -4.082,13.8047 z m -2.6357,3.4297 -4.961,0 0,7.0586 4.9893,0 c 1.7002,0 2.5508,-1.1621 2.5508,-3.4873 0,-0.9444 -0.208,-1.7471 -0.6231,-2.4092 -0.4726,-0.7744 -1.125,-1.1621 -1.956,-1.1621 z"
       id="path21" /><path
       inkscape:connector-curvature="0"
       style="fill:#c0111e;fill-opacity:1;fill-rule:nonzero;stroke:none"
       d="m -793.75338,-1069.9445 -1.02,-21.8125 5.442,-0.7656 c 1.191,1.7295 2.864,2.5947 5.018,2.5947 4.054,-0.029 6.066,-2.7646 6.038,-8.207 0,-2.3252 -0.638,-4.3233 -1.913,-5.9951 -1.531,-2.041 -3.686,-3.0899 -6.464,-3.1465 -1.36,-0.028 -2.905,0.5947 -4.634,1.8701 l -4.295,-4.0811 c 3.175,-2.5224 6.393,-3.7841 9.652,-3.7841 3.998,0 7.342,1.6865 10.035,5.0595 2.467,3.1182 3.699,6.6612 3.699,10.6299 0,3.8555 -1.049,7.044 -3.146,9.5674 -2.24,2.6357 -5.173,3.9541 -8.802,3.9541 -1.445,0 -2.82,-0.1982 -4.124,-0.5957 l 0.383,8.6318 13.861,0 0,6.0801 -19.73,0 z"
       id="path23" /><path
       inkscape:connector-curvature="0"
       style="fill:#c0111e;fill-opacity:1;fill-rule:nonzero;stroke:none"
       d="m -724.65838,-1112.4835 -8.589,12.5019 8.589,8.7588 -6.122,0 -8.376,-8.7588 0,16.9219 -4.551,0 0,-29.4238 4.551,0 0,6.5908 2.806,2.8066 6.208,-9.3974 5.484,0 z"
       id="path25" /><path
       inkscape:connector-curvature="0"
       style="fill:#c0111e;fill-opacity:1;fill-rule:nonzero;stroke:none"
       d="m -692.76738,-1112.4835 0,12.1611 c 0,3.2744 -0.255,4.8896 -1.021,6.165 -1.148,2.126 -3.402,3.2744 -6.166,3.2744 -2.55,0 -4.294,-0.8505 -5.825,-2.8496 -1.147,1.9561 -2.933,2.8926 -5.399,2.8926 -2.084,0 -3.488,-0.6387 -5.103,-2.2539 l 0,1.8711 -4.465,0 0,-21.2607 4.465,0 0,12.0761 c 0,1.7012 0.212,2.6787 0.85,3.4864 0.68,0.9785 1.871,1.6162 3.019,1.6162 1.021,0 2.084,-0.4678 2.679,-1.3184 0.553,-0.7656 0.681,-1.4453 0.681,-3.6562 l 0,-12.2041 4.676,0 0,12.2041 c 0,1.955 0.128,2.6787 0.638,3.3584 0.724,1.0205 1.914,1.6582 3.105,1.6582 1.317,0 2.38,-0.6377 2.89,-1.7002 0.298,-0.6377 0.383,-1.5313 0.383,-3.3164 l 0,-12.2041 4.593,0 z"
       id="path27" /></g></svg>