<?xml version="1.0" encoding="UTF-8" standalone="no"?>
<!-- Created with Sodipodi ("http://www.sodipodi.com/") -->

<svg
   xmlns:dc="http://purl.org/dc/elements/1.1/"
   xmlns:cc="http://creativecommons.org/ns#"
   xmlns:rdf="http://www.w3.org/1999/02/22-rdf-syntax-ns#"
   xmlns:svg="http://www.w3.org/2000/svg"
   xmlns="http://www.w3.org/2000/svg"
   xmlns:xlink="http://www.w3.org/1999/xlink"
   xmlns:sodipodi="http://sodipodi.sourceforge.net/DTD/sodipodi-0.dtd"
   xmlns:inkscape="http://www.inkscape.org/namespaces/inkscape"
   height="426.59625"
   id="svg1"
   sodipodi:docname="77.svg"
   sodipodi:version="0.32"
   width="426.5975"
   inkscape:version="0.48.4 r9939"
   version="1.0">
  <defs
     id="defs3">
    <linearGradient
       id="linearGradient1108">
      <stop
         id="stop1109"
         offset="0"
         style="stop-color:#000;stop-opacity:1;" />
      <stop
         id="stop1110"
         offset="1"
         style="stop-color:#fff;stop-opacity:1;" />
    </linearGradient>
    <linearGradient
       id="linearGradient1111"
       xlink:href="#linearGradient1108" />
    <linearGradient
       id="linearGradient1112"
       xlink:href="#linearGradient1108" />
    <linearGradient
       id="linearGradient1113"
       xlink:href="#linearGradient1108" />
    <linearGradient
       id="linearGradient1114"
       xlink:href="#linearGradient1108" />
    <linearGradient
       id="linearGradient1115"
       xlink:href="#linearGradient1108" />
    <linearGradient
       id="linearGradient1116"
       xlink:href="#linearGradient1108" />
    <linearGradient
       id="linearGradient1117"
       xlink:href="#linearGradient1108" />
    <linearGradient
       id="linearGradient1118"
       xlink:href="#linearGradient1108" />
    <linearGradient
       id="linearGradient1119"
       xlink:href="#linearGradient1108" />
    <linearGradient
       id="linearGradient1120"
       xlink:href="#linearGradient1108" />
    <linearGradient
       id="linearGradient1121"
       xlink:href="#linearGradient1108" />
    <linearGradient
       id="linearGradient1122"
       xlink:href="#linearGradient1108" />
    <linearGradient
       id="linearGradient1123"
       xlink:href="#linearGradient1108" />
    <linearGradient
       id="linearGradient1124"
       xlink:href="#linearGradient1108" />
    <linearGradient
       id="linearGradient1125"
       xlink:href="#linearGradient1108" />
    <linearGradient
       id="linearGradient1126"
       xlink:href="#linearGradient1108" />
    <linearGradient
       id="linearGradient1127"
       xlink:href="#linearGradient1108" />
    <linearGradient
       id="linearGradient1128"
       xlink:href="#linearGradient1108" />
    <linearGradient
       id="linearGradient1129"
       xlink:href="#linearGradient1108" />
    <linearGradient
       id="linearGradient1130"
       xlink:href="#linearGradient1108" />
    <linearGradient
       id="linearGradient1131"
       xlink:href="#linearGradient1108" />
    <linearGradient
       id="linearGradient1132"
       xlink:href="#linearGradient1108" />
    <linearGradient
       id="linearGradient1133"
       xlink:href="#linearGradient1108" />
    <linearGradient
       id="linearGradient1134"
       xlink:href="#linearGradient1108" />
    <linearGradient
       id="linearGradient1135"
       xlink:href="#linearGradient1108" />
    <linearGradient
       id="linearGradient1136"
       xlink:href="#linearGradient1108" />
    <linearGradient
       id="linearGradient1137"
       xlink:href="#linearGradient1108" />
    <linearGradient
       id="linearGradient1138"
       xlink:href="#linearGradient1108" />
    <linearGradient
       id="linearGradient1139"
       xlink:href="#linearGradient1108" />
    <linearGradient
       id="linearGradient1140"
       xlink:href="#linearGradient1108" />
    <linearGradient
       id="linearGradient1141"
       xlink:href="#linearGradient1108" />
    <linearGradient
       id="linearGradient1142"
       xlink:href="#linearGradient1108" />
    <linearGradient
       id="linearGradient1143"
       xlink:href="#linearGradient1108" />
    <linearGradient
       id="linearGradient1144"
       xlink:href="#linearGradient1108" />
    <linearGradient
       id="linearGradient1145"
       xlink:href="#linearGradient1108" />
    <linearGradient
       id="linearGradient1146"
       xlink:href="#linearGradient1108" />
    <linearGradient
       id="linearGradient1147"
       xlink:href="#linearGradient1108" />
    <linearGradient
       id="linearGradient1148"
       xlink:href="#linearGradient1108" />
    <linearGradient
       id="linearGradient1149"
       xlink:href="#linearGradient1108" />
    <linearGradient
       id="linearGradient1150"
       xlink:href="#linearGradient1108" />
    <linearGradient
       id="linearGradient1151"
       xlink:href="#linearGradient1108" />
    <linearGradient
       id="linearGradient1152"
       xlink:href="#linearGradient1108" />
    <linearGradient
       id="linearGradient1153"
       xlink:href="#linearGradient1108" />
    <linearGradient
       id="linearGradient1154"
       xlink:href="#linearGradient1108" />
    <linearGradient
       id="linearGradient1155"
       xlink:href="#linearGradient1108" />
    <linearGradient
       id="linearGradient1156"
       xlink:href="#linearGradient1108" />
    <linearGradient
       id="linearGradient1157"
       xlink:href="#linearGradient1108" />
    <linearGradient
       id="linearGradient1158"
       xlink:href="#linearGradient1108" />
    <linearGradient
       id="linearGradient1159"
       xlink:href="#linearGradient1108" />
    <linearGradient
       id="linearGradient1160"
       xlink:href="#linearGradient1108" />
    <linearGradient
       id="linearGradient1161"
       xlink:href="#linearGradient1108" />
    <linearGradient
       id="linearGradient1162"
       xlink:href="#linearGradient1108" />
    <linearGradient
       id="linearGradient1163"
       xlink:href="#linearGradient1108" />
    <linearGradient
       id="linearGradient1164"
       xlink:href="#linearGradient1108" />
    <linearGradient
       id="linearGradient1165"
       xlink:href="#linearGradient1108" />
    <linearGradient
       id="linearGradient1166"
       xlink:href="#linearGradient1108" />
    <linearGradient
       id="linearGradient1167"
       xlink:href="#linearGradient1108" />
    <linearGradient
       id="linearGradient1168"
       xlink:href="#linearGradient1108" />
    <linearGradient
       id="linearGradient1169"
       xlink:href="#linearGradient1108" />
    <linearGradient
       id="linearGradient1170"
       xlink:href="#linearGradient1108" />
    <linearGradient
       id="linearGradient1171"
       xlink:href="#linearGradient1108" />
    <linearGradient
       id="linearGradient1172"
       xlink:href="#linearGradient1108" />
  </defs>
  <sodipodi:namedview
     id="base"
     showgrid="false"
     snaptogrid="true"
     inkscape:zoom="0.94791593"
     inkscape:cx="192.55625"
     inkscape:cy="183.6519"
     inkscape:window-width="1280"
     inkscape:window-height="1001"
     inkscape:window-x="-8"
     inkscape:window-y="-8"
     inkscape:current-layer="svg1"
     showguides="true"
     inkscape:guide-bbox="true"
     fit-margin-top="0.7"
     fit-margin-left="0.7"
     fit-margin-right="0.7"
     fit-margin-bottom="0.7"
     inkscape:window-maximized="1" />
  <metadata
     id="metadata9086">
    <rdf:RDF>
      <cc:Work
         rdf:about="">
        <dc:title></dc:title>
        <dc:description />
        <dc:subject>
          <rdf:Bag>
            <rdf:li>oceania</rdf:li>
            <rdf:li>flags</rdf:li>
            <rdf:li>sign</rdf:li>
            <rdf:li>signs_and_symbols</rdf:li>
            <rdf:li />
            <rdf:li>australia</rdf:li>
          </rdf:Bag>
        </dc:subject>
        <dc:publisher>
          <cc:Agent
             rdf:about="http://www.openclipart.org">
            <dc:title>Caleb Moore</dc:title>
          </cc:Agent>
        </dc:publisher>
        <dc:creator>
          <cc:Agent
             rdf:about="">
            <dc:title>Caleb Moore</dc:title>
          </cc:Agent>
        </dc:creator>
        <dc:rights>
          <cc:Agent
             rdf:about="">
            <dc:title>Caleb Moore</dc:title>
          </cc:Agent>
        </dc:rights>
        <dc:date />
        <dc:format>image/svg+xml</dc:format>
        <dc:type
           rdf:resource="http://purl.org/dc/dcmitype/StillImage" />
        <cc:license
           rdf:resource="http://web.resource.org/cc/PublicDomain">
          <dc:date />
        </cc:license>
        <dc:language>en</dc:language>
      </cc:Work>
      <cc:License
         rdf:about="http://web.resource.org/cc/PublicDomain">
        <cc:permits
           rdf:resource="http://web.resource.org/cc/Reproduction" />
        <cc:permits
           rdf:resource="http://web.resource.org/cc/Distribution" />
        <cc:permits
           rdf:resource="http://web.resource.org/cc/DerivativeWorks" />
      </cc:License>
    </rdf:RDF>
  </metadata>
  <path
     inkscape:connector-curvature="0"
     style="fill:#ffffff;fill-rule:nonzero;stroke:#000000;stroke-opacity:1"
     d="M 0.7,21.95975 C 0.7,10.21783 10.21904,0.7 21.95975,0.7 l 382.67775,0 c 11.74125,0 21.26,9.51783 21.26,21.25975 l 0,382.6765 c 0,11.74125 -9.51875,21.26 -21.26,21.26 l -382.67775,0 C 10.21904,425.89625 0.7,416.3775 0.7,404.63625 l 0,-382.6765 z"
     id="path11" />
  <path
     inkscape:connector-curvature="0"
     style="fill:#000000;fill-rule:nonzero;stroke:none"
     d="m 4.24371,21.95973 c 0,-9.78511 7.93212,-17.71725 17.716,-17.71725 l 382.67774,0 c 9.78375,0 17.71625,7.93214 17.71625,17.71725 l 0,382.6765 c 0,9.785 -7.9325,17.71625 -17.71625,17.71625 l -382.67774,0 c -9.78388,0 -17.716,-7.93125 -17.716,-17.71625 l 0,-382.6765 z"
     id="path13" />
  <path
     inkscape:connector-curvature="0"
     style="fill:#ffffff;fill-rule:nonzero;stroke:none"
     d="m 11.32988,21.95978 c 0,-5.87162 4.75949,-10.6299 10.62986,-10.6299 l 382.67764,0 c 5.87125,0 10.63,4.75828 10.63,10.6299 l 0,382.67635 c 0,5.87125 -4.75875,10.63 -10.63,10.63 l -382.67764,0 c -5.87037,0 -10.62986,-4.75875 -10.62986,-10.63 l 0,-382.67635 z"
     id="path15" />
  <path
     inkscape:connector-curvature="0"
     style="fill:#c0111e;fill-rule:nonzero;stroke:none;fill-opacity:1"
     d="m 106.99999,213.2969 c 0,58.70875 47.59013,106.29875 106.29938,106.29875 58.70875,0 106.29875,-47.59 106.29875,-106.29875 0,-58.70825 -47.59,-106.29812 -106.29875,-106.29812 -58.70925,0 -106.29938,47.58987 -106.29938,106.29812 z m -53.15062,0 c 0,-88.062 71.38675,-159.44749 159.45,-159.44749 88.0625,0 159.44875,71.38549 159.44875,159.44749 0,88.0625 -71.38625,159.44875 -159.44875,159.44875 -88.06325,0 -159.45,-71.38625 -159.45,-159.44875 z"
     id="path17-4" />
  <path
     inkscape:connector-curvature="0"
     style="fill:#000000;fill-rule:evenodd;stroke:none"
     d="m 165.89262,199.50865 c -3.82625,0 -7.19375,-1.16875 -10.1,-3.5075 -2.905,-2.34 -4.3575,-5.10375 -4.3575,-8.2925 0,-4.1825 1.80625,-7.4775 5.42125,-9.8875 2.76375,-1.915 5.74,-2.87 8.93,-2.87 4.3225,0 7.79625,0.99125 10.41875,2.97625 2.9775,2.26875 4.46375,5.5275 4.46375,9.78125 0,3.33 -1.415,6.13 -4.25125,8.3975 -2.76375,2.26875 -6.2725,3.4025 -10.525,3.4025 z m 0.5325,51.88125 c -4.89125,0 -9.28625,-1.8075 -13.18375,-5.42125 -3.82625,-3.6175 -5.74125,-7.69125 -5.74125,-12.22625 0,-4.67875 2.16375,-8.82375 6.48625,-12.43875 3.8975,-3.19 7.725,-4.785 11.48125,-4.785 5.38625,0 10.02875,1.55875 13.9275,4.67875 4.11,3.40125 6.16625,7.68875 6.16625,12.86375 0,4.89 -1.915,9 -5.74125,12.3325 -3.8275,3.33 -8.2925,4.99625 -13.395,4.99625 z m 22.005,-44.54625 c 5.74125,-4.605 8.6125,-11.23375 8.6125,-19.88 0,-8.15 -2.94,-15.06 -8.82375,-20.73 -5.8825,-5.67125 -13.36,-8.505 -22.4325,-8.505 -8.43375,0 -15.6625,2.94125 -21.6875,8.82375 -6.025,5.88375 -9.0375,12.79125 -9.0375,20.73125 0,4.67625 0.81625,8.61 2.44625,11.8 1.34625,2.6225 3.615,5.4225 6.80375,8.4 -8.93,5.95375 -13.39375,14.175 -13.39375,24.6625 0,9.71125 3.5775,18.145 10.7375,25.30375 7.2275,7.1575 15.48375,10.735 24.77,10.735 10.84375,0 19.525,-3.365 26.04625,-10.0975 6.3775,-6.52125 9.5675,-15.1675 9.5675,-25.94125 0,-9.49625 -4.53625,-17.93 -13.60875,-25.3025 z"
     id="path19" />
  <path
     inkscape:connector-curvature="0"
     style="fill:#000000;fill-rule:evenodd;stroke:none"
     d="m 258.27637,268.1849 c 24.8075,0 37.21125,-18.39 37.21125,-55.175 0,-36.855 -12.40375,-55.28125 -37.21125,-55.28125 -24.805,0 -37.2075,18.42625 -37.2075,55.28125 0,36.785 12.4025,55.175 37.2075,55.175 z m 0,-16.2625 c -13.82,0 -20.73,-12.97125 -20.73,-38.9125 0,-25.93875 6.91,-38.91 20.73,-38.91 13.75,0 20.625,12.97125 20.625,38.91 0,25.94125 -6.875,38.9125 -20.625,38.9125 z"
     id="path21" />
</svg>
