<?xml version="1.0" encoding="UTF-8" standalone="no"?>
<!-- Created with Inkscape (http://www.inkscape.org/) -->

<svg
   xmlns:dc="http://purl.org/dc/elements/1.1/"
   xmlns:cc="http://creativecommons.org/ns#"
   xmlns:rdf="http://www.w3.org/1999/02/22-rdf-syntax-ns#"
   xmlns:svg="http://www.w3.org/2000/svg"
   xmlns="http://www.w3.org/2000/svg"
   xmlns:sodipodi="http://sodipodi.sourceforge.net/DTD/sodipodi-0.dtd"
   xmlns:inkscape="http://www.inkscape.org/namespaces/inkscape"
   id="svg17624"
   version="1.1"
   inkscape:version="0.48.2 r9819"
   width="240.79062"
   height="162.82187"
   xml:space="preserve"
   sodipodi:docname="AJAX1.svg"><metadata
     id="metadata17630"><rdf:RDF><cc:Work
         rdf:about=""><dc:format>image/svg+xml</dc:format><dc:type
           rdf:resource="http://purl.org/dc/dcmitype/StillImage" /><dc:title /></cc:Work></rdf:RDF></metadata><defs
     id="defs17628"><inkscape:perspective
       sodipodi:type="inkscape:persp3d"
       inkscape:vp_x="0 : 0.5 : 1"
       inkscape:vp_y="0 : 1000 : 0"
       inkscape:vp_z="1 : 0.5 : 1"
       inkscape:persp3d-origin="0.5 : 0.33333333 : 1"
       id="perspective17632" /><clipPath
       clipPathUnits="userSpaceOnUse"
       id="clipPath17642"><path
         d="m -2,710 501,0 0,-711 -501,0 0,711 z"
         id="path17644"
         inkscape:connector-curvature="0" /></clipPath><clipPath
       clipPathUnits="userSpaceOnUse"
       id="clipPath17648"><path
         d="m 0,708.06 498,0 0,-708 -498,0 0,708 z"
         id="path17650"
         inkscape:connector-curvature="0" /></clipPath><clipPath
       clipPathUnits="userSpaceOnUse"
       id="clipPath17798"><path
         d="m -2,710 501,0 0,-711 -501,0 0,711 z"
         id="path17800"
         inkscape:connector-curvature="0" /></clipPath><clipPath
       clipPathUnits="userSpaceOnUse"
       id="clipPath17804"><path
         d="m 0,708.06 498,0 0,-708 -498,0 0,708 z"
         id="path17806"
         inkscape:connector-curvature="0" /></clipPath><clipPath
       id="Clip0"><path
         inkscape:connector-curvature="0"
         d="m 0,0 212.597,0 0,269.292 L 0,269.292 0,0 z"
         transform="translate(0.923828,0.879883)"
         id="path7" /></clipPath><clipPath
       id="Clip0-8"><path
         inkscape:connector-curvature="0"
         d="m 0,0 170.079,0 0,113.386 L 0,113.386 0,0 z"
         transform="translate(0.0986328,0.822266)"
         id="path7-8" /></clipPath><clipPath
       id="Clip0-1"><path
         inkscape:connector-curvature="0"
         d="m 0,0 287.009,0 0,159.449 L 0,159.449 0,0 z"
         transform="translate(0.396484,0.267578)"
         id="path7-7" /></clipPath><clipPath
       id="Clip0-9"><path
         inkscape:connector-curvature="0"
         d="m 0,0 170.079,0 0,170.079 L 0,170.079 0,0 z"
         transform="translate(0.460938,0.775391)"
         id="path7-4" /></clipPath><clipPath
       id="Clip0-4"><path
         inkscape:connector-curvature="0"
         d="m 0,0 340.157,0 0,226.771 L 0,226.771 0,0 z"
         transform="translate(0.921875,0.25293)"
         id="path7-5" /></clipPath><clipPath
       id="Clip0-5"><path
         inkscape:connector-curvature="0"
         d="m 0,0 255.119,0 0,170.079 L 0,170.079 0,0 z"
         transform="translate(0.147461,0.0595703)"
         id="path7-1" /></clipPath></defs><sodipodi:namedview
     pagecolor="#ffffff"
     bordercolor="#666666"
     borderopacity="1"
     objecttolerance="10"
     gridtolerance="10"
     guidetolerance="10"
     inkscape:pageopacity="0"
     inkscape:pageshadow="2"
     inkscape:window-width="1280"
     inkscape:window-height="1004"
     id="namedview17626"
     showgrid="false"
     inkscape:zoom="2.8284272"
     inkscape:cx="85.936553"
     inkscape:cy="129.42133"
     inkscape:window-x="-8"
     inkscape:window-y="-8"
     inkscape:window-maximized="1"
     inkscape:current-layer="g17634"
     fit-margin-top="0.2"
     fit-margin-left="0.2"
     fit-margin-right="0.2"
     fit-margin-bottom="0.2"
     showguides="true"
     inkscape:guide-bbox="true" /><g
     id="g17634"
     inkscape:groupmode="layer"
     inkscape:label="GG1999P002"
     transform="matrix(1.25,0,0,-1.25,971.37188,-1065.5031)"><path
       inkscape:connector-curvature="0"
       style="fill:#ffffff;fill-rule:nonzero;stroke:#000000;stroke-width:0.96;stroke-miterlimit:4;stroke-opacity:1;stroke-dasharray:none"
       d="m -776.45434,-861.54637 c 0,4.69629 3.80664,8.50391 8.50391,8.50391 l 174.33109,0 c 4.697,0 8.504,-3.80762 8.504,-8.50391 l 0,-111.96909 c 0,-4.696 -3.807,-8.504 -8.504,-8.504 l -174.33109,0 c -4.69727,0 -8.50391,3.808 -8.50391,8.504 l 0,111.96909 z"
       id="path11" /><path
       inkscape:connector-curvature="0"
       style="fill:#c0111e;fill-opacity:1;fill-rule:nonzero;stroke:none"
       d="m -773.90357,-861.54637 c 0,3.28711 2.66504,5.95313 5.95313,5.95313 l 174.32987,0 c 3.288,0 5.953,-2.66602 5.953,-5.95313 l 0,-111.96887 c 0,-3.287 -2.665,-5.952 -5.953,-5.952 l -174.32987,0 c -3.28809,0 -5.95313,2.665 -5.95313,5.952 l 0,111.96887 z"
       id="path13" /><path
       inkscape:connector-curvature="0"
       style="fill:#ffffff;fill-rule:nonzero;stroke:none"
       d="m -769.93482,-861.54637 c 0,1.0957 0.88867,1.98438 1.98438,1.98438 l 174.32962,0 c 1.097,0 1.985,-0.88868 1.985,-1.98438 l 0,-111.96862 c 0,-1.096 -0.888,-1.984 -1.985,-1.984 l -174.32962,0 c -1.09571,0 -1.98438,0.888 -1.98438,1.984 l 0,111.96862 z"
       id="path15" /><path
       inkscape:connector-curvature="0"
       style="fill:#c0111e;fill-opacity:1;fill-rule:nonzero;stroke:none"
       d="m -760.0139,-933.82955 c 0,19.5693 15.8642,35.4326 35.4336,35.4326 19.5693,0 35.4326,-15.8633 35.4326,-35.4326 0,-19.5696 -15.8633,-35.4336 -35.4326,-35.4336 -19.5694,0 -35.4336,15.864 -35.4336,35.4336 z"
       id="path47-1" /><path
       inkscape:connector-curvature="0"
       style="fill:#264d8e;fill-opacity:1;fill-rule:nonzero;stroke:none"
       d="m -752.0061,-933.82955 c 0,6.0605 2.0293,11.6474 5.4453,16.1191 l 16.1191,-16.1191 -16.1191,-16.1192 c -3.416,4.4707 -5.4453,10.0577 -5.4453,16.1192 z"
       id="path49-7" /><path
       inkscape:connector-curvature="0"
       style="fill:#264d8e;fill-opacity:1;fill-rule:nonzero;stroke:none"
       d="m -704.301,-917.71045 c 3.416,-4.4717 5.4453,-10.0586 5.4453,-16.1191 0,-6.0615 -2.0293,-11.6485 -5.4453,-16.1192 l -16.1192,16.1192 16.1192,16.1191 z"
       id="path51-4" /><path
       inkscape:connector-curvature="0"
       style="fill:#264d8e;fill-opacity:1;fill-rule:nonzero;stroke:none"
       d="m -741.5501,-912.69965 c 4.4708,3.416 10.0586,5.4443 16.1192,5.4443 6.0615,0 11.6484,-2.0283 16.1191,-5.4443 l -16.1191,-16.1192 -16.1192,16.1192 z"
       id="path53-0" /><path
       inkscape:connector-curvature="0"
       style="fill:#264d8e;fill-opacity:1;fill-rule:nonzero;stroke:none"
       d="m -725.4309,-938.84125 16.1191,-16.1179 c -4.4707,-3.416 -10.0576,-5.446 -16.1191,-5.446 -6.0606,0 -11.6484,2.03 -16.1192,5.446 l 16.1192,16.1179 z"
       id="path55-9" /><path
       inkscape:connector-curvature="0"
       style="fill:#000000;fill-rule:nonzero;stroke:none"
       d="m -743.9417,-871.01805 3.1045,1.3398 c -1.3183,2.8623 -3.5576,4.294 -6.7187,4.294 -2.6221,0 -4.5703,-1.3037 -5.8457,-3.9111 -0.9922,-2.0127 -1.4815,-4.4502 -1.4668,-7.3135 0.0137,-2.9199 0.5947,-5.3574 1.7432,-7.3135 1.4023,-2.3672 3.4296,-3.5498 6.08,-3.5498 1.545,0 2.8916,0.4814 4.0391,1.4453 1.0771,0.9209 1.8496,2.168 2.3174,3.7412 l -3.125,0.7871 c -0.2412,-0.667 -0.7158,-1.2763 -1.4248,-1.8291 -0.6944,-0.5527 -1.3535,-0.8291 -1.9766,-0.8291 -1.5732,0 -2.7637,0.9004 -3.5723,2.7002 -0.6093,1.375 -0.914,2.9414 -0.914,4.6983 0,2.041 0.2558,3.7275 0.7656,5.0605 0.751,2.0127 2.0059,3.0186 3.7627,3.0186 0.7803,0 1.418,-0.1914 1.9141,-0.5743 0.4951,-0.3681 0.9345,-0.956 1.3173,-1.7646 z"
       id="path17" /><path
       inkscape:connector-curvature="0"
       style="fill:#000000;fill-rule:nonzero;stroke:none"
       d="m -736.6702,-865.80905 0,-21.2598 12.9678,0 0,3.125 -9.7158,0 0,18.1348 -3.252,0 z"
       id="path19" /><path
       inkscape:connector-curvature="0"
       style="fill:#000000;fill-rule:nonzero;stroke:none"
       d="m -719.7053,-865.80905 0,-21.2598 12.9677,0 0,3.3164 -9.6728,0 0,5.9951 6.208,0 0,3.3164 -6.208,0 0,5.2305 8.8867,0 0,3.4014 -12.1816,0 z"
       id="path21" /><path
       inkscape:connector-curvature="0"
       style="fill:#000000;fill-rule:evenodd;stroke:none"
       d="m -696.9368,-865.80905 -7.207,-21.2383 3.5508,0 1.956,5.9951 6.8028,0 2.084,-5.9951 3.4433,0 -7.2705,21.2383 -3.3594,0 z m 3.8487,-11.8418 -4.337,0 2.126,6.3359 2.211,-6.3359 z"
       id="path23" /><path
       inkscape:connector-curvature="0"
       style="fill:#000000;fill-rule:evenodd;stroke:none"
       d="m -679.1213,-869.12545 4.4646,0 c 0.695,0 1.312,-0.2412 1.85,-0.7227 0.553,-0.4824 0.829,-1.0488 0.829,-1.7011 0,-0.6944 -0.241,-1.3252 -0.723,-1.8926 -0.524,-0.5948 -1.134,-0.8926 -1.828,-0.8926 l -4.5926,0 0,5.209 z m -3.2315,3.3164 0,-21.2598 3.2315,0 0,9.3115 4.1036,0 3.444,-9.3115 3.444,0 -3.806,10.0342 c 2.112,1.3613 3.168,3.1045 3.168,5.2305 0,1.6015 -0.567,2.997 -1.7,4.1875 -1.12,1.205 -2.452,1.8076 -3.997,1.8076 l -7.8881,0 z"
       id="path25" /><path
       inkscape:connector-curvature="0"
       style="fill:#000000;fill-rule:nonzero;stroke:none"
       d="m -664.2177,-865.80905 3.018,-21.2598 3.02,0 3.358,13.3506 3.338,-13.3506 3.04,0 2.956,21.2598 -3.359,0 -1.616,-11.1192 -2.764,11.1192 -3.019,0 -3.019,-11.1192 -1.615,11.1192 -3.338,0 z"
       id="path27" /><path
       inkscape:connector-curvature="0"
       style="fill:#000000;fill-rule:evenodd;stroke:none"
       d="m -636.8777,-865.80905 -7.208,-21.2383 3.551,0 1.956,5.9951 6.803,0 2.084,-5.9951 3.443,0 -7.27,21.2383 -3.359,0 z m 3.848,-11.8418 -4.338,0 2.127,6.3359 2.211,-6.3359 z"
       id="path29" /><path
       inkscape:connector-curvature="0"
       style="fill:#000000;fill-rule:nonzero;stroke:none"
       d="m -624.6957,-865.80905 7.462,-12.1182 0,-9.1416 3.295,0 0,9.1416 7.313,12.1182 -3.912,0 -5.123,-8.249 -5.059,8.249 -3.976,0 z"
       id="path31" /><path
       inkscape:connector-curvature="0"
       style="fill:#000000;fill-rule:nonzero;stroke:none"
       d="m -663.9227,-959.48315 0,15.8733 -3.108,0 -4.489,-5.918 -4.559,5.918 -3.152,0 0,-15.8733 2.677,0 0,12.2229 5.034,-6.5309 4.875,6.3493 0,-12.0413 2.722,0 z"
       id="path33" /><path
       inkscape:connector-curvature="0"
       style="fill:#000000;fill-rule:evenodd;stroke:none"
       d="m -649.5687,-953.86015 c 0,3.5384 -2.245,5.9876 -5.557,5.9876 -3.151,0 -5.26,-2.4033 -5.26,-5.9876 0,-3.514 2.222,-5.941 5.442,-5.941 3.175,0 5.375,2.449 5.375,5.941 z m -2.586,0.046 c 0,-2.177 -1.179,-3.629 -2.88,-3.629 -1.746,0 -2.902,1.452 -2.902,3.629 0,2.1311 1.18,3.6281 2.926,3.6281 1.723,0 2.856,-1.4511 2.856,-3.6281 z"
       id="path35" /><path
       inkscape:connector-curvature="0"
       style="fill:#000000;fill-rule:evenodd;stroke:none"
       d="m -637.2107,-959.48315 0,6.93869 c 0,1.7012 -0.158,2.4952 -0.725,3.2432 -0.68,0.8848 -1.815,1.4062 -3.175,1.4062 -1.111,0 -1.814,-0.25 -2.88,-1.11129 l 0,0.86129 -2.403,0 0,-11.33809 2.403,0 0,6.417 c 0,0.9758 0.159,1.56569 0.568,2.0188 0.408,0.45309 1.156,0.74809 1.791,0.74809 0.657,0 1.315,-0.295 1.61,-0.74809 0.271,-0.4082 0.362,-0.9072 0.362,-1.9958 l 0,-6.44 2.449,0 z"
       id="path37" /><path
       inkscape:connector-curvature="0"
       style="fill:#000000;fill-rule:nonzero;stroke:none"
       d="m -629.6357,-953.56515 0,2.1321 -4.717,0 0,-2.1321 4.717,0 z"
       id="path39" /><path
       inkscape:connector-curvature="0"
       style="fill:#000000;fill-rule:nonzero;stroke:none"
       d="m -614.8287,-946.12645 0,2.5166 -10.046,0 0,-15.8733 2.7,0 0,6.7805 6.757,0 0,2.4942 -6.757,0 0,4.082 7.346,0 z"
       id="path41" /><path
       inkscape:connector-curvature="0"
       style="fill:#000000;fill-rule:evenodd;stroke:none"
       d="m -606.7107,-950.48095 0,2.4717 c -0.249,0.0234 -0.43,0.0234 -0.543,0.0234 -1.338,0 -2.223,-0.4082 -3.084,-1.4746 l 0,1.3154 -2.381,0 0,-11.3381 2.403,0 0,5.261 c 0,1.7236 0.34,2.6309 1.134,3.1973 0.59,0.3632 1.18,0.5214 2.471,0.5439 z"
       id="path43" /><path
       inkscape:connector-curvature="0"
       style="fill:#000000;fill-rule:evenodd;stroke:none"
       d="m -601.6757,-945.21925 c 0,0.794 -0.703,1.5196 -1.496,1.5196 -0.885,0 -1.588,-0.7032 -1.588,-1.5196 0,-0.8623 0.703,-1.54201 1.564,-1.54201 0.817,0 1.52,0.67971 1.52,1.54201 z m -0.318,-14.2639 0,11.3186 -2.449,0 0,-11.3186 2.449,0 z"
       id="path45" /><path
       inkscape:connector-curvature="0"
       style="fill:#000000;fill-rule:nonzero;stroke:none"
       d="m -666.3177,-929.36475 2.722,0 c 0,7.2139 1.275,13.3721 3.826,18.4746 l 0,2.7852 -8.907,0 0,-2.6152 6.165,0 c -2.537,-5.3428 -3.806,-11.5586 -3.806,-18.6446 z"
       id="path57" /><path
       inkscape:connector-curvature="0"
       style="fill:#000000;fill-rule:nonzero;stroke:none"
       d="m -648.4177,-922.47705 0,2.3604 -8.099,0 0,-2.3604 8.099,0 z"
       id="path59" /><path
       inkscape:connector-curvature="0"
       style="fill:#000000;fill-rule:evenodd;stroke:none"
       d="m -640.8287,-918.11865 c -0.751,0 -1.247,0.4541 -1.488,1.3604 -0.127,0.4677 -0.19,1.2334 -0.19,2.2959 0,1.3047 0.077,2.2402 0.233,2.8066 0.241,0.8369 0.709,1.2549 1.403,1.2549 0.794,0 1.326,-0.418 1.595,-1.2549 0.184,-0.5664 0.276,-1.5019 0.276,-2.8066 0,-1.1758 -0.114,-2.0401 -0.34,-2.5928 -0.284,-0.709 -0.78,-1.0635 -1.489,-1.0635 z m -2.592,-11.2461 c 3.075,2.5938 5.087,5.4639 6.037,8.6104 0.737,2.4238 1.098,4.5351 1.084,6.3349 -0.014,2.3389 -0.397,4.0391 -1.148,5.1026 -0.737,1.0205 -1.878,1.5449 -3.423,1.5732 -1.431,0.0137 -2.523,-0.5459 -3.274,-1.6797 -0.708,-1.0634 -1.063,-2.5224 -1.063,-4.3789 0,-2.4385 0.333,-4.1885 0.999,-5.2519 0.425,-0.6944 1.127,-1.1973 2.105,-1.5098 0.482,-0.1553 0.914,-0.2402 1.297,-0.2549 0.226,0 0.418,0.043 0.574,0.1279 -0.411,-1.1621 -1.141,-2.3886 -2.189,-3.6777 -0.894,-1.0205 -1.787,-2.041 -2.679,-3.0615 l 1.68,-1.9346 z"
       id="path61" /><path
       inkscape:connector-curvature="0"
       style="fill:#000000;fill-rule:evenodd;stroke:none"
       d="m -625.5737,-928.11865 c -0.816,0.3399 -0.901,0.5274 -0.901,1.6826 l 0,3.1114 c 0,1.0029 -0.118,1.3935 -0.561,1.8701 -0.509,0.5439 -1.462,0.8496 -2.634,0.8496 -1.173,0 -2.381,-0.2891 -3.537,-0.8662 l 0.748,-1.4453 c 1.19,0.5097 1.786,0.663 2.601,0.663 1.088,0 1.547,-0.4082 1.564,-1.3603 l 0,-0.2725 c -1.428,-0.1357 -1.921,-0.2031 -2.482,-0.3056 -1.819,-0.3565 -2.685,-1.1387 -2.685,-2.4991 0,-1.5976 1.393,-2.8222 3.229,-2.8222 0.969,0 1.734,0.3574 2.295,1.0547 0.17,-0.5782 0.663,-0.9356 1.462,-1.0547 l 0.901,1.3945 z m -2.72,1.5127 c 0,-0.4932 -0.084,-0.6797 -0.323,-0.9004 -0.323,-0.289 -0.884,-0.4765 -1.326,-0.4765 -0.867,0 -1.581,0.5615 -1.581,1.2578 0,0.5781 0.374,0.9179 1.207,1.1054 0.562,0.1358 1.003,0.1866 2.023,0.2891 l 0,-1.2754 z"
       id="path63" /><path
       inkscape:connector-curvature="0"
       style="fill:#000000;fill-rule:evenodd;stroke:none"
       d="m -612.2287,-929.29145 0,4.8613 c 0,1.3096 -0.102,1.9551 -0.408,2.4658 -0.459,0.8496 -1.36,1.3086 -2.465,1.3086 -1.02,0 -1.717,-0.3398 -2.329,-1.1387 -0.459,0.7813 -1.173,1.1563 -2.159,1.1563 -0.832,0 -1.394,-0.2559 -2.039,-0.9014 l 0,0.7481 -1.786,0 0,-8.5 1.786,0 0,4.8281 c 0,0.6797 0.084,1.0703 0.339,1.3935 0.272,0.3916 0.748,0.6465 1.206,0.6465 0.409,0 0.834,-0.1875 1.072,-0.5273 0.221,-0.3057 0.272,-0.5781 0.272,-1.4619 l 0,-4.8789 1.87,0 0,4.8789 c 0,0.7822 0.051,1.0713 0.255,1.3427 0.289,0.4082 0.765,0.6631 1.241,0.6631 0.527,0 0.952,-0.2549 1.156,-0.6797 0.119,-0.2548 0.153,-0.6123 0.153,-1.3261 l 0,-4.8789 1.836,0 z"
       id="path65" /></g></svg>