<?xml version="1.0" encoding="UTF-8" standalone="no"?>
<!-- Created with Inkscape (http://www.inkscape.org/) -->

<svg
   xmlns:dc="http://purl.org/dc/elements/1.1/"
   xmlns:cc="http://creativecommons.org/ns#"
   xmlns:rdf="http://www.w3.org/1999/02/22-rdf-syntax-ns#"
   xmlns:svg="http://www.w3.org/2000/svg"
   xmlns="http://www.w3.org/2000/svg"
   xmlns:sodipodi="http://sodipodi.sourceforge.net/DTD/sodipodi-0.dtd"
   xmlns:inkscape="http://www.inkscape.org/namespaces/inkscape"
   id="svg17624"
   version="1.1"
   inkscape:version="0.48.2 r9819"
   width="266.95312"
   height="112.10938"
   xml:space="preserve"
   sodipodi:docname="AA.svg"><metadata
     id="metadata17630"><rdf:RDF><cc:Work
         rdf:about=""><dc:format>image/svg+xml</dc:format><dc:type
           rdf:resource="http://purl.org/dc/dcmitype/StillImage" /><dc:title /></cc:Work></rdf:RDF></metadata><defs
     id="defs17628"><inkscape:perspective
       sodipodi:type="inkscape:persp3d"
       inkscape:vp_x="0 : 0.5 : 1"
       inkscape:vp_y="0 : 1000 : 0"
       inkscape:vp_z="1 : 0.5 : 1"
       inkscape:persp3d-origin="0.5 : 0.33333333 : 1"
       id="perspective17632" /><clipPath
       clipPathUnits="userSpaceOnUse"
       id="clipPath17642"><path
         d="m -2,710 501,0 0,-711 -501,0 0,711 z"
         id="path17644"
         inkscape:connector-curvature="0" /></clipPath><clipPath
       clipPathUnits="userSpaceOnUse"
       id="clipPath17648"><path
         d="m 0,708.06 498,0 0,-708 -498,0 0,708 z"
         id="path17650"
         inkscape:connector-curvature="0" /></clipPath><clipPath
       clipPathUnits="userSpaceOnUse"
       id="clipPath17798"><path
         d="m -2,710 501,0 0,-711 -501,0 0,711 z"
         id="path17800"
         inkscape:connector-curvature="0" /></clipPath><clipPath
       clipPathUnits="userSpaceOnUse"
       id="clipPath17804"><path
         d="m 0,708.06 498,0 0,-708 -498,0 0,708 z"
         id="path17806"
         inkscape:connector-curvature="0" /></clipPath><clipPath
       id="Clip0"><path
         inkscape:connector-curvature="0"
         d="m 0,0 212.597,0 0,269.292 L 0,269.292 0,0 z"
         transform="translate(0.923828,0.879883)"
         id="path7" /></clipPath><clipPath
       id="Clip0-8"><path
         inkscape:connector-curvature="0"
         d="m 0,0 170.079,0 0,113.386 L 0,113.386 0,0 z"
         transform="translate(0.0986328,0.822266)"
         id="path7-8" /></clipPath><clipPath
       id="Clip0-1"><path
         inkscape:connector-curvature="0"
         d="m 0,0 287.009,0 0,159.449 L 0,159.449 0,0 z"
         transform="translate(0.396484,0.267578)"
         id="path7-7" /></clipPath><clipPath
       id="Clip0-9"><path
         inkscape:connector-curvature="0"
         d="m 0,0 170.079,0 0,170.079 L 0,170.079 0,0 z"
         transform="translate(0.460938,0.775391)"
         id="path7-4" /></clipPath><clipPath
       id="Clip0-4"><path
         inkscape:connector-curvature="0"
         d="m 0,0 340.157,0 0,226.771 L 0,226.771 0,0 z"
         transform="translate(0.921875,0.25293)"
         id="path7-5" /></clipPath><clipPath
       id="Clip0-5"><path
         inkscape:connector-curvature="0"
         d="m 0,0 255.119,0 0,170.079 L 0,170.079 0,0 z"
         transform="translate(0.147461,0.0595703)"
         id="path7-1" /></clipPath></defs><sodipodi:namedview
     pagecolor="#ffffff"
     bordercolor="#666666"
     borderopacity="1"
     objecttolerance="10"
     gridtolerance="10"
     guidetolerance="10"
     inkscape:pageopacity="0"
     inkscape:pageshadow="2"
     inkscape:window-width="1280"
     inkscape:window-height="1004"
     id="namedview17626"
     showgrid="false"
     inkscape:zoom="2.0000001"
     inkscape:cx="111.04144"
     inkscape:cy="-9.4855396"
     inkscape:window-x="-8"
     inkscape:window-y="-8"
     inkscape:window-maximized="1"
     inkscape:current-layer="g17634"
     fit-margin-top="0"
     fit-margin-left="0"
     fit-margin-right="0"
     fit-margin-bottom="0"
     showguides="true"
     inkscape:guide-bbox="true" /><g
     id="g17634"
     inkscape:groupmode="layer"
     inkscape:label="GG1999P002"
     transform="matrix(1.25,0,0,-1.25,472.30469,-491.13281)"><path
       inkscape:connector-curvature="0"
       style="fill:#ffffff;fill-rule:nonzero;stroke:#000000;stroke-width:0.95999992;stroke-miterlimit:4;stroke-opacity:1;stroke-dasharray:none"
       d="m -377.35645,-407.57038 c 0,7.82819 6.34571,14.1739 14.1728,14.1739 l 184.2522,0 c 7.827,0 14.173,-6.34571 14.173,-14.1739 l 0,-60.3779 c 0,-7.8271 -6.346,-14.1728 -14.173,-14.1728 l -184.2522,0 c -7.82709,0 -14.1728,6.3457 -14.1728,14.1728 l 0,60.3779 z"
       id="path11" /><path
       inkscape:connector-curvature="0"
       style="fill:#c0111e;fill-opacity:1;fill-rule:nonzero;stroke:none"
       d="m -374.80469,-407.57034 c 0,6.41897 5.20313,11.6221 11.6211,11.6221 l 184.2529,0 c 6.418,0 11.622,-5.20313 11.622,-11.6221 l 0,-60.3779 c 0,-6.4189 -5.204,-11.6221 -11.622,-11.6221 l -184.2529,0 c -6.41797,0 -11.6211,5.2032 -11.6211,11.6221 l 0,60.3779 z"
       id="path13" /><path
       inkscape:connector-curvature="0"
       style="fill:#ffffff;fill-rule:nonzero;stroke:none"
       d="m -371.12012,-407.57035 c 0,4.38383 3.55371,7.93754 7.93652,7.93754 l 184.25248,0 c 4.383,0 7.937,-3.55371 7.937,-7.93754 l 0,-60.37786 c 0,-4.3838 -3.554,-7.9365 -7.937,-7.9365 l -184.25248,0 c -4.38281,0 -7.93652,3.5527 -7.93652,7.9365 l 0,60.37786 z"
       id="path15" /><path
       inkscape:connector-curvature="0"
       style="fill:#000000;fill-rule:nonzero;stroke:none"
       d="m -330.9043,-455.51365 5.5635,0 0,35.4326 -4.4297,0 c -0.8496,-1.3467 -2.208,-2.2324 -4.0742,-2.6572 l 0,-4.2168 2.9404,0 0,-28.5586 z"
       id="path17" /><path
       inkscape:connector-curvature="0"
       style="fill:#000000;fill-rule:evenodd;stroke:none"
       d="m -304.6133,-456.18655 c 8.2676,0 12.4014,6.1289 12.4014,18.3897 0,12.2832 -4.1338,18.4248 -12.4014,18.4248 -8.2676,0 -12.4013,-6.1416 -12.4013,-18.4248 0,-12.2608 4.1337,-18.3897 12.4013,-18.3897 z m 0,5.4199 c -4.6064,0 -6.9092,4.3233 -6.9092,12.9698 0,8.6445 2.3028,12.9677 6.9092,12.9677 4.583,0 6.874,-4.3232 6.874,-12.9677 0,-8.6465 -2.291,-12.9698 -6.874,-12.9698 z"
       id="path19" /><path
       inkscape:connector-curvature="0"
       style="fill:#000000;fill-rule:evenodd;stroke:none"
       d="m -273.22,-456.18655 c 8.268,0 12.402,6.1289 12.402,18.3897 0,12.2832 -4.134,18.4248 -12.402,18.4248 -8.2683,0 -12.4011,-6.1416 -12.4011,-18.4248 0,-12.2608 4.1328,-18.3897 12.4011,-18.3897 z m 0,5.4199 c -4.6062,0 -6.9089,4.3233 -6.9089,12.9698 0,8.6445 2.3027,12.9677 6.9089,12.9677 4.582,0 6.874,-4.3232 6.874,-12.9677 0,-8.6465 -2.292,-12.9698 -6.874,-12.9698 z"
       id="path21" /><path
       inkscape:connector-curvature="0"
       style="fill:#000000;fill-rule:nonzero;stroke:none"
       d="m -208.27,-455.47555 0,13.5517 c 0,3.6494 -0.284,5.4502 -1.137,6.8721 -1.28,2.3691 -3.791,3.6484 -6.871,3.6484 -2.844,0 -4.786,-0.9472 -6.493,-3.1748 -1.279,2.1797 -3.269,3.2227 -6.017,3.2227 -2.322,0 -3.886,-0.711 -5.687,-2.5127 l 0,2.0859 -4.976,0 0,-23.6933 4.976,0 0,13.457 c 0,1.8965 0.237,2.9863 0.948,3.8857 0.758,1.0909 2.085,1.8018 3.364,1.8018 1.138,0 2.322,-0.5215 2.985,-1.4697 0.616,-0.8526 0.759,-1.6104 0.759,-4.0752 l 0,-13.5996 5.213,0 0,13.5996 c 0,2.1797 0.142,2.9853 0.711,3.7431 0.805,1.1377 2.132,1.8487 3.459,1.8487 1.469,0 2.653,-0.711 3.222,-1.8955 0.332,-0.711 0.426,-1.7061 0.426,-3.6963 l 0,-13.5996 5.118,0 z"
       id="path23" /></g></svg>