<?xml version="1.0" encoding="UTF-8" standalone="no"?>
<!-- Created with Inkscape (http://www.inkscape.org/) -->

<svg
   xmlns:dc="http://purl.org/dc/elements/1.1/"
   xmlns:cc="http://creativecommons.org/ns#"
   xmlns:rdf="http://www.w3.org/1999/02/22-rdf-syntax-ns#"
   xmlns:svg="http://www.w3.org/2000/svg"
   xmlns="http://www.w3.org/2000/svg"
   xmlns:sodipodi="http://sodipodi.sourceforge.net/DTD/sodipodi-0.dtd"
   xmlns:inkscape="http://www.inkscape.org/namespaces/inkscape"
   id="svg17624"
   version="1.1"
   inkscape:version="0.48.4 r9939"
   width="200.2"
   height="200.2"
   xml:space="preserve"
   sodipodi:docname="AJAX1.svg"><metadata
     id="metadata17630"><rdf:RDF><cc:Work
         rdf:about=""><dc:format>image/svg+xml</dc:format><dc:type
           rdf:resource="http://purl.org/dc/dcmitype/StillImage" /><dc:title /></cc:Work></rdf:RDF></metadata><defs
     id="defs17628"><inkscape:perspective
       sodipodi:type="inkscape:persp3d"
       inkscape:vp_x="0 : 0.5 : 1"
       inkscape:vp_y="0 : 1000 : 0"
       inkscape:vp_z="1 : 0.5 : 1"
       inkscape:persp3d-origin="0.5 : 0.33333333 : 1"
       id="perspective17632" /><clipPath
       clipPathUnits="userSpaceOnUse"
       id="clipPath17642"><path
         d="m -2,710 501,0 0,-711 -501,0 0,711 z"
         id="path17644"
         inkscape:connector-curvature="0" /></clipPath><clipPath
       clipPathUnits="userSpaceOnUse"
       id="clipPath17648"><path
         d="m 0,708.06 498,0 0,-708 -498,0 0,708 z"
         id="path17650"
         inkscape:connector-curvature="0" /></clipPath><clipPath
       clipPathUnits="userSpaceOnUse"
       id="clipPath17798"><path
         d="m -2,710 501,0 0,-711 -501,0 0,711 z"
         id="path17800"
         inkscape:connector-curvature="0" /></clipPath><clipPath
       clipPathUnits="userSpaceOnUse"
       id="clipPath17804"><path
         d="m 0,708.06 498,0 0,-708 -498,0 0,708 z"
         id="path17806"
         inkscape:connector-curvature="0" /></clipPath><clipPath
       id="Clip0"><path
         inkscape:connector-curvature="0"
         d="m 0,0 212.597,0 0,269.292 L 0,269.292 0,0 z"
         transform="translate(0.923828,0.879883)"
         id="path7" /></clipPath></defs><sodipodi:namedview
     pagecolor="#ffffff"
     bordercolor="#666666"
     borderopacity="1"
     objecttolerance="10"
     gridtolerance="10"
     guidetolerance="10"
     inkscape:pageopacity="0"
     inkscape:pageshadow="2"
     inkscape:window-width="1280"
     inkscape:window-height="1004"
     id="namedview17626"
     showgrid="false"
     inkscape:zoom="3.6759909"
     inkscape:cx="82.171432"
     inkscape:cy="105.20593"
     inkscape:window-x="-8"
     inkscape:window-y="-8"
     inkscape:window-maximized="1"
     inkscape:current-layer="g17634"
     fit-margin-top="0.1"
     fit-margin-left="0.1"
     fit-margin-right="0.1"
     fit-margin-bottom="0.1"
     showguides="true"
     inkscape:guide-bbox="true" /><g
     id="g17634"
     inkscape:groupmode="layer"
     inkscape:label="GG1999P002"
     transform="matrix(1.25,0,0,-1.25,160.49062,77.404677)"><path
       sodipodi:nodetypes="sssss"
       inkscape:connector-curvature="0"
       id="path3787"
       d="m 31.6875,-18.156349 c 0,44.18241 -35.816846,80.000091 -80.000009,80.000091 -44.183435,0 -79.999991,-35.817587 -79.999991,-80.000001 0,-44.18334 35.816556,-80 79.999991,-80 44.183163,0 80.000009,35.81656 80.000009,79.9999 z"
       style="fill:#c0111e;fill-opacity:1;fill-rule:nonzero;stroke:none" /><path
       style="fill:#ffffff;fill-opacity:1;fill-rule:nonzero;stroke:none"
       d="m 5.021104,-18.15632 c 0,29.455087 -23.878016,53.333659 -53.333604,53.333659 -29.45577,0 -53.3336,-23.878509 -53.3336,-53.333599 0,-29.455706 23.87783,-53.333598 53.3336,-53.333598 29.455588,0 53.333604,23.877825 53.333604,53.333532 z"
       id="path3033"
       inkscape:connector-curvature="0"
       sodipodi:nodetypes="sssss" /><path
       style="fill:#000000;fill-rule:evenodd;stroke:none"
       d="m -89.646032,-6.597544 c 0,-4.373895 1.79513,-8.214106 5.38727,-11.521385 3.48461,-3.200693 7.41381,-4.800146 11.78771,-4.800146 l 1.49381,0 c 3.09326,0 4.85348,0.266418 5.28067,0.800197 -3.0942,-7.041845 -7.379,-12.338893 -12.85526,-15.894905 l 5.12075,-6.667993 c 5.44051,3.697124 9.95683,8.800659 13.54897,15.30788 3.9467,7.183333 5.92001,14.722173 5.92001,22.617366 0,4.515383 -1.74273,8.391437 -5.2264,11.627031 -3.44971,3.236535 -7.61052,4.854426 -12.48235,4.854426 -4.55123,0 -8.64121,-1.528709 -12.26825,-4.587067 -3.80521,-3.236535 -5.70693,-7.148336 -5.70693,-11.735404 z m 17.81534,-8.107519 c -2.6321,0 -4.87183,0.74695 -6.72114,2.240664 -1.84941,1.528708 -2.7736,3.431363 -2.7736,5.707869 0,2.203975 0.92419,4.089132 2.7736,5.652743 1.84931,1.56549204 4.08904,2.34725 6.72114,2.34725 2.70276,0 4.97842,-0.78175796 6.82679,-2.34725 1.88516,-1.563611 2.82779,-3.448768 2.82779,-5.652743 0,-2.276506 -0.94263,-4.179161 -2.82779,-5.707869 -1.84837,-1.493714 -4.12403,-2.240664 -6.82679,-2.240664 z"
       id="path11-1"
       inkscape:connector-curvature="0" /><path
       style="fill:#000000;fill-rule:evenodd;stroke:none"
       d="m -25.745336,-45.694017 c 12.446991,0 18.669071,9.225876 18.669071,27.682615 0,18.49145104 -6.22208,27.736329 -18.669071,27.736329 -12.446416,0 -18.668786,-9.24487796 -18.668786,-27.736329 0,-18.456739 6.22237,-27.682615 18.668786,-27.682615 z m 0,8.159072 c -6.934226,0 -10.401426,6.50835 -10.401426,19.523543 0,13.014158 3.4672,19.522224 10.401426,19.522224 6.898475,0 10.348183,-6.508066 10.348183,-19.522224 0,-13.015193 -3.449708,-19.523543 -10.348183,-19.523543 z"
       id="path13-7"
       inkscape:connector-curvature="0" /></g></svg>