<?xml version="1.0" encoding="UTF-8" standalone="no"?>
<!-- Created with Inkscape (http://www.inkscape.org/) -->

<svg
   xmlns:dc="http://purl.org/dc/elements/1.1/"
   xmlns:cc="http://creativecommons.org/ns#"
   xmlns:rdf="http://www.w3.org/1999/02/22-rdf-syntax-ns#"
   xmlns:svg="http://www.w3.org/2000/svg"
   xmlns="http://www.w3.org/2000/svg"
   xmlns:sodipodi="http://sodipodi.sourceforge.net/DTD/sodipodi-0.dtd"
   xmlns:inkscape="http://www.inkscape.org/namespaces/inkscape"
   id="svg17624"
   version="1.1"
   inkscape:version="0.48.2 r9819"
   width="320.11719"
   height="107.5"
   xml:space="preserve"
   sodipodi:docname="AA.svg"><metadata
     id="metadata17630"><rdf:RDF><cc:Work
         rdf:about=""><dc:format>image/svg+xml</dc:format><dc:type
           rdf:resource="http://purl.org/dc/dcmitype/StillImage" /><dc:title></dc:title></cc:Work></rdf:RDF></metadata><defs
     id="defs17628"><inkscape:perspective
       sodipodi:type="inkscape:persp3d"
       inkscape:vp_x="0 : 0.5 : 1"
       inkscape:vp_y="0 : 1000 : 0"
       inkscape:vp_z="1 : 0.5 : 1"
       inkscape:persp3d-origin="0.5 : 0.33333333 : 1"
       id="perspective17632" /><clipPath
       clipPathUnits="userSpaceOnUse"
       id="clipPath17642"><path
         d="m -2,710 501,0 0,-711 -501,0 0,711 z"
         id="path17644"
         inkscape:connector-curvature="0" /></clipPath><clipPath
       clipPathUnits="userSpaceOnUse"
       id="clipPath17648"><path
         d="m 0,708.06 498,0 0,-708 -498,0 0,708 z"
         id="path17650"
         inkscape:connector-curvature="0" /></clipPath><clipPath
       clipPathUnits="userSpaceOnUse"
       id="clipPath17798"><path
         d="m -2,710 501,0 0,-711 -501,0 0,711 z"
         id="path17800"
         inkscape:connector-curvature="0" /></clipPath><clipPath
       clipPathUnits="userSpaceOnUse"
       id="clipPath17804"><path
         d="m 0,708.06 498,0 0,-708 -498,0 0,708 z"
         id="path17806"
         inkscape:connector-curvature="0" /></clipPath><clipPath
       id="Clip0"><path
         inkscape:connector-curvature="0"
         d="m 0,0 212.597,0 0,269.292 L 0,269.292 0,0 z"
         transform="translate(0.923828,0.879883)"
         id="path7" /></clipPath><clipPath
       id="Clip0-8"><path
         inkscape:connector-curvature="0"
         d="m 0,0 170.079,0 0,113.386 L 0,113.386 0,0 z"
         transform="translate(0.0986328,0.822266)"
         id="path7-8" /></clipPath><clipPath
       id="Clip0-1"><path
         inkscape:connector-curvature="0"
         d="m 0,0 287.009,0 0,159.449 L 0,159.449 0,0 z"
         transform="translate(0.396484,0.267578)"
         id="path7-7" /></clipPath><clipPath
       id="Clip0-9"><path
         inkscape:connector-curvature="0"
         d="m 0,0 170.079,0 0,170.079 L 0,170.079 0,0 z"
         transform="translate(0.460938,0.775391)"
         id="path7-4" /></clipPath><clipPath
       id="Clip0-4"><path
         inkscape:connector-curvature="0"
         d="m 0,0 340.157,0 0,226.771 L 0,226.771 0,0 z"
         transform="translate(0.921875,0.25293)"
         id="path7-5" /></clipPath><clipPath
       id="Clip0-5"><path
         inkscape:connector-curvature="0"
         d="m 0,0 255.119,0 0,170.079 L 0,170.079 0,0 z"
         transform="translate(0.147461,0.0595703)"
         id="path7-1" /></clipPath></defs><sodipodi:namedview
     pagecolor="#ffffff"
     bordercolor="#666666"
     borderopacity="1"
     objecttolerance="10"
     gridtolerance="10"
     guidetolerance="10"
     inkscape:pageopacity="0"
     inkscape:pageshadow="2"
     inkscape:window-width="1280"
     inkscape:window-height="1004"
     id="namedview17626"
     showgrid="false"
     inkscape:zoom="1.4142136"
     inkscape:cx="24.238331"
     inkscape:cy="12.745882"
     inkscape:window-x="-8"
     inkscape:window-y="-8"
     inkscape:window-maximized="1"
     inkscape:current-layer="g17634"
     fit-margin-top="0"
     fit-margin-left="0"
     fit-margin-right="0"
     fit-margin-bottom="0"
     showguides="true"
     inkscape:guide-bbox="true" /><g
     id="g17634"
     inkscape:groupmode="layer"
     inkscape:label="GG1999P002"
     transform="matrix(1.25,0,0,-1.25,970.54687,-1120.7422)"><path
       inkscape:connector-curvature="0"
       style="fill:#ffffff;fill-rule:nonzero;stroke:#000000;stroke-width:0.95999998;stroke-miterlimit:4;stroke-opacity:1;stroke-dasharray:none"
       d="m -775.94922,-908.41212 c 0,6.26273 5.07617,11.3389 11.3379,11.3389 l 232.4421,0 c 6.261,0 11.338,-5.07617 11.338,-11.3389 l 0,-62.3623 c 0,-6.2617 -5.077,-11.3379 -11.338,-11.3379 l -232.4421,0 c -6.26173,0 -11.3379,5.0762 -11.3379,11.3379 l 0,62.3623 z"
       id="path11" /><path
       inkscape:connector-curvature="0"
       style="fill:#c0111e;fill-opacity:1;fill-rule:nonzero;stroke:none"
       d="m -773.11523,-908.41208 c 0,4.69726 3.80761,8.5039 8.50393,8.5039 l 232.44207,0 c 4.696,0 8.503,-3.80664 8.503,-8.5039 l 0,-62.3623 c 0,-4.6963 -3.807,-8.5039 -8.503,-8.5039 l -232.44207,0 c -4.69632,0 -8.50393,3.8076 -8.50393,8.5039 l 0,62.3623 z"
       id="path13-1" /><path
       inkscape:connector-curvature="0"
       style="fill:#ffffff;fill-rule:nonzero;stroke:none"
       d="m -768.86328,-908.41208 c 0,2.34862 1.9043,4.25194 4.25198,4.25194 l 232.44202,0 c 2.348,0 4.252,-1.90332 4.252,-4.25194 l 0,-62.36226 c 0,-2.3477 -1.904,-4.252 -4.252,-4.252 l -232.44202,0 c -2.34768,0 -4.25198,1.9043 -4.25198,4.252 l 0,62.36226 z"
       id="path15" /><path
       inkscape:connector-curvature="0"
       style="fill:#c0111e;fill-opacity:1;fill-rule:nonzero;stroke:none"
       d="m -742.458,-932.45118 0,-28.3467 3.9394,0 0,13.6915 5.8116,0 0,4.0537 -5.8116,0 0,6.6894 10.2334,0 0,3.9121 -14.1728,0 z"
       id="path17" /><path
       inkscape:connector-curvature="0"
       style="fill:#c0111e;fill-opacity:1;fill-rule:evenodd;stroke:none"
       d="m -715.2178,-961.33588 c 2.7588,0 4.8379,1.3222 6.2364,3.9677 1.3037,2.5137 1.956,6.1036 1.956,10.7715 0,9.8086 -2.7119,14.7119 -8.1357,14.7119 -5.5557,0 -8.334,-4.9033 -8.334,-14.7119 0,-9.8262 2.7588,-14.7392 8.2773,-14.7392 z m 0,4.082 c -1.6064,0 -2.75,1.0293 -3.4297,3.0889 -0.5488,1.6816 -0.8222,4.205 -0.8222,7.5683 0,7.1817 1.417,10.7725 4.2519,10.7725 2.8155,0 4.2237,-3.5908 4.2237,-10.7725 0,-7.1054 -1.4082,-10.6572 -4.2237,-10.6572 z"
       id="path19" /><path
       inkscape:connector-curvature="0"
       style="fill:#c0111e;fill-opacity:1;fill-rule:evenodd;stroke:none"
       d="m -689.6504,-946.99318 c 1.2481,0.4346 2.2588,1.3516 3.0332,2.75 0.6992,1.2842 1.0488,2.6553 1.0488,4.1094 0,1.8711 -0.5761,3.5908 -1.7285,5.1602 -1.2285,1.6816 -2.6836,2.5224 -4.3662,2.5224 l -9.4951,0 0,-28.3467 3.9111,0 0,13.1524 3.6856,0 3.7695,-13.1524 4.2236,0 -4.082,13.8047 z m -2.6357,3.4297 -4.961,0 0,7.0586 4.9893,0 c 1.7012,0 2.5508,-1.1621 2.5508,-3.4863 0,-0.9453 -0.208,-1.7481 -0.6231,-2.4102 -0.4726,-0.7744 -1.125,-1.1621 -1.956,-1.1621 z"
       id="path21" /><path
       inkscape:connector-curvature="0"
       style="fill:#c0111e;fill-opacity:1;fill-rule:nonzero;stroke:none"
       d="m -657.1355,-929.15628 5.867,0 c 0,1.4454 0.61,2.7637 1.829,3.9542 1.219,1.1904 2.523,1.7851 3.911,1.7851 1.362,0 2.651,-0.6084 3.87,-1.8281 1.247,-1.2188 1.857,-2.4229 1.828,-3.6133 -0.028,-1.7578 -0.737,-3.3311 -2.126,-4.7207 -0.425,-0.4531 -1.757,-1.4736 -3.997,-3.0615 -3.514,-2.4942 -6.307,-6.25 -8.376,-11.2676 -1.814,-4.3936 -2.721,-8.7022 -2.721,-12.9248 l 23.301,0 0,5.9941 -16.158,0 c 0,2.4102 0.964,5.0323 2.891,7.8662 1.871,2.75 4.38,5.3155 7.526,7.6963 3.657,2.7784 5.486,6.0518 5.486,9.8223 0,3.4014 -1.162,6.25 -3.488,8.5469 -2.296,2.2959 -5.045,3.4433 -8.248,3.4433 -3.175,0 -5.868,-1.1338 -8.079,-3.4013 -2.211,-2.2676 -3.316,-5.0313 -3.316,-8.2911 z"
       id="path23" /><path
       inkscape:connector-curvature="0"
       style="fill:#c0111e;fill-opacity:1;fill-rule:nonzero;stroke:none"
       d="m -586.2125,-960.85248 -8.589,12.5009 8.589,8.7588 -6.122,0 -8.376,-8.7588 0,16.9229 -4.551,0 0,-29.4238 4.551,0 0,6.5898 2.805,2.8066 6.208,-9.3964 5.485,0 z"
       id="path25" /><path
       inkscape:connector-curvature="0"
       style="fill:#c0111e;fill-opacity:1;fill-rule:nonzero;stroke:none"
       d="m -554.3225,-960.85248 0,12.1601 c 0,3.2744 -0.255,4.8897 -1.02,6.166 -1.149,2.126 -3.403,3.2735 -6.166,3.2735 -2.551,0 -4.294,-0.8496 -5.825,-2.8487 -1.148,1.9561 -2.934,2.8916 -5.4,2.8916 -2.084,0 -3.487,-0.6377 -5.102,-2.2539 l 0,1.8711 -4.465,0 0,-21.2597 4.465,0 0,12.0752 c 0,1.7011 0.211,2.6787 0.849,3.4863 0.681,0.9785 1.871,1.6162 3.02,1.6162 1.02,0 2.084,-0.4678 2.678,-1.3184 0.553,-0.7656 0.681,-1.4453 0.681,-3.6562 l 0,-12.2031 4.677,0 0,12.2031 c 0,1.9551 0.128,2.6787 0.638,3.3584 0.723,1.0205 1.914,1.6582 3.104,1.6582 1.317,0 2.381,-0.6377 2.891,-1.7002 0.298,-0.6377 0.382,-1.5313 0.382,-3.3164 l 0,-12.2031 4.593,0 z"
       id="path27" /></g></svg>