<?xml version="1.0" encoding="UTF-8" standalone="no"?>
<!-- Generator: Adobe Illustrator 12.0.1, SVG Export Plug-In  -->

<svg
   xmlns:dc="http://purl.org/dc/elements/1.1/"
   xmlns:cc="http://creativecommons.org/ns#"
   xmlns:rdf="http://www.w3.org/1999/02/22-rdf-syntax-ns#"
   xmlns:svg="http://www.w3.org/2000/svg"
   xmlns="http://www.w3.org/2000/svg"
   xmlns:sodipodi="http://sodipodi.sourceforge.net/DTD/sodipodi-0.dtd"
   xmlns:inkscape="http://www.inkscape.org/namespaces/inkscape"
   version="1.1"
   width="214.60156"
   height="214.60156"
   viewBox="0 0 214.60158 214.60158"
   enable-background="new 0 0 288 288"
   xml:space="preserve"
   id="svg2"
   inkscape:version="0.48.2 r9819"
   sodipodi:docname="AJAX1.svg"><metadata
   id="metadata72"><rdf:RDF><cc:Work
       rdf:about=""><dc:format>image/svg+xml</dc:format><dc:type
         rdf:resource="http://purl.org/dc/dcmitype/StillImage" /><dc:title /></cc:Work></rdf:RDF></metadata><sodipodi:namedview
   pagecolor="#ffffff"
   bordercolor="#666666"
   borderopacity="1"
   objecttolerance="10"
   gridtolerance="10"
   guidetolerance="10"
   inkscape:pageopacity="0"
   inkscape:pageshadow="2"
   inkscape:window-width="1280"
   inkscape:window-height="1004"
   id="namedview70"
   showgrid="false"
   fit-margin-top="0.25"
   fit-margin-left="0.25"
   fit-margin-right="0.25"
   fit-margin-bottom="0.25"
   inkscape:zoom="1.1588694"
   inkscape:cx="214.16256"
   inkscape:cy="149.51945"
   inkscape:window-x="-8"
   inkscape:window-y="-8"
   inkscape:window-maximized="1"
   inkscape:current-layer="Group1" />
<defs
   id="defs4">
<clipPath
   id="Clip0"><path
     inkscape:connector-curvature="0"
     d="m 0,0 425.197,0 0,340.157 L 0,340.157 0,0 z"
     transform="translate(0.474609,0.964844)"
     id="path7" /></clipPath><clipPath
   id="Clip0-1"><path
     inkscape:connector-curvature="0"
     d="m 0,0 269.291,0 0,141.733 L 0,141.733 0,0 z"
     transform="translate(0.0644531,0.324219)"
     id="path7-7" /></clipPath><clipPath
   id="Clip0-17"><path
     inkscape:connector-curvature="0"
     d="m 0,0 269.291,0 0,141.732 L 0,141.732 0,0 z"
     transform="translate(0.727539,0.548828)"
     id="path7-4" /></clipPath><clipPath
   id="Clip0-174"><path
     inkscape:connector-curvature="0"
     d="m 0,0 340.158,0 0,340.158 L 0,340.158 0,0 z"
     transform="translate(0.630859,0.112305)"
     id="path7-0" /></clipPath><clipPath
   id="Clip0-1740"><path
     inkscape:connector-curvature="0"
     d="m 0,0 269.291,0 0,85.04 L 0,85.04 0,0 z"
     transform="translate(0.40332,0.554688)"
     id="path7-9" /></clipPath></defs>
































<g
   transform="matrix(1.2500001,0,0,1.2500001,-0.88281257,-210.96095)"
   id="Background"
   style="fill:#000000"><g
     id="Group1"
     clip-path="url(#Clip0-174)"
     style="fill:#000000"><path
       inkscape:connector-curvature="0"
       style="fill:#ffffff;fill-rule:nonzero;stroke:#000000;stroke-width:1.20000005;stroke-miterlimit:4;stroke-opacity:1;stroke-dasharray:none"
       d="m 1.5039071,180.90408 c 0,-6.26176 5.0761699,-11.3389 11.3388999,-11.3389 l 147.401103,0 c 6.263,0 11.339,5.07714 11.339,11.3389 l 0,147.4011 c 0,6.263 -5.076,11.339 -11.339,11.339 l -147.401103,0 c -6.26273,0 -11.3388999,-5.076 -11.3388999,-11.339 l 0,-147.4011 z"
       id="path11" /><path
       inkscape:connector-curvature="0"
       style="fill:#0069b3;fill-rule:nonzero;stroke:none"
       d="m 8.87402,180.90409 c 0,-2.19144 1.77735,-3.96879 3.96876,-3.96879 l 147.40124,0 c 2.192,0 3.969,1.77735 3.969,3.96879 l 0,147.40121 c 0,2.193 -1.777,3.969 -3.969,3.969 l -147.40124,0 c -2.19141,0 -3.96876,-1.776 -3.96876,-3.969 l 0,-147.40121 z"
       id="path13" /><path
       inkscape:connector-curvature="0"
       style="fill:#ffffff;fill-rule:evenodd;stroke:none"
       d="m 63.86618,185.15699 0,56.6924 9.912099,0 0,-22.1729 18.9952,0 c 4.6523,0 8.583701,-1.873 11.795701,-5.6201 3.101,-3.6172 4.652,-7.8066 4.652,-12.5684 0,-4.3544 -1.865,-8.1933 -5.593,-11.5156 -3.674101,-3.2099 -7.744401,-4.8154 -12.212201,-4.8154 l -27.549799,0 z m 9.415099,9.8545 17.8037,0 c 2.2334,0 4.125,0.6455 5.6758,1.9385 1.6982,1.4023 2.5478,3.2568 2.5478,5.5634 0,2.418 -0.7197,4.2627 -2.1601,5.5362 -1.4395,1.3291 -3.3497,1.9931 -5.7315,1.9931 l -18.1357,0 0,-15.0312 z"
       id="path15" /><path
       inkscape:connector-curvature="0"
       style="fill:#ffffff;fill-rule:nonzero;stroke:none"
       d="m 58.76368,284.73599 c 0,3.543 1.1768,6.414 3.5312,8.615 2.2706,2.103 5.0948,3.155 8.473699,3.155 3.3086,0 6.0576,-1.274 8.2451,-3.82 2.0908,-2.45 3.1357,-5.425 3.1357,-8.926 0,-2.298 -0.4629,-4.486 -1.3906,-6.561 -0.9971,-2.215 -2.2568,-3.619 -3.7803,-4.215 2.6866,-2.227 4.0293,-5.6942 4.0293,-10.4002 0,-2.6993 -1.0595,-5.0792 -3.1777,-7.1417 -2.1602,-2.0761 -4.5137,-3.1142 -7.0615,-3.1142 -2.588899,0 -4.915099,0.8096 -6.978499,2.4287 -2.4092,1.8408 -3.6133,4.2354 -3.6133,7.1826 l 5.6484,0.7266 c 0,-1.0518 0.5401,-2.0303 1.6201,-2.9375 1.0801,-0.9063 2.112299,-1.3594 3.094799,-1.3594 1.0527,0 2.0488,0.4219 2.9912,1.2656 1.0107,0.9414 1.5156,2.0489 1.5156,3.3223 0,1.6191 -0.4082,3.1621 -1.2256,4.6299 -0.9141,1.5913 -1.9658,2.3873 -3.1562,2.3873 l -2.493199,0 0,6 3.613299,0 c 1.7871,0 3.0332,1.018 3.7392,3.052 0.3731,1.135 0.6016,2.823 0.6856,5.067 0,0.083 0,0.165 0,0.249 0,1.674 -0.5264,3.106 -1.5791,4.296 -1.1074,1.247 -2.4297,1.87 -3.9668,1.87 -3.904299,0 -5.856499,-1.924 -5.856499,-5.772 l -6.0439,0 z"
       id="path17" /><path
       inkscape:connector-curvature="0"
       style="fill:#ffffff;fill-rule:evenodd;stroke:none"
       d="m 101.13617,296.46399 c 4.359,0 7.549,-1.904 9.57001,-5.709 1.86799,-3.543 2.802,-8.983 2.802,-16.318 0,-14.739 -4.15201,-22.1091 -12.45501,-22.1091 -8.166495,0 -12.249495,7.3701 -12.249495,22.1091 0,14.685 4.1104,22.027 12.332495,22.027 z m 0,-5.914 c -4.277795,0 -6.415495,-5.372 -6.415495,-16.112 0,-10.74 2.124,-16.1111 6.373495,-16.1111 2.186,0 3.84,1.5713 4.961,4.7129 1.025,2.8096 1.537,6.6092 1.537,11.3982 0,10.74 -2.153,16.112 -6.456,16.112 z"
       id="path19" /><path
       inkscape:connector-curvature="0"
       style="fill:#ffffff;fill-rule:nonzero;stroke:none"
       d="m 44.44438,307.04599 0,5.67 98.7922,0 0,5.669 -98.7922,0 0,5.668 -14.5938,-8.503 14.5938,-8.504 z"
       id="path21" /></g></g></svg>