<?xml version="1.0" encoding="UTF-8" standalone="no"?>
<!-- Created with Inkscape (http://www.inkscape.org/) -->

<svg
   xmlns:dc="http://purl.org/dc/elements/1.1/"
   xmlns:cc="http://creativecommons.org/ns#"
   xmlns:rdf="http://www.w3.org/1999/02/22-rdf-syntax-ns#"
   xmlns:svg="http://www.w3.org/2000/svg"
   xmlns="http://www.w3.org/2000/svg"
   xmlns:sodipodi="http://sodipodi.sourceforge.net/DTD/sodipodi-0.dtd"
   xmlns:inkscape="http://www.inkscape.org/namespaces/inkscape"
   id="svg17624"
   version="1.1"
   inkscape:version="0.48.2 r9819"
   width="213.78906"
   height="142.92969"
   xml:space="preserve"
   sodipodi:docname="AA.svg"><metadata
     id="metadata17630"><rdf:RDF><cc:Work
         rdf:about=""><dc:format>image/svg+xml</dc:format><dc:type
           rdf:resource="http://purl.org/dc/dcmitype/StillImage" /><dc:title /></cc:Work></rdf:RDF></metadata><defs
     id="defs17628"><inkscape:perspective
       sodipodi:type="inkscape:persp3d"
       inkscape:vp_x="0 : 0.5 : 1"
       inkscape:vp_y="0 : 1000 : 0"
       inkscape:vp_z="1 : 0.5 : 1"
       inkscape:persp3d-origin="0.5 : 0.33333333 : 1"
       id="perspective17632" /><clipPath
       clipPathUnits="userSpaceOnUse"
       id="clipPath17642"><path
         d="m -2,710 501,0 0,-711 -501,0 0,711 z"
         id="path17644"
         inkscape:connector-curvature="0" /></clipPath><clipPath
       clipPathUnits="userSpaceOnUse"
       id="clipPath17648"><path
         d="m 0,708.06 498,0 0,-708 -498,0 0,708 z"
         id="path17650"
         inkscape:connector-curvature="0" /></clipPath><clipPath
       clipPathUnits="userSpaceOnUse"
       id="clipPath17798"><path
         d="m -2,710 501,0 0,-711 -501,0 0,711 z"
         id="path17800"
         inkscape:connector-curvature="0" /></clipPath><clipPath
       clipPathUnits="userSpaceOnUse"
       id="clipPath17804"><path
         d="m 0,708.06 498,0 0,-708 -498,0 0,708 z"
         id="path17806"
         inkscape:connector-curvature="0" /></clipPath><clipPath
       id="Clip0"><path
         inkscape:connector-curvature="0"
         d="m 0,0 212.597,0 0,269.292 L 0,269.292 0,0 z"
         transform="translate(0.923828,0.879883)"
         id="path7" /></clipPath><clipPath
       id="Clip0-8"><path
         inkscape:connector-curvature="0"
         d="m 0,0 170.079,0 0,113.386 L 0,113.386 0,0 z"
         transform="translate(0.0986328,0.822266)"
         id="path7-8" /></clipPath></defs><sodipodi:namedview
     pagecolor="#ffffff"
     bordercolor="#666666"
     borderopacity="1"
     objecttolerance="10"
     gridtolerance="10"
     guidetolerance="10"
     inkscape:pageopacity="0"
     inkscape:pageshadow="2"
     inkscape:window-width="1280"
     inkscape:window-height="1004"
     id="namedview17626"
     showgrid="false"
     inkscape:zoom="1.4158115"
     inkscape:cx="355.07136"
     inkscape:cy="248.81079"
     inkscape:window-x="-8"
     inkscape:window-y="-8"
     inkscape:window-maximized="1"
     inkscape:current-layer="g17634"
     fit-margin-top="0"
     fit-margin-left="0"
     fit-margin-right="0"
     fit-margin-bottom="0"
     showguides="true"
     inkscape:guide-bbox="true" /><g
     id="g17634"
     inkscape:groupmode="layer"
     inkscape:label="GG1999P002"
     transform="matrix(1.25,0,0,-1.25,460.85937,-108.94531)"><path
       inkscape:connector-curvature="0"
       style="fill:#ffffff;fill-rule:nonzero;stroke:#000000;stroke-width:0.96;stroke-miterlimit:4;stroke-opacity:1;stroke-dasharray:none"
       d="m -368.2075,-104.63371 c 0,9.393538 7.61425,17.007798 17.0079,17.007798 l 136.0631,0 c 9.393,0 17.008,-7.61426 17.008,-17.007798 l 0,-79.37011 c 0,-9.39309 -7.615,-17.00809 -17.008,-17.00809 l -136.0631,0 c -9.39365,0 -17.0079,7.615 -17.0079,17.00809 l 0,79.37011 z"
       id="path11" /><path
       inkscape:connector-curvature="0"
       style="fill:#c0111e;fill-opacity:1;fill-rule:nonzero;stroke:none"
       d="m -365.93993,-104.63369 c 0,8.140592 6.59961,14.740202 14.7403,14.740202 l 136.0627,0 c 8.141,0 14.74,-6.59961 14.74,-14.740202 l 0,-79.37009 c 0,-8.14071 -6.599,-14.74071 -14.74,-14.74071 l -136.0627,0 c -8.14069,0 -14.7403,6.6 -14.7403,14.74071 l 0,79.37009 z"
       id="path13" /><path
       inkscape:connector-curvature="0"
       style="fill:#ffffff;fill-rule:nonzero;stroke:none"
       d="m -362.25536,-104.63374 c 0,6.10551 4.95021,11.0547 11.0557,11.0547 l 136.0623,0 c 6.106,0 11.055,-4.94919 11.055,-11.0547 l 0,-79.3701 c 0,-6.1053 -4.949,-11.0542 -11.055,-11.0542 l -136.0623,0 c -6.10549,0 -11.0557,4.9489 -11.0557,11.0542 l 0,79.3701 z"
       id="path15" /><path
       inkscape:connector-curvature="0"
       style="fill:#000000;fill-rule:nonzero;stroke:none"
       d="m -349.49945,-108.82413 0,-28.3467 17.291,0 0,4.4219 -12.8975,0 0,7.9931 8.2774,0 0,4.4229 -8.2774,0 0,6.9726 11.8496,0 0,4.5362 -16.2431,0 z"
       id="path17" /><path
       inkscape:connector-curvature="0"
       style="fill:#000000;fill-rule:nonzero;stroke:none"
       d="m -321.77685,-122.60053 -6.9443,-14.5703 4.9033,0 4.4228,9.4102 4.9034,-9.4102 4.7343,0 -7.0586,14.5703 6.5762,13.7764 -4.9043,0 -4.251,-8.4199 -3.9687,8.4199 -5.1025,0 6.6894,-13.7764 z"
       id="path19" /><path
       inkscape:connector-curvature="0"
       style="fill:#000000;fill-rule:nonzero;stroke:none"
       d="m -289.97215,-115.76943 4.1387,1.7861 c -1.7578,3.8164 -4.7432,5.7256 -8.958,5.7256 -3.4961,0 -6.0938,-1.7383 -7.795,-5.2158 -1.3232,-2.6836 -1.9746,-5.9336 -1.956,-9.751 0.0185,-3.8926 0.7939,-7.1436 2.3242,-9.751 1.8711,-3.1562 4.5732,-4.7334 8.1074,-4.7334 2.0596,0 3.8555,0.6416 5.3858,1.9268 1.4365,1.2285 2.4658,2.8916 3.0898,4.9892 l -4.167,1.0489 c -0.3213,-0.8887 -0.9541,-1.7012 -1.8994,-2.4385 -0.9258,-0.7364 -1.8047,-1.1055 -2.6357,-1.1055 -2.0977,0 -3.6856,1.2002 -4.7627,3.6006 -0.8125,1.833 -1.2188,3.9209 -1.2188,6.2637 0,2.7216 0.3399,4.9707 1.0205,6.747 1.001,2.6836 2.6739,4.0254 5.0176,4.0254 1.0391,0 1.8897,-0.2558 2.5508,-0.7656 0.6611,-0.4912 1.2471,-1.2754 1.7578,-2.3525 z"
       id="path21" /><path
       inkscape:connector-curvature="0"
       style="fill:#000000;fill-rule:nonzero;stroke:none"
       d="m -280.56104,-108.82413 0,-28.3467 17.2911,0 0,4.4219 -12.8975,0 0,7.9931 8.2765,0 0,4.4229 -8.2765,0 0,6.9726 11.8485,0 0,4.5362 -16.2421,0 z"
       id="path23" /><path
       inkscape:connector-curvature="0"
       style="fill:#000000;fill-rule:evenodd;stroke:none"
       d="m -253.74595,-113.02043 6.54701,0 c 0.90799,0 1.71099,-0.3486 2.40999,-1.0488 0.718,-0.6797 1.078,-1.4356 1.078,-2.2676 0,-1.0957 -0.303,-2.0313 -0.908,-2.8057 -0.604,-0.7754 -1.379,-1.1621 -2.324,-1.1621 l -6.803,0 0,7.2842 z m -4.39299,4.1963 0,-28.3467 4.39299,0 0,12.3877 5.86801,0 c 2.53199,0 4.629,0.8213 6.29299,2.4658 1.606,1.6065 2.40901,3.5908 2.40901,5.9522 0,2.1171 -0.80301,3.9023 -2.40901,5.3574 -1.607,1.4551 -3.506,2.1826 -5.698,2.1836 l -10.85599,0 z"
       id="path25" /><path
       inkscape:connector-curvature="0"
       style="fill:#000000;fill-rule:nonzero;stroke:none"
       d="m -234.10195,-108.82413 0,-4.167 6.519,0 0,-24.1797 4.281,0 0,24.1797 6.491,0 0,4.167 -17.291,0 z"
       id="path27" /><path
       inkscape:connector-curvature="0"
       style="fill:#000000;fill-rule:evenodd;stroke:none"
       d="m -342.12935,-151.34373 0,-28.3466 11.3662,0 c 1.9853,0 3.7422,0.7558 5.2734,2.2675 1.5498,1.5118 2.3242,3.2315 2.3242,5.1592 0,1.8516 -0.3496,3.335 -1.0488,4.4502 -0.6992,1.1338 -1.8808,2.1074 -3.5439,2.919 1.5127,0.9453 2.5605,1.9375 3.1474,2.9775 0.5479,0.9248 0.8213,2.0967 0.8213,3.5147 0,1.7568 -0.6514,3.3447 -1.956,4.7617 -1.3985,1.5312 -3.0704,2.2968 -5.0176,2.2968 l -11.3662,0 z m 4.4785,-11.4521 0,6.8594 6.7178,0 c 0.7568,0 1.4082,-0.2451 1.956,-0.7373 0.5674,-0.4727 0.8506,-1.0489 0.8506,-1.7285 0,-1.0206 -0.4062,-1.9942 -1.2187,-2.92 -0.8311,-0.9824 -1.7579,-1.4736 -2.7784,-1.4736 l -5.5273,0 z m 0,-12.3594 0,7.8516 5.6982,0 c 1.1709,0 2.2207,-0.4815 3.1455,-1.4453 0.9453,-0.9453 1.418,-2.003 1.418,-3.1748 0,-0.6231 -0.3213,-1.3233 -0.9639,-2.0977 -0.6425,-0.7558 -1.247,-1.1338 -1.8144,-1.1338 l -7.4834,0 z"
       id="path29" /><path
       inkscape:connector-curvature="0"
       style="fill:#000000;fill-rule:nonzero;stroke:none"
       d="m -316.58935,-170.95993 c 0,-2.4384 0.9346,-4.5918 2.8057,-6.4629 1.8711,-1.8711 4.1006,-2.8066 6.6904,-2.8066 2.7588,0 5.0264,0.9258 6.8027,2.7783 1.7764,1.8516 2.6651,4.1289 2.6651,6.8311 l 0,19.2763 -4.3379,0 0,-19.871 c 0,-1.3047 -0.5381,-2.4004 -1.6152,-3.2881 -1.002,-0.8321 -2.1729,-1.2481 -3.5147,-1.2481 -1.3232,0 -2.4951,0.4912 -3.5156,1.4746 -1.0205,0.9824 -1.5303,2.0879 -1.5303,3.3164 l 0,19.6162 -4.4502,0 0,-19.6162 z"
       id="path31" /><path
       inkscape:connector-curvature="0"
       style="fill:#000000;fill-rule:nonzero;stroke:none"
       d="m -291.07765,-172.94423 c 0.7364,-2.1163 2.1543,-3.8926 4.252,-5.3291 1.9267,-1.3038 3.8076,-1.9561 5.6406,-1.9561 2.7588,0 4.96,0.8506 6.6045,2.5518 1.6445,1.7002 2.4668,3.9023 2.4668,6.6045 0,1.7763 -0.501,3.3632 -1.5029,4.7617 -0.9073,1.2285 -2.1348,2.2207 -3.6846,2.9765 -0.7002,0.3399 -1.7481,0.5762 -3.1465,0.709 -1.5879,0.1699 -2.5986,0.3213 -3.0332,0.4531 -0.5674,0.17 -1.0586,0.5293 -1.4746,1.0772 -0.415,0.5674 -0.623,1.1621 -0.623,1.7861 0,0.9824 0.3964,1.8994 1.1904,2.75 0.8125,0.8692 1.748,1.2842 2.8066,1.2461 2.2295,-0.0566 3.6563,-1.039 4.2803,-2.9472 l 4.1953,1.2753 c -0.8125,2.1358 -1.8613,3.7041 -3.1465,4.7061 -1.2666,1.001 -2.873,1.502 -4.8193,1.502 -2.4004,0 -4.4502,-0.8038 -6.1514,-2.4092 -1.7763,-1.7012 -2.664,-3.8653 -2.664,-6.4912 0,-2.1553 0.7558,-3.875 2.2675,-5.1602 1.3604,-1.1523 2.7305,-1.8037 4.1104,-1.9551 2.7021,-0.3027 4.583,-0.8408 5.6406,-1.6162 0.9824,-0.7363 1.4736,-1.8613 1.4736,-3.373 0,-0.9639 -0.4345,-1.8614 -1.3037,-2.6934 -0.8506,-0.8125 -1.7285,-1.2187 -2.6357,-1.2187 -1.6445,0 -2.9385,0.3027 -3.8838,0.9072 -0.9258,0.6045 -1.7861,1.7012 -2.5801,3.2881 l -4.2793,-1.4453 z"
       id="path33" /><path
       inkscape:connector-curvature="0"
       style="fill:#000000;fill-rule:nonzero;stroke:none"
       d="m -265.62394,-151.34373 0,-28.3466 17.291,0 0,4.4218 -12.897,0 0,7.9932 8.277,0 0,4.4229 -8.277,0 0,6.9726 11.85,0 0,4.5361 -16.244,0 z"
       id="path35" /><path
       inkscape:connector-curvature="0"
       style="fill:#000000;fill-rule:nonzero;stroke:none"
       d="m -243.20195,-172.94423 c 0.737,-2.1163 2.155,-3.8926 4.252,-5.3291 1.928,-1.3038 3.808,-1.9561 5.641,-1.9561 2.759,0 4.961,0.8506 6.604,2.5518 1.645,1.7002 2.467,3.9023 2.467,6.6045 0,1.7763 -0.501,3.3632 -1.503,4.7617 -0.906,1.2285 -2.135,2.2207 -3.684,2.9765 -0.7,0.3399 -1.748,0.5762 -3.147,0.709 -1.588,0.1699 -2.598,0.3213 -3.033,0.4531 -0.567,0.17 -1.059,0.5293 -1.474,1.0772 -0.416,0.5674 -0.624,1.1621 -0.624,1.7861 0,0.9824 0.397,1.8994 1.191,2.75 0.812,0.8692 1.748,1.2842 2.806,1.2461 2.23,-0.0566 3.657,-1.039 4.281,-2.9472 l 4.195,1.2753 c -0.813,2.1358 -1.861,3.7041 -3.146,4.7061 -1.266,1.001 -2.873,1.502 -4.82,1.502 -2.399,0 -4.45,-0.8038 -6.151,-2.4092 -1.777,-1.7012 -2.664,-3.8653 -2.664,-6.4912 0,-2.1553 0.756,-3.875 2.267,-5.1602 1.362,-1.1523 2.731,-1.8037 4.111,-1.9551 2.702,-0.3027 4.583,-0.8408 5.64,-1.6162 0.984,-0.7363 1.475,-1.8613 1.475,-3.373 0,-0.9639 -0.435,-1.8614 -1.305,-2.6934 -0.849,-0.8125 -1.728,-1.2187 -2.636,-1.2187 -1.643,0 -2.938,0.3027 -3.883,0.9072 -0.926,0.6045 -1.786,1.7012 -2.579,3.2881 l -4.281,-1.4453 z"
       id="path37" /></g></svg>