<?xml version="1.0" encoding="UTF-8" standalone="no"?>
<!-- Created with Inkscape (http://www.inkscape.org/) -->

<svg
   xmlns:dc="http://purl.org/dc/elements/1.1/"
   xmlns:cc="http://creativecommons.org/ns#"
   xmlns:rdf="http://www.w3.org/1999/02/22-rdf-syntax-ns#"
   xmlns:svg="http://www.w3.org/2000/svg"
   xmlns="http://www.w3.org/2000/svg"
   xmlns:sodipodi="http://sodipodi.sourceforge.net/DTD/sodipodi-0.dtd"
   xmlns:inkscape="http://www.inkscape.org/namespaces/inkscape"
   id="svg17624"
   version="1.1"
   inkscape:version="0.48.4 r9939"
   width="200.2"
   height="200.2"
   xml:space="preserve"
   sodipodi:docname="AJAX1.svg"><metadata
     id="metadata17630"><rdf:RDF><cc:Work
         rdf:about=""><dc:format>image/svg+xml</dc:format><dc:type
           rdf:resource="http://purl.org/dc/dcmitype/StillImage" /><dc:title /></cc:Work></rdf:RDF></metadata><defs
     id="defs17628"><inkscape:perspective
       sodipodi:type="inkscape:persp3d"
       inkscape:vp_x="0 : 0.5 : 1"
       inkscape:vp_y="0 : 1000 : 0"
       inkscape:vp_z="1 : 0.5 : 1"
       inkscape:persp3d-origin="0.5 : 0.33333333 : 1"
       id="perspective17632" /><clipPath
       clipPathUnits="userSpaceOnUse"
       id="clipPath17642"><path
         d="m -2,710 501,0 0,-711 -501,0 0,711 z"
         id="path17644"
         inkscape:connector-curvature="0" /></clipPath><clipPath
       clipPathUnits="userSpaceOnUse"
       id="clipPath17648"><path
         d="m 0,708.06 498,0 0,-708 -498,0 0,708 z"
         id="path17650"
         inkscape:connector-curvature="0" /></clipPath><clipPath
       clipPathUnits="userSpaceOnUse"
       id="clipPath17798"><path
         d="m -2,710 501,0 0,-711 -501,0 0,711 z"
         id="path17800"
         inkscape:connector-curvature="0" /></clipPath><clipPath
       clipPathUnits="userSpaceOnUse"
       id="clipPath17804"><path
         d="m 0,708.06 498,0 0,-708 -498,0 0,708 z"
         id="path17806"
         inkscape:connector-curvature="0" /></clipPath><clipPath
       id="Clip0"><path
         inkscape:connector-curvature="0"
         d="m 0,0 212.597,0 0,269.292 L 0,269.292 0,0 z"
         transform="translate(0.923828,0.879883)"
         id="path7" /></clipPath></defs><sodipodi:namedview
     pagecolor="#ffffff"
     bordercolor="#666666"
     borderopacity="1"
     objecttolerance="10"
     gridtolerance="10"
     guidetolerance="10"
     inkscape:pageopacity="0"
     inkscape:pageshadow="2"
     inkscape:window-width="1280"
     inkscape:window-height="1004"
     id="namedview17626"
     showgrid="false"
     inkscape:zoom="2.8969967"
     inkscape:cx="75.782634"
     inkscape:cy="88.232515"
     inkscape:window-x="-8"
     inkscape:window-y="-8"
     inkscape:window-maximized="1"
     inkscape:current-layer="g17634"
     fit-margin-top="0.1"
     fit-margin-left="0.1"
     fit-margin-right="0.1"
     fit-margin-bottom="0.1"
     showguides="true"
     inkscape:guide-bbox="true" /><g
     id="g17634"
     inkscape:groupmode="layer"
     inkscape:label="GG1999P002"
     transform="matrix(1.25,0,0,-1.25,160.49062,77.404677)"><path
       sodipodi:nodetypes="sssss"
       inkscape:connector-curvature="0"
       id="path3787"
       d="m 31.6875,-18.156349 c 0,44.18241 -35.816846,80.000091 -80.000009,80.000091 -44.183435,0 -79.999991,-35.817587 -79.999991,-80.000001 0,-44.18334 35.816556,-80 79.999991,-80 44.183163,0 80.000009,35.81656 80.000009,79.9999 z"
       style="fill:#c0111e;fill-opacity:1;fill-rule:nonzero;stroke:none" /><path
       style="fill:#ffffff;fill-opacity:1;fill-rule:nonzero;stroke:none"
       d="m 11.687504,-18.156332 c 0,33.136805 -26.862632,60.000062 -60,60.000062 -33.137573,0 -60.000004,-26.863186 -60.000004,-59.999994 0,-33.137502 26.862431,-59.999994 60.000004,-59.999994 33.137368,0 60,26.862416 60,59.999919 z"
       id="path3033"
       inkscape:connector-curvature="0"
       sodipodi:nodetypes="sssss" /><path
       inkscape:connector-curvature="0"
       style="fill:#000000;fill-rule:evenodd;stroke:none"
       d="m -57.846196,14.690967 21.55892,0 c 2.9876,0 5.63108,-1.15109 7.93401,-3.45336 2.36408,-2.2406496 3.54565,-4.7284296 3.54565,-7.4671146 0,-3.608581 -0.99531,-6.687996 -2.98591,-9.240128 -1.99155,-2.550344 -4.54189,-3.826363 -7.6531,-3.826363 l -22.39957,0 0,23.9869656 z m -14.46659,13.81441 0,-93.333684 14.46659,0 0,40.786405 19.32007,0 c 8.33748,0 15.24344,2.706416 20.720429,8.119332 5.287895,5.288933 7.931372,11.8235904 7.931372,19.6003054 0,6.9682416 -2.643477,12.8488016 -7.931372,17.6398016 -5.289779,4.79091 -11.542869,7.18596 -18.760789,7.18784 l -35.7463,0 z"
       id="path13" /><path
       sodipodi:nodetypes="ccccc"
       inkscape:connector-curvature="0"
       id="path3034"
       d="m -103.93804,28.041576 9.41866,9.418663 L 7.3039964,-64.363138 -2.1146659,-73.7818 z"
       style="fill:#c0111e;fill-opacity:1;stroke:none" /></g></svg>