<?xml version="1.0" encoding="UTF-8" standalone="no"?>
<!-- Created with Inkscape (http://www.inkscape.org/) -->

<svg
   xmlns:dc="http://purl.org/dc/elements/1.1/"
   xmlns:cc="http://creativecommons.org/ns#"
   xmlns:rdf="http://www.w3.org/1999/02/22-rdf-syntax-ns#"
   xmlns:svg="http://www.w3.org/2000/svg"
   xmlns="http://www.w3.org/2000/svg"
   xmlns:sodipodi="http://sodipodi.sourceforge.net/DTD/sodipodi-0.dtd"
   xmlns:inkscape="http://www.inkscape.org/namespaces/inkscape"
   id="svg17624"
   version="1.1"
   inkscape:version="0.48.4 r9939"
   width="200.2"
   height="200.2"
   xml:space="preserve"
   sodipodi:docname="AJAX1.svg"><metadata
     id="metadata17630"><rdf:RDF><cc:Work
         rdf:about=""><dc:format>image/svg+xml</dc:format><dc:type
           rdf:resource="http://purl.org/dc/dcmitype/StillImage" /><dc:title /></cc:Work></rdf:RDF></metadata><defs
     id="defs17628"><inkscape:perspective
       sodipodi:type="inkscape:persp3d"
       inkscape:vp_x="0 : 0.5 : 1"
       inkscape:vp_y="0 : 1000 : 0"
       inkscape:vp_z="1 : 0.5 : 1"
       inkscape:persp3d-origin="0.5 : 0.33333333 : 1"
       id="perspective17632" /><clipPath
       clipPathUnits="userSpaceOnUse"
       id="clipPath17642"><path
         d="m -2,710 501,0 0,-711 -501,0 0,711 z"
         id="path17644"
         inkscape:connector-curvature="0" /></clipPath><clipPath
       clipPathUnits="userSpaceOnUse"
       id="clipPath17648"><path
         d="m 0,708.06 498,0 0,-708 -498,0 0,708 z"
         id="path17650"
         inkscape:connector-curvature="0" /></clipPath><clipPath
       clipPathUnits="userSpaceOnUse"
       id="clipPath17798"><path
         d="m -2,710 501,0 0,-711 -501,0 0,711 z"
         id="path17800"
         inkscape:connector-curvature="0" /></clipPath><clipPath
       clipPathUnits="userSpaceOnUse"
       id="clipPath17804"><path
         d="m 0,708.06 498,0 0,-708 -498,0 0,708 z"
         id="path17806"
         inkscape:connector-curvature="0" /></clipPath><clipPath
       id="Clip0"><path
         inkscape:connector-curvature="0"
         d="m 0,0 212.597,0 0,269.292 L 0,269.292 0,0 z"
         transform="translate(0.923828,0.879883)"
         id="path7" /></clipPath></defs><sodipodi:namedview
     pagecolor="#ffffff"
     bordercolor="#666666"
     borderopacity="1"
     objecttolerance="10"
     gridtolerance="10"
     guidetolerance="10"
     inkscape:pageopacity="0"
     inkscape:pageshadow="2"
     inkscape:window-width="1280"
     inkscape:window-height="1004"
     id="namedview17626"
     showgrid="false"
     inkscape:zoom="2.9593565"
     inkscape:cx="83.407904"
     inkscape:cy="93.663405"
     inkscape:window-x="-8"
     inkscape:window-y="-8"
     inkscape:window-maximized="1"
     inkscape:current-layer="g17634"
     fit-margin-top="0.1"
     fit-margin-left="0.1"
     fit-margin-right="0.1"
     fit-margin-bottom="0.1"
     showguides="true"
     inkscape:guide-bbox="true" /><g
     id="g17634"
     inkscape:groupmode="layer"
     inkscape:label="GG1999P002"
     transform="matrix(1.25,0,0,-1.25,160.49062,77.404678)"><path
       style="fill:#c0111e;fill-opacity:1;fill-rule:nonzero;stroke:none"
       d="m -128.3125,-18.156354 c 0,44.182415 35.816846,80.000096 80.000009,80.000096 44.1834349,0 79.999991,-35.817587 79.999991,-79.999998 0,-44.183344 -35.8165561,-79.999998 -79.999991,-79.999998 -44.183163,0 -80.000009,35.816556 -80.000009,79.9999 z"
       id="path11"
       inkscape:connector-curvature="0"
       sodipodi:nodetypes="sssss" /><path
       sodipodi:nodetypes="sssss"
       inkscape:connector-curvature="0"
       id="path3067"
       d="m -118.7125,-18.156348 c 0,38.880524 31.518831,70.400082 70.400014,70.400082 38.881421,0 70.39999,-31.519475 70.39999,-70.399996 0,-38.881341 -31.518569,-70.399996 -70.39999,-70.399996 -38.881183,0 -70.400014,31.518569 -70.400014,70.39991 z"
       style="fill:#ffffff;fill-opacity:1;fill-rule:nonzero;stroke:none" /><path
       inkscape:connector-curvature="0"
       style="fill:#000000;fill-rule:nonzero;stroke:none"
       d="m -76.569696,15.65192 0,-0.734221 c 0,-3.179369 -0.88414,-4.769049 -2.65444,-4.769049 -0.78954,0 -1.49509,0.42762 -2.11236,1.28082 -0.42761,0.597629 -0.77824,2.495949 -1.05617,5.69518 -0.23368,2.66573 -0.3416,5.09756 -0.3197,7.295709 0.0641,6.123031 0.37275,9.846971 0.92839,11.167531 0.48948,1.173129 1.34268,1.76172 2.55984,1.76172 1.13091,0 1.88725,-0.5247 2.27085,-1.569811 0.2558,-0.661529 0.38359,-1.662389 0.38359,-3.007329 l 3.00958,0 c 0,2.58174 -0.31969,4.277309 -0.96112,5.088749 -1.30092,1.642511 -2.86848,2.46276 -4.7029,2.46276 -1.87868,0 -3.39341,-0.756349 -4.54418,-2.27108 -1.30092,-1.706409 -1.95138,-6.228689 -1.95138,-13.56842 0,-9.06646 0.84214,-14.302869 2.52665,-15.7117089 1.40907,-1.173131 2.72963,-1.7484 3.96891,-1.728531 2.15412,0.0226 3.78557,0.980991 4.89458,2.881571 0.21381,0.3616889 0.39466,0.9371889 0.54457,1.7264999 0.16979,0.789309 0.25581,1.472729 0.25581,2.04824 l -0.0309,1.951369 -3.00958,0 z"
       id="path97" /><path
       inkscape:connector-curvature="0"
       style="fill:#000000;fill-rule:nonzero;stroke:none"
       d="m -70.168966,39.65365 0,-32.0009499 10.88079,0 0,2.7847099 -7.90417,0 0,29.21624 -2.97662,0 z"
       id="path99" /><path
       inkscape:connector-curvature="0"
       style="fill:#000000;fill-rule:evenodd;stroke:none"
       d="m -51.705736,18.56442 4.0967,0 -2.11236,12.22371 -1.98434,-12.22371 z m -4.99167,-10.9117199 5.47235,32.0009499 3.10441,0 5.50327,-32.0009499 -3.04051,0 -1.43977,7.8073099 -5.18358,0 -1.37565,-7.8073099 -3.04052,0 z"
       id="path101" /><path
       inkscape:connector-curvature="0"
       style="fill:#000000;fill-rule:nonzero;stroke:none"
       d="m -38.840376,14.917699 c 0,-2.8179 0.75613,-4.9191889 2.27085,-6.3036489 1.15326,-1.04511 2.49596,-1.56981 4.0328,-1.56981 1.8762,0 3.36,0.71435 4.4471,2.14509 0.96135,1.2790199 1.43976,2.8576399 1.43976,4.7360899 0,1.8123 -0.60642,4.03054 -1.82336,6.65427 -1.21489,2.64564 -2.60182,4.70516 -4.16058,6.1779 -0.5116,0.48948 -1.08688,1.56755 -1.72651,3.23016 -0.61953,1.66465 -0.92816,2.98746 -0.92816,3.96868 0,2.26205 0.93719,3.39318 2.81564,3.39318 1.04512,0 1.74841,-0.44974 2.11213,-1.34494 0.23368,-0.5755 0.35063,-1.4619 0.35063,-2.65693 l 2.91251,0 c 0,2.34829 -0.4055,4.07457 -1.21468,5.18584 -0.87532,1.1729 -2.28439,1.75946 -4.22448,1.75946 -1.68676,0 -3.04052,-0.51138 -4.06351,-1.53662 -1.11125,-1.10924 -1.66464,-2.68786 -1.66464,-4.73609 0,-1.32282 0.37253,-2.96556 1.11985,-4.92778 0.68139,-1.81252 1.4068,-3.22136 2.17626,-4.22448 0.8532,-1.045111 1.69556,-2.07916 2.52686,-3.104411 0.9171,-1.23702 1.63146,-2.632539 2.14532,-4.191519 0.42536,-1.30069 0.6394,-2.46276 0.6394,-3.488001 0,-1.258929 -0.289,-2.240149 -0.8645,-2.94344 -0.57527,-0.68342 -1.30068,-1.02298 -2.17602,-1.02298 -0.91733,0 -1.60954,0.266641 -2.07917,0.798111 -0.63939,0.74754 -0.98121,2.081429 -1.02524,4.001869 l -3.03826,0 z"
       id="path106" /><path
       inkscape:connector-curvature="0"
       style="fill:#000000;fill-rule:nonzero;stroke:none"
       d="m -23.097966,14.917699 c 0,-2.8179 0.75861,-4.9191889 2.27333,-6.3036489 1.15079,-1.04511 2.495731,-1.56981 4.030323,-1.56981 1.87868,0 3.360224,0.71435 4.44936,2.14509 0.959088,1.2790199 1.439768,2.8576399 1.439768,4.7360899 0,1.8123 -0.608464,4.03054 -1.823368,6.65427 -1.217152,2.64564 -2.603856,4.70516 -4.160576,6.1779 -0.511392,0.48948 -1.089152,1.56755 -1.728544,3.23016 -0.617272,1.66465 -0.928163,2.98746 -0.928163,3.96868 0,2.26205 0.939227,3.39318 2.815427,3.39318 1.047368,0 1.750656,-0.44974 2.112344,-1.34494 0.235936,-0.5755 0.352664,-1.4619 0.352664,-2.65693 l 2.912728,0 c 0,2.34829 -0.40572,4.07457 -1.21716,5.18584 -0.873064,1.1729 -2.281904,1.75946 -4.22448,1.75946 -1.684504,0 -3.038253,-0.51138 -4.063493,-1.53662 -1.10901,-1.10924 -1.6624,-2.68786 -1.6624,-4.73609 0,-1.32282 0.37253,-2.96556 1.12008,-4.92778 0.68116,-1.81252 1.40657,-3.22136 2.173989,-4.22448 0.853208,-1.045111 1.697608,-2.07916 2.528904,-3.104411 0.917104,-1.23702 1.631464,-2.632539 2.143064,-4.191519 0.427848,-1.30069 0.641656,-2.46276 0.641656,-3.488001 0,-1.258929 -0.288768,-2.240149 -0.864264,-2.94344 -0.575504,-0.68342 -1.30092,-1.02298 -2.176256,-1.02298 -0.917096,0 -1.611808,0.266641 -2.07916,0.798111 -0.641653,0.74754 -0.981213,2.081429 -1.025253,4.001869 l -3.04052,0 z"
       id="path108" /><path
       inkscape:connector-curvature="0"
       style="fill:#000000;fill-rule:nonzero;stroke:none"
       d="m -52.792496,-8.8763944 8.96034,0 0,-63.9998636 -8.96034,0 0,63.9998636 z"
       id="path126" /></g></svg>