<?xml version="1.0" encoding="UTF-8" standalone="no"?>
<!-- Created with Inkscape (http://www.inkscape.org/) -->

<svg
   xmlns:dc="http://purl.org/dc/elements/1.1/"
   xmlns:cc="http://creativecommons.org/ns#"
   xmlns:rdf="http://www.w3.org/1999/02/22-rdf-syntax-ns#"
   xmlns:svg="http://www.w3.org/2000/svg"
   xmlns="http://www.w3.org/2000/svg"
   xmlns:sodipodi="http://sodipodi.sourceforge.net/DTD/sodipodi-0.dtd"
   xmlns:inkscape="http://www.inkscape.org/namespaces/inkscape"
   id="svg17624"
   version="1.1"
   inkscape:version="0.48.2 r9819"
   width="213.78906"
   height="142.92969"
   xml:space="preserve"
   sodipodi:docname="AA.svg"><metadata
     id="metadata17630"><rdf:RDF><cc:Work
         rdf:about=""><dc:format>image/svg+xml</dc:format><dc:type
           rdf:resource="http://purl.org/dc/dcmitype/StillImage" /><dc:title /></cc:Work></rdf:RDF></metadata><defs
     id="defs17628"><inkscape:perspective
       sodipodi:type="inkscape:persp3d"
       inkscape:vp_x="0 : 0.5 : 1"
       inkscape:vp_y="0 : 1000 : 0"
       inkscape:vp_z="1 : 0.5 : 1"
       inkscape:persp3d-origin="0.5 : 0.33333333 : 1"
       id="perspective17632" /><clipPath
       clipPathUnits="userSpaceOnUse"
       id="clipPath17642"><path
         d="m -2,710 501,0 0,-711 -501,0 0,711 z"
         id="path17644"
         inkscape:connector-curvature="0" /></clipPath><clipPath
       clipPathUnits="userSpaceOnUse"
       id="clipPath17648"><path
         d="m 0,708.06 498,0 0,-708 -498,0 0,708 z"
         id="path17650"
         inkscape:connector-curvature="0" /></clipPath><clipPath
       clipPathUnits="userSpaceOnUse"
       id="clipPath17798"><path
         d="m -2,710 501,0 0,-711 -501,0 0,711 z"
         id="path17800"
         inkscape:connector-curvature="0" /></clipPath><clipPath
       clipPathUnits="userSpaceOnUse"
       id="clipPath17804"><path
         d="m 0,708.06 498,0 0,-708 -498,0 0,708 z"
         id="path17806"
         inkscape:connector-curvature="0" /></clipPath><clipPath
       id="Clip0"><path
         inkscape:connector-curvature="0"
         d="m 0,0 212.597,0 0,269.292 L 0,269.292 0,0 z"
         transform="translate(0.923828,0.879883)"
         id="path7" /></clipPath><clipPath
       id="Clip0-8"><path
         inkscape:connector-curvature="0"
         d="m 0,0 170.079,0 0,113.386 L 0,113.386 0,0 z"
         transform="translate(0.0986328,0.822266)"
         id="path7-8" /></clipPath></defs><sodipodi:namedview
     pagecolor="#ffffff"
     bordercolor="#666666"
     borderopacity="1"
     objecttolerance="10"
     gridtolerance="10"
     guidetolerance="10"
     inkscape:pageopacity="0"
     inkscape:pageshadow="2"
     inkscape:window-width="1280"
     inkscape:window-height="1004"
     id="namedview17626"
     showgrid="false"
     inkscape:zoom="2.831623"
     inkscape:cx="65.740559"
     inkscape:cy="63.20163"
     inkscape:window-x="-8"
     inkscape:window-y="-8"
     inkscape:window-maximized="1"
     inkscape:current-layer="g17634"
     fit-margin-top="0"
     fit-margin-left="0"
     fit-margin-right="0"
     fit-margin-bottom="0"
     showguides="true"
     inkscape:guide-bbox="true" /><g
     id="g17634"
     inkscape:groupmode="layer"
     inkscape:label="GG1999P002"
     transform="matrix(1.25,0,0,-1.25,156.83594,23.984375)"><path
       inkscape:connector-curvature="0"
       style="fill:#ffffff;fill-rule:nonzero;stroke:#000000;stroke-width:0.95999998;stroke-miterlimit:4;stroke-opacity:1;stroke-dasharray:none"
       d="m -124.99512,1.701186 c 0,9.39355 7.61426,17.0078 17.0078,17.0078 l 136.062203,0 c 9.394,0 17.009,-7.61425 17.009,-17.0078 l 0,-79.370104 c 0,-9.394096 -7.615,-17.008096 -17.009,-17.008096 l -136.062203,0 c -9.39354,0 -17.0078,7.614 -17.0078,17.008096 l 0,79.370104 z"
       id="path11" /><path
       inkscape:connector-curvature="0"
       style="fill:#c0111e;fill-opacity:1;fill-rule:nonzero;stroke:none"
       d="m -122.72754,1.70111 c 0,8.14069 6.59961,14.7403 14.7402,14.7403 l 136.0628,0 c 8.142,0 14.74,-6.59961 14.74,-14.7403 l 0,-79.3701 c 0,-8.1406 -6.598,-14.7396 -14.74,-14.7396 l -136.0628,0 c -8.14059,0 -14.7402,6.599 -14.7402,14.7396 l 0,79.3701 z"
       id="path13-4" /><path
       inkscape:connector-curvature="0"
       style="fill:#ffffff;fill-rule:nonzero;stroke:none"
       d="m -119.04199,1.701158 c 0,6.10549 4.94924,11.0547 11.0546,11.0547 l 136.0634,0 c 6.105,0 11.055,-4.94921 11.055,-11.0547 l 0,-79.3701 c 0,-6.1058 -4.95,-11.0552 -11.055,-11.0552 l -136.0634,0 c -6.10536,0 -11.0546,4.9494 -11.0546,11.0552 l 0,79.3701 z"
       id="path15" /><g
       transform="matrix(1,0,0,-1,-125.09375,19.531254)"
       id="Background"
       style="fill:#000000;stroke:none"><g
         id="Group1"
         clip-path="url(#Clip0-8)"
         style="fill:#000000;stroke:none"><path
           inkscape:connector-curvature="0"
           style="fill:#000000;fill-rule:nonzero;stroke:none"
           d="m 0,0 0,28.3467 17.291,0 0,-4.4219 -12.8974,0 0,-7.9932 8.2763,0 0,-4.4228 -8.2763,0 0,-6.9727 11.8486,0 L 16.2422,0 0,0 z"
           transform="translate(18.8076,22.0205)"
           id="path17" /><path
           inkscape:connector-curvature="0"
           style="fill:#000000;fill-rule:nonzero;stroke:none"
           d="M 6.9453,13.7764 0,28.3467 l 4.9043,0 4.4218,-9.4102 4.9043,9.4102 4.7334,0 L 11.9062,13.7764 18.4824,0 13.5781,0 9.3261,8.4199 5.3574,0 0.2548,0 6.9453,13.7764 z"
           transform="translate(39.585,22.0205)"
           id="path19" /><path
           inkscape:connector-curvature="0"
           style="fill:#000000;fill-rule:nonzero;stroke:none"
           d="M 14.5889,7.5117 18.7276,5.7256 C 16.9697,1.9092 13.9844,0 9.7705,0 6.2744,0 3.6758,1.7383 1.9756,5.2158 0.6524,7.8994 0,11.1494 0.0195,14.9668 c 0.0186,3.8926 0.794,7.1436 2.3243,9.751 1.8711,3.1562 4.5732,4.7334 8.1074,4.7334 2.0596,0 3.8545,-0.6416 5.3857,-1.9268 1.4356,-1.2285 2.4659,-2.8916 3.0889,-4.9892 l -4.167,-1.0489 c -0.3203,0.8887 -0.9541,1.7012 -1.8984,2.4385 -0.9258,0.7363 -1.8047,1.1055 -2.6367,1.1055 -2.0977,0 -3.6846,-1.2002 -4.7627,-3.6006 -0.8116,-1.833 -1.2188,-3.9209 -1.2188,-6.2637 0,-2.7217 0.3408,-4.9707 1.0215,-6.7471 1.001,-2.6835 2.6738,-4.0253 5.0166,-4.0253 1.04,0 1.8896,0.2558 2.5517,0.7656 0.6612,0.4912 1.2471,1.2754 1.7569,2.3525 z"
           transform="translate(63.7451,21.4541)"
           id="path21" /><path
           inkscape:connector-curvature="0"
           style="fill:#000000;fill-rule:nonzero;stroke:none"
           d="m 0,0 0,28.3467 17.2909,0 0,-4.4219 -12.8973,0 0,-7.9932 8.2773,0 0,-4.4228 -8.2773,0 0,-6.9727 11.8493,0 L 16.2429,0 0,0 z"
           transform="translate(87.7451,22.0205)"
           id="path23" /><path
           inkscape:connector-curvature="0"
           style="fill:#000000;fill-rule:evenodd;stroke:none"
           d="m 4.394,4.1963 6.547,0 c 0.908,0 1.71,0.3486 2.41,1.0488 0.718,0.6797 1.077,1.4356 1.077,2.2676 0,1.0957 -0.302,2.0313 -0.907,2.8057 -0.605,0.7754 -1.379,1.1621 -2.325,1.1621 l -6.802,0 0,-7.2842 z M 0,0 l 0,28.3467 4.394,0 0,-12.3877 5.868,0 c 2.531,0 4.63,-0.8213 6.293,-2.4658 C 18.16,11.8867 18.964,9.9024 18.964,7.541 18.964,5.4238 18.16,3.6387 16.555,2.1836 14.948,0.7285 13.049,0.001 10.856,0 L 0,0 z"
           transform="translate(110.167,22.0205)"
           id="path25" /><path
           inkscape:connector-curvature="0"
           style="fill:#000000;fill-rule:nonzero;stroke:none"
           d="m 0,0 0,4.167 6.521,0 0,24.1797 4.28,0 0,-24.1797 6.49,0 L 17.291,0 0,0 z"
           transform="translate(134.204,22.0205)"
           id="path27" /><path
           inkscape:connector-curvature="0"
           style="fill:#000000;fill-rule:nonzero;stroke:none"
           d="M 14.5888,7.5118 18.7275,5.7256 C 16.9697,1.9092 13.9843,0 9.7705,0 6.2744,0 3.6757,1.7383 1.9746,5.2159 0.6523,7.8994 0,11.1494 0.0195,14.9668 c 0.0185,3.8936 0.793,7.1436 2.3242,9.751 1.8701,3.1563 4.5733,4.7344 8.1065,4.7344 2.0595,0 3.8554,-0.6426 5.3857,-1.9278 1.4365,-1.2285 2.4668,-2.8906 3.0898,-4.9892 l -4.167,-1.0488 c -0.3212,0.8886 -0.9541,1.7011 -1.8994,2.4384 -0.9257,0.7364 -1.8047,1.1055 -2.6357,1.1055 -2.0977,0 -3.6846,-1.2002 -4.7627,-3.6006 -0.8125,-1.833 -1.2188,-3.9209 -1.2188,-6.2637 0,-2.7216 0.3409,-4.9707 1.0206,-6.747 1.0019,-2.6836 2.6738,-4.0254 5.0175,-4.0254 1.0401,0 1.8897,0.2558 2.5518,0.7656 0.6611,0.4912 1.2461,1.2754 1.7568,2.3526 z"
           transform="translate(15.4434,63.9736)"
           id="path29" /><path
           inkscape:connector-curvature="0"
           style="fill:#000000;fill-rule:nonzero;stroke:none"
           d="m 0,0 9.9492,16.1582 0,12.1885 4.3935,0 0,-12.1885 L 24.0937,0 18.8779,0 12.0468,10.9991 5.3007,0 0,0 z"
           transform="translate(37.8848,64.54)"
           id="path31" /><path
           inkscape:connector-curvature="0"
           style="fill:#000000;fill-rule:nonzero;stroke:none"
           d="M 14.5889,7.5118 18.7276,5.7256 C 16.9707,1.9092 13.9844,0 9.7705,0 6.2744,0 3.6758,1.7383 1.9756,5.2159 0.6524,7.8994 0,11.1494 0.0196,14.9668 c 0.0185,3.8936 0.7939,7.1436 2.3242,9.751 1.8711,3.1563 4.5732,4.7344 8.1074,4.7344 2.0596,0 3.8545,-0.6426 5.3857,-1.9278 1.4356,-1.2285 2.4659,-2.8906 3.0899,-4.9892 l -4.168,-1.0488 c -0.3203,0.8886 -0.9541,1.7011 -1.8984,2.4384 -0.9258,0.7364 -1.8047,1.1055 -2.6367,1.1055 -2.0977,0 -3.6846,-1.2002 -4.7618,-3.6006 -0.8125,-1.833 -1.2197,-3.9209 -1.2197,-6.2637 0,-2.7216 0.3408,-4.9707 1.0215,-6.747 1.001,-2.6836 2.6738,-4.0254 5.0176,-4.0254 1.039,0 1.8896,0.2558 2.5508,0.7656 0.6611,0.4912 1.247,1.2754 1.7568,2.3526 z"
           transform="translate(67.0615,63.9736)"
           id="path33" /><path
           inkscape:connector-curvature="0"
           style="fill:#000000;fill-rule:nonzero;stroke:none"
           d="m 0,0 0,28.3467 17.2914,0 0,-4.166 -12.9545,0 L 4.3369,0 0,0 z"
           transform="translate(90.9766,64.54)"
           id="path35" /><path
           inkscape:connector-curvature="0"
           style="fill:#000000;fill-rule:nonzero;stroke:none"
           d="m 0,0 0,28.3467 17.291,0 0,-4.4219 -12.898,0 0,-7.9931 8.278,0 0,-4.4229 -8.278,0 0,-6.9726 11.85,0 L 16.243,0 0,0 z"
           transform="translate(113.512,64.54)"
           id="path37" /><path
           inkscape:connector-curvature="0"
           style="fill:#000000;fill-rule:nonzero;stroke:none"
           d="m 0,22.167 c 0.737,2.1162 2.154,3.8926 4.252,5.3291 1.927,1.3037 3.808,1.9561 5.641,1.9561 2.759,0 4.96,-0.8506 6.604,-2.5518 1.644,-1.7002 2.467,-3.9023 2.467,-6.6045 0,-1.7763 -0.501,-3.3632 -1.502,-4.7617 C 16.554,14.3057 15.326,13.3135 13.776,12.5577 13.077,12.2178 12.028,11.9815 10.63,11.8487 9.042,11.6787 8.031,11.5274 7.596,11.3955 7.03,11.2256 6.538,10.8662 6.123,10.3184 5.707,9.751 5.499,9.1563 5.499,8.5323 c 0,-0.9825 0.397,-1.8995 1.19,-2.7491 0.814,-0.8701 1.748,-1.2851 2.807,-1.247 2.23,0.0566 3.656,1.039 4.28,2.9472 L 17.971,6.208 C 17.159,4.0723 16.11,2.5039 14.825,1.502 13.559,0.501 11.953,0 10.006,0 7.606,0 5.555,0.8037 3.855,2.4092 2.078,4.1104 1.19,6.2744 1.19,8.9004 c 0,2.1553 0.756,3.875 2.268,5.1602 1.361,1.1523 2.73,1.8037 4.11,1.9551 2.702,0.3027 4.583,0.8408 5.641,1.6162 0.983,0.7363 1.474,1.8613 1.474,3.373 0,0.9639 -0.434,1.8613 -1.304,2.6934 -0.85,0.8125 -1.729,1.2187 -2.636,1.2187 -1.644,0 -2.939,-0.3027 -3.884,-0.9072 C 5.933,23.4053 5.074,22.3086 4.28,20.7217 L 0,22.167 z"
           transform="translate(135.849,63.9736)"
           id="path39" /></g></g></g></svg>