<?xml version="1.0" encoding="UTF-8" standalone="no"?>
<!-- Created with Inkscape (http://www.inkscape.org/) -->

<svg
   xmlns:dc="http://purl.org/dc/elements/1.1/"
   xmlns:cc="http://creativecommons.org/ns#"
   xmlns:rdf="http://www.w3.org/1999/02/22-rdf-syntax-ns#"
   xmlns:svg="http://www.w3.org/2000/svg"
   xmlns="http://www.w3.org/2000/svg"
   xmlns:sodipodi="http://sodipodi.sourceforge.net/DTD/sodipodi-0.dtd"
   xmlns:inkscape="http://www.inkscape.org/namespaces/inkscape"
   width="360.6268"
   height="360.61145"
   id="svg2"
   sodipodi:version="0.32"
   inkscape:version="0.48.2 r9819"
   version="1.0"
   sodipodi:docname="AJAX.svg"
   inkscape:output_extension="org.inkscape.output.svg.inkscape">
  <defs
     id="defs4">
    <inkscape:perspective
       sodipodi:type="inkscape:persp3d"
       inkscape:vp_x="0 : 300.5 : 1"
       inkscape:vp_y="0 : 1000 : 0"
       inkscape:vp_z="601 : 300.5 : 1"
       inkscape:persp3d-origin="300.5 : 200.33333 : 1"
       id="perspective3380" />
    <inkscape:perspective
       id="perspective3990"
       inkscape:persp3d-origin="375 : 250 : 1"
       inkscape:vp_z="750 : 375 : 1"
       inkscape:vp_y="0 : 1000 : 0"
       inkscape:vp_x="0 : 375 : 1"
       sodipodi:type="inkscape:persp3d" />
  </defs>
  <sodipodi:namedview
     id="base"
     pagecolor="#ffffff"
     bordercolor="#666666"
     borderopacity="1.0"
     gridtolerance="10000"
     guidetolerance="10"
     objecttolerance="10"
     inkscape:pageopacity="0.0"
     inkscape:pageshadow="2"
     inkscape:zoom="1.0529557"
     inkscape:cx="15.254178"
     inkscape:cy="-8.8834312"
     inkscape:document-units="px"
     inkscape:current-layer="layer1"
     width="601px"
     height="601px"
     inkscape:window-width="1280"
     inkscape:window-height="1004"
     inkscape:window-x="-8"
     inkscape:window-y="-8"
     showgrid="false"
     fit-margin-top="0"
     fit-margin-left="0"
     fit-margin-right="0"
     fit-margin-bottom="0"
     inkscape:window-maximized="1"
     showguides="true"
     inkscape:guide-bbox="true" />
  <metadata
     id="metadata7">
    <rdf:RDF>
      <cc:Work
         rdf:about="">
        <dc:format>image/svg+xml</dc:format>
        <dc:type
           rdf:resource="http://purl.org/dc/dcmitype/StillImage" />
        <dc:title></dc:title>
      </cc:Work>
    </rdf:RDF>
  </metadata>
  <g
     inkscape:label="Layer 1"
     inkscape:groupmode="layer"
     id="layer1"
     transform="translate(228.82755,398.35606)">
    <rect
       style="color:#000000;fill:#000000;fill-opacity:1;fill-rule:nonzero;stroke:none;stroke-width:0.8735441;marker:none;visibility:visible;display:inline;overflow:visible"
       id="rect3653"
       width="0"
       height="27.202072"
       x="578.73834"
       y="298.1684"
       rx="249.48199"
       ry="27.202072" />
    <path
       inkscape:connector-curvature="0"
       style="fill:#ffdb00;fill-rule:nonzero;stroke:none"
       d="m 126.42375,-231.02775 c 7.1675,7.1675 7.1675,18.7875 -0.001,25.955 L -35.539749,-43.120248 c -7.1675,7.1675 -18.78875,7.1675 -25.95625,0 L -223.45204,-205.07275 c -7.16796,-7.1675 -7.16674,-18.7875 0,-25.955 L -61.488749,-392.981 c 7.16875,-7.16675 18.78875,-7.16675 25.95625,0 l 161.956249,161.95325 z"
       id="path11" />
    <path
       inkscape:connector-curvature="0"
       style="fill:#000000;fill-rule:nonzero;stroke:none"
       d="m -220.64319,-208.51682 c -5.11964,-5.12 -5.11964,-13.42125 0,-18.54 l 162.856614,-162.85411 c 5.12125,-5.11964 13.4225,-5.11964 18.54125,0 l 162.861246,162.85411 c 5.12,5.11875 5.12,13.42 0,18.54 L -39.241576,-45.663071 c -5.11875,5.12125 -13.42,5.12125 -18.54,0 L -220.64319,-208.51682 z"
       id="path13" />
    <path
       inkscape:connector-curvature="0"
       style="fill:#ffdb00;fill-rule:nonzero;stroke:none"
       d="m -216.28285,-213.37067 c -2.49023,-2.49 -2.49023,-6.52875 0,-9.02 l 162.858523,-162.85348 c 2.49,-2.49027 6.52875,-2.49027 9.01875,0 l 162.861247,162.85348 c 2.49125,2.49125 2.49125,6.53 0,9.02 L -44.401827,-50.516918 c -2.49,2.49 -6.52875,2.49 -9.02,0 L -216.28285,-213.37067 z"
       id="path15" />
    <path
       inkscape:connector-curvature="0"
       style="fill:#000000;fill-rule:nonzero;stroke:none"
       d="M 9.2416499,-193.80915 26.0179,-200.35403 c 3.615,-1.49625 7.75875,0.22001 9.2575,3.83375 0.94,2.27238 0.61625,4.74738 -0.65375,6.64863 l -43.0962501,66.9275 -43.0949999,-66.9275 c -1.27125,-1.90125 -1.59375,-4.37625 -0.655,-6.64863 1.49875,-3.61374 5.6425,-5.32999 9.25875,-3.83374 l 16.775,6.54487 0,-126.85125 35.4324999,0 0,126.85125 z"
       id="path17" />
    <path
       inkscape:connector-curvature="0"
       style="fill:#000000;fill-rule:nonzero;stroke:none"
       d="m -106.26948,-249.79778 -16.776,6.54625 c -3.61575,1.4975 -7.76012,-0.21875 -9.25787,-3.835 -0.94,-2.27125 -0.6165,-4.74625 0.65425,-6.6475 l 43.09575,-66.92637 43.095,66.92637 c 1.27,1.90125 1.595,4.37625 0.65375,6.6475 -1.4975,3.61625 -5.6425,5.3325 -9.25625,3.835 l -16.77625,-6.54625 0,126.85363 -35.43238,0 0,-126.85363 z"
       id="path19" />
  </g>
</svg>
