<?xml version="1.0" encoding="UTF-8" standalone="no"?>
<!-- Generator: Adobe Illustrator 12.0.1, SVG Export Plug-In  -->

<svg
   xmlns:dc="http://purl.org/dc/elements/1.1/"
   xmlns:cc="http://creativecommons.org/ns#"
   xmlns:rdf="http://www.w3.org/1999/02/22-rdf-syntax-ns#"
   xmlns:svg="http://www.w3.org/2000/svg"
   xmlns="http://www.w3.org/2000/svg"
   xmlns:sodipodi="http://sodipodi.sourceforge.net/DTD/sodipodi-0.dtd"
   xmlns:inkscape="http://www.inkscape.org/namespaces/inkscape"
   version="1.1"
   width="214.60156"
   height="257.10156"
   viewBox="0 0 214.60158 257.10159"
   enable-background="new 0 0 288 288"
   xml:space="preserve"
   id="svg2"
   inkscape:version="0.48.2 r9819"
   sodipodi:docname="AJAX1.svg"><metadata
   id="metadata72"><rdf:RDF><cc:Work
       rdf:about=""><dc:format>image/svg+xml</dc:format><dc:type
         rdf:resource="http://purl.org/dc/dcmitype/StillImage" /><dc:title /></cc:Work></rdf:RDF></metadata><sodipodi:namedview
   pagecolor="#ffffff"
   bordercolor="#666666"
   borderopacity="1"
   objecttolerance="10"
   gridtolerance="10"
   guidetolerance="10"
   inkscape:pageopacity="0"
   inkscape:pageshadow="2"
   inkscape:window-width="1280"
   inkscape:window-height="1004"
   id="namedview70"
   showgrid="false"
   fit-margin-top="0.25"
   fit-margin-left="0.25"
   fit-margin-right="0.25"
   fit-margin-bottom="0.25"
   inkscape:zoom="1.1588694"
   inkscape:cx="79.743909"
   inkscape:cy="114.88576"
   inkscape:window-x="-8"
   inkscape:window-y="-8"
   inkscape:window-maximized="1"
   inkscape:current-layer="Group1" />
<defs
   id="defs4">
<clipPath
   id="Clip0"><path
     inkscape:connector-curvature="0"
     d="m 0,0 425.197,0 0,340.157 L 0,340.157 0,0 z"
     transform="translate(0.474609,0.964844)"
     id="path7" /></clipPath><clipPath
   id="Clip0-1"><path
     inkscape:connector-curvature="0"
     d="m 0,0 269.291,0 0,141.733 L 0,141.733 0,0 z"
     transform="translate(0.0644531,0.324219)"
     id="path7-7" /></clipPath><clipPath
   id="Clip0-17"><path
     inkscape:connector-curvature="0"
     d="m 0,0 269.291,0 0,141.732 L 0,141.732 0,0 z"
     transform="translate(0.727539,0.548828)"
     id="path7-4" /></clipPath><clipPath
   id="Clip0-174"><path
     inkscape:connector-curvature="0"
     d="m 0,0 340.158,0 0,340.158 L 0,340.158 0,0 z"
     transform="translate(0.630859,0.112305)"
     id="path7-0" /></clipPath><clipPath
   id="Clip0-1740"><path
     inkscape:connector-curvature="0"
     d="m 0,0 269.291,0 0,85.04 L 0,85.04 0,0 z"
     transform="translate(0.40332,0.554688)"
     id="path7-9" /></clipPath></defs>
































<g
   transform="matrix(1.2500001,0,0,1.2500001,-0.68750278,-168.34376)"
   id="Background"
   style="fill:#000000"><g
     id="Group1"
     clip-path="url(#Clip0-174)"
     style="fill:#000000"><path
       inkscape:connector-curvature="0"
       style="fill:#ffffff;fill-rule:nonzero;stroke:#000000;stroke-width:1.20000005;stroke-miterlimit:4;stroke-opacity:1;stroke-dasharray:none"
       d="m 1.34668,146.79984 c 0,-6.26175 5.0771501,-11.3389 11.3388,-11.3389 l 147.4012,0 c 6.263,0 11.339,5.07715 11.339,11.3389 l 0,181.4171 c 0,6.262 -5.076,11.339 -11.339,11.339 l -147.4012,0 c -6.2616499,0 -11.3388,-5.077 -11.3388,-11.339 l 0,-181.4171 z"
       id="path11" /><path
       inkscape:connector-curvature="0"
       style="fill:#0069b3;fill-rule:nonzero;stroke:none"
       d="m 9.2851601,146.7998 c 0,-1.8789 1.5224599,-3.40136 3.4013399,-3.40136 l 147.40066,0 c 1.879,0 3.402,1.52246 3.402,3.40136 l 0,181.41764 c 0,1.879 -1.523,3.402 -3.402,3.402 l -147.40066,0 c -1.87888,0 -3.4013399,-1.523 -3.4013399,-3.402 l 0,-181.41764 z"
       id="path13" /><path
       inkscape:connector-curvature="0"
       style="fill:#ffffff;fill-rule:evenodd;stroke:none"
       d="m 63.709001,152.0586 0,56.6924 9.9209,0 0,-22.166 18.9922,0 c 4.6494,0 8.580399,-1.8721 11.792399,-5.6133 3.09901,-3.6279 4.64801,-7.8233 4.64801,-12.586 0,-4.3466 -1.87,-8.1826 -5.61201,-11.5087 -3.666299,-3.2129 -7.729799,-4.8184 -12.188799,-4.8184 l -27.5527,0 z m 9.4101,9.8643 17.8028,0 c 2.2304,0 4.1191,0.6435 5.6689,1.9277 1.7002,1.3994 2.5518,3.25 2.5518,5.5566 0,2.419 -0.7188,4.2891 -2.1553,5.6123 -1.4355,1.2842 -3.3437,1.9278 -5.7256,1.9278 l -18.1426,0 0,-15.0244 z"
       id="path15" /><path
       inkscape:connector-curvature="0"
       style="fill:#ffffff;fill-rule:nonzero;stroke:none"
       d="m 58.607401,251.602 c 0,3.544 1.1758,6.42 3.5283,8.631 2.2676,2.098 5.0879,3.146 8.462,3.146 3.3154,0 6.0654,-1.275 8.249,-3.826 2.0976,-2.438 3.1455,-5.414 3.1455,-8.929 0,-2.296 -0.4678,-4.478 -1.4024,-6.549 -0.9931,-2.211 -2.2539,-3.613 -3.7851,-4.209 2.6933,-2.239 4.04,-5.7117 4.04,-10.4168 0,-2.6933 -1.0771,-5.0742 -3.2314,-7.1435 -2.127,-2.0694 -4.4649,-3.1036 -7.0156,-3.1036 -2.5801,0 -4.9043,0.8077 -6.9737,2.4229 -2.4092,1.8428 -3.6142,4.2383 -3.6142,7.1865 l 5.6552,0.7227 c 0,-1.0498 0.5391,-2.0274 1.6153,-2.9336 1.0771,-0.9072 2.1123,-1.3613 3.1045,-1.3613 1.0488,0 2.041,0.4257 2.9756,1.2763 1.0205,0.9346 1.5312,2.041 1.5312,3.3164 0,1.6153 -0.4111,3.1602 -1.2334,4.6338 -0.9072,1.5882 -1.9551,2.3822 -3.1455,2.3822 l -2.5088,0 0,5.995 3.6143,0 c 1.7851,0 3.0322,1.02 3.7412,3.061 0.3691,1.134 0.5947,2.821 0.6806,5.06 0.0567,1.786 -0.4687,3.303 -1.5742,4.55 -1.1054,1.247 -2.4228,1.871 -3.9531,1.871 -3.9121,0 -5.8682,-1.928 -5.8682,-5.783 l -6.0371,0 z"
       id="path17" /><path
       inkscape:connector-curvature="0"
       style="fill:#ffffff;fill-rule:evenodd;stroke:none"
       d="m 102.0185,263.336 c 4.36501,0 7.55501,-1.898 9.56701,-5.696 1.87099,-3.543 2.80599,-8.987 2.80599,-16.328 0,-14.7407 -4.15199,-22.1099 -12.458,-22.1099 -8.163999,0 -12.244999,7.3692 -12.244999,22.1099 0,14.683 4.1103,22.024 12.329999,22.024 z m 0,-5.909 c -4.280199,0 -6.419899,-5.372 -6.419899,-16.115 0,-10.7427 2.126,-16.1157 6.376899,-16.1157 2.184,0 3.841,1.5742 4.97601,4.7207 1.01999,2.8057 1.52999,6.604 1.52999,11.395 0,10.743 -2.154,16.115 -6.463,16.115 z"
       id="path19" /><path
       style="fill:#ffffff;fill-rule:nonzero;stroke:none"
       d="m 54.65625,214.09375 -18.21875,10.625 18.21875,10.625 0,-7.0625 105.25,0 0,7.0625 18.25,-10.625 -18.25,-10.625 0,7.09375 -105.25,0 z"
       transform="matrix(0.80000002,0,0,0.80000002,0.54999999,134.675)"
       id="path21"
       inkscape:connector-curvature="0"
       sodipodi:nodetypes="ccccccccccc" /><path
       inkscape:connector-curvature="0"
       style="fill:#ffffff;fill-rule:evenodd;stroke:none"
       d="m 39.0938,284.606 c 0,-2.891 -0.6124,-5.556 -1.6778,-7.313 -1.2695,-2.098 -3.3564,-3.346 -5.623999,-3.346 -4.331101,0 -7.166001,4.14 -7.166001,10.433 0,2.834 0.5439,5.158 1.6103,6.888 1.269601,2.126 3.356501,3.344 5.646501,3.344 4.286099,0 7.210999,-4.082 7.210999,-10.006 z m -2.7208,-0.255 c 0,4.506 -1.746,7.313 -4.535099,7.313 -2.7676,0 -4.558601,-2.891 -4.558601,-7.342 0,-4.507 1.746101,-7.341 4.512701,-7.341 2.744099,0 4.580999,2.948 4.580999,7.37 z"
       id="path23" /><path
       inkscape:connector-curvature="0"
       style="fill:#ffffff;fill-rule:nonzero;stroke:none"
       d="m 48.7998,293.96 -0.2949,-2.664 c -0.5215,0.113 -0.9522,0.17 -1.3604,0.17 -1.1787,0 -1.4511,-0.397 -1.4511,-2.154 l 0,-6.69 2.9482,0 0,-2.608 -2.9482,0 0,-5.669 -2.4043,0 0,5.669 -2.086,0 0,2.608 2.086,0 0,7.71 c 0,2.863 0.8623,4.025 3.0839,4.025 0.7715,0 1.6553,-0.141 2.4268,-0.397 z"
       id="path25" /><path
       inkscape:connector-curvature="0"
       style="fill:#ffffff;fill-rule:nonzero;stroke:none"
       d="m 60.569301,294.188 0,-8.874 c 0,-1.842 -0.1591,-2.692 -0.6123,-3.599 -0.6347,-1.304 -1.8818,-2.069 -3.2207,-2.069 -1.2246,0 -2.1084,0.424 -3.084,1.559 l 0,-6.634 -2.449201,0 0,19.617 2.449201,0 0,-7.456 c 0,-2.636 0.8399,-3.997 2.4043,-3.997 0.7256,0 1.2696,0.284 1.6553,0.908 0.2949,0.509 0.3858,1.02 0.3858,2.239 l 0,8.306 2.4716,0 z"
       id="path27" /><path
       inkscape:connector-curvature="0"
       style="fill:#ffffff;fill-rule:evenodd;stroke:none"
       d="m 73.585901,288.234 0,-0.623 c 0,-4.932 -1.9502,-7.909 -5.1933,-7.909 -3.0615,0 -5.1026,2.948 -5.1026,7.314 0,4.45 2.1094,7.54 5.3975,7.54 1.7012,0 3.3115,-0.653 4.3086,-2.977 l -1.791,-1.899 c -0.9297,1.701 -1.4971,1.927 -2.4951,1.927 -1.6329,0 -2.6758,-1.275 -2.8575,-3.373 l 7.7334,0 z m -2.5849,-2.38 -5.1485,0 c 0.0684,-0.851 0.1592,-1.248 0.3633,-1.702 0.4756,-1.02 1.3155,-1.644 2.2451,-1.644 1.4737,0 2.4717,1.305 2.5401,3.346 z"
       id="path29" /><path
       inkscape:connector-curvature="0"
       style="fill:#ffffff;fill-rule:evenodd;stroke:none"
       d="m 82.270501,282.934 0,-3.09 c -0.249,-0.029 -0.4307,-0.029 -0.5439,-0.029 -1.3379,0 -2.2217,0.511 -3.084,1.843 l 0,-1.644 -2.3809,0 0,14.174 2.4033,0 0,-6.577 c 0,-2.155 0.3409,-3.289 1.1348,-3.997 0.5889,-0.454 1.1787,-0.652 2.4707,-0.68 z"
       id="path31" /><path
       inkscape:connector-curvature="0"
       style="fill:#ffffff;fill-rule:nonzero;stroke:none"
       d="m 100.7754,277.52 0,-3.175 -11.543003,0 0,3.175 4.3994,0 0,16.668 2.7217,0 0,-16.668 4.421903,0 z"
       id="path33" /><path
       inkscape:connector-curvature="0"
       style="fill:#ffffff;fill-rule:evenodd;stroke:none"
       d="m 105.33351,276.357 c 0,-0.992 -0.70301,-1.899 -1.49701,-1.899 -0.884,0 -1.587,0.879 -1.587,1.899 0,1.078 0.703,1.927 1.565,1.927 0.816,0 1.51901,-0.849 1.51901,-1.927 z m -0.31801,17.831 0,-14.149 -2.449,0 0,14.149 2.449,0 z"
       id="path35" /><path
       inkscape:connector-curvature="0"
       style="fill:#ffffff;fill-rule:evenodd;stroke:none"
       d="m 123.61151,294.188 0,-8.108 c 0,-2.183 -0.137,-3.26 -0.54501,-4.11 -0.611,-1.417 -1.814,-2.183 -3.288,-2.183 -1.361,0 -2.28999,0.567 -3.10699,1.9 -0.612,-1.304 -1.56401,-1.928 -2.88001,-1.928 -1.111,0 -1.859,0.425 -2.721,1.503 l 0,-1.248 -2.38099,0 0,14.174 2.38099,0 0,-8.051 c 0,-1.134 0.11301,-1.786 0.45401,-2.324 0.362,-0.653 0.997,-1.078 1.609,-1.078 0.54499,0 1.11199,0.312 1.429,0.879 0.29499,0.51 0.363,0.963 0.363,2.438 l 0,8.136 2.49399,0 0,-8.136 c 0,-1.304 0.069,-1.786 0.34101,-2.239 0.38499,-0.681 1.02099,-1.106 1.65599,-1.106 0.702,0 1.26901,0.425 1.54201,1.134 0.15799,0.425 0.204,1.02 0.204,2.211 l 0,8.136 2.449,0 z"
       id="path37" /><path
       inkscape:connector-curvature="0"
       style="fill:#ffffff;fill-rule:evenodd;stroke:none"
       d="m 136.9675,288.234 0,-0.623 c 0,-4.932 -1.95,-7.909 -5.193,-7.909 -3.062,0 -5.103,2.948 -5.103,7.314 0,4.45 2.11,7.54 5.398,7.54 1.701,0 3.31,-0.653 4.308,-2.977 l -1.791,-1.899 c -0.929,1.701 -1.497,1.927 -2.495,1.927 -1.633,0 -2.675,-1.275 -2.857,-3.373 l 7.733,0 z m -2.585,-2.38 -5.148,0 c 0.068,-0.851 0.159,-1.248 0.363,-1.702 0.476,-1.02 1.316,-1.644 2.245,-1.644 1.474,0 2.472,1.305 2.54,3.346 z"
       id="path39" /><path
       inkscape:connector-curvature="0"
       style="fill:#ffffff;fill-rule:nonzero;stroke:none"
       d="m 148.1475,289.85 c 0,-2.268 -1.225,-3.6 -3.628,-4.138 -1.315,-0.284 -1.452,-0.313 -1.701,-0.426 -0.568,-0.226 -0.862,-0.652 -0.862,-1.19 0,-0.936 0.816,-1.644 1.905,-1.644 0.77,0 1.18,0 1.995,1.162 l 2.019,-1.162 c -0.999,-2.155 -2.472,-2.722 -4.037,-2.722 -2.562,0 -4.353,1.843 -4.353,4.422 0,1.021 0.316,2.041 0.884,2.779 0.634,0.794 1.269,1.133 2.835,1.445 1.133,0.227 1.36,0.283 1.632,0.425 0.499,0.256 0.771,0.737 0.771,1.304 0,0.936 -0.839,1.587 -2.064,1.587 -1.133,0 -1.723,-0.311 -2.721,-1.813 l -1.678,1.672 c 0.93,2.182 2.767,2.92 4.468,2.92 2.653,0 4.535,-1.9 4.535,-4.621 z"
       id="path41" /></g></g></svg>