<?xml version="1.0" encoding="UTF-8" standalone="no"?>
<!-- Created with Inkscape (http://www.inkscape.org/) -->

<svg
   xmlns:dc="http://purl.org/dc/elements/1.1/"
   xmlns:cc="http://creativecommons.org/ns#"
   xmlns:rdf="http://www.w3.org/1999/02/22-rdf-syntax-ns#"
   xmlns:svg="http://www.w3.org/2000/svg"
   xmlns="http://www.w3.org/2000/svg"
   xmlns:sodipodi="http://sodipodi.sourceforge.net/DTD/sodipodi-0.dtd"
   xmlns:inkscape="http://www.inkscape.org/namespaces/inkscape"
   id="svg17624"
   version="1.1"
   inkscape:version="0.48.2 r9819"
   width="214.50156"
   height="143.60312"
   xml:space="preserve"
   sodipodi:docname="AJAX1.svg"><metadata
     id="metadata17630"><rdf:RDF><cc:Work
         rdf:about=""><dc:format>image/svg+xml</dc:format><dc:type
           rdf:resource="http://purl.org/dc/dcmitype/StillImage" /><dc:title /></cc:Work></rdf:RDF></metadata><defs
     id="defs17628"><inkscape:perspective
       sodipodi:type="inkscape:persp3d"
       inkscape:vp_x="0 : 0.5 : 1"
       inkscape:vp_y="0 : 1000 : 0"
       inkscape:vp_z="1 : 0.5 : 1"
       inkscape:persp3d-origin="0.5 : 0.33333333 : 1"
       id="perspective17632" /><clipPath
       clipPathUnits="userSpaceOnUse"
       id="clipPath17642"><path
         d="m -2,710 501,0 0,-711 -501,0 0,711 z"
         id="path17644"
         inkscape:connector-curvature="0" /></clipPath><clipPath
       clipPathUnits="userSpaceOnUse"
       id="clipPath17648"><path
         d="m 0,708.06 498,0 0,-708 -498,0 0,708 z"
         id="path17650"
         inkscape:connector-curvature="0" /></clipPath><clipPath
       clipPathUnits="userSpaceOnUse"
       id="clipPath17798"><path
         d="m -2,710 501,0 0,-711 -501,0 0,711 z"
         id="path17800"
         inkscape:connector-curvature="0" /></clipPath><clipPath
       clipPathUnits="userSpaceOnUse"
       id="clipPath17804"><path
         d="m 0,708.06 498,0 0,-708 -498,0 0,708 z"
         id="path17806"
         inkscape:connector-curvature="0" /></clipPath></defs><sodipodi:namedview
     pagecolor="#ffffff"
     bordercolor="#666666"
     borderopacity="1"
     objecttolerance="10"
     gridtolerance="10"
     guidetolerance="10"
     inkscape:pageopacity="0"
     inkscape:pageshadow="2"
     inkscape:window-width="1280"
     inkscape:window-height="1004"
     id="namedview17626"
     showgrid="false"
     inkscape:zoom="1.4142136"
     inkscape:cx="-34.031898"
     inkscape:cy="122.28037"
     inkscape:window-x="-8"
     inkscape:window-y="-8"
     inkscape:window-maximized="1"
     inkscape:current-layer="g17634"
     fit-margin-top="0.2"
     fit-margin-left="0.2"
     fit-margin-right="0.2"
     fit-margin-bottom="0.2"
     showguides="true"
     inkscape:guide-bbox="true" /><g
     id="g17634"
     inkscape:groupmode="layer"
     inkscape:label="GG1999P002"
     transform="matrix(1.25,0,0,-1.25,-608.94062,268.98906)"><path
       inkscape:connector-curvature="0"
       style="fill:#ffffff;fill-rule:nonzero;stroke:#000000;stroke-width:1.19999993;stroke-miterlimit:4;stroke-opacity:1;stroke-dasharray:none"
       d="m 487.9035,203.10554 c 0,6.26172 5.07617,11.3379 11.3388,11.3379 l 147.40219,0 c 6.261,0 11.338,-5.07618 11.338,-11.3379 l 0,-90.70909 c 0,-6.262 -5.077,-11.339 -11.338,-11.339 l -147.40219,0 c -6.26263,0 -11.3388,5.077 -11.3388,11.339 l 0,90.70909 z"
       id="path11" /><path
       inkscape:connector-curvature="0"
       style="fill:#0069b3;fill-rule:nonzero;stroke:none"
       d="m 493.57244,203.10551 c 0,3.13187 2.53809,5.66996 5.66989,5.66996 l 147.40209,0 c 3.13,0 5.668,-2.53809 5.668,-5.66996 l 0,-90.70833 c 0,-3.132 -2.538,-5.6697 -5.668,-5.6697 l -147.40209,0 c -3.1318,0 -5.66989,2.5377 -5.66989,5.6697 l 0,90.70833 z"
       id="path13" /><path
       inkscape:connector-curvature="0"
       style="fill:#ffffff;fill-rule:nonzero;stroke:none"
       d="m 522.76973,176.17583 0,19.84279 -3.3731,0 0,-19.84279 3.3731,0 z"
       id="path15" /><path
       inkscape:connector-curvature="0"
       style="fill:#ffffff;fill-rule:evenodd;stroke:none"
       d="m 539.46503,176.17583 0,8.67389 c 0,2.126 -0.1983,3.1181 -0.9072,4.0537 -0.8506,1.1064 -2.2676,1.7578 -3.9678,1.7578 -1.3897,0 -2.2686,-0.3115 -3.6006,-1.3887 l 0,1.0772 -3.0049,0 0,-14.17389 3.0049,0 0,8.02249 c 0,1.2188 0.1992,1.9561 0.709,2.5225 0.5098,0.5674 1.4453,0.9355 2.2392,0.9355 0.8223,0 1.6446,-0.3681 2.0127,-0.9355 0.3399,-0.5098 0.4532,-1.1338 0.4532,-2.4942 l 0,-8.05079 3.0615,0 z"
       id="path17" /><path
       inkscape:connector-curvature="0"
       style="fill:#ffffff;fill-rule:nonzero;stroke:none"
       d="m 555.50893,179.71983 -2.7207,1.33199 c -0.7939,-1.53119 -1.7578,-2.23919 -3.0898,-2.23919 -2.0693,0 -3.5156,1.81439 -3.5156,4.45019 0,2.4941 1.4746,4.3935 3.4306,4.3935 1.3321,0 2.211,-0.6514 3.0323,-2.1543 l 2.75,1.3897 c -1.0206,2.3525 -3.0899,3.6279 -5.6973,3.6279 -3.9121,0 -6.6045,-2.9766 -6.6045,-7.2568 0,-4.30859 2.6357,-7.28519 6.4629,-7.28519 2.664,0 4.8183,1.332 5.9521,3.7422 z"
       id="path19" /><path
       inkscape:connector-curvature="0"
       style="fill:#ffffff;fill-rule:nonzero;stroke:none"
       d="m 564.66523,176.23253 -0.624,2.5517 c -0.9639,-0.0566 -0.6807,-0.0566 -0.9922,-0.0566 -1.2471,0 -1.5869,0.3965 -1.5869,1.84179 l 0,15.2227 -3.0049,0 0,-15.6758 c 0,-2.12599 0.2265,-2.86329 1.0771,-3.48639 0.6231,-0.4541 1.3887,-0.6523 2.5225,-0.6523 0.7939,0 1.9277,0.1133 2.6084,0.2549 z"
       id="path21" /><path
       inkscape:connector-curvature="0"
       style="fill:#ffffff;fill-rule:evenodd;stroke:none"
       d="m 578.89472,176.17583 0,14.17389 -3.0332,0 0,-7.6543 c 0,-1.1621 -0.1416,-1.9268 -0.4532,-2.4942 -0.539,-0.87889 -1.6445,-1.44529 -2.6933,-1.44529 -0.8223,0 -1.6436,0.3965 -2.0127,0.99219 -0.2832,0.4531 -0.4248,1.2471 -0.4248,2.3809 l 0,8.2207 -3.0332,0 0,-8.2207 c 0,-2.57909 0.1982,-3.54299 1.0205,-4.56349 0.8223,-1.1064 2.2393,-1.7295 3.8838,-1.7295 1.5303,0 2.6924,0.5098 3.7412,1.6729 l 0,-1.3331 3.0049,0 z"
       id="path23" /><path
       inkscape:connector-curvature="0"
       style="fill:#ffffff;fill-rule:evenodd;stroke:none"
       d="m 595.64722,176.17583 0,19.61629 -3.004,0 0,-6.5479 c -1.163,0.9629 -2.24,1.3887 -3.686,1.3887 -3.65629,0 -6.208,-3.0049 -6.208,-7.3418 0,-4.33689 2.6084,-7.45509 6.293,-7.45509 1.418,0 2.637,0.4824 3.601,1.4453 l 0,-1.1055 3.004,0 z m -3.033,6.86039 c 0,-1.1904 -0.085,-1.9277 -0.284,-2.4375 -0.425,-1.07809 -1.644,-1.87109 -2.976,-1.87109 -2.097,0 -3.4576,1.75679 -3.4576,4.47849 0,2.7774 1.3606,4.5352 3.5426,4.5352 1.332,0 2.608,-0.8223 2.949,-1.9278 0.17,-0.538 0.226,-1.2753 0.226,-2.7773 z"
       id="path25" /><path
       inkscape:connector-curvature="0"
       style="fill:#ffffff;fill-rule:evenodd;stroke:none"
       d="m 612.51322,182.12902 0,0.623 c 0,4.9326 -2.438,7.9092 -6.492,7.9092 -3.827,0 -6.377,-2.9482 -6.377,-7.3135 0,-4.45019 2.636,-7.53999 6.746,-7.53999 2.127,0 4.138,0.6514 5.385,2.9765 l -2.239,1.89849 c -1.162,-1.70019 -1.87,-1.92679 -3.118,-1.92679 -2.041,0 -3.345,1.27539 -3.571,3.37309 l 9.666,0 z m -3.232,2.3808 -6.434,0 c 0.085,0.8506 0.198,1.2471 0.453,1.7012 0.595,1.0205 1.644,1.6436 2.806,1.6436 1.843,0 3.09,-1.3038 3.175,-3.3448 z"
       id="path27" /><path
       inkscape:connector-curvature="0"
       style="fill:#ffffff;fill-rule:nonzero;stroke:none"
       d="m 626.48722,180.51282 c 0,2.2685 -1.53,3.6005 -4.535,4.1386 -1.644,0.2842 -1.814,0.3125 -2.126,0.4258 -0.709,0.2266 -1.077,0.6514 -1.077,1.1904 0,0.9356 1.02,1.6436 2.381,1.6436 0.964,0 1.474,0 2.494,-1.1621 l 2.523,1.1621 c -1.247,2.1553 -3.089,2.7217 -5.045,2.7217 -3.204,0 -5.443,-1.8428 -5.443,-4.4219 0,-1.0205 0.397,-2.041 1.106,-2.7783 0.794,-0.794 1.587,-1.1338 3.543,-1.4453 1.418,-0.2266 1.701,-0.2832 2.041,-0.4258 0.624,-0.2549 0.963,-0.7363 0.963,-1.3037 0,-0.93559 -1.048,-1.58689 -2.579,-1.58689 -1.418,0 -2.154,0.3115 -3.402,1.81339 l -2.097,-1.67179 c 1.161,-2.1827 3.458,-2.92 5.584,-2.92 3.317,0 5.669,1.8995 5.669,4.62019 z"
       id="path29" /><path
       inkscape:connector-curvature="0"
       style="fill:#ffffff;fill-rule:nonzero;stroke:none"
       d="m 546.93473,136.17983 0,3.1464 -12.5576,0 0,-19.8427 3.374,0 0,8.4756 8.4463,0 0,3.1181 -8.4463,0 0,5.1026 9.1836,0 z"
       id="path31" /><path
       inkscape:connector-curvature="0"
       style="fill:#ffffff;fill-rule:evenodd;stroke:none"
       d="m 557.08223,130.73742 0,3.0898 c -0.3115,0.0283 -0.5381,0.0283 -0.6797,0.0283 -1.6729,0 -2.7783,-0.51071 -3.8555,-1.84271 l 0,1.64451 -2.9765,0 0,-14.1738 3.0048,0 0,6.57609 c 0,2.15531 0.4248,3.28911 1.418,3.99711 0.7363,0.45409 1.4736,0.6524 3.0889,0.68069 z"
       id="path33" /><path
       inkscape:connector-curvature="0"
       style="fill:#ffffff;fill-rule:evenodd;stroke:none"
       d="m 563.37513,137.31353 c 0,0.9922 -0.8789,1.8995 -1.871,1.8995 -1.1055,0 -1.9844,-0.8789 -1.9844,-1.8995 0,-1.0771 0.8789,-1.9267 1.956,-1.9267 1.0205,0 1.8994,0.8496 1.8994,1.9267 z m -0.3974,-17.83 0,14.1484 -3.0606,0 0,-14.1484 3.0606,0 z"
       id="path35" /><path
       inkscape:connector-curvature="0"
       style="fill:#ffffff;fill-rule:evenodd;stroke:none"
       d="m 579.67402,119.48353 0,19.6162 -3.00489,0 0,-6.5479 c -1.16211,0.9629 -2.23931,1.3887 -3.6846,1.3887 -3.6572,0 -6.208,-3.0049 -6.208,-7.3418 0,-4.3369 2.6074,-7.4551 6.293,-7.4551 1.417,0 2.63569,0.4824 3.5996,1.4463 l 0,-1.1064 3.00489,0 z m -3.0332,6.8603 c 0,-1.1904 -0.085,-1.9277 -0.2832,-2.4375 -0.4258,-1.0781 -1.6446,-1.8711 -2.9766,-1.8711 -2.09769,0 -3.458,1.7569 -3.458,4.4785 0,2.7774 1.36031,4.5352 3.543,4.5352 1.332,0 2.6074,-0.8223 2.9482,-1.9277 0.16991,-0.5381 0.2266,-1.2754 0.2266,-2.7774 z"
       id="path37" /><path
       inkscape:connector-curvature="0"
       style="fill:#ffffff;fill-rule:evenodd;stroke:none"
       d="m 596.56822,121.43953 c -1.361,0.5674 -1.503,0.8789 -1.503,2.8067 l 0,5.1875 c 0,1.6718 -0.198,2.3242 -0.935,3.1181 -0.85,0.9063 -2.438,1.417 -4.394,1.417 -1.956,0 -3.96849,-0.4814 -5.8962,-1.4453 l 1.248,-2.4102 c 1.9834,0.8506 2.9752,1.1065 4.3372,1.1065 1.813,0 2.579,-0.6807 2.607,-2.2686 l 0,-0.4531 c -2.381,-0.2265 -3.203,-0.3398 -4.138,-0.5107 -3.03369,-0.5948 -4.479,-1.8985 -4.479,-4.167 0,-2.6641 2.3242,-4.7051 5.386,-4.7051 1.615,0 2.891,0.5957 3.827,1.7578 0.283,-0.9639 1.105,-1.5596 2.437,-1.7578 l 1.503,2.3242 z m -4.536,2.5235 c 0,-0.8223 -0.141,-1.1348 -0.538,-1.503 -0.539,-0.4814 -1.475,-0.7939 -2.211,-0.7939 -1.446,0 -2.6366,0.9355 -2.6366,2.0986 0,0.9629 0.6236,1.5303 2.0126,1.8418 0.936,0.2266 1.673,0.3125 3.373,0.4824 l 0,-2.1259 z"
       id="path39" /><path
       inkscape:connector-curvature="0"
       style="fill:#ffffff;fill-rule:nonzero;stroke:none"
       d="m 611.50622,133.65733 -3.317,0 -3.118,-9.8926 -2.862,9.8926 -3.459,0 4.819,-14.542 c -0.454,-1.1621 -0.85,-1.4736 -1.842,-1.4736 -0.539,0 -0.908,0.0566 -1.587,0.3398 l -0.653,-2.5517 c 0.936,-0.3399 1.785,-0.5386 2.807,-0.5386 1.19,0 2.013,0.227 2.607,0.7378 0.538,0.4248 0.766,0.8506 1.247,2.1826 l 5.358,15.8457 z"
       id="path41" /><path
       inkscape:connector-curvature="0"
       style="fill:#ffffff;fill-rule:evenodd;stroke:none"
       d="m 565.64473,147.82923 0,8.1074 c 0,2.1826 -0.1709,3.2598 -0.6807,4.1103 -0.7656,1.417 -2.2676,2.1827 -4.1103,2.1827 -1.7012,0 -2.8633,-0.5664 -3.8838,-1.8995 -0.7647,1.3038 -1.9551,1.9278 -3.5996,1.9278 -1.3887,0 -2.3243,-0.4248 -3.4014,-1.503 l 0,1.2481 -2.9766,0 0,-14.1738 2.9766,0 0,8.0507 c 0,1.1338 0.1416,1.7862 0.5664,2.3243 0.4541,0.6523 1.248,1.0771 2.0127,1.0771 0.6807,0 1.3896,-0.3115 1.7861,-0.8789 0.3682,-0.5098 0.4541,-0.9629 0.4541,-2.4375 l 0,-8.1357 3.1172,0 0,8.1357 c 0,1.3037 0.085,1.7861 0.4258,2.2393 0.4814,0.6806 1.2754,1.1054 2.0693,1.1054 0.878,0 1.587,-0.4248 1.9268,-1.1338 0.1992,-0.4248 0.2559,-1.0205 0.2559,-2.2109 l 0,-8.1357 3.0615,0 z"
       id="path43" /><path
       inkscape:connector-curvature="0"
       style="fill:#ffffff;fill-rule:evenodd;stroke:none"
       d="m 526.15833,163.78823 c -1.0771,2.8632 -3.0048,3.8837 -6.0097,3.8837 -5.3291,0 -7.4268,-3.6562 -7.3701,-10.6015 0.0283,-2.7217 0.3974,-4.875 1.248,-6.293 1.1328,-1.956 3.2588,-3.1465 5.6973,-3.1465 1.7285,0 3.458,0.5957 4.5351,1.5313 1.417,1.2754 2.2393,3.2597 2.2393,5.3291 0,3.8261 -2.5225,6.4629 -6.208,6.4629 -1.7002,0 -2.6924,-0.4825 -4.1094,-1.6729 0.2266,1.7578 0.0567,2.6084 0.4815,3.4014 0.7373,1.2754 1.9277,1.9844 3.4013,1.9844 1.5596,0 2.4668,-0.7373 3.2881,-2.3809 l 2.8066,1.502 z m -2.8916,-9.5528 c 0,-2.2109 -1.4736,-3.7978 -3.5712,-3.7978 -2.0977,0 -3.6289,1.7285 -3.6289,4.081 0,2.0987 1.6162,3.6572 3.7138,3.6572 2.0977,0 3.4863,-1.5869 3.4863,-3.9404 z"
       id="path45" /><path
       inkscape:connector-curvature="0"
       style="fill:#ffffff;fill-rule:evenodd;stroke:none"
       d="m 543.61933,154.88783 c 0,4.3369 -2.5508,7.3701 -6.2363,7.3701 -1.5596,0 -2.5225,-0.3975 -3.7696,-1.6162 l 0,1.3613 -3.0049,0 0,-19.8428 3.0049,0 0,6.8887 c 1.1905,-1.0498 2.3242,-1.4746 3.8262,-1.4746 3.6006,0 6.1797,3.0615 6.1797,7.3135 z m -3.2031,-0.085 c 0,-2.665 -1.3887,-4.3652 -3.5147,-4.3652 -0.9639,0 -1.7295,0.3398 -2.3535,0.9638 -0.6797,0.6797 -0.8779,1.502 -0.8779,3.5713 0,1.5303 0.1132,2.3526 0.4814,2.9766 0.5098,0.8496 1.5879,1.417 2.75,1.417 2.1826,0 3.5147,-1.7569 3.5147,-4.5635 z"
       id="path47" /><path
       inkscape:connector-curvature="0"
       style="fill:#ffffff;fill-rule:nonzero;stroke:none"
       d="m 575.30973,155.22763 0,2.665 -5.89551,0 0,-2.665 5.89551,0 z"
       id="path49" /><path
       inkscape:connector-curvature="0"
       style="fill:#ffffff;fill-rule:evenodd;stroke:none"
       d="m 594.10322,157.55283 c 0,2.834 -0.454,5.1582 -1.248,6.6895 -1.162,2.2109 -3.429,3.4863 -6.0367,3.4863 -4.0537,0 -6.8603,-2.8916 -6.8603,-7.001 0,-3.7422 2.63671,-6.4355 6.2929,-6.4355 1.8431,0 3.1181,0.5107 4.5641,1.8144 -0.057,-1.7012 -0.255,-2.6357 -0.68,-3.458 -0.681,-1.2471 -1.985,-1.9844 -3.5433,-1.9844 -1.58779,0 -2.24019,0.4258 -3.17479,2.0694 l -3.06151,-1.5869 c 1.0772,-2.75 3.2598,-3.544 6.1797,-3.544 2.1829,0 4.3089,0.9356 5.6119,2.5225 1.332,1.5879 1.956,3.9687 1.956,7.4277 z m -3.6,3.0889 c 0,-2.0127 -1.644,-3.543 -3.798,-3.543 -2.041,0 -3.48729,1.5869 -3.48729,3.7988 0,2.2393 1.50289,3.8545 3.60059,3.8545 2.1547,0 3.6847,-1.7002 3.6847,-4.1103 z"
       id="path51" /><path
       inkscape:connector-curvature="0"
       style="fill:#ffffff;fill-rule:evenodd;stroke:none"
       d="m 611.08322,154.88783 c 0,4.3369 -2.552,7.3701 -6.236,7.3701 -1.56,0 -2.524,-0.3975 -3.771,-1.6162 l 0,1.3613 -3.005,0 0,-19.8428 3.005,0 0,6.8887 c 1.191,-1.0498 2.325,-1.4746 3.827,-1.4746 3.6,0 6.18,3.0615 6.18,7.3135 z m -3.204,-0.085 c 0,-2.665 -1.389,-4.3652 -3.515,-4.3652 -0.963,0 -1.728,0.3398 -2.352,0.9638 -0.681,0.6797 -0.879,1.502 -0.879,3.5713 0,1.5303 0.113,2.3526 0.482,2.9766 0.51,0.8496 1.587,1.417 2.749,1.417 2.183,0 3.515,-1.7569 3.515,-4.5635 z"
       id="path53" /><path
       inkscape:connector-curvature="0"
       style="fill:#ffffff;fill-rule:evenodd;stroke:none"
       d="m 633.10722,147.82923 0,8.1074 c 0,2.1826 -0.17,3.2598 -0.679,4.1103 -0.766,1.417 -2.269,2.1827 -4.112,2.1827 -1.7,0 -2.862,-0.5664 -3.882,-1.8995 -0.765,1.3038 -1.957,1.9278 -3.6,1.9278 -1.39,0 -2.325,-0.4248 -3.401,-1.503 l 0,1.2481 -2.978,0 0,-14.1738 2.978,0 0,8.0507 c 0,1.1338 0.14,1.7862 0.566,2.3243 0.453,0.6523 1.247,1.0771 2.013,1.0771 0.679,0 1.388,-0.3115 1.786,-0.8789 0.368,-0.5098 0.453,-0.9629 0.453,-2.4375 l 0,-8.1357 3.118,0 0,8.1357 c 0,1.3037 0.085,1.7861 0.425,2.2393 0.482,0.6806 1.276,1.1054 2.069,1.1054 0.879,0 1.588,-0.4248 1.928,-1.1338 0.198,-0.4248 0.255,-1.0205 0.255,-2.2109 l 0,-8.1357 3.061,0 z"
       id="path55" /></g></svg>