<?xml version="1.0" encoding="UTF-8" standalone="no"?>
<!-- Created with Inkscape (http://www.inkscape.org/) -->

<svg
   xmlns:dc="http://purl.org/dc/elements/1.1/"
   xmlns:cc="http://creativecommons.org/ns#"
   xmlns:rdf="http://www.w3.org/1999/02/22-rdf-syntax-ns#"
   xmlns:svg="http://www.w3.org/2000/svg"
   xmlns="http://www.w3.org/2000/svg"
   xmlns:sodipodi="http://sodipodi.sourceforge.net/DTD/sodipodi-0.dtd"
   xmlns:inkscape="http://www.inkscape.org/namespaces/inkscape"
   id="svg17624"
   version="1.1"
   inkscape:version="0.48.4 r9939"
   width="200.2"
   height="200.2"
   xml:space="preserve"
   sodipodi:docname="AJAX1.svg"><metadata
     id="metadata17630"><rdf:RDF><cc:Work
         rdf:about=""><dc:format>image/svg+xml</dc:format><dc:type
           rdf:resource="http://purl.org/dc/dcmitype/StillImage" /><dc:title /></cc:Work></rdf:RDF></metadata><defs
     id="defs17628"><inkscape:perspective
       sodipodi:type="inkscape:persp3d"
       inkscape:vp_x="0 : 0.5 : 1"
       inkscape:vp_y="0 : 1000 : 0"
       inkscape:vp_z="1 : 0.5 : 1"
       inkscape:persp3d-origin="0.5 : 0.33333333 : 1"
       id="perspective17632" /><clipPath
       clipPathUnits="userSpaceOnUse"
       id="clipPath17642"><path
         d="m -2,710 501,0 0,-711 -501,0 0,711 z"
         id="path17644"
         inkscape:connector-curvature="0" /></clipPath><clipPath
       clipPathUnits="userSpaceOnUse"
       id="clipPath17648"><path
         d="m 0,708.06 498,0 0,-708 -498,0 0,708 z"
         id="path17650"
         inkscape:connector-curvature="0" /></clipPath><clipPath
       clipPathUnits="userSpaceOnUse"
       id="clipPath17798"><path
         d="m -2,710 501,0 0,-711 -501,0 0,711 z"
         id="path17800"
         inkscape:connector-curvature="0" /></clipPath><clipPath
       clipPathUnits="userSpaceOnUse"
       id="clipPath17804"><path
         d="m 0,708.06 498,0 0,-708 -498,0 0,708 z"
         id="path17806"
         inkscape:connector-curvature="0" /></clipPath><clipPath
       id="Clip0"><path
         inkscape:connector-curvature="0"
         d="m 0,0 212.597,0 0,269.292 L 0,269.292 0,0 z"
         transform="translate(0.923828,0.879883)"
         id="path7" /></clipPath></defs><sodipodi:namedview
     pagecolor="#ffffff"
     bordercolor="#666666"
     borderopacity="1"
     objecttolerance="10"
     gridtolerance="10"
     guidetolerance="10"
     inkscape:pageopacity="0"
     inkscape:pageshadow="2"
     inkscape:window-width="1280"
     inkscape:window-height="1004"
     id="namedview17626"
     showgrid="false"
     inkscape:zoom="2.3322272"
     inkscape:cx="87.601084"
     inkscape:cy="106.70777"
     inkscape:window-x="-8"
     inkscape:window-y="-8"
     inkscape:window-maximized="1"
     inkscape:current-layer="g17634"
     fit-margin-top="0.1"
     fit-margin-left="0.1"
     fit-margin-right="0.1"
     fit-margin-bottom="0.1"
     showguides="true"
     inkscape:guide-bbox="true" /><g
     id="g17634"
     inkscape:groupmode="layer"
     inkscape:label="GG1999P002"
     transform="matrix(1.25,0,0,-1.25,160.49062,77.404678)"><path
       sodipodi:nodetypes="sssss"
       inkscape:connector-curvature="0"
       id="path3787"
       d="m 31.6875,-18.156349 c 0,44.18241 -35.816846,80.000091 -80.000009,80.000091 -44.183435,0 -79.999991,-35.817587 -79.999991,-80.000001 0,-44.18334 35.816556,-80 79.999991,-80 44.183163,0 80.000009,35.81656 80.000009,79.9999 z"
       style="fill:#c0111e;fill-opacity:1;fill-rule:nonzero;stroke:none" /><path
       style="fill:#ffffff;fill-rule:nonzero;stroke:none"
       d="m -112.3109,-2.1570588 127.996848,0 0,-31.9983992 -127.996848,0 z"
       id="path13"
       inkscape:connector-curvature="0"
       sodipodi:nodetypes="ccccc" /><path
       style="fill:#c0111e;fill-opacity:1;fill-rule:nonzero;stroke:none"
       d="m -92.570896,-8.1567318 0,-19.9997192 2.500658,0 0,11.839984 3.719755,-11.839984 2.159841,0 0,19.9997192 -2.460217,0 0,-10.6401712 -3.419379,10.6401712 -2.500658,0 z"
       id="path15"
       inkscape:connector-curvature="0" /><path
       style="fill:#c0111e;fill-opacity:1;fill-rule:evenodd;stroke:none"
       d="m -75.711152,-25.996616 c -0.826811,0 -1.406585,0.760677 -1.739981,2.28015 -0.239793,1.160301 -0.360207,2.980244 -0.360207,5.459732 0,2.587018 0.106585,4.439985 0.320696,5.559927 0.306774,1.640734 0.899342,2.460207 1.779492,2.460207 0.826811,0 1.387206,-0.819473 1.680245,-2.460207 0.186453,-1.106117 0.28015,-2.959077 0.28015,-5.559927 0,-2.679774 -0.08721,-4.499717 -0.259924,-5.459732 -0.267357,-1.519473 -0.833302,-2.28015 -1.700471,-2.28015 z m 0,-2.559458 c 1.653622,-0.01287 2.793697,0.653155 3.420226,1.999909 0.679868,1.466228 1.019755,4.233302 1.019755,8.299431 0,3.467168 -0.219567,5.92004 -0.659642,7.360492 -0.653151,2.1065852 -1.913641,3.1529632 -3.780339,3.1400752 -1.986265,-0.01373 -3.3,-1.067451 -3.940263,-3.1603012 -0.412512,-1.373377 -0.619191,-3.819852 -0.619191,-7.340266 0,-3.373373 0.253528,-5.799623 0.759737,-7.279675 0.679868,-2 1.94666,-3.006871 3.799717,-3.019665 z"
       id="path17"
       inkscape:connector-curvature="0" /><path
       style="fill:#c0111e;fill-opacity:1;fill-rule:nonzero;stroke:none"
       d="m -58.872784,-8.1567318 0,-19.9997192 7.620411,0 0,2.439985 -5.120694,0 0,7.199714 3.160301,0 0,2.460304 -3.160301,0 0,5.420225 4.859832,0 0,2.4794912 -7.359549,0 z"
       id="path19"
       inkscape:connector-curvature="0" /><path
       style="fill:#c0111e;fill-opacity:1;fill-rule:nonzero;stroke:none"
       d="m -48.25284,-8.1567318 0,-19.9997192 2.499718,0 0,11.839984 3.719751,-11.839984 2.159835,0 0,19.9997192 -2.459267,0 0,-10.6401712 -3.420319,10.6401712 -2.499718,0 z"
       id="path21"
       inkscape:connector-curvature="0" /><path
       style="fill:#c0111e;fill-opacity:1;fill-rule:nonzero;stroke:none"
       d="m -36.752754,-8.1567318 0,-2.4592662 2.598871,0 0,-17.540453 2.539982,0 0,17.540453 2.480714,0 0,2.4592662 -7.619567,0 z"
       id="path23"
       inkscape:connector-curvature="0" /><path
       style="fill:#c0111e;fill-opacity:1;fill-rule:evenodd;stroke:none"
       d="m -21.993958,-16.256734 -1.639699,0 0,5.640736 1.639699,0 c 0.520226,0 0.953904,-0.340827 1.300094,-1.020696 0.293509,-0.586077 0.440263,-1.226434 0.440263,-1.920036 0,-0.586077 -0.16651,-1.173193 -0.50047,-1.75927 -0.372531,-0.62747 -0.786454,-0.940734 -1.239887,-0.940734 z m 2.280338,-1.660109 c 1.266228,0.933396 1.899342,2.340824 1.899342,4.220508 0,2.012793 -0.459078,3.486358 -1.380057,4.4197542 -0.719661,0.746943 -1.666039,1.119849 -2.839134,1.119849 l -4.020696,0 0,-19.9997192 2.420508,0 0,9.359548 1.479774,0 2,-9.359548 2.480715,0 -2.040452,10.239608 z"
       id="path25"
       inkscape:connector-curvature="0" /><path
       style="fill:#c0111e;fill-opacity:1;fill-rule:nonzero;stroke:none"
       d="m -14.674094,-8.1567318 4.200376,-10.9001902 0,-9.099529 2.440264,0 0,9.099529 3.979303,10.9001902 -2.659454,0 -2.560677,-7.0600172 -2.739417,7.0600172 -2.660395,0 z"
       id="path27"
       inkscape:connector-curvature="0" /></g></svg>