<?xml version="1.0" encoding="UTF-8" standalone="no"?>
<!-- Created with Inkscape (http://www.inkscape.org/) -->

<svg
   xmlns:dc="http://purl.org/dc/elements/1.1/"
   xmlns:cc="http://creativecommons.org/ns#"
   xmlns:rdf="http://www.w3.org/1999/02/22-rdf-syntax-ns#"
   xmlns:svg="http://www.w3.org/2000/svg"
   xmlns="http://www.w3.org/2000/svg"
   xmlns:sodipodi="http://sodipodi.sourceforge.net/DTD/sodipodi-0.dtd"
   xmlns:inkscape="http://www.inkscape.org/namespaces/inkscape"
   id="svg17624"
   version="1.1"
   inkscape:version="0.48.2 r9819"
   width="213.78906"
   height="142.92969"
   xml:space="preserve"
   sodipodi:docname="AA5.svg"><metadata
     id="metadata17630"><rdf:RDF><cc:Work
         rdf:about=""><dc:format>image/svg+xml</dc:format><dc:type
           rdf:resource="http://purl.org/dc/dcmitype/StillImage" /><dc:title></dc:title></cc:Work></rdf:RDF></metadata><defs
     id="defs17628"><inkscape:perspective
       sodipodi:type="inkscape:persp3d"
       inkscape:vp_x="0 : 0.5 : 1"
       inkscape:vp_y="0 : 1000 : 0"
       inkscape:vp_z="1 : 0.5 : 1"
       inkscape:persp3d-origin="0.5 : 0.33333333 : 1"
       id="perspective17632" /><clipPath
       clipPathUnits="userSpaceOnUse"
       id="clipPath17642"><path
         d="m -2,710 501,0 0,-711 -501,0 0,711 z"
         id="path17644"
         inkscape:connector-curvature="0" /></clipPath><clipPath
       clipPathUnits="userSpaceOnUse"
       id="clipPath17648"><path
         d="m 0,708.06 498,0 0,-708 -498,0 0,708 z"
         id="path17650"
         inkscape:connector-curvature="0" /></clipPath><clipPath
       clipPathUnits="userSpaceOnUse"
       id="clipPath17798"><path
         d="m -2,710 501,0 0,-711 -501,0 0,711 z"
         id="path17800"
         inkscape:connector-curvature="0" /></clipPath><clipPath
       clipPathUnits="userSpaceOnUse"
       id="clipPath17804"><path
         d="m 0,708.06 498,0 0,-708 -498,0 0,708 z"
         id="path17806"
         inkscape:connector-curvature="0" /></clipPath><clipPath
       id="Clip0"><path
         inkscape:connector-curvature="0"
         d="m 0,0 212.597,0 0,269.292 L 0,269.292 0,0 z"
         transform="translate(0.923828,0.879883)"
         id="path7" /></clipPath><clipPath
       id="Clip0-8"><path
         inkscape:connector-curvature="0"
         d="m 0,0 170.079,0 0,113.386 L 0,113.386 0,0 z"
         transform="translate(0.0986328,0.822266)"
         id="path7-8" /></clipPath><clipPath
       id="Clip0-1"><path
         inkscape:connector-curvature="0"
         d="m 0,0 287.009,0 0,159.449 L 0,159.449 0,0 z"
         transform="translate(0.396484,0.267578)"
         id="path7-7" /></clipPath><clipPath
       id="Clip0-9"><path
         inkscape:connector-curvature="0"
         d="m 0,0 170.079,0 0,170.079 L 0,170.079 0,0 z"
         transform="translate(0.460938,0.775391)"
         id="path7-4" /></clipPath><clipPath
       id="Clip0-4"><path
         inkscape:connector-curvature="0"
         d="m 0,0 340.157,0 0,226.771 L 0,226.771 0,0 z"
         transform="translate(0.921875,0.25293)"
         id="path7-5" /></clipPath><clipPath
       id="Clip0-5"><path
         inkscape:connector-curvature="0"
         d="m 0,0 255.119,0 0,170.079 L 0,170.079 0,0 z"
         transform="translate(0.147461,0.0595703)"
         id="path7-1" /></clipPath><clipPath
       id="Clip0-0"><path
         inkscape:connector-curvature="0"
         d="m 0,0 170.079,0 0,113.386 L 0,113.386 0,0 z"
         transform="translate(0.0673828,0.207031)"
         id="path7-9" /></clipPath></defs><sodipodi:namedview
     pagecolor="#ffffff"
     bordercolor="#666666"
     borderopacity="1"
     objecttolerance="10"
     gridtolerance="10"
     guidetolerance="10"
     inkscape:pageopacity="0"
     inkscape:pageshadow="2"
     inkscape:window-width="1280"
     inkscape:window-height="1004"
     id="namedview17626"
     showgrid="false"
     inkscape:zoom="2.8284272"
     inkscape:cx="135.25114"
     inkscape:cy="13.615937"
     inkscape:window-x="-8"
     inkscape:window-y="-8"
     inkscape:window-maximized="1"
     inkscape:current-layer="g17634"
     fit-margin-top="0"
     fit-margin-left="0"
     fit-margin-right="0"
     fit-margin-bottom="0"
     showguides="true"
     inkscape:guide-bbox="true" /><g
     id="g17634"
     inkscape:groupmode="layer"
     inkscape:label="GG1999P002"
     transform="matrix(1.25,0,0,-1.25,1144.1016,-1274.9219)"><path
       inkscape:connector-curvature="0"
       style="fill:#ffffff;fill-rule:nonzero;stroke:#000000;stroke-width:0.95999998;stroke-miterlimit:4;stroke-opacity:1;stroke-dasharray:none"
       d="m -914.80762,-1031.7647 c 0,6.2628 5.07715,11.3389 11.3389,11.3389 l 147.4021,0 c 6.262,0 11.338,-5.0761 11.338,-11.3389 l 0,-90.7091 c 0,-6.262 -5.076,-11.338 -11.338,-11.338 l -147.4021,0 c -6.26175,0 -11.3389,5.076 -11.3389,11.338 l 0,90.7091 z"
       id="path11" /><path
       inkscape:connector-curvature="0"
       style="fill:#c0111e;fill-opacity:1;fill-rule:nonzero;stroke:none"
       d="m -912.53906,-1031.7636 c 0,5.0097 4.06054,9.0702 9.07036,9.0702 l 147.40164,0 c 5.009,0 9.071,-4.0605 9.071,-9.0702 l 0,-90.7091 c 0,-5.0097 -4.062,-9.0697 -9.071,-9.0697 l -147.40164,0 c -5.00982,0 -9.07036,4.06 -9.07036,9.0697 l 0,90.7091 z"
       id="path13-4" /><path
       inkscape:connector-curvature="0"
       style="fill:#ffffff;fill-rule:nonzero;stroke:none"
       d="m -909.1377,-1031.7636 c 0,3.1309 2.53809,5.6689 5.669,5.6689 l 147.403,0 c 3.13,0 5.669,-2.538 5.669,-5.6689 l 0,-90.7091 c 0,-3.131 -2.539,-5.669 -5.669,-5.669 l -147.403,0 c -3.13091,0 -5.669,2.538 -5.669,5.669 l 0,90.7091 z"
       id="path15" /><g
       transform="matrix(1,0,0,-1,-914.875,-1020.2187)"
       id="Background"
       style="fill:#c0111e;fill-opacity:1;stroke:none"><g
         id="Group1"
         clip-path="url(#Clip0-0)"
         style="fill:#c0111e;fill-opacity:1;stroke:none"><path
           inkscape:connector-curvature="0"
           style="fill:#c0111e;fill-opacity:1;fill-rule:nonzero;stroke:none"
           d="M 3.3731,19.8418 3.3731,0 0,0 l 0,19.8418 3.3731,0 z"
           transform="translate(31.5605,18.6328)"
           id="path17" /><path
           inkscape:connector-curvature="0"
           style="fill:#c0111e;fill-opacity:1;fill-rule:evenodd;stroke:none"
           d="m 11.4805,14.4844 0,-8.6738 c 0,-2.126 -0.1983,-3.1182 -0.9072,-4.0537 C 9.7227,0.6514 8.3057,0 6.6045,0 5.2158,0 4.3369,0.3116 3.0049,1.3887 l 0,-1.0771 -3.0049,0 0,14.1728 3.0049,0 0,-8.0215 c 0,-1.2187 0.1982,-1.956 0.709,-2.5224 0.5097,-0.5674 1.4453,-0.9356 2.2392,-0.9356 0.8213,0 1.6436,0.3682 2.0127,0.9356 0.3399,0.5097 0.4532,1.1328 0.4532,2.4941 l 0,8.0498 3.0615,0 z"
           transform="translate(40.1494,23.9902)"
           id="path19" /><path
           inkscape:connector-curvature="0"
           style="fill:#c0111e;fill-opacity:1;fill-rule:nonzero;stroke:none"
           d="M 12.416,10.7998 9.6943,9.4678 c -0.7939,1.5303 -1.7578,2.2393 -3.0898,2.2393 -2.0694,0 -3.5156,-1.8145 -3.5156,-4.4502 0,-2.4951 1.4746,-4.3936 3.4306,-4.3936 1.3321,0 2.211,0.6514 3.0322,2.1543 l 2.75,-1.3896 C 11.2812,1.2754 9.2119,0 6.6045,0 2.6924,0 0,2.9766 0,7.2569 c 0,4.3086 2.6357,7.2851 6.4629,7.2851 2.664,0 4.8183,-1.332 5.9531,-3.7422 z"
           transform="translate(55.2588,24.1318)"
           id="path21" /><path
           inkscape:connector-curvature="0"
           style="fill:#c0111e;fill-opacity:1;fill-rule:nonzero;stroke:none"
           d="M 6.208,19.5586 5.8681,17.0078 c -0.9638,0.0566 -0.9638,0.0566 -1.2754,0.0566 -1.247,0 -1.5878,-0.3965 -1.5878,-1.8427 L 3.0049,0 0,0 0,15.6748 c 0,2.1269 0.2275,2.8642 1.0771,3.4873 0.624,0.4531 1.3887,0.6523 2.5225,0.6523 0.7939,0 1.9287,-0.1133 2.6084,-0.2558 z"
           transform="translate(70.6221,18.8594)"
           id="path23" /><path
           inkscape:connector-curvature="0"
           style="fill:#c0111e;fill-opacity:1;fill-rule:evenodd;stroke:none"
           d="m 11.6513,14.1728 0,-14.1728 -3.0332,0 0,7.6533 c 0,1.1621 -0.1416,1.9277 -0.4541,2.4951 -0.538,0.8789 -1.6435,1.4453 -2.6923,1.4453 -0.8223,0 -1.6446,-0.3965 -2.0127,-0.9922 C 3.1748,10.1484 3.0332,9.3545 3.0332,8.2207 L 3.0332,0 0,0 0,8.2207 c 0,2.5791 0.1992,3.5429 1.0215,4.5634 0.8213,1.1055 2.2392,1.7295 3.8828,1.7295 1.5312,0 2.6933,-0.5107 3.7422,-1.6728 l 0,1.332 3.0048,0 z"
           transform="translate(79.4092,24.3018)"
           id="path25" /><path
           inkscape:connector-curvature="0"
           style="fill:#c0111e;fill-opacity:1;fill-rule:evenodd;stroke:none"
           d="M 12.898,19.6152 12.898,0 9.893,0 l 0,6.5478 C 8.731,5.584 7.654,5.1592 6.208,5.1592 2.5518,5.1592 0,8.1631 0,12.5 c 0,4.3379 2.6084,7.456 6.293,7.456 1.418,0 2.637,-0.4824 3.6,-1.4463 l 0,1.1055 3.005,0 z M 9.865,12.7558 c 0,1.1905 -0.086,1.9278 -0.284,2.4375 -0.425,1.0772 -1.643,1.8711 -2.976,1.8711 -2.0971,0 -3.4585,-1.7568 -3.4585,-4.4785 0,-2.7783 1.3614,-4.5361 3.5435,-4.5361 1.333,0 2.608,0.8222 2.949,1.9277 0.17,0.5391 0.226,1.2764 0.226,2.7783 z"
           transform="translate(94.915,18.8594)"
           id="path27" /><path
           inkscape:connector-curvature="0"
           style="fill:#c0111e;fill-opacity:1;fill-rule:evenodd;stroke:none"
           d="m 12.869,8.5323 0,-0.6241 C 12.869,2.9756 10.431,0 6.378,0 2.55,0 0,2.9483 0,7.3125 c 0,4.4512 2.806,7.5411 6.917,7.5411 2.126,0 3.854,-0.709 5.385,-2.1827 L 10.46,10.4873 c -1.333,1.0215 -2.268,1.418 -3.516,1.418 -2.04,0 -3.515,-1.2754 -3.741,-3.373 l 9.666,0 z m -3.232,-2.3819 -6.434,0 C 3.288,5.3008 3.401,4.9034 3.656,4.4502 4.252,3.4297 5.3,2.8057 6.462,2.8057 c 1.843,0 3.09,1.3047 3.175,3.3447 z"
           transform="translate(111.81,23.9902)"
           id="path29" /><path
           inkscape:connector-curvature="0"
           style="fill:#c0111e;fill-opacity:1;fill-rule:nonzero;stroke:none"
           d="M 11.65,10.1191 C 11.65,7.8515 10.12,6.5195 7.115,5.9814 5.471,5.6972 5.301,5.6689 4.989,5.5556 4.28,5.3291 3.912,4.9033 3.912,4.3652 c 0,-0.9356 1.021,-1.6445 2.381,-1.6445 0.964,0 1.984,0.3974 3.346,1.3886 l 1.898,-2.125 C 9.893,0.623 8.221,0 6.265,0 3.061,0 0.822,1.8418 0.822,4.4218 c 0,1.0205 0.398,2.041 1.106,2.7784 0.794,0.7929 1.588,1.1337 3.543,1.4453 1.418,0.2265 1.701,0.2832 2.042,0.4248 0.623,0.2558 0.963,0.7373 0.963,1.3047 0,0.9355 -1.049,1.5869 -2.58,1.5869 -1.417,0 -2.55,-0.4815 -3.968,-1.7002 L 0,12.33 c 1.843,1.6162 3.855,2.4102 5.981,2.4102 3.317,0 5.669,-1.8994 5.669,-4.6211 z"
           transform="translate(127.003,24.0186)"
           id="path31" /><path
           inkscape:connector-curvature="0"
           style="fill:#c0111e;fill-opacity:1;fill-rule:nonzero;stroke:none"
           d="M 12.5576,3.1465 12.5576,0 0,0 l 0,19.8428 3.373,0 0,-8.4756 8.4473,0 0,-3.1182 -8.4473,0 0,-5.1025 9.1846,0 z"
           transform="translate(46.542,75.3252)"
           id="path33" /><path
           inkscape:connector-curvature="0"
           style="fill:#c0111e;fill-opacity:1;fill-rule:evenodd;stroke:none"
           d="m 7.5117,3.1182 0,-3.0899 C 7.2001,0 6.9736,0 6.831,0 5.1591,0 4.0537,0.5107 2.9765,1.8428 l 0,-1.6436 -2.9765,0 0,14.1729 3.0048,0 0,-6.5762 c 0,-2.1543 0.4248,-3.2891 1.417,-3.9971 C 5.1591,3.3447 5.8964,3.1465 7.5117,3.1182 z"
           transform="translate(61.7354,80.7959)"
           id="path35" /><path
           inkscape:connector-curvature="0"
           style="fill:#c0111e;fill-opacity:1;fill-rule:evenodd;stroke:none"
           d="M 3.8554,1.8994 C 3.8554,0.9072 2.9765,0 1.9843,0 0.8789,0 0,0.8789 0,1.8994 c 0,1.0771 0.8789,1.9277 1.956,1.9277 1.0205,0 1.8994,-0.8506 1.8994,-1.9277 z m -0.3964,17.8301 0,-14.1485 -3.0616,0 0,14.1485 3.0616,0 z"
           transform="translate(71.6846,75.4385)"
           id="path37" /><path
           inkscape:connector-curvature="0"
           style="fill:#c0111e;fill-opacity:1;fill-rule:evenodd;stroke:none"
           d="m 12.8975,19.6162 0,-19.6162 -3.0049,0 0,6.5488 C 8.7305,5.5849 7.6533,5.1591 6.208,5.1591 2.5518,5.1591 0,8.164 0,12.5009 c 0,4.3369 2.6084,7.4551 6.293,7.4551 1.417,0 2.6357,-0.4814 3.5996,-1.4453 l 0,1.1055 3.0049,0 z M 9.8652,12.7558 c 0,1.1914 -0.0859,1.9278 -0.2841,2.4385 -0.4258,1.0771 -1.6446,1.8711 -2.9766,1.8711 -2.0967,0 -3.458,-1.7578 -3.458,-4.4795 0,-2.7773 1.3613,-4.5352 3.543,-4.5352 1.333,0 2.6084,0.8223 2.9482,1.9278 0.1699,0.5381 0.2275,1.2754 0.2275,2.7773 z"
           transform="translate(78.9414,75.5518)"
           id="path39" /><path
           inkscape:connector-curvature="0"
           style="fill:#c0111e;fill-opacity:1;fill-rule:evenodd;stroke:none"
           d="m 13.1529,12.5293 c -1.36,-0.5674 -1.502,-0.8789 -1.502,-2.8066 l 0,-5.1865 c 0,-1.6729 -0.198,-2.3252 -0.935,-3.1182 C 9.8649,0.5108 8.2779,0 6.3219,0 4.3662,0 2.3525,0.4824 0.4258,1.4453 l 1.247,2.4102 C 3.6572,3.0049 4.6489,2.75 6.0099,2.75 c 1.814,0 2.58,0.6797 2.608,2.2676 l 0,0.4541 C 6.2359,5.6983 5.4139,5.8115 4.4799,5.9815 1.4463,6.5762 0,7.8809 0,10.1485 c 0,2.664 2.3252,4.705 5.3869,4.705 1.615,0 2.891,-0.5947 3.826,-1.7568 0.284,0.9639 1.105,1.5586 2.438,1.7568 l 1.502,-2.3242 z m -4.535,-2.5224 c 0,0.8222 -0.142,1.1337 -0.539,1.5019 -0.538,0.4824 -1.473,0.794 -2.211,0.794 -1.445,0 -2.6355,-0.9356 -2.6355,-2.0977 0,-0.9639 0.623,-1.5313 2.0115,-1.8428 0.936,-0.2265 1.673,-0.3115 3.374,-0.4814 l 0,2.126 z"
           transform="translate(95.5801,80.6826)"
           id="path41" /><path
           inkscape:connector-curvature="0"
           style="fill:#c0111e;fill-opacity:1;fill-rule:nonzero;stroke:none"
           d="M 12.756,0 9.439,0 6.321,9.8926 3.458,0 0,0 4.819,14.541 c -0.454,1.1621 -0.85,1.4746 -1.842,1.4746 -0.539,0 -1.134,-0.0566 -1.815,-0.1699 L 0.68,18.3965 c 0.992,0.2266 1.842,0.3682 2.863,0.3682 1.19,0 2.013,-0.2266 2.608,-0.7364 0.538,-0.4257 0.765,-0.8505 1.247,-2.1826 L 12.756,0 z"
           transform="translate(110.916,80.9951)"
           id="path43" /><path
           inkscape:connector-curvature="0"
           style="fill:#c0111e;fill-opacity:1;fill-rule:evenodd;stroke:none"
           d="M 13.7764,4.3945 C 12.6426,1.4746 10.5449,0 7.54,0 2.664,0 0,3.7705 0,10.6015 c 0,2.7217 0.3965,4.876 1.2471,6.293 1.1337,1.956 3.2597,3.1465 5.6982,3.1465 1.7285,0 3.458,-0.5947 4.5352,-1.5303 1.4169,-1.2754 2.2392,-3.2598 2.2392,-5.3291 0,-3.8271 -2.5225,-6.4629 -6.208,-6.4629 -1.7012,0 -2.9199,0.4815 -4.3369,1.6719 C 3.4014,6.6328 3.6279,5.7832 4.0537,4.9892 4.79,3.7138 5.9805,3.0048 7.4551,3.0048 c 1.5595,0 2.5791,0.7374 3.4013,2.3819 l 2.92,-0.9922 z m -3.2881,9.042 c 0,2.2109 -1.4737,3.7988 -3.5723,3.7988 -2.0977,0 -3.6279,-1.7295 -3.6279,-4.082 0,-2.0977 1.6152,-3.6572 3.7138,-3.6572 2.0967,0 3.4864,1.5878 3.4864,3.9404 z"
           transform="translate(24.9424,46.9766)"
           id="path45" /><path
           inkscape:connector-curvature="0"
           style="fill:#c0111e;fill-opacity:1;fill-rule:evenodd;stroke:none"
           d="M 13.0107,7.3711 C 13.0107,3.0342 10.4599,0 6.7744,0 5.2148,0 4.2519,0.3975 3.0048,1.6162 l 0,-1.3603 -3.0048,0 0,18.3681 3.0048,0 0,-5.414 c 1.1895,1.0488 2.3243,1.4736 3.8262,1.4736 3.5996,0 6.1797,-3.0615 6.1797,-7.3125 z m -3.2031,0.084 c 0,2.665 -1.3887,4.3662 -3.5147,4.3662 -0.9638,0 -1.7295,-0.3408 -2.3535,-0.9639 C 3.2588,10.1768 3.0615,9.3545 3.0615,7.2852 c 0,-1.5303 0.1133,-2.3526 0.4814,-2.9756 0.5098,-0.8506 1.5879,-1.418 2.75,-1.418 2.1826,0 3.5147,1.7578 3.5147,4.5635 z"
           transform="translate(42.7725,52.3906)"
           id="path47" /><path
           inkscape:connector-curvature="0"
           style="fill:#c0111e;fill-opacity:1;fill-rule:evenodd;stroke:none"
           d="m 18.6523,14.4287 0,-8.1064 c 0,-2.1836 -0.1699,-3.2608 -0.6807,-4.1104 C 17.207,0.794 15.7041,0.0293 13.8613,0.0293 12.1611,0.0293 10.998,0.5957 9.9785,1.9287 9.2128,0.624 8.0224,0 6.3779,0 4.9892,0 4.0537,0.4258 2.9765,1.503 l 0,-1.2471 -2.9765,0 0,14.1728 2.9765,0 0,-8.0498 C 2.9765,5.2442 3.1181,4.5928 3.5429,4.0537 3.997,3.4014 4.791,2.9766 5.5556,2.9766 c 0.6807,0 1.3897,0.3115 1.7861,0.8789 0.3682,0.5107 0.4541,0.9639 0.4541,2.4375 l 0,8.1357 3.1182,0 0,-8.1357 c 0,-1.3037 0.084,-1.7852 0.4248,-2.2393 0.4815,-0.6797 1.2754,-1.1054 2.0694,-1.1054 0.8779,0 1.5869,0.4257 1.9277,1.1338 0.1982,0.4257 0.2549,1.0214 0.2549,2.2109 l 0,8.1357 3.0615,0 z"
           transform="translate(59.1563,52.3906)"
           id="path49" /><path
           inkscape:connector-curvature="0"
           style="fill:#c0111e;fill-opacity:1;fill-rule:nonzero;stroke:none"
           d="M 5.8965,2.6641 5.8965,0 0,0 l 0,2.6641 5.8965,0 z"
           transform="translate(81.5781,56.7568)"
           id="path51" /><path
           inkscape:connector-curvature="0"
           style="fill:#c0111e;fill-opacity:1;fill-rule:evenodd;stroke:none"
           d="m 14.146,10.1768 c 0,-2.835 -0.455,-5.1592 -1.248,-6.6895 C 11.735,1.2764 9.468,0 6.8594,0 2.8057,0 0,2.8916 0,7.002 c 0,3.7412 2.6358,6.4345 6.293,6.4345 1.843,0 3.118,-0.5107 4.563,-1.8144 -0.056,1.7012 -0.254,2.6367 -0.679,3.459 -0.681,1.247 -1.985,1.9834 -3.5441,1.9834 -1.587,0 -2.4092,-0.5381 -3.3448,-2.1826 l -2.8916,1.0205 c 1.0772,2.75 3.2598,4.2236 6.1797,4.2236 2.1828,0 4.3088,-0.9346 5.6138,-2.5225 1.332,-1.5869 1.956,-3.9687 1.956,-7.4267 z M 10.545,7.0869 c 0,2.0127 -1.644,3.543 -3.7989,3.543 -2.041,0 -3.4863,-1.5869 -3.4863,-3.7978 0,-2.2393 1.502,-3.8555 3.5996,-3.8555 2.1556,0 3.6856,1.7012 3.6856,4.1103 z"
           transform="translate(92.123,46.9199)"
           id="path53" /><path
           inkscape:connector-curvature="0"
           style="fill:#c0111e;fill-opacity:1;fill-rule:evenodd;stroke:none"
           d="M 13.012,7.3711 C 13.012,3.0342 10.46,0 6.776,0 5.216,0 4.252,0.3975 3.005,1.6162 l 0,-1.3603 -3.005,0 0,18.3681 3.005,0 0,-5.414 c 1.191,1.0488 2.325,1.4736 3.827,1.4736 3.6,0 6.18,-3.0615 6.18,-7.3125 z m -3.203,0.084 c 0,2.665 -1.39,4.3662 -3.516,4.3662 -0.963,0 -1.728,-0.3408 -2.352,-0.9639 C 3.26,10.1768 3.062,9.3545 3.062,7.2852 c 0,-1.5303 0.113,-2.3526 0.482,-2.9756 0.51,-0.8506 1.587,-1.418 2.749,-1.418 2.183,0 3.516,1.7578 3.516,4.5635 z"
           transform="translate(110.236,52.3906)"
           id="path55" /><path
           inkscape:connector-curvature="0"
           style="fill:#c0111e;fill-opacity:1;fill-rule:evenodd;stroke:none"
           d="m 18.652,14.4287 0,-8.1064 c 0,-2.1836 -0.169,-3.2608 -0.68,-4.1104 C 17.206,0.794 15.704,0.0293 13.861,0.0293 12.16,0.0293 10.998,0.5957 9.978,1.9287 9.213,0.624 8.022,0 6.378,0 4.989,0 4.054,0.4258 2.977,1.503 l 0,-1.2471 -2.977,0 0,14.1728 2.977,0 0,-8.0498 C 2.977,5.2442 3.118,4.5928 3.543,4.0537 3.997,3.4014 4.79,2.9766 5.556,2.9766 c 0.68,0 1.389,0.3115 1.786,0.8789 0.368,0.5107 0.453,0.9639 0.453,2.4375 l 0,8.1357 3.118,0 0,-8.1357 c 0,-1.3037 0.085,-1.7852 0.426,-2.2393 0.481,-0.6797 1.275,-1.1054 2.069,-1.1054 0.878,0 1.587,0.4257 1.927,1.1338 0.199,0.4257 0.256,1.0214 0.256,2.2109 l 0,8.1357 3.061,0 z"
           transform="translate(126.621,52.3906)"
           id="path57" /></g></g></g></svg>