<?xml version="1.0" encoding="UTF-8" standalone="no"?>
<!-- Created with Inkscape (http://www.inkscape.org/) -->

<svg
   xmlns:dc="http://purl.org/dc/elements/1.1/"
   xmlns:cc="http://creativecommons.org/ns#"
   xmlns:rdf="http://www.w3.org/1999/02/22-rdf-syntax-ns#"
   xmlns:svg="http://www.w3.org/2000/svg"
   xmlns="http://www.w3.org/2000/svg"
   xmlns:sodipodi="http://sodipodi.sourceforge.net/DTD/sodipodi-0.dtd"
   xmlns:inkscape="http://www.inkscape.org/namespaces/inkscape"
   id="svg17624"
   version="1.1"
   inkscape:version="0.48.2 r9819"
   width="213.59375"
   height="89.570312"
   xml:space="preserve"
   sodipodi:docname="AJAX1.svg"><metadata
     id="metadata17630"><rdf:RDF><cc:Work
         rdf:about=""><dc:format>image/svg+xml</dc:format><dc:type
           rdf:resource="http://purl.org/dc/dcmitype/StillImage" /><dc:title /></cc:Work></rdf:RDF></metadata><defs
     id="defs17628"><inkscape:perspective
       sodipodi:type="inkscape:persp3d"
       inkscape:vp_x="0 : 0.5 : 1"
       inkscape:vp_y="0 : 1000 : 0"
       inkscape:vp_z="1 : 0.5 : 1"
       inkscape:persp3d-origin="0.5 : 0.33333333 : 1"
       id="perspective17632" /><clipPath
       clipPathUnits="userSpaceOnUse"
       id="clipPath17642"><path
         d="m -2,710 501,0 0,-711 -501,0 0,711 z"
         id="path17644"
         inkscape:connector-curvature="0" /></clipPath><clipPath
       clipPathUnits="userSpaceOnUse"
       id="clipPath17648"><path
         d="m 0,708.06 498,0 0,-708 -498,0 0,708 z"
         id="path17650"
         inkscape:connector-curvature="0" /></clipPath><clipPath
       clipPathUnits="userSpaceOnUse"
       id="clipPath17798"><path
         d="m -2,710 501,0 0,-711 -501,0 0,711 z"
         id="path17800"
         inkscape:connector-curvature="0" /></clipPath><clipPath
       clipPathUnits="userSpaceOnUse"
       id="clipPath17804"><path
         d="m 0,708.06 498,0 0,-708 -498,0 0,708 z"
         id="path17806"
         inkscape:connector-curvature="0" /></clipPath><clipPath
       id="Clip0"><path
         inkscape:connector-curvature="0"
         d="m 0,0 212.597,0 0,269.292 L 0,269.292 0,0 z"
         transform="translate(0.923828,0.879883)"
         id="path7" /></clipPath><clipPath
       id="Clip0-8"><path
         inkscape:connector-curvature="0"
         d="m 0,0 170.079,0 0,113.386 L 0,113.386 0,0 z"
         transform="translate(0.0986328,0.822266)"
         id="path7-8" /></clipPath><clipPath
       id="Clip0-1"><path
         inkscape:connector-curvature="0"
         d="m 0,0 287.009,0 0,159.449 L 0,159.449 0,0 z"
         transform="translate(0.396484,0.267578)"
         id="path7-7" /></clipPath><clipPath
       id="Clip0-9"><path
         inkscape:connector-curvature="0"
         d="m 0,0 170.079,0 0,170.079 L 0,170.079 0,0 z"
         transform="translate(0.460938,0.775391)"
         id="path7-4" /></clipPath><clipPath
       id="Clip0-4"><path
         inkscape:connector-curvature="0"
         d="m 0,0 340.157,0 0,226.771 L 0,226.771 0,0 z"
         transform="translate(0.921875,0.25293)"
         id="path7-5" /></clipPath><clipPath
       id="Clip0-5"><path
         inkscape:connector-curvature="0"
         d="m 0,0 255.119,0 0,170.079 L 0,170.079 0,0 z"
         transform="translate(0.147461,0.0595703)"
         id="path7-1" /></clipPath></defs><sodipodi:namedview
     pagecolor="#ffffff"
     bordercolor="#666666"
     borderopacity="1"
     objecttolerance="10"
     gridtolerance="10"
     guidetolerance="10"
     inkscape:pageopacity="0"
     inkscape:pageshadow="2"
     inkscape:window-width="1280"
     inkscape:window-height="1004"
     id="namedview17626"
     showgrid="false"
     inkscape:zoom="2.8284273"
     inkscape:cx="123.55651"
     inkscape:cy="92.979922"
     inkscape:window-x="-8"
     inkscape:window-y="-8"
     inkscape:window-maximized="1"
     inkscape:current-layer="g17634"
     fit-margin-top="0"
     fit-margin-left="0"
     fit-margin-right="0"
     fit-margin-bottom="0"
     showguides="true"
     inkscape:guide-bbox="true" /><g
     id="g17634"
     inkscape:groupmode="layer"
     inkscape:label="GG1999P002"
     transform="matrix(1.25,0,0,-1.25,471.60156,-513.16406)"><path
       inkscape:connector-curvature="0"
       style="fill:#ffffff;fill-rule:nonzero;stroke:#000000;stroke-width:0.80000001;stroke-miterlimit:4;stroke-opacity:1;stroke-dasharray:none"
       d="m -376.89453,-422.27054 c 0,6.26175 5.07617,11.3389 11.3388,11.3389 l 147.4012,0 c 6.262,0 11.338,-5.07715 11.338,-11.3389 l 0,-48.1895 c 0,-6.2617 -5.076,-11.3379 -11.338,-11.3379 l -147.4012,0 c -6.26263,0 -11.3388,5.0762 -11.3388,11.3379 l 0,48.1895 z"
       id="path11" /><path
       inkscape:connector-curvature="0"
       style="fill:#c0111e;fill-opacity:1;fill-rule:nonzero;stroke:none"
       d="m -374.91016,-422.2705 c 0,5.16601 4.1875,9.35448 9.35356,9.35448 l 147.40244,0 c 5.166,0 9.355,-4.18847 9.355,-9.35448 l 0,-48.18952 c 0,-5.166 -4.189,-9.3535 -9.355,-9.3535 l -147.40244,0 c -5.16606,0 -9.35356,4.1875 -9.35356,9.3535 l 0,48.18952 z"
       id="path13-1" /><path
       inkscape:connector-curvature="0"
       style="fill:#ffffff;fill-rule:nonzero;stroke:none"
       d="m -371.79199,-422.2705 c 0,3.44433 2.79199,6.23632 6.23539,6.23632 l 147.40161,0 c 3.445,0 6.237,-2.79199 6.237,-6.23632 l 0,-48.18948 c 0,-3.4433 -2.792,-6.2353 -6.237,-6.2353 l -147.40161,0 c -3.4434,0 -6.23539,2.792 -6.23539,6.2353 l 0,48.18948 z"
       id="path15" /><path
       inkscape:connector-curvature="0"
       style="fill:#c0111e;fill-opacity:1;fill-rule:nonzero;stroke:none"
       d="m -342.8789,-437.1426 3.4863,0 c 0,1.6065 -0.5293,2.9287 -1.5869,3.9688 -1.0586,1.0576 -2.3535,1.5869 -3.8838,1.5869 -2.6084,0 -4.375,-1.502 -5.3008,-4.5069 -0.6806,-2.1542 -1.0205,-5.6123 -1.0205,-10.375 0,-4.913 0.4063,-8.4472 1.2188,-10.6015 0.9824,-2.6641 2.75,-3.9863 5.3008,-3.9678 2.5888,0.0186 4.3086,1.3604 5.1591,4.0244 0.1133,0.3594 0.17,1.9473 0.17,4.7627 l 0,5.5557 -5.2725,0 0,-3.5713 1.8711,0 0,-3.5723 c 0,-2.4189 -0.6807,-3.6279 -2.041,-3.6279 -1.8897,0 -2.835,2.9951 -2.835,8.9854 l 0,2.041 c 0,0.208 0,0.6425 0,1.3037 -0.0185,0.6621 -0.0283,1.2002 -0.0283,1.6162 0,5.5742 0.9072,8.3623 2.7217,8.3623 0.5849,0 1.0674,-0.208 1.4453,-0.624 0.3965,-0.3965 0.5957,-0.8496 0.5957,-1.3604 z"
       id="path17" /><path
       inkscape:connector-curvature="0"
       style="fill:#c0111e;fill-opacity:1;fill-rule:nonzero;stroke:none"
       d="m -333.8936,-460.5 3.543,0 0,28.3467 -3.543,0 0,-28.3467 z"
       id="path19" /><path
       inkscape:connector-curvature="0"
       style="fill:#c0111e;fill-opacity:1;fill-rule:nonzero;stroke:none"
       d="m -320.8545,-460.5 3.0049,0 4.875,28.3467 -3.3731,0 -3.0615,-16.6963 -2.834,16.6963 -3.7705,0 5.1592,-28.3467 z"
       id="path21" /><path
       inkscape:connector-curvature="0"
       style="fill:#c0111e;fill-opacity:1;fill-rule:nonzero;stroke:none"
       d="m -308.7227,-432.1533 0,-28.3467 10.7998,0 0,3.458 -7.2558,0 0,10.2051 4.4785,0 0,3.4863 -4.4785,0 0,7.6817 6.8877,0 0,3.5156 -10.4317,0 z"
       id="path23" /><path
       inkscape:connector-curvature="0"
       style="fill:#c0111e;fill-opacity:1;fill-rule:nonzero;stroke:none"
       d="m -283.18259,-432.1533 3.1748,-28.3467 3.3163,0 2.467,15.5332 2.777,-15.5332 3.118,0 3.034,28.3467 -3.515,0 -1.56,-13.8057 -2.494,13.8057 -2.835,0 -2.3239,-13.7481 -1.587,13.7481 -3.5722,0 z"
       id="path25" /><path
       inkscape:connector-curvature="0"
       style="fill:#c0111e;fill-opacity:1;fill-rule:evenodd;stroke:none"
       d="m -263.9345,-460.5 3.628,0 1.33201,7.1436 4.876,0 1.587,-7.1436 3.62899,0 -5.98199,28.3467 -3.54301,0 -5.527,-28.3467 z m 5.78201,10.6582 1.615,8.3057 1.871,-8.3057 -3.486,0 z"
       id="path27" /><path
       inkscape:connector-curvature="0"
       style="fill:#c0111e;fill-opacity:1;fill-rule:nonzero;stroke:none"
       d="m -247.5505,-432.1533 5.953,-15.4492 0,-12.8975 3.458,0 0,12.8975 5.64,15.4492 -3.769,0 -3.629,-10.0069 -3.883,10.0069 -3.77,0 z"
       id="path29" /></g></svg>