<?xml version="1.0" encoding="UTF-8" standalone="no"?>
<!-- Generator: Adobe Illustrator 15.0.0, SVG Export Plug-In . SVG Version: 6.00 Build 0)  -->

<svg
   xmlns:ns="http://ns.adobe.com/SaveForWeb/1.0/"
   xmlns:dc="http://purl.org/dc/elements/1.1/"
   xmlns:cc="http://creativecommons.org/ns#"
   xmlns:rdf="http://www.w3.org/1999/02/22-rdf-syntax-ns#"
   xmlns:svg="http://www.w3.org/2000/svg"
   xmlns="http://www.w3.org/2000/svg"
   xmlns:sodipodi="http://sodipodi.sourceforge.net/DTD/sodipodi-0.dtd"
   xmlns:inkscape="http://www.inkscape.org/namespaces/inkscape"
   version="1.1"
   id="레이어_1"
   x="0px"
   y="0px"
   width="360.62711"
   height="360.61267"
   viewBox="0 0 360.62711 360.61267"
   enable-background="new 0 0 500 500"
   xml:space="preserve"
   inkscape:version="0.48.2 r9819"
   sodipodi:docname="AJAX4.svg"><defs
   id="defs15" /><sodipodi:namedview
   pagecolor="#ffffff"
   bordercolor="#666666"
   borderopacity="1"
   objecttolerance="10"
   gridtolerance="10"
   guidetolerance="10"
   inkscape:pageopacity="0"
   inkscape:pageshadow="2"
   inkscape:window-width="1280"
   inkscape:window-height="1004"
   id="namedview13"
   showgrid="false"
   fit-margin-top="0"
   fit-margin-left="0"
   fit-margin-right="0"
   fit-margin-bottom="0"
   inkscape:zoom="1.4142136"
   inkscape:cx="206.71495"
   inkscape:cy="115.99092"
   inkscape:window-x="-8"
   inkscape:window-y="-8"
   inkscape:window-maximized="1"
   inkscape:current-layer="레이어_1" />
<metadata
   id="metadata3">
	<ns:sfw>
		<ns:slices />
		<ns:sliceSourceBounds
   height="474.5"
   width="474.5"
   y="309"
   x="9.5"
   bottomLeftOrigin="true" />
	</ns:sfw>
<rdf:RDF><cc:Work
     rdf:about=""><dc:format>image/svg+xml</dc:format><dc:type
       rdf:resource="http://purl.org/dc/dcmitype/StillImage" /><dc:title></dc:title></cc:Work></rdf:RDF></metadata>




<path
   inkscape:connector-curvature="0"
   style="fill:#ffdb00;fill-rule:nonzero;stroke:none"
   d="m 355.25255,167.32956 c 7.16625,7.1675 7.16625,18.7875 -10e-4,25.95375 l -161.964,161.95375 c -7.1675,7.1675 -18.78875,7.1675 -25.955,0 L 5.3755145,193.28331 c -7.1679626,-7.16625 -7.1667426,-18.78625 0,-25.95375 L 167.34005,5.3750599 c 7.1675,-7.16675 18.7875,-7.16675 25.955,0 L 355.25255,167.32956 z"
   id="path11" /><path
   inkscape:connector-curvature="0"
   style="fill:#000000;fill-rule:nonzero;stroke:none"
   d="m 8.1843571,189.84048 c -5.1208501,-5.12 -5.1208501,-13.42 0,-18.54 L 171.04101,8.4463562 c 5.12125,-5.119625 13.42125,-5.119625 18.54125,0 L 352.44351,171.30048 c 5.12,5.12 5.12,13.42 0,18.54 l -162.8575,162.85375 c -5.12,5.12 -13.42125,5.12 -18.54125,0 L 8.1843571,189.84048 z"
   id="path13" /><path
   inkscape:connector-curvature="0"
   style="fill:#ffdb00;fill-rule:nonzero;stroke:none"
   d="m 12.544719,184.98661 c -2.49025,-2.49125 -2.49025,-6.52875 0,-9.02 L 175.40197,13.113124 c 2.49,-2.490263 6.52875,-2.490263 9.02,0 L 347.28322,175.96661 c 2.49,2.49125 2.49,6.52875 0,9.02 l -162.8575,162.85375 c -2.49125,2.49125 -6.53,2.49125 -9.02,0 L 12.544719,184.98661 z"
   id="path15" /><path
   inkscape:connector-curvature="0"
   style="fill:#000000;fill-rule:nonzero;stroke:none"
   d="m 56.297094,153.16788 50.441996,0 c 19.90688,16.54875 45.48188,26.5175 73.38314,26.56375 28.16737,0 53.81237,-9.975 73.76487,-26.56375 l 50.4425,0 0,53.15 -248.032506,0 0,-53.15 z"
   id="path17" /></svg>