<?xml version="1.0" encoding="UTF-8" standalone="no"?>
<!-- Created with Inkscape (http://www.inkscape.org/) -->

<svg
   xmlns:dc="http://purl.org/dc/elements/1.1/"
   xmlns:cc="http://creativecommons.org/ns#"
   xmlns:rdf="http://www.w3.org/1999/02/22-rdf-syntax-ns#"
   xmlns:svg="http://www.w3.org/2000/svg"
   xmlns="http://www.w3.org/2000/svg"
   xmlns:sodipodi="http://sodipodi.sourceforge.net/DTD/sodipodi-0.dtd"
   xmlns:inkscape="http://www.inkscape.org/namespaces/inkscape"
   width="360.62756"
   height="360.61176"
   id="svg2"
   sodipodi:version="0.32"
   inkscape:version="0.48.2 r9819"
   version="1.0"
   sodipodi:docname="AJAX1.svg"
   inkscape:output_extension="org.inkscape.output.svg.inkscape">
  <defs
     id="defs4">
    <inkscape:perspective
       sodipodi:type="inkscape:persp3d"
       inkscape:vp_x="0 : 300.5 : 1"
       inkscape:vp_y="0 : 1000 : 0"
       inkscape:vp_z="601 : 300.5 : 1"
       inkscape:persp3d-origin="300.5 : 200.33333 : 1"
       id="perspective3380" />
    <inkscape:perspective
       id="perspective3990"
       inkscape:persp3d-origin="375 : 250 : 1"
       inkscape:vp_z="750 : 375 : 1"
       inkscape:vp_y="0 : 1000 : 0"
       inkscape:vp_x="0 : 375 : 1"
       sodipodi:type="inkscape:persp3d" />
  </defs>
  <sodipodi:namedview
     id="base"
     pagecolor="#ffffff"
     bordercolor="#666666"
     borderopacity="1.0"
     gridtolerance="10000"
     guidetolerance="10"
     objecttolerance="10"
     inkscape:pageopacity="0.0"
     inkscape:pageshadow="2"
     inkscape:zoom="1.0529557"
     inkscape:cx="209.60845"
     inkscape:cy="174.2996"
     inkscape:document-units="px"
     inkscape:current-layer="layer1"
     width="601px"
     height="601px"
     inkscape:window-width="1280"
     inkscape:window-height="1004"
     inkscape:window-x="-8"
     inkscape:window-y="-8"
     showgrid="false"
     fit-margin-top="0"
     fit-margin-left="0"
     fit-margin-right="0"
     fit-margin-bottom="0"
     inkscape:window-maximized="1"
     showguides="true"
     inkscape:guide-bbox="true" />
  <metadata
     id="metadata7">
    <rdf:RDF>
      <cc:Work
         rdf:about="">
        <dc:format>image/svg+xml</dc:format>
        <dc:type
           rdf:resource="http://purl.org/dc/dcmitype/StillImage" />
        <dc:title />
      </cc:Work>
    </rdf:RDF>
  </metadata>
  <g
     inkscape:label="Layer 1"
     inkscape:groupmode="layer"
     id="layer1"
     transform="translate(-108.72984,620.14844)">
    <rect
       style="color:#000000;fill:#000000;fill-opacity:1;fill-rule:nonzero;stroke:none;stroke-width:0.8735441;marker:none;visibility:visible;display:inline;overflow:visible"
       id="rect3653"
       width="0"
       height="27.202072"
       x="578.73834"
       y="298.1684"
       rx="249.48199"
       ry="27.202072" />
    <path
       style="fill:#ffdb00;fill-rule:nonzero;stroke:none"
       d="m 463.98285,-452.81888 c 7.16625,7.16625 7.16625,18.78625 -10e-4,25.9525 l -161.96375,161.955 c -7.1675,7.16625 -18.7875,7.16625 -25.955,0 l -161.95728,-161.955 c -7.16797,-7.16625 -7.16797,-18.78625 0,-25.9525 l 161.96453,-161.9545 c 7.16625,-7.16675 18.7875,-7.16675 25.955,0 l 161.9575,161.9545 z"
       id="path11"
       inkscape:connector-curvature="0" />
    <path
       style="fill:#000000;fill-rule:nonzero;stroke:none"
       d="m 116.91463,-430.30797 c -5.12085,-5.12 -5.12085,-13.42125 -0.001,-18.54 l 162.85788,-162.85412 c 5.12125,-5.11963 13.42125,-5.11963 18.54125,0 l 162.86125,162.85412 c 5.12,5.11875 5.12,13.42 0,18.54 l -162.8575,162.85375 c -5.12,5.11875 -13.42,5.11875 -18.54125,0 l -162.8604,-162.85375 z"
       id="path13"
       inkscape:connector-curvature="0" />
    <path
       style="fill:#ffdb00;fill-rule:nonzero;stroke:none"
       d="m 121.67417,-435.27047 c -2.49023,-2.49 -2.49023,-6.52875 0,-9.02 l 162.85852,-162.85356 c 2.49125,-2.49019 6.52875,-2.49019 9.01875,0 l 162.86125,162.85356 c 2.49125,2.49125 2.49125,6.53 0,9.02 l -162.8575,162.85375 c -2.49,2.49 -6.5275,2.49 -9.02,0 L 121.67417,-435.27047 z"
       id="path15"
       inkscape:connector-curvature="0" />
    <path
       style="fill:#ffffff;fill-rule:nonzero;stroke:none"
       d="m 300.65617,-299.59003 c -2.34001,3.97625 -6.66376,6.645 -11.6125,6.645 -4.9525,0 -9.2825,-2.67625 -11.62126,-6.66 l -97.22287,-164.755 c -1.217,-2.0775 -1.88475,-4.395 -1.88475,-6.8725 0,-7.43625 6.029,-13.46375 13.46438,-13.46375 l 194.52812,0 c 7.43625,0 13.465,6.0275 13.465,13.46375 0,2.47375 -0.6675,4.79125 -1.83125,6.7825 l -97.28487,164.86 z"
       id="path17"
       inkscape:connector-curvature="0" />
    <path
       style="fill:#c0111e;fill-opacity:1;fill-rule:nonzero;stroke:none"
       d="m 386.26179,-480.09628 c 4.93875,0.005 8.90375,3.97125 8.90375,8.86375 0,1.63375 -0.4425,3.165 -1.2125,4.4775 l -97.27687,164.8425 c -1.54126,2.61125 -4.38125,4.36125 -7.6325,4.36125 -3.2525,0 -6.0975,-1.75625 -7.63626,-4.3675 l -97.26375,-164.82 c -0.77762,-1.31875 -1.22187,-2.8525 -1.22187,-4.49375 0,-4.8925 3.966,-8.85875 8.85738,-8.85875 l 194.48262,-0.005 z"
       id="path19"
       inkscape:connector-curvature="0" />
    <path
       style="fill:#ffffff;fill-opacity:1;fill-rule:nonzero;stroke:none"
       d="m 205.44854,-463.44628 83.61637,141.6975 83.61238,-141.68 -167.22875,-0.0175 z"
       id="path21"
       inkscape:connector-curvature="0" />
  </g>
</svg>
