<?xml version="1.0" encoding="UTF-8" standalone="no"?>
<!-- Created with Inkscape (http://www.inkscape.org/) -->

<svg
   xmlns:dc="http://purl.org/dc/elements/1.1/"
   xmlns:cc="http://creativecommons.org/ns#"
   xmlns:rdf="http://www.w3.org/1999/02/22-rdf-syntax-ns#"
   xmlns:svg="http://www.w3.org/2000/svg"
   xmlns="http://www.w3.org/2000/svg"
   xmlns:sodipodi="http://sodipodi.sourceforge.net/DTD/sodipodi-0.dtd"
   xmlns:inkscape="http://www.inkscape.org/namespaces/inkscape"
   id="svg17624"
   version="1.1"
   inkscape:version="0.48.2 r9819"
   width="320.89844"
   height="214.60938"
   xml:space="preserve"
   sodipodi:docname="AJAX1.svg"><metadata
     id="metadata17630"><rdf:RDF><cc:Work
         rdf:about=""><dc:format>image/svg+xml</dc:format><dc:type
           rdf:resource="http://purl.org/dc/dcmitype/StillImage" /><dc:title /></cc:Work></rdf:RDF></metadata><defs
     id="defs17628"><inkscape:perspective
       sodipodi:type="inkscape:persp3d"
       inkscape:vp_x="0 : 0.5 : 1"
       inkscape:vp_y="0 : 1000 : 0"
       inkscape:vp_z="1 : 0.5 : 1"
       inkscape:persp3d-origin="0.5 : 0.33333333 : 1"
       id="perspective17632" /><clipPath
       clipPathUnits="userSpaceOnUse"
       id="clipPath17642"><path
         d="m -2,710 501,0 0,-711 -501,0 0,711 z"
         id="path17644"
         inkscape:connector-curvature="0" /></clipPath><clipPath
       clipPathUnits="userSpaceOnUse"
       id="clipPath17648"><path
         d="m 0,708.06 498,0 0,-708 -498,0 0,708 z"
         id="path17650"
         inkscape:connector-curvature="0" /></clipPath><clipPath
       clipPathUnits="userSpaceOnUse"
       id="clipPath17798"><path
         d="m -2,710 501,0 0,-711 -501,0 0,711 z"
         id="path17800"
         inkscape:connector-curvature="0" /></clipPath><clipPath
       clipPathUnits="userSpaceOnUse"
       id="clipPath17804"><path
         d="m 0,708.06 498,0 0,-708 -498,0 0,708 z"
         id="path17806"
         inkscape:connector-curvature="0" /></clipPath><clipPath
       id="Clip0"><path
         inkscape:connector-curvature="0"
         d="m 0,0 212.597,0 0,269.292 L 0,269.292 0,0 z"
         transform="translate(0.923828,0.879883)"
         id="path7" /></clipPath></defs><sodipodi:namedview
     pagecolor="#ffffff"
     bordercolor="#666666"
     borderopacity="1"
     objecttolerance="10"
     gridtolerance="10"
     guidetolerance="10"
     inkscape:pageopacity="0"
     inkscape:pageshadow="2"
     inkscape:window-width="1280"
     inkscape:window-height="1004"
     id="namedview17626"
     showgrid="false"
     inkscape:zoom="2.0022598"
     inkscape:cx="192.68197"
     inkscape:cy="118.8208"
     inkscape:window-x="-8"
     inkscape:window-y="-8"
     inkscape:window-maximized="1"
     inkscape:current-layer="g17634"
     fit-margin-top="0"
     fit-margin-left="0"
     fit-margin-right="0"
     fit-margin-bottom="0"
     showguides="true"
     inkscape:guide-bbox="true" /><g
     id="g17634"
     inkscape:groupmode="layer"
     inkscape:label="GG1999P002"
     transform="matrix(1.25,0,0,-1.25,159.64844,93.632812)"><path
       inkscape:connector-curvature="0"
       style="fill:#ffffff;fill-rule:nonzero;stroke:#000000;stroke-width:1.60000002;stroke-miterlimit:4;stroke-opacity:1;stroke-dasharray:none"
       d="m -126.9248,57.083994 c 0,9.39354 7.61425,17.0078 17.0079,17.0078 l 221.1031,0 c 9.392,0 17.008,-7.61426 17.008,-17.0078 l 0,-136.0642 c 0,-9.392 -7.616,-17.008 -17.008,-17.008 l -221.1031,0 c -9.39365,0 -17.0079,7.616 -17.0079,17.008 l 0,136.0642 z"
       id="path11" /><path
       inkscape:connector-curvature="0"
       style="fill:#c0111e;fill-opacity:1;fill-rule:nonzero;stroke:none"
       d="m -118.1377,57.08395 c 0,4.5401 3.68065,8.22074 8.22075,8.22074 l 221.10225,0 c 4.54,0 8.221,-3.68064 8.221,-8.22074 l 0,-136.06326 c 0,-4.54 -3.681,-8.219 -8.221,-8.219 l -221.10225,0 c -4.5401,0 -8.22075,3.679 -8.22075,8.219 l 0,136.06326 z"
       id="path13" /><path
       inkscape:connector-curvature="0"
       style="fill:#ffffff;fill-rule:nonzero;stroke:none"
       d="m -93.47655,45.82515 6.0381,-42.5195 6.0381,0 6.7177,26.7022 6.6758,-26.7022 6.0801,0 5.9101,42.5195 -6.7177,0 -3.2324,-22.2382 -5.5264,22.2382 -6.0381,0 -6.0381,-22.2382 -3.2314,22.2382 -6.6758,0 z"
       id="path15" /><path
       inkscape:connector-curvature="0"
       style="fill:#ffffff;fill-rule:evenodd;stroke:none"
       d="m -41.81545,39.19235 8.9297,0 c 1.3877,0 2.6211,-0.4824 3.6983,-1.4463 1.1054,-0.9638 1.6582,-2.0966 1.6582,-3.4013 0,-1.3887 -0.4815,-2.6504 -1.4454,-3.7842 -1.0488,-1.1904 -2.2675,-1.7861 -3.6562,-1.7861 l -9.1846,0 0,10.4179 z m -6.4629,6.6328 0,-42.5195 6.4629,0 0,18.6231 8.2061,0 6.8891,-18.6231 6.887,0 -7.611,20.0684 c 4.224,2.7217 6.336,6.209 6.336,10.4599 0,3.2032 -1.134,5.9961 -3.402,8.377 -2.239,2.4092 -4.9038,3.6133 -7.9937,3.6142 l -15.7744,0 z"
       id="path17" /><path
       inkscape:connector-curvature="0"
       style="fill:#ffffff;fill-rule:evenodd;stroke:none"
       d="m 2.743746,2.49805 c 5.471,0 9.44,2.3525 11.907,7.0576 1.927,3.6846 2.891,8.7022 2.891,15.0518 0,6.4355 -1.261,11.665 -3.784,15.6904 -2.665,4.251 -6.336,6.377 -11.014,6.377 -9.977,0 -14.965,-7.3555 -14.965,-22.0674 0,-7.5117 1.388,-13.1524 4.166,-16.9219 2.551,-3.459 6.151,-5.1875 10.799,-5.1875 z m 0,6.7178 c -5.554,0 -8.333,5.1308 -8.333,15.3916 0,5.3584 0.708,9.2549 2.126,11.6924 1.332,2.3251 3.402,3.4873 6.207,3.4873 5.274,0 7.91,-5.0596 7.91,-15.1797 0,-5.3858 -0.652,-9.3252 -1.956,-11.8203 -1.276,-2.3809 -3.26,-3.5713 -5.954,-3.5713 z"
       id="path19" /><path
       inkscape:connector-curvature="0"
       style="fill:#ffffff;fill-rule:nonzero;stroke:none"
       d="m 27.702746,45.82515 0,-42.5195 6.591,0 0,27.4678 16.157,-27.4678 5.698,0 0,42.5195 -6.718,0 0,-27.6806 -16.157,27.6806 -5.571,0 z"
       id="path21" /><path
       inkscape:connector-curvature="0"
       style="fill:#ffffff;fill-rule:nonzero;stroke:none"
       d="m 87.739746,34.98245 6.25,2.1259 c -1.105,2.8916 -2.805,5.2022 -5.101,6.9307 -2.297,1.7578 -4.860992,2.6358 -7.696,2.6358 -10.007,0 -15.01,-7.71 -15.01,-23.1299 0,-5.7266 1.105,-10.4746 3.316008,-14.2442 2.663992,-4.5351 6.562992,-6.8027 11.693992,-6.8027 3.571,0 6.704008,1.2744 9.396,3.8262 2.693,2.5791 4.039008,5.6269 4.039008,9.1416 l 0,8.8867 -13.818008,0 0,-6.7178 7.228,0 0,-2.7217 c 0,-1.1621 -0.652,-2.3955 -1.956,-3.6992 -1.446,-1.4736 -2.991,-2.2109 -4.633992,-2.2109 -3.034008,0 -5.301,1.5312 -6.804008,4.5918 -1.246992,2.5234 -1.869992,5.7969 -1.869992,9.8222 0,4.6211 0.381992,8.1211 1.147,10.502 1.246992,3.9404 3.642992,5.9111 7.186992,5.9111 1.587008,0 2.933,-0.4394 4.039008,-1.3183 0.879,-0.7373 1.742992,-1.9141 2.592992,-3.5293 z"
       id="path23" /><path
       inkscape:connector-curvature="0"
       style="fill:#ffffff;fill-rule:nonzero;stroke:none"
       d="m -56.62595,-25.041046 6.0381,-42.519696 6.038,0 6.7178,26.702 6.6758,-26.702 6.08,0 5.91,42.519696 -6.718,0 -3.232,-22.238696 -5.5263,22.238696 -6.0381,0 -6.0381,-22.238696 -3.2314,22.238696 -6.6758,0 z"
       id="path25" /><path
       inkscape:connector-curvature="0"
       style="fill:#ffffff;fill-rule:evenodd;stroke:none"
       d="m -2.200246,-25.041046 -14.414004,-42.477696 7.101004,0 3.912,11.991 13.605,0 4.167,-11.991 6.888992,0 -14.541992,42.477696 -6.718,0 z m 7.696,-23.683696 -8.674,0 4.251,12.671 4.423,-12.671 z"
       id="path27" /><path
       inkscape:connector-curvature="0"
       style="fill:#ffffff;fill-rule:nonzero;stroke:none"
       d="m 21.738746,-25.041046 14.924,-24.236696 0,-18.283 6.590008,0 0,18.283 14.627,24.236696 -7.824008,0 -10.247,-16.496696 -10.119,16.496696 -7.951,0 z"
       id="path29" /></g></svg>