<?xml version="1.0" encoding="UTF-8" standalone="no"?>
<!-- Created with Inkscape (http://www.inkscape.org/) -->

<svg
   xmlns:dc="http://purl.org/dc/elements/1.1/"
   xmlns:cc="http://creativecommons.org/ns#"
   xmlns:rdf="http://www.w3.org/1999/02/22-rdf-syntax-ns#"
   xmlns:svg="http://www.w3.org/2000/svg"
   xmlns="http://www.w3.org/2000/svg"
   xmlns:sodipodi="http://sodipodi.sourceforge.net/DTD/sodipodi-0.dtd"
   xmlns:inkscape="http://www.inkscape.org/namespaces/inkscape"
   width="214.59375"
   height="257.09375"
   id="svg2"
   sodipodi:version="0.32"
   inkscape:version="0.48.2 r9819"
   version="1.0"
   sodipodi:docname="AJAX1.svg"
   inkscape:output_extension="org.inkscape.output.svg.inkscape">
  <defs
     id="defs4">
    <inkscape:perspective
       sodipodi:type="inkscape:persp3d"
       inkscape:vp_x="0 : 300.5 : 1"
       inkscape:vp_y="0 : 1000 : 0"
       inkscape:vp_z="601 : 300.5 : 1"
       inkscape:persp3d-origin="300.5 : 200.33333 : 1"
       id="perspective3380" />
    <inkscape:perspective
       id="perspective3990"
       inkscape:persp3d-origin="375 : 250 : 1"
       inkscape:vp_z="750 : 375 : 1"
       inkscape:vp_y="0 : 1000 : 0"
       inkscape:vp_x="0 : 375 : 1"
       sodipodi:type="inkscape:persp3d" />
  </defs>
  <sodipodi:namedview
     id="base"
     pagecolor="#ffffff"
     bordercolor="#666666"
     borderopacity="1.0"
     gridtolerance="10000"
     guidetolerance="10"
     objecttolerance="10"
     inkscape:pageopacity="0.0"
     inkscape:pageshadow="2"
     inkscape:zoom="1.2866667"
     inkscape:cx="191.23805"
     inkscape:cy="127.03792"
     inkscape:document-units="px"
     inkscape:current-layer="layer1"
     width="601px"
     height="601px"
     inkscape:window-width="1280"
     inkscape:window-height="1004"
     inkscape:window-x="-8"
     inkscape:window-y="-8"
     showgrid="false"
     fit-margin-top="0.25"
     fit-margin-left="0.25"
     fit-margin-right="0.25"
     fit-margin-bottom="0.25"
     inkscape:window-maximized="1" />
  <metadata
     id="metadata7">
    <rdf:RDF>
      <cc:Work
         rdf:about="">
        <dc:format>image/svg+xml</dc:format>
        <dc:type
           rdf:resource="http://purl.org/dc/dcmitype/StillImage" />
        <dc:title />
      </cc:Work>
    </rdf:RDF>
  </metadata>
  <g
     inkscape:label="Layer 1"
     inkscape:groupmode="layer"
     id="layer1"
     transform="translate(-72.34375,-321.03125)">
    <rect
       style="color:#000000;fill:#000000;fill-opacity:1;fill-rule:nonzero;stroke:none;stroke-width:0.8735441;marker:none;visibility:visible;display:inline;overflow:visible"
       id="rect3653"
       width="0"
       height="27.202072"
       x="578.73834"
       y="298.1684"
       rx="249.48199"
       ry="27.202072" />
    <path
       inkscape:connector-curvature="0"
       style="fill:#ffffff;fill-rule:nonzero;stroke:#000000;stroke-width:1.5;stroke-miterlimit:4;stroke-opacity:1;stroke-dasharray:none"
       d="m 73.331085,336.19024 c 0,-7.82842 6.345213,-14.17363 14.172375,-14.17363 l 184.25137,0 c 7.8275,0 14.17375,6.34521 14.17375,14.17363 l 0,226.77137 c 0,7.8275 -6.34625,14.17375 -14.17375,14.17375 l -184.25137,0 c -7.827162,0 -14.172375,-6.34625 -14.172375,-14.17375 l 0,-226.77137 z"
       id="path11" />
    <path
       inkscape:connector-curvature="0"
       style="fill:#0069b3;fill-rule:nonzero;stroke:none"
       d="m 82.543734,336.18895 c 0,-2.73924 2.220462,-4.95969 4.959687,-4.95969 l 184.251559,0 c 2.74,0 4.96125,2.22045 4.96125,4.95969 l 0,226.77281 c 0,2.73875 -2.22125,4.96125 -4.96125,4.96125 l -184.251559,0 c -2.739225,0 -4.959687,-2.2225 -4.959687,-4.96125 l 0,-226.77281 z"
       id="path13" />
    <path
       inkscape:connector-curvature="0"
       style="fill:#ffffff;fill-rule:evenodd;stroke:none"
       d="m 151.28392,341.38058 0,70.86675 12.4,0 0,-27.70875 23.74012,0 c 5.81188,0 10.72513,-2.33888 14.74013,-7.01538 3.875,-4.53487 5.81125,-9.77899 5.81125,-15.73237 0,-5.43338 -2.33875,-10.22838 -7.01625,-14.386 -4.58238,-4.01613 -9.66175,-6.023 -15.2355,-6.02425 l -34.43975,0 z m 11.7615,12.33162 22.2535,0 c 2.788,0 5.14887,0.80326 7.08613,2.40963 2.12525,1.748 3.18975,4.0625 3.18975,6.94462 0,3.02363 -0.8985,5.36125 -2.69413,7.01663 -1.7945,1.60513 -4.17975,2.40838 -7.157,2.40838 l -22.67825,0 0,-18.77925 z"
       id="path15" />
    <path
       inkscape:connector-curvature="0"
       style="fill:#ffffff;fill-rule:nonzero;stroke:none"
       d="m 104.86792,517.1292 0,-3.8625 -7.426749,0 0,-20.8 -3.374,0 0,24.6625 10.800749,0 z"
       id="path17" />
    <path
       inkscape:connector-curvature="0"
       style="fill:#ffffff;fill-rule:evenodd;stroke:none"
       d="m 120.28792,508.3417 c 0,-5.5275 -2.8065,-9.355 -6.94588,-9.355 -3.93912,0 -6.57587,3.75625 -6.57587,9.355 0,5.49125 2.77825,9.2825 6.803,9.2825 3.96963,0 6.71875,-3.82625 6.71875,-9.2825 z m -3.2325,-0.0712 c 0,3.40125 -1.47337,5.66875 -3.59988,5.66875 -2.18262,0 -3.62787,-2.2675 -3.62787,-5.66875 0,-3.33 1.47462,-5.66875 3.65725,-5.66875 2.1545,0 3.5705,2.2675 3.5705,5.66875 z"
       id="path19" />
    <path
       inkscape:connector-curvature="0"
       style="fill:#ffffff;fill-rule:evenodd;stroke:none"
       d="m 136.38892,514.6842 c -1.361,-0.71 -1.50262,-1.09875 -1.50262,-3.50875 l 0,-6.48375 c 0,-2.09 -0.199,-2.90625 -0.93513,-3.89875 -0.85075,-1.1325 -2.43775,-1.77125 -4.3945,-1.77125 -1.95563,0 -3.9685,0.6025 -5.896,1.8075 l 1.24763,3.0125 c 1.98362,-1.06375 2.976,-1.3825 4.33712,-1.3825 1.81388,0 2.57937,0.85 2.60737,2.835 l 0,0.56625 c -2.38162,0.28375 -3.20312,0.42625 -4.13812,0.63875 -3.0335,0.74375 -4.47875,2.3725 -4.47875,5.20875 0,3.33 2.32412,5.88125 5.38575,5.88125 1.61488,0 2.89175,-0.74375 3.82687,-2.1975 0.28313,1.205 1.10476,1.95 2.43776,2.1975 l 1.50262,-2.905 z m -4.53612,-3.155 c 0,1.02875 -0.14163,1.41875 -0.53825,1.87875 -0.53838,0.6025 -1.47463,0.9925 -2.21075,0.9925 -1.4465,0 -2.63675,-1.16875 -2.63675,-2.62125 0,-1.205 0.62375,-1.915 2.013,-2.30375 0.935,-0.28375 1.67237,-0.39125 3.37275,-0.60375 l 0,2.6575 z"
       id="path21" />
    <path
       inkscape:connector-curvature="0"
       style="fill:#ffffff;fill-rule:evenodd;stroke:none"
       d="m 152.09204,517.1292 0,-24.52 -3.00537,0 0,8.18375 c -1.16213,-1.2025 -2.23875,-1.735 -3.684,-1.735 -3.65725,0 -6.2085,3.75625 -6.2085,9.1775 0,5.42 2.60862,9.31875 6.29262,9.31875 1.41726,0 2.63675,-0.60375 3.59988,-1.8075 l 0,1.3825 3.00537,0 z m -3.03337,-8.57625 c 0,1.48875 -0.0855,2.41 -0.28325,3.0475 -0.426,1.3475 -1.64425,2.33875 -2.97613,2.33875 -2.09712,0 -3.45825,-2.19625 -3.45825,-5.5975 0,-3.4725 1.36113,-5.67 3.5425,-5.67 1.333,0 2.60863,1.02875 2.94925,2.41 0.16963,0.6725 0.22588,1.59375 0.22588,3.47125 z"
       id="path23" />
    <path
       inkscape:connector-curvature="0"
       style="fill:#ffffff;fill-rule:evenodd;stroke:none"
       d="m 160.31229,494.8417 c 0,-1.24 -0.87887,-2.375 -1.87137,-2.375 -1.10588,0 -1.98363,1.09875 -1.98363,2.375 0,1.34625 0.87775,2.40875 1.95563,2.40875 1.0205,0 1.89937,-1.0625 1.89937,-2.40875 z m -0.39675,22.2875 0,-17.68625 -3.0615,0 0,17.68625 3.0615,0 z"
       id="path25" />
    <path
       inkscape:connector-curvature="0"
       style="fill:#ffffff;fill-rule:evenodd;stroke:none"
       d="m 175.98729,517.1292 0,-10.8425 c 0,-2.6575 -0.19887,-3.8975 -0.907,-5.0675 -0.85075,-1.3825 -2.268,-2.1975 -3.9685,-2.1975 -1.38912,0 -2.268,0.39 -3.59975,1.73625 l 0,-1.34625 -3.00537,0 0,17.7175 3.00537,0 0,-10.02875 c 0,-1.5225 0.19775,-2.445 0.708,-3.1525 0.51025,-0.71 1.4465,-1.17 2.24,-1.17 0.8215,0 1.64425,0.46 2.01163,1.17 0.34062,0.6375 0.45412,1.4175 0.45412,3.1175 l 0,10.06375 3.0615,0 z"
       id="path27" />
    <path
       inkscape:connector-curvature="0"
       style="fill:#ffffff;fill-rule:evenodd;stroke:none"
       d="m 192.2288,514.29295 0,-14.88125 -3.06025,0 0,1.31125 c -1.02063,-1.1325 -2.12651,-1.665 -3.48638,-1.665 -3.40213,0 -5.92525,3.54375 -5.92525,8.32625 0,4.925 2.46575,8.2925 6.03875,8.2925 1.33175,0 2.46462,-0.46125 3.37287,-1.38375 l 0,1.0275 c 0,1.38375 -0.0574,1.87875 -0.2845,2.41 -0.45287,0.9925 -1.55887,1.63 -3.00412,1.63 -1.24763,0 -2.57938,-0.425 -4.33713,-1.34625 l -1.16212,3.29625 c 1.814,1.1325 3.91237,1.735 5.98137,1.735 2.522,0 4.16625,-0.815 5.13063,-2.58625 0.68,-1.27625 0.73612,-1.665 0.73612,-6.16625 z m -3.06025,-6.8025 c 0,2.94125 -1.04863,4.465 -3.0335,4.465 -1.92751,0 -3.14576,-1.7375 -3.14576,-4.53625 0,-2.7275 1.33175,-4.64125 3.20188,-4.64125 0.85087,0 1.70162,0.46 2.21187,1.27625 0.53838,0.77875 0.76551,1.77125 0.76551,3.43625 z"
       id="path29" />
    <path
       inkscape:connector-curvature="0"
       style="fill:#ffffff;fill-rule:nonzero;stroke:none"
       d="m 217.08917,517.1292 0,-3.8975 -9.92125,0 9.83625,-17.115 0,-3.79125 -13.3225,0 0,3.96875 9.32625,0 -9.80875,16.9375 0,3.8975 13.89,0 z"
       id="path31" />
    <path
       inkscape:connector-curvature="0"
       style="fill:#ffffff;fill-rule:evenodd;stroke:none"
       d="m 233.24667,508.3417 c 0,-5.5275 -2.8075,-9.355 -6.945,-9.355 -3.94,0 -6.57625,3.75625 -6.57625,9.355 0,5.49125 2.77625,9.2825 6.8025,9.2825 3.96875,0 6.71875,-3.82625 6.71875,-9.2825 z m -3.2325,-0.0712 c 0,3.40125 -1.4725,5.66875 -3.6,5.66875 -2.1825,0 -3.6275,-2.2675 -3.6275,-5.66875 0,-3.33 1.47375,-5.66875 3.65625,-5.66875 2.15375,0 3.57125,2.2675 3.57125,5.66875 z"
       id="path33" />
    <path
       inkscape:connector-curvature="0"
       style="fill:#ffffff;fill-rule:evenodd;stroke:none"
       d="m 248.69542,517.1292 0,-10.8425 c 0,-2.6575 -0.19875,-3.8975 -0.9075,-5.0675 -0.85125,-1.3825 -2.2675,-2.1975 -3.96875,-2.1975 -1.38875,0 -2.2675,0.39 -3.6,1.73625 l 0,-1.34625 -3.005,0 0,17.7175 3.005,0 0,-10.02875 c 0,-1.5225 0.1975,-2.445 0.70875,-3.1525 0.51,-0.71 1.44625,-1.17 2.24,-1.17 0.82125,0 1.64375,0.46 2.0125,1.17 0.34,0.6375 0.4525,1.4175 0.4525,3.1175 l 0,10.06375 3.0625,0 z"
       id="path35" />
    <path
       inkscape:connector-curvature="0"
       style="fill:#ffffff;fill-rule:evenodd;stroke:none"
       d="m 265.19292,509.68795 0,-0.77875 c 0,-6.16625 -2.4375,-9.8875 -6.4925,-9.8875 -3.82625,0 -6.3775,3.68625 -6.3775,9.1425 0,5.5625 2.63625,9.425 6.74625,9.425 2.1275,0 4.13875,-0.81375 5.38625,-3.72125 l -2.23875,-2.3725 c -1.16375,2.125 -1.87125,2.40875 -3.11875,2.40875 -2.04125,0 -3.345,-1.595 -3.5725,-4.21625 l 9.6675,0 z m -3.2325,-2.97625 -6.435,0 c 0.0863,-1.06375 0.2,-1.55875 0.455,-2.12625 0.59375,-1.27625 1.64375,-2.055 2.80625,-2.055 1.84125,0 3.08875,1.63 3.17375,4.18125 z"
       id="path37" />
    <path
       inkscape:connector-curvature="0"
       style="fill:#ffffff;fill-rule:nonzero;stroke:none"
       d="m 234.90505,536.5117 0,7.08625 -126.143,0 0,7.08625 126.143,0 0,7.085 15.59074,-10.6275 -15.59074,-10.63 z"
       id="path39" />
    <path
       inkscape:connector-curvature="0"
       style="fill:#ffffff;fill-rule:nonzero;stroke:none"
       d="m 167.29954,425.7117 -1.27562,27.265 6.80175,0.9575 c 1.48812,-2.16125 3.57912,-3.2425 6.27325,-3.2425 5.06587,0.0362 7.58175,3.455 7.54637,10.2575 0,2.9075 -0.79712,5.405 -2.39137,7.495 -1.914,2.55125 -4.60687,3.86125 -8.07988,3.9325 -1.70037,0.0362 -3.6315,-0.74375 -5.79212,-2.3375 l -5.36875,5.10125 c 3.9685,3.15375 7.99075,4.73 12.0655,4.73 4.99625,0 9.17725,-2.1075 12.54275,-6.32375 3.0835,-3.89875 4.624,-8.3275 4.624,-13.2875 0,-4.81875 -1.31113,-8.805 -3.93313,-11.96 -2.79912,-3.29425 -6.46612,-4.94225 -11.001,-4.94225 -1.80787,0 -3.52662,0.24775 -5.15625,0.74463 l 0.4785,-10.78975 17.32675,0 0,-7.60013 -24.66075,0 z"
       id="path41" />
  </g>
</svg>
