<?xml version="1.0" encoding="UTF-8" standalone="no"?>
<!-- Generator: Adobe Illustrator 12.0.1, SVG Export Plug-In  -->

<svg
   xmlns:dc="http://purl.org/dc/elements/1.1/"
   xmlns:cc="http://creativecommons.org/ns#"
   xmlns:rdf="http://www.w3.org/1999/02/22-rdf-syntax-ns#"
   xmlns:svg="http://www.w3.org/2000/svg"
   xmlns="http://www.w3.org/2000/svg"
   xmlns:sodipodi="http://sodipodi.sourceforge.net/DTD/sodipodi-0.dtd"
   xmlns:inkscape="http://www.inkscape.org/namespaces/inkscape"
   version="1.1"
   width="214.60156"
   height="257.10156"
   viewBox="0 0 214.60158 257.10159"
   enable-background="new 0 0 288 288"
   xml:space="preserve"
   id="svg2"
   inkscape:version="0.48.2 r9819"
   sodipodi:docname="AJAX1.svg"><metadata
   id="metadata72"><rdf:RDF><cc:Work
       rdf:about=""><dc:format>image/svg+xml</dc:format><dc:type
         rdf:resource="http://purl.org/dc/dcmitype/StillImage" /><dc:title /></cc:Work></rdf:RDF></metadata><sodipodi:namedview
   pagecolor="#ffffff"
   bordercolor="#666666"
   borderopacity="1"
   objecttolerance="10"
   gridtolerance="10"
   guidetolerance="10"
   inkscape:pageopacity="0"
   inkscape:pageshadow="2"
   inkscape:window-width="1280"
   inkscape:window-height="1004"
   id="namedview70"
   showgrid="false"
   fit-margin-top="0.25"
   fit-margin-left="0.25"
   fit-margin-right="0.25"
   fit-margin-bottom="0.25"
   inkscape:zoom="1.1588694"
   inkscape:cx="79.353284"
   inkscape:cy="115.43264"
   inkscape:window-x="-8"
   inkscape:window-y="-8"
   inkscape:window-maximized="1"
   inkscape:current-layer="Group1" />
<defs
   id="defs4">
<clipPath
   id="Clip0"><path
     inkscape:connector-curvature="0"
     d="m 0,0 425.197,0 0,340.157 L 0,340.157 0,0 z"
     transform="translate(0.474609,0.964844)"
     id="path7" /></clipPath><clipPath
   id="Clip0-1"><path
     inkscape:connector-curvature="0"
     d="m 0,0 269.291,0 0,141.733 L 0,141.733 0,0 z"
     transform="translate(0.0644531,0.324219)"
     id="path7-7" /></clipPath><clipPath
   id="Clip0-17"><path
     inkscape:connector-curvature="0"
     d="m 0,0 269.291,0 0,141.732 L 0,141.732 0,0 z"
     transform="translate(0.727539,0.548828)"
     id="path7-4" /></clipPath><clipPath
   id="Clip0-174"><path
     inkscape:connector-curvature="0"
     d="m 0,0 340.158,0 0,340.158 L 0,340.158 0,0 z"
     transform="translate(0.630859,0.112305)"
     id="path7-0" /></clipPath><clipPath
   id="Clip0-1740"><path
     inkscape:connector-curvature="0"
     d="m 0,0 269.291,0 0,85.04 L 0,85.04 0,0 z"
     transform="translate(0.40332,0.554688)"
     id="path7-9" /></clipPath></defs>
































<g
   transform="matrix(1.2500001,0,0,1.2500001,-1.0781278,-168.89064)"
   id="Background"
   style="fill:#000000"><g
     id="Group1"
     clip-path="url(#Clip0-174)"
     style="fill:#000000"><path
       inkscape:connector-curvature="0"
       style="fill:#ffffff;fill-rule:nonzero;stroke:#000000;stroke-width:1.20000005;stroke-miterlimit:4;stroke-opacity:1;stroke-dasharray:none"
       d="m 1.675781,147.25003 c 0,-6.26273 5.07617,-11.3389 11.3379,-11.3389 l 147.402099,0 c 6.261,0 11.338,5.07617 11.338,11.3389 l 0,181.4171 c 0,6.262 -5.077,11.339 -11.338,11.339 l -147.402099,0 c -6.26173,0 -11.3379,-5.077 -11.3379,-11.339 l 0,-181.4171 z"
       id="path11" /><path
       inkscape:connector-curvature="0"
       style="fill:#0069b3;fill-rule:nonzero;stroke:none"
       d="m 9.6132804,147.24999 c 0,-1.8789 1.5224696,-3.40234 3.4013696,-3.40234 l 147.40163,0 c 1.879,0 3.402,1.52344 3.402,3.40234 l 0,181.41666 c 0,1.879 -1.523,3.401 -3.402,3.401 l -147.40163,0 c -1.8789,0 -3.4013696,-1.522 -3.4013696,-3.401 l 0,-181.41666 z"
       id="path13" /><path
       inkscape:connector-curvature="0"
       style="fill:#ffffff;fill-rule:evenodd;stroke:none"
       d="m 64.03805,152.72069 0,56.6924 9.92,0 0,-22.166 18.9931,0 c 4.6485,0 8.5791,-1.8711 11.7911,-5.6123 3.1,-3.6289 4.649,-7.8243 4.649,-12.586 0,-4.3476 -1.87,-8.1826 -5.613,-11.5088 -3.6659,-3.2129 -7.7294,-4.8183 -12.1884,-4.8193 l -27.5518,0 z m 9.4102,9.8652 17.8018,0 c 2.2304,0 4.1191,0.6426 5.6689,1.9268 1.7002,1.3994 2.5518,3.25 2.5518,5.5566 0,2.419 -0.7188,4.2891 -2.1553,5.6123 -1.4356,1.2852 -3.3438,1.9278 -5.7256,1.9278 l -18.1416,0 0,-15.0235 z"
       id="path15" /><path
       inkscape:connector-curvature="0"
       style="fill:#ffffff;fill-rule:nonzero;stroke:none"
       d="m 58.93555,252.26399 c 0,3.544 1.1758,6.421 3.5283,8.632 2.2676,2.097 5.0879,3.146 8.4619,3.146 3.3164,0 6.0655,-1.275 8.2491,-3.827 2.0976,-2.438 3.1455,-5.413 3.1455,-8.929 0,-2.296 -0.4678,-4.478 -1.4024,-6.548 -0.9931,-2.212 -2.2539,-3.614 -3.7842,-4.21 2.6924,-2.239 4.0391,-5.7106 4.0391,-10.4167 0,-2.6933 -1.0771,-5.0742 -3.2314,-7.1435 -2.126,-2.0694 -4.4649,-3.1035 -7.0157,-3.1035 -2.58,0 -4.9043,0.8076 -6.9736,2.4228 -2.4092,1.8428 -3.6143,4.2383 -3.6143,7.1865 l 5.6553,0.7227 c 0,-1.0488 0.5391,-2.0264 1.6162,-2.9336 1.0762,-0.9072 2.1114,-1.3604 3.1035,-1.3604 1.0489,0 2.0411,0.4248 2.9756,1.2754 1.0215,0.9356 1.5313,2.0411 1.5313,3.3164 0,1.6153 -0.4112,3.1602 -1.2334,4.6349 -0.9063,1.587 -1.9551,2.381 -3.1455,2.381 l -2.5088,0 0,5.995 3.6142,0 c 1.7852,0 3.0323,1.02 3.7413,3.061 0.3691,1.134 0.5957,2.821 0.6806,5.06 0.0567,1.786 -0.4678,3.303 -1.5732,4.55 -1.1065,1.247 -2.4239,1.871 -3.9541,1.871 -3.9121,0 -5.8682,-1.928 -5.8682,-5.783 l -6.0371,0 z"
       id="path17" /><path
       inkscape:connector-curvature="0"
       style="fill:#ffffff;fill-rule:evenodd;stroke:none"
       d="m 102.34625,263.99899 c 4.366,0 7.555,-1.898 9.568,-5.697 1.871,-3.543 2.805,-8.987 2.805,-16.328 0,-14.7396 -4.152,-22.1097 -12.458,-22.1097 -8.1626,0 -12.2446,7.3701 -12.2446,22.1097 0,14.683 4.1103,22.025 12.3296,22.025 z m 0,-5.909 c -4.2789,0 -6.4195,-5.372 -6.4195,-16.116 0,-10.7426 2.126,-16.1146 6.3775,-16.1146 2.183,0 3.841,1.5732 4.975,4.7197 1.021,2.8057 1.53,6.6049 1.53,11.3949 0,10.744 -2.154,16.116 -6.463,16.116 z"
       id="path19" /><path
       inkscape:connector-curvature="0"
       style="fill:#ffffff;fill-rule:nonzero;stroke:none"
       d="m 44.61525,305.98998 0,5.669 98.7922,0 0,5.669 -98.7922,0 0,5.67 -14.5938,-8.504 14.5938,-8.504 z"
       id="path21" /><path
       inkscape:connector-curvature="0"
       style="fill:#ffffff;fill-rule:nonzero;stroke:none"
       d="m 57.37595,294.45198 0,-19.842 -3.8828,0 -5.6123,7.399 -5.6982,-7.399 -3.9395,0 0,19.842 3.3447,0 0,-15.278 6.293,8.164 6.0938,-7.938 0,15.052 3.4013,0 z"
       id="path23" /><path
       inkscape:connector-curvature="0"
       style="fill:#ffffff;fill-rule:evenodd;stroke:none"
       d="m 75.32035,287.42298 c 0,-4.423 -2.8067,-7.484 -6.9453,-7.484 -3.9405,0 -6.5762,3.004 -6.5762,7.484 0,4.393 2.7773,7.427 6.8027,7.427 3.9688,0 6.7188,-3.062 6.7188,-7.427 z m -3.2325,-0.057 c 0,2.721 -1.4736,4.535 -3.5996,4.535 -2.1826,0 -3.6279,-1.814 -3.6279,-4.535 0,-2.665 1.4736,-4.536 3.6563,-4.536 2.1542,0 3.5712,1.815 3.5712,4.536 z"
       id="path25" /><path
       inkscape:connector-curvature="0"
       style="fill:#ffffff;fill-rule:evenodd;stroke:none"
       d="m 90.76855,294.45198 0,-8.674 c 0,-2.126 -0.1982,-3.118 -0.9072,-4.053 -0.8506,-1.106 -2.2676,-1.757 -3.9688,-1.757 -1.3886,0 -2.2675,0.311 -3.5996,1.388 l 0,-1.077 -3.0049,0 0,14.173 3.0049,0 0,-8.021 c 0,-1.219 0.1983,-1.956 0.709,-2.523 0.5098,-0.567 1.4453,-0.935 2.2393,-0.935 0.8213,0 1.6435,0.368 2.0117,0.935 0.3408,0.51 0.4541,1.134 0.4541,2.494 l 0,8.05 3.0615,0 z"
       id="path27" /><path
       inkscape:connector-curvature="0"
       style="fill:#ffffff;fill-rule:nonzero;stroke:none"
       d="m 100.23535,287.05398 0,-2.664 -5.8955,0 0,2.664 5.8955,0 z"
       id="path29" /><path
       inkscape:connector-curvature="0"
       style="fill:#ffffff;fill-rule:nonzero;stroke:none"
       d="m 118.74525,277.75698 0,-3.147 -12.557,0 0,19.842 3.373,0 0,-8.474 8.448,0 0,-3.119 -8.448,0 0,-5.102 9.184,0 z"
       id="path31" /><path
       inkscape:connector-curvature="0"
       style="fill:#ffffff;fill-rule:evenodd;stroke:none"
       d="m 128.89325,283.19898 0,-3.09 c -0.312,-0.028 -0.539,-0.028 -0.68,-0.028 -1.673,0 -2.779,0.51 -3.855,1.843 l 0,-1.645 -2.977,0 0,14.173 3.004,0 0,-6.576 c 0,-2.154 0.426,-3.288 1.418,-3.997 0.737,-0.453 1.474,-0.651 3.09,-0.68 z"
       id="path33" /><path
       inkscape:connector-curvature="0"
       style="fill:#ffffff;fill-rule:evenodd;stroke:none"
       d="m 135.18525,276.62298 c 0,-0.992 -0.879,-1.899 -1.871,-1.899 -1.105,0 -1.983,0.879 -1.983,1.899 0,1.077 0.878,1.927 1.956,1.927 1.019,0 1.898,-0.85 1.898,-1.927 z m -0.396,17.829 0,-14.147 -3.062,0 0,14.147 3.062,0 z"
       id="path35" /></g></g></svg>