<?xml version="1.0" encoding="UTF-8" standalone="no"?>
<!-- Created with Inkscape (http://www.inkscape.org/) -->

<svg
   xmlns:dc="http://purl.org/dc/elements/1.1/"
   xmlns:cc="http://creativecommons.org/ns#"
   xmlns:rdf="http://www.w3.org/1999/02/22-rdf-syntax-ns#"
   xmlns:svg="http://www.w3.org/2000/svg"
   xmlns="http://www.w3.org/2000/svg"
   xmlns:sodipodi="http://sodipodi.sourceforge.net/DTD/sodipodi-0.dtd"
   xmlns:inkscape="http://www.inkscape.org/namespaces/inkscape"
   width="360.6268"
   height="360.61145"
   id="svg2"
   sodipodi:version="0.32"
   inkscape:version="0.48.2 r9819"
   version="1.0"
   sodipodi:docname="AJAX.svg"
   inkscape:output_extension="org.inkscape.output.svg.inkscape">
  <defs
     id="defs4">
    <inkscape:perspective
       sodipodi:type="inkscape:persp3d"
       inkscape:vp_x="0 : 300.5 : 1"
       inkscape:vp_y="0 : 1000 : 0"
       inkscape:vp_z="601 : 300.5 : 1"
       inkscape:persp3d-origin="300.5 : 200.33333 : 1"
       id="perspective3380" />
    <inkscape:perspective
       id="perspective3990"
       inkscape:persp3d-origin="375 : 250 : 1"
       inkscape:vp_z="750 : 375 : 1"
       inkscape:vp_y="0 : 1000 : 0"
       inkscape:vp_x="0 : 375 : 1"
       sodipodi:type="inkscape:persp3d" />
  </defs>
  <sodipodi:namedview
     id="base"
     pagecolor="#ffffff"
     bordercolor="#666666"
     borderopacity="1.0"
     gridtolerance="10000"
     guidetolerance="10"
     objecttolerance="10"
     inkscape:pageopacity="0.0"
     inkscape:pageshadow="2"
     inkscape:zoom="1.0529557"
     inkscape:cx="238.08631"
     inkscape:cy="128.88663"
     inkscape:document-units="px"
     inkscape:current-layer="layer1"
     width="601px"
     height="601px"
     inkscape:window-width="1280"
     inkscape:window-height="1004"
     inkscape:window-x="-8"
     inkscape:window-y="-8"
     showgrid="false"
     fit-margin-top="0"
     fit-margin-left="0"
     fit-margin-right="0"
     fit-margin-bottom="0"
     inkscape:window-maximized="1"
     showguides="true"
     inkscape:guide-bbox="true" />
  <metadata
     id="metadata7">
    <rdf:RDF>
      <cc:Work
         rdf:about="">
        <dc:format>image/svg+xml</dc:format>
        <dc:type
           rdf:resource="http://purl.org/dc/dcmitype/StillImage" />
      </cc:Work>
    </rdf:RDF>
  </metadata>
  <g
     inkscape:label="Layer 1"
     inkscape:groupmode="layer"
     id="layer1"
     transform="translate(303.5053,260.58607)">
    <rect
       style="color:#000000;fill:#000000;fill-opacity:1;fill-rule:nonzero;stroke:none;stroke-width:0.8735441;marker:none;visibility:visible;display:inline;overflow:visible"
       id="rect3653"
       width="0"
       height="27.202072"
       x="578.73834"
       y="298.1684"
       rx="249.48199"
       ry="27.202072" />
    <path
       inkscape:connector-curvature="0"
       style="fill:#ffdb00;fill-rule:nonzero;stroke:none"
       d="m 51.746001,-93.25776 c 7.1675,7.1675 7.1675,18.7875 -10e-4,25.955 L -110.2175,94.64974 c -7.1675,7.1675 -18.78875,7.1675 -25.95625,0 l -161.95604,-161.9525 c -7.16796,-7.1675 -7.16674,-18.7875 0,-25.955 l 161.96329,-161.95325 c 7.16875,-7.16675 18.78875,-7.16675 25.95625,0 L 51.746001,-93.25776 z"
       id="path11" />
    <path
       inkscape:connector-curvature="0"
       style="fill:#000000;fill-rule:nonzero;stroke:none"
       d="m -295.32094,-70.746821 c -5.11964,-5.12 -5.11964,-13.42125 0,-18.54 l 162.85661,-162.854109 c 5.12125,-5.11964 13.4225,-5.11964 18.54125,0 L 48.938174,-89.286821 c 5.12,5.11875 5.12,13.42 0,18.54 L -113.91933,92.106929 c -5.11875,5.12125 -13.42,5.12125 -18.54,0 l -162.86161,-162.85375 z"
       id="path13" />
    <path
       inkscape:connector-curvature="0"
       style="fill:#ffdb00;fill-rule:nonzero;stroke:none"
       d="m -290.56022,-75.708061 c -2.49144,-2.49125 -2.49144,-6.53 0,-9.02 l 162.85606,-162.853589 c 2.49125,-2.49141 6.53,-2.49141 9.02,0 L 44.177087,-84.728061 c 2.49125,2.49 2.49125,6.52875 0,9.02 l -162.857497,162.8525 c -2.49125,2.49125 -6.52875,2.49125 -9.02,0 l -162.85981,-162.8525 z"
       id="path15" />
    <path
       inkscape:connector-curvature="0"
       style="fill:#000000;fill-rule:nonzero;stroke:none"
       d="m -47.25735,-102.98278 9.02625,-15.58125 c 1.89125,-3.425 6.20125,-4.67 9.62625,-2.77875 2.1525,1.1875 3.44375,3.32375 3.63625,5.60375 l 8.075,79.186249 -75.43,-25.41625 c -2.18,-0.69375 -3.9775,-2.425 -4.65875,-4.7875 -1.085,-3.75875 1.0825,-7.686249 4.8425,-8.771249 l 17.1925,-5.35 -38.79875,-48.56 27.69,-22.10625 38.79875,48.56125 z"
       id="path17" />
    <path
       inkscape:connector-curvature="0"
       style="fill:#000000;fill-rule:nonzero;stroke:none"
       d="m -199.12585,-102.98278 -9.02713,-15.58125 c -1.89087,-3.425 -6.2,-4.67 -9.62525,-2.77875 -2.15337,1.1875 -3.44362,3.32375 -3.6365,5.60375 l -8.07612,79.186249 75.43225,-25.41625 c 2.17875,-0.69375 3.97625,-2.425 4.6575,-4.7875 1.08625,-3.75875 -1.0825,-7.686249 -4.8425,-8.771249 l -17.19125,-5.35 38.79875,-48.56 -27.69125,-22.10625 -38.7985,48.56125 z"
       id="path19" />
  </g>
</svg>
