<?xml version="1.0" encoding="UTF-8" standalone="no"?>
<!-- Created with Inkscape (http://www.inkscape.org/) -->

<svg
   xmlns:dc="http://purl.org/dc/elements/1.1/"
   xmlns:cc="http://creativecommons.org/ns#"
   xmlns:rdf="http://www.w3.org/1999/02/22-rdf-syntax-ns#"
   xmlns:svg="http://www.w3.org/2000/svg"
   xmlns="http://www.w3.org/2000/svg"
   xmlns:sodipodi="http://sodipodi.sourceforge.net/DTD/sodipodi-0.dtd"
   xmlns:inkscape="http://www.inkscape.org/namespaces/inkscape"
   id="svg17624"
   version="1.1"
   inkscape:version="0.48.4 r9939"
   width="200.2"
   height="200.2"
   xml:space="preserve"
   sodipodi:docname="AJAX1.svg"><metadata
     id="metadata17630"><rdf:RDF><cc:Work
         rdf:about=""><dc:format>image/svg+xml</dc:format><dc:type
           rdf:resource="http://purl.org/dc/dcmitype/StillImage" /><dc:title /></cc:Work></rdf:RDF></metadata><defs
     id="defs17628"><inkscape:perspective
       sodipodi:type="inkscape:persp3d"
       inkscape:vp_x="0 : 0.5 : 1"
       inkscape:vp_y="0 : 1000 : 0"
       inkscape:vp_z="1 : 0.5 : 1"
       inkscape:persp3d-origin="0.5 : 0.33333333 : 1"
       id="perspective17632" /><clipPath
       clipPathUnits="userSpaceOnUse"
       id="clipPath17642"><path
         d="m -2,710 501,0 0,-711 -501,0 0,711 z"
         id="path17644"
         inkscape:connector-curvature="0" /></clipPath><clipPath
       clipPathUnits="userSpaceOnUse"
       id="clipPath17648"><path
         d="m 0,708.06 498,0 0,-708 -498,0 0,708 z"
         id="path17650"
         inkscape:connector-curvature="0" /></clipPath><clipPath
       clipPathUnits="userSpaceOnUse"
       id="clipPath17798"><path
         d="m -2,710 501,0 0,-711 -501,0 0,711 z"
         id="path17800"
         inkscape:connector-curvature="0" /></clipPath><clipPath
       clipPathUnits="userSpaceOnUse"
       id="clipPath17804"><path
         d="m 0,708.06 498,0 0,-708 -498,0 0,708 z"
         id="path17806"
         inkscape:connector-curvature="0" /></clipPath><clipPath
       id="Clip0"><path
         inkscape:connector-curvature="0"
         d="m 0,0 212.597,0 0,269.292 L 0,269.292 0,0 z"
         transform="translate(0.923828,0.879883)"
         id="path7" /></clipPath></defs><sodipodi:namedview
     pagecolor="#ffffff"
     bordercolor="#666666"
     borderopacity="1"
     objecttolerance="10"
     gridtolerance="10"
     guidetolerance="10"
     inkscape:pageopacity="0"
     inkscape:pageshadow="2"
     inkscape:window-width="1280"
     inkscape:window-height="1004"
     id="namedview17626"
     showgrid="false"
     inkscape:zoom="2.5993181"
     inkscape:cx="99.869249"
     inkscape:cy="59.515599"
     inkscape:window-x="-8"
     inkscape:window-y="-8"
     inkscape:window-maximized="1"
     inkscape:current-layer="g17634"
     fit-margin-top="0.1"
     fit-margin-left="0.1"
     fit-margin-right="0.1"
     fit-margin-bottom="0.1"
     showguides="true"
     inkscape:guide-bbox="true" /><g
     id="g17634"
     inkscape:groupmode="layer"
     inkscape:label="GG1999P002"
     transform="matrix(1.25,0,0,-1.25,160.49062,77.404677)"><path
       sodipodi:nodetypes="sssss"
       inkscape:connector-curvature="0"
       id="path3787"
       d="m 31.6875,-18.156349 c 0,44.18241 -35.816846,80.000091 -80.000009,80.000091 -44.183435,0 -79.999991,-35.817587 -79.999991,-80.000001 0,-44.18334 35.816556,-80 79.999991,-80 44.183163,0 80.000009,35.81656 80.000009,79.9999 z"
       style="fill:#c0111e;fill-opacity:1;fill-rule:nonzero;stroke:none" /><path
       style="fill:#ffffff;fill-opacity:1;fill-rule:nonzero;stroke:none"
       d="m 11.687511,-18.15633 c 0,33.136806 -26.862633,60.000064 -60.000002,60.000064 -33.137575,0 -60.000009,-26.863187 -60.000009,-59.999996 0,-33.137503 26.862434,-59.999996 60.000009,-59.999996 33.137369,0 60.000002,26.862418 60.000002,59.999921 z"
       id="path3033"
       inkscape:connector-curvature="0"
       sodipodi:nodetypes="sssss" /><path
       inkscape:connector-curvature="0"
       style="fill:#000000;fill-rule:nonzero;stroke:none"
       d="m -90.072876,-44.675712 8.47934,0 0,53.3332374 -6.08,0 c 0,-0.853427 -0.78175,-1.670923 -2.3461,-2.453521 -1.42194,-0.711017 -2.71991,-1.066479 -3.89286,-1.066479 l 0,-6.134273 3.83962,0 0,-43.6789644 z"
       id="path11" /><path
       inkscape:connector-curvature="0"
       style="fill:#000000;fill-rule:evenodd;stroke:none"
       d="m -54.980486,-45.635152 c 5.47565,0 9.476026,2.38072 12.000283,7.145912 2.346102,4.444449 3.519999,11.27168 3.519999,20.480475 0,18.4890774 -5.209265,27.7327694 -15.626854,27.7327694 -10.240278,0 -15.359528,-9.243692 -15.359528,-27.7327694 0,-18.418624 5.15508,-27.626387 15.4661,-27.626387 z m 0,7.412112 c -5.36814,0 -8.05314,6.73872 -8.05314,20.214275 0,13.4746154 2.66657,20.2132404 7.9999,20.2132404 2.738249,0 4.817873,-1.973992 6.239907,-5.920189 1.28047,-3.52 1.919812,-8.2846314 1.919812,-14.2930514 0,-13.475555 -2.701564,-20.214275 -8.106479,-20.214275 z"
       id="path13" /><path
       inkscape:connector-curvature="0"
       style="fill:#000000;fill-rule:evenodd;stroke:none"
       d="m -15.034667,-45.635152 c 5.476312,0 9.476784,2.38072 12.000472,7.145912 2.346856,4.444449 3.519808,11.27168 3.519808,20.480475 0,18.4890774 -5.209168,27.7327694 -15.626568,27.7327694 -10.240568,0 -15.359437,-9.243692 -15.359437,-27.7327694 0,-18.418624 5.155557,-27.626387 15.465725,-27.626387 z m 0,7.412112 c -5.368136,0 -8.052672,6.73872 -8.052672,20.214275 0,13.4746154 2.666664,20.2132404 8,20.2132404 2.738152,0 4.817872,-1.973992 6.240096,-5.920189 1.280184,-3.52 1.919808,-8.2846314 1.919808,-14.2930514 0,-13.475555 -2.702408,-20.214275 -8.107232,-20.214275 z"
       id="path15" /></g></svg>