<?xml version="1.0" encoding="UTF-8" standalone="no"?>
<!-- Created with Inkscape (http://www.inkscape.org/) -->

<svg
   xmlns:dc="http://purl.org/dc/elements/1.1/"
   xmlns:cc="http://creativecommons.org/ns#"
   xmlns:rdf="http://www.w3.org/1999/02/22-rdf-syntax-ns#"
   xmlns:svg="http://www.w3.org/2000/svg"
   xmlns="http://www.w3.org/2000/svg"
   xmlns:sodipodi="http://sodipodi.sourceforge.net/DTD/sodipodi-0.dtd"
   xmlns:inkscape="http://www.inkscape.org/namespaces/inkscape"
   id="svg17624"
   version="1.1"
   inkscape:version="0.48.2 r9819"
   width="427.31406"
   height="285.55624"
   xml:space="preserve"
   sodipodi:docname="AJAX1.svg"><metadata
     id="metadata17630"><rdf:RDF><cc:Work
         rdf:about=""><dc:format>image/svg+xml</dc:format><dc:type
           rdf:resource="http://purl.org/dc/dcmitype/StillImage" /><dc:title /></cc:Work></rdf:RDF></metadata><defs
     id="defs17628"><inkscape:perspective
       sodipodi:type="inkscape:persp3d"
       inkscape:vp_x="0 : 0.5 : 1"
       inkscape:vp_y="0 : 1000 : 0"
       inkscape:vp_z="1 : 0.5 : 1"
       inkscape:persp3d-origin="0.5 : 0.33333333 : 1"
       id="perspective17632" /><clipPath
       clipPathUnits="userSpaceOnUse"
       id="clipPath17642"><path
         d="m -2,710 501,0 0,-711 -501,0 0,711 z"
         id="path17644"
         inkscape:connector-curvature="0" /></clipPath><clipPath
       clipPathUnits="userSpaceOnUse"
       id="clipPath17648"><path
         d="m 0,708.06 498,0 0,-708 -498,0 0,708 z"
         id="path17650"
         inkscape:connector-curvature="0" /></clipPath><clipPath
       clipPathUnits="userSpaceOnUse"
       id="clipPath17798"><path
         d="m -2,710 501,0 0,-711 -501,0 0,711 z"
         id="path17800"
         inkscape:connector-curvature="0" /></clipPath><clipPath
       clipPathUnits="userSpaceOnUse"
       id="clipPath17804"><path
         d="m 0,708.06 498,0 0,-708 -498,0 0,708 z"
         id="path17806"
         inkscape:connector-curvature="0" /></clipPath><clipPath
       id="Clip0"><path
         inkscape:connector-curvature="0"
         d="m 0,0 212.597,0 0,269.292 L 0,269.292 0,0 z"
         transform="translate(0.923828,0.879883)"
         id="path7" /></clipPath><clipPath
       id="Clip0-8"><path
         inkscape:connector-curvature="0"
         d="m 0,0 170.079,0 0,113.386 L 0,113.386 0,0 z"
         transform="translate(0.0986328,0.822266)"
         id="path7-8" /></clipPath><clipPath
       id="Clip0-1"><path
         inkscape:connector-curvature="0"
         d="m 0,0 287.009,0 0,159.449 L 0,159.449 0,0 z"
         transform="translate(0.396484,0.267578)"
         id="path7-7" /></clipPath><clipPath
       id="Clip0-9"><path
         inkscape:connector-curvature="0"
         d="m 0,0 170.079,0 0,170.079 L 0,170.079 0,0 z"
         transform="translate(0.460938,0.775391)"
         id="path7-4" /></clipPath><clipPath
       id="Clip0-4"><path
         inkscape:connector-curvature="0"
         d="m 0,0 340.157,0 0,226.771 L 0,226.771 0,0 z"
         transform="translate(0.921875,0.25293)"
         id="path7-5" /></clipPath></defs><sodipodi:namedview
     pagecolor="#ffffff"
     bordercolor="#666666"
     borderopacity="1"
     objecttolerance="10"
     gridtolerance="10"
     guidetolerance="10"
     inkscape:pageopacity="0"
     inkscape:pageshadow="2"
     inkscape:window-width="1280"
     inkscape:window-height="1004"
     id="namedview17626"
     showgrid="false"
     inkscape:zoom="1.4142136"
     inkscape:cx="64.025625"
     inkscape:cy="23.575527"
     inkscape:window-x="-8"
     inkscape:window-y="-8"
     inkscape:window-maximized="1"
     inkscape:current-layer="g17634"
     fit-margin-top="0.2"
     fit-margin-left="0.2"
     fit-margin-right="0.2"
     fit-margin-bottom="0.2"
     showguides="true"
     inkscape:guide-bbox="true" /><g
     id="g17634"
     inkscape:groupmode="layer"
     inkscape:label="GG1999P002"
     transform="matrix(1.25,0,0,-1.25,570.98125,-530.54219)"><path
       inkscape:connector-curvature="0"
       style="fill:#ffffff;fill-rule:nonzero;stroke:#000000;stroke-width:1.36;stroke-miterlimit:4;stroke-opacity:1;stroke-dasharray:none"
       d="m -455.94238,-445.10732 c 0,10.95901 8.88379,19.8428 19.8427,19.8428 l 300.4713,0 c 10.959,0 19.843,-8.88379 19.843,-19.8428 l 0,-187.0862 c 0,-10.959 -8.884,-19.842 -19.843,-19.842 l -300.4713,0 c -10.95891,0 -19.8427,8.883 -19.8427,19.842 l 0,187.0862 z"
       id="path11-2" /><path
       inkscape:connector-curvature="0"
       style="fill:#c0111e;fill-opacity:1;fill-rule:nonzero;stroke:none"
       d="m -451.12305,-445.10728 c 0,8.29779 6.72659,15.0244 15.0234,15.0244 l 300.4726,0 c 8.298,0 15.024,-6.72661 15.024,-15.0244 l 0,-187.0866 c 0,-8.297 -6.726,-15.023 -15.024,-15.023 l -300.4726,0 c -8.29681,0 -15.0234,6.726 -15.0234,15.023 l 0,187.0866 z"
       id="path13" /><path
       inkscape:connector-curvature="0"
       style="fill:#ffffff;fill-rule:nonzero;stroke:none"
       d="m -444.03616,-445.10729 c 0,4.3838 3.5528,7.9375 7.9365,7.9375 l 300.4725,0 c 4.384,0 7.938,-3.5537 7.938,-7.9375 l 0,-187.0865 c 0,-4.383 -3.554,-7.937 -7.938,-7.937 l -300.4725,0 c -4.3837,0 -7.9365,3.554 -7.9365,7.937 l 0,187.0865 z"
       id="path15" /><g
       transform="matrix(1,0,0,-1,-456.86426,-425.01159)"
       id="Background"
       style="fill:#000000;stroke:none"><g
         id="Group1"
         clip-path="url(#Clip0-4)"
         style="fill:#000000;stroke:none"><path
           inkscape:connector-curvature="0"
           style="fill:#000000;fill-rule:nonzero;stroke:none"
           d="m 0,0 0,28.3467 4.0293,0 0,-12.8731 7.795,0 0,12.8731 3.7656,0 0,-28.3467 -3.7656,0 0,11.4736 -7.795,0 L 4.0293,0 0,0 z"
           transform="translate(40.04,39.2744)"
           id="path17" /><path
           inkscape:connector-curvature="0"
           style="fill:#000000;fill-rule:nonzero;stroke:none"
           d="m 0,0 0,28.3467 14.1729,0 0,-4 -10.2832,0 0,-9.3565 6.0342,0 0,-3.8759 -6.0342,0 0,-7.1143 9.8271,0 0,-4 L 0,0 z"
           transform="translate(61.874,39.2744)"
           id="path19" /><path
           inkscape:connector-curvature="0"
           style="fill:#000000;fill-rule:evenodd;stroke:none"
           d="m 6.7695,16.5537 1.9941,-7.6269 2.0069,7.6269 -4.001,0 z M 0,28.3467 l 4.1113,0 1.8975,-7.876 5.7861,0 2.0351,7.876 4.0567,0 L 10.7705,0 6.7695,0 0,28.3467 z"
           transform="translate(79.1348,39.2744)"
           id="path21" /><path
           inkscape:connector-curvature="0"
           style="fill:#000000;fill-rule:nonzero;stroke:none"
           d="m 7.0337,28.3467 3.28,0 L 17.2917,0 13.2067,0 8.7367,18.1182 4.1397,0 0,0 7.0337,28.3467 z"
           transform="translate(98.7373,39.2744)"
           id="path23" /><path
           inkscape:connector-curvature="0"
           style="fill:#000000;fill-rule:nonzero;stroke:none"
           d="m 0,0 7.061,15.4736 0,12.8731 4.167,0 0,-12.8731 L 17.887,0 13.609,0 9.068,10.0899 4.416,0 0,0 z"
           transform="translate(118.995,39.2744)"
           id="path25" /><path
           inkscape:connector-curvature="0"
           style="fill:#000000;fill-rule:nonzero;stroke:none"
           d="m 7.034,28.3467 3.281,0 L 17.292,0 13.208,0 8.737,18.1182 4.14,0 0,0 7.034,28.3467 z"
           transform="translate(155.438,39.2744)"
           id="path27" /><path
           inkscape:connector-curvature="0"
           style="fill:#000000;fill-rule:nonzero;stroke:none"
           d="m 0,0 0,28.3467 14.174,0 0,-4 -10.284,0 0,-9.3565 6.034,0 0,-3.8759 -6.034,0 0,-7.1143 9.827,0 0,-4 L 0,0 z"
           transform="translate(177.538,39.2744)"
           id="path29" /><path
           inkscape:connector-curvature="0"
           style="fill:#000000;fill-rule:nonzero;stroke:none"
           d="m 0,0 0,28.3467 4.029,0 0,-12.8731 7.795,0 0,12.8731 3.767,0 0,-28.3467 -3.767,0 0,11.4736 -7.795,0 L 4.029,0 0,0 z"
           transform="translate(196.499,39.2744)"
           id="path31" /><path
           inkscape:connector-curvature="0"
           style="fill:#000000;fill-rule:nonzero;stroke:none"
           d="m 0,28.3467 3.969,0 L 3.969,0 0,0 0,28.3467 z"
           transform="translate(217.993,39.2744)"
           id="path33" /><path
           inkscape:connector-curvature="0"
           style="fill:#000000;fill-rule:nonzero;stroke:none"
           d="m 11.631,21.3701 c 0,1.209 -0.314,2.2002 -0.941,2.9756 -0.619,0.7754 -1.394,1.1631 -2.326,1.1631 -2.926,0 -4.39,-3.7783 -4.39,-11.3359 0,-2.4356 0.217,-4.4844 0.651,-6.1455 0.702,-2.6485 1.902,-3.9717 3.6,-3.9717 0.904,0 1.698,0.3594 2.382,1.0791 0.682,0.7197 1.024,1.4853 1.024,2.2978 l 3.932,0 C 15.563,5.2178 14.875,3.419 13.5,2.0342 12.116,0.6787 10.357,0 8.225,0 2.742,0 0,4.7246 0,14.1729 c 0,4.3086 0.415,7.6162 1.246,9.9228 1.302,3.5713 3.656,5.3565 7.062,5.3565 2.179,0 3.937,-0.7285 5.275,-2.1865 1.339,-1.4297 2.008,-3.3956 2.008,-5.8956 l -3.96,0 z"
           transform="translate(227.776,38.707)"
           id="path35" /><path
           inkscape:connector-curvature="0"
           style="fill:#000000;fill-rule:nonzero;stroke:none"
           d="m 0,0 0,28.3467 14.174,0 0,-3.7373 -10.146,0 L 4.028,0 0,0 z"
           transform="translate(248.176,39.2744)"
           id="path37" /><path
           inkscape:connector-curvature="0"
           style="fill:#000000;fill-rule:nonzero;stroke:none"
           d="m 0,0 0,28.3467 14.172,0 0,-4 -10.284,0 0,-9.3565 6.035,0 0,-3.8759 -6.035,0 0,-7.1143 9.828,0 0,-4 L 0,0 z"
           transform="translate(267.1,39.2744)"
           id="path39" /><path
           inkscape:connector-curvature="0"
           style="fill:#000000;fill-rule:nonzero;stroke:none"
           d="m 0,20.6641 c 0,2.8144 0.775,5.0146 2.326,6.6016 1.422,1.458 3.244,2.1865 5.468,2.1865 2.179,0 3.993,-0.7197 5.442,-2.1592 1.514,-1.5127 2.27,-3.4971 2.27,-5.9512 0,-4.7607 -2.722,-8.4843 -8.169,-11.1699 C 6.054,9.5537 5.414,8.461 5.414,6.8916 5.414,6.0801 5.773,5.3701 6.493,4.7608 7.158,4.1983 7.887,3.916 8.68,3.916 c 0.693,0 1.371,0.3555 2.036,1.0665 0.646,0.7382 0.969,1.4668 0.969,2.1865 l 3.905,0 C 15.59,5.1299 14.939,3.419 13.637,2.0342 12.318,0.6787 10.666,0 8.681,0 6.77,0 5.095,0.6504 3.655,1.9522 2.141,3.2989 1.384,4.9278 1.384,6.8379 c 0,1.2637 0.277,2.4541 0.831,3.5703 0.544,1.1348 1.292,2.0391 2.243,2.7129 1.301,0.794 2.603,1.5869 3.905,2.3809 1.385,0.9873 2.321,2.2842 2.809,3.8887 0.205,0.6826 0.306,1.3339 0.306,1.9521 0,1.209 -0.328,2.2188 -0.983,3.0313 -0.664,0.7929 -1.546,1.1904 -2.645,1.1904 -0.018,0 -0.037,0 -0.056,0 C 6.457,25.5459 5.499,25.1397 4.921,24.3457 4.345,23.5528 4.047,22.3252 4.029,20.6641 l -4.029,0 z"
           transform="translate(286.061,38.707)"
           id="path41" /><path
           inkscape:connector-curvature="0"
           style="fill:#000000;fill-rule:nonzero;stroke:none"
           d="m 0,0 0,35.4331 5.0352,0 0,-20.156 6.5586,20.156 6.5234,-20.156 0,20.156 4.9141,0 L 23.0313,0 17.6846,0 11.5938,19.0311 5.0352,0 0,0 z"
           transform="translate(42.166,88.7549)"
           id="path43" /><path
           inkscape:connector-curvature="0"
           style="fill:#000000;fill-rule:evenodd;stroke:none"
           d="m 8.462,20.6921 2.4921,-9.5329 2.5088,9.5329 -5.0009,0 z M 0,35.4331 l 5.1387,0 2.3721,-9.844 7.2334,0 2.5439,9.844 5.0703,0 L 13.4629,0 8.462,0 0,35.4331 z"
           transform="translate(69.8984,88.7549)"
           id="path45" /><path
           inkscape:connector-curvature="0"
           style="fill:#000000;fill-rule:nonzero;stroke:none"
           d="M 7.6146,17.2841 0,35.4331 l 5.4516,0 5.036,-11.731 4.828,11.731 5.59,0 -7.65,-18.149 L 20.5246,0 14.9176,0 10.4876,10.5537 5.9176,0 0.6054,0 7.6146,17.2841 z"
           transform="translate(96.2764,88.7549)"
           id="path47" /><path
           inkscape:connector-curvature="0"
           style="fill:#000000;fill-rule:nonzero;stroke:none"
           d="M 2.47,4.965 C 3.163,4.965 3.756,4.716 4.252,4.22 4.723,3.748 4.96,3.172 4.96,2.491 4.96,1.798 4.723,1.205 4.252,0.709 3.756,0.236 3.163,0 2.47,0 1.791,0 1.215,0.236 0.742,0.709 0.247,1.205 0,1.798 0,2.491 0,3.148 0.247,3.724 0.743,4.22 1.238,4.716 1.814,4.965 2.47,4.965 z"
           transform="translate(123.302,119.223)"
           id="path49" /><path
           inkscape:connector-curvature="0"
           style="fill:#000000;fill-rule:nonzero;stroke:none"
           d="m 0,0 0,35.4331 17.716,0 0,-4.671 -12.681,0 L 5.035,0 0,0 z"
           transform="translate(155.27,88.7549)"
           id="path51" /><path
           inkscape:connector-curvature="0"
           style="fill:#000000;fill-rule:nonzero;stroke:none"
           d="m 0,0 0,35.4331 17.716,0 0,-5 -12.854,0 0,-11.696 7.543,0 0,-4.845 -7.543,0 0,-8.8921 12.284,0 0,-5 L 0,0 z"
           transform="translate(179.062,88.7549)"
           id="path53" /><path
           inkscape:connector-curvature="0"
           style="fill:#000000;fill-rule:nonzero;stroke:none"
           d="m 0,0 0,35.4331 4.898,0 0,-23.288 10.557,23.288 4.033,0 0,-35.4331 -5.14,0 0,20.4841 L 4.898,0 0,0 z"
           transform="translate(202.795,88.7549)"
           id="path55" /><path
           inkscape:connector-curvature="0"
           style="fill:#000000;fill-rule:nonzero;stroke:none"
           d="m 14.343,9.1689 5.141,0 C 19.484,6.6201 18.567,4.4521 16.732,2.6641 14.864,0.8887 12.655,0 10.105,0 6.057,0 3.231,2.1973 1.627,6.5918 0.543,9.5215 0,13.6331 0,18.9271 c 0,4.716 0.566,8.54 1.697,11.469 1.683,4.28 4.487,6.419 8.408,6.419 1.961,0 3.721,-0.484 5.277,-1.453 1.419,-0.877 2.445,-2.002 3.08,-3.374 0.635,-1.338 0.952,-3.356 0.952,-6.055 l 0,-7.006 -9.067,0 0,5.096 4.257,0 0,4.003 c 0,0.994 -0.485,1.895 -1.453,2.703 -0.992,0.797 -2.008,1.197 -3.047,1.197 -3.358,0 -5.036,-4.038 -5.036,-12.114 l 0,-2.129 c 0,-8.4097 1.678,-12.6147 5.036,-12.6147 1.292,0 2.33,0.3525 3.115,1.0556 0.749,0.7383 1.124,1.753 1.124,3.0449 z"
           transform="translate(229.694,88.0459)"
           id="path57" /><path
           inkscape:connector-curvature="0"
           style="fill:#000000;fill-rule:nonzero;stroke:none"
           d="m 0,0 0,4.6709 6.314,0 0,30.7622 5.208,0 0,-30.7622 6.195,0 L 17.717,0 0,0 z"
           transform="translate(255.26,88.7549)"
           id="path59" /><path
           inkscape:connector-curvature="0"
           style="fill:#000000;fill-rule:nonzero;stroke:none"
           d="m 0,0 0,35.4331 5.036,0 0,-16.09 9.744,0 0,16.09 4.708,0 0,-35.4331 -4.708,0 0,14.3431 -9.744,0 L 5.036,0 0,0 z"
           transform="translate(279.096,88.7549)"
           id="path61" /><path
           inkscape:connector-curvature="0"
           style="fill:#000000;fill-rule:evenodd;stroke:none"
           d="m 20.518,15.871 0,-8.918 C 20.518,4.552 20.33,3.367 19.77,2.432 18.928,0.873 17.275,0.031 15.248,0.031 13.377,0.031 12.099,0.654 10.976,2.12 10.134,0.685 8.825,0 7.016,0 5.489,0 4.459,0.468 3.275,1.652 l 0,-1.372 -3.275,0 0,15.591 3.275,0 0,-8.856 C 3.275,5.768 3.43,5.052 3.898,4.459 4.397,3.741 5.27,3.273 6.112,3.273 c 0.749,0 1.528,0.344 1.964,0.967 0.406,0.562 0.499,1.061 0.499,2.682 l 0,8.949 3.43,0 0,-8.949 c 0,-1.434 0.094,-1.964 0.468,-2.463 0.53,-0.748 1.403,-1.216 2.276,-1.216 0.966,0 1.746,0.468 2.12,1.247 0.219,0.468 0.281,1.123 0.281,2.432 l 0,8.949 3.368,0 z"
           transform="translate(206.946,172.177)"
           id="path63" /><path
           inkscape:connector-curvature="0"
           style="fill:#000000;fill-rule:evenodd;stroke:none"
           d="m 8.432,43.371 c 3.088,-1.953 5.719,-4.52 7.892,-7.704 1.399,-1.979 2.963,-4.823 4.694,-8.532 C 22.597,23.73 23.386,19.322 23.386,13.91 23.386,9.259 22.341,5.758 20.25,3.405 18.256,1.135 15.376,0 11.609,0 8.066,0 5.213,1.287 3.053,3.862 1.018,6.339 0,9.447 0,13.183 c 0,4.443 1.35,7.931 4.05,10.463 2.146,2.062 4.556,3.108 7.227,3.136 0.084,0 0.167,0 0.249,0 0.943,0 2.008,-0.166 3.199,-0.498 -0.969,2.601 -2.361,4.913 -4.174,6.934 -0.762,0.871 -2.693,2.685 -5.795,5.439 l 3.676,4.714 z M 11.609,21.01 C 9.962,21.01 8.57,20.273 7.436,18.799 6.3,17.325 5.733,15.536 5.733,13.432 5.733,11.37 6.3,9.584 7.435,8.076 8.57,6.608 9.962,5.874 11.609,5.874 c 1.788,0 3.22,0.61 4.3,1.828 1.246,1.412 1.869,3.481 1.869,6.208 0,2.034 -0.609,3.715 -1.827,5.044 -1.218,1.371 -2.666,2.056 -4.342,2.056 z"
           transform="translate(114.537,144.692)"
           id="path65" /><path
           inkscape:connector-curvature="0"
           style="fill:#000000;fill-rule:nonzero;stroke:none"
           d="m 2.965,5.959 c 0.83,0 1.543,-0.298 2.136,-0.893 C 5.669,4.499 5.952,3.806 5.952,2.99 5.952,2.159 5.669,1.446 5.101,0.851 4.508,0.284 3.795,0 2.965,0 2.149,0 1.458,0.284 0.892,0.851 0.297,1.446 0,2.159 0,2.99 0,3.779 0.297,4.47 0.892,5.066 1.486,5.661 2.178,5.959 2.965,5.959 z"
           transform="translate(147.128,163.678)"
           id="path67" /><path
           inkscape:connector-curvature="0"
           style="fill:#000000;fill-rule:nonzero;stroke:none"
           d="m 0,11.688 5.878,0 c 0,-1.44 0.609,-2.755 1.827,-3.945 1.219,-1.191 2.521,-1.786 3.905,-1.786 1.357,0 2.666,0.61 3.926,1.828 1.191,1.19 1.785,2.367 1.785,3.529 0,0.027 0,0.056 0,0.083 -0.041,1.758 -0.754,3.328 -2.138,4.713 -0.43,0.457 -1.759,1.481 -3.988,3.072 C 7.678,21.673 4.881,25.425 2.804,30.436 0.99,34.837 0.083,39.149 0.083,43.371 l 23.303,0 0,-6 -16.158,0 c 0,-2.409 0.963,-5.032 2.886,-7.87 1.884,-2.74 4.397,-5.3 7.54,-7.681 3.656,-2.783 5.483,-6.055 5.483,-9.821 0,-3.404 -1.15,-6.255 -3.447,-8.553 C 17.363,1.149 14.601,0 11.402,0 8.218,0 5.522,1.135 3.313,3.405 1.105,5.674 0,8.435 0,11.688 z"
           transform="translate(162.287,144.692)"
           id="path69" /></g></g></g></svg>