<?xml version="1.0" encoding="UTF-8" standalone="no"?>
<!-- Created with Inkscape (http://www.inkscape.org/) -->

<svg
   xmlns:dc="http://purl.org/dc/elements/1.1/"
   xmlns:cc="http://creativecommons.org/ns#"
   xmlns:rdf="http://www.w3.org/1999/02/22-rdf-syntax-ns#"
   xmlns:svg="http://www.w3.org/2000/svg"
   xmlns="http://www.w3.org/2000/svg"
   xmlns:sodipodi="http://sodipodi.sourceforge.net/DTD/sodipodi-0.dtd"
   xmlns:inkscape="http://www.inkscape.org/namespaces/inkscape"
   id="svg17624"
   version="1.1"
   inkscape:version="0.48.2 r9819"
   width="214.50156"
   height="257.04062"
   xml:space="preserve"
   sodipodi:docname="AJAX1.svg"><metadata
     id="metadata17630"><rdf:RDF><cc:Work
         rdf:about=""><dc:format>image/svg+xml</dc:format><dc:type
           rdf:resource="http://purl.org/dc/dcmitype/StillImage" /><dc:title /></cc:Work></rdf:RDF></metadata><defs
     id="defs17628"><inkscape:perspective
       sodipodi:type="inkscape:persp3d"
       inkscape:vp_x="0 : 0.5 : 1"
       inkscape:vp_y="0 : 1000 : 0"
       inkscape:vp_z="1 : 0.5 : 1"
       inkscape:persp3d-origin="0.5 : 0.33333333 : 1"
       id="perspective17632" /><clipPath
       clipPathUnits="userSpaceOnUse"
       id="clipPath17642"><path
         d="m -2,710 501,0 0,-711 -501,0 0,711 z"
         id="path17644"
         inkscape:connector-curvature="0" /></clipPath><clipPath
       clipPathUnits="userSpaceOnUse"
       id="clipPath17648"><path
         d="m 0,708.06 498,0 0,-708 -498,0 0,708 z"
         id="path17650"
         inkscape:connector-curvature="0" /></clipPath><clipPath
       clipPathUnits="userSpaceOnUse"
       id="clipPath17798"><path
         d="m -2,710 501,0 0,-711 -501,0 0,711 z"
         id="path17800"
         inkscape:connector-curvature="0" /></clipPath><clipPath
       clipPathUnits="userSpaceOnUse"
       id="clipPath17804"><path
         d="m 0,708.06 498,0 0,-708 -498,0 0,708 z"
         id="path17806"
         inkscape:connector-curvature="0" /></clipPath><clipPath
       id="Clip0"><path
         inkscape:connector-curvature="0"
         d="m 0,0 212.597,0 0,269.292 L 0,269.292 0,0 z"
         transform="translate(0.923828,0.879883)"
         id="path7" /></clipPath><clipPath
       id="Clip0-8"><path
         inkscape:connector-curvature="0"
         d="m 0,0 170.079,0 0,113.386 L 0,113.386 0,0 z"
         transform="translate(0.0986328,0.822266)"
         id="path7-8" /></clipPath><clipPath
       id="Clip0-1"><path
         inkscape:connector-curvature="0"
         d="m 0,0 287.009,0 0,159.449 L 0,159.449 0,0 z"
         transform="translate(0.396484,0.267578)"
         id="path7-7" /></clipPath><clipPath
       id="Clip0-9"><path
         inkscape:connector-curvature="0"
         d="m 0,0 170.079,0 0,170.079 L 0,170.079 0,0 z"
         transform="translate(0.460938,0.775391)"
         id="path7-4" /></clipPath><clipPath
       id="Clip0-4"><path
         inkscape:connector-curvature="0"
         d="m 0,0 340.157,0 0,226.771 L 0,226.771 0,0 z"
         transform="translate(0.921875,0.25293)"
         id="path7-5" /></clipPath><clipPath
       id="Clip0-5"><path
         inkscape:connector-curvature="0"
         d="m 0,0 255.119,0 0,170.079 L 0,170.079 0,0 z"
         transform="translate(0.147461,0.0595703)"
         id="path7-1" /></clipPath><clipPath
       id="Clip0-48"><path
         inkscape:connector-curvature="0"
         d="m 0,0 191.339,0 0,164.409 L 0,164.409 0,0 z"
         transform="translate(0.0849609,0.916016)"
         id="path7-82" /></clipPath><clipPath
       id="Clip0-45"><path
         inkscape:connector-curvature="0"
         d="m 0,0 170.078,0 0,204.094 L 0,204.094 0,0 z"
         transform="translate(0.173828,0.586914)"
         id="path7-51" /></clipPath></defs><sodipodi:namedview
     pagecolor="#ffffff"
     bordercolor="#666666"
     borderopacity="1"
     objecttolerance="10"
     gridtolerance="10"
     guidetolerance="10"
     inkscape:pageopacity="0"
     inkscape:pageshadow="2"
     inkscape:window-width="1280"
     inkscape:window-height="1004"
     id="namedview17626"
     showgrid="false"
     inkscape:zoom="2.0000001"
     inkscape:cx="192.27679"
     inkscape:cy="162.92409"
     inkscape:window-x="-8"
     inkscape:window-y="-8"
     inkscape:window-maximized="1"
     inkscape:current-layer="g17634"
     fit-margin-top="0.2"
     fit-margin-left="0.2"
     fit-margin-right="0.2"
     fit-margin-bottom="0.2"
     showguides="true"
     inkscape:guide-bbox="true" /><g
     id="g17634"
     inkscape:groupmode="layer"
     inkscape:label="GG1999P002"
     transform="matrix(1.25,0,0,-1.25,1217.075,-771.28437)"><path
       inkscape:connector-curvature="0"
       style="fill:#ffffff;fill-rule:nonzero;stroke:#000000;stroke-width:1.20000005;stroke-miterlimit:4;stroke-opacity:1;stroke-dasharray:none"
       d="m -972.8901,-629.13109 c 0,6.26172 5.07617,11.3379 11.3379,11.3379 l 147.4011,0 c 6.263,0 11.339,-5.07618 11.339,-11.3379 l 0,-181.4181 c 0,-6.261 -5.076,-11.338 -11.339,-11.338 l -147.4011,0 c -6.26173,0 -11.3379,5.077 -11.3379,11.338 l 0,181.4181 z"
       id="path11" /><path
       inkscape:connector-curvature="0"
       style="fill:#c0111e;fill-opacity:1;fill-rule:nonzero;stroke:none"
       d="m -969.48873,-629.13108 c 0,4.38281 3.55371,7.93652 7.9365,7.93652 l 147.4025,0 c 4.383,0 7.937,-3.55371 7.937,-7.93652 l 0,-181.41848 c 0,-4.383 -3.554,-7.936 -7.937,-7.936 l -147.4025,0 c -4.38279,0 -7.9365,3.553 -7.9365,7.936 l 0,181.41848 z"
       id="path13" /><path
       inkscape:connector-curvature="0"
       style="fill:#ffffff;fill-rule:nonzero;stroke:none"
       d="m -964.95358,-629.13108 c 0,1.8779 1.52246,3.40136 3.40135,3.40136 l 147.40165,0 c 1.879,0 3.402,-1.52346 3.402,-3.40136 l 0,-181.41864 c 0,-1.878 -1.523,-3.401 -3.402,-3.401 l -147.40165,0 c -1.87889,0 -3.40135,1.523 -3.40135,3.401 l 0,181.41864 z"
       id="path15" /><path
       inkscape:connector-curvature="0"
       style="fill:#c0111e;fill-opacity:1;fill-rule:nonzero;stroke:none"
       d="m -921.86473,-671.65048 c 0,18.787 15.2305,34.0155 34.0166,34.0155 18.7872,0 34.0152,-15.2285 34.0152,-34.0155 0,-18.7872 -15.228,-34.0159 -34.0152,-34.0159 -18.7861,0 -34.0166,15.2287 -34.0166,34.0159 z"
       id="path17" /><path
       inkscape:connector-curvature="0"
       style="fill:#264d8e;fill-opacity:1;fill-rule:nonzero;stroke:none"
       d="m -913.35983,-671.65048 c 0,5.8192 1.9482,11.1825 5.2275,15.4745 l 15.4747,-15.4745 -15.4747,-15.4747 c -3.2793,4.293 -5.2275,9.6563 -5.2275,15.4747 z"
       id="path19" /><path
       inkscape:connector-curvature="0"
       style="fill:#264d8e;fill-opacity:1;fill-rule:nonzero;stroke:none"
       d="m -867.56293,-656.17598 c 3.279,-4.292 5.227,-9.6563 5.227,-15.4745 0,-5.8184 -1.948,-11.1817 -5.227,-15.4747 l -15.4746,15.4747 15.4746,15.4745 z"
       id="path21" /><path
       inkscape:connector-curvature="0"
       style="fill:#264d8e;fill-opacity:1;fill-rule:nonzero;stroke:none"
       d="m -903.32273,-651.36548 c 4.292,3.2793 9.6563,5.2266 15.4746,5.2266 5.8184,0 11.1817,-1.9473 15.4742,-5.2266 l -15.4742,-15.4746 -15.4746,15.4746 z"
       id="path23" /><path
       inkscape:connector-curvature="0"
       style="fill:#264d8e;fill-opacity:1;fill-rule:nonzero;stroke:none"
       d="m -887.84813,-676.46108 15.4742,-15.4747 c -4.2925,-3.2783 -9.6558,-5.2267 -15.4742,-5.2267 -5.8183,0 -11.1826,1.9484 -15.4746,5.2267 l 15.4746,15.4747 z"
       id="path25" /><g
       transform="matrix(1,0,0,-1,-973.06393,-617.20628)"
       id="Background"
       style="fill:#000000;stroke:none"><g
         id="Group1"
         clip-path="url(#Clip0-45)"
         style="fill:#000000;stroke:none"><path
           inkscape:connector-curvature="0"
           style="fill:#000000;fill-rule:nonzero;stroke:none"
           d="m 13.833,11.928 -2.585,-0.703 c -0.3183,0.816 -0.499,1.224 -0.8847,1.677 -0.7031,0.863 -1.7686,1.362 -2.8799,1.362 -2.7891,0 -4.7393,-2.518 -4.7393,-6.101 0,-3.47 1.7911,-5.737 4.5352,-5.737 1.1113,0 2.1318,0.431 2.8799,1.247 0.4082,0.476 0.6806,0.93 1.0888,1.905 L 13.833,4.875 C 12.6992,1.813 10.2725,0 7.3018,0 3.0156,0 0,3.379 0,8.209 c 0,4.921 3.1064,8.367 7.5059,8.367 3.1298,0 5.2382,-1.564 6.3271,-4.648 z"
           transform="translate(37.6377,100.585)"
           id="path27" /><path
           inkscape:connector-curvature="0"
           style="fill:#000000;fill-rule:nonzero;stroke:none"
           d="M 4.9668,15.647 4.6943,13.606 c -0.7705,0.045 -0.7705,0.045 -1.0205,0.045 -0.9971,0 -1.2695,-0.317 -1.2695,-1.473 L 2.4043,0 0,0 0,12.54 c 0,1.701 0.1816,2.291 0.8623,2.789 0.499,0.363 1.1113,0.522 2.0176,0.522 0.6357,0 1.5429,-0.09 2.0869,-0.204 z"
           transform="translate(54.2139,101.129)"
           id="path29" /><path
           inkscape:connector-curvature="0"
           style="fill:#000000;fill-rule:evenodd;stroke:none"
           d="m 10.2959,6.826 0,-0.498 C 10.2959,2.381 8.3457,0 5.1026,0 2.0411,0 0,2.359 0,5.851 c 0,3.561 2.2452,6.032 5.5332,6.032 1.7012,0 3.084,-0.566 4.3086,-1.746 L 8.3682,8.391 C 7.3018,9.207 6.5537,9.525 5.5557,9.525 3.9239,9.525 2.7442,8.504 2.5625,6.826 l 7.7334,0 z M 7.71,4.921 l -5.1475,0 C 2.6309,4.241 2.7217,3.923 2.9258,3.561 3.4014,2.745 4.2412,2.246 5.1709,2.246 c 1.4737,0 2.4717,1.042 2.5391,2.675 z"
           transform="translate(60.6318,105.233)"
           id="path31" /><path
           inkscape:connector-curvature="0"
           style="fill:#000000;fill-rule:evenodd;stroke:none"
           d="M 10.5225,10.024 C 9.4336,9.57 9.3203,9.321 9.3203,7.779 l 0,-4.151 C 9.3203,2.29 9.1611,1.769 8.5723,1.134 7.8916,0.409 6.6221,0 5.0567,0 3.4922,0 1.8818,0.386 0.3399,1.157 l 0.998,1.927 C 2.9248,2.404 3.7188,2.2 4.8076,2.2 c 1.4512,0 2.0635,0.545 2.086,1.814 l 0,0.363 C 4.9883,4.559 4.3311,4.649 3.583,4.786 1.1563,5.261 0,6.304 0,8.119 c 0,2.131 1.8594,3.764 4.3086,3.764 1.292,0 2.3135,-0.476 3.0615,-1.406 0.2266,0.771 0.8838,1.247 1.9502,1.406 l 1.2022,-1.859 z M 6.8936,8.005 c 0,0.658 -0.1133,0.908 -0.4307,1.202 C 6.0322,9.593 5.2832,9.842 4.6943,9.842 3.5371,9.842 2.585,9.094 2.585,8.164 2.585,7.393 3.084,6.94 4.1953,6.69 4.9434,6.509 5.5332,6.441 6.8936,6.304 l 0,1.701 z"
           transform="translate(72.7871,105.233)"
           id="path33" /><path
           inkscape:connector-curvature="0"
           style="fill:#000000;fill-rule:evenodd;stroke:none"
           d="m 6.0097,2.494 0,-2.471 C 5.7607,0 5.5791,0 5.4658,0 4.1279,0 3.2431,0.408 2.3818,1.474 l 0,-1.316 -2.3818,0 0,11.339 2.4043,0 0,-5.26 c 0,-1.724 0.3398,-2.631 1.1338,-3.199 0.5898,-0.362 1.1797,-0.52 2.4716,-0.544 z"
           transform="translate(86.1885,105.324)"
           id="path35" /><path
           inkscape:connector-curvature="0"
           style="fill:#000000;fill-rule:nonzero;stroke:none"
           d="M 15.7154,0 12.8584,0 10.7044,7.801 9.1394,0 6.3496,0 4.3769,7.893 2.6992,0 0,0 l 2.8574,11.339 2.7891,0 1.9959,-7.687 1.565,7.687 2.835,0 L 15.7154,0 z"
           transform="translate(93.5586,105.482)"
           id="path37" /><path
           inkscape:connector-curvature="0"
           style="fill:#000000;fill-rule:evenodd;stroke:none"
           d="M 10.522,10.024 C 9.434,9.57 9.321,9.321 9.321,7.779 l 0,-4.151 C 9.321,2.29 9.162,1.769 8.572,1.134 7.892,0.409 6.621,0 5.057,0 3.493,0 1.882,0.386 0.34,1.157 L 1.338,3.084 C 2.925,2.404 3.719,2.2 4.808,2.2 c 1.451,0 2.063,0.545 2.086,1.814 l 0,0.363 C 4.989,4.559 4.331,4.649 3.583,4.786 1.157,5.261 0,6.304 0,8.119 c 0,2.131 1.86,3.764 4.309,3.764 1.292,0 2.312,-0.476 3.062,-1.406 0.226,0.771 0.883,1.247 1.95,1.406 l 1.201,-1.859 z M 6.894,8.005 C 6.894,8.663 6.781,8.913 6.463,9.207 6.033,9.593 5.284,9.842 4.694,9.842 3.537,9.842 2.585,9.094 2.585,8.164 2.585,7.393 3.084,6.94 4.195,6.69 4.944,6.509 5.534,6.441 6.894,6.304 l 0,1.701 z"
           transform="translate(110.317,105.233)"
           id="path39" /><path
           inkscape:connector-curvature="0"
           style="fill:#000000;fill-rule:nonzero;stroke:none"
           d="M 10.205,0 7.552,0 5.058,7.915 2.767,0 0,0 3.855,11.634 c -0.363,0.93 -0.68,1.18 -1.473,1.18 -0.432,0 -0.907,-0.046 -1.452,-0.137 l -0.386,2.041 c 0.794,0.182 1.475,0.295 2.291,0.295 0.952,0 1.61,-0.182 2.086,-0.59 0.432,-0.34 0.612,-0.679 0.998,-1.746 L 10.205,0 z"
           transform="translate(122.585,105.482)"
           id="path41" /><path
           inkscape:connector-curvature="0"
           style="fill:#000000;fill-rule:nonzero;stroke:none"
           d="M 15.3067,15.873 15.3067,0 12.2002,0 7.71,5.918 3.1524,0 0,0 l 0,15.873 2.6758,0 0,-12.223 5.0342,6.531 4.876,-6.349 0,12.041 2.7207,0 z"
           transform="translate(46.4355,168.965)"
           id="path43" /><path
           inkscape:connector-curvature="0"
           style="fill:#000000;fill-rule:evenodd;stroke:none"
           d="M 10.8174,5.987 C 10.8174,2.449 8.5713,0 5.2607,0 2.1093,0 0,2.403 0,5.987 c 0,3.514 2.2217,5.941 5.4424,5.941 3.1748,0 5.375,-2.449 5.375,-5.941 z M 8.2314,5.941 c 0,2.177 -1.1787,3.629 -2.8799,3.629 -1.7461,0 -2.9023,-1.452 -2.9023,-3.629 0,-2.132 1.1787,-3.628 2.9248,-3.628 1.7236,0 2.8574,1.451 2.8574,3.628 z"
           transform="translate(65.2803,173.228)"
           id="path45" /><path
           inkscape:connector-curvature="0"
           style="fill:#000000;fill-rule:evenodd;stroke:none"
           d="m 9.1846,11.588 0,-6.939 C 9.1846,2.948 9.0264,2.154 8.459,1.406 7.7783,0.521 6.6445,0 5.2842,0 4.1728,0 3.4697,0.25 2.4043,1.111 l 0,-0.861 -2.4043,0 0,11.338 2.4043,0 0,-6.417 c 0,-0.976 0.1582,-1.566 0.5664,-2.019 0.4082,-0.453 1.1572,-0.748 1.792,-0.748 0.6572,0 1.3154,0.295 1.6103,0.748 0.2715,0.409 0.3623,0.908 0.3623,1.996 l 0,6.44 2.4493,0 z"
           transform="translate(79.2715,173.25)"
           id="path47" /><path
           inkscape:connector-curvature="0"
           style="fill:#000000;fill-rule:nonzero;stroke:none"
           d="M 4.7168,2.132 4.7168,0 0,0 l 0,2.132 4.7168,0 z"
           transform="translate(91.3135,176.788)"
           id="path49" /><path
           inkscape:connector-curvature="0"
           style="fill:#000000;fill-rule:nonzero;stroke:none"
           d="M 10.046,2.516 10.046,0 0,0 l 0,15.873 2.699,0 0,-6.78 6.757,0 0,-2.495 -6.757,0 0,-4.082 7.347,0 z"
           transform="translate(100.792,168.965)"
           id="path51" /><path
           inkscape:connector-curvature="0"
           style="fill:#000000;fill-rule:evenodd;stroke:none"
           d="m 6.01,2.495 0,-2.473 C 5.761,0 5.579,0 5.466,0 4.128,0 3.243,0.408 2.382,1.474 l 0,-1.315 -2.382,0 0,11.338 2.405,0 0,-5.261 C 2.405,4.513 2.744,3.605 3.538,3.039 4.128,2.676 4.718,2.517 6.01,2.495 z"
           transform="translate(112.946,173.341)"
           id="path53" /><path
           inkscape:connector-curvature="0"
           style="fill:#000000;fill-rule:evenodd;stroke:none"
           d="M 3.084,1.519 C 3.084,0.725 2.381,0 1.587,0 0.703,0 0,0.703 0,1.519 c 0,0.863 0.703,1.542 1.565,1.542 0.816,0 1.519,-0.679 1.519,-1.542 z m -0.317,14.264 0,-11.318 -2.449,0 0,11.318 2.449,0 z"
           transform="translate(120.906,169.055)"
           id="path55" /><path
           inkscape:connector-curvature="0"
           style="fill:#000000;fill-rule:nonzero;stroke:none"
           d="M 10.8848,2.357 10.8848,0 0,0 l 0,2.562 8.0274,0 -5.7139,13.152 2.7432,0 5.8281,-13.357 z"
           transform="translate(51.0996,123.77)"
           id="path57" /><path
           inkscape:connector-curvature="0"
           style="fill:#000000;fill-rule:nonzero;stroke:none"
           d="M 4.7168,2.131 4.7168,0 0,0 l 0,2.131 4.7168,0 z"
           transform="translate(63.3682,131.434)"
           id="path59" /><path
           inkscape:connector-curvature="0"
           style="fill:#000000;fill-rule:evenodd;stroke:none"
           d="m 11.3564,8.17 c 0,-2.277 -0.3642,-4.142 -1.0019,-5.371 C 9.4219,1.023 7.6006,0 5.5078,0 2.2529,0 0,2.321 0,5.621 c 0,3.004 2.1162,5.166 5.0527,5.166 1.4785,0 2.503,-0.41 3.6641,-1.457 -0.0459,1.366 -0.2051,2.116 -0.5469,2.776 -0.5459,1.001 -1.5928,1.593 -2.8447,1.593 -1.2744,0 -1.7979,-0.341 -2.5488,-1.661 l -2.4571,1.274 c 0.8643,2.208 2.6162,2.845 4.961,2.845 1.7519,0 3.459,-0.751 4.5058,-2.025 1.0694,-1.275 1.5703,-3.186 1.5703,-5.962 z M 8.4658,5.689 c 0,1.615 -1.3193,2.845 -3.0488,2.845 -1.6387,0 -2.7998,-1.274 -2.7998,-3.05 0,-1.798 1.206,-3.095 2.8906,-3.095 1.7295,0 2.958,1.366 2.958,3.3 z"
           transform="translate(71.7627,123.469)"
           id="path61" /><path
           inkscape:connector-curvature="0"
           style="fill:#000000;fill-rule:evenodd;stroke:none"
           d="M 10.5587,10.059 C 9.4667,9.604 9.3527,9.353 9.3527,7.806 l 0,-4.165 C 9.3527,2.298 9.1937,1.775 8.6016,1.138 7.919,0.41 6.6446,0 5.0743,0 3.504,0 1.8887,0.387 0.3409,1.161 L 1.3428,3.095 C 2.9356,2.413 3.7315,2.207 4.8243,2.207 c 1.456,0 2.0703,0.546 2.0937,1.821 l 0,0.364 C 5.0059,4.575 4.3457,4.665 3.5957,4.802 1.1602,5.28 0,6.327 0,8.147 c 0,2.14 1.8653,3.778 4.3233,3.778 1.2969,0 2.3213,-0.478 3.0723,-1.411 0.2275,0.774 0.8876,1.251 1.9571,1.411 l 1.206,-1.866 z M 6.918,8.034 c 0,0.66 -0.1142,0.91 -0.4326,1.206 C 6.0528,9.626 5.3018,9.876 4.71,9.876 3.5498,9.876 2.5938,9.125 2.5938,8.193 2.5938,7.419 3.0948,6.964 4.21,6.713 4.961,6.532 5.5528,6.463 6.918,6.327 l 0,1.707 z"
           transform="translate(90.9023,127.815)"
           id="path63" /><path
           inkscape:connector-curvature="0"
           style="fill:#000000;fill-rule:evenodd;stroke:none"
           d="m 14.973,11.584 0,-6.508 c 0,-1.753 -0.136,-2.618 -0.546,-3.3 C 13.813,0.638 12.607,0.024 11.127,0.024 9.762,0.024 8.829,0.478 8.01,1.548 7.396,0.501 6.44,0 5.12,0 4.004,0 3.253,0.342 2.389,1.207 l 0,-1.002 -2.389,0 0,11.379 2.389,0 0,-6.463 C 2.389,4.21 2.502,3.687 2.843,3.255 3.209,2.732 3.845,2.39 4.46,2.39 c 0.545,0 1.115,0.25 1.433,0.706 0.296,0.409 0.364,0.773 0.364,1.957 l 0,6.531 2.504,0 0,-6.531 c 0,-1.047 0.068,-1.434 0.341,-1.798 0.387,-0.547 1.025,-0.887 1.661,-0.887 0.706,0 1.275,0.34 1.548,0.91 0.159,0.341 0.205,0.819 0.205,1.775 l 0,6.531 2.457,0 z"
           transform="translate(104.352,127.86)"
           id="path65" /><path
           inkscape:connector-curvature="0"
           style="fill:#000000;fill-rule:evenodd;stroke:none"
           d="m 13.3115,12.677 0,-2.382 -2.291,0 L 11.0205,0 7.5966,0 0,9.887 l 0,2.79 8.3447,0 0,3.038 2.6758,0 0,-3.038 2.291,0 z m -4.9668,-2.382 -5.6006,0 5.6006,-7.346 0,7.346 z"
           transform="translate(31.9102,146.446)"
           id="path67" /><path
           inkscape:connector-curvature="0"
           style="fill:#000000;fill-rule:nonzero;stroke:none"
           d="M 4.7168,2.131 4.7168,0 0,0 l 0,2.131 4.7168,0 z"
           transform="translate(46.877,154.111)"
           id="path69" /><path
           inkscape:connector-curvature="0"
           style="fill:#000000;fill-rule:nonzero;stroke:none"
           d="m 11.3379,10.364 c 0,-3.266 -2.1767,-5.602 -5.1924,-5.602 -1.1113,0 -1.9052,0.25 -3.0849,0.885 l 0.6132,-3.175 6.8477,0 0,-2.472 -9.0254,0 -1.292,8.118 2.6524,0.477 c 0.5898,-1.065 1.4287,-1.52 2.7216,-1.52 1.8145,0 3.084,1.361 3.084,3.289 0,1.95 -1.247,3.22 -3.1289,3.22 -1.4746,0 -2.3359,-0.703 -3.0615,-2.449 L 0,11.815 c 0.7481,2.585 2.8115,4.104 5.6465,4.104 3.3789,0 5.6914,-2.245 5.6914,-5.555 z"
           transform="translate(54.9951,146.446)"
           id="path71" /><path
           inkscape:connector-curvature="0"
           style="fill:#000000;fill-rule:nonzero;stroke:none"
           d="M 2.8564,1.429 C 2.8564,0.658 2.2217,0 1.4512,0 0.6348,0 0,0.658 0,1.429 c 0,0.793 0.6348,1.428 1.4287,1.428 0.793,0 1.4277,-0.635 1.4277,-1.428 z"
           transform="translate(69.2588,152.841)"
           id="path73" /><path
           inkscape:connector-curvature="0"
           style="fill:#000000;fill-rule:nonzero;stroke:none"
           d="M 11.1797,11.203 C 11.1797,9.615 10.6133,8.595 9.2979,7.869 10.5225,7.19 11.1123,6.169 11.1123,4.65 11.1123,1.77 9.0479,0 5.6465,0 2.3809,0 0.5899,1.588 0.2725,4.808 l 2.4717,0.34 C 2.8575,4.241 2.9707,3.856 3.2198,3.47 3.6963,2.767 4.5352,2.382 5.6924,2.382 c 1.7002,0 2.7207,0.884 2.7207,2.358 0,1.474 -0.8388,2.04 -3.0615,2.04 l -0.8389,0 0,2.155 0.8389,0 c 1.1113,0 1.6777,0.091 2.1543,0.363 0.5898,0.386 0.9756,1.134 0.9756,1.905 0,1.565 -1.0664,2.472 -2.7891,2.472 -0.9297,0 -1.7012,-0.25 -2.2226,-0.726 C 3.0391,12.541 2.8799,12.178 2.585,10.999 L 0,11.384 c 0.6348,3.152 2.4493,4.626 5.7823,4.626 3.3115,0 5.3974,-1.859 5.3974,-4.807 z"
           transform="translate(74.7236,146.287)"
           id="path75" /><path
           inkscape:connector-curvature="0"
           style="fill:#000000;fill-rule:evenodd;stroke:none"
           d="M 12.0865,8.096 C 12.0865,3.062 9.7969,0 6.0098,0 4.2861,0 2.7441,0.681 1.7236,1.882 0.6123,3.197 0,5.329 0,8.028 c 0,4.989 2.2676,7.959 6.1006,7.959 3.6504,0 5.9859,-3.083 5.9859,-7.891 z m -2.607,0.022 c 0,3.448 -1.293,5.443 -3.4922,5.443 -2.2451,0 -3.4248,-1.928 -3.4248,-5.601 0,-3.629 1.1563,-5.579 3.3565,-5.579 2.2675,0 3.5605,2.064 3.5605,5.737 z"
           transform="translate(89.3955,146.242)"
           id="path77" /><path
           inkscape:connector-curvature="0"
           style="fill:#000000;fill-rule:evenodd;stroke:none"
           d="M 10.491,5.943 C 10.491,2.446 8.433,0 5.463,0 4.205,0 3.427,0.32 2.422,1.302 l 0,-1.096 -2.422,0 0,15.999 2.422,0 0,-5.554 c 0.96,0.846 1.875,1.188 3.085,1.188 2.904,0 4.984,-2.468 4.984,-5.896 z M 7.908,6.011 c 0,2.149 -1.12,3.52 -2.834,3.52 C 4.297,9.531 3.679,9.256 3.176,8.754 2.628,8.206 2.468,7.543 2.468,5.874 c 0,-1.235 0.091,-1.898 0.388,-2.4 0.411,-0.685 1.28,-1.142 2.218,-1.142 1.76,0 2.834,1.416 2.834,3.679 z"
           transform="translate(110.266,150.557)"
           id="path79" /><path
           inkscape:connector-curvature="0"
           style="fill:#000000;fill-rule:evenodd;stroke:none"
           d="m 15.039,11.633 0,-6.536 C 15.039,3.337 14.902,2.468 14.49,1.783 13.873,0.639 12.662,0.023 11.175,0.023 9.804,0.023 8.867,0.48 8.044,1.554 7.427,0.503 6.467,0 5.142,0 4.022,0 3.267,0.342 2.399,1.212 l 0,-1.006 -2.399,0 0,11.427 2.399,0 0,-6.491 C 2.399,4.228 2.513,3.703 2.856,3.268 3.222,2.743 3.862,2.4 4.479,2.4 c 0.549,0 1.12,0.251 1.44,0.708 0.297,0.412 0.366,0.777 0.366,1.966 l 0,6.559 2.514,0 0,-6.559 C 8.799,4.023 8.867,3.633 9.142,3.268 9.53,2.719 10.17,2.377 10.81,2.377 c 0.708,0 1.28,0.342 1.555,0.914 0.159,0.342 0.205,0.823 0.205,1.783 l 0,6.559 2.469,0 z"
           transform="translate(123.477,150.557)"
           id="path81" /></g></g></g></svg>