<?xml version="1.0" encoding="UTF-8" standalone="no"?>
<!-- Created with Inkscape (http://www.inkscape.org/) -->

<svg
   xmlns:dc="http://purl.org/dc/elements/1.1/"
   xmlns:cc="http://creativecommons.org/ns#"
   xmlns:rdf="http://www.w3.org/1999/02/22-rdf-syntax-ns#"
   xmlns:svg="http://www.w3.org/2000/svg"
   xmlns="http://www.w3.org/2000/svg"
   xmlns:sodipodi="http://sodipodi.sourceforge.net/DTD/sodipodi-0.dtd"
   xmlns:inkscape="http://www.inkscape.org/namespaces/inkscape"
   id="svg17624"
   version="1.1"
   inkscape:version="0.48.4 r9939"
   width="200.2"
   height="200.2"
   xml:space="preserve"
   sodipodi:docname="AJAX1.svg"><metadata
     id="metadata17630"><rdf:RDF><cc:Work
         rdf:about=""><dc:format>image/svg+xml</dc:format><dc:type
           rdf:resource="http://purl.org/dc/dcmitype/StillImage" /><dc:title /></cc:Work></rdf:RDF></metadata><defs
     id="defs17628"><inkscape:perspective
       sodipodi:type="inkscape:persp3d"
       inkscape:vp_x="0 : 0.5 : 1"
       inkscape:vp_y="0 : 1000 : 0"
       inkscape:vp_z="1 : 0.5 : 1"
       inkscape:persp3d-origin="0.5 : 0.33333333 : 1"
       id="perspective17632" /><clipPath
       clipPathUnits="userSpaceOnUse"
       id="clipPath17642"><path
         d="m -2,710 501,0 0,-711 -501,0 0,711 z"
         id="path17644"
         inkscape:connector-curvature="0" /></clipPath><clipPath
       clipPathUnits="userSpaceOnUse"
       id="clipPath17648"><path
         d="m 0,708.06 498,0 0,-708 -498,0 0,708 z"
         id="path17650"
         inkscape:connector-curvature="0" /></clipPath><clipPath
       clipPathUnits="userSpaceOnUse"
       id="clipPath17798"><path
         d="m -2,710 501,0 0,-711 -501,0 0,711 z"
         id="path17800"
         inkscape:connector-curvature="0" /></clipPath><clipPath
       clipPathUnits="userSpaceOnUse"
       id="clipPath17804"><path
         d="m 0,708.06 498,0 0,-708 -498,0 0,708 z"
         id="path17806"
         inkscape:connector-curvature="0" /></clipPath><clipPath
       id="Clip0"><path
         inkscape:connector-curvature="0"
         d="m 0,0 212.597,0 0,269.292 L 0,269.292 0,0 z"
         transform="translate(0.923828,0.879883)"
         id="path7" /></clipPath></defs><sodipodi:namedview
     pagecolor="#ffffff"
     bordercolor="#666666"
     borderopacity="1"
     objecttolerance="10"
     gridtolerance="10"
     guidetolerance="10"
     inkscape:pageopacity="0"
     inkscape:pageshadow="2"
     inkscape:window-width="1280"
     inkscape:window-height="1004"
     id="namedview17626"
     showgrid="false"
     inkscape:zoom="3.6759909"
     inkscape:cx="82.171432"
     inkscape:cy="105.20593"
     inkscape:window-x="-8"
     inkscape:window-y="-8"
     inkscape:window-maximized="1"
     inkscape:current-layer="g17634"
     fit-margin-top="0.1"
     fit-margin-left="0.1"
     fit-margin-right="0.1"
     fit-margin-bottom="0.1"
     showguides="true"
     inkscape:guide-bbox="true" /><g
     id="g17634"
     inkscape:groupmode="layer"
     inkscape:label="GG1999P002"
     transform="matrix(1.25,0,0,-1.25,160.49062,77.404677)"><path
       sodipodi:nodetypes="sssss"
       inkscape:connector-curvature="0"
       id="path3787"
       d="m 31.6875,-18.156349 c 0,44.18241 -35.816846,80.000091 -80.000009,80.000091 -44.183435,0 -79.999991,-35.817587 -79.999991,-80.000001 0,-44.18334 35.816556,-80 79.999991,-80 44.183163,0 80.000009,35.81656 80.000009,79.9999 z"
       style="fill:#c0111e;fill-opacity:1;fill-rule:nonzero;stroke:none" /><path
       style="fill:#ffffff;fill-opacity:1;fill-rule:nonzero;stroke:none"
       d="m 5.021104,-18.15632 c 0,29.455087 -23.878016,53.333659 -53.333604,53.333659 -29.45577,0 -53.3336,-23.878509 -53.3336,-53.333599 0,-29.455706 23.87783,-53.333598 53.3336,-53.333598 29.455588,0 53.333604,23.877825 53.333604,53.333532 z"
       id="path3033"
       inkscape:connector-curvature="0"
       sodipodi:nodetypes="sssss" /><path
       style="fill:#000000;fill-rule:evenodd;stroke:none"
       d="m -72.097111,-11.237006 c -1.920063,0 -3.610483,0.585236 -5.067503,1.759378 -1.45797,1.174049 -2.18742,2.560329 -2.18742,4.160723 0,2.098329 0.90669,3.7510291 2.72025,4.96092004 1.38723,0.960123 2.88009,1.43961996 4.480486,1.43961996 2.168979,0 3.911801,-0.49699496 5.228278,-1.49380696 1.492867,-1.13735994 2.239724,-2.77256104 2.239724,-4.90673304 0,-1.671138 -0.711015,-3.075763 -2.133137,-4.214063 -1.387221,-1.13736 -3.147447,-1.706038 -5.280678,-1.706038 z m 0.266418,-26.029822 c -2.453841,0 -4.658751,0.904995 -6.614651,2.71875 -1.92006,1.814694 -2.88009,3.85959 -2.88009,6.135156 0,2.34725 1.08496,4.426294 3.25403,6.240706 1.95591,1.600395 3.87596,2.400592 5.76112,2.400592 2.701911,0 5.030817,-0.782793 6.986717,-2.347252 2.062488,-1.70698 3.094107,-3.858554 3.094107,-6.45482 0,-2.452896 -0.960876,-4.515288 -2.881028,-6.18699 -1.920059,-1.671703 -4.160723,-2.506142 -6.720205,-2.506142 z m 11.040856,22.34869 c 2.880088,2.311408 4.320649,5.636186 4.320649,9.975179 0,4.08819108 -1.475463,7.556243 -4.427235,10.400489 -2.950834,2.845186 -6.702803,4.267402 -11.254875,4.267402 -4.231556,0 -7.858506,-1.475462 -10.881026,-4.427235 -3.02251,-2.951772 -4.53382,-6.4180369 -4.53382,-10.401429 0,-2.346404 0.40885,-4.320649 1.22739,-5.920102 0.67527,-1.316478 1.81263,-2.721196 3.41293,-4.215004 -4.48049,-2.986674 -6.72021,-7.111554 -6.72021,-12.373887 0,-4.872303 1.79513,-9.104709 5.38727,-12.695529 3.62694,-3.59082 7.76932,-5.385762 12.428071,-5.385762 5.440511,0 9.796061,1.687698 13.068441,5.064968 3.199847,3.272848 4.800147,7.610619 4.800147,13.016323 0,4.765244 -2.275566,8.996805 -6.827732,12.694587 z"
       id="path11-5"
       inkscape:connector-curvature="0" /><path
       style="fill:#000000;fill-rule:evenodd;stroke:none"
       d="m -25.745335,-45.694016 c 12.446989,0 18.669069,9.225879 18.669069,27.682618 0,18.49145204 -6.22208,27.73633 -18.669069,27.73633 -12.446419,0 -18.668782,-9.24487796 -18.668782,-27.73633 0,-18.456739 6.222363,-27.682618 18.668782,-27.682618 z m 0,8.159075 c -6.934224,0 -10.40143,6.508349 -10.40143,19.523543 0,13.014158 3.467206,19.522225 10.40143,19.522225 6.898477,0 10.348181,-6.508067 10.348181,-19.522225 0,-13.015194 -3.449704,-19.523543 -10.348181,-19.523543 z"
       id="path13-5"
       inkscape:connector-curvature="0" /></g></svg>