<?xml version="1.0" encoding="UTF-8" standalone="no"?>
<!-- Created with Inkscape (http://www.inkscape.org/) -->

<svg
   xmlns:dc="http://purl.org/dc/elements/1.1/"
   xmlns:cc="http://creativecommons.org/ns#"
   xmlns:rdf="http://www.w3.org/1999/02/22-rdf-syntax-ns#"
   xmlns:svg="http://www.w3.org/2000/svg"
   xmlns="http://www.w3.org/2000/svg"
   xmlns:sodipodi="http://sodipodi.sourceforge.net/DTD/sodipodi-0.dtd"
   xmlns:inkscape="http://www.inkscape.org/namespaces/inkscape"
   id="svg17624"
   version="1.1"
   inkscape:version="0.48.2 r9819"
   width="360.62769"
   height="360.61237"
   xml:space="preserve"
   sodipodi:docname="AJAX.svg"><metadata
     id="metadata17630"><rdf:RDF><cc:Work
         rdf:about=""><dc:format>image/svg+xml</dc:format><dc:type
           rdf:resource="http://purl.org/dc/dcmitype/StillImage" /><dc:title /></cc:Work></rdf:RDF></metadata><defs
     id="defs17628"><inkscape:perspective
       sodipodi:type="inkscape:persp3d"
       inkscape:vp_x="0 : 0.5 : 1"
       inkscape:vp_y="0 : 1000 : 0"
       inkscape:vp_z="1 : 0.5 : 1"
       inkscape:persp3d-origin="0.5 : 0.33333333 : 1"
       id="perspective17632" /><clipPath
       clipPathUnits="userSpaceOnUse"
       id="clipPath17642"><path
         d="m -2,710 501,0 0,-711 -501,0 0,711 z"
         id="path17644"
         inkscape:connector-curvature="0" /></clipPath><clipPath
       clipPathUnits="userSpaceOnUse"
       id="clipPath17648"><path
         d="m 0,708.06 498,0 0,-708 -498,0 0,708 z"
         id="path17650"
         inkscape:connector-curvature="0" /></clipPath><clipPath
       clipPathUnits="userSpaceOnUse"
       id="clipPath17798"><path
         d="m -2,710 501,0 0,-711 -501,0 0,711 z"
         id="path17800"
         inkscape:connector-curvature="0" /></clipPath><clipPath
       clipPathUnits="userSpaceOnUse"
       id="clipPath17804"><path
         d="m 0,708.06 498,0 0,-708 -498,0 0,708 z"
         id="path17806"
         inkscape:connector-curvature="0" /></clipPath><clipPath
       id="Clip0"><path
         inkscape:connector-curvature="0"
         d="m 0,0 212.597,0 0,269.292 L 0,269.292 0,0 z"
         transform="translate(0.923828,0.879883)"
         id="path7" /></clipPath><clipPath
       id="Clip0-8"><path
         inkscape:connector-curvature="0"
         d="m 0,0 170.079,0 0,113.386 L 0,113.386 0,0 z"
         transform="translate(0.0986328,0.822266)"
         id="path7-8" /></clipPath><clipPath
       id="Clip0-1"><path
         inkscape:connector-curvature="0"
         d="m 0,0 287.009,0 0,159.449 L 0,159.449 0,0 z"
         transform="translate(0.396484,0.267578)"
         id="path7-7" /></clipPath><clipPath
       id="Clip0-9"><path
         inkscape:connector-curvature="0"
         d="m 0,0 170.079,0 0,170.079 L 0,170.079 0,0 z"
         transform="translate(0.460938,0.775391)"
         id="path7-4" /></clipPath><clipPath
       id="Clip0-4"><path
         inkscape:connector-curvature="0"
         d="m 0,0 340.157,0 0,226.771 L 0,226.771 0,0 z"
         transform="translate(0.921875,0.25293)"
         id="path7-5" /></clipPath><clipPath
       id="Clip0-5"><path
         inkscape:connector-curvature="0"
         d="m 0,0 255.119,0 0,170.079 L 0,170.079 0,0 z"
         transform="translate(0.147461,0.0595703)"
         id="path7-1" /></clipPath><clipPath
       id="Clip0-0"><path
         inkscape:connector-curvature="0"
         d="m 0,0 170.079,0 0,113.386 L 0,113.386 0,0 z"
         transform="translate(0.0673828,0.207031)"
         id="path7-9" /></clipPath></defs><sodipodi:namedview
     pagecolor="#ffffff"
     bordercolor="#666666"
     borderopacity="1"
     objecttolerance="10"
     gridtolerance="10"
     guidetolerance="10"
     inkscape:pageopacity="0"
     inkscape:pageshadow="2"
     inkscape:window-width="1280"
     inkscape:window-height="1004"
     id="namedview17626"
     showgrid="false"
     inkscape:zoom="1.4142136"
     inkscape:cx="113.95484"
     inkscape:cy="203.95033"
     inkscape:window-x="-8"
     inkscape:window-y="-8"
     inkscape:window-maximized="1"
     inkscape:current-layer="g17634"
     fit-margin-top="0"
     fit-margin-left="0"
     fit-margin-right="0"
     fit-margin-bottom="0"
     showguides="true"
     inkscape:guide-bbox="true" /><g
     id="g17634"
     inkscape:groupmode="layer"
     inkscape:label="GG1999P002"
     transform="matrix(1.25,0,0,-1.25,2887.2896,-1110.4028)"><path
       inkscape:connector-curvature="0"
       style="fill:#ffdb00;fill-rule:nonzero;stroke:none"
       d="m -2025.63,-1022.1856 c 5.734,-5.733 5.734,-15.029 0,-20.764 l -129.572,-129.562 c -5.734,-5.734 -15.03,-5.734 -20.763,0 l -129.5666,129.562 c -5.7334,5.735 -5.7334,15.031 0,20.764 l 129.5716,129.56261 c 5.733,5.73438 15.03,5.73438 20.763,0 l 129.566,-129.56261 z"
       id="path11" /><path
       inkscape:connector-curvature="0"
       style="fill:#000000;fill-rule:nonzero;stroke:none"
       d="m -2303.2837,-1040.1944 c -4.0966,4.096 -4.0966,10.737 0,14.832 l 130.2854,130.28336 c 4.096,4.0957 10.737,4.0957 14.834,0 l 130.289,-130.28336 c 4.095,-4.095 4.095,-10.736 0,-14.832 l -130.287,-130.283 c -4.095,-4.096 -10.736,-4.096 -14.833,0 l -130.2874,130.283 z"
       id="path13" /><path
       inkscape:connector-curvature="0"
       style="fill:#ffdb00;fill-rule:nonzero;stroke:none"
       d="m -2299.4759,-1036.2244 c -1.9923,1.992 -1.9923,5.223 0,7.216 l 130.2857,130.28191 c 1.992,1.99315 5.224,1.99315 7.216,0 l 130.289,-130.28191 c 1.992,-1.993 1.992,-5.224 0,-7.216 l -130.286,-130.283 c -1.992,-1.993 -5.224,-1.993 -7.216,0 l -130.2887,130.283 z"
       id="path15" /><path
       inkscape:connector-curvature="0"
       style="fill:#000000;fill-rule:nonzero;stroke:none"
       d="m -2124.562,-1076.8946 -0.73,7.834 c -0.035,0.332 -0.131,0.664 -0.293,0.979 -0.701,1.356 -2.37,1.887 -3.725,1.186 -0.487,-0.252 -0.864,-0.62 -1.119,-1.061 l -20.467,-34.482 39.953,-3.24 c 0.507,-0.046 1.033,0.048 1.52,0.298 1.354,0.701 1.886,2.37 1.186,3.726 -0.16,0.309 -0.39,0.592 -0.634,0.811 l -6.107,5.25 c 19.616,16.595 30.753,42.443 27.391,69.848 -1.33,10.848 -4.8,20.915 -9.944,29.81601 l -17.569,-10.14801 c 3.817,-6.609 6.397,-14.091 7.385,-22.144 2.29,-18.661 -4.478,-36.362 -16.847,-48.673 z"
       id="path17" /><path
       inkscape:connector-curvature="0"
       style="fill:#000000;fill-rule:nonzero;stroke:none"
       d="m -2165.818,-1093.9076 0,-20.285 c -37.853,-0.054 -70.787,27.164 -77.5262,64.913 l -7.6494,-2.682 c -0.3106,-0.103 -0.6719,-0.16 -1.0176,-0.144 -1.5244,0.07 -2.7031,1.365 -2.6328,2.891 0.024,0.544 0.208,1.047 0.5,1.463 l 22.7926,32.983 19.6201,-34.957 c 0.2549,-0.441 0.3857,-0.951 0.3593,-1.499 -0.07,-1.525 -1.3652,-2.705 -2.8906,-2.634 -0.3535,0.016 -0.6875,0.099 -0.9941,0.235 l -7.1436,3.258 c 6.7403,-25.595 30.0469,-43.583 56.5839,-43.542 z"
       id="path19" /><path
       inkscape:connector-curvature="0"
       style="fill:#000000;fill-rule:nonzero;stroke:none"
       d="m -2216.4986,-1006.1046 -17.5664,10.13101 c 11.9571,20.6748 33.13,35.6944 58.658,38.835 12.71,1.5625 25.085,0.008 36.358,-4.0674 l 1.481,7.9101 c 0.067,0.3204 0.197,0.6612 0.386,0.9542 0.824,1.2851 2.534,1.6601 3.82,0.8359 0.458,-0.2949 0.803,-0.7041 1.017,-1.1651 l 17.16,-36.2247 -40.087,0.476 c -0.51,9.6e-4 -1.018,0.142 -1.477,0.437 -1.287,0.8244 -1.66,2.5354 -0.835,3.8215 0.19,0.2979 0.43,0.5469 0.7,0.7442 l 6.428,4.5566 c -7.115,1.9375 -14.709,2.5488 -22.482,1.5928 -18.952,-2.3311 -34.679,-13.4911 -43.5606,-28.83711 z"
       id="path21" /></g></svg>