<?xml version="1.0" encoding="UTF-8" standalone="no"?>
<!-- Created with Inkscape (http://www.inkscape.org/) -->

<svg
   xmlns:dc="http://purl.org/dc/elements/1.1/"
   xmlns:cc="http://creativecommons.org/ns#"
   xmlns:rdf="http://www.w3.org/1999/02/22-rdf-syntax-ns#"
   xmlns:svg="http://www.w3.org/2000/svg"
   xmlns="http://www.w3.org/2000/svg"
   xmlns:sodipodi="http://sodipodi.sourceforge.net/DTD/sodipodi-0.dtd"
   xmlns:inkscape="http://www.inkscape.org/namespaces/inkscape"
   id="svg17624"
   version="1.1"
   inkscape:version="0.48.4 r9939"
   width="214.2"
   height="301.59988"
   xml:space="preserve"
   sodipodi:docname="Ajax.svg"><metadata
     id="metadata17630"><rdf:RDF><cc:Work
         rdf:about=""><dc:format>image/svg+xml</dc:format><dc:type
           rdf:resource="http://purl.org/dc/dcmitype/StillImage" /><dc:title /></cc:Work></rdf:RDF></metadata><defs
     id="defs17628"><inkscape:perspective
       sodipodi:type="inkscape:persp3d"
       inkscape:vp_x="0 : 0.5 : 1"
       inkscape:vp_y="0 : 1000 : 0"
       inkscape:vp_z="1 : 0.5 : 1"
       inkscape:persp3d-origin="0.5 : 0.33333333 : 1"
       id="perspective17632" /><clipPath
       clipPathUnits="userSpaceOnUse"
       id="clipPath17642"><path
         d="m -2,710 501,0 0,-711 -501,0 0,711 z"
         id="path17644"
         inkscape:connector-curvature="0" /></clipPath><clipPath
       clipPathUnits="userSpaceOnUse"
       id="clipPath17648"><path
         d="m 0,708.06 498,0 0,-708 -498,0 0,708 z"
         id="path17650"
         inkscape:connector-curvature="0" /></clipPath><clipPath
       clipPathUnits="userSpaceOnUse"
       id="clipPath17798"><path
         d="m -2,710 501,0 0,-711 -501,0 0,711 z"
         id="path17800"
         inkscape:connector-curvature="0" /></clipPath><clipPath
       clipPathUnits="userSpaceOnUse"
       id="clipPath17804"><path
         d="m 0,708.06 498,0 0,-708 -498,0 0,708 z"
         id="path17806"
         inkscape:connector-curvature="0" /></clipPath></defs><sodipodi:namedview
     pagecolor="#ffffff"
     bordercolor="#666666"
     borderopacity="1"
     objecttolerance="10"
     gridtolerance="10"
     guidetolerance="10"
     inkscape:pageopacity="0"
     inkscape:pageshadow="2"
     inkscape:window-width="1280"
     inkscape:window-height="1001"
     id="namedview17626"
     showgrid="false"
     inkscape:zoom="1.4158115"
     inkscape:cx="96.713754"
     inkscape:cy="206.47777"
     inkscape:window-x="-8"
     inkscape:window-y="-8"
     inkscape:window-maximized="1"
     inkscape:current-layer="g17634"
     fit-margin-top="0.8"
     fit-margin-left="0.8"
     fit-margin-right="0.8"
     fit-margin-bottom="0.8"
     showguides="true"
     inkscape:guide-bbox="true" /><g
     id="g17634"
     inkscape:groupmode="layer"
     inkscape:label="GG1999P002"
     transform="matrix(1.25,0,0,-1.25,98.286986,202.39015)"><path
       inkscape:connector-curvature="0"
       style="fill:#ffffff;fill-rule:nonzero;stroke:#000000;stroke-opacity:1;stroke-width:0.96;stroke-miterlimit:4;stroke-dasharray:none"
       d="m -77.989589,144.26432 c 0,9.39354 7.61523,17.0078 17.0078,17.0078 l 136.0642,0 c 9.393,0 17.008,-7.61426 17.008,-17.0078 l 0,-205.985099 c 0,-9.393 -7.615,-17.007 -17.008,-17.007 l -136.0642,0 c -9.39257,0 -17.0078,7.614 -17.0078,17.007 z"
       id="path11"
       sodipodi:nodetypes="sssssssss" /><path
       inkscape:connector-curvature="0"
       style="fill:#c0111e;fill-opacity:1;fill-rule:nonzero;stroke:none"
       d="m -75.154629,144.26434 c 0,7.8281 6.3457,14.1738 14.1739,14.1738 l 136.0631,0 c 7.828,0 14.174,-6.3457 14.174,-14.1738 l 0,-205.985099 c 0,-7.828 -6.346,-14.173 -14.174,-14.173 l -136.0631,0 c -7.8282,0 -14.1739,6.345 -14.1739,14.173 z"
       id="path13"
       sodipodi:nodetypes="sssssssss" /><path
       inkscape:connector-curvature="0"
       style="fill:#ffffff;fill-rule:nonzero;stroke:none"
       d="m -70.902679,144.26434 c 0,5.4795 4.44241,9.92184 9.92191,9.92184 l 136.06309,0 c 5.479,0 9.922,-4.44234 9.922,-9.92184 l 0,-205.985059 c 0,-5.479 -4.443,-9.921 -9.922,-9.921 l -136.06309,0 c -5.4795,0 -9.92191,4.442 -9.92191,9.921 z"
       id="path15"
       sodipodi:nodetypes="sssssssss" /><path
       inkscape:connector-curvature="0"
       style="fill:#000000;fill-rule:nonzero;stroke:none"
       d="m -55.296789,104.61694 c 1.00042,-2.87535 2.92447,-5.288267 5.77473,-7.238777 2.617,-1.77032 5.17172,-2.65554 7.66023,-2.65554 3.74729,0 6.73797,1.15416 8.97071,3.46505 2.23274,2.309667 3.3485,5.298997 3.3485,8.969477 0,2.41293 -0.6798,4.56887 -2.03925,6.46768 -1.23231,1.66828 -2.90059,3.01579 -5.00483,4.04281 -0.95009,0.46107 -2.37453,0.7817 -4.27335,0.96202 -2.15729,0.23054 -3.53004,0.43597 -4.11974,0.61616 -0.76975,0.23053 -1.43761,0.7182 -2.0022,1.46285 -0.56446,0.76989 -0.84669,1.57818 -0.84669,2.42487 0,1.33571 0.53935,2.57996 1.61658,3.73534 1.10381,1.18062 2.37453,1.74521 3.81092,1.69352 3.02908,-0.0769 4.96643,-1.41129 5.81448,-4.00441 l 5.69643,1.73313 c -1.10246,2.9006 -2.52691,5.03008 -4.27199,6.39089 -1.71997,1.35958 -3.90101,2.0406 -6.54461,2.0406 -3.25962,0 -6.04488,-1.09188 -8.35455,-3.27292 -2.41293,-2.30954 -3.61879,-5.24866 -3.61879,-8.81575 0,-2.92705 1.02702,-5.26183 3.07957,-7.0069 1.84847,-1.56625 3.70888,-2.45147 5.58245,-2.65677 3.66913,-0.41086 6.22385,-1.14221 7.66024,-2.19433 1.33571,-1.00043 2.0022,-2.52827 2.0022,-4.58082 0,-1.30911 -0.58969,-2.52826 -1.77031,-3.65718 -1.15538,-1.10381 -2.34794,-1.65633 -3.58039,-1.65633 -2.23274,0 -3.99111,0.41073 -5.27498,1.23231 -1.25756,0.82158 -2.42501,2.30953 -3.50359,4.46547 l -5.81177,-1.96245 z"
       id="path17" /><path
       inkscape:connector-curvature="0"
       style="fill:#000000;fill-rule:nonzero;stroke:none"
       d="m -22.534359,133.95272 0,-5.65939 8.85415,0 0,-32.839217 5.8131302,0 0,32.839217 8.81575,0 0,5.65939 -23.4830302,0 z"
       id="path19" /><path
       inkscape:connector-curvature="0"
       style="fill:#000000;fill-rule:evenodd;stroke:none"
       d="m 21.352141,94.722623 c 4.95274,0 8.5471,2.12948 10.77915,6.389517 1.74495,3.33791 2.61877,7.88018 2.61877,13.62967 0,5.82642 -1.14249,10.56083 -3.4261,14.20621 -2.41388,3.84932 -5.73688,5.77459 -9.97182,5.77459 -9.03435,0 -13.5515198,-6.66117 -13.5515198,-19.9808 0,-6.80161 1.25741,-11.90834 3.7723798,-15.323047 2.31103,-3.13126 5.57065,-4.69614 9.77914,-4.69614 z m 0,6.082057 c -5.03008,0 -7.54504,4.64579 -7.54504,13.93713 0,4.8511 0.64139,8.37979 1.92404,10.58607 1.20708,2.10546 3.08079,3.15758 5.621,3.15758 4.77416,0 7.16036,-4.58067 7.16036,-13.74365 0,-4.8762 -0.58888,-8.44465 -1.76936,-10.70262 -1.15606,-2.15581 -2.95284,-3.23451 -5.391,-3.23451 z"
       id="path21" /><path
       inkscape:connector-curvature="0"
       style="fill:#000000;fill-rule:evenodd;stroke:none"
       d="m 49.610556,128.25357 8.89296,0 c 1.232048,0 2.321616,-0.47436 3.271424,-1.42445 0.975592,-0.92348 1.462712,-1.94915 1.462712,-3.07942 0,-1.48809 -0.411128,-2.7588 -1.230688,-3.81092 -0.822264,-1.05212 -1.87384,-1.57818 -3.15744,-1.57818 l -9.238968,0 0,9.89297 z m -5.967536,5.69915 0,-38.498607 5.967536,0 0,16.823067 7.968928,0 c 3.43832,0 6.28776,1.11712 8.54696,3.34986 2.180496,2.18104 3.271416,4.8762 3.271416,8.08426 0,2.87399 -1.09092,5.30022 -3.271416,7.27597 -2.181864,1.97697 -4.762632,2.96423 -7.738264,2.96545 l -14.74516,0 z"
       id="path23" /><path
       inkscape:connector-curvature="0"
       style="fill:#000000;fill-rule:evenodd;stroke:none"
       d="m -42.497089,-6.7277776 c 2.7588,0 4.8379,1.3226 6.2363,3.9681 1.3038,2.51369992 1.9551,6.1035 1.9551,10.7715 0,9.8076006 -2.7119,14.7109006 -8.1347,14.7109006 -5.5557,0 -8.334,-4.9033 -8.334,-14.7109006 0,-9.8262 2.7588,-14.7396 8.2773,-14.7396 z m 0,4.0814 c -1.6064,0 -2.75,1.0303 -3.4297,3.08979992 -0.5488,1.68170008 -0.8222,4.20510008 -0.8222,7.56840008 0,7.1807006 1.417,10.7715006 4.2519,10.7715006 2.8154,0 4.2236,-3.5908 4.2236,-10.7715006 0,-7.10550008 -1.4082,-10.6582 -4.2236,-10.6582 z"
       id="path25" /><path
       inkscape:connector-curvature="0"
       style="fill:#000000;fill-rule:nonzero;stroke:none"
       d="m -28.352589,22.156323 0,-28.3461006 3.9112,0 0,18.6235006 8.4472,-18.6235006 3.2315,0 0,28.3461006 -4.1104,0 0,-16.3838006 -7.5683,16.3838006 -3.9112,0 z"
       id="path27" /><path
       inkscape:connector-curvature="0"
       style="fill:#000000;fill-rule:evenodd;stroke:none"
       d="m 20.145511,7.6153224 c 1.2477,0.4336 2.2587,1.3506 3.0327,2.7490006 0.7,1.2852 1.049,2.6553 1.049,4.1104 0,1.8711 -0.576,3.5898 -1.728,5.1592 -1.229,1.6816 -2.6838,2.5224 -4.3664,2.5224 l -9.4950998,0 0,-28.3461006 3.9110998,0 0,13.1528 3.6856,0 3.7695,-13.1528 4.2233,0 -4.0817,13.8051 z m -2.6358,3.4297006 -4.9609,0 0,7.0576 4.9893,0 c 1.7011,0 2.5507,-1.1621 2.5507,-3.4863 0,-0.9453 -0.208,-1.7481 -0.623,-2.4092 -0.4727,-0.7754 -1.125,-1.1621 -1.9561,-1.1621 z"
       id="path29" /><path
       inkscape:connector-curvature="0"
       style="fill:#000000;fill-rule:nonzero;stroke:none"
       d="m 30.208211,22.156323 0,-28.3461006 14.173003,0 0,3.9975 -10.289003,0 0,9.3535 6.037003,0 0,3.8838006 -6.037003,0 0,7.1143 9.836003,0 0,3.997 -13.720003,0 z"
       id="path31" /><path
       inkscape:connector-curvature="0"
       style="fill:#000000;fill-rule:evenodd;stroke:none"
       d="m 55.719214,22.156323 -6.434,0 0,-28.3461006 6.434,0 c 3.59,0 6.084,1.4077 7.482992,4.2241 1.115008,2.22949992 1.673008,5.8007 1.673008,10.7148 0,4.1758006 -0.606,7.3408006 -1.815,9.4961006 -1.473,2.6074 -3.921,3.9111 -7.341,3.9111 z m -0.142008,-3.9111 c 2.174008,0 3.647008,-0.9736 4.422008,-2.9199 0.528992,-1.3418 0.794,-3.5625 0.794,-6.6621006 l 0,-1.6153 c 0,-2.9101 -0.237008,-5.0078 -0.709008,-6.29290008 -0.717992,-1.96489992 -2.098,-2.94729992 -4.138992,-2.94729992 l -2.721,0 0,20.4375006 2.352992,0 z"
       id="path33" /><path
       inkscape:connector-curvature="0"
       style="fill:#000000;fill-rule:nonzero;stroke:none"
       d="m -48.095989,-43.392182 c 0,-2.815 0.7744,-5.017 2.3242,-6.605 1.417,-1.455 3.2403,-2.181 5.4707,-2.181 2.1729,0 3.9874,0.718 5.4424,2.153 1.5118,1.512 2.2676,3.496 2.2676,5.953 0,4.762 -2.7217,8.485 -8.1641,11.168 -1.2851,0.624 -1.9267,1.72 -1.9267,3.288 0,0.813 0.3584,1.522 1.0771,2.126 0.6612,0.568 1.3887,0.851 2.1827,0.851 0.6992,0 1.3701,-0.369 2.0127,-1.106 0.6611,-0.718 0.9912,-1.436 0.9912,-2.154 l 3.9121,0 c 0,2.041 -0.6612,3.741 -1.9844,5.102 -1.3037,1.38 -2.9473,2.069 -4.9316,2.069 -1.9092,0 -3.5811,-0.651 -5.0176,-1.956 -1.5117,-1.341 -2.2676,-2.966 -2.2676,-4.875 0,-1.266 0.2734,-2.466 0.8223,-3.6 0.5478,-1.115 1.2939,-2.012 2.2392,-2.693 1.3037,-0.793 2.6074,-1.587 3.9121,-2.381 1.3789,-0.982 2.3145,-2.277 2.8057,-3.883 0.208,-0.68 0.3115,-1.333 0.3115,-1.956 0,-1.21 -0.3398,-2.22 -1.0205,-3.033 -0.6611,-0.812 -1.5488,-1.21 -2.6641,-1.19 -1.3417,0.018 -2.3056,0.424 -2.8916,1.218 -0.5664,0.794 -0.8593,2.023 -0.8779,3.685 l -4.0254,0 z"
       id="path35" /><path
       inkscape:connector-curvature="0"
       style="fill:#000000;fill-rule:nonzero;stroke:none"
       d="m -26.525689,-51.640182 3.9688,0 0,28.346 -3.9688,0 0,-28.346 z"
       id="path37" /><path
       inkscape:connector-curvature="0"
       style="fill:#000000;fill-rule:nonzero;stroke:none"
       d="m -5.1242886,-30.070182 4.1094,0 c 0,2.042 -0.7461,3.771 -2.2393,5.188 -1.4736,1.436 -3.2314,2.154 -5.2724,2.154 -3.2315004,0 -5.4893004,-1.757 -6.7745004,-5.271 -0.8691,-2.344 -1.3037,-5.632 -1.3037,-9.866 0,-3.779 0.4532,-6.841 1.3604,-9.183 1.3418,-3.421 3.581,-5.13 6.7178004,-5.13 1.5693,0 2.9765,0.387 4.2236,1.161 1.1338,0.699 1.9561,1.588 2.4668,2.665 0.5098,1.096 0.7646,2.721 0.7646,4.875 l 0,5.612 -7.2558,0 0,-4.081 3.4013,0 0,-3.203 c 0,-0.794 -0.3974,-1.512 -1.1904,-2.154 -0.7754,-0.643 -1.5781,-0.964 -2.4101,-0.964 -2.6827004,0 -4.0245004,3.231 -4.0245004,9.694 l 0,1.7 c 0,6.728 1.3418,10.092 4.0245004,10.092 1.04,0 1.8623,-0.293 2.4668,-0.879 0.623,-0.567 0.9355,-1.37 0.9355,-2.41 z"
       id="path39" /><path
       inkscape:connector-curvature="0"
       style="fill:#000000;fill-rule:nonzero;stroke:none"
       d="m 4.9665114,-23.294182 0,-28.346 3.9112,0 0,18.623 8.4471996,-18.623 3.2315,0 0,28.346 -4.1104,0 0,-16.384 -7.5682996,16.384 -3.9112,0 z"
       id="path41" /><path
       inkscape:connector-curvature="0"
       style="fill:#000000;fill-rule:evenodd;stroke:none"
       d="m 32.093311,-39.849182 1.984,7.626 2.012,-7.626 -3.996,0 z m -6.775,-11.791 4.11,0 1.9,7.88 5.782,0 2.041003,-7.88 4.054,0 -7.116003,28.346 -3.996,0 -6.775,-28.346 z"
       id="path43" /><path
       inkscape:connector-curvature="0"
       style="fill:#000000;fill-rule:nonzero;stroke:none"
       d="m 48.023314,-23.294182 0,-28.346 14.173,0 0,3.741 -10.149,0 0,24.605 -4.024,0 z"
       id="path45" /><path
       inkscape:connector-curvature="0"
       style="fill:#000000;fill-rule:nonzero;stroke:none"
       d="m -47.519189,78.722623 0,-40 5.68574,0 0,18.16522 10.99951,0 0,-18.16522 5.31364,0 0,40 -5.31364,0 0,-16.19038 -10.99951,0 0,16.19038 -5.68574,0 z"
       id="path17-1" /><path
       inkscape:connector-curvature="0"
       style="fill:#000000;fill-rule:nonzero;stroke:none"
       d="m -16.709259,78.722623 0,-40 19.9993702,0 0,5.6444 -14.5106102,0 0,13.20294 8.5148502,0 0,5.46928 -8.5148502,0 0,10.03899 13.8670102,0 0,5.64439 -19.3557702,0 z"
       id="path19-7" /><path
       id="path3786"
       d="m 27.421181,58.202983 c 1.76063,0.61185 3.18724,1.90582 4.27943,3.87912 0.98777,1.81354 1.48025,3.74689 1.48025,5.80018 0,2.64031 -0.81278,5.06556 -2.43837,7.28014 -1.73424,2.3729 -3.78712,3.55936 -6.16143,3.55936 l -13.39853,0 0,-39.99916 5.51895,0 0,18.5599 5.20075,0 5.31914,-18.5599 5.95949,0 -5.75968,19.48036 z m -3.71938,4.83965 -7.00032,0 0,9.95897 7.04039,0 c 2.40043,0 3.5993,-1.63984 3.5993,-4.91952 0,-1.3339 -0.29351,-2.46673 -0.87912,-3.39961 -0.66703,-1.09417 -1.58749,-1.63984 -2.76025,-1.63984 z"
       style="fill:#000000;fill-rule:evenodd;stroke:none"
       inkscape:connector-curvature="0" /><path
       id="path3788"
       d="m 41.620646,78.721783 0,-39.99916 19.999496,0 0,5.64086 -14.5188,0 0,13.19872 8.518816,0 0,5.48043 -8.518816,0 0,10.03897 13.879584,0 0,5.64018 -19.36028,0 z"
       style="fill:#000000;fill-rule:nonzero;stroke:none"
       inkscape:connector-curvature="0" /></g></svg>