<?xml version="1.0" encoding="UTF-8" standalone="no"?>
<!-- Created with Inkscape (http://www.inkscape.org/) -->

<svg
   xmlns:dc="http://purl.org/dc/elements/1.1/"
   xmlns:cc="http://creativecommons.org/ns#"
   xmlns:rdf="http://www.w3.org/1999/02/22-rdf-syntax-ns#"
   xmlns:svg="http://www.w3.org/2000/svg"
   xmlns="http://www.w3.org/2000/svg"
   xmlns:sodipodi="http://sodipodi.sourceforge.net/DTD/sodipodi-0.dtd"
   xmlns:inkscape="http://www.inkscape.org/namespaces/inkscape"
   id="svg17624"
   version="1.1"
   inkscape:version="0.48.2 r9819"
   width="320.11719"
   height="107.5"
   xml:space="preserve"
   sodipodi:docname="AA.svg"><metadata
     id="metadata17630"><rdf:RDF><cc:Work
         rdf:about=""><dc:format>image/svg+xml</dc:format><dc:type
           rdf:resource="http://purl.org/dc/dcmitype/StillImage" /><dc:title /></cc:Work></rdf:RDF></metadata><defs
     id="defs17628"><inkscape:perspective
       sodipodi:type="inkscape:persp3d"
       inkscape:vp_x="0 : 0.5 : 1"
       inkscape:vp_y="0 : 1000 : 0"
       inkscape:vp_z="1 : 0.5 : 1"
       inkscape:persp3d-origin="0.5 : 0.33333333 : 1"
       id="perspective17632" /><clipPath
       clipPathUnits="userSpaceOnUse"
       id="clipPath17642"><path
         d="m -2,710 501,0 0,-711 -501,0 0,711 z"
         id="path17644"
         inkscape:connector-curvature="0" /></clipPath><clipPath
       clipPathUnits="userSpaceOnUse"
       id="clipPath17648"><path
         d="m 0,708.06 498,0 0,-708 -498,0 0,708 z"
         id="path17650"
         inkscape:connector-curvature="0" /></clipPath><clipPath
       clipPathUnits="userSpaceOnUse"
       id="clipPath17798"><path
         d="m -2,710 501,0 0,-711 -501,0 0,711 z"
         id="path17800"
         inkscape:connector-curvature="0" /></clipPath><clipPath
       clipPathUnits="userSpaceOnUse"
       id="clipPath17804"><path
         d="m 0,708.06 498,0 0,-708 -498,0 0,708 z"
         id="path17806"
         inkscape:connector-curvature="0" /></clipPath><clipPath
       id="Clip0"><path
         inkscape:connector-curvature="0"
         d="m 0,0 212.597,0 0,269.292 L 0,269.292 0,0 z"
         transform="translate(0.923828,0.879883)"
         id="path7" /></clipPath><clipPath
       id="Clip0-8"><path
         inkscape:connector-curvature="0"
         d="m 0,0 170.079,0 0,113.386 L 0,113.386 0,0 z"
         transform="translate(0.0986328,0.822266)"
         id="path7-8" /></clipPath><clipPath
       id="Clip0-1"><path
         inkscape:connector-curvature="0"
         d="m 0,0 287.009,0 0,159.449 L 0,159.449 0,0 z"
         transform="translate(0.396484,0.267578)"
         id="path7-7" /></clipPath><clipPath
       id="Clip0-9"><path
         inkscape:connector-curvature="0"
         d="m 0,0 170.079,0 0,170.079 L 0,170.079 0,0 z"
         transform="translate(0.460938,0.775391)"
         id="path7-4" /></clipPath><clipPath
       id="Clip0-4"><path
         inkscape:connector-curvature="0"
         d="m 0,0 340.157,0 0,226.771 L 0,226.771 0,0 z"
         transform="translate(0.921875,0.25293)"
         id="path7-5" /></clipPath><clipPath
       id="Clip0-5"><path
         inkscape:connector-curvature="0"
         d="m 0,0 255.119,0 0,170.079 L 0,170.079 0,0 z"
         transform="translate(0.147461,0.0595703)"
         id="path7-1" /></clipPath></defs><sodipodi:namedview
     pagecolor="#ffffff"
     bordercolor="#666666"
     borderopacity="1"
     objecttolerance="10"
     gridtolerance="10"
     guidetolerance="10"
     inkscape:pageopacity="0"
     inkscape:pageshadow="2"
     inkscape:window-width="1280"
     inkscape:window-height="1004"
     id="namedview17626"
     showgrid="false"
     inkscape:zoom="1.4142136"
     inkscape:cx="18.107317"
     inkscape:cy="12.628682"
     inkscape:window-x="-8"
     inkscape:window-y="-8"
     inkscape:window-maximized="1"
     inkscape:current-layer="g17634"
     fit-margin-top="0"
     fit-margin-left="0"
     fit-margin-right="0"
     fit-margin-bottom="0"
     showguides="true"
     inkscape:guide-bbox="true" /><g
     id="g17634"
     inkscape:groupmode="layer"
     inkscape:label="GG1999P002"
     transform="matrix(1.25,0,0,-1.25,971.01562,-1120.9766)"><path
       inkscape:connector-curvature="0"
       style="fill:#ffffff;fill-rule:nonzero;stroke:#000000;stroke-width:0.95999998;stroke-miterlimit:4;stroke-opacity:1;stroke-dasharray:none"
       d="m -776.32617,-908.59767 c 0,6.26175 5.07617,11.3389 11.3389,11.3389 l 232.4411,0 c 6.262,0 11.338,-5.07715 11.338,-11.3389 l 0,-62.3623 c 0,-6.2617 -5.076,-11.3388 -11.338,-11.3388 l -232.4411,0 c -6.26273,0 -11.3389,5.0771 -11.3389,11.3388 l 0,62.3623 z"
       id="path11" /><path
       inkscape:connector-curvature="0"
       style="fill:#c0111e;fill-opacity:1;fill-rule:nonzero;stroke:none"
       d="m -773.49121,-908.59768 c 0,4.69633 3.80664,8.50395 8.50391,8.50395 l 232.44109,0 c 4.697,0 8.504,-3.80762 8.504,-8.50395 l 0,-62.36225 c 0,-4.6964 -3.807,-8.5039 -8.504,-8.5039 l -232.44109,0 c -4.69727,0 -8.50391,3.8075 -8.50391,8.5039 l 0,62.36225 z"
       id="path13" /><path
       inkscape:connector-curvature="0"
       style="fill:#ffffff;fill-rule:nonzero;stroke:none"
       d="m -769.23926,-908.59768 c 0,2.34868 1.90332,4.252 4.25196,4.252 l 232.44104,0 c 2.348,0 4.252,-1.90332 4.252,-4.252 l 0,-62.3623 c 0,-2.3486 -1.904,-4.2519 -4.252,-4.2519 l -232.44104,0 c -2.34864,0 -4.25196,1.9033 -4.25196,4.2519 l 0,62.3623 z"
       id="path15" /><path
       inkscape:connector-curvature="0"
       style="fill:#c0111e;fill-opacity:1;fill-rule:nonzero;stroke:none"
       d="m -736.0322,-932.63668 0,-28.3467 3.9404,0 0,13.6904 5.8106,0 0,4.0537 -5.8106,0 0,6.6905 10.2334,0 0,3.9121 -14.1738,0 z"
       id="path17" /><path
       inkscape:connector-curvature="0"
       style="fill:#c0111e;fill-opacity:1;fill-rule:evenodd;stroke:none"
       d="m -708.791,-961.52148 c 2.7588,0 4.8379,1.3223 6.2363,3.9678 1.3037,2.5127 1.9551,6.1035 1.9551,10.7715 0,9.8076 -2.7119,14.7119 -8.1348,14.7119 -5.5566,0 -8.334,-4.9043 -8.334,-14.7119 0,-9.8262 2.7588,-14.7393 8.2774,-14.7393 z m 0,4.0811 c -1.6065,0 -2.75,1.0302 -3.4307,3.0898 -0.5478,1.6817 -0.8213,4.2051 -0.8213,7.5684 0,7.1806 1.417,10.7715 4.252,10.7715 2.8154,0 4.2236,-3.5909 4.2236,-10.7715 0,-7.1055 -1.4082,-10.6582 -4.2236,-10.6582 z"
       id="path19" /><path
       inkscape:connector-curvature="0"
       style="fill:#c0111e;fill-opacity:1;fill-rule:evenodd;stroke:none"
       d="m -683.22359,-947.17868 c 1.247,0.4346 2.2588,1.3506 3.0332,2.75 0.6992,1.2842 1.0488,2.6543 1.0488,4.1094 0,1.8711 -0.5762,3.5908 -1.7285,5.1591 -1.2285,1.6817 -2.6836,2.5225 -4.3662,2.5235 l -9.4961,0 0,-28.3467 3.9121,0 0,13.1523 3.6846,0 3.7705,-13.1523 4.2236,0 -4.082,13.8047 z m -2.6358,3.4297 -4.9609,0 0,7.0586 4.9892,0 c 1.7002,0 2.5508,-1.1621 2.5508,-3.4873 0,-0.9444 -0.208,-1.7471 -0.624,-2.4092 -0.4717,-0.7744 -1.124,-1.1621 -1.9551,-1.1621 z"
       id="path21" /><path
       inkscape:connector-curvature="0"
       style="fill:#c0111e;fill-opacity:1;fill-rule:nonzero;stroke:none"
       d="m -647.6475,-961.01948 6.76001,0 0,42.5195 -4.84701,0 c 0,-0.6807 -0.624,-1.332 -1.871,-1.9561 -1.13399,-0.5664 -2.16899,-0.8505 -3.103,-0.8505 l 0,-4.8897 3.061,0 0,-34.8232 z"
       id="path23" /><path
       inkscape:connector-curvature="0"
       style="fill:#c0111e;fill-opacity:1;fill-rule:nonzero;stroke:none"
       d="m -593.39249,-961.03908 -8.58901,12.502 8.58901,8.7578 -6.123,0 -8.376,-8.7578 0,16.9219 -4.55,0 0,-29.4239 4.55,0 0,6.5909 2.80699,2.8066 6.20801,-9.3975 5.484,0 z"
       id="path25" /><path
       inkscape:connector-curvature="0"
       style="fill:#c0111e;fill-opacity:1;fill-rule:nonzero;stroke:none"
       d="m -561.5015,-961.03908 0,12.1612 c 0,3.2744 -0.256,4.8896 -1.022,6.165 -1.147,2.126 -3.401,3.2744 -6.165,3.2744 -2.551,0 -4.294,-0.8506 -5.825,-2.8496 -1.148,1.9561 -2.934,2.8916 -5.4,2.8916 -2.084,0 -3.487,-0.6377 -5.102,-2.2539 l 0,1.8711 -4.465,0 0,-21.2598 4.465,0 0,12.0762 c 0,1.7012 0.212,2.6787 0.849,3.4863 0.681,0.9786 1.872,1.6162 3.02,1.6162 1.021,0 2.084,-0.4677 2.679,-1.3183 0.552,-0.7656 0.68,-1.4453 0.68,-3.6563 l 0,-12.2041 4.677,0 0,12.2041 c 0,1.9551 0.128,2.6787 0.638,3.3584 0.723,1.0205 1.914,1.6582 3.104,1.6582 1.318,0 2.381,-0.6377 2.891,-1.7002 0.298,-0.6377 0.383,-1.5312 0.383,-3.3164 l 0,-12.2041 4.593,0 z"
       id="path27" /></g></svg>