<?xml version="1.0" encoding="UTF-8" standalone="no"?>
<!-- Created with Inkscape (http://www.inkscape.org/) -->

<svg
   xmlns:dc="http://purl.org/dc/elements/1.1/"
   xmlns:cc="http://creativecommons.org/ns#"
   xmlns:rdf="http://www.w3.org/1999/02/22-rdf-syntax-ns#"
   xmlns:svg="http://www.w3.org/2000/svg"
   xmlns="http://www.w3.org/2000/svg"
   xmlns:sodipodi="http://sodipodi.sourceforge.net/DTD/sodipodi-0.dtd"
   xmlns:inkscape="http://www.inkscape.org/namespaces/inkscape"
   id="svg17624"
   version="1.1"
   inkscape:version="0.48.2 r9819"
   width="320.07812"
   height="107.5"
   xml:space="preserve"
   sodipodi:docname="AA2.svg"><metadata
     id="metadata17630"><rdf:RDF><cc:Work
         rdf:about=""><dc:format>image/svg+xml</dc:format><dc:type
           rdf:resource="http://purl.org/dc/dcmitype/StillImage" /><dc:title></dc:title></cc:Work></rdf:RDF></metadata><defs
     id="defs17628"><inkscape:perspective
       sodipodi:type="inkscape:persp3d"
       inkscape:vp_x="0 : 0.5 : 1"
       inkscape:vp_y="0 : 1000 : 0"
       inkscape:vp_z="1 : 0.5 : 1"
       inkscape:persp3d-origin="0.5 : 0.33333333 : 1"
       id="perspective17632" /><clipPath
       clipPathUnits="userSpaceOnUse"
       id="clipPath17642"><path
         d="m -2,710 501,0 0,-711 -501,0 0,711 z"
         id="path17644"
         inkscape:connector-curvature="0" /></clipPath><clipPath
       clipPathUnits="userSpaceOnUse"
       id="clipPath17648"><path
         d="m 0,708.06 498,0 0,-708 -498,0 0,708 z"
         id="path17650"
         inkscape:connector-curvature="0" /></clipPath><clipPath
       clipPathUnits="userSpaceOnUse"
       id="clipPath17798"><path
         d="m -2,710 501,0 0,-711 -501,0 0,711 z"
         id="path17800"
         inkscape:connector-curvature="0" /></clipPath><clipPath
       clipPathUnits="userSpaceOnUse"
       id="clipPath17804"><path
         d="m 0,708.06 498,0 0,-708 -498,0 0,708 z"
         id="path17806"
         inkscape:connector-curvature="0" /></clipPath><clipPath
       id="Clip0"><path
         inkscape:connector-curvature="0"
         d="m 0,0 212.597,0 0,269.292 L 0,269.292 0,0 z"
         transform="translate(0.923828,0.879883)"
         id="path7" /></clipPath><clipPath
       id="Clip0-8"><path
         inkscape:connector-curvature="0"
         d="m 0,0 170.079,0 0,113.386 L 0,113.386 0,0 z"
         transform="translate(0.0986328,0.822266)"
         id="path7-8" /></clipPath><clipPath
       id="Clip0-1"><path
         inkscape:connector-curvature="0"
         d="m 0,0 287.009,0 0,159.449 L 0,159.449 0,0 z"
         transform="translate(0.396484,0.267578)"
         id="path7-7" /></clipPath><clipPath
       id="Clip0-9"><path
         inkscape:connector-curvature="0"
         d="m 0,0 170.079,0 0,170.079 L 0,170.079 0,0 z"
         transform="translate(0.460938,0.775391)"
         id="path7-4" /></clipPath><clipPath
       id="Clip0-4"><path
         inkscape:connector-curvature="0"
         d="m 0,0 340.157,0 0,226.771 L 0,226.771 0,0 z"
         transform="translate(0.921875,0.25293)"
         id="path7-5" /></clipPath><clipPath
       id="Clip0-5"><path
         inkscape:connector-curvature="0"
         d="m 0,0 255.119,0 0,170.079 L 0,170.079 0,0 z"
         transform="translate(0.147461,0.0595703)"
         id="path7-1" /></clipPath></defs><sodipodi:namedview
     pagecolor="#ffffff"
     bordercolor="#666666"
     borderopacity="1"
     objecttolerance="10"
     gridtolerance="10"
     guidetolerance="10"
     inkscape:pageopacity="0"
     inkscape:pageshadow="2"
     inkscape:window-width="1280"
     inkscape:window-height="1004"
     id="namedview17626"
     showgrid="false"
     inkscape:zoom="1.4142136"
     inkscape:cx="130.47486"
     inkscape:cy="149.46467"
     inkscape:window-x="-8"
     inkscape:window-y="-8"
     inkscape:window-maximized="1"
     inkscape:current-layer="g17634"
     fit-margin-top="0"
     fit-margin-left="0"
     fit-margin-right="0"
     fit-margin-bottom="0"
     showguides="true"
     inkscape:guide-bbox="true" /><g
     id="g17634"
     inkscape:groupmode="layer"
     inkscape:label="GG1999P002"
     transform="matrix(1.25,0,0,-1.25,1051.2891,-1257.4609)"><path
       inkscape:connector-curvature="0"
       style="fill:#ffffff;fill-rule:nonzero;stroke:#000000;stroke-width:0.95999998;stroke-miterlimit:4;stroke-opacity:1;stroke-dasharray:none"
       d="m -840.55943,-1017.7771 c 0,6.2627 5.07617,11.3388 11.3389,11.3388 l 232.4411,0 c 6.262,0 11.338,-5.0761 11.338,-11.3388 l 0,-62.3623 c 0,-6.2618 -5.076,-11.3379 -11.338,-11.3379 l -232.4411,0 c -6.26273,0 -11.3389,5.0761 -11.3389,11.3379 l 0,62.3623 z"
       id="path11" /><path
       inkscape:connector-curvature="0"
       style="fill:#c0111e;fill-opacity:1;fill-rule:nonzero;stroke:none"
       d="m -837.72447,-1017.7771 c 0,4.6972 3.80762,8.5039 8.50393,8.5039 l 232.44107,0 c 4.697,0 8.504,-3.8067 8.504,-8.5039 l 0,-62.3623 c 0,-4.6963 -3.807,-8.5039 -8.504,-8.5039 l -232.44107,0 c -4.69631,0 -8.50393,3.8076 -8.50393,8.5039 l 0,62.3623 z"
       id="path13" /><path
       inkscape:connector-curvature="0"
       style="fill:#ffffff;fill-rule:nonzero;stroke:none"
       d="m -833.47251,-1017.7771 c 0,2.3486 1.90332,4.2519 4.25197,4.2519 l 232.44103,0 c 2.348,0 4.252,-1.9033 4.252,-4.2519 l 0,-62.3623 c 0,-2.3477 -1.904,-4.252 -4.252,-4.252 l -232.44103,0 c -2.34865,0 -4.25197,1.9043 -4.25197,4.252 l 0,62.3623 z"
       id="path15" /><path
       inkscape:connector-curvature="0"
       style="fill:#c0111e;fill-opacity:1;fill-rule:nonzero;stroke:none"
       d="m -807.06824,-1041.8162 0,-28.3467 3.9405,0 0,13.6914 5.8105,0 0,4.0537 -5.8105,0 0,6.6895 10.2334,0 0,3.9121 -14.1739,0 z"
       id="path17" /><path
       inkscape:connector-curvature="0"
       style="fill:#c0111e;fill-opacity:1;fill-rule:evenodd;stroke:none"
       d="m -779.82704,-1070.701 c 2.7588,0 4.8379,1.3223 6.2354,3.9678 1.3047,2.5137 1.956,6.1045 1.956,10.7715 0,9.8086 -2.7119,14.7119 -8.1357,14.7119 -5.5557,0 -8.333,-4.9033 -8.333,-14.7119 0,-9.8262 2.7588,-14.7393 8.2773,-14.7393 z m 0,4.0821 c -1.6074,0 -2.75,1.0293 -3.4306,3.0888 -0.5479,1.6817 -0.8213,4.2051 -0.8213,7.5684 0,7.1816 1.417,10.7725 4.2519,10.7725 2.8155,0 4.2237,-3.5909 4.2237,-10.7725 0,-7.1055 -1.4082,-10.6572 -4.2237,-10.6572 z"
       id="path19" /><path
       inkscape:connector-curvature="0"
       style="fill:#c0111e;fill-opacity:1;fill-rule:evenodd;stroke:none"
       d="m -754.25964,-1056.3582 c 1.2471,0.4346 2.2578,1.3506 3.0332,2.75 0.6992,1.2842 1.0488,2.6543 1.0488,4.1094 0,1.8711 -0.5761,3.5908 -1.7294,5.1592 -1.2276,1.6826 -2.6827,2.5234 -4.3653,2.5234 l -9.4961,0 0,-28.3467 3.9121,0 0,13.1524 3.6846,0 3.7705,-13.1524 4.2236,0 -4.082,13.8047 z m -2.6367,3.4297 -4.96,0 0,7.0586 4.9893,0 c 1.7002,0 2.5508,-1.1621 2.5508,-3.4863 0,-0.9453 -0.208,-1.7481 -0.624,-2.4102 -0.4717,-0.7744 -1.1241,-1.1621 -1.9561,-1.1621 z"
       id="path21" /><path
       inkscape:connector-curvature="0"
       style="fill:#c0111e;fill-opacity:1;fill-rule:nonzero;stroke:none"
       d="m -721.74464,-1059.2283 c 0,-3.5439 1.175,-6.4209 3.528,-8.6318 2.268,-2.0977 5.088,-3.1465 8.462,-3.1465 3.316,0 6.065,1.2754 8.249,3.8271 2.098,2.4375 3.145,5.4131 3.145,8.9287 0,2.2959 -0.467,4.4786 -1.402,6.5479 -0.992,2.2119 -2.254,3.6142 -3.784,4.2099 2.693,2.2393 4.039,5.711 4.039,10.417 0,2.6934 -1.077,5.0743 -3.231,7.1436 -2.126,2.0693 -4.465,3.1035 -7.016,3.1035 -2.579,0 -4.904,-0.8076 -6.974,-2.4228 -2.409,-1.8428 -3.614,-4.2383 -3.614,-7.1866 l 5.655,-0.7226 c 0,1.0488 0.539,2.0273 1.616,2.9336 1.078,0.9072 2.112,1.3603 3.104,1.3603 1.049,0 2.041,-0.4248 2.977,-1.2754 1.02,-0.9355 1.531,-2.041 1.531,-3.3164 0,-1.6152 -0.412,-3.1601 -1.234,-4.6347 -0.907,-1.587 -1.956,-2.3809 -3.146,-2.3809 l -2.509,0 0,-5.9951 3.614,0 c 1.787,0 3.033,-1.0205 3.743,-3.0615 0.368,-1.1338 0.594,-2.8203 0.679,-5.0596 0.057,-1.7861 -0.467,-3.3027 -1.573,-4.5498 -1.105,-1.2471 -2.424,-1.8711 -3.954,-1.8711 -3.912,0 -5.868,1.9277 -5.868,5.7832 l -6.037,0 z"
       id="path23" /><path
       inkscape:connector-curvature="0"
       style="fill:#c0111e;fill-opacity:1;fill-rule:nonzero;stroke:none"
       d="m -650.82164,-1070.2176 -8.589,12.501 8.589,8.7588 -6.124,0 -8.376,-8.7588 0,16.9229 -4.549,0 0,-29.4239 4.549,0 0,6.5899 2.807,2.8066 6.207,-9.3965 5.486,0 z"
       id="path25" /><path
       inkscape:connector-curvature="0"
       style="fill:#c0111e;fill-opacity:1;fill-rule:nonzero;stroke:none"
       d="m -618.93264,-1070.2176 0,12.1602 c 0,3.2744 -0.255,4.8896 -1.02,6.166 -1.148,2.126 -3.402,3.2734 -6.165,3.2734 -2.552,0 -4.295,-0.8496 -5.826,-2.8486 -1.147,1.9561 -2.933,2.8916 -5.4,2.8916 -2.083,0 -3.486,-0.6377 -5.102,-2.2539 l 0,1.8711 -4.465,0 0,-21.2598 4.465,0 0,12.0752 c 0,1.7012 0.212,2.6787 0.85,3.4864 0.681,0.9785 1.871,1.6162 3.019,1.6162 1.02,0 2.084,-0.4678 2.679,-1.3184 0.553,-0.7656 0.681,-1.4453 0.681,-3.6562 l 0,-12.2032 4.677,0 0,12.2032 c 0,1.955 0.127,2.6787 0.637,3.3584 0.723,1.0205 1.914,1.6582 3.104,1.6582 1.318,0 2.382,-0.6377 2.892,-1.7002 0.297,-0.6377 0.382,-1.5313 0.382,-3.3164 l 0,-12.2032 4.592,0 z"
       id="path27" /></g></svg>