<?xml version="1.0" encoding="UTF-8" standalone="no"?>
<!-- Generator: Adobe Illustrator 15.0.0, SVG Export Plug-In . SVG Version: 6.00 Build 0)  -->

<svg
   xmlns:ns="http://ns.adobe.com/SaveForWeb/1.0/"
   xmlns:dc="http://purl.org/dc/elements/1.1/"
   xmlns:cc="http://creativecommons.org/ns#"
   xmlns:rdf="http://www.w3.org/1999/02/22-rdf-syntax-ns#"
   xmlns:svg="http://www.w3.org/2000/svg"
   xmlns="http://www.w3.org/2000/svg"
   xmlns:sodipodi="http://sodipodi.sourceforge.net/DTD/sodipodi-0.dtd"
   xmlns:inkscape="http://www.inkscape.org/namespaces/inkscape"
   version="1.1"
   id="레이어_1"
   x="0px"
   y="0px"
   width="360.62726"
   height="360.61145"
   viewBox="0 0 360.62726 360.61145"
   enable-background="new 0 0 500 500"
   xml:space="preserve"
   inkscape:version="0.48.2 r9819"
   sodipodi:docname="AJAX5.svg"><defs
   id="defs15" /><sodipodi:namedview
   pagecolor="#ffffff"
   bordercolor="#666666"
   borderopacity="1"
   objecttolerance="10"
   gridtolerance="10"
   guidetolerance="10"
   inkscape:pageopacity="0"
   inkscape:pageshadow="2"
   inkscape:window-width="1280"
   inkscape:window-height="1004"
   id="namedview13"
   showgrid="false"
   fit-margin-top="0"
   fit-margin-left="0"
   fit-margin-right="0"
   fit-margin-bottom="0"
   inkscape:zoom="1.4142136"
   inkscape:cx="205.58457"
   inkscape:cy="122.14142"
   inkscape:window-x="-8"
   inkscape:window-y="-8"
   inkscape:window-maximized="1"
   inkscape:current-layer="레이어_1" />
<metadata
   id="metadata3">
	<ns:sfw>
		<ns:slices />
		<ns:sliceSourceBounds
   height="474.5"
   width="474.5"
   y="309"
   x="9.5"
   bottomLeftOrigin="true" />
	</ns:sfw>
<rdf:RDF><cc:Work
     rdf:about=""><dc:format>image/svg+xml</dc:format><dc:type
       rdf:resource="http://purl.org/dc/dcmitype/StillImage" /><dc:title></dc:title></cc:Work></rdf:RDF></metadata>




<path
   inkscape:connector-curvature="0"
   style="fill:#ffdb00;fill-rule:nonzero;stroke:none"
   d="m 355.25176,167.32801 c 7.1675,7.1675 7.1675,18.7875 -10e-4,25.955 l -161.964,161.95375 c -7.16625,7.16625 -18.7875,7.16625 -25.95375,0 L 5.3759813,193.28301 c -7.1679751,-7.1675 -7.1679751,-18.7875 0,-25.955 L 167.33926,5.3759804 c 7.16875,-7.1679751 18.78875,-7.1679751 25.955,0 L 355.25176,167.32801 z"
   id="path11" /><path
   inkscape:connector-curvature="0"
   style="fill:#000000;fill-rule:nonzero;stroke:none"
   d="m 8.1848151,189.57649 c -5.12085,-5.11875 -5.12085,-13.42 0,-18.54 L 171.04147,8.182368 c 5.12125,-5.1196251 13.4225,-5.1196251 18.54125,0 L 352.44397,171.03649 c 5.12,5.12 5.12,13.42125 0,18.54 l -162.8575,162.855 c -5.11875,5.11875 -13.42,5.11875 -18.54125,0 L 8.1848151,189.57649 z"
   id="path13" /><path
   inkscape:connector-curvature="0"
   style="fill:#ffdb00;fill-rule:nonzero;stroke:none"
   d="m 12.944377,184.81665 c -2.490275,-2.49 -2.490275,-6.52875 0,-9.02 L 175.8016,12.943164 c 2.49125,-2.491513 6.53,-2.491513 9.02,0 L 347.68285,175.79665 c 2.49,2.49125 2.49125,6.53 0,9.02 L 184.82535,347.6704 c -2.49125,2.49125 -6.52875,2.49125 -9.02,0 L 12.944377,184.81665 z"
   id="path15" /><path
   inkscape:connector-curvature="0"
   style="fill:#000000;fill-rule:nonzero;stroke:none"
   d="m 56.297628,171.71854 47.283882,0 c 15.31625,-26.4775 43.94437,-44.29125 76.73187,-44.29125 32.7905,0 61.41675,17.81375 76.733,44.29125 l 47.28375,0 0,26.575 -248.032502,0 0,-26.575 z"
   id="path17" /></svg>