<?xml version="1.0" encoding="UTF-8" standalone="no"?>
<!-- Created with Inkscape (http://www.inkscape.org/) -->

<svg
   xmlns:dc="http://purl.org/dc/elements/1.1/"
   xmlns:cc="http://creativecommons.org/ns#"
   xmlns:rdf="http://www.w3.org/1999/02/22-rdf-syntax-ns#"
   xmlns:svg="http://www.w3.org/2000/svg"
   xmlns="http://www.w3.org/2000/svg"
   xmlns:sodipodi="http://sodipodi.sourceforge.net/DTD/sodipodi-0.dtd"
   xmlns:inkscape="http://www.inkscape.org/namespaces/inkscape"
   id="svg17624"
   version="1.1"
   inkscape:version="0.48.2 r9819"
   width="360.62677"
   height="360.61163"
   xml:space="preserve"
   sodipodi:docname="AA4.svg"><metadata
     id="metadata17630"><rdf:RDF><cc:Work
         rdf:about=""><dc:format>image/svg+xml</dc:format><dc:type
           rdf:resource="http://purl.org/dc/dcmitype/StillImage" /><dc:title></dc:title></cc:Work></rdf:RDF></metadata><defs
     id="defs17628"><inkscape:perspective
       sodipodi:type="inkscape:persp3d"
       inkscape:vp_x="0 : 0.5 : 1"
       inkscape:vp_y="0 : 1000 : 0"
       inkscape:vp_z="1 : 0.5 : 1"
       inkscape:persp3d-origin="0.5 : 0.33333333 : 1"
       id="perspective17632" /><clipPath
       clipPathUnits="userSpaceOnUse"
       id="clipPath17642"><path
         d="m -2,710 501,0 0,-711 -501,0 0,711 z"
         id="path17644"
         inkscape:connector-curvature="0" /></clipPath><clipPath
       clipPathUnits="userSpaceOnUse"
       id="clipPath17648"><path
         d="m 0,708.06 498,0 0,-708 -498,0 0,708 z"
         id="path17650"
         inkscape:connector-curvature="0" /></clipPath><clipPath
       clipPathUnits="userSpaceOnUse"
       id="clipPath17798"><path
         d="m -2,710 501,0 0,-711 -501,0 0,711 z"
         id="path17800"
         inkscape:connector-curvature="0" /></clipPath><clipPath
       clipPathUnits="userSpaceOnUse"
       id="clipPath17804"><path
         d="m 0,708.06 498,0 0,-708 -498,0 0,708 z"
         id="path17806"
         inkscape:connector-curvature="0" /></clipPath><clipPath
       id="Clip0"><path
         inkscape:connector-curvature="0"
         d="m 0,0 212.597,0 0,269.292 L 0,269.292 0,0 z"
         transform="translate(0.923828,0.879883)"
         id="path7" /></clipPath><clipPath
       id="Clip0-8"><path
         inkscape:connector-curvature="0"
         d="m 0,0 170.079,0 0,113.386 L 0,113.386 0,0 z"
         transform="translate(0.0986328,0.822266)"
         id="path7-8" /></clipPath><clipPath
       id="Clip0-1"><path
         inkscape:connector-curvature="0"
         d="m 0,0 287.009,0 0,159.449 L 0,159.449 0,0 z"
         transform="translate(0.396484,0.267578)"
         id="path7-7" /></clipPath><clipPath
       id="Clip0-9"><path
         inkscape:connector-curvature="0"
         d="m 0,0 170.079,0 0,170.079 L 0,170.079 0,0 z"
         transform="translate(0.460938,0.775391)"
         id="path7-4" /></clipPath><clipPath
       id="Clip0-4"><path
         inkscape:connector-curvature="0"
         d="m 0,0 340.157,0 0,226.771 L 0,226.771 0,0 z"
         transform="translate(0.921875,0.25293)"
         id="path7-5" /></clipPath><clipPath
       id="Clip0-5"><path
         inkscape:connector-curvature="0"
         d="m 0,0 255.119,0 0,170.079 L 0,170.079 0,0 z"
         transform="translate(0.147461,0.0595703)"
         id="path7-1" /></clipPath><clipPath
       id="Clip0-0"><path
         inkscape:connector-curvature="0"
         d="m 0,0 170.079,0 0,113.386 L 0,113.386 0,0 z"
         transform="translate(0.0673828,0.207031)"
         id="path7-9" /></clipPath></defs><sodipodi:namedview
     pagecolor="#ffffff"
     bordercolor="#666666"
     borderopacity="1"
     objecttolerance="10"
     gridtolerance="10"
     guidetolerance="10"
     inkscape:pageopacity="0"
     inkscape:pageshadow="2"
     inkscape:window-width="1280"
     inkscape:window-height="1004"
     id="namedview17626"
     showgrid="false"
     inkscape:zoom="1.4142136"
     inkscape:cx="103.04873"
     inkscape:cy="138.21551"
     inkscape:window-x="-8"
     inkscape:window-y="-8"
     inkscape:window-maximized="1"
     inkscape:current-layer="g17634"
     fit-margin-top="0"
     fit-margin-left="0"
     fit-margin-right="0"
     fit-margin-bottom="0"
     showguides="true"
     inkscape:guide-bbox="true" /><g
     id="g17634"
     inkscape:groupmode="layer"
     inkscape:label="GG1999P002"
     transform="matrix(1.25,0,0,-1.25,2889.4755,-1115.1298)"><path
       inkscape:connector-curvature="0"
       style="fill:#ffdb00;fill-rule:nonzero;stroke:none"
       d="m -2027.3799,-1025.9674 c 5.735,-5.733 5.734,-15.029 0,-20.763 l -129.571,-129.563 c -5.734,-5.733 -15.03,-5.733 -20.765,0 l -129.5646,129.563 c -5.7334,5.734 -5.7334,15.03 9e-4,20.763 l 129.5697,129.56351 c 5.735,5.7334 15.031,5.7334 20.765,0 l 129.565,-129.56351 z"
       id="path11" /><path
       inkscape:connector-curvature="0"
       style="fill:#000000;fill-rule:nonzero;stroke:none"
       d="m -2305.0334,-1043.9762 c -4.0957,4.096 -4.0957,10.737 0,14.832 l 130.2863,130.28328 c 4.096,4.0957 10.736,4.0957 14.832,0 l 130.289,-130.28328 c 4.097,-4.095 4.097,-10.736 0,-14.832 l -130.285,-130.283 c -4.097,-4.096 -10.737,-4.096 -14.833,0 l -130.2893,130.283 z"
       id="path13" /><path
       inkscape:connector-curvature="0"
       style="fill:#ffdb00;fill-rule:nonzero;stroke:none"
       d="m -2301.2248,-1040.0062 c -1.9932,1.992 -1.9932,5.223 0,7.216 l 130.2868,130.28285 c 1.992,1.99214 5.222,1.99214 7.216,0 l 130.288,-130.28285 c 1.993,-1.993 1.993,-5.224 8e-4,-7.216 l -130.286,-130.283 c -1.994,-1.992 -5.224,-1.992 -7.216,0 l -130.2896,130.283 z"
       id="path15" /><path
       inkscape:connector-curvature="0"
       style="fill:#c0111e;fill-opacity:1;fill-rule:nonzero;stroke:none"
       d="m -2247.1253,-1035.8995 c 0,44.07105 35.7258,79.79645 79.7958,79.79645 44.0702,0 79.7962,-35.7254 79.7962,-79.79645 0,-44.0696 -35.726,-79.7946 -79.7962,-79.7946 -44.07,0 -79.7958,35.725 -79.7958,79.7946 z"
       id="path17" /><path
       inkscape:connector-curvature="0"
       style="fill:#ffffff;fill-rule:nonzero;stroke:none"
       d="m -2220.5266,-1035.8995 c 0,-29.379 23.8171,-53.1973 53.1971,-53.1973 29.381,0 53.1969,23.8183 53.1969,53.1973 0,29.381 -23.8159,53.19775 -53.1969,53.19775 -29.38,0 -53.1971,-23.81675 -53.1971,-53.19775 z"
       id="path19" /><path
       inkscape:connector-curvature="0"
       style="fill:#000000;fill-rule:nonzero;stroke:none"
       d="m -2206.3765,-1009.1525 -1.276,-27.454 7.874,-2.554 c 1.028,3.831 3.795,5.746 8.3,5.746 2.838,0 5.177,-0.744 7.022,-2.234 2.057,-1.631 3.086,-3.867 3.086,-6.704 0,-3.476 -0.904,-6.172 -2.713,-8.087 -1.099,-1.17 -2.998,-2.34 -5.693,-3.511 -1.489,-0.639 -3.21,-0.957 -5.16,-0.957 -2.625,0 -5.907,0.584 -9.843,1.755 l -3.777,-7.395 c 1.666,-0.958 3.759,-1.703 6.277,-2.234 1.915,-0.39 3.636,-0.586 5.161,-0.586 6.136,0 11.527,1.649 16.174,4.947 5.32,3.76 7.98,8.708 7.98,14.845 0,5.674 -1.808,10.286 -5.426,13.833 -3.512,3.404 -7.874,5.107 -13.088,5.107 -0.709,0 -3.175,-0.656 -7.396,-1.969 l 0.479,8.992 22.558,0 0,8.46 -30.539,0 z"
       id="path21" /><path
       inkscape:connector-curvature="0"
       style="fill:#000000;fill-rule:evenodd;stroke:none"
       d="m -2144.8195,-1063.3675 c 12.414,0 18.621,9.204 18.621,27.613 0,18.443 -6.207,27.665 -18.621,27.665 -12.415,0 -18.621,-9.222 -18.621,-27.665 0,-18.409 6.206,-27.613 18.621,-27.613 z m 0,8.139 c -6.917,0 -10.375,6.492 -10.375,19.474 0,12.98 3.458,19.473 10.375,19.473 6.881,0 10.321,-6.493 10.321,-19.473 0,-12.982 -3.44,-19.474 -10.321,-19.474 z"
       id="path23" /></g></svg>