<?xml version="1.0" encoding="UTF-8" standalone="no"?>
<!-- Created with Inkscape (http://www.inkscape.org/) -->

<svg
   xmlns:dc="http://purl.org/dc/elements/1.1/"
   xmlns:cc="http://creativecommons.org/ns#"
   xmlns:rdf="http://www.w3.org/1999/02/22-rdf-syntax-ns#"
   xmlns:svg="http://www.w3.org/2000/svg"
   xmlns="http://www.w3.org/2000/svg"
   xmlns:sodipodi="http://sodipodi.sourceforge.net/DTD/sodipodi-0.dtd"
   xmlns:inkscape="http://www.inkscape.org/namespaces/inkscape"
   id="svg17624"
   version="1.1"
   inkscape:version="0.48.2 r9819"
   width="320.11719"
   height="107.5"
   xml:space="preserve"
   sodipodi:docname="AA3.svg"><metadata
     id="metadata17630"><rdf:RDF><cc:Work
         rdf:about=""><dc:format>image/svg+xml</dc:format><dc:type
           rdf:resource="http://purl.org/dc/dcmitype/StillImage" /><dc:title></dc:title></cc:Work></rdf:RDF></metadata><defs
     id="defs17628"><inkscape:perspective
       sodipodi:type="inkscape:persp3d"
       inkscape:vp_x="0 : 0.5 : 1"
       inkscape:vp_y="0 : 1000 : 0"
       inkscape:vp_z="1 : 0.5 : 1"
       inkscape:persp3d-origin="0.5 : 0.33333333 : 1"
       id="perspective17632" /><clipPath
       clipPathUnits="userSpaceOnUse"
       id="clipPath17642"><path
         d="m -2,710 501,0 0,-711 -501,0 0,711 z"
         id="path17644"
         inkscape:connector-curvature="0" /></clipPath><clipPath
       clipPathUnits="userSpaceOnUse"
       id="clipPath17648"><path
         d="m 0,708.06 498,0 0,-708 -498,0 0,708 z"
         id="path17650"
         inkscape:connector-curvature="0" /></clipPath><clipPath
       clipPathUnits="userSpaceOnUse"
       id="clipPath17798"><path
         d="m -2,710 501,0 0,-711 -501,0 0,711 z"
         id="path17800"
         inkscape:connector-curvature="0" /></clipPath><clipPath
       clipPathUnits="userSpaceOnUse"
       id="clipPath17804"><path
         d="m 0,708.06 498,0 0,-708 -498,0 0,708 z"
         id="path17806"
         inkscape:connector-curvature="0" /></clipPath><clipPath
       id="Clip0"><path
         inkscape:connector-curvature="0"
         d="m 0,0 212.597,0 0,269.292 L 0,269.292 0,0 z"
         transform="translate(0.923828,0.879883)"
         id="path7" /></clipPath><clipPath
       id="Clip0-8"><path
         inkscape:connector-curvature="0"
         d="m 0,0 170.079,0 0,113.386 L 0,113.386 0,0 z"
         transform="translate(0.0986328,0.822266)"
         id="path7-8" /></clipPath><clipPath
       id="Clip0-1"><path
         inkscape:connector-curvature="0"
         d="m 0,0 287.009,0 0,159.449 L 0,159.449 0,0 z"
         transform="translate(0.396484,0.267578)"
         id="path7-7" /></clipPath><clipPath
       id="Clip0-9"><path
         inkscape:connector-curvature="0"
         d="m 0,0 170.079,0 0,170.079 L 0,170.079 0,0 z"
         transform="translate(0.460938,0.775391)"
         id="path7-4" /></clipPath><clipPath
       id="Clip0-4"><path
         inkscape:connector-curvature="0"
         d="m 0,0 340.157,0 0,226.771 L 0,226.771 0,0 z"
         transform="translate(0.921875,0.25293)"
         id="path7-5" /></clipPath><clipPath
       id="Clip0-5"><path
         inkscape:connector-curvature="0"
         d="m 0,0 255.119,0 0,170.079 L 0,170.079 0,0 z"
         transform="translate(0.147461,0.0595703)"
         id="path7-1" /></clipPath></defs><sodipodi:namedview
     pagecolor="#ffffff"
     bordercolor="#666666"
     borderopacity="1"
     objecttolerance="10"
     gridtolerance="10"
     guidetolerance="10"
     inkscape:pageopacity="0"
     inkscape:pageshadow="2"
     inkscape:window-width="1280"
     inkscape:window-height="1004"
     id="namedview17626"
     showgrid="false"
     inkscape:zoom="1.4142136"
     inkscape:cx="120.592"
     inkscape:cy="-72.354242"
     inkscape:window-x="-8"
     inkscape:window-y="-8"
     inkscape:window-maximized="1"
     inkscape:current-layer="g17634"
     fit-margin-top="0"
     fit-margin-left="0"
     fit-margin-right="0"
     fit-margin-bottom="0"
     showguides="true"
     inkscape:guide-bbox="true" /><g
     id="g17634"
     inkscape:groupmode="layer"
     inkscape:label="GG1999P002"
     transform="matrix(1.25,0,0,-1.25,1041.4063,-1091.2891)"><path
       inkscape:connector-curvature="0"
       style="fill:#ffffff;fill-rule:nonzero;stroke:#000000;stroke-width:0.95999998;stroke-miterlimit:4;stroke-opacity:1;stroke-dasharray:none"
       d="m -832.63983,-884.84103 c 0,6.2627 5.07617,11.3388 11.3389,11.3388 l 232.4411,0 c 6.262,0 11.338,-5.0761 11.338,-11.3388 l 0,-62.3623 c 0,-6.2618 -5.076,-11.3379 -11.338,-11.3379 l -232.4411,0 c -6.26273,0 -11.3389,5.0761 -11.3389,11.3379 l 0,62.3623 z"
       id="path11" /><path
       inkscape:connector-curvature="0"
       style="fill:#c0111e;fill-opacity:1;fill-rule:nonzero;stroke:none"
       d="m -829.86458,-884.69973 c 0,4.6973 3.80762,8.504 8.50393,8.504 l 232.44107,0 c 4.697,0 8.504,-3.8067 8.504,-8.504 l 0,-62.3623 c 0,-4.6963 -3.807,-8.5039 -8.504,-8.5039 l -232.44107,0 c -4.69631,0 -8.50393,3.8076 -8.50393,8.5039 l 0,62.3623 z"
       id="path11-7" /><path
       inkscape:connector-curvature="0"
       style="fill:#ffffff;fill-rule:nonzero;stroke:none"
       d="m -825.61263,-884.69973 c 0,2.3486 1.9043,4.252 4.25198,4.252 l 232.44102,0 c 2.349,0 4.252,-1.9034 4.252,-4.252 l 0,-62.3614 c 0,-2.3487 -1.903,-4.252 -4.252,-4.252 l -232.44102,0 c -2.34768,0 -4.25198,1.9033 -4.25198,4.252 l 0,62.3614 z"
       id="path13" /><path
       inkscape:connector-curvature="0"
       style="fill:#c0111e;fill-opacity:1;fill-rule:nonzero;stroke:none"
       d="m -800.48375,-908.73873 0,-28.3468 3.9405,0 0,13.6914 5.8105,0 0,4.0537 -5.8105,0 0,6.6894 10.2334,0 0,3.9122 -14.1739,0 z"
       id="path15" /><path
       inkscape:connector-curvature="0"
       style="fill:#c0111e;fill-opacity:1;fill-rule:evenodd;stroke:none"
       d="m -773.24255,-937.62363 c 2.7588,0 4.8379,1.3223 6.2364,3.9678 1.3037,2.5136 1.956,6.1044 1.956,10.7724 0,9.8077 -2.7129,14.7111 -8.1357,14.7111 -5.5557,0 -8.334,-4.9034 -8.334,-14.7111 0,-9.8271 2.7588,-14.7402 8.2773,-14.7402 z m 0,4.0821 c -1.6064,0 -2.75,1.0293 -3.4306,3.0889 -0.5479,1.6827 -0.8213,4.205 -0.8213,7.5693 0,7.1807 1.417,10.7715 4.2519,10.7715 2.8155,0 4.2237,-3.5908 4.2237,-10.7715 0,-7.1064 -1.4082,-10.6582 -4.2237,-10.6582 z"
       id="path17" /><path
       inkscape:connector-curvature="0"
       style="fill:#c0111e;fill-opacity:1;fill-rule:evenodd;stroke:none"
       d="m -747.67515,-923.28083 c 1.2481,0.4345 2.2588,1.3515 3.0332,2.75 0.6992,1.2841 1.0489,2.6552 1.0489,4.1103 0,1.8711 -0.5762,3.5898 -1.7286,5.1592 -1.2285,1.6816 -2.6836,2.5226 -4.3662,2.5226 l -9.4951,0 0,-28.3468 3.9111,0 0,13.1523 3.6846,0 3.7705,-13.1523 4.2237,0 -4.0821,13.8047 z m -2.6357,3.4296 -4.961,0 0,7.0586 4.9893,0 c 1.7002,0 2.5508,-1.1621 2.5508,-3.4863 0,-0.9453 -0.208,-1.748 -0.6231,-2.4102 -0.4726,-0.7744 -1.125,-1.1621 -1.956,-1.1621 z"
       id="path19" /><path
       inkscape:connector-curvature="0"
       style="fill:#c0111e;fill-opacity:1;fill-rule:evenodd;stroke:none"
       d="m -697.76965,-894.60113 -17.391,-27.7667 0,-4.2509 17.391,0 0,-10.502 5.825,0 0,10.502 2.721,0 0,5.6543 -2.721,0 0,26.3633 -5.825,0 z m 0,-9.8651 0,-16.4981 -10.12,0 10.12,16.4981 z"
       id="path21" /><path
       inkscape:connector-curvature="0"
       style="fill:#c0111e;fill-opacity:1;fill-rule:nonzero;stroke:none"
       d="m -641.68565,-937.14023 -8.589,12.501 8.589,8.7587 -6.123,0 -8.376,-8.7587 0,16.9229 -4.55,0 0,-29.4239 4.55,0 0,6.5908 2.805,2.8057 6.208,-9.3965 5.486,0 z"
       id="path23" /><path
       inkscape:connector-curvature="0"
       style="fill:#c0111e;fill-opacity:1;fill-rule:nonzero;stroke:none"
       d="m -609.79665,-937.14023 0,12.1601 c 0,3.2744 -0.254,4.8897 -1.02,6.166 -1.148,2.126 -3.402,3.2735 -6.166,3.2735 -2.551,0 -4.294,-0.8496 -5.824,-2.8486 -1.149,1.956 -2.935,2.8916 -5.401,2.8916 -2.083,0 -3.486,-0.6377 -5.102,-2.254 l 0,1.8711 -4.465,0 0,-21.2597 4.465,0 0,12.0752 c 0,1.7011 0.213,2.6787 0.85,3.4863 0.681,0.9785 1.871,1.6162 3.019,1.6162 1.02,0 2.084,-0.4678 2.679,-1.3183 0.552,-0.7657 0.68,-1.4454 0.68,-3.6563 l 0,-12.2031 4.678,0 0,12.2031 c 0,1.9551 0.127,2.6787 0.638,3.3584 0.722,1.0215 1.913,1.6592 3.103,1.6592 1.318,0 2.381,-0.6377 2.891,-1.7012 0.298,-0.6377 0.383,-1.5311 0.383,-3.3163 l 0,-12.2031 4.592,0 z"
       id="path25" /></g></svg>