<?xml version="1.0" encoding="UTF-8" standalone="no"?>
<!-- Created with Inkscape (http://www.inkscape.org/) -->

<svg
   xmlns:dc="http://purl.org/dc/elements/1.1/"
   xmlns:cc="http://creativecommons.org/ns#"
   xmlns:rdf="http://www.w3.org/1999/02/22-rdf-syntax-ns#"
   xmlns:svg="http://www.w3.org/2000/svg"
   xmlns="http://www.w3.org/2000/svg"
   xmlns:sodipodi="http://sodipodi.sourceforge.net/DTD/sodipodi-0.dtd"
   xmlns:inkscape="http://www.inkscape.org/namespaces/inkscape"
   width="429.043"
   height="429.1315"
   id="svg2"
   sodipodi:version="0.32"
   inkscape:version="0.48.2 r9819"
   version="1.0"
   sodipodi:docname="AJAX2.svg"
   inkscape:output_extension="org.inkscape.output.svg.inkscape">
  <defs
     id="defs4">
    <inkscape:perspective
       sodipodi:type="inkscape:persp3d"
       inkscape:vp_x="0 : 300.5 : 1"
       inkscape:vp_y="0 : 1000 : 0"
       inkscape:vp_z="601 : 300.5 : 1"
       inkscape:persp3d-origin="300.5 : 200.33333 : 1"
       id="perspective3380" />
    <inkscape:perspective
       id="perspective3990"
       inkscape:persp3d-origin="375 : 250 : 1"
       inkscape:vp_z="750 : 375 : 1"
       inkscape:vp_y="0 : 1000 : 0"
       inkscape:vp_x="0 : 375 : 1"
       sodipodi:type="inkscape:persp3d" />
  </defs>
  <sodipodi:namedview
     id="base"
     pagecolor="#ffffff"
     bordercolor="#666666"
     borderopacity="1.0"
     gridtolerance="10000"
     guidetolerance="10"
     objecttolerance="10"
     inkscape:pageopacity="0.0"
     inkscape:pageshadow="2"
     inkscape:zoom="1.4891042"
     inkscape:cx="179.7906"
     inkscape:cy="163.89436"
     inkscape:document-units="px"
     inkscape:current-layer="layer1"
     width="601px"
     height="601px"
     inkscape:window-width="1280"
     inkscape:window-height="1004"
     inkscape:window-x="-8"
     inkscape:window-y="-8"
     showgrid="false"
     fit-margin-top="0"
     fit-margin-left="0"
     fit-margin-right="0"
     fit-margin-bottom="0"
     inkscape:window-maximized="1"
     showguides="true"
     inkscape:guide-bbox="true" />
  <metadata
     id="metadata7">
    <rdf:RDF>
      <cc:Work
         rdf:about="">
        <dc:format>image/svg+xml</dc:format>
        <dc:type
           rdf:resource="http://purl.org/dc/dcmitype/StillImage" />
        <dc:title></dc:title>
      </cc:Work>
    </rdf:RDF>
  </metadata>
  <g
     inkscape:label="Layer 1"
     inkscape:groupmode="layer"
     id="layer1"
     transform="translate(131.78642,552.68232)">
    <rect
       style="color:#000000;fill:#000000;fill-opacity:1;fill-rule:nonzero;stroke:none;stroke-width:0.8735441;marker:none;visibility:visible;display:inline;overflow:visible"
       id="rect3653"
       width="0"
       height="27.202072"
       x="578.73834"
       y="298.1684"
       rx="249.48199"
       ry="27.202072" />
    <path
       inkscape:connector-curvature="0"
       style="fill:#ffdb00;fill-rule:nonzero;stroke:none"
       d="m -124.04771,-356.79104 c -10.31861,10.3225 -10.31861,27.05625 0.002,37.3775 l 188.105195,188.1225 c 10.32125,10.32125 27.0525,10.32 37.371255,-0.002 l 188.0875,-188.14875 c 10.31875,-10.3225 10.3175,-27.0575 -0.002,-37.37875 l -188.108,-188.12195 c -10.320005,-10.32105 -27.050005,-10.31982 -37.368755,0.004 L -124.04815,-356.7907 z"
       id="path11" />
    <path
       inkscape:connector-curvature="0"
       style="fill:#000000;fill-rule:nonzero;stroke:none"
       d="m -121.13024,-352.22986 c -7.73926,7.7425 -7.73803,20.29375 0.002,28.03375 l 189.932488,189.9425 c 7.74125,7.74125 20.28875,7.74125 28.0275,-0.001 L 286.743,-324.22711 c 7.73875,-7.7425 7.7375,-20.29375 -0.002,-28.03375 L 96.807998,-542.20438 c -7.74125,-7.74048 -20.29,-7.74048 -28.02875,10e-4 l -189.909488,189.97331 z"
       id="path13" />
    <path
       inkscape:connector-curvature="0"
       style="fill:#ffdb00;fill-rule:nonzero;stroke:none"
       d="m -116.58072,-344.86312 c -3.78294,3.785 -3.78294,9.92 0.001,13.705 l 192.739558,192.75 c 3.78375,3.78375 9.92,3.7825 13.7025,-0.001 L 282.57484,-331.18537 c 3.7825,-3.78375 3.7825,-9.92 -10e-4,-13.705 L 89.834838,-537.63899 c -3.785,-3.78413 -9.92,-3.78413 -13.7025,0.001 l -192.713308,192.77462 z"
       id="path15" />
    <path
       inkscape:connector-curvature="0"
       style="fill:#000000;fill-rule:nonzero;stroke:none"
       d="m 169.67962,-386.31414 16.62,6.4825 c 0.93875,0.4025 1.87875,0.60375 2.86625,0.60375 3.915,0 7.0875,-3.1725 7.0875,-7.08625 0,-1.31375 -0.3575,-2.54375 -0.98,-3.59875 -0.5075,-0.97375 -43.31125,-60.18087 -43.31125,-60.18087 0,0 -42.8025,59.20712 -43.31125,60.18087 -0.6225,1.055 -0.98,2.285 -0.98,3.59875 0,3.91375 3.1725,7.08625 7.08625,7.08625 0.9875,0 1.92875,-0.20125 2.86625,-0.60375 l 16.6225,-6.4825 c 0,49.6025 19.79,94.49162 51.90625,127.38412 l 24.89125,-25.13375 c -25.60875,-26.46375 -41.36375,-62.51537 -41.36375,-102.25037 z"
       id="path17" />
    <path
       inkscape:connector-curvature="0"
       style="fill:#000000;fill-rule:nonzero;stroke:none"
       d="m 31.489625,-250.25252 -35.432505,0 0,-136.06162 -16.62225,6.4825 c -0.93875,0.4025 -1.87862,0.60375 -2.86612,0.60375 -3.91362,0 -7.08625,-3.1725 -7.08625,-7.08625 0,-1.31375 0.3565,-2.54375 0.98025,-3.59875 0.50663,-0.97375 43.310625,-60.18087 43.310625,-60.18087 0,0 42.80375,59.20712 43.31,60.18087 0.62375,1.055 0.98125,2.285 0.98125,3.59875 0,3.91375 -3.17375,7.08625 -7.08625,7.08625 -0.9875,0 -1.9275,-0.20125 -2.86625,-0.60375 l -16.6225,-6.4825 0,136.06162 z"
       id="path19" />
    <path
       inkscape:connector-curvature="0"
       style="fill:#000000;fill-rule:nonzero;stroke:none"
       d="m 150.14837,-223.02652 -61.69125,62.06625 -10.63,0 0,-354.1775 10.63,0 0,177.16 c 9.335,44.25625 31.16,83.84 61.69125,114.95125 z"
       id="path21" />
  </g>
</svg>
