<?xml version="1.0" encoding="UTF-8" standalone="no"?>
<!-- Created with Inkscape (http://www.inkscape.org/) -->

<svg
   xmlns:dc="http://purl.org/dc/elements/1.1/"
   xmlns:cc="http://creativecommons.org/ns#"
   xmlns:rdf="http://www.w3.org/1999/02/22-rdf-syntax-ns#"
   xmlns:svg="http://www.w3.org/2000/svg"
   xmlns="http://www.w3.org/2000/svg"
   xmlns:sodipodi="http://sodipodi.sourceforge.net/DTD/sodipodi-0.dtd"
   xmlns:inkscape="http://www.inkscape.org/namespaces/inkscape"
   id="svg17624"
   version="1.1"
   inkscape:version="0.48.4 r9939"
   width="200.2"
   height="200.2"
   xml:space="preserve"
   sodipodi:docname="AJAX1.svg"><metadata
     id="metadata17630"><rdf:RDF><cc:Work
         rdf:about=""><dc:format>image/svg+xml</dc:format><dc:type
           rdf:resource="http://purl.org/dc/dcmitype/StillImage" /><dc:title /></cc:Work></rdf:RDF></metadata><defs
     id="defs17628"><inkscape:perspective
       sodipodi:type="inkscape:persp3d"
       inkscape:vp_x="0 : 0.5 : 1"
       inkscape:vp_y="0 : 1000 : 0"
       inkscape:vp_z="1 : 0.5 : 1"
       inkscape:persp3d-origin="0.5 : 0.33333333 : 1"
       id="perspective17632" /><clipPath
       clipPathUnits="userSpaceOnUse"
       id="clipPath17642"><path
         d="m -2,710 501,0 0,-711 -501,0 0,711 z"
         id="path17644"
         inkscape:connector-curvature="0" /></clipPath><clipPath
       clipPathUnits="userSpaceOnUse"
       id="clipPath17648"><path
         d="m 0,708.06 498,0 0,-708 -498,0 0,708 z"
         id="path17650"
         inkscape:connector-curvature="0" /></clipPath><clipPath
       clipPathUnits="userSpaceOnUse"
       id="clipPath17798"><path
         d="m -2,710 501,0 0,-711 -501,0 0,711 z"
         id="path17800"
         inkscape:connector-curvature="0" /></clipPath><clipPath
       clipPathUnits="userSpaceOnUse"
       id="clipPath17804"><path
         d="m 0,708.06 498,0 0,-708 -498,0 0,708 z"
         id="path17806"
         inkscape:connector-curvature="0" /></clipPath><clipPath
       id="Clip0"><path
         inkscape:connector-curvature="0"
         d="m 0,0 212.597,0 0,269.292 L 0,269.292 0,0 z"
         transform="translate(0.923828,0.879883)"
         id="path7" /></clipPath></defs><sodipodi:namedview
     pagecolor="#ffffff"
     bordercolor="#666666"
     borderopacity="1"
     objecttolerance="10"
     gridtolerance="10"
     guidetolerance="10"
     inkscape:pageopacity="0"
     inkscape:pageshadow="2"
     inkscape:window-width="1280"
     inkscape:window-height="1004"
     id="namedview17626"
     showgrid="false"
     inkscape:zoom="3.6759909"
     inkscape:cx="82.171432"
     inkscape:cy="105.20593"
     inkscape:window-x="-8"
     inkscape:window-y="-8"
     inkscape:window-maximized="1"
     inkscape:current-layer="g17634"
     fit-margin-top="0.1"
     fit-margin-left="0.1"
     fit-margin-right="0.1"
     fit-margin-bottom="0.1"
     showguides="true"
     inkscape:guide-bbox="true" /><g
     id="g17634"
     inkscape:groupmode="layer"
     inkscape:label="GG1999P002"
     transform="matrix(1.25,0,0,-1.25,160.49062,77.404677)"><path
       sodipodi:nodetypes="sssss"
       inkscape:connector-curvature="0"
       id="path3787"
       d="m 31.6875,-18.156349 c 0,44.18241 -35.816846,80.000091 -80.000009,80.000091 -44.183435,0 -79.999991,-35.817587 -79.999991,-80.000001 0,-44.18334 35.816556,-80 79.999991,-80 44.183163,0 80.000009,35.81656 80.000009,79.9999 z"
       style="fill:#c0111e;fill-opacity:1;fill-rule:nonzero;stroke:none" /><path
       style="fill:#ffffff;fill-opacity:1;fill-rule:nonzero;stroke:none"
       d="m 5.021104,-18.15632 c 0,29.455087 -23.878016,53.333659 -53.333604,53.333659 -29.45577,0 -53.3336,-23.878509 -53.3336,-53.333599 0,-29.455706 23.87783,-53.333598 53.3336,-53.333598 29.455588,0 53.333604,23.877825 53.333604,53.333532 z"
       id="path3033"
       inkscape:connector-curvature="0"
       sodipodi:nodetypes="sssss" /><path
       style="fill:#000000;fill-rule:nonzero;stroke:none"
       d="m -77.804986,-44.681773 8.37479,0 c 0,7.681175 1.35053,15.556896 4.05329,23.62942 2.84528,8.605456 6.6505,15.558118 11.4148,20.85629404 l 0,8.85437596 -35.68393,0 0,-8.42812496 25.70969,0 c -3.80522,-4.62291004 -7.04091,-11.18328204 -9.70876,-19.68215204 -2.7736,-8.74779 -4.15988,-17.158229 -4.15988,-25.229813 z"
       id="path11-2"
       inkscape:connector-curvature="0" /><path
       style="fill:#000000;fill-rule:evenodd;stroke:none"
       d="m -25.746276,-45.694016 c 12.446984,0 18.669064,9.225879 18.669064,27.682618 0,18.49145204 -6.22208,27.73633 -18.669064,27.73633 -12.44642,0 -18.66869,-9.24487796 -18.66869,-27.73633 0,-18.456739 6.22227,-27.682618 18.66869,-27.682618 z m 0,8.159075 c -6.93422,0 -10.40133,6.50835 -10.40133,19.523543 0,13.014158 3.46711,19.522225 10.40133,19.522225 6.89848,0 10.348184,-6.508067 10.348184,-19.522225 0,-13.015193 -3.449704,-19.523543 -10.348184,-19.523543 z"
       id="path13-4"
       inkscape:connector-curvature="0" /></g></svg>