<?xml version="1.0" encoding="UTF-8" standalone="no"?>
<!-- Created with Inkscape (http://www.inkscape.org/) -->

<svg
   xmlns:dc="http://purl.org/dc/elements/1.1/"
   xmlns:cc="http://creativecommons.org/ns#"
   xmlns:rdf="http://www.w3.org/1999/02/22-rdf-syntax-ns#"
   xmlns:svg="http://www.w3.org/2000/svg"
   xmlns="http://www.w3.org/2000/svg"
   xmlns:sodipodi="http://sodipodi.sourceforge.net/DTD/sodipodi-0.dtd"
   xmlns:inkscape="http://www.inkscape.org/namespaces/inkscape"
   id="svg17624"
   version="1.1"
   inkscape:version="0.48.2 r9819"
   width="266.95312"
   height="112.10938"
   xml:space="preserve"
   sodipodi:docname="AA.svg"><metadata
     id="metadata17630"><rdf:RDF><cc:Work
         rdf:about=""><dc:format>image/svg+xml</dc:format><dc:type
           rdf:resource="http://purl.org/dc/dcmitype/StillImage" /><dc:title></dc:title></cc:Work></rdf:RDF></metadata><defs
     id="defs17628"><inkscape:perspective
       sodipodi:type="inkscape:persp3d"
       inkscape:vp_x="0 : 0.5 : 1"
       inkscape:vp_y="0 : 1000 : 0"
       inkscape:vp_z="1 : 0.5 : 1"
       inkscape:persp3d-origin="0.5 : 0.33333333 : 1"
       id="perspective17632" /><clipPath
       clipPathUnits="userSpaceOnUse"
       id="clipPath17642"><path
         d="m -2,710 501,0 0,-711 -501,0 0,711 z"
         id="path17644"
         inkscape:connector-curvature="0" /></clipPath><clipPath
       clipPathUnits="userSpaceOnUse"
       id="clipPath17648"><path
         d="m 0,708.06 498,0 0,-708 -498,0 0,708 z"
         id="path17650"
         inkscape:connector-curvature="0" /></clipPath><clipPath
       clipPathUnits="userSpaceOnUse"
       id="clipPath17798"><path
         d="m -2,710 501,0 0,-711 -501,0 0,711 z"
         id="path17800"
         inkscape:connector-curvature="0" /></clipPath><clipPath
       clipPathUnits="userSpaceOnUse"
       id="clipPath17804"><path
         d="m 0,708.06 498,0 0,-708 -498,0 0,708 z"
         id="path17806"
         inkscape:connector-curvature="0" /></clipPath><clipPath
       id="Clip0"><path
         inkscape:connector-curvature="0"
         d="m 0,0 212.597,0 0,269.292 L 0,269.292 0,0 z"
         transform="translate(0.923828,0.879883)"
         id="path7" /></clipPath><clipPath
       id="Clip0-8"><path
         inkscape:connector-curvature="0"
         d="m 0,0 170.079,0 0,113.386 L 0,113.386 0,0 z"
         transform="translate(0.0986328,0.822266)"
         id="path7-8" /></clipPath><clipPath
       id="Clip0-1"><path
         inkscape:connector-curvature="0"
         d="m 0,0 287.009,0 0,159.449 L 0,159.449 0,0 z"
         transform="translate(0.396484,0.267578)"
         id="path7-7" /></clipPath><clipPath
       id="Clip0-9"><path
         inkscape:connector-curvature="0"
         d="m 0,0 170.079,0 0,170.079 L 0,170.079 0,0 z"
         transform="translate(0.460938,0.775391)"
         id="path7-4" /></clipPath><clipPath
       id="Clip0-4"><path
         inkscape:connector-curvature="0"
         d="m 0,0 340.157,0 0,226.771 L 0,226.771 0,0 z"
         transform="translate(0.921875,0.25293)"
         id="path7-5" /></clipPath><clipPath
       id="Clip0-5"><path
         inkscape:connector-curvature="0"
         d="m 0,0 255.119,0 0,170.079 L 0,170.079 0,0 z"
         transform="translate(0.147461,0.0595703)"
         id="path7-1" /></clipPath></defs><sodipodi:namedview
     pagecolor="#ffffff"
     bordercolor="#666666"
     borderopacity="1"
     objecttolerance="10"
     gridtolerance="10"
     guidetolerance="10"
     inkscape:pageopacity="0"
     inkscape:pageshadow="2"
     inkscape:window-width="1280"
     inkscape:window-height="1004"
     id="namedview17626"
     showgrid="false"
     inkscape:zoom="2.0000001"
     inkscape:cx="183.35141"
     inkscape:cy="55.358213"
     inkscape:window-x="-8"
     inkscape:window-y="-8"
     inkscape:window-maximized="1"
     inkscape:current-layer="g17634"
     fit-margin-top="0"
     fit-margin-left="0"
     fit-margin-right="0"
     fit-margin-bottom="0"
     showguides="true"
     inkscape:guide-bbox="true" /><g
     id="g17634"
     inkscape:groupmode="layer"
     inkscape:label="GG1999P002"
     transform="matrix(1.25,0,0,-1.25,481.32812,-555.97656)"><path
       inkscape:connector-curvature="0"
       style="fill:#ffffff;fill-rule:nonzero;stroke:#000000;stroke-width:0.95999998;stroke-miterlimit:4;stroke-opacity:1;stroke-dasharray:none"
       d="m -384.58711,-459.43208 c 0,7.82817 6.34473,14.1729 14.1729,14.1729 l 184.2511,0 c 7.829,0 14.173,-6.34473 14.173,-14.1729 l 0,-60.3779 c 0,-7.8281 -6.344,-14.1729 -14.173,-14.1729 l -184.2511,0 c -7.82817,0 -14.1729,6.3448 -14.1729,14.1729 l 0,60.3779 z"
       id="path11" /><path
       inkscape:connector-curvature="0"
       style="fill:#c0111e;fill-opacity:1;fill-rule:nonzero;stroke:none"
       d="m -382.03633,-459.43206 c 0,6.41897 5.20313,11.6221 11.6221,11.6221 l 184.2519,0 c 6.419,0 11.623,-5.20313 11.623,-11.6221 l 0,-60.3779 c 0,-6.419 -5.204,-11.6221 -11.623,-11.6221 l -184.2519,0 c -6.41897,0 -11.6221,5.2031 -11.6221,11.6221 l 0,60.3779 z"
       id="path13-7" /><path
       inkscape:connector-curvature="0"
       style="fill:#ffffff;fill-rule:nonzero;stroke:none"
       d="m -378.35176,-459.43205 c 0,4.38381 3.55371,7.93752 7.93751,7.93752 l 184.25149,0 c 4.384,0 7.938,-3.55371 7.938,-7.93752 l 0,-60.37788 c 0,-4.3838 -3.554,-7.9375 -7.938,-7.9375 l -184.25149,0 c -4.3838,0 -7.93751,3.5537 -7.93751,7.9375 l 0,60.37788 z"
       id="path15" /><path
       inkscape:connector-curvature="0"
       style="fill:#000000;fill-rule:nonzero;stroke:none"
       d="m -347.77265,-480.58825 5.2793,-1.3116 c 0.4248,1.6065 1.2168,2.8584 2.374,3.7559 1.1572,0.9219 2.457,1.3828 3.8975,1.3828 1.6777,0 3.1777,-0.4971 4.5,-1.4892 1.417,-1.0625 2.126,-2.4092 2.126,-4.0391 0,-1.2041 -0.5782,-2.2676 -1.7364,-3.1885 -0.7549,-0.5908 -1.9609,-1.2285 -3.6142,-1.914 -1.6534,-0.6612 -2.6328,-1.0987 -2.9405,-1.3106 -6.6611,-4.748 -9.9922,-10.9726 -9.9922,-18.6728 l 23.7051,0 0,5.7753 -17.3271,0 c 1.1572,2.3379 2.2676,4.1456 3.3301,5.4209 1.0869,1.2754 2.3623,2.3262 3.8271,3.1534 1.4414,0.5908 3.4492,1.5595 6.0234,2.9062 0.9219,0.6377 1.7725,1.5469 2.5518,2.7276 1.0625,1.6533 1.5947,3.3789 1.5947,5.1738 0,3.5898 -1.2402,6.3662 -3.7207,8.3262 -2.2441,1.7724 -5.1377,2.6572 -8.6816,2.6572 -2.5742,0 -4.9717,-0.9092 -7.1924,-2.7276 -2.3154,-1.8662 -3.6504,-4.0752 -4.0039,-6.6259 z"
       id="path17" /><path
       inkscape:connector-curvature="0"
       style="fill:#000000;fill-rule:evenodd;stroke:none"
       d="m -305.04125,-508.04925 c 8.2686,0 12.4024,6.1299 12.4024,18.3897 0,12.2842 -4.1338,18.4248 -12.4024,18.4248 -8.2675,0 -12.4004,-6.1406 -12.4004,-18.4248 0,-12.2598 4.1329,-18.3897 12.4004,-18.3897 z m 0,5.4209 c -4.6064,0 -6.9091,4.3233 -6.9091,12.9688 0,8.6455 2.3027,12.9687 6.9091,12.9687 4.583,0 6.8741,-4.3232 6.8741,-12.9687 0,-8.6455 -2.2911,-12.9688 -6.8741,-12.9688 z"
       id="path19" /><path
       inkscape:connector-curvature="0"
       style="fill:#000000;fill-rule:evenodd;stroke:none"
       d="m -273.54075,-508.04925 c 8.268,0 12.402,6.1299 12.402,18.3897 0,12.2842 -4.134,18.4248 -12.402,18.4248 -8.268,0 -12.4018,-6.1406 -12.4018,-18.4248 0,-12.2598 4.1338,-18.3897 12.4018,-18.3897 z m 0,5.4209 c -4.607,0 -6.91,4.3233 -6.91,12.9688 0,8.6455 2.303,12.9687 6.91,12.9687 4.583,0 6.874,-4.3232 6.874,-12.9687 0,-8.6455 -2.291,-12.9688 -6.874,-12.9688 z"
       id="path21" /><path
       inkscape:connector-curvature="0"
       style="fill:#000000;fill-rule:nonzero;stroke:none"
       d="m -208.69775,-507.33735 0,13.5518 c 0,3.6494 -0.284,5.4502 -1.137,6.8721 -1.28,2.3691 -3.791,3.6484 -6.871,3.6484 -2.844,0 -4.787,-0.9473 -6.493,-3.1748 -1.279,2.1797 -3.269,3.2227 -6.018,3.2227 -2.322,0 -3.886,-0.711 -5.686,-2.5127 l 0,2.0859 -4.976,0 0,-23.6934 4.976,0 0,13.4571 c 0,1.8965 0.237,2.9863 0.947,3.8857 0.758,1.0908 2.085,1.8018 3.365,1.8018 1.137,0 2.322,-0.5215 2.985,-1.4698 0.616,-0.8525 0.759,-1.6103 0.759,-4.0751 l 0,-13.5997 5.213,0 0,13.5997 c 0,2.1796 0.141,2.9853 0.71,3.7431 0.805,1.1377 2.133,1.8487 3.46,1.8487 1.467,0 2.653,-0.711 3.221,-1.8956 0.332,-0.7109 0.427,-1.706 0.427,-3.6962 l 0,-13.5997 5.118,0 z"
       id="path23" /></g></svg>