<?xml version="1.0" encoding="UTF-8" standalone="no"?>
<!-- Created with Inkscape (http://www.inkscape.org/) -->

<svg
   xmlns:dc="http://purl.org/dc/elements/1.1/"
   xmlns:cc="http://creativecommons.org/ns#"
   xmlns:rdf="http://www.w3.org/1999/02/22-rdf-syntax-ns#"
   xmlns:svg="http://www.w3.org/2000/svg"
   xmlns="http://www.w3.org/2000/svg"
   xmlns:sodipodi="http://sodipodi.sourceforge.net/DTD/sodipodi-0.dtd"
   xmlns:inkscape="http://www.inkscape.org/namespaces/inkscape"
   id="svg17624"
   version="1.1"
   inkscape:version="0.48.2 r9819"
   width="213.78906"
   height="213.78906"
   xml:space="preserve"
   sodipodi:docname="AA.svg"><metadata
     id="metadata17630"><rdf:RDF><cc:Work
         rdf:about=""><dc:format>image/svg+xml</dc:format><dc:type
           rdf:resource="http://purl.org/dc/dcmitype/StillImage" /><dc:title /></cc:Work></rdf:RDF></metadata><defs
     id="defs17628"><inkscape:perspective
       sodipodi:type="inkscape:persp3d"
       inkscape:vp_x="0 : 0.5 : 1"
       inkscape:vp_y="0 : 1000 : 0"
       inkscape:vp_z="1 : 0.5 : 1"
       inkscape:persp3d-origin="0.5 : 0.33333333 : 1"
       id="perspective17632" /><clipPath
       clipPathUnits="userSpaceOnUse"
       id="clipPath17642"><path
         d="m -2,710 501,0 0,-711 -501,0 0,711 z"
         id="path17644"
         inkscape:connector-curvature="0" /></clipPath><clipPath
       clipPathUnits="userSpaceOnUse"
       id="clipPath17648"><path
         d="m 0,708.06 498,0 0,-708 -498,0 0,708 z"
         id="path17650"
         inkscape:connector-curvature="0" /></clipPath><clipPath
       clipPathUnits="userSpaceOnUse"
       id="clipPath17798"><path
         d="m -2,710 501,0 0,-711 -501,0 0,711 z"
         id="path17800"
         inkscape:connector-curvature="0" /></clipPath><clipPath
       clipPathUnits="userSpaceOnUse"
       id="clipPath17804"><path
         d="m 0,708.06 498,0 0,-708 -498,0 0,708 z"
         id="path17806"
         inkscape:connector-curvature="0" /></clipPath><clipPath
       id="Clip0"><path
         inkscape:connector-curvature="0"
         d="m 0,0 212.597,0 0,269.292 L 0,269.292 0,0 z"
         transform="translate(0.923828,0.879883)"
         id="path7" /></clipPath><clipPath
       id="Clip0-8"><path
         inkscape:connector-curvature="0"
         d="m 0,0 170.079,0 0,113.386 L 0,113.386 0,0 z"
         transform="translate(0.0986328,0.822266)"
         id="path7-8" /></clipPath><clipPath
       id="Clip0-1"><path
         inkscape:connector-curvature="0"
         d="m 0,0 287.009,0 0,159.449 L 0,159.449 0,0 z"
         transform="translate(0.396484,0.267578)"
         id="path7-7" /></clipPath><clipPath
       id="Clip0-9"><path
         inkscape:connector-curvature="0"
         d="m 0,0 170.079,0 0,170.079 L 0,170.079 0,0 z"
         transform="translate(0.460938,0.775391)"
         id="path7-4" /></clipPath><clipPath
       id="Clip0-4"><path
         inkscape:connector-curvature="0"
         d="m 0,0 340.157,0 0,226.771 L 0,226.771 0,0 z"
         transform="translate(0.921875,0.25293)"
         id="path7-5" /></clipPath><clipPath
       id="Clip0-5"><path
         inkscape:connector-curvature="0"
         d="m 0,0 255.119,0 0,170.079 L 0,170.079 0,0 z"
         transform="translate(0.147461,0.0595703)"
         id="path7-1" /></clipPath><clipPath
       id="Clip0-0"><path
         inkscape:connector-curvature="0"
         d="m 0,0 170.079,0 0,113.386 L 0,113.386 0,0 z"
         transform="translate(0.0673828,0.207031)"
         id="path7-9" /></clipPath></defs><sodipodi:namedview
     pagecolor="#ffffff"
     bordercolor="#666666"
     borderopacity="1"
     objecttolerance="10"
     gridtolerance="10"
     guidetolerance="10"
     inkscape:pageopacity="0"
     inkscape:pageshadow="2"
     inkscape:window-width="1280"
     inkscape:window-height="1004"
     id="namedview17626"
     showgrid="false"
     inkscape:zoom="2"
     inkscape:cx="126.38929"
     inkscape:cy="78.080195"
     inkscape:window-x="-8"
     inkscape:window-y="-8"
     inkscape:window-maximized="1"
     inkscape:current-layer="g17634"
     fit-margin-top="0"
     fit-margin-left="0"
     fit-margin-right="0"
     fit-margin-bottom="0"
     showguides="true"
     inkscape:guide-bbox="true" /><g
     id="g17634"
     inkscape:groupmode="layer"
     inkscape:label="GG1999P002"
     transform="matrix(1.25,0,0,-1.25,1812.8906,-1302.0703)"><path
       inkscape:connector-curvature="0"
       style="fill:#ffffff;fill-rule:nonzero;stroke:#000000;stroke-width:0.95999998;stroke-miterlimit:4;stroke-opacity:1;stroke-dasharray:none"
       d="m -1449.824,-1053.4777 c 0,6.2627 5.0762,11.3388 11.3379,11.3388 l 147.4021,0 c 6.262,0 11.338,-5.0761 11.338,-11.3388 l 0,-147.4012 c 0,-6.262 -5.076,-11.339 -11.338,-11.339 l -147.4021,0 c -6.2617,0 -11.3379,5.077 -11.3379,11.339 l 0,147.4012 z"
       id="path11" /><path
       inkscape:connector-curvature="0"
       style="fill:#c0111e;fill-opacity:1;fill-rule:nonzero;stroke:none"
       d="m -1446.99,-1053.4777 c 0,4.6962 3.8077,8.5039 8.5038,8.5039 l 147.4022,0 c 4.6959,0 8.5039,-3.8077 8.5039,-8.5039 l 0,-147.4012 c 0,-4.696 -3.808,-8.504 -8.5039,-8.504 l -147.4022,0 c -4.6962,0 -8.5038,3.808 -8.5038,8.504 l 0,147.4012 z"
       id="path13-1" /><path
       inkscape:connector-curvature="0"
       style="fill:#ffffff;fill-rule:nonzero;stroke:none"
       d="m -1442.4539,-1053.4777 c 0,2.1923 1.7764,3.9687 3.9678,3.9687 l 147.4022,0 c 2.191,0 3.968,-1.7764 3.968,-3.9687 l 0,-147.4013 c 0,-2.192 -1.777,-3.969 -3.968,-3.969 l -147.4022,0 c -2.1914,0 -3.9678,1.777 -3.9678,3.969 l 0,147.4013 z"
       id="path15" /><path
       inkscape:connector-curvature="0"
       style="fill:#000000;fill-rule:evenodd;stroke:none"
       d="m -1368.8934,-1093.3264 9.167,0 c 1.2705,0 2.3945,-0.4892 3.373,-1.4687 1.0059,-0.9522 1.5078,-2.0098 1.5078,-3.1748 0,-1.5342 -0.4228,-2.8438 -1.2695,-3.9287 -0.8467,-1.084 -1.9307,-1.627 -3.2539,-1.627 l -9.5244,0 0,10.1992 z m -6.1504,5.8731 0,-39.6836 6.1504,0 0,17.3418 8.2148,0 c 3.545,0 6.4815,1.1504 8.8096,3.4521 2.2492,2.2491 3.3732,5.0274 3.3732,8.334 0,2.9629 -1.124,5.4629 -3.3732,7.5 -2.248,2.0371 -4.9072,3.0557 -7.9766,3.0557 l -15.1982,0 z"
       id="path17" /><path
       inkscape:connector-curvature="0"
       style="fill:#c0111e;fill-opacity:1;fill-rule:nonzero;stroke:none"
       d="m -1390.3514,-1107.2932 c 0,-14.0888 11.4219,-25.5108 25.5117,-25.5108 6.0234,0 11.5596,2.0869 15.9239,5.5781 l -35.8565,35.8575 c -3.4912,-4.3642 -5.5791,-9.9004 -5.5791,-15.9248 z m 9.5879,19.9327 35.8567,-35.8566 c 3.491,4.3644 5.579,9.9005 5.579,15.9239 0,14.0899 -11.4221,25.5118 -25.5119,25.5118 -6.0234,0 -11.5596,-2.0879 -15.9238,-5.5791 z m -18.0918,-19.9327 c 0,18.7871 15.2295,34.0157 34.0156,34.0157 18.7859,0 34.0159,-15.2286 34.0159,-34.0157 0,-18.7862 -15.23,-34.0149 -34.0159,-34.0149 -18.7861,0 -34.0156,15.2287 -34.0156,34.0149 z"
       id="path19" /><path
       inkscape:connector-curvature="0"
       style="fill:#c0111e;fill-opacity:1;fill-rule:nonzero;stroke:none"
       d="m -1415.1014,-1162.2771 0,3.493 -13.4912,0 0,-3.493 5.1416,0 0,-18.335 3.1816,0 0,18.335 5.168,0 z"
       id="path21" /><path
       inkscape:connector-curvature="0"
       style="fill:#c0111e;fill-opacity:1;fill-rule:evenodd;stroke:none"
       d="m -1401.6639,-1178.4591 c -1.2725,0.623 -1.4053,0.967 -1.4053,3.086 l 0,5.707 c 0,1.839 -0.1855,2.556 -0.874,3.429 -0.7949,0.998 -2.2793,1.559 -4.1084,1.559 -1.8291,0 -3.7109,-0.529 -5.5127,-1.59 l 1.166,-2.65 c 1.8555,0.935 2.7832,1.216 4.0557,1.216 1.6953,0 2.4111,-0.748 2.4375,-2.494 l 0,-0.5 c -2.2256,-0.25 -2.9951,-0.374 -3.8692,-0.561 -2.8359,-0.654 -4.1875,-2.089 -4.1875,-4.583 0,-2.932 2.1729,-5.177 5.0352,-5.177 1.5107,0 2.7041,0.655 3.5781,1.934 0.2656,-1.061 1.0342,-1.715 2.2793,-1.934 l 1.4053,2.558 z m -4.2412,2.774 c 0,-0.904 -0.1328,-1.247 -0.503,-1.652 -0.5039,-0.53 -1.3789,-0.873 -2.0673,-0.873 -1.3516,0 -2.4649,1.029 -2.4649,2.307 0,1.06 0.583,1.684 1.8809,2.027 0.875,0.249 1.5644,0.344 3.1543,0.53 l 0,-2.339 z"
       id="path23" /><path
       inkscape:connector-curvature="0"
       style="fill:#c0111e;fill-opacity:1;fill-rule:nonzero;stroke:none"
       d="m -1386.5311,-1180.6121 -4.6914,8.17 4.3213,7.421 -3.4463,0 -2.624,-4.645 -2.4112,4.645 -3.4453,0 4.1338,-7.421 -4.9033,-8.17 3.5517,0 2.9952,5.395 2.9677,-5.395 3.5518,0 z"
       id="path25" /><path
       inkscape:connector-curvature="0"
       style="fill:#c0111e;fill-opacity:1;fill-rule:evenodd;stroke:none"
       d="m -1381.2831,-1160.9981 c 0,1.091 -0.8222,2.089 -1.75,2.089 -1.0332,0 -1.8544,-0.967 -1.8544,-2.089 0,-1.185 0.8212,-2.12 1.8281,-2.12 0.9541,0 1.7763,0.935 1.7763,2.12 z m -0.3711,-19.614 0,15.564 -2.8623,0 0,-15.564 2.8623,0 z"
       id="path27" /><path
       inkscape:connector-curvature="0"
       style="fill:#c0111e;fill-opacity:1;fill-rule:nonzero;stroke:none"
       d="m -1356.37,-1174.2501 c 0,1.591 -0.4502,2.993 -1.3252,4.116 -0.9277,1.153 -1.9345,1.715 -4.1347,2.151 -2.2266,0.437 -2.6241,0.53 -3.4717,0.967 -1.0606,0.468 -1.4844,1.309 -1.4844,2.338 0,1.777 1.5635,3.024 3.6318,3.024 1.6426,0 2.3047,-0.654 3.6836,-2.369 l 2.7823,1.341 c -1.2451,3.367 -3.7364,4.365 -6.7051,4.365 -3.9229,0 -6.626,-2.587 -6.626,-6.455 0,-1.932 0.6621,-3.585 1.8555,-4.676 0.9277,-0.78 1.8017,-1.216 4.1074,-1.684 1.8818,-0.343 2.3066,-0.53 2.9688,-0.904 0.9541,-0.531 1.4843,-1.435 1.4843,-2.588 0,-1.809 -1.3252,-3.15 -3.4453,-3.15 -1.9346,0 -3.4453,0.936 -5.1943,3.119 l -2.4922,-2.152 c 2.041,-2.838 4.6914,-4.271 7.8457,-4.271 4.0283,0 6.5195,2.712 6.5195,6.828 z"
       id="path29" /><path
       inkscape:connector-curvature="0"
       style="fill:#c0111e;fill-opacity:1;fill-rule:nonzero;stroke:none"
       d="m -1344.6548,-1180.3621 -0.345,2.931 c -0.609,-0.124 -1.113,-0.187 -1.59,-0.187 -1.378,0 -1.696,0.437 -1.696,2.37 l 0,7.359 3.445,0 0,2.868 -3.445,0 0,6.237 -2.8098,0 0,-6.237 -2.4384,0 0,-2.868 2.4384,0 0,-8.481 c 0,-3.15 1.0069,-4.428 3.6048,-4.428 0.901,0 1.934,0.155 2.836,0.436 z"
       id="path31" /><path
       inkscape:connector-curvature="0"
       style="fill:#c0111e;fill-opacity:1;fill-rule:evenodd;stroke:none"
       d="m -1330.5018,-1178.4591 c -1.272,0.623 -1.405,0.967 -1.405,3.086 l 0,5.707 c 0,1.839 -0.185,2.556 -0.874,3.429 -0.795,0.998 -2.28,1.559 -4.109,1.559 -1.828,0 -3.711,-0.529 -5.512,-1.59 l 1.166,-2.65 c 1.855,0.935 2.783,1.216 4.055,1.216 1.696,0 2.411,-0.748 2.438,-2.494 l 0,-0.5 c -2.226,-0.25 -2.995,-0.374 -3.869,-0.561 -2.836,-0.654 -4.188,-2.089 -4.188,-4.583 0,-2.932 2.173,-5.177 5.035,-5.177 1.511,0 2.704,0.655 3.578,1.934 0.266,-1.061 1.035,-1.715 2.28,-1.934 l 1.405,2.558 z m -4.241,2.774 c 0,-0.904 -0.132,-1.247 -0.503,-1.652 -0.504,-0.53 -1.379,-0.873 -2.068,-0.873 -1.351,0 -2.464,1.029 -2.464,2.307 0,1.06 0.583,1.684 1.881,2.027 0.874,0.249 1.564,0.344 3.154,0.53 l 0,-2.339 z"
       id="path33" /><path
       inkscape:connector-curvature="0"
       style="fill:#c0111e;fill-opacity:1;fill-rule:evenodd;stroke:none"
       d="m -1316.4018,-1180.6121 0,9.542 c 0,2.338 -0.186,3.43 -0.849,4.459 -0.795,1.216 -2.12,1.933 -3.71,1.933 -1.299,0 -2.12,-0.343 -3.366,-1.527 l 0,1.184 -2.81,0 0,-15.591 2.81,0 0,8.826 c 0,1.34 0.185,2.151 0.663,2.774 0.476,0.624 1.351,1.029 2.094,1.029 0.768,0 1.537,-0.405 1.881,-1.029 0.318,-0.561 0.424,-1.247 0.424,-2.744 l 0,-8.856 2.863,0 z"
       id="path35" /><path
       inkscape:connector-curvature="0"
       style="fill:#c0111e;fill-opacity:1;fill-rule:evenodd;stroke:none"
       d="m -1300.9778,-1180.6121 0,21.578 -2.809,0 0,-7.203 c -1.086,1.06 -2.093,1.528 -3.444,1.528 -3.419,0 -5.805,-3.305 -5.805,-8.075 0,-4.771 2.438,-8.202 5.884,-8.202 1.325,0 2.464,0.531 3.365,1.591 l 0,-1.217 2.809,0 z m -2.835,7.546 c 0,-1.309 -0.08,-2.12 -0.265,-2.68 -0.398,-1.186 -1.537,-2.059 -2.783,-2.059 -1.961,0 -3.234,1.933 -3.234,4.927 0,3.056 1.273,4.989 3.314,4.989 1.245,0 2.438,-0.905 2.757,-2.121 0.158,-0.592 0.211,-1.403 0.211,-3.056 z"
       id="path37" /></g></svg>