<?xml version="1.0" encoding="UTF-8" standalone="no"?>
<!-- Created with Inkscape (http://www.inkscape.org/) -->

<svg
   xmlns:dc="http://purl.org/dc/elements/1.1/"
   xmlns:cc="http://creativecommons.org/ns#"
   xmlns:rdf="http://www.w3.org/1999/02/22-rdf-syntax-ns#"
   xmlns:svg="http://www.w3.org/2000/svg"
   xmlns="http://www.w3.org/2000/svg"
   xmlns:sodipodi="http://sodipodi.sourceforge.net/DTD/sodipodi-0.dtd"
   xmlns:inkscape="http://www.inkscape.org/namespaces/inkscape"
   id="svg17624"
   version="1.1"
   inkscape:version="0.48.4 r9939"
   width="200.2"
   height="200.2"
   xml:space="preserve"
   sodipodi:docname="AJAX1.svg"><metadata
     id="metadata17630"><rdf:RDF><cc:Work
         rdf:about=""><dc:format>image/svg+xml</dc:format><dc:type
           rdf:resource="http://purl.org/dc/dcmitype/StillImage" /><dc:title /></cc:Work></rdf:RDF></metadata><defs
     id="defs17628"><inkscape:perspective
       sodipodi:type="inkscape:persp3d"
       inkscape:vp_x="0 : 0.5 : 1"
       inkscape:vp_y="0 : 1000 : 0"
       inkscape:vp_z="1 : 0.5 : 1"
       inkscape:persp3d-origin="0.5 : 0.33333333 : 1"
       id="perspective17632" /><clipPath
       clipPathUnits="userSpaceOnUse"
       id="clipPath17642"><path
         d="m -2,710 501,0 0,-711 -501,0 0,711 z"
         id="path17644"
         inkscape:connector-curvature="0" /></clipPath><clipPath
       clipPathUnits="userSpaceOnUse"
       id="clipPath17648"><path
         d="m 0,708.06 498,0 0,-708 -498,0 0,708 z"
         id="path17650"
         inkscape:connector-curvature="0" /></clipPath><clipPath
       clipPathUnits="userSpaceOnUse"
       id="clipPath17798"><path
         d="m -2,710 501,0 0,-711 -501,0 0,711 z"
         id="path17800"
         inkscape:connector-curvature="0" /></clipPath><clipPath
       clipPathUnits="userSpaceOnUse"
       id="clipPath17804"><path
         d="m 0,708.06 498,0 0,-708 -498,0 0,708 z"
         id="path17806"
         inkscape:connector-curvature="0" /></clipPath><clipPath
       id="Clip0"><path
         inkscape:connector-curvature="0"
         d="m 0,0 212.597,0 0,269.292 L 0,269.292 0,0 z"
         transform="translate(0.923828,0.879883)"
         id="path7" /></clipPath></defs><sodipodi:namedview
     pagecolor="#ffffff"
     bordercolor="#666666"
     borderopacity="1"
     objecttolerance="10"
     gridtolerance="10"
     guidetolerance="10"
     inkscape:pageopacity="0"
     inkscape:pageshadow="2"
     inkscape:window-width="1280"
     inkscape:window-height="1004"
     id="namedview17626"
     showgrid="false"
     inkscape:zoom="2.5993181"
     inkscape:cx="68.645304"
     inkscape:cy="65.825659"
     inkscape:window-x="-8"
     inkscape:window-y="-8"
     inkscape:window-maximized="1"
     inkscape:current-layer="g17634"
     fit-margin-top="0.1"
     fit-margin-left="0.1"
     fit-margin-right="0.1"
     fit-margin-bottom="0.1"
     showguides="true"
     inkscape:guide-bbox="true" /><g
     id="g17634"
     inkscape:groupmode="layer"
     inkscape:label="GG1999P002"
     transform="matrix(1.25,0,0,-1.25,160.49062,77.404677)"><path
       sodipodi:nodetypes="sssss"
       inkscape:connector-curvature="0"
       id="path3787"
       d="m 31.6875,-18.156349 c 0,44.18241 -35.816846,80.000091 -80.000009,80.000091 -44.183435,0 -79.999991,-35.817587 -79.999991,-80.000001 0,-44.18334 35.816556,-80 79.999991,-80 44.183163,0 80.000009,35.81656 80.000009,79.9999 z"
       style="fill:#c0111e;fill-opacity:1;fill-rule:nonzero;stroke:none" /><path
       style="fill:#ffffff;fill-opacity:1;fill-rule:nonzero;stroke:none"
       d="m 5.021104,-18.15632 c 0,29.455087 -23.878016,53.333659 -53.333604,53.333659 -29.45577,0 -53.3336,-23.878509 -53.3336,-53.333599 0,-29.455706 23.87783,-53.333598 53.3336,-53.333598 29.455588,0 53.333604,23.877825 53.333604,53.333532 z"
       id="path3033"
       inkscape:connector-curvature="0"
       sodipodi:nodetypes="sssss" /><path
       style="fill:#000000;fill-rule:nonzero;stroke:none"
       d="m -89.486206,-4.3568764 7.94769,-1.973304 c 0.63933,2.417994 1.83088,4.30221 3.5737,5.65453004 1.74273,1.38628 3.69863,2.07988996 5.86771,2.07988996 2.52458,0 4.7818,-0.74685596 6.77354,-2.24066396 2.13323,-1.60039304 3.20069,-3.62703804 3.20069,-6.08087504 0,-1.813472 -0.87094,-3.4129246 -2.61367,-4.8001446 -1.13736,-0.889286 -2.95177,-1.849316 -5.44051,-2.880088 -2.48968,-0.996813 -3.96505,-1.654581 -4.42723,-1.97434 -10.02843,-7.147396 -15.04175,-16.517112 -15.04175,-28.109901 l 35.68393,0 0,8.694356 -26.08269,0 c 1.74188,3.520264 3.41301,6.240614 5.01331,8.160672 1.63624,1.920059 3.5563,3.502955 5.76028,4.747747 2.16992,0.888439 5.19243,2.346404 9.06839,4.373989 1.38638,0.960029 2.66701,2.328812 3.84106,4.107477 1.59945,2.488738 2.39965,5.0849086 2.39965,7.7868196 0,5.405609 -1.86672,9.583829 -5.60034,12.535601 -3.37897,2.66701 -7.73452,4.000043 -13.06938,4.000043 -3.87503,0 -7.48457,-1.368876 -10.82684,-4.107476 -3.48546,-2.809437 -5.4947,-6.13421496 -6.02754,-9.974332 z"
       id="path11-9"
       inkscape:connector-curvature="0" /><path
       style="fill:#000000;fill-rule:evenodd;stroke:none"
       d="m -25.745336,-45.694016 c 12.44699,0 18.66907,9.225879 18.66907,27.682618 0,18.49145164 -6.22208,27.7363296 -18.66907,27.7363296 -12.44642,0 -18.66878,-9.24487796 -18.66878,-27.7363296 0,-18.456739 6.22236,-27.682618 18.66878,-27.682618 z m 0,8.159075 c -6.93422,0 -10.40143,6.50835 -10.40143,19.523543 0,13.0141576 3.46721,19.5222246 10.40143,19.5222246 6.89848,0 10.34818,-6.508067 10.34818,-19.5222246 0,-13.015193 -3.4497,-19.523543 -10.34818,-19.523543 z"
       id="path13-4"
       inkscape:connector-curvature="0" /></g></svg>