<?xml version="1.0" encoding="UTF-8" standalone="no"?>
<!-- Created with Inkscape (http://www.inkscape.org/) -->

<svg
   xmlns:dc="http://purl.org/dc/elements/1.1/"
   xmlns:cc="http://creativecommons.org/ns#"
   xmlns:rdf="http://www.w3.org/1999/02/22-rdf-syntax-ns#"
   xmlns:svg="http://www.w3.org/2000/svg"
   xmlns="http://www.w3.org/2000/svg"
   xmlns:sodipodi="http://sodipodi.sourceforge.net/DTD/sodipodi-0.dtd"
   xmlns:inkscape="http://www.inkscape.org/namespaces/inkscape"
   id="svg17624"
   version="1.1"
   inkscape:version="0.48.2 r9819"
   width="125.53906"
   height="178.66406"
   xml:space="preserve"
   sodipodi:docname="AJAX1.svg"><metadata
     id="metadata17630"><rdf:RDF><cc:Work
         rdf:about=""><dc:format>image/svg+xml</dc:format><dc:type
           rdf:resource="http://purl.org/dc/dcmitype/StillImage" /><dc:title /></cc:Work></rdf:RDF></metadata><defs
     id="defs17628"><inkscape:perspective
       sodipodi:type="inkscape:persp3d"
       inkscape:vp_x="0 : 0.5 : 1"
       inkscape:vp_y="0 : 1000 : 0"
       inkscape:vp_z="1 : 0.5 : 1"
       inkscape:persp3d-origin="0.5 : 0.33333333 : 1"
       id="perspective17632" /><clipPath
       clipPathUnits="userSpaceOnUse"
       id="clipPath17642"><path
         d="m -2,710 501,0 0,-711 -501,0 0,711 z"
         id="path17644"
         inkscape:connector-curvature="0" /></clipPath><clipPath
       clipPathUnits="userSpaceOnUse"
       id="clipPath17648"><path
         d="m 0,708.06 498,0 0,-708 -498,0 0,708 z"
         id="path17650"
         inkscape:connector-curvature="0" /></clipPath><clipPath
       clipPathUnits="userSpaceOnUse"
       id="clipPath17798"><path
         d="m -2,710 501,0 0,-711 -501,0 0,711 z"
         id="path17800"
         inkscape:connector-curvature="0" /></clipPath><clipPath
       clipPathUnits="userSpaceOnUse"
       id="clipPath17804"><path
         d="m 0,708.06 498,0 0,-708 -498,0 0,708 z"
         id="path17806"
         inkscape:connector-curvature="0" /></clipPath><clipPath
       id="Clip0"><path
         inkscape:connector-curvature="0"
         d="m 0,0 212.597,0 0,269.292 L 0,269.292 0,0 z"
         transform="translate(0.923828,0.879883)"
         id="path7" /></clipPath><clipPath
       id="Clip0-8"><path
         inkscape:connector-curvature="0"
         d="m 0,0 170.079,0 0,113.386 L 0,113.386 0,0 z"
         transform="translate(0.0986328,0.822266)"
         id="path7-8" /></clipPath><clipPath
       id="Clip0-1"><path
         inkscape:connector-curvature="0"
         d="m 0,0 287.009,0 0,159.449 L 0,159.449 0,0 z"
         transform="translate(0.396484,0.267578)"
         id="path7-7" /></clipPath><clipPath
       id="Clip0-9"><path
         inkscape:connector-curvature="0"
         d="m 0,0 170.079,0 0,170.079 L 0,170.079 0,0 z"
         transform="translate(0.460938,0.775391)"
         id="path7-4" /></clipPath><clipPath
       id="Clip0-4"><path
         inkscape:connector-curvature="0"
         d="m 0,0 340.157,0 0,226.771 L 0,226.771 0,0 z"
         transform="translate(0.921875,0.25293)"
         id="path7-5" /></clipPath><clipPath
       id="Clip0-5"><path
         inkscape:connector-curvature="0"
         d="m 0,0 255.119,0 0,170.079 L 0,170.079 0,0 z"
         transform="translate(0.147461,0.0595703)"
         id="path7-1" /></clipPath></defs><sodipodi:namedview
     pagecolor="#ffffff"
     bordercolor="#666666"
     borderopacity="1"
     objecttolerance="10"
     gridtolerance="10"
     guidetolerance="10"
     inkscape:pageopacity="0"
     inkscape:pageshadow="2"
     inkscape:window-width="1280"
     inkscape:window-height="1004"
     id="namedview17626"
     showgrid="false"
     inkscape:zoom="4.0000001"
     inkscape:cx="61.883016"
     inkscape:cy="53.348103"
     inkscape:window-x="-8"
     inkscape:window-y="-8"
     inkscape:window-maximized="1"
     inkscape:current-layer="g17634"
     fit-margin-top="0.25"
     fit-margin-left="0.25"
     fit-margin-right="0.25"
     fit-margin-bottom="0.25"
     showguides="true"
     inkscape:guide-bbox="true" /><g
     id="g17634"
     inkscape:groupmode="layer"
     inkscape:label="GG1999P002"
     transform="matrix(1.25,0,0,-1.25,552.16406,-547.71875)"><path
       inkscape:connector-curvature="0"
       style="fill:#ffffff;fill-rule:nonzero;stroke:#000000;stroke-width:0.80000001;stroke-miterlimit:4;stroke-opacity:1;stroke-dasharray:none"
       d="m -441.12511,-447.28524 c 0,4.69629 3.80762,8.5039 8.50391,8.5039 l 82.20509,0 c 4.6963,0 8.5039,-3.80761 8.5039,-8.5039 l 0,-124.7241 c 0,-4.697 -3.8076,-8.504 -8.5039,-8.504 l -82.20509,0 c -4.69629,0 -8.50391,3.807 -8.50391,8.504 l 0,124.7241 z"
       id="path11-1" /><path
       inkscape:connector-curvature="0"
       style="fill:#c0111e;fill-opacity:1;fill-rule:nonzero;stroke:none"
       d="m -439.14073,-447.28525 c 0,3.60058 2.91894,6.51953 6.51953,6.51953 l 82.20507,0 c 3.6006,0 6.5195,-2.91895 6.5195,-6.51953 l 0,-124.72447 c 0,-3.601 -2.9189,-6.52 -6.5195,-6.52 l -82.20507,0 c -3.60059,0 -6.51953,2.919 -6.51953,6.52 l 0,124.72447 z"
       id="path13-7" /><path
       inkscape:connector-curvature="0"
       style="fill:#ffffff;fill-rule:nonzero;stroke:none"
       d="m -436.02257,-447.28525 c 0,1.87793 1.52246,3.40137 3.40137,3.40137 l 82.20513,0 c 1.8779,0 3.4013,-1.52344 3.4013,-3.40137 l 0,-124.72463 c 0,-1.879 -1.5234,-3.402 -3.4013,-3.402 l -82.20513,0 c -1.87891,0 -3.40137,1.523 -3.40137,3.402 l 0,124.72463 z"
       id="path15-4" /><path
       inkscape:connector-curvature="0"
       style="fill:#c0111e;fill-opacity:1;fill-rule:nonzero;stroke:none"
       d="m -370.6788,-540.82871 0,-5.669 -56.2735,0 0,-5.669 56.2735,0 0,-5.67 14.5928,8.504 -14.5928,8.504 z"
       id="path17-0" /><path
       inkscape:connector-curvature="0"
       style="fill:#c0111e;fill-opacity:1;fill-rule:nonzero;stroke:none"
       d="m -426.9523,-488.38781 c 0,19.5694 15.8643,35.4326 35.4336,35.4326 19.5694,0 35.4327,-15.8632 35.4327,-35.4326 0,-19.5693 -15.8633,-35.4336 -35.4327,-35.4336 -19.5693,0 -35.4336,15.8643 -35.4336,35.4336 z"
       id="path19-9" /><path
       inkscape:connector-curvature="0"
       style="fill:#264d8e;fill-opacity:1;fill-rule:nonzero;stroke:none"
       d="m -418.0939,-488.38782 c 0,6.0606 2.0293,11.6485 5.4454,16.1192 l 16.1191,-16.1192 -16.1191,-16.1191 c -3.4161,4.4707 -5.4454,10.0576 -5.4454,16.1191 z"
       id="path21" /><path
       inkscape:connector-curvature="0"
       style="fill:#264d8e;fill-opacity:1;fill-rule:nonzero;stroke:none"
       d="m -370.3888,-472.26862 c 3.416,-4.4717 5.4444,-10.0586 5.4444,-16.1192 0,-6.0615 -2.0284,-11.6484 -5.4444,-16.1191 l -16.1191,16.1191 16.1191,16.1192 z"
       id="path23" /><path
       inkscape:connector-curvature="0"
       style="fill:#264d8e;fill-opacity:1;fill-rule:nonzero;stroke:none"
       d="m -407.6378,-467.25792 c 4.4707,3.416 10.0576,5.4453 16.1191,5.4453 6.0606,0 11.6475,-2.0293 16.1192,-5.4453 l -16.1192,-16.1191 -16.1191,16.1191 z"
       id="path25" /><path
       inkscape:connector-curvature="0"
       style="fill:#264d8e;fill-opacity:1;fill-rule:nonzero;stroke:none"
       d="m -391.5187,-493.39852 16.1192,-16.1192 c -4.4717,-3.416 -10.0586,-5.4453 -16.1192,-5.4453 -6.0615,0 -11.6484,2.0293 -16.1191,5.4453 l 16.1191,16.1192 z"
       id="path27" /></g></svg>