<?xml version="1.0" encoding="UTF-8" standalone="no"?>
<!-- Created with Inkscape (http://www.inkscape.org/) -->

<svg
   xmlns:dc="http://purl.org/dc/elements/1.1/"
   xmlns:cc="http://creativecommons.org/ns#"
   xmlns:rdf="http://www.w3.org/1999/02/22-rdf-syntax-ns#"
   xmlns:svg="http://www.w3.org/2000/svg"
   xmlns="http://www.w3.org/2000/svg"
   xmlns:sodipodi="http://sodipodi.sourceforge.net/DTD/sodipodi-0.dtd"
   xmlns:inkscape="http://www.inkscape.org/namespaces/inkscape"
   id="svg17624"
   version="1.1"
   inkscape:version="0.48.2 r9819"
   width="360.86874"
   height="201.41562"
   xml:space="preserve"
   sodipodi:docname="AJAX1.svg"><metadata
     id="metadata17630"><rdf:RDF><cc:Work
         rdf:about=""><dc:format>image/svg+xml</dc:format><dc:type
           rdf:resource="http://purl.org/dc/dcmitype/StillImage" /><dc:title /></cc:Work></rdf:RDF></metadata><defs
     id="defs17628"><inkscape:perspective
       sodipodi:type="inkscape:persp3d"
       inkscape:vp_x="0 : 0.5 : 1"
       inkscape:vp_y="0 : 1000 : 0"
       inkscape:vp_z="1 : 0.5 : 1"
       inkscape:persp3d-origin="0.5 : 0.33333333 : 1"
       id="perspective17632" /><clipPath
       clipPathUnits="userSpaceOnUse"
       id="clipPath17642"><path
         d="m -2,710 501,0 0,-711 -501,0 0,711 z"
         id="path17644"
         inkscape:connector-curvature="0" /></clipPath><clipPath
       clipPathUnits="userSpaceOnUse"
       id="clipPath17648"><path
         d="m 0,708.06 498,0 0,-708 -498,0 0,708 z"
         id="path17650"
         inkscape:connector-curvature="0" /></clipPath><clipPath
       clipPathUnits="userSpaceOnUse"
       id="clipPath17798"><path
         d="m -2,710 501,0 0,-711 -501,0 0,711 z"
         id="path17800"
         inkscape:connector-curvature="0" /></clipPath><clipPath
       clipPathUnits="userSpaceOnUse"
       id="clipPath17804"><path
         d="m 0,708.06 498,0 0,-708 -498,0 0,708 z"
         id="path17806"
         inkscape:connector-curvature="0" /></clipPath><clipPath
       id="Clip0"><path
         inkscape:connector-curvature="0"
         d="m 0,0 212.597,0 0,269.292 L 0,269.292 0,0 z"
         transform="translate(0.923828,0.879883)"
         id="path7" /></clipPath><clipPath
       id="Clip0-8"><path
         inkscape:connector-curvature="0"
         d="m 0,0 170.079,0 0,113.386 L 0,113.386 0,0 z"
         transform="translate(0.0986328,0.822266)"
         id="path7-8" /></clipPath><clipPath
       id="Clip0-1"><path
         inkscape:connector-curvature="0"
         d="m 0,0 287.009,0 0,159.449 L 0,159.449 0,0 z"
         transform="translate(0.396484,0.267578)"
         id="path7-7" /></clipPath></defs><sodipodi:namedview
     pagecolor="#ffffff"
     bordercolor="#666666"
     borderopacity="1"
     objecttolerance="10"
     gridtolerance="10"
     guidetolerance="10"
     inkscape:pageopacity="0"
     inkscape:pageshadow="2"
     inkscape:window-width="1280"
     inkscape:window-height="1004"
     id="namedview17626"
     showgrid="false"
     inkscape:zoom="1.4158115"
     inkscape:cx="232.19937"
     inkscape:cy="16.528227"
     inkscape:window-x="-8"
     inkscape:window-y="-8"
     inkscape:window-maximized="1"
     inkscape:current-layer="g17634"
     fit-margin-top="0.2"
     fit-margin-left="0.2"
     fit-margin-right="0.2"
     fit-margin-bottom="0.2"
     showguides="true"
     inkscape:guide-bbox="true" /><g
     id="g17634"
     inkscape:groupmode="layer"
     inkscape:label="GG1999P002"
     transform="matrix(1.25,0,0,-1.25,461.48906,-51.167188)"><path
       inkscape:connector-curvature="0"
       style="fill:#ffffff;fill-rule:nonzero;stroke:#000000;stroke-width:1.36000001;stroke-miterlimit:4;stroke-opacity:1;stroke-dasharray:none"
       d="m -368.35352,-56.65038 c 0,8.21972 6.66309,14.8828 14.8828,14.8828 l 257.244204,0 c 8.219,0 14.882,-6.66308 14.882,-14.8828 l 0,-129.6842 c 0,-8.219 -6.663,-14.882 -14.882,-14.882 l -257.244204,0 c -8.21971,0 -14.8828,6.663 -14.8828,14.882 l 0,129.6842 z"
       id="path11" /><path
       inkscape:connector-curvature="0"
       style="fill:#c0111e;fill-opacity:1;fill-rule:nonzero;stroke:none"
       d="m -364.52637,-56.650432 c 0,6.10648 4.94922,11.0557 11.0557,11.0557 l 257.2433,0 c 6.106,0 11.055,-4.94922 11.055,-11.0557 l 0,-129.684298 c 0,-6.105 -4.949,-11.055 -11.055,-11.055 l -257.2433,0 c -6.10648,0 -11.0557,4.95 -11.0557,11.055 l 0,129.684298 z"
       id="path13" /><path
       inkscape:connector-curvature="0"
       style="fill:#ffffff;fill-rule:nonzero;stroke:none"
       d="m -358.99902,-56.650406 c 0,3.0537 2.47462,5.52833 5.52832,5.52833 l 257.24368,0 c 3.053,0 5.528,-2.47463 5.528,-5.52833 l 0,-129.684664 c 0,-3.053 -2.475,-5.527 -5.528,-5.527 l -257.24368,0 c -3.0537,0 -5.52832,2.474 -5.52832,5.527 l 0,129.684664 z"
       id="path15" /><g
       transform="matrix(1,0,0,-1,-368.75,-41.500004)"
       id="Background"
       style="fill:#000000;stroke:none"><g
         id="Group1"
         clip-path="url(#Clip0-1)"
         style="fill:#000000;stroke:none"><path
           inkscape:connector-curvature="0"
           style="fill:#000000;fill-rule:nonzero;stroke:none"
           d="m 0,0 0,25.5117 4.21,0 0,-7.1172 4.9746,-6.123 6.4805,13.2402 4.7441,0 L 12.0928,8.4443 18.5215,0 13.0361,0 4.21,11.4297 4.21,0 0,0 z"
           transform="translate(38.1328,25.8164)"
           id="path17" /><path
           inkscape:connector-curvature="0"
           style="fill:#000000;fill-rule:nonzero;stroke:none"
           d="m 0,0 0,25.5117 18.8789,0 0,-4.4385 -14.4141,0 0,-7.1181 7.5254,0 0,-4.4395 -7.5254,0 0,-5.0761 13.9541,0 L 18.4189,0 0,0 z"
           transform="translate(63.7979,25.8164)"
           id="path19" /><path
           inkscape:connector-curvature="0"
           style="fill:#000000;fill-rule:nonzero;stroke:none"
           d="m 0,0 0,25.5117 18.8793,0 0,-4.4385 -14.4144,0 0,-7.1181 7.5254,0 0,-4.4395 -7.5254,0 0,-5.0761 13.9544,0 L 18.4193,0 0,0 z"
           transform="translate(88.1357,25.8164)"
           id="path21" /><path
           inkscape:connector-curvature="0"
           style="fill:#000000;fill-rule:evenodd;stroke:none"
           d="m 0,0 0,25.5117 4.463,0 0,-9.9746 8.547,0 c 2.092,0 3.861,-0.8418 5.306,-2.5254 1.395,-1.6328 2.093,-3.5205 2.093,-5.664 C 20.409,5.3916 19.567,3.666 17.882,2.169 16.233,0.7227 14.405,0.001 12.398,0 L 0,0 z m 4.234,4.4395 8.011,0 c 1.004,0 1.853,0.289 2.55,0.8671 0.766,0.6299 1.149,1.4629 1.149,2.501 0,1.0879 -0.323,1.9297 -0.97,2.5254 -0.645,0.5781 -1.505,0.8672 -2.576,0.8672 l -8.164,0 0,-6.7607 z"
           transform="translate(112.271,25.8164)"
           id="path23" /><path
           inkscape:connector-curvature="0"
           style="fill:#000000;fill-rule:nonzero;stroke:none"
           d="m 0,0 0,25.5117 18.878,0 0,-4.081 -14.465,0 L 4.413,0 0,0 z"
           transform="translate(159.747,25.8164)"
           id="path25" /><path
           inkscape:connector-curvature="0"
           style="fill:#000000;fill-rule:nonzero;stroke:none"
           d="m 0,0 0,25.5117 18.878,0 0,-4.4385 -14.414,0 0,-7.1181 7.526,0 0,-4.4395 -7.526,0 0,-5.0761 13.955,0 L 18.419,0 0,0 z"
           transform="translate(184.009,25.8164)"
           id="path27" /><path
           inkscape:connector-curvature="0"
           style="fill:#000000;fill-rule:nonzero;stroke:none"
           d="m 0,0 0,25.5117 4.336,0 0,-11.1738 8.037,0 0,-4.3623 -8.037,0 0,-5.5361 14.542,0 L 18.878,0 0,0 z"
           transform="translate(208.27,25.8164)"
           id="path29" /><path
           inkscape:connector-curvature="0"
           style="fill:#000000;fill-rule:nonzero;stroke:none"
           d="m 0,0 0,4.1328 7.169,0 0,21.3789 4.49,0 0,-21.3789 7.22,0 L 18.879,0 0,0 z"
           transform="translate(230.72,25.8164)"
           id="path31" /><path
           inkscape:connector-curvature="0"
           style="fill:#000000;fill-rule:nonzero;stroke:none"
           d="m 0,16.3282 c 0,2.5507 1.0888,4.8125 3.2656,6.7861 2.1084,1.9219 4.4306,2.8818 6.9638,2.8818 2.6709,0 5.0352,-0.9775 7.0928,-2.9336 2.0576,-1.955 3.0869,-4.2773 3.0869,-6.9638 l 0,-16.0987 -4.4648,0 0,16.0987 c 0,1.4961 -0.5606,2.7802 -1.6836,3.8515 -1.1055,1.0713 -2.3975,1.6075 -3.8779,1.6075 -1.5479,0 -2.9424,-0.5694 -4.1836,-1.709 C 4.9746,18.6924 4.3623,17.3653 4.3623,15.8682 L 4.3623,0 0,0 0,16.3282 z"
           transform="translate(69.5977,67.2734)"
           id="path33" /><path
           inkscape:connector-curvature="0"
           style="fill:#000000;fill-rule:nonzero;stroke:none"
           d="m 0,0 0,25.5118 4.4144,0 0,-17.3223 11.99,17.3223 4.005,0 0,-25.5118 -4.464,0 0,16.8633 L 4.2104,0 0,0 z"
           transform="translate(96.6396,67.2734)"
           id="path35" /><path
           inkscape:connector-curvature="0"
           style="fill:#000000;fill-rule:nonzero;stroke:none"
           d="m 0,0 0,25.5118 18.879,0 0,-4.0811 -14.464,0 L 4.415,0 0,0 z"
           transform="translate(123.605,67.2734)"
           id="path37" /><path
           inkscape:connector-curvature="0"
           style="fill:#000000;fill-rule:nonzero;stroke:none"
           d="m 0,0 0,25.5118 18.879,0 0,-4.4385 -14.414,0 0,-7.1182 7.526,0 0,-4.4394 -7.526,0 0,-5.0762 13.954,0 L 18.419,0 0,0 z"
           transform="translate(147.943,67.2734)"
           id="path39" /><path
           inkscape:connector-curvature="0"
           style="fill:#000000;fill-rule:nonzero;stroke:none"
           d="m 0,21.4297 c 0.715,1.3271 2.16,2.5175 4.338,3.5712 2.058,1.004 3.911,1.5049 5.561,1.5049 2.653,0 4.992,-0.6543 7.016,-1.9638 2.329,-1.5137 3.494,-3.5635 3.494,-6.1485 0,-1.666 -0.518,-3.0439 -1.555,-4.1328 -0.8,-0.8506 -1.982,-1.5732 -3.546,-2.168 C 15.104,12.0244 13.802,11.6328 11.404,10.9189 10.435,10.664 9.465,10.4004 8.496,10.1279 7.476,9.8388 6.736,9.5156 6.277,9.1582 5.698,8.6826 5.417,8.0439 5.435,7.2451 5.451,6.3945 6.038,5.6972 7.194,5.1533 8.13,4.7285 9.1,4.5156 10.103,4.5156 c 1.258,0 2.304,0.1777 3.138,0.5352 0.85,0.3574 1.735,1.0039 2.653,1.9394 L 19.109,3.9795 C 18.088,2.8232 16.719,1.8711 15.001,1.122 13.283,0.374 11.651,0 10.103,0 7.773,0 5.749,0.5947 4.031,1.7851 2.075,3.1465 1.098,4.9658 1.098,7.2451 c 0,1.7519 0.459,3.1719 1.377,4.2607 0.731,0.8838 1.854,1.6328 3.368,2.2451 0.238,0.1016 1.666,0.586 4.285,1.4542 1.191,0.3056 2.382,0.6035 3.572,0.8925 1.463,0.5274 2.194,1.378 2.194,2.5518 0,1.2412 -0.757,2.168 -2.27,2.7803 -1.072,0.4248 -2.237,0.6377 -3.496,0.6377 -1.36,0 -2.594,-0.2803 -3.698,-0.8418 C 5.494,20.7324 4.516,19.9502 3.495,18.8779 L 0,21.4297 z"
           transform="translate(172.077,66.7637)"
           id="path41" /><path
           inkscape:connector-curvature="0"
           style="fill:#000000;fill-rule:nonzero;stroke:none"
           d="m 0,21.4297 c 0.714,1.3271 2.16,2.5175 4.337,3.5712 2.058,1.004 3.911,1.5049 5.562,1.5049 2.653,0 4.992,-0.6543 7.015,-1.9638 2.33,-1.5137 3.495,-3.5635 3.495,-6.1485 0,-1.666 -0.518,-3.0439 -1.555,-4.1328 -0.8,-0.8506 -1.982,-1.5732 -3.547,-2.168 C 15.103,12.0244 13.802,11.6328 11.403,10.9189 10.435,10.664 9.465,10.4004 8.495,10.1279 7.475,9.8388 6.735,9.5156 6.276,9.1582 5.697,8.6826 5.417,8.0439 5.434,7.2451 5.45,6.3945 6.038,5.6972 7.194,5.1533 8.13,4.7285 9.099,4.5156 10.103,4.5156 c 1.258,0 2.304,0.1777 3.137,0.5352 0.851,0.3574 1.736,1.0039 2.654,1.9394 L 19.109,3.9795 C 18.088,2.8232 16.719,1.8711 15.001,1.122 13.283,0.374 11.651,0 10.103,0 7.773,0 5.748,0.5947 4.03,1.7851 2.075,3.1465 1.097,4.9658 1.097,7.2451 c 0,1.7519 0.459,3.1719 1.378,4.2607 0.731,0.8838 1.853,1.6328 3.367,2.2451 0.238,0.1016 1.667,0.586 4.286,1.4542 1.19,0.3056 2.381,0.6035 3.571,0.8925 1.463,0.5274 2.195,1.378 2.195,2.5518 0,1.2412 -0.757,2.168 -2.271,2.7803 -1.071,0.4248 -2.236,0.6377 -3.495,0.6377 -1.36,0 -2.594,-0.2803 -3.699,-0.8418 C 5.493,20.7324 4.516,19.9502 3.495,18.8779 L 0,21.4297 z"
           transform="translate(197.87,66.7637)"
           id="path43" /><path
           inkscape:connector-curvature="0"
           style="fill:#000000;fill-rule:evenodd;stroke:none"
           d="m 0,0 0,25.512 4.4639,0 0,-9.975 8.5469,0 c 2.0918,0 3.8613,-0.842 5.3066,-2.526 1.3945,-1.633 2.0918,-3.52 2.0918,-5.663 0,-1.956 -0.8418,-3.682 -2.5254,-5.18 C 16.2334,0.723 14.4053,0 12.3985,0 L 0,0 z m 4.2344,4.44 8.0107,0 c 1.0039,0 1.8545,0.289 2.5518,0.867 0.7646,0.629 1.1484,1.462 1.1484,2.5 0,1.089 -0.3242,1.93 -0.9697,2.526 -0.6465,0.578 -1.5049,0.867 -2.5771,0.867 l -8.1641,0 0,-6.76 z"
           transform="translate(60.1367,108.73)"
           id="path45" /><path
           inkscape:connector-curvature="0"
           style="fill:#000000;fill-rule:evenodd;stroke:none"
           d="M 10.5361,0 0,25.512 l 4.6933,0 2.501,-5.944 11.0709,0 2.45,5.944 4.796,0 L 14.7962,0 10.5361,0 z m -1.6074,15.18 3.7754,-9.056 3.7251,9.056 -7.5005,0 z"
           transform="translate(85.8018,108.73)"
           id="path47" /><path
           inkscape:connector-curvature="0"
           style="fill:#000000;fill-rule:nonzero;stroke:none"
           d="m 0,21.429 c 0.714,1.327 2.16,2.517 4.336,3.572 2.058,1.004 3.913,1.505 5.562,1.505 2.653,0 4.992,-0.655 7.016,-1.964 2.33,-1.514 3.495,-3.564 3.495,-6.149 0,-1.667 -0.519,-3.044 -1.556,-4.133 -0.8,-0.85 -1.981,-1.573 -3.546,-2.168 -0.204,-0.068 -1.506,-0.459 -3.903,-1.173 -0.97,-0.256 -1.94,-0.52 -2.909,-0.791 C 7.475,9.839 6.735,9.515 6.275,9.158 5.697,8.681 5.417,8.044 5.434,7.245 5.451,6.394 6.038,5.697 7.194,5.152 8.129,4.727 9.099,4.515 10.102,4.515 c 1.259,0 2.305,0.178 3.139,0.535 0.849,0.358 1.734,1.004 2.652,1.94 L 19.108,3.979 C 18.087,2.822 16.718,1.87 15.001,1.122 13.283,0.374 11.65,0 10.102,0 7.772,0 5.749,0.594 4.031,1.785 2.075,3.146 1.097,4.966 1.097,7.245 c 0,1.751 0.459,3.172 1.377,4.261 0.732,0.883 1.855,1.631 3.367,2.244 0.239,0.102 1.667,0.587 4.286,1.454 1.192,0.306 2.382,0.604 3.573,0.893 1.463,0.527 2.193,1.377 2.193,2.551 0,1.242 -0.757,2.169 -2.27,2.781 -1.072,0.425 -2.237,0.638 -3.496,0.638 -1.36,0 -2.593,-0.28 -3.698,-0.842 C 5.494,20.732 4.515,19.949 3.495,18.878 L 0,21.429 z"
           transform="translate(116.645,108.221)"
           id="path49" /><path
           inkscape:connector-curvature="0"
           style="fill:#000000;fill-rule:nonzero;stroke:none"
           d="m 0,21.429 c 0.715,1.327 2.161,2.517 4.337,3.572 2.058,1.004 3.912,1.505 5.562,1.505 2.653,0 4.992,-0.655 7.015,-1.964 2.33,-1.514 3.496,-3.564 3.496,-6.149 0,-1.667 -0.519,-3.044 -1.556,-4.133 -0.8,-0.85 -1.982,-1.573 -3.547,-2.168 C 15.103,12.024 13.802,11.633 11.404,10.919 10.435,10.663 9.465,10.399 8.495,10.128 7.476,9.839 6.736,9.515 6.276,9.158 5.698,8.681 5.417,8.044 5.435,7.245 5.452,6.394 6.038,5.697 7.195,5.152 8.13,4.727 9.1,4.515 10.103,4.515 c 1.259,0 2.305,0.178 3.138,0.535 0.85,0.358 1.735,1.004 2.653,1.94 L 19.109,3.979 C 18.088,2.822 16.719,1.87 15.001,1.122 13.284,0.374 11.651,0 10.103,0 7.773,0 5.749,0.594 4.032,1.785 2.076,3.146 1.098,4.966 1.098,7.245 c 0,1.751 0.458,3.172 1.377,4.261 0.731,0.883 1.853,1.631 3.367,2.244 0.238,0.102 1.667,0.587 4.286,1.454 1.192,0.306 2.382,0.604 3.573,0.893 1.462,0.527 2.193,1.377 2.193,2.551 0,1.242 -0.757,2.169 -2.271,2.781 -1.071,0.425 -2.236,0.638 -3.495,0.638 -1.36,0 -2.593,-0.28 -3.699,-0.842 C 5.494,20.732 4.516,19.949 3.495,18.878 L 0,21.429 z"
           transform="translate(142.36,108.221)"
           id="path51" /><path
           inkscape:connector-curvature="0"
           style="fill:#000000;fill-rule:nonzero;stroke:none"
           d="m 0,25.512 4.31,0 L 4.31,0 0,0 0,25.512 z"
           transform="translate(169.429,108.73)"
           id="path53" /><path
           inkscape:connector-curvature="0"
           style="fill:#000000;fill-rule:nonzero;stroke:none"
           d="m 0,0 0,25.512 4.413,0 0,-17.322 11.991,17.322 4.005,0 0,-25.512 -4.464,0 0,16.864 L 4.208,0 0,0 z"
           transform="translate(180.271,108.73)"
           id="path55" /><path
           inkscape:connector-curvature="0"
           style="fill:#000000;fill-rule:nonzero;stroke:none"
           d="M 15.614,8.112 19.695,6.505 C 19.015,4.633 17.782,3.087 15.996,1.862 14.21,0.62 12.323,0 10.332,0 7.356,0 4.89,1.19 2.934,3.571 0.978,5.935 0,8.835 0,12.27 c 0,4.167 0.774,7.484 2.322,9.95 1.786,2.858 4.456,4.286 8.01,4.286 2.211,0 4.159,-0.587 5.842,-1.76 1.344,-0.936 2.424,-2.16 3.24,-3.674 0.663,-1.259 0.996,-2.339 0.996,-3.24 l 0,-4.592 -8.878,0 0,4.516 4.311,0 c 0,1.241 -0.63,2.304 -1.888,3.188 -1.139,0.816 -2.338,1.225 -3.597,1.225 -1.99,0 -3.495,-0.893 -4.516,-2.679 -0.97,-1.718 -1.454,-4.141 -1.454,-7.271 0,-1.854 0.45,-3.52 1.353,-5.001 1.122,-1.802 2.653,-2.703 4.591,-2.703 2.296,0 4.057,1.199 5.282,3.597 z"
           transform="translate(207.236,108.221)"
           id="path57" /></g></g></g></svg>