<?xml version="1.0" encoding="UTF-8" standalone="no"?>
<!-- Created with Inkscape (http://www.inkscape.org/) -->

<svg
   xmlns:dc="http://purl.org/dc/elements/1.1/"
   xmlns:cc="http://creativecommons.org/ns#"
   xmlns:rdf="http://www.w3.org/1999/02/22-rdf-syntax-ns#"
   xmlns:svg="http://www.w3.org/2000/svg"
   xmlns="http://www.w3.org/2000/svg"
   xmlns:sodipodi="http://sodipodi.sourceforge.net/DTD/sodipodi-0.dtd"
   xmlns:inkscape="http://www.inkscape.org/namespaces/inkscape"
   id="svg17624"
   version="1.1"
   inkscape:version="0.48.4 r9939"
   width="200.2"
   height="200.2"
   xml:space="preserve"
   sodipodi:docname="AJAX1.svg"><metadata
     id="metadata17630"><rdf:RDF><cc:Work
         rdf:about=""><dc:format>image/svg+xml</dc:format><dc:type
           rdf:resource="http://purl.org/dc/dcmitype/StillImage" /><dc:title></dc:title></cc:Work></rdf:RDF></metadata><defs
     id="defs17628"><inkscape:perspective
       sodipodi:type="inkscape:persp3d"
       inkscape:vp_x="0 : 0.5 : 1"
       inkscape:vp_y="0 : 1000 : 0"
       inkscape:vp_z="1 : 0.5 : 1"
       inkscape:persp3d-origin="0.5 : 0.33333333 : 1"
       id="perspective17632" /><clipPath
       clipPathUnits="userSpaceOnUse"
       id="clipPath17642"><path
         d="m -2,710 501,0 0,-711 -501,0 0,711 z"
         id="path17644"
         inkscape:connector-curvature="0" /></clipPath><clipPath
       clipPathUnits="userSpaceOnUse"
       id="clipPath17648"><path
         d="m 0,708.06 498,0 0,-708 -498,0 0,708 z"
         id="path17650"
         inkscape:connector-curvature="0" /></clipPath><clipPath
       clipPathUnits="userSpaceOnUse"
       id="clipPath17798"><path
         d="m -2,710 501,0 0,-711 -501,0 0,711 z"
         id="path17800"
         inkscape:connector-curvature="0" /></clipPath><clipPath
       clipPathUnits="userSpaceOnUse"
       id="clipPath17804"><path
         d="m 0,708.06 498,0 0,-708 -498,0 0,708 z"
         id="path17806"
         inkscape:connector-curvature="0" /></clipPath><clipPath
       id="Clip0"><path
         inkscape:connector-curvature="0"
         d="m 0,0 212.597,0 0,269.292 L 0,269.292 0,0 z"
         transform="translate(0.923828,0.879883)"
         id="path7" /></clipPath></defs><sodipodi:namedview
     pagecolor="#ffffff"
     bordercolor="#666666"
     borderopacity="1"
     objecttolerance="10"
     gridtolerance="10"
     guidetolerance="10"
     inkscape:pageopacity="0"
     inkscape:pageshadow="2"
     inkscape:window-width="1280"
     inkscape:window-height="1004"
     id="namedview17626"
     showgrid="false"
     inkscape:zoom="2.3322272"
     inkscape:cx="92.132605"
     inkscape:cy="135.13004"
     inkscape:window-x="-8"
     inkscape:window-y="-8"
     inkscape:window-maximized="1"
     inkscape:current-layer="g17634"
     fit-margin-top="0.1"
     fit-margin-left="0.1"
     fit-margin-right="0.1"
     fit-margin-bottom="0.1"
     showguides="true"
     inkscape:guide-bbox="true" /><g
     id="g17634"
     inkscape:groupmode="layer"
     inkscape:label="GG1999P002"
     transform="matrix(1.25,0,0,-1.25,160.49062,77.404677)"><path
       inkscape:connector-curvature="0"
       id="path3787"
       d="m 26.362708,-18.156258 c 0,-41.237761 -33.4383964,-74.6752 -74.6752,-74.6752 -41.237671,0 -74.675208,33.437439 -74.675208,74.6752 0,41.237506 33.437537,74.6752 74.675208,74.6752 41.2368069,0 74.6752,-33.437694 74.6752,-74.6752 z"
       style="fill:#ffffff;fill-opacity:1;fill-rule:nonzero;stroke:none"
       sodipodi:nodetypes="sssss" /><path
       style="fill:#000000;fill-opacity:1;stroke:none"
       d="m -78.314896,50.364484 60.004684,0 -30.002342,-30.002342 z"
       id="rect3833"
       inkscape:connector-curvature="0"
       sodipodi:nodetypes="cccc" /><path
       sodipodi:nodetypes="cccc"
       inkscape:connector-curvature="0"
       id="path3922"
       d="m -78.314896,-86.677 60.004684,0 -30.002342,30.002342 z"
       style="fill:#000000;fill-opacity:1;stroke:none" /><path
       inkscape:connector-curvature="0"
       id="path3938"
       d="m 31.6875,-18.156258 c 0,44.183163 -35.8175848,80 -80,80 -44.183344,0 -80,-35.816837 -80,-80 0,-44.183432 35.816656,-80 80,-80 44.1824112,0 80,35.816568 80,80 z m -13.325,0 c 0,-36.819824 -29.856031,-66.675 -66.675,-66.675 -36.819744,0 -66.675,29.855176 -66.675,66.675 0,36.819596 29.855256,66.675 66.675,66.675 36.818972,0 66.675,-29.855404 66.675,-66.675 z"
       style="fill:#c0111e;fill-opacity:1;fill-rule:nonzero;stroke:none" /><path
       style="fill:#000000;fill-rule:evenodd;stroke:none"
       d="m -93.466312,-7.941792 0,-15.481997 -7.360668,0 7.360668,15.481997 z m -0.59999,9.84142 -12.041088,-25.362937 0,-4.84121 12.641078,0 0,-9.800586 5.00106,0 0,9.800586 1.95982,0 0,4.88073 -1.95982,0 0,25.323417 -5.60105,0 z"
       id="path15-8"
       inkscape:connector-curvature="0" /><path
       style="fill:#000000;fill-rule:evenodd;stroke:none"
       d="m -58.954802,-33.984129 c -1.41318,0 -2.35958,0.70564 -2.84009,2.119296 -0.31971,0.986773 -0.47965,2.680144 -0.47965,5.080093 0,2.480771 0.15994,4.200761 0.47965,5.160921 0.45388,1.46736 1.40029,2.20058 2.84009,2.20058 1.36068,0 2.25384,-0.70659 2.68015,-2.12061 0.29401,-0.93353 0.44098,-2.61316 0.44098,-5.04058 0,-2.47992 -0.14697,-4.19992 -0.44098,-5.160068 -0.42631,-1.494464 -1.31947,-2.239632 -2.68015,-2.239632 z m -0.88027,19.60146 c 0.56047,2.05354 1.85415,4.413967 3.88106,7.081317 1.76045,2.34661 3.41336,4.09332 4.96071,5.23995 l -3.07993,3.96103 c -4.90829,-4.08042 -8.49533,-9.06776 -10.76197,-14.961977 -1.73381,-4.50767 -2.60026,-9.18809 -2.60026,-14.042191 0,-3.920579 0.74695,-6.879589 2.24001,-8.880813 1.49315,-1.972976 3.57425,-2.933608 6.24065,-2.879976 2.64062,0.0536 4.68127,1.1328 6.12107,3.239392 1.46643,2.107528 2.18675,5.040957 2.16012,8.801677 -0.0266,3.973831 -0.55952,6.854281 -1.59965,8.640521 -1.38739,2.37416 -3.90769,3.64122 -7.56181,3.80107 z"
       id="path17-8"
       inkscape:connector-curvature="0" /><path
       style="fill:#000000;fill-rule:nonzero;stroke:none"
       d="m -41.704162,1.899628 -0.64046,-19.242707 4.641,-0.84066 c 0.96015,1.28079 2.08015,1.92124 3.36048,1.92124 1.33414,0 2.22702,-0.76078 2.67958,-2.28057 0.29449,-1.0134 0.44033,-2.76011 0.44033,-5.24088 0,-4.10706 -1.57313,-7.28068 -4.71994,-9.520876 -0.53385,-0.37352 -1.32041,-0.560752 -2.36044,-0.560752 -0.80029,0 -1.66768,0.173112 -2.60121,0.520296 l -1.99933,-4.280928 c 1.65301,-0.666128 2.6269,-1.025552 2.91997,-1.079168 0.42725,-0.10632 1.26706,-0.159952 2.5203,-0.159952 2.80058,0 5.41458,1.62676 7.84106,4.8812 2.3211,3.17316 3.48025,6.46702 3.48025,9.88047 0,4.29363 -0.66613,7.4809 -2.00028,9.56114 -1.41317,2.18676 -3.65244,3.28013 -6.72077,3.28013 -0.61373,0 -1.40029,-0.18648 -2.3595,-0.55953 l 0.3198,8.840817 9.64111,0 0,4.88073 -14.44195,0 z"
       id="path19-1"
       inkscape:connector-curvature="0" /><path
       style="fill:#000000;fill-rule:nonzero;stroke:none"
       d="m 9.483197,-38.105105 0,11.439766 c 0,3.08075 -0.23992,4.60054 -0.960608,5.80051 -1.079176,2.00018 -3.19988,3.07982 -5.800432,3.07982 -2.400139,0 -4.040059,-0.79936 -5.479579,-2.68014 -1.08012,1.84033 -2.7605,2.7206 -5.08066,2.7206 -1.95982,0 -3.27985,-0.59999 -4.79934,-2.12061 l 0,1.76044 -4.20096,0 0,-20.000394 4.20096,0 0,11.359893 c 0,1.600491 0.19945,2.52028 0.79878,3.280131 0.64074,0.92063 1.7613,1.52062 2.84047,1.52062 0.96062,0 1.96076,-0.44013 2.52057,-1.24044 0.51936,-0.72032 0.63979,-1.359831 0.63979,-3.439971 l 0,-11.480233 4.40043,0 0,11.480233 c 0,1.83948 0.11948,2.52028 0.60025,3.159791 0.68025,0.96015 1.799873,1.56014 2.919505,1.56014 1.240056,0 2.2402,-0.59999 2.720032,-1.59966 0.280384,-0.599991 0.360352,-1.44074 0.360352,-3.120271 l 0,-11.480233 4.32044,0 z"
       id="path21-7"
       inkscape:connector-curvature="0" /><path
       style="fill:#000000;fill-rule:nonzero;stroke:none"
       d="m -74.163942,-18.203029 c 0,1.56014 -1.30009,2.90068 -2.86117,2.90068 -1.63917,0 -2.95949,-1.27995 -2.95949,-2.88055 0,-1.64002 1.30009,-2.9402 2.91998,-2.9402 1.60059,0 2.90068,1.30018 2.90068,2.92007 z"
       id="path23-4"
       inkscape:connector-curvature="0" /></g></svg>