<?xml version="1.0" encoding="UTF-8" standalone="no"?>
<!-- Generator: Adobe Illustrator 12.0.1, SVG Export Plug-In  -->

<svg
   xmlns:dc="http://purl.org/dc/elements/1.1/"
   xmlns:cc="http://creativecommons.org/ns#"
   xmlns:rdf="http://www.w3.org/1999/02/22-rdf-syntax-ns#"
   xmlns:svg="http://www.w3.org/2000/svg"
   xmlns="http://www.w3.org/2000/svg"
   xmlns:sodipodi="http://sodipodi.sourceforge.net/DTD/sodipodi-0.dtd"
   xmlns:inkscape="http://www.inkscape.org/namespaces/inkscape"
   version="1.1"
   width="214.60156"
   height="214.60156"
   viewBox="0 0 214.60158 214.60158"
   enable-background="new 0 0 288 288"
   xml:space="preserve"
   id="svg2"
   inkscape:version="0.48.2 r9819"
   sodipodi:docname="AJAX1.svg"><metadata
   id="metadata72"><rdf:RDF><cc:Work
       rdf:about=""><dc:format>image/svg+xml</dc:format><dc:type
         rdf:resource="http://purl.org/dc/dcmitype/StillImage" /><dc:title /></cc:Work></rdf:RDF></metadata><sodipodi:namedview
   pagecolor="#ffffff"
   bordercolor="#666666"
   borderopacity="1"
   objecttolerance="10"
   gridtolerance="10"
   guidetolerance="10"
   inkscape:pageopacity="0"
   inkscape:pageshadow="2"
   inkscape:window-width="1280"
   inkscape:window-height="1004"
   id="namedview70"
   showgrid="false"
   fit-margin-top="0.25"
   fit-margin-left="0.25"
   fit-margin-right="0.25"
   fit-margin-bottom="0.25"
   inkscape:zoom="1.6388888"
   inkscape:cx="86.815284"
   inkscape:cy="132.68064"
   inkscape:window-x="-8"
   inkscape:window-y="-8"
   inkscape:window-maximized="1"
   inkscape:current-layer="Group1" />
<defs
   id="defs4">
<clipPath
   id="Clip0"><path
     inkscape:connector-curvature="0"
     d="m 0,0 425.197,0 0,340.157 L 0,340.157 0,0 z"
     transform="translate(0.474609,0.964844)"
     id="path7" /></clipPath><clipPath
   id="Clip0-1"><path
     inkscape:connector-curvature="0"
     d="m 0,0 269.291,0 0,141.733 L 0,141.733 0,0 z"
     transform="translate(0.0644531,0.324219)"
     id="path7-7" /></clipPath><clipPath
   id="Clip0-17"><path
     inkscape:connector-curvature="0"
     d="m 0,0 269.291,0 0,141.732 L 0,141.732 0,0 z"
     transform="translate(0.727539,0.548828)"
     id="path7-4" /></clipPath><clipPath
   id="Clip0-174"><path
     inkscape:connector-curvature="0"
     d="m 0,0 340.158,0 0,340.158 L 0,340.158 0,0 z"
     transform="translate(0.630859,0.112305)"
     id="path7-0" /></clipPath><clipPath
   id="Clip0-1740"><path
     inkscape:connector-curvature="0"
     d="m 0,0 269.291,0 0,85.04 L 0,85.04 0,0 z"
     transform="translate(0.40332,0.554688)"
     id="path7-9" /></clipPath></defs>
































<g
   transform="matrix(1.2500001,0,0,1.2500001,-0.92187507,-210.64845)"
   id="Background"
   style="fill:#000000"><g
     id="Group1"
     clip-path="url(#Clip0-174)"
     style="fill:#000000"><path
       inkscape:connector-curvature="0"
       style="fill:#ffffff;fill-rule:nonzero;stroke:#000000;stroke-width:1.20000005;stroke-miterlimit:4;stroke-opacity:1;stroke-dasharray:none"
       d="m 1.53125,180.65628 c 0,-6.26175 5.07617,-11.3389 11.3379,-11.3389 l 147.4021,0 c 6.262,0 11.339,5.07715 11.339,11.3389 l 0,147.4021 c 0,6.262 -5.077,11.338 -11.339,11.338 l -147.4021,0 c -6.26173,0 -11.3379,-5.076 -11.3379,-11.338 l 0,-147.4021 z"
       id="path11" /><path
       inkscape:connector-curvature="0"
       style="fill:#0069b3;fill-rule:nonzero;stroke:none"
       d="m 8.90137,180.6563 c 0,-2.19146 1.77636,-3.9688 3.96778,-3.9688 l 147.40222,0 c 2.192,0 3.969,1.77734 3.969,3.9688 l 0,147.4012 c 0,2.192 -1.777,3.969 -3.969,3.969 l -147.40222,0 c -2.19142,0 -3.96778,-1.777 -3.96778,-3.969 l 0,-147.4012 z"
       id="path13" /><path
       inkscape:connector-curvature="0"
       style="fill:#ffffff;fill-rule:evenodd;stroke:none"
       d="m 63.89355,184.9092 0,56.6924 9.9121,0 0,-22.1729 18.9951,0 c 4.6514,0 8.5835,-1.873 11.7945,-5.6201 3.102,-3.6172 4.653,-7.8066 4.653,-12.5674 0,-4.3555 -1.865,-8.1943 -5.594,-11.5166 -3.6728,-3.21 -7.7431,-4.8154 -12.2109,-4.8154 l -27.5498,0 z m 9.4141,9.8545 17.8047,0 c 2.2334,0 4.125,0.6455 5.6748,1.9384 1.6992,1.4024 2.5478,3.2569 2.5478,5.5635 0,2.418 -0.7197,4.2637 -2.1592,5.5362 -1.4394,1.3291 -3.3506,1.9931 -5.7314,1.9931 l -18.1367,0 0,-15.0312 z"
       id="path15" /><path
       inkscape:connector-curvature="0"
       style="fill:#ffffff;fill-rule:evenodd;stroke:none"
       d="m 67.59765,270.018 c 1.7022,-4.1391 4.9492,-8.2641 9.7402,-12.3744 l -3.4062,-4.7129 c -5.1377,3.7646 -9.0625,8.6572 -11.7764,14.6777 -2.2431,4.9546 -3.3642,9.8546 -3.3642,14.6996 0,4.303 1.0381,7.708 3.1152,10.213 2.0352,2.492 4.8672,3.737 8.4941,3.737 3.5723,0 6.4522,-1.274 8.6407,-3.82 2.0908,-2.45 3.1357,-5.556 3.1357,-9.321 0,-4.027 -0.9619,-7.245 -2.8867,-9.653 -1.9805,-2.519 -4.7842,-3.778 -8.4111,-3.778 -0.9698,0 -2.0635,0.11 -3.2813,0.332 z m 2.8027,20.242 c -1.8964,0 -3.3574,-0.734 -4.3818,-2.2 -0.8721,-1.316 -1.3086,-3.074 -1.3086,-5.275 0,-2.297 0.5811,-4.124 1.7442,-5.48 1.039,-1.259 2.3544,-1.889 3.9462,-1.889 1.6202,0 2.9834,0.644 4.0918,1.931 1.1905,1.356 1.7862,3.169 1.7862,5.438 0,2.173 -0.4844,3.932 -1.4532,5.275 -1.0527,1.466 -2.5273,2.2 -4.4248,2.2 z"
       id="path17" /><path
       inkscape:connector-curvature="0"
       style="fill:#ffffff;fill-rule:evenodd;stroke:none"
       d="m 101.16225,296.216 c 4.359,0 7.55,-1.903 9.57,-5.709 1.868,-3.543 2.803,-8.982 2.803,-16.318 0,-14.7388 -4.152,-22.1089 -12.456,-22.1089 -8.1652,0 -12.2482,7.3701 -12.2482,22.1089 0,14.685 4.1104,22.027 12.3312,22.027 z m 0,-5.914 c -4.2765,0 -6.4152,-5.37 -6.4152,-16.112 0,-10.7398 2.124,-16.1109 6.3732,-16.1109 2.187,0 3.842,1.5713 4.963,4.7139 1.023,2.8086 1.536,6.608 1.536,11.397 0,10.742 -2.152,16.112 -6.457,16.112 z"
       id="path19" /><path
       inkscape:connector-curvature="0"
       style="fill:#ffffff;fill-rule:nonzero;stroke:none"
       d="m 44.47075,306.798 0,5.67 98.7922,0 0,5.669 -98.7922,0 0,5.669 -14.5928,-8.504 14.5928,-8.504 z"
       id="path21" /></g></g></svg>