<?xml version="1.0" encoding="UTF-8" standalone="no"?>
<!-- Created with Inkscape (http://www.inkscape.org/) -->

<svg
   xmlns:dc="http://purl.org/dc/elements/1.1/"
   xmlns:cc="http://creativecommons.org/ns#"
   xmlns:rdf="http://www.w3.org/1999/02/22-rdf-syntax-ns#"
   xmlns:svg="http://www.w3.org/2000/svg"
   xmlns="http://www.w3.org/2000/svg"
   xmlns:sodipodi="http://sodipodi.sourceforge.net/DTD/sodipodi-0.dtd"
   xmlns:inkscape="http://www.inkscape.org/namespaces/inkscape"
   width="214.59375"
   height="214.59375"
   id="svg2"
   sodipodi:version="0.32"
   inkscape:version="0.48.2 r9819"
   version="1.0"
   sodipodi:docname="AJAX1.svg"
   inkscape:output_extension="org.inkscape.output.svg.inkscape">
  <defs
     id="defs4">
    <inkscape:perspective
       sodipodi:type="inkscape:persp3d"
       inkscape:vp_x="0 : 300.5 : 1"
       inkscape:vp_y="0 : 1000 : 0"
       inkscape:vp_z="601 : 300.5 : 1"
       inkscape:persp3d-origin="300.5 : 200.33333 : 1"
       id="perspective3380" />
    <inkscape:perspective
       id="perspective3990"
       inkscape:persp3d-origin="375 : 250 : 1"
       inkscape:vp_z="750 : 375 : 1"
       inkscape:vp_y="0 : 1000 : 0"
       inkscape:vp_x="0 : 375 : 1"
       sodipodi:type="inkscape:persp3d" />
  </defs>
  <sodipodi:namedview
     id="base"
     pagecolor="#ffffff"
     bordercolor="#666666"
     borderopacity="1.0"
     gridtolerance="10000"
     guidetolerance="10"
     objecttolerance="10"
     inkscape:pageopacity="0.0"
     inkscape:pageshadow="2"
     inkscape:zoom="2.5733334"
     inkscape:cx="90.408062"
     inkscape:cy="124.20606"
     inkscape:document-units="px"
     inkscape:current-layer="layer1"
     width="601px"
     height="601px"
     inkscape:window-width="1280"
     inkscape:window-height="1004"
     inkscape:window-x="-8"
     inkscape:window-y="-8"
     showgrid="false"
     fit-margin-top="0.25"
     fit-margin-left="0.25"
     fit-margin-right="0.25"
     fit-margin-bottom="0.25"
     inkscape:window-maximized="1" />
  <metadata
     id="metadata7">
    <rdf:RDF>
      <cc:Work
         rdf:about="">
        <dc:format>image/svg+xml</dc:format>
        <dc:type
           rdf:resource="http://purl.org/dc/dcmitype/StillImage" />
      </cc:Work>
    </rdf:RDF>
  </metadata>
  <g
     inkscape:label="Layer 1"
     inkscape:groupmode="layer"
     id="layer1"
     transform="translate(-83,-306.21875)">
    <rect
       style="color:#000000;fill:#000000;fill-opacity:1;fill-rule:nonzero;stroke:none;stroke-width:0.8735441;marker:none;visibility:visible;display:inline;overflow:visible"
       id="rect3653"
       width="0"
       height="27.202072"
       x="578.73834"
       y="298.1684"
       rx="249.48199"
       ry="27.202072" />
    <path
       inkscape:connector-curvature="0"
       style="fill:#ffffff;fill-rule:nonzero;stroke:#000000;stroke-width:1.5;stroke-miterlimit:4;stroke-opacity:1;stroke-dasharray:none"
       d="m 83.990659,321.40092 c 0,-7.82842 6.345213,-14.17363 14.173625,-14.17363 l 184.251376,0 c 7.82875,0 14.17375,6.34521 14.17375,14.17363 l 0,184.25137 c 0,7.8275 -6.345,14.17375 -14.17375,14.17375 l -184.251376,0 c -7.828412,0 -14.173625,-6.34625 -14.173625,-14.17375 l 0,-184.25137 z"
       id="path11" />
    <path
       inkscape:connector-curvature="0"
       style="fill:#0069b3;fill-rule:nonzero;stroke:none"
       d="m 93.203302,321.40088 c 0,-2.74048 2.220463,-4.96094 4.960962,-4.96094 l 184.251536,0 c 2.74,0 4.96125,2.22046 4.96125,4.96094 l 0,184.25156 c 0,2.74 -2.22125,4.96125 -4.96125,4.96125 l -184.251536,0 c -2.740499,0 -4.960962,-2.22125 -4.960962,-4.96125 l 0,-184.25156 z"
       id="path13" />
    <path
       inkscape:connector-curvature="0"
       style="fill:#ffffff;fill-rule:evenodd;stroke:none"
       d="m 161.94351,322.69362 0,70.86663 12.40112,0 0,-27.70863 23.74025,0 c 5.8105,0 10.72451,-2.33888 14.73951,-7.0155 3.875,-4.53488 5.81125,-9.779 5.81125,-15.73238 0,-5.43337 -2.3375,-10.22825 -7.015,-14.38599 -4.58313,-4.01613 -9.66251,-6.02288 -15.23738,-6.02413 l -34.43975,0 z m 11.76275,12.3315 22.25212,0 c 2.78813,0 5.15025,0.80325 7.08625,2.40975 2.12651,1.748 3.18963,4.0625 3.18963,6.94575 0,3.0225 -0.89837,5.36012 -2.69288,7.01538 -1.79562,1.60525 -4.18087,2.4085 -7.15812,2.4085 l -22.677,0 0,-18.77938 z"
       id="path15" />
    <path
       inkscape:connector-curvature="0"
       style="fill:#ffffff;fill-rule:nonzero;stroke:none"
       d="m 115.52751,498.44249 0,-3.8625 -7.42675,0 0,-20.8 -3.37275,0 0,24.6625 10.7995,0 z"
       id="path17" />
    <path
       inkscape:connector-curvature="0"
       style="fill:#ffffff;fill-rule:evenodd;stroke:none"
       d="m 130.94738,489.65374 c 0,-5.5275 -2.80637,-9.35375 -6.9445,-9.35375 -3.94049,0 -6.57599,3.75625 -6.57599,9.35375 0,5.4925 2.77712,9.28375 6.80299,9.28375 3.9685,0 6.7175,-3.8275 6.7175,-9.28375 z m -3.23112,-0.07 c 0,3.40125 -1.47338,5.67 -3.59988,5.67 -2.18262,0 -3.62787,-2.26875 -3.62787,-5.67 0,-3.33 1.47337,-5.67 3.656,-5.67 2.1545,0 3.57175,2.26875 3.57175,5.67 z"
       id="path19" />
    <path
       inkscape:connector-curvature="0"
       style="fill:#ffffff;fill-rule:evenodd;stroke:none"
       d="m 147.04851,495.99624 c -1.36113,-0.70875 -1.50263,-1.0975 -1.50263,-3.5075 l 0,-6.48375 c 0,-2.09125 -0.19774,-2.90625 -0.93511,-3.8975 -0.85089,-1.13375 -2.43775,-1.7725 -4.39326,-1.7725 -1.95688,0 -3.96974,0.60375 -5.89725,1.80625 l 1.2475,3.01375 c 1.98487,-1.06375 2.97612,-1.3825 4.33725,-1.3825 1.81387,0 2.57925,0.85 2.60737,2.835 l 0,0.5675 c -2.38036,0.2825 -3.20312,0.425 -4.13812,0.6375 -3.0335,0.7425 -4.47888,2.37375 -4.47888,5.20875 0,3.33 2.32425,5.88125 5.38575,5.88125 1.61625,0 2.89189,-0.74375 3.827,-2.19625 0.28313,1.20375 1.10589,1.9475 2.43775,2.19625 l 1.50263,-2.90625 z m -4.53613,-3.1525 c 0,1.02625 -0.14162,1.4175 -0.53837,1.8775 -0.53825,0.6025 -1.47338,0.9925 -2.21063,0.9925 -1.44537,0 -2.63675,-1.17 -2.63675,-2.6225 0,-1.205 0.62375,-1.91375 2.013,-2.30375 0.935,-0.2825 1.67226,-0.38875 3.37275,-0.60125 l 0,2.6575 z"
       id="path21" />
    <path
       inkscape:connector-curvature="0"
       style="fill:#ffffff;fill-rule:evenodd;stroke:none"
       d="m 162.75163,498.44249 0,-24.52125 -3.00412,0 0,8.18625 c -1.16213,-1.205 -2.24,-1.7375 -3.68538,-1.7375 -3.656,0 -6.2085,3.75625 -6.2085,9.1775 0,5.42125 2.60875,9.31875 6.294,9.31875 1.41725,0 2.63551,-0.60125 3.59989,-1.80625 l 0,1.3825 3.00412,0 z m -3.03225,-8.57625 c 0,1.49 -0.0854,2.41 -0.28437,3.04875 -0.42488,1.34625 -1.64425,2.33875 -2.97613,2.33875 -2.09712,0 -3.45825,-2.1975 -3.45825,-5.6 0,-3.47125 1.36113,-5.66875 3.54375,-5.66875 1.33175,0 2.60738,1.0275 2.948,2.41 0.16963,0.6725 0.227,1.59375 0.227,3.47125 z"
       id="path23" />
    <path
       inkscape:connector-curvature="0"
       style="fill:#ffffff;fill-rule:evenodd;stroke:none"
       d="m 170.97188,476.15374 c 0,-1.24 -0.87887,-2.37375 -1.87137,-2.37375 -1.10475,0 -1.98363,1.09875 -1.98363,2.37375 0,1.3475 0.87888,2.41 1.9555,2.41 1.02063,0 1.8995,-1.0625 1.8995,-2.41 z m -0.39675,22.28875 0,-17.68625 -3.0615,0 0,17.68625 3.0615,0 z"
       id="path25" />
    <path
       inkscape:connector-curvature="0"
       style="fill:#ffffff;fill-rule:evenodd;stroke:none"
       d="m 186.64688,498.44249 0,-10.8425 c 0,-2.6575 -0.19775,-3.8975 -0.907,-5.0675 -0.84962,-1.38125 -2.268,-2.1975 -3.9685,-2.1975 -1.38912,0 -2.268,0.39 -3.59987,1.73625 l 0,-1.34625 -3.00413,0 0,17.7175 3.00413,0 0,-10.02875 c 0,-1.52375 0.199,-2.445 0.70925,-3.1525 0.51025,-0.71 1.44537,-1.17 2.23875,-1.17 0.82162,0 1.64437,0.46 2.013,1.17 0.33937,0.63625 0.45287,1.41625 0.45287,3.1175 l 0,10.06375 3.0615,0 z"
       id="path27" />
    <path
       inkscape:connector-curvature="0"
       style="fill:#ffffff;fill-rule:evenodd;stroke:none"
       d="m 202.88963,495.60749 0,-14.8825 -3.06162,0 0,1.31125 c -1.0205,-1.13375 -2.12525,-1.66625 -3.48625,-1.66625 -3.40213,0 -5.92413,3.54375 -5.92413,8.32875 0,4.92375 2.46588,8.29 6.03763,8.29 1.33175,0 2.46587,-0.46125 3.37275,-1.38125 l 0,1.0275 c 0,1.3825 -0.0561,1.8775 -0.28313,2.40875 -0.45287,0.9925 -1.55887,1.63125 -3.00537,1.63125 -1.24638,0 -2.57938,-0.42625 -4.336,-1.3475 l -1.16325,3.295 c 1.81512,1.13375 3.91225,1.73625 5.98137,1.73625 2.52325,0 4.1675,-0.81375 5.13063,-2.58625 0.68112,-1.27625 0.73737,-1.665 0.73737,-6.165 z m -3.06162,-6.80375 c 0,2.94125 -1.0485,4.465 -3.03338,4.465 -1.92625,0 -3.14575,-1.7375 -3.14575,-4.53625 0,-2.7275 1.33175,-4.64125 3.20313,-4.64125 0.85075,0 1.70037,0.46 2.21062,1.27625 0.53838,0.78 0.76538,1.77125 0.76538,3.43625 z"
       id="path29" />
    <path
       inkscape:connector-curvature="0"
       style="fill:#ffffff;fill-rule:nonzero;stroke:none"
       d="m 227.74938,498.44249 0,-3.89875 -9.9225,0 9.83625,-17.11375 0,-3.79125 -13.3225,0 0,3.96875 9.32625,0 -9.8075,16.93625 0,3.89875 13.89,0 z"
       id="path31" />
    <path
       inkscape:connector-curvature="0"
       style="fill:#ffffff;fill-rule:evenodd;stroke:none"
       d="m 243.90688,489.65374 c 0,-5.5275 -2.80625,-9.35375 -6.945,-9.35375 -3.94,0 -6.5775,3.75625 -6.5775,9.35375 0,5.4925 2.77875,9.28375 6.80376,9.28375 3.96875,0 6.71875,-3.8275 6.71875,-9.28375 z m -3.2325,-0.07 c 0,3.40125 -1.47375,5.67 -3.6,5.67 -2.1825,0 -3.62875,-2.26875 -3.62875,-5.67 0,-3.33 1.475,-5.67 3.6575,-5.67 2.155,0 3.57125,2.26875 3.57125,5.67 z"
       id="path33" />
    <path
       inkscape:connector-curvature="0"
       style="fill:#ffffff;fill-rule:evenodd;stroke:none"
       d="m 259.35438,498.44249 0,-10.8425 c 0,-2.6575 -0.1975,-3.8975 -0.9075,-5.0675 -0.84874,-1.38125 -2.26625,-2.1975 -3.9675,-2.1975 -1.38874,0 -2.2675,0.39 -3.59999,1.73625 l 0,-1.34625 -3.005,0 0,17.7175 3.005,0 0,-10.02875 c 0,-1.52375 0.19875,-2.445 0.70875,-3.1525 0.51,-0.71 1.445,-1.17 2.23876,-1.17 0.82249,0 1.64499,0.46 2.01374,1.17 0.34,0.63625 0.45249,1.41625 0.45249,3.1175 l 0,10.06375 3.06126,0 z"
       id="path35" />
    <path
       inkscape:connector-curvature="0"
       style="fill:#ffffff;fill-rule:evenodd;stroke:none"
       d="m 275.85189,490.99999 0,-0.77875 c 0,-6.165 -2.4375,-9.88625 -6.49126,-9.88625 -3.82624,0 -6.3775,3.685 -6.3775,9.1425 0,5.5625 2.63625,9.425 6.74625,9.425 2.12625,0 4.13875,-0.815 5.385,-3.72 l -2.23875,-2.37375 c -1.16125,2.125 -1.87,2.4075 -3.1175,2.4075 -2.04125,0 -3.345,-1.59375 -3.57125,-4.21625 l 9.665,0 z m -3.23126,-2.975 -6.43374,0 c 0.0838,-1.06375 0.19749,-1.56 0.45249,-2.1275 0.59625,-1.275 1.64501,-2.05375 2.80626,-2.05375 1.84375,0 3.09,1.63 3.17499,4.18125 z"
       id="path37" />
    <path
       inkscape:connector-curvature="0"
       style="fill:#ffffff;fill-rule:nonzero;stroke:none"
       d="m 177.95913,407.02462 -1.27562,27.26538 6.803,0.9575 c 1.488,-2.1625 3.57912,-3.2425 6.272,-3.2425 5.06587,0.035 7.58175,3.455 7.54762,10.25875 0,2.905 -0.79837,5.4025 -2.39262,7.4925 -1.91413,2.55125 -4.60575,3.86375 -8.07863,3.93375 -1.70037,0.0363 -3.63162,-0.74375 -5.7935,-2.3375 l -5.36737,5.1025 c 3.9685,3.1525 7.9895,4.72875 12.06425,4.72875 4.99625,0 9.17725,-2.1075 12.54387,-6.325 3.08225,-3.89625 4.62288,-8.32625 4.62288,-13.2875 0,-4.8175 -1.30988,-8.805 -3.93188,-11.9575 -2.80037,-3.29588 -6.46737,-4.94388 -11.00225,-4.94388 -1.80787,0 -3.52662,0.24913 -5.155,0.74463 l 0.4785,-10.78975 17.32538,0 0,-7.60013 -24.66063,0 z"
       id="path39" />
  </g>
</svg>
