<?xml version="1.0" encoding="UTF-8" standalone="no"?>
<!-- Created with Inkscape (http://www.inkscape.org/) -->

<svg
   xmlns:dc="http://purl.org/dc/elements/1.1/"
   xmlns:cc="http://creativecommons.org/ns#"
   xmlns:rdf="http://www.w3.org/1999/02/22-rdf-syntax-ns#"
   xmlns:svg="http://www.w3.org/2000/svg"
   xmlns="http://www.w3.org/2000/svg"
   xmlns:sodipodi="http://sodipodi.sourceforge.net/DTD/sodipodi-0.dtd"
   xmlns:inkscape="http://www.inkscape.org/namespaces/inkscape"
   id="svg17624"
   version="1.1"
   inkscape:version="0.48.4 r9939"
   width="1205.4"
   height="505.39999"
   xml:space="preserve"
   sodipodi:docname="AJAX.svg"><metadata
     id="metadata17630"><rdf:RDF><cc:Work
         rdf:about=""><dc:format>image/svg+xml</dc:format><dc:type
           rdf:resource="http://purl.org/dc/dcmitype/StillImage" /><dc:title /></cc:Work></rdf:RDF></metadata><defs
     id="defs17628"><inkscape:perspective
       sodipodi:type="inkscape:persp3d"
       inkscape:vp_x="0 : 0.5 : 1"
       inkscape:vp_y="0 : 1000 : 0"
       inkscape:vp_z="1 : 0.5 : 1"
       inkscape:persp3d-origin="0.5 : 0.33333333 : 1"
       id="perspective17632" /><clipPath
       clipPathUnits="userSpaceOnUse"
       id="clipPath17642"><path
         d="m -2,710 501,0 0,-711 -501,0 0,711 z"
         id="path17644"
         inkscape:connector-curvature="0" /></clipPath><clipPath
       clipPathUnits="userSpaceOnUse"
       id="clipPath17648"><path
         d="m 0,708.06 498,0 0,-708 -498,0 0,708 z"
         id="path17650"
         inkscape:connector-curvature="0" /></clipPath><clipPath
       clipPathUnits="userSpaceOnUse"
       id="clipPath17798"><path
         d="m -2,710 501,0 0,-711 -501,0 0,711 z"
         id="path17800"
         inkscape:connector-curvature="0" /></clipPath><clipPath
       clipPathUnits="userSpaceOnUse"
       id="clipPath17804"><path
         d="m 0,708.06 498,0 0,-708 -498,0 0,708 z"
         id="path17806"
         inkscape:connector-curvature="0" /></clipPath><clipPath
       id="Clip0"><path
         inkscape:connector-curvature="0"
         d="m 0,0 212.597,0 0,269.292 L 0,269.292 0,0 z"
         transform="translate(0.923828,0.879883)"
         id="path7" /></clipPath></defs><sodipodi:namedview
     pagecolor="#ffffff"
     bordercolor="#666666"
     borderopacity="1"
     objecttolerance="10"
     gridtolerance="10"
     guidetolerance="10"
     inkscape:pageopacity="0"
     inkscape:pageshadow="2"
     inkscape:window-width="1280"
     inkscape:window-height="1001"
     id="namedview17626"
     showgrid="false"
     inkscape:zoom="0.35395287"
     inkscape:cx="696.70353"
     inkscape:cy="3.8777565"
     inkscape:window-x="-8"
     inkscape:window-y="-8"
     inkscape:window-maximized="1"
     inkscape:current-layer="g17634"
     fit-margin-top="2.7"
     fit-margin-left="2.7"
     fit-margin-right="2.7"
     fit-margin-bottom="2.7"
     showguides="true"
     inkscape:guide-bbox="true" /><g
     id="g17634"
     inkscape:groupmode="layer"
     inkscape:label="GG1999P002"
     transform="matrix(1.25,0,0,-1.25,365.39531,551.68437)"><path
       style="fill:#ffffff;fill-rule:nonzero;stroke:#000000;stroke-opacity:1;stroke-width:4;stroke-miterlimit:4;stroke-dasharray:none"
       d="m -290.15625,103.1875 c 0,-35.3496 28.656,-64 64,-64 l 832,0 c 35.3441,0 64,28.6504 64,64 l 0,272 c 0,35.3496 -28.6559,64 -64,64 l -832,0 c -35.344,0 -64,-28.6504 -64,-64 z"
       id="path11"
       inkscape:connector-curvature="0"
       sodipodi:nodetypes="sssssssss" /><path
       style="fill:#0069b3;fill-opacity:1;fill-rule:nonzero;stroke:none"
       d="m 641.04375,375.1875 c 0,19.44103 -15.7589,35.2 -35.2,35.2 l -832,0 c -19.4411,0 -35.2,-15.75897 -35.2,-35.2 l 0,-272 c 0,-19.44103 15.7589,-35.2 35.2,-35.2 l 832,0 c 19.4411,0 35.2,15.75897 35.2,35.2 z"
       id="path13"
       inkscape:connector-curvature="0"
       sodipodi:nodetypes="sssssssss" /><path
       id="path3828"
       d="m 349.20981,299.34654 -559.36606,0 0,-120.31841 559.36606,0 -22.2276,-56.96204 c -5.0857,-12.27543 0.745,-26.353138 13.0216,-31.435507 7.7102,-3.19698 16.1221,-2.09458 22.5736,2.221389 l 227.2663,146.335378 -227.2663,146.33573 c -6.4515,4.3157 -14.8634,5.4186 -22.5736,2.221 -12.2766,-5.0873 -18.1073,-19.1599 -13.0216,-31.43533 z"
       style="fill:#ffffff;fill-rule:nonzero;stroke:none"
       inkscape:connector-curvature="0"
       sodipodi:nodetypes="cccccccccccc" /><path
       id="path3920"
       d="m -98.282674,197.62813 c 7.78826,0 13.65909,3.73721 17.617,11.20599 3.67061,7.08326 5.50619,17.21455 5.50619,30.38877 0,27.68224 -7.65618,41.52364 -22.96345,41.52364 -15.676956,0 -23.514916,-13.8414 -23.514916,-41.52364 0,-27.73191 7.78316,-41.59476 23.355176,-41.59476 z m 0,11.52039 c -4.531396,0 -7.756086,2.89957 -9.685366,8.70944 -1.53752,4.76789 -2.30412,11.88954 -2.30412,21.36493 0,20.26313 3.99634,30.39441 11.989486,30.39441 7.94291,0 11.91155,-10.13128 11.91155,-30.39441 0,-20.05315 -3.96864,-30.07437 -11.91155,-30.07437 z"
       style="fill:#0069b3;fill-opacity:1;fill-rule:evenodd;stroke:none"
       inkscape:connector-curvature="0" /><path
       id="path3922"
       d="m -55.233274,279.10893 0,-80.0032 11.057377,0 0,52.58043 23.83462,-52.58043 9.10555,0 0,80.0032 -11.608274,0 0,-46.25249 -21.331896,46.25249 -11.057377,0 z"
       style="fill:#0069b3;fill-opacity:1;fill-rule:nonzero;stroke:none"
       inkscape:connector-curvature="0" /><path
       id="path3924"
       d="m 6.453114,279.10893 0,-80.0032 40.001315,0 0,11.28881 -29.021268,0 0,26.40903 17.026907,0 0,10.93603 -17.026907,0 0,20.08052 27.731517,0 0,11.28881 -38.711564,0 z"
       style="fill:#0069b3;fill-opacity:1;fill-rule:nonzero;stroke:none"
       inkscape:connector-curvature="0" /><path
       id="path3926"
       d="m 100.32455,279.10893 12.9697,-80.0032 9.41487,0 7.84911,40.97723 7.69501,-40.97723 9.92174,0 12.14901,80.0032 -11.44346,0 -6.17329,-42.30536 -7.5793,42.30536 -9.37084,0 -7.50198,-41.59981 -6.64176,41.59981 -11.28881,0 z"
       style="fill:#0069b3;fill-opacity:1;fill-rule:nonzero;stroke:none"
       inkscape:connector-curvature="0" /><path
       id="path3928"
       d="m 184.80363,232.38795 5.6224,21.52493 5.66641,-21.52493 -11.28881,0 z m -19.10517,-33.28222 11.6032,0 5.35202,22.23048 16.33265,0 5.74374,-22.23048 11.44854,0 -20.08617,80.0032 -11.28881,0 -19.10517,-80.0032 z"
       style="fill:#0069b3;fill-opacity:1;fill-rule:evenodd;stroke:none"
       inkscape:connector-curvature="0" /><path
       id="path3930"
       d="m 221.40965,279.10893 19.92643,-43.67244 0,-36.33076 11.75729,0 0,36.33076 18.79699,43.67244 -12.07337,0 -12.81449,-28.47545 -13.13001,28.47545 -12.46284,0 z"
       style="fill:#0069b3;fill-opacity:1;fill-rule:nonzero;stroke:none"
       inkscape:connector-curvature="0" /></g></svg>