<?xml version="1.0" encoding="UTF-8" standalone="no"?>
<!-- Created with Inkscape (http://www.inkscape.org/) -->

<svg
   xmlns:dc="http://purl.org/dc/elements/1.1/"
   xmlns:cc="http://creativecommons.org/ns#"
   xmlns:rdf="http://www.w3.org/1999/02/22-rdf-syntax-ns#"
   xmlns:svg="http://www.w3.org/2000/svg"
   xmlns="http://www.w3.org/2000/svg"
   xmlns:sodipodi="http://sodipodi.sourceforge.net/DTD/sodipodi-0.dtd"
   xmlns:inkscape="http://www.inkscape.org/namespaces/inkscape"
   width="214.09375"
   height="90.0625"
   id="svg2"
   sodipodi:version="0.32"
   inkscape:version="0.48.2 r9819"
   version="1.0"
   sodipodi:docname="AJAX1.svg"
   inkscape:output_extension="org.inkscape.output.svg.inkscape">
  <defs
     id="defs4">
    <inkscape:perspective
       sodipodi:type="inkscape:persp3d"
       inkscape:vp_x="0 : 300.5 : 1"
       inkscape:vp_y="0 : 1000 : 0"
       inkscape:vp_z="601 : 300.5 : 1"
       inkscape:persp3d-origin="300.5 : 200.33333 : 1"
       id="perspective3380" />
    <inkscape:perspective
       id="perspective3990"
       inkscape:persp3d-origin="375 : 250 : 1"
       inkscape:vp_z="750 : 375 : 1"
       inkscape:vp_y="0 : 1000 : 0"
       inkscape:vp_x="0 : 375 : 1"
       sodipodi:type="inkscape:persp3d" />
  </defs>
  <sodipodi:namedview
     id="base"
     pagecolor="#ffffff"
     bordercolor="#666666"
     borderopacity="1.0"
     gridtolerance="10000"
     guidetolerance="10"
     objecttolerance="10"
     inkscape:pageopacity="0.0"
     inkscape:pageshadow="2"
     inkscape:zoom="2.0232335"
     inkscape:cx="48.752519"
     inkscape:cy="92.938958"
     inkscape:document-units="px"
     inkscape:current-layer="layer1"
     width="601px"
     height="601px"
     inkscape:window-width="1280"
     inkscape:window-height="1004"
     inkscape:window-x="-8"
     inkscape:window-y="-8"
     showgrid="false"
     fit-margin-top="0"
     fit-margin-left="0"
     fit-margin-right="0"
     fit-margin-bottom="0"
     inkscape:window-maximized="1" />
  <metadata
     id="metadata7">
    <rdf:RDF>
      <cc:Work
         rdf:about="">
        <dc:format>image/svg+xml</dc:format>
        <dc:type
           rdf:resource="http://purl.org/dc/dcmitype/StillImage" />
        <dc:title />
      </cc:Work>
    </rdf:RDF>
  </metadata>
  <g
     inkscape:label="Layer 1"
     inkscape:groupmode="layer"
     id="layer1"
     transform="translate(-72.4375,-487.75)">
    <rect
       style="color:#000000;fill:#000000;fill-opacity:1;fill-rule:nonzero;stroke:none;stroke-width:0.8735441;marker:none;visibility:visible;display:inline;overflow:visible"
       id="rect3653"
       width="0"
       height="27.202072"
       x="578.73834"
       y="298.1684"
       rx="249.48199"
       ry="27.202072" />
    <path
       inkscape:connector-curvature="0"
       style="fill:#ffffff;fill-rule:nonzero;stroke:#000000;stroke-width:1.5;stroke-miterlimit:4;stroke-opacity:1;stroke-dasharray:none"
       d="m 73.192382,499.12574 c 0,-5.87159 4.759512,-10.62989 10.629875,-10.62989 l 191.338873,0 c 5.87,0 10.63,4.7583 10.63,10.62989 l 0,67.32173 c 0,5.87163 -4.76,10.62988 -10.63,10.62988 l -191.338873,0 c -5.870363,0 -10.629875,-4.75825 -10.629875,-10.62987 l 0,-67.32174 z"
       id="path11" />
    <path
       inkscape:connector-curvature="0"
       style="fill:#0069b3;fill-rule:nonzero;stroke:none"
       d="m 79.570562,499.12574 c 0,-2.34864 1.903075,-4.25294 4.2517,-4.25294 l 191.338298,0 c 2.34875,0 4.2525,1.9043 4.2525,4.25294 l 0,67.32181 c 0,2.34862 -1.90375,4.253 -4.2525,4.253 l -191.338297,0 c -2.348625,0 -4.2517,-1.90438 -4.2517,-4.253 l 0,-67.32181 z"
       id="path13" />
    <path
       inkscape:connector-curvature="0"
       style="fill:#ffffff;fill-rule:evenodd;stroke:none"
       d="m 109.30562,524.99125 0,-11.02663 -7.39737,0 0,2.77825 4.86687,0 0,0.76538 c 0,1.13412 -0.144,1.98375 -0.45775,2.6355 -0.67387,1.38925 -2.096,2.29625 -3.6865,2.29625 -3.10787,0 -5.084245,-2.86263 -5.084245,-7.31325 0,-4.47875 2.025125,-7.45487 5.036625,-7.45487 1.831,0 3.03587,0.87887 4.14425,3.28862 l 2.72225,-0.76662 c -1.13288,-3.51438 -3.73413,-5.49813 -6.7225,-5.49813 -1.9995,0 -3.807375,0.708 -5.13175,2.04113 -1.831125,1.81387 -2.988375,5.017 -2.988375,8.30437 0,2.72213 0.796,5.61275 1.976375,7.31325 1.348875,1.89938 3.61325,3.0615 5.97538,3.0615 1.87987,0 3.15675,-0.67988 4.28825,-2.32425 l 0,1.8995 2.4585,0 z"
       id="path15" />
    <path
       inkscape:connector-curvature="0"
       style="fill:#ffffff;fill-rule:evenodd;stroke:none"
       d="m 123.90649,517.96112 c 0,-4.42137 -2.38524,-7.48287 -5.90337,-7.48287 -3.3495,0 -5.5895,3.00413 -5.5895,7.48287 0,4.39338 2.36075,7.42688 5.78238,7.42688 3.37287,0 5.71049,-3.06163 5.71049,-7.42688 z m -2.74662,-0.0561 c 0,2.721 -1.25362,4.535 -3.06025,4.535 -1.8555,0 -3.0835,-1.814 -3.0835,-4.535 0,-2.66475 1.25238,-4.53612 3.10788,-4.53612 1.83112,0 3.03587,1.81525 3.03587,4.53612 z"
       id="path17" />
    <path
       inkscape:connector-curvature="0"
       style="fill:#ffffff;fill-rule:evenodd;stroke:none"
       d="m 138.12162,517.96112 c 0,-4.42137 -2.38525,-7.48287 -5.90337,-7.48287 -3.34838,0 -5.58963,3.00413 -5.58963,7.48287 0,4.39338 2.36087,7.42688 5.7825,7.42688 3.374,0 5.7105,-3.06163 5.7105,-7.42688 z m -2.74662,-0.0561 c 0,2.721 -1.2525,4.535 -3.06026,4.535 -1.85549,0 -3.0835,-1.814 -3.0835,-4.535 0,-2.66474 1.25238,-4.53612 3.10788,-4.53612 1.831,0 3.03587,1.81525 3.03587,4.53612 z"
       id="path19" />
    <path
       inkscape:connector-curvature="0"
       style="fill:#ffffff;fill-rule:evenodd;stroke:none"
       d="m 151.78374,524.99125 0,-19.6155 -2.555,0 0,6.54787 c -0.9875,-0.96312 -1.90312,-1.38925 -3.13112,-1.38925 -3.10913,0 -5.27712,3.00538 -5.27712,7.34138 0,4.33713 2.21687,7.456 5.34912,7.456 1.20488,0 2.24,-0.48213 3.05912,-1.4465 l 0,1.106 2.555,0 z m -2.57812,-6.86038 c 0,1.19138 -0.0721,1.92875 -0.24175,2.43776 -0.36138,1.07787 -1.39775,1.87137 -2.52925,1.87137 -1.7835,0 -2.9395,-1.75663 -2.9395,-4.47888 0,-2.77699 1.156,-4.53487 3.0115,-4.53487 1.13275,0 2.21675,0.8215 2.50612,1.9275 0.144,0.53837 0.19288,1.27562 0.19288,2.77712 z"
       id="path21" />
    <path
       inkscape:connector-curvature="0"
       style="fill:#ffffff;fill-rule:nonzero;stroke:none"
       d="m 164.86599,520.654 c 0,-2.268 -1.30125,-3.59975 -3.855,-4.13812 -1.39775,-0.28326 -1.54175,-0.31126 -1.80662,-0.42476 -0.603,-0.22712 -0.9155,-0.65312 -0.9155,-1.1915 0,-0.935 0.86663,-1.64425 2.02387,-1.64425 0.81913,0 1.25238,0 2.12038,1.16338 l 2.1435,-1.16338 c -1.0595,-2.15337 -2.62575,-2.721 -4.28825,-2.721 -2.72225,0 -4.6265,1.84325 -4.6265,4.42263 0,1.0205 0.33812,2.041 0.93987,2.77837 0.67513,0.79338 1.34888,1.13275 3.0115,1.44525 1.20488,0.22588 1.44663,0.28325 1.73589,0.42488 0.52974,0.25512 0.81912,0.73725 0.81912,1.30362 0,0.93638 -0.89238,1.58825 -2.19363,1.58825 -1.20363,0 -1.83113,-0.3125 -2.89062,-1.814 l -1.78351,1.67113 c 0.98763,2.18262 2.93951,2.91987 4.74738,2.91987 2.81862,0 4.81812,-1.89937 4.81812,-4.62037 z"
       id="path23" />
    <path
       inkscape:connector-curvature="0"
       style="fill:#ffffff;fill-rule:nonzero;stroke:none"
       d="m 186.50287,505.14862 -2.915,0 -3.783,15.619 -3.78287,-15.619 -2.91513,0 5.05863,19.84263 3.3985,0 4.93888,-19.84263 z"
       id="path25" />
    <path
       inkscape:connector-curvature="0"
       style="fill:#ffffff;fill-rule:evenodd;stroke:none"
       d="m 199.49,519.03787 0,-0.62262 c 0,-4.93287 -2.07275,-7.90887 -5.51876,-7.90887 -3.252,0 -5.42,2.94799 -5.42,7.31324 0,4.45063 2.24,7.54026 5.73363,7.54026 1.80788,0 3.51763,-0.65188 4.57763,-2.97613 l -1.90301,-1.89937 c -0.98762,1.70049 -1.58936,1.92749 -2.65011,1.92749 -1.73464,0 -2.84313,-1.27562 -3.03587,-3.374 l 8.2165,0 z m -2.74775,-2.38037 -5.46875,0 c 0.072,-0.85087 0.16837,-1.24762 0.38562,-1.7005 0.50537,-1.0205 1.39775,-1.64425 2.38525,-1.64425 1.56625,0 2.62575,1.30375 2.69788,3.34475 z"
       id="path27" />
    <path
       inkscape:connector-curvature="0"
       style="fill:#ffffff;fill-rule:nonzero;stroke:none"
       d="m 212.28375,524.99125 0,-8.87212 c 0,-1.84326 -0.16875,-2.69288 -0.65,-3.59988 -0.675,-1.30362 -2.00125,-2.069 -3.42125,-2.069 -1.30125,0 -2.24125,0.42475 -3.27875,1.55875 l 0,-6.63325 -2.60125,0 0,19.6155 2.60125,0 0,-7.45488 c 0,-2.63675 0.8925,-3.99662 2.555,-3.99662 0.77125,0 1.35,0.28325 1.76,0.907 0.3125,0.51025 0.40875,1.0205 0.40875,2.23875 l 0,8.30575 2.62625,0 z"
       id="path29" />
    <path
       inkscape:connector-curvature="0"
       style="fill:#ffffff;fill-rule:evenodd;stroke:none"
       d="m 218.765,507.16162 c 0,-0.99237 -0.7475,-1.89937 -1.59125,-1.89937 -0.93875,0 -1.685,0.87888 -1.685,1.89937 0,1.07663 0.74625,1.9275 1.6625,1.9275 0.86625,0 1.61375,-0.85087 1.61375,-1.9275 z m -0.3375,17.82963 0,-14.148 -2.6025,0 0,14.148 2.6025,0 z"
       id="path31" />
    <path
       inkscape:connector-curvature="0"
       style="fill:#ffffff;fill-rule:nonzero;stroke:none"
       d="m 232.23375,521.4475 -2.3125,-1.33175 c -0.67501,1.53075 -1.495,2.23875 -2.6275,2.23875 -1.75876,0 -2.98625,-1.814 -2.98625,-4.4495 0,-2.49512 1.25124,-4.39325 2.91499,-4.39325 1.13251,0 1.87875,0.65063 2.57751,2.15325 l 2.33625,-1.38913 c -0.86625,-2.35225 -2.625,-3.62787 -4.8425,-3.62787 -3.325,0 -5.61375,2.976 -5.61375,7.257 0,4.30788 2.24125,7.28512 5.4925,7.28512 2.26624,0 4.0975,-1.33299 5.06125,-3.74262 z"
       id="path33" />
    <path
       inkscape:connector-curvature="0"
       style="fill:#ffffff;fill-rule:nonzero;stroke:none"
       d="m 240.01625,524.935 -0.53,-2.55125 c -0.81875,0.0563 -0.57876,0.0563 -0.84375,0.0563 -1.05875,0 -1.35,-0.39675 -1.35,-1.84213 l 0,-15.22212 -2.55375,0 0,15.675 c 0,2.1265 0.19374,2.86375 0.91624,3.48637 0.52875,0.45413 1.18125,0.653 2.14376,0.653 0.675,0 1.63874,-0.1135 2.2175,-0.25512 z"
       id="path35" />
    <path
       inkscape:connector-curvature="0"
       style="fill:#ffffff;fill-rule:evenodd;stroke:none"
       d="m 252.49624,519.03787 0,-0.62262 c 0,-4.93287 -2.07124,-7.90887 -5.5175,-7.90887 -3.25125,0 -5.42125,2.94799 -5.42125,7.31324 0,4.45063 2.24126,7.54026 5.73501,7.54026 1.80624,0 3.51874,-0.65188 4.57749,-2.97613 l -1.9025,-1.89937 c -0.98749,1.70049 -1.59125,1.92749 -2.65,1.92749 -1.73624,0 -2.84375,-1.27562 -3.0375,-3.374 l 8.21625,0 z m -2.74625,-2.38037 -5.47,0 c 0.0738,-0.85087 0.17001,-1.24762 0.38625,-1.7005 0.50626,-1.0205 1.3975,-1.64425 2.38501,-1.64425 1.56624,0 2.62625,1.30375 2.69874,3.34475 z"
       id="path37" />
    <path
       inkscape:connector-curvature="0"
       style="fill:#ffffff;fill-rule:nonzero;stroke:none"
       d="m 264.37499,520.654 c 0,-2.268 -1.30125,-3.59975 -3.85499,-4.13812 -1.39751,-0.28326 -1.54126,-0.31126 -1.80626,-0.42476 -0.60374,-0.22712 -0.91624,-0.65312 -0.91624,-1.1915 0,-0.935 0.86749,-1.64425 2.02499,-1.64425 0.81876,0 1.2525,0 2.12,1.16338 l 2.14376,-1.16338 c -1.06,-2.15337 -2.62626,-2.721 -4.28875,-2.721 -2.72375,0 -4.62624,1.84325 -4.62624,4.42263 0,1.0205 0.33623,2.041 0.94,2.77837 0.67374,0.79338 1.34873,1.13275 3.01124,1.44525 1.205,0.22588 1.44624,0.28325 1.735,0.42488 0.53125,0.25512 0.81875,0.73725 0.81875,1.30362 0,0.93638 -0.89126,1.58825 -2.1925,1.58825 -1.205,0 -1.83126,-0.3125 -2.89,-1.814 L 254.81,522.3545 c 0.9875,2.18262 2.93874,2.91987 4.74624,2.91987 2.82,0 4.81876,-1.89937 4.81876,-4.62037 z"
       id="path39" />
    <path
       inkscape:connector-curvature="0"
       style="fill:#ffffff;fill-rule:evenodd;stroke:none"
       d="m 170.32374,546.70512 c 0,-2.89187 -0.65062,-5.55662 -1.7835,-7.31325 -1.34887,-2.09837 -3.56562,-3.346 -5.97525,-3.346 -4.60212,0 -7.61362,4.13938 -7.61362,10.43213 0,2.8345 0.57862,5.15875 1.71026,6.8885 1.35012,2.12525 3.56686,3.34462 5.99975,3.34462 4.55449,0 7.66237,-4.082 7.66237,-10.006 z M 167.43187,546.45 c 0,4.50675 -1.85425,7.31312 -4.81813,7.31312 -2.94062,0 -4.84375,-2.89175 -4.84375,-7.3425 0,-4.50675 1.8555,-7.34125 4.795,-7.34125 2.91625,0 4.86688,2.948 4.86688,7.37063 z"
       id="path41" />
    <path
       inkscape:connector-curvature="0"
       style="fill:#ffffff;fill-rule:evenodd;stroke:none"
       d="m 183.18999,556.28637 0,-8.67437 c 0,-2.12638 -0.16849,-3.11888 -0.7715,-4.05388 -0.72275,-1.106 -1.9275,-1.75787 -3.37288,-1.75787 -1.18037,0 -1.9275,0.3125 -3.06025,1.38925 l 0,-1.07675 -2.55374,0 0,14.17362 2.55374,0 0,-8.0225 c 0,-1.21949 0.16963,-1.9555 0.603,-2.52312 0.43338,-0.56637 1.22801,-0.93513 1.90313,-0.93513 0.69826,0 1.39762,0.36876 1.71138,0.93513 0.28812,0.51025 0.3845,1.134 0.3845,2.49512 l 0,8.0505 2.60262,0 z"
       id="path43" />
    <path
       inkscape:connector-curvature="0"
       style="fill:#ffffff;fill-rule:nonzero;stroke:none"
       d="m 192.20112,556.229 -0.52975,-2.55125 c -0.81912,0.0574 -0.57862,0.0574 -0.8435,0.0574 -1.05962,0 -1.34887,-0.398 -1.34887,-1.84325 l 0,-15.22225 -2.55488,0 0,15.67638 c 0,2.12524 0.19288,2.86249 0.9155,3.48624 0.531,0.45413 1.18163,0.65188 2.14475,0.65188 0.675,0 1.63813,-0.1135 2.21675,-0.25513 z"
       id="path45" />
    <path
       inkscape:connector-curvature="0"
       style="fill:#ffffff;fill-rule:nonzero;stroke:none"
       d="m 204.03125,542.11275 -2.81876,0 -2.64999,9.89262 -2.43438,-9.89262 -2.93938,0 4.09663,14.541 c -0.38575,1.16213 -0.72263,1.47463 -1.56612,1.47463 -0.45775,0 -0.7715,-0.0561 -1.35013,-0.34051 l -0.55413,2.55125 c 0.79588,0.34063 1.51851,0.53838 2.38638,0.53838 1.012,0 1.70988,-0.22588 2.21613,-0.73613 0.4575,-0.42599 0.65,-0.85087 1.05999,-2.18262 l 4.55376,-15.846 z"
       id="path47" />
  </g>
</svg>
