<?xml version="1.0" encoding="UTF-8" standalone="no"?>
<!-- Created with Inkscape (http://www.inkscape.org/) -->

<svg
   xmlns:dc="http://purl.org/dc/elements/1.1/"
   xmlns:cc="http://creativecommons.org/ns#"
   xmlns:rdf="http://www.w3.org/1999/02/22-rdf-syntax-ns#"
   xmlns:svg="http://www.w3.org/2000/svg"
   xmlns="http://www.w3.org/2000/svg"
   xmlns:sodipodi="http://sodipodi.sourceforge.net/DTD/sodipodi-0.dtd"
   xmlns:inkscape="http://www.inkscape.org/namespaces/inkscape"
   id="svg17624"
   version="1.1"
   inkscape:version="0.48.4 r9939"
   width="200.2"
   height="200.2"
   xml:space="preserve"
   sodipodi:docname="AJAX1.svg"><metadata
     id="metadata17630"><rdf:RDF><cc:Work
         rdf:about=""><dc:format>image/svg+xml</dc:format><dc:type
           rdf:resource="http://purl.org/dc/dcmitype/StillImage" /><dc:title /></cc:Work></rdf:RDF></metadata><defs
     id="defs17628"><inkscape:perspective
       sodipodi:type="inkscape:persp3d"
       inkscape:vp_x="0 : 0.5 : 1"
       inkscape:vp_y="0 : 1000 : 0"
       inkscape:vp_z="1 : 0.5 : 1"
       inkscape:persp3d-origin="0.5 : 0.33333333 : 1"
       id="perspective17632" /><clipPath
       clipPathUnits="userSpaceOnUse"
       id="clipPath17642"><path
         d="m -2,710 501,0 0,-711 -501,0 0,711 z"
         id="path17644"
         inkscape:connector-curvature="0" /></clipPath><clipPath
       clipPathUnits="userSpaceOnUse"
       id="clipPath17648"><path
         d="m 0,708.06 498,0 0,-708 -498,0 0,708 z"
         id="path17650"
         inkscape:connector-curvature="0" /></clipPath><clipPath
       clipPathUnits="userSpaceOnUse"
       id="clipPath17798"><path
         d="m -2,710 501,0 0,-711 -501,0 0,711 z"
         id="path17800"
         inkscape:connector-curvature="0" /></clipPath><clipPath
       clipPathUnits="userSpaceOnUse"
       id="clipPath17804"><path
         d="m 0,708.06 498,0 0,-708 -498,0 0,708 z"
         id="path17806"
         inkscape:connector-curvature="0" /></clipPath><clipPath
       id="Clip0"><path
         inkscape:connector-curvature="0"
         d="m 0,0 212.597,0 0,269.292 L 0,269.292 0,0 z"
         transform="translate(0.923828,0.879883)"
         id="path7" /></clipPath></defs><sodipodi:namedview
     pagecolor="#ffffff"
     bordercolor="#666666"
     borderopacity="1"
     objecttolerance="10"
     gridtolerance="10"
     guidetolerance="10"
     inkscape:pageopacity="0"
     inkscape:pageshadow="2"
     inkscape:window-width="1280"
     inkscape:window-height="1004"
     id="namedview17626"
     showgrid="false"
     inkscape:zoom="2.5993181"
     inkscape:cx="68.645304"
     inkscape:cy="65.825659"
     inkscape:window-x="-8"
     inkscape:window-y="-8"
     inkscape:window-maximized="1"
     inkscape:current-layer="g17634"
     fit-margin-top="0.1"
     fit-margin-left="0.1"
     fit-margin-right="0.1"
     fit-margin-bottom="0.1"
     showguides="true"
     inkscape:guide-bbox="true" /><g
     id="g17634"
     inkscape:groupmode="layer"
     inkscape:label="GG1999P002"
     transform="matrix(1.25,0,0,-1.25,160.49062,77.404677)"><path
       sodipodi:nodetypes="sssss"
       inkscape:connector-curvature="0"
       id="path3787"
       d="m 31.6875,-18.156349 c 0,44.18241 -35.816846,80.000091 -80.000009,80.000091 -44.183435,0 -79.999991,-35.817587 -79.999991,-80.000001 0,-44.18334 35.816556,-80 79.999991,-80 44.183163,0 80.000009,35.81656 80.000009,79.9999 z"
       style="fill:#c0111e;fill-opacity:1;fill-rule:nonzero;stroke:none" /><path
       style="fill:#ffffff;fill-opacity:1;fill-rule:nonzero;stroke:none"
       d="m 5.021104,-18.15632 c 0,29.455087 -23.878016,53.333659 -53.333604,53.333659 -29.45577,0 -53.3336,-23.878509 -53.3336,-53.333599 0,-29.455706 23.87783,-53.333598 53.3336,-53.333598 29.455588,0 53.333604,23.877825 53.333604,53.333532 z"
       id="path3033"
       inkscape:connector-curvature="0"
       sodipodi:nodetypes="sssss" /><path
       style="fill:#000000;fill-rule:evenodd;stroke:none"
       d="m -69.643276,8.6583173 c -6.82773,-4.765338 -12.00182,-11.076696 -15.52228,-18.9361413 -2.91593,-6.436382 -4.37389,-12.99685 -4.37389,-19.683094 0,-4.23156 1.9908,-7.946558 5.97429,-11.146968 3.80521,-3.058359 8.03668,-4.58613 12.69449,-4.58613 3.66194,0 7.23658,1.367844 10.72119,4.10635 4.12488,3.19947 6.18737,7.164706 6.18737,11.894108 0,4.800146 -1.81347,8.854376 -5.44051,12.161656 -3.48461,3.129104 -7.55625,4.693654 -12.2149,4.693654 -2.02759,0 -3.9468,-0.338102 -5.76028,-1.013368 0.63943,2.52458 2.4529,5.5121953 5.43958,8.9609623 2.2766,2.631167 4.60541,4.87183104 6.9885,6.72124 l -4.69356,6.827731 z m -2.18742,-45.9251453 c -2.31141,0 -4.42723,0.74601 -6.34729,2.23897 -1.921,1.493901 -2.88103,3.23597 -2.88103,5.227714 0,2.133231 0.85344,4.071634 2.56136,5.813515 1.74179,1.778571 3.91086,2.667009 6.50713,2.667009 2.66692,0 4.99582,-0.888438 6.98662,-2.667009 1.99175,-1.741881 2.98762,-3.680284 2.98762,-5.813515 0,-2.026645 -1.04912,-3.786494 -3.14651,-5.280396 -2.09833,-1.458154 -4.32159,-2.186288 -6.6679,-2.186288 z"
       id="path11-8"
       inkscape:connector-curvature="0" /><path
       style="fill:#000000;fill-rule:evenodd;stroke:none"
       d="m -25.745336,-45.694016 c 12.44698,0 18.66906,9.225878 18.66906,27.682618 0,18.49145234 -6.22208,27.7363303 -18.66906,27.7363303 -12.44642,0 -18.66878,-9.24487796 -18.66878,-27.7363303 0,-18.45674 6.22236,-27.682618 18.66878,-27.682618 z m 0,8.159075 c -6.93422,0 -10.40143,6.508349 -10.40143,19.523543 0,13.0141583 3.46721,19.5222253 10.40143,19.5222253 6.89848,0 10.34818,-6.508067 10.34818,-19.5222253 0,-13.015194 -3.4497,-19.523543 -10.34818,-19.523543 z"
       id="path13-8"
       inkscape:connector-curvature="0" /></g></svg>