<?xml version="1.0" encoding="UTF-8" standalone="no"?>
<!-- Created with Inkscape (http://www.inkscape.org/) -->

<svg
   xmlns:dc="http://purl.org/dc/elements/1.1/"
   xmlns:cc="http://creativecommons.org/ns#"
   xmlns:rdf="http://www.w3.org/1999/02/22-rdf-syntax-ns#"
   xmlns:svg="http://www.w3.org/2000/svg"
   xmlns="http://www.w3.org/2000/svg"
   xmlns:sodipodi="http://sodipodi.sourceforge.net/DTD/sodipodi-0.dtd"
   xmlns:inkscape="http://www.inkscape.org/namespaces/inkscape"
   id="svg17624"
   version="1.1"
   inkscape:version="0.48.2 r9819"
   width="213.78906"
   height="213.82812"
   xml:space="preserve"
   sodipodi:docname="AJAX.svg"><metadata
     id="metadata17630"><rdf:RDF><cc:Work
         rdf:about=""><dc:format>image/svg+xml</dc:format><dc:type
           rdf:resource="http://purl.org/dc/dcmitype/StillImage" /><dc:title /></cc:Work></rdf:RDF></metadata><defs
     id="defs17628"><inkscape:perspective
       sodipodi:type="inkscape:persp3d"
       inkscape:vp_x="0 : 0.5 : 1"
       inkscape:vp_y="0 : 1000 : 0"
       inkscape:vp_z="1 : 0.5 : 1"
       inkscape:persp3d-origin="0.5 : 0.33333333 : 1"
       id="perspective17632" /><clipPath
       clipPathUnits="userSpaceOnUse"
       id="clipPath17642"><path
         d="m -2,710 501,0 0,-711 -501,0 0,711 z"
         id="path17644"
         inkscape:connector-curvature="0" /></clipPath><clipPath
       clipPathUnits="userSpaceOnUse"
       id="clipPath17648"><path
         d="m 0,708.06 498,0 0,-708 -498,0 0,708 z"
         id="path17650"
         inkscape:connector-curvature="0" /></clipPath><clipPath
       clipPathUnits="userSpaceOnUse"
       id="clipPath17798"><path
         d="m -2,710 501,0 0,-711 -501,0 0,711 z"
         id="path17800"
         inkscape:connector-curvature="0" /></clipPath><clipPath
       clipPathUnits="userSpaceOnUse"
       id="clipPath17804"><path
         d="m 0,708.06 498,0 0,-708 -498,0 0,708 z"
         id="path17806"
         inkscape:connector-curvature="0" /></clipPath></defs><sodipodi:namedview
     pagecolor="#ffffff"
     bordercolor="#666666"
     borderopacity="1"
     objecttolerance="10"
     gridtolerance="10"
     guidetolerance="10"
     inkscape:pageopacity="0"
     inkscape:pageshadow="2"
     inkscape:window-width="1280"
     inkscape:window-height="1004"
     id="namedview17626"
     showgrid="false"
     inkscape:zoom="2.0022598"
     inkscape:cx="169.62369"
     inkscape:cy="75.347766"
     inkscape:window-x="-8"
     inkscape:window-y="-8"
     inkscape:window-maximized="1"
     inkscape:current-layer="g17634"
     fit-margin-top="0"
     fit-margin-left="0"
     fit-margin-right="0"
     fit-margin-bottom="0"
     showguides="true"
     inkscape:guide-bbox="true" /><g
     id="g17634"
     inkscape:groupmode="layer"
     inkscape:label="GG1999P002"
     transform="matrix(1.25,0,0,-1.25,98.085937,114.80469)"><path
       inkscape:connector-curvature="0"
       style="fill:#ffffff;fill-rule:nonzero;stroke:#000000;stroke-width:0.95999998;stroke-miterlimit:4;stroke-opacity:1;stroke-dasharray:none"
       d="m -77.989589,74.342421 c 0,9.39354 7.61523,17.0078 17.0078,17.0078 l 136.0642,0 c 9.393,0 17.008,-7.61426 17.008,-17.0078 l 0,-136.0632 c 0,-9.393 -7.615,-17.007 -17.008,-17.007 l -136.0642,0 c -9.39257,0 -17.0078,7.614 -17.0078,17.007 l 0,136.0632 z"
       id="path11" /><path
       inkscape:connector-curvature="0"
       style="fill:#c0111e;fill-opacity:1;fill-rule:nonzero;stroke:none"
       d="m -75.154629,74.342441 c 0,7.8281 6.3457,14.1738 14.1739,14.1738 l 136.0631,0 c 7.828,0 14.174,-6.3457 14.174,-14.1738 l 0,-136.0632 c 0,-7.828 -6.346,-14.173 -14.174,-14.173 l -136.0631,0 c -7.8282,0 -14.1739,6.345 -14.1739,14.173 l 0,136.0632 z"
       id="path13" /><path
       inkscape:connector-curvature="0"
       style="fill:#ffffff;fill-rule:nonzero;stroke:none"
       d="m -70.902679,74.342441 c 0,5.4795 4.44241,9.92184 9.92191,9.92184 l 136.06309,0 c 5.479,0 9.922,-4.44234 9.922,-9.92184 l 0,-136.06316 c 0,-5.479 -4.443,-9.921 -9.922,-9.921 l -136.06309,0 c -5.4795,0 -9.92191,4.442 -9.92191,9.921 l 0,136.06316 z"
       id="path15" /><path
       inkscape:connector-curvature="0"
       style="fill:#000000;fill-rule:nonzero;stroke:none"
       d="m -38.870469,41.448841 c 0.7373,-2.1191 2.1553,-3.8974 4.2559,-5.3349 1.9287,-1.3047 3.8115,-1.9571 5.6455,-1.9571 2.7617,0 4.9658,0.8506 6.6113,2.5537 1.6455,1.7022 2.4678,3.9053 2.4678,6.6104 0,1.7783 -0.501,3.3672 -1.5029,4.7666 -0.9082,1.2295 -2.1377,2.2226 -3.6885,2.9795 -0.7002,0.3398 -1.75,0.5761 -3.1494,0.709 -1.5899,0.1699 -2.6016,0.3213 -3.0362,0.4541 -0.5673,0.1699 -1.0595,0.5293 -1.4756,1.0781 -0.416,0.5674 -0.624,1.1631 -0.624,1.7871 0,0.9844 0.3975,1.9014 1.1914,2.7529 0.8135,0.8701 1.75,1.2862 2.8086,1.2481 2.2324,-0.0567 3.6602,-1.0401 4.2852,-2.9512 l 4.1982,1.2773 c -0.8125,2.1377 -1.8623,3.7071 -3.1484,4.71 -1.2676,1.002 -2.875,1.5039 -4.8233,1.5039 -2.4023,0 -4.455,-0.8047 -6.1572,-2.4121 -1.7783,-1.7021 -2.667,-3.8682 -2.667,-6.4971 0,-2.1572 0.7569,-3.8779 2.2696,-5.164 1.3623,-1.1543 2.7334,-1.8067 4.1142,-1.958 2.7041,-0.3028 4.5869,-0.8418 5.6455,-1.6172 0.9844,-0.7373 1.4756,-1.8633 1.4756,-3.376 0,-0.9648 -0.4346,-1.8633 -1.3047,-2.6953 -0.8515,-0.8135 -1.7304,-1.2207 -2.6387,-1.2207 -1.6455,0 -2.9414,0.3027 -3.8876,0.9082 -0.9268,0.6055 -1.7872,1.7021 -2.5821,3.291 l -4.2832,-1.4463 z"
       id="path17" /><path
       inkscape:connector-curvature="0"
       style="fill:#000000;fill-rule:nonzero;stroke:none"
       d="m -14.724969,63.068941 0,-4.1709 6.5254002,0 0,-24.2021 4.2842,0 0,24.2021 6.4971,0 0,4.1709 -17.3067002,0 z"
       id="path19" /><path
       inkscape:connector-curvature="0"
       style="fill:#000000;fill-rule:evenodd;stroke:none"
       d="m 17.618831,34.156841 c 3.6501,0 6.2991,1.5694 7.9441,4.709 1.286,2.46 1.93,5.8076 1.93,10.0449 0,4.294 -0.842,7.7832 -2.525,10.4698 -1.779,2.8369 -4.228,4.2558 -7.3491,4.2558 -6.6582,0 -9.9872998,-4.9092 -9.9872998,-14.7256 0,-5.0127 0.9267,-8.7763 2.7801998,-11.2929 1.7032,-2.3077 4.1055,-3.461 7.2071,-3.461 z m 0,4.4824 c -3.7071,0 -5.5606,3.4239 -5.5606,10.2715 0,3.5752 0.4727,6.1758 1.418,7.8018 0.8896,1.5517 2.2705,2.3271 4.1426,2.3271 3.5185,0 5.2771,-3.3759 5.2771,-10.1289 0,-3.5937 -0.434,-6.2236 -1.304,-7.8877 -0.852,-1.5888 -2.1762,-2.3838 -3.9731,-2.3838 z"
       id="path21" /><path
       inkscape:connector-curvature="0"
       style="fill:#000000;fill-rule:evenodd;stroke:none"
       d="m 38.444931,58.868741 6.554,0 c 0.908,0 1.711,-0.3496 2.411,-1.0498 0.719,-0.6806 1.078,-1.4365 1.078,-2.2695 0,-1.0967 -0.303,-2.0332 -0.907,-2.8086 -0.606,-0.7754 -1.381,-1.1631 -2.327,-1.1631 l -6.809,0 0,7.291 z m -4.398,4.2002 0,-28.373 4.398,0 0,12.3984 5.873,0 c 2.534,0 4.634,0.8233 6.299,2.4688 1.607,1.6074 2.411,3.5937 2.411,5.958 0,2.1181 -0.804,3.9062 -2.411,5.3623 -1.608,1.457 -3.51,2.1846 -5.703,2.1855 l -10.867,0 z"
       id="path23" /><path
       inkscape:connector-curvature="0"
       style="fill:#000000;fill-rule:evenodd;stroke:none"
       d="m -42.499369,-8.4235593 c 2.7588,0 4.8379,1.3226 6.2363,3.9681 1.3038,2.5137 1.9551,6.1035 1.9551,10.7715 0,9.8076003 -2.7119,14.7109003 -8.1347,14.7109003 -5.5557,0 -8.334,-4.9033 -8.334,-14.7109003 0,-9.8262 2.7588,-14.7396 8.2773,-14.7396 z m 0,4.0814 c -1.6064,0 -2.75,1.0303 -3.4297,3.0898 -0.5488,1.68169997 -0.8222,4.2051 -0.8222,7.5684 0,7.1807003 1.417,10.7715003 4.2519,10.7715003 2.8154,0 4.2236,-3.5908 4.2236,-10.7715003 0,-7.10550003 -1.4082,-10.6582 -4.2236,-10.6582 z"
       id="path25" /><path
       inkscape:connector-curvature="0"
       style="fill:#000000;fill-rule:nonzero;stroke:none"
       d="m -28.354869,20.460541 0,-28.3461003 3.9112,0 0,18.6235003 8.4472,-18.6235003 3.2315,0 0,28.3461003 -4.1104,0 0,-16.3838003 -7.5683,16.3838003 -3.9112,0 z"
       id="path27" /><path
       inkscape:connector-curvature="0"
       style="fill:#000000;fill-rule:evenodd;stroke:none"
       d="m 20.143231,5.9195407 c 1.2477,0.4336 2.2587,1.3506 3.0327,2.749 0.7,1.2852 1.049,2.6553003 1.049,4.1104003 0,1.8711 -0.576,3.5898 -1.728,5.1592 -1.229,1.6816 -2.6838,2.5224 -4.3664,2.5224 l -9.4950998,0 0,-28.3461003 3.9110998,0 0,13.1528 3.6856,0 3.7695,-13.1528 4.2233,0 -4.0817,13.8051 z m -2.6358,3.4297 -4.9609,0 0,7.0576003 4.9893,0 c 1.7011,0 2.5507,-1.1621 2.5507,-3.4863 0,-0.9453 -0.208,-1.7481 -0.623,-2.4092 -0.4727,-0.7754003 -1.125,-1.1621003 -1.9561,-1.1621003 z"
       id="path29" /><path
       inkscape:connector-curvature="0"
       style="fill:#000000;fill-rule:nonzero;stroke:none"
       d="m 30.205931,20.460541 0,-28.3461003 14.173,0 0,3.9975 -10.289,0 0,9.3535 6.037,0 0,3.8838 -6.037,0 0,7.1143003 9.836,0 0,3.997 -13.72,0 z"
       id="path31" /><path
       inkscape:connector-curvature="0"
       style="fill:#000000;fill-rule:evenodd;stroke:none"
       d="m 55.716931,20.460541 -6.434,0 0,-28.3461003 6.434,0 c 3.59,0 6.084,1.4077 7.483,4.2241 1.115,2.2295 1.673,5.8007 1.673,10.7148 0,4.1758003 -0.606,7.3408003 -1.815,9.4961003 -1.473,2.6074 -3.921,3.9111 -7.341,3.9111 z m -0.142,-3.9111 c 2.174,0 3.647,-0.9736 4.422,-2.9199 0.529,-1.3418 0.794,-3.5625 0.794,-6.6621003 l 0,-1.6153 c 0,-2.9101 -0.237,-5.00780003 -0.709,-6.29290003 -0.718,-1.96489997 -2.098,-2.94729997 -4.139,-2.94729997 l -2.721,0 0,20.4375003 2.353,0 z"
       id="path33" /><path
       inkscape:connector-curvature="0"
       style="fill:#000000;fill-rule:nonzero;stroke:none"
       d="m -48.083369,-42.156559 c 0,-2.815 0.7744,-5.017 2.3242,-6.605 1.417,-1.455 3.2403,-2.181 5.4707,-2.181 2.1729,0 3.9874,0.718 5.4424,2.153 1.5118,1.512 2.2676,3.496 2.2676,5.953 0,4.762 -2.7217,8.485 -8.1641,11.168 -1.2851,0.624 -1.9267,1.72 -1.9267,3.288 0,0.813 0.3584,1.522 1.0771,2.126 0.6612,0.568 1.3887,0.851 2.1827,0.851 0.6992,0 1.3701,-0.369 2.0127,-1.106 0.6611,-0.718 0.9912,-1.436 0.9912,-2.154 l 3.9121,0 c 0,2.041 -0.6612,3.741 -1.9844,5.102 -1.3037,1.38 -2.9473,2.069 -4.9316,2.069 -1.9092,0 -3.5811,-0.651 -5.0176,-1.956 -1.5117,-1.341 -2.2676,-2.966 -2.2676,-4.875 0,-1.266 0.2734,-2.466 0.8223,-3.6 0.5478,-1.115 1.2939,-2.012 2.2392,-2.693 1.3037,-0.793 2.6074,-1.587 3.9121,-2.381 1.3789,-0.982 2.3145,-2.277 2.8057,-3.883 0.208,-0.68 0.3115,-1.333 0.3115,-1.956 0,-1.21 -0.3398,-2.22 -1.0205,-3.033 -0.6611,-0.812 -1.5488,-1.21 -2.6641,-1.19 -1.3417,0.018 -2.3056,0.424 -2.8916,1.218 -0.5664,0.794 -0.8593,2.023 -0.8779,3.685 l -4.0254,0 z"
       id="path35" /><path
       inkscape:connector-curvature="0"
       style="fill:#000000;fill-rule:nonzero;stroke:none"
       d="m -26.513069,-50.404559 3.9688,0 0,28.346 -3.9688,0 0,-28.346 z"
       id="path37" /><path
       inkscape:connector-curvature="0"
       style="fill:#000000;fill-rule:nonzero;stroke:none"
       d="m -5.1116688,-28.834559 4.1094,0 c 0,2.042 -0.7461,3.771 -2.2393,5.188 -1.4736,1.436 -3.2314,2.154 -5.2724,2.154 -3.2315002,0 -5.4893002,-1.757 -6.7745002,-5.271 -0.8691,-2.344 -1.3037,-5.632 -1.3037,-9.866 0,-3.779 0.4532,-6.841 1.3604,-9.183 1.3418,-3.421 3.581,-5.13 6.7178002,-5.13 1.5693,0 2.9765,0.387 4.2236,1.161 1.1338,0.699 1.9561,1.588 2.4668,2.665 0.5098,1.096 0.7646,2.721 0.7646,4.875 l 0,5.612 -7.2558,0 0,-4.081 3.4013,0 0,-3.203 c 0,-0.794 -0.3974,-1.512 -1.1904,-2.154 -0.7754,-0.643 -1.5781,-0.964 -2.4101,-0.964 -2.6827002,0 -4.0245002,3.231 -4.0245002,9.694 l 0,1.7 c 0,6.728 1.3418,10.092 4.0245002,10.092 1.04,0 1.8623,-0.293 2.4668,-0.879 0.623,-0.567 0.9355,-1.37 0.9355,-2.41 z"
       id="path39" /><path
       inkscape:connector-curvature="0"
       style="fill:#000000;fill-rule:nonzero;stroke:none"
       d="m 4.9791312,-22.058559 0,-28.346 3.9112,0 0,18.623 8.4471998,-18.623 3.2315,0 0,28.346 -4.1104,0 0,-16.384 -7.5682998,16.384 -3.9112,0 z"
       id="path41" /><path
       inkscape:connector-curvature="0"
       style="fill:#000000;fill-rule:evenodd;stroke:none"
       d="m 32.105931,-38.613559 1.984,7.626 2.012,-7.626 -3.996,0 z m -6.775,-11.791 4.11,0 1.9,7.88 5.782,0 2.041,-7.88 4.054,0 -7.116,28.346 -3.996,0 -6.775,-28.346 z"
       id="path43" /><path
       inkscape:connector-curvature="0"
       style="fill:#000000;fill-rule:nonzero;stroke:none"
       d="m 48.035931,-22.058559 0,-28.346 14.173,0 0,3.741 -10.149,0 0,24.605 -4.024,0 z"
       id="path45" /></g></svg>