<?xml version="1.0" encoding="UTF-8" standalone="no"?>
<!-- Created with Inkscape (http://www.inkscape.org/) -->

<svg
   xmlns:dc="http://purl.org/dc/elements/1.1/"
   xmlns:cc="http://creativecommons.org/ns#"
   xmlns:rdf="http://www.w3.org/1999/02/22-rdf-syntax-ns#"
   xmlns:svg="http://www.w3.org/2000/svg"
   xmlns="http://www.w3.org/2000/svg"
   xmlns:sodipodi="http://sodipodi.sourceforge.net/DTD/sodipodi-0.dtd"
   xmlns:inkscape="http://www.inkscape.org/namespaces/inkscape"
   id="svg17624"
   version="1.1"
   inkscape:version="0.48.2 r9819"
   width="320.79062"
   height="214.50156"
   xml:space="preserve"
   sodipodi:docname="AJAX1.svg"><metadata
     id="metadata17630"><rdf:RDF><cc:Work
         rdf:about=""><dc:format>image/svg+xml</dc:format><dc:type
           rdf:resource="http://purl.org/dc/dcmitype/StillImage" /><dc:title /></cc:Work></rdf:RDF></metadata><defs
     id="defs17628"><inkscape:perspective
       sodipodi:type="inkscape:persp3d"
       inkscape:vp_x="0 : 0.5 : 1"
       inkscape:vp_y="0 : 1000 : 0"
       inkscape:vp_z="1 : 0.5 : 1"
       inkscape:persp3d-origin="0.5 : 0.33333333 : 1"
       id="perspective17632" /><clipPath
       clipPathUnits="userSpaceOnUse"
       id="clipPath17642"><path
         d="m -2,710 501,0 0,-711 -501,0 0,711 z"
         id="path17644"
         inkscape:connector-curvature="0" /></clipPath><clipPath
       clipPathUnits="userSpaceOnUse"
       id="clipPath17648"><path
         d="m 0,708.06 498,0 0,-708 -498,0 0,708 z"
         id="path17650"
         inkscape:connector-curvature="0" /></clipPath><clipPath
       clipPathUnits="userSpaceOnUse"
       id="clipPath17798"><path
         d="m -2,710 501,0 0,-711 -501,0 0,711 z"
         id="path17800"
         inkscape:connector-curvature="0" /></clipPath><clipPath
       clipPathUnits="userSpaceOnUse"
       id="clipPath17804"><path
         d="m 0,708.06 498,0 0,-708 -498,0 0,708 z"
         id="path17806"
         inkscape:connector-curvature="0" /></clipPath><clipPath
       id="Clip0"><path
         inkscape:connector-curvature="0"
         d="m 0,0 212.597,0 0,269.292 L 0,269.292 0,0 z"
         transform="translate(0.923828,0.879883)"
         id="path7" /></clipPath></defs><sodipodi:namedview
     pagecolor="#ffffff"
     bordercolor="#666666"
     borderopacity="1"
     objecttolerance="10"
     gridtolerance="10"
     guidetolerance="10"
     inkscape:pageopacity="0"
     inkscape:pageshadow="2"
     inkscape:window-width="1280"
     inkscape:window-height="1004"
     id="namedview17626"
     showgrid="false"
     inkscape:zoom="1.4158115"
     inkscape:cx="114.1471"
     inkscape:cy="55.39056"
     inkscape:window-x="-8"
     inkscape:window-y="-8"
     inkscape:window-maximized="1"
     inkscape:current-layer="g17634"
     fit-margin-top="0.2"
     fit-margin-left="0.2"
     fit-margin-right="0.2"
     fit-margin-bottom="0.2"
     showguides="true"
     inkscape:guide-bbox="true" /><g
     id="g17634"
     inkscape:groupmode="layer"
     inkscape:label="GG1999P002"
     transform="matrix(1.25,0,0,-1.25,156.72344,94.809375)"><path
       inkscape:connector-curvature="0"
       style="fill:#ffffff;fill-rule:nonzero;stroke:#000000;stroke-width:1.20000005;stroke-miterlimit:4;stroke-opacity:1;stroke-dasharray:none"
       d="m -124.61816,58.06602 c 0,9.39364 7.61426,17.0079 17.0078,17.0079 l 221.1022,0 c 9.393,0 17.008,-7.61426 17.008,-17.0079 l 0,-136.0621 c 0,-9.394 -7.615,-17.008 -17.008,-17.008 l -221.1022,0 c -9.39354,0 -17.0078,7.614 -17.0078,17.008 l 0,136.0621 z"
       id="path11" /><path
       inkscape:connector-curvature="0"
       style="fill:#c0111e;fill-opacity:1;fill-rule:nonzero;stroke:none"
       d="m -121.21679,58.066044 c 0,7.51472 6.09175,13.6065 13.6065,13.6065 l 221.1025,0 c 7.515,0 13.606,-6.09178 13.606,-13.6065 l 0,-136.0625 c 0,-7.515 -6.091,-13.606 -13.606,-13.606 l -221.1025,0 c -7.51475,0 -13.6065,6.091 -13.6065,13.606 l 0,136.0625 z"
       id="path13" /><path
       inkscape:connector-curvature="0"
       style="fill:#ffffff;fill-rule:nonzero;stroke:none"
       d="m -115.83105,58.066068 c 0,4.5401 3.68071,8.22074 8.22071,8.22074 l 221.10229,0 c 4.54,0 8.221,-3.68064 8.221,-8.22074 l 0,-136.06226 c 0,-4.54 -3.681,-8.221 -8.221,-8.221 l -221.10229,0 c -4.54,0 -8.22071,3.681 -8.22071,8.221 l 0,136.06226 z"
       id="path15" /><path
       inkscape:connector-curvature="0"
       style="fill:#000000;fill-rule:nonzero;stroke:none"
       d="m -63.38964,46.694072 0,-28.3467 17.291,0 0,4.4219 -12.8975,0 0,7.9931 8.2774,0 0,4.4229 -8.2774,0 0,6.9736 11.8487,0 0,4.5352 -16.2422,0 z"
       id="path17" /><path
       inkscape:connector-curvature="0"
       style="fill:#000000;fill-rule:nonzero;stroke:none"
       d="m -35.66694,32.917672 -6.9444,-14.5703 4.9033,0 4.4229,9.4111 4.9033,-9.4111 4.7341,0 -7.0583,14.5703 6.5763,13.7764 -4.9044,0 -4.251,-8.419 -3.9688,8.419 -5.1025,0 6.6895,-13.7764 z"
       id="path19" /><path
       inkscape:connector-curvature="0"
       style="fill:#000000;fill-rule:nonzero;stroke:none"
       d="m -3.86274,39.748772 4.139,1.7861 c -1.758,3.8164 -4.743,5.7256 -8.958,5.7256 -3.496,0 -6.094,-1.7383 -7.795,-5.2158 -1.323,-2.6827 -1.974,-5.9336 -1.956,-9.751 0.019,-3.8926 0.794,-7.1436 2.324,-9.751 1.871,-3.1562 4.574,-4.7334 8.108,-4.7334 2.059,0 3.855,0.6416 5.386,1.9268 1.436,1.2285 2.465,2.8916 3.089,4.9892 l -4.167,1.0488 c -0.321,-0.8886 -0.954,-1.7011 -1.899,-2.4375 -0.926,-0.7373 -1.805,-1.1054 -2.636,-1.1054 -2.097,0 -3.685,1.1992 -4.762,3.5996 -0.813,1.833 -1.219,3.9209 -1.219,6.2646 0,2.7217 0.34,4.9698 1.02,6.7461 1.001,2.6836 2.674,4.0254 5.018,4.0254 1.039,0 1.889,-0.2549 2.551,-0.7656 0.661,-0.4912 1.247,-1.2754 1.757,-2.3525 z"
       id="path21" /><path
       inkscape:connector-curvature="0"
       style="fill:#000000;fill-rule:nonzero;stroke:none"
       d="m 5.54926,46.694072 0,-28.3467 17.291,0 0,4.4219 -12.898,0 0,7.9931 8.276,0 0,4.4229 -8.276,0 0,6.9736 11.849,0 0,4.5352 -16.242,0 z"
       id="path23" /><path
       inkscape:connector-curvature="0"
       style="fill:#000000;fill-rule:evenodd;stroke:none"
       d="m 32.36426,42.498772 6.547,0 c 0.908,0 1.711,-0.3497 2.41,-1.0498 0.718,-0.6797 1.077,-1.4356 1.077,-2.2676 0,-1.0957 -0.303,-2.0313 -0.907,-2.8057 -0.605,-0.7754 -1.379,-1.1621 -2.324,-1.1621 l -6.803,0 0,7.2852 z m -4.395,4.1953 0,-28.3467 4.395,0 0,12.3877 5.867,0 c 2.532,0 4.63,0.8213 6.293,2.4658 1.607,1.6064 2.409,3.5908 2.409,5.9531 0,2.1162 -0.802,3.9014 -2.409,5.3565 -1.606,1.4551 -3.506,2.1826 -5.697,2.1836 l -10.858,0 z"
       id="path25" /><path
       inkscape:connector-curvature="0"
       style="fill:#000000;fill-rule:nonzero;stroke:none"
       d="m 52.00826,46.694072 0,-4.167 6.519,0 0,-24.1797 4.28,0 0,24.1797 6.492,0 0,4.167 -17.291,0 z"
       id="path27" /><path
       inkscape:connector-curvature="0"
       style="fill:#000000;fill-rule:evenodd;stroke:none"
       d="m -87.08694,-12.320628 1.9834,7.6260001 2.0127,-7.6260001 -3.9961,0 z m -6.7754,-11.7908 4.1104,0 1.8994,7.8797 5.7822,0 2.041,-7.8797 4.0538,0 -7.1153,28.3455001 -3.9961,0 -6.7754,-28.3455001 z"
       id="path29" /><path
       inkscape:connector-curvature="0"
       style="fill:#000000;fill-rule:nonzero;stroke:none"
       d="m -63.47554,-24.650428 c 1.9277,0 3.7138,0.7458 5.3584,2.239 1.6435,1.4932 2.4658,3.1465 2.4658,4.96 l 0,21.6855001 -4.0821,0 0,-21.4297001 c 0,-1.0205 -0.3964,-1.8515 -1.1904,-2.4941 -0.7187,-0.586 -1.5781,-0.8789 -2.5791,-0.8789 -0.9639,0 -1.8144,0.3115 -2.5517,0.9355 -0.793,0.6612 -1.1905,1.4737 -1.1905,2.4375 l 0,21.4297001 -3.997,0 0,-21.6855001 c 0,-1.9082 0.832,-3.5996 2.4951,-5.0733 1.6054,-1.417 3.3633,-2.1257 5.2715,-2.1257 z"
       id="path31" /><path
       inkscape:connector-curvature="0"
       style="fill:#000000;fill-rule:nonzero;stroke:none"
       d="m -50.83204,4.2340721 0,-3.74120003 5.0449,0 0,-24.60430007 4.167,0 0,24.60430007 4.961,0 0,3.74120003 -14.1729,0 z"
       id="path33" /><path
       inkscape:connector-curvature="0"
       style="fill:#000000;fill-rule:nonzero;stroke:none"
       d="m -31.783236,4.2340721 0,-28.3455001 4.0245,0 0,12.8689 7.796,0 0,-12.8689 3.769,0 0,28.3455001 -3.769,0 0,-11.4805 -7.796,0 0,11.4805 -4.0245,0 z"
       id="path35" /><path
       inkscape:connector-curvature="0"
       style="fill:#000000;fill-rule:evenodd;stroke:none"
       d="m -2.02074,-24.650428 c 2.759,0 4.838,1.323 6.237,3.9675 1.303,2.5137 1.956,6.1045 1.956,10.7725001 0,9.80759997 -2.712,14.7119 -8.136,14.7119 -5.556,0 -8.334,-4.90430003 -8.334,-14.7119 0,-9.8272001 2.759,-14.7400001 8.277,-14.7400001 z m 0,4.0818 c -1.606,0 -2.75,1.0302 -3.429,3.0898 -0.549,1.6817 -0.823,4.2041 -0.823,7.5684001 0,7.1806 1.417,10.77149997 4.252,10.77149997 2.816,0 4.224,-3.59089997 4.224,-10.77149997 0,-7.1055001 -1.408,-10.6582001 -4.224,-10.6582001 z"
       id="path37" /><path
       inkscape:connector-curvature="0"
       style="fill:#000000;fill-rule:evenodd;stroke:none"
       d="m 23.63326,-10.306928 c 1.247,0.4336001 2.257,1.3506001 3.032,2.7490001 0.7,1.2852 1.05,2.6553 1.05,4.1104 0,1.8711 -0.577,3.58979997 -1.73,5.1591 -1.228,1.6817 -2.683,2.5225 -4.365,2.5225 l -9.496,0 0,-28.3455001 3.911,0 0,13.1521 3.685,0 3.77,-13.1521 4.225,0 -4.082,13.8045 z m -2.637,3.4297001 -4.961,0 0,7.05759997 4.989,0 c 1.701,0 2.552,-1.1621 2.552,-3.48629997 0,-0.9453 -0.208,-1.7481 -0.624,-2.4092 -0.473,-0.7754 -1.124,-1.1621 -1.956,-1.1621 z"
       id="path39" /><path
       inkscape:connector-curvature="0"
       style="fill:#000000;fill-rule:nonzero;stroke:none"
       d="m 33.69526,-24.111428 3.969,0 0,28.3455001 -3.969,0 0,-28.3455001 z"
       id="path41" /><path
       inkscape:connector-curvature="0"
       style="fill:#000000;fill-rule:nonzero;stroke:none"
       d="m 43.61626,-15.863528 c 0,-2.8155 0.775,-5.0167 2.324,-6.6045 1.417,-1.4551 3.241,-2.1824 5.471,-2.1824 2.174,0 3.988,0.7175 5.443,2.154 1.512,1.5118 2.268,3.4961 2.268,5.9532 0,4.7617 -2.722,8.4843001 -8.164,11.1679001 -1.285,0.6241 -1.928,1.7198 -1.928,3.2881 0,0.8135 0.359,1.52149997 1.077,2.12599997 0.661,0.5674 1.39,0.8506 2.183,0.8506 0.699,0 1.37,-0.3682 2.012,-1.1055 0.663,-0.7178 0.993,-1.43649997 0.993,-2.15429997 l 3.912,0 c 0,2.04099997 -0.662,3.7412 -1.985,5.1026 -1.303,1.3798 -2.948,2.0693 -4.932,2.0693 -1.908,0 -3.581,-0.6524 -5.017,-1.9561 -1.513,-1.3418 -2.268,-2.96680003 -2.268,-4.8759 0,-1.2657 0.274,-2.4659 0.822,-3.5997 0.548,-1.1152 1.295,-2.0126 2.239,-2.6933 1.304,-0.793 2.609,-1.5869 3.912,-2.3809001 1.38,-0.9824 2.316,-2.2773 2.807,-3.8828 0.207,-0.6806 0.311,-1.333 0.311,-1.956 0,-1.21 -0.339,-2.2207 -1.02,-3.0332 -0.661,-0.8125 -1.55,-1.21 -2.665,-1.1905 -1.342,0.0186 -2.305,0.4248 -2.891,1.2188 -0.567,0.7939 -0.86,2.0215 -0.879,3.6846 l -4.025,0 z"
       id="path43" /><path
       inkscape:connector-curvature="0"
       style="fill:#000000;fill-rule:nonzero;stroke:none"
       d="m 65.18726,4.2340721 0,-28.3455001 14.174,0 0,3.9959 -10.29,0 0,9.3545 6.037,0 0,3.8838001 -6.037,0 0,7.11519997 9.836,0 0,3.99610003 -13.72,0 z"
       id="path45" /><path
       inkscape:connector-curvature="0"
       style="fill:#000000;fill-rule:evenodd;stroke:none"
       d="m 90.50026,4.2340721 -6.434,0 0,-28.3455001 6.434,0 c 3.591,0 6.086,1.407 7.484,4.2225 1.114,2.2304 1.672,5.8017 1.672,10.7158001 0,4.1758 -0.604,7.3418 -1.814,9.49609997 -1.474,2.60740003 -3.921,3.91110003 -7.342,3.91110003 z m -0.142,-3.91110003 c 2.174,0 3.648,-0.9737 4.423,-2.91989997 0.528,-1.3418 0.793,-3.5625 0.793,-6.6622 l 0,-1.6152001 c 0,-2.9101 -0.235,-5.0078 -0.708,-6.293 -0.719,-1.9658 -2.098,-2.9482 -4.139,-2.9482 l -2.721,0 0,20.43850007 2.352,0 z"
       id="path47" /><path
       inkscape:connector-curvature="0"
       style="fill:#000000;fill-rule:nonzero;stroke:none"
       d="m -74.48634,-66.691424 3.543,0 8.6172,28.346 -4.4219,0 -5.9814,-19.304 -6.1797,19.304 -4.6768,0 9.0996,-28.346 z"
       id="path49" /><path
       inkscape:connector-curvature="0"
       style="fill:#000000;fill-rule:nonzero;stroke:none"
       d="m -57.28124,-38.345424 0,-28.346 17.291,0 0,4.422 -12.8965,0 0,7.993 8.2764,0 0,4.422992 -8.2764,0 0,6.972008 11.8487,0 0,4.536 -16.2432,0 z"
       id="path51" /><path
       inkscape:connector-curvature="0"
       style="fill:#000000;fill-rule:nonzero;stroke:none"
       d="m -34.80274,-38.345424 0,-28.346 4.3369,0 0,12.414992 10.1771,0 0,-12.414992 4.45,0 0,28.346 -4.45,0 0,-11.225 -10.1771,0 0,11.225 -4.3369,0 z"
       id="path53" /><path
       inkscape:connector-curvature="0"
       style="fill:#000000;fill-rule:nonzero;stroke:none"
       d="m -9.43274,-66.691424 4.45,0 0,28.346 -4.45,0 0,-28.346 z"
       id="path55" /><path
       inkscape:connector-curvature="0"
       style="fill:#000000;fill-rule:nonzero;stroke:none"
       d="m 16.27626,-45.290432 4.139,1.785 c -1.758,3.818 -4.743,5.727 -8.957,5.727 -3.496,0 -6.095,-1.738 -7.795,-5.216 -1.323,-2.684 -1.976,-5.934 -1.956,-9.751 0.018,-3.893992 0.793,-7.143992 2.324,-9.752 1.87,-3.155 4.573,-4.733 8.106,-4.733 2.061,0 3.856,0.642008 5.387,1.927 1.436,1.229 2.466,2.891008 3.089,4.989 l -4.167,1.049 c -0.32,-0.888 -0.954,-1.701 -1.899,-2.438 -0.925,-0.736 -1.804,-1.104992 -2.636,-1.104992 -2.098,0 -3.685,1.2 -4.763,3.6 -0.811,1.832992 -1.219,3.921 -1.219,6.263992 0,2.721 0.341,4.97 1.022,6.747 1.001,2.683 2.674,4.025 5.017,4.025 1.04,0 1.889,-0.256 2.551,-0.765 0.661,-0.492 1.247,-1.276 1.757,-2.353 z"
       id="path57" /><path
       inkscape:connector-curvature="0"
       style="fill:#000000;fill-rule:nonzero;stroke:none"
       d="m 25.68726,-38.345424 0,-28.346 17.291,0 0,4.166 -12.954,0 0,24.18 -4.337,0 z"
       id="path59" /><path
       inkscape:connector-curvature="0"
       style="fill:#000000;fill-rule:nonzero;stroke:none"
       d="m 48.08126,-38.345424 0,-28.346 17.291,0 0,4.422 -12.898,0 0,7.993 8.278,0 0,4.422992 -8.278,0 0,6.972008 11.849,0 0,4.536 -16.242,0 z"
       id="path61" /><path
       inkscape:connector-curvature="0"
       style="fill:#000000;fill-rule:nonzero;stroke:none"
       d="m 70.50326,-59.945432 c 0.736,-2.115992 2.154,-3.892992 4.252,-5.329 1.926,-1.304 3.807,-1.956 5.64,-1.956 2.759,0 4.961,0.85 6.605,2.551 1.644,1.701 2.467,3.903 2.467,6.604 0,1.776 -0.501,3.364 -1.503,4.763 -0.907,1.228 -2.135,2.22 -3.685,2.976 -0.7,0.34 -1.748,0.576 -3.146,0.709 -1.588,0.17 -2.599,0.321 -3.034,0.453 -0.567,0.17 -1.058,0.53 -1.474,1.077 -0.415,0.568 -0.623,1.163 -0.623,1.787 0,0.982 0.396,1.899 1.19,2.749 0.813,0.87 1.748,1.285 2.807,1.247 2.229,-0.05696 3.656,-1.039 4.28,-2.948 l 4.195,1.276 c -0.812,2.136 -1.861,3.704 -3.146,4.705 -1.267,1.002 -2.873,1.503 -4.819,1.503 -2.4,0 -4.451,-0.804 -6.152,-2.409 -1.776,-1.702 -2.664,-3.866 -2.664,-6.493 0,-2.154 0.756,-3.874 2.268,-5.159 1.36,-1.152 2.73,-1.803 4.11,-1.955 2.702,-0.303 4.583,-0.842 5.641,-1.615992 0.982,-0.737008 1.474,-1.861008 1.474,-3.373 0,-0.964008 -0.435,-1.861008 -1.304,-2.693008 -0.851,-0.812992 -1.729,-1.219 -2.636,-1.219 -1.644,0 -2.939,0.303 -3.884,0.907008 -0.926,0.605 -1.786,1.701 -2.579,3.287992 l -4.28,-1.445 z"
       id="path63" /></g></svg>