<?xml version="1.0" encoding="UTF-8" standalone="no"?>
<!-- Created with Inkscape (http://www.inkscape.org/) -->

<svg
   xmlns:dc="http://purl.org/dc/elements/1.1/"
   xmlns:cc="http://creativecommons.org/ns#"
   xmlns:rdf="http://www.w3.org/1999/02/22-rdf-syntax-ns#"
   xmlns:svg="http://www.w3.org/2000/svg"
   xmlns="http://www.w3.org/2000/svg"
   xmlns:sodipodi="http://sodipodi.sourceforge.net/DTD/sodipodi-0.dtd"
   xmlns:inkscape="http://www.inkscape.org/namespaces/inkscape"
   id="svg17624"
   version="1.1"
   inkscape:version="0.48.2 r9819"
   width="213.78906"
   height="213.78906"
   xml:space="preserve"
   sodipodi:docname="AA.svg"><metadata
     id="metadata17630"><rdf:RDF><cc:Work
         rdf:about=""><dc:format>image/svg+xml</dc:format><dc:type
           rdf:resource="http://purl.org/dc/dcmitype/StillImage" /><dc:title></dc:title></cc:Work></rdf:RDF></metadata><defs
     id="defs17628"><inkscape:perspective
       sodipodi:type="inkscape:persp3d"
       inkscape:vp_x="0 : 0.5 : 1"
       inkscape:vp_y="0 : 1000 : 0"
       inkscape:vp_z="1 : 0.5 : 1"
       inkscape:persp3d-origin="0.5 : 0.33333333 : 1"
       id="perspective17632" /><clipPath
       clipPathUnits="userSpaceOnUse"
       id="clipPath17642"><path
         d="m -2,710 501,0 0,-711 -501,0 0,711 z"
         id="path17644"
         inkscape:connector-curvature="0" /></clipPath><clipPath
       clipPathUnits="userSpaceOnUse"
       id="clipPath17648"><path
         d="m 0,708.06 498,0 0,-708 -498,0 0,708 z"
         id="path17650"
         inkscape:connector-curvature="0" /></clipPath><clipPath
       clipPathUnits="userSpaceOnUse"
       id="clipPath17798"><path
         d="m -2,710 501,0 0,-711 -501,0 0,711 z"
         id="path17800"
         inkscape:connector-curvature="0" /></clipPath><clipPath
       clipPathUnits="userSpaceOnUse"
       id="clipPath17804"><path
         d="m 0,708.06 498,0 0,-708 -498,0 0,708 z"
         id="path17806"
         inkscape:connector-curvature="0" /></clipPath><clipPath
       id="Clip0"><path
         inkscape:connector-curvature="0"
         d="m 0,0 212.597,0 0,269.292 L 0,269.292 0,0 z"
         transform="translate(0.923828,0.879883)"
         id="path7" /></clipPath><clipPath
       id="Clip0-8"><path
         inkscape:connector-curvature="0"
         d="m 0,0 170.079,0 0,113.386 L 0,113.386 0,0 z"
         transform="translate(0.0986328,0.822266)"
         id="path7-8" /></clipPath><clipPath
       id="Clip0-1"><path
         inkscape:connector-curvature="0"
         d="m 0,0 287.009,0 0,159.449 L 0,159.449 0,0 z"
         transform="translate(0.396484,0.267578)"
         id="path7-7" /></clipPath><clipPath
       id="Clip0-9"><path
         inkscape:connector-curvature="0"
         d="m 0,0 170.079,0 0,170.079 L 0,170.079 0,0 z"
         transform="translate(0.460938,0.775391)"
         id="path7-4" /></clipPath><clipPath
       id="Clip0-4"><path
         inkscape:connector-curvature="0"
         d="m 0,0 340.157,0 0,226.771 L 0,226.771 0,0 z"
         transform="translate(0.921875,0.25293)"
         id="path7-5" /></clipPath><clipPath
       id="Clip0-5"><path
         inkscape:connector-curvature="0"
         d="m 0,0 255.119,0 0,170.079 L 0,170.079 0,0 z"
         transform="translate(0.147461,0.0595703)"
         id="path7-1" /></clipPath><clipPath
       id="Clip0-0"><path
         inkscape:connector-curvature="0"
         d="m 0,0 170.079,0 0,113.386 L 0,113.386 0,0 z"
         transform="translate(0.0673828,0.207031)"
         id="path7-9" /></clipPath></defs><sodipodi:namedview
     pagecolor="#ffffff"
     bordercolor="#666666"
     borderopacity="1"
     objecttolerance="10"
     gridtolerance="10"
     guidetolerance="10"
     inkscape:pageopacity="0"
     inkscape:pageshadow="2"
     inkscape:window-width="1280"
     inkscape:window-height="1004"
     id="namedview17626"
     showgrid="false"
     inkscape:zoom="1.4142136"
     inkscape:cx="102.75067"
     inkscape:cy="70.616293"
     inkscape:window-x="-8"
     inkscape:window-y="-8"
     inkscape:window-maximized="1"
     inkscape:current-layer="g17634"
     fit-margin-top="0"
     fit-margin-left="0"
     fit-margin-right="0"
     fit-margin-bottom="0"
     showguides="true"
     inkscape:guide-bbox="true" /><g
     id="g17634"
     inkscape:groupmode="layer"
     inkscape:label="GG1999P002"
     transform="matrix(1.25,0,0,-1.25,1866.0156,-1512.6563)"><path
       inkscape:connector-curvature="0"
       style="fill:#ffffff;fill-rule:nonzero;stroke:#000000;stroke-width:0.95999998;stroke-miterlimit:4;stroke-opacity:1;stroke-dasharray:none"
       d="m -1492.3476,-1221.9451 c 0,6.2618 5.0762,11.3379 11.3389,11.3379 l 147.4011,0 c 6.262,0 11.339,-5.0761 11.339,-11.3379 l 0,-147.4011 c 0,-6.263 -5.077,-11.339 -11.339,-11.339 l -147.4011,0 c -6.2627,0 -11.3389,5.076 -11.3389,11.339 l 0,147.4011 z"
       id="path11" /><path
       inkscape:connector-curvature="0"
       style="fill:#c0111e;fill-opacity:1;fill-rule:nonzero;stroke:none"
       d="m -1489.5126,-1221.945 c 0,4.6962 3.8066,8.5038 8.5039,8.5038 l 147.4011,0 c 4.697,0 8.504,-3.8076 8.504,-8.5038 l 0,-147.4012 c 0,-4.698 -3.807,-8.504 -8.504,-8.504 l -147.4011,0 c -4.6973,0 -8.5039,3.806 -8.5039,8.504 l 0,147.4012 z"
       id="path13" /><path
       inkscape:connector-curvature="0"
       style="fill:#ffffff;fill-rule:nonzero;stroke:none"
       d="m -1484.9774,-1221.9451 c 0,2.1914 1.7763,3.9687 3.9687,3.9687 l 147.4013,0 c 2.192,0 3.969,-1.7773 3.969,-3.9687 l 0,-147.4013 c 0,-2.193 -1.777,-3.969 -3.969,-3.969 l -147.4013,0 c -2.1924,0 -3.9687,1.776 -3.9687,3.969 l 0,147.4013 z"
       id="path15" /><path
       inkscape:connector-curvature="0"
       style="fill:#000000;fill-rule:evenodd;stroke:none"
       d="m -1411.4159,-1249.0389 9.166,0 c 1.2705,0 2.3945,-0.4892 3.374,-1.4677 1.0049,-0.9532 1.5078,-2.0108 1.5078,-3.1749 0,-1.5351 -0.4238,-2.8437 -1.2705,-3.9287 -0.8467,-1.0849 -1.9306,-1.6269 -3.2539,-1.6269 l -9.5234,0 0,10.1982 z m -6.1514,5.874 0,-39.6845 6.1514,0 0,17.3418 8.2138,0 c 3.545,0 6.4825,1.1504 8.8106,3.4521 2.2479,2.249 3.3729,5.0274 3.3729,8.3341 0,2.9628 -1.125,5.4638 -3.3729,7.5009 -2.249,2.0361 -4.9082,3.0547 -7.9766,3.0556 l -15.1992,0 z"
       id="path17" /><path
       inkscape:connector-curvature="0"
       style="fill:#c0111e;fill-opacity:1;fill-rule:nonzero;stroke:none"
       d="m -1432.8739,-1263.0047 c 0,-14.0898 11.4218,-25.5117 25.5117,-25.5117 6.0234,0 11.5596,2.0879 15.9236,5.5791 l -35.8572,35.8564 c -3.4912,-4.3642 -5.5781,-9.9004 -5.5781,-15.9238 z m 9.5869,19.9326 35.8574,-35.8564 c 3.49,4.3642 5.578,9.9004 5.578,15.9238 0,14.0898 -11.422,25.5117 -25.5106,25.5117 -6.0244,0 -11.5606,-2.0879 -15.9248,-5.5791 z m -18.0908,-19.9326 c 0,18.7861 15.2285,34.0156 34.0156,34.0156 18.7866,0 34.0146,-15.2295 34.0146,-34.0156 0,-18.7861 -15.228,-34.0156 -34.0146,-34.0156 -18.7871,0 -34.0156,15.2295 -34.0156,34.0156 z"
       id="path19-7" /><path
       inkscape:connector-curvature="0"
       style="fill:#c0111e;fill-opacity:1;fill-rule:nonzero;stroke:none"
       d="m -1464.0019,-1345.2951 91.4953,0 0,8.504 21.8897,-12.756 -21.8897,-12.755 0,8.503 -91.4953,0 0,8.504 z"
       id="path21" /><path
       inkscape:connector-curvature="0"
       style="fill:#c0111e;fill-opacity:1;fill-rule:nonzero;stroke:none"
       d="m -1457.6249,-1309.4851 0,3.4922 -13.4902,0 0,-3.4922 5.1416,0 0,-18.3339 3.1806,0 0,18.3339 5.168,0 z"
       id="path23" /><path
       inkscape:connector-curvature="0"
       style="fill:#c0111e;fill-opacity:1;fill-rule:evenodd;stroke:none"
       d="m -1444.1874,-1325.6681 c -1.2725,0.624 -1.4053,0.967 -1.4053,3.087 l 0,5.706 c 0,1.84 -0.1846,2.557 -0.874,3.43 -0.7949,0.998 -2.2793,1.56 -4.1084,1.56 -1.8281,0 -3.7109,-0.531 -5.5127,-1.59 l 1.166,-2.651 c 1.8555,0.935 2.7832,1.216 4.0557,1.216 1.6963,0 2.4111,-0.749 2.4385,-2.495 l 0,-0.499 c -2.2266,-0.249 -2.9952,-0.374 -3.8702,-0.561 -2.8359,-0.655 -4.1875,-2.088 -4.1875,-4.584 0,-2.93 2.1739,-5.175 5.0362,-5.175 1.5097,0 2.7031,0.654 3.5771,1.932 0.2656,-1.059 1.0342,-1.715 2.2793,-1.932 l 1.4053,2.556 z m -4.2402,2.776 c 0,-0.905 -0.1329,-1.248 -0.504,-1.654 -0.5039,-0.529 -1.3779,-0.873 -2.0673,-0.873 -1.3516,0 -2.4649,1.03 -2.4649,2.308 0,1.061 0.583,1.684 1.8819,2.027 0.875,0.249 1.5634,0.343 3.1543,0.531 l 0,-2.339 z"
       id="path25" /><path
       inkscape:connector-curvature="0"
       style="fill:#c0111e;fill-opacity:1;fill-rule:nonzero;stroke:none"
       d="m -1429.0546,-1327.8191 -4.6904,8.169 4.3203,7.422 -3.4463,0 -2.6231,-4.647 -2.4121,4.647 -3.4453,0 4.1338,-7.422 -4.9023,-8.169 3.5508,0 2.9951,5.394 2.9687,-5.394 3.5508,0 z"
       id="path27" /><path
       inkscape:connector-curvature="0"
       style="fill:#c0111e;fill-opacity:1;fill-rule:evenodd;stroke:none"
       d="m -1423.8066,-1308.2068 c 0,1.0918 -0.8212,2.0898 -1.749,2.0898 -1.0342,0 -1.8554,-0.9668 -1.8554,-2.0898 0,-1.1846 0.8212,-2.1193 1.8291,-2.1193 0.9541,0 1.7753,0.9347 1.7753,2.1193 z m -0.371,-19.6123 0,15.562 -2.8624,0 0,-15.562 2.8624,0 z"
       id="path29" /><path
       inkscape:connector-curvature="0"
       style="fill:#c0111e;fill-opacity:1;fill-rule:nonzero;stroke:none"
       d="m -1398.6816,-1321.459 c 0,1.591 -0.4501,2.994 -1.3251,4.117 -0.9268,1.154 -2.1465,1.715 -4.3467,2.151 -2.2266,0.437 -2.6241,0.53 -3.4717,0.967 -1.0606,0.467 -1.6436,1.309 -1.6436,2.339 0,1.777 1.5118,3.024 3.5782,3.024 1.6435,0 2.8359,-0.6543 4.2148,-2.37 l 2.4639,2.2137 c -1.7217,2.3701 -3.9483,3.4922 -6.917,3.4922 -3.9229,0 -6.5733,-2.5879 -6.5733,-6.4539 0,-1.934 0.6631,-3.586 1.8555,-4.677 0.9277,-0.78 1.9609,-1.217 4.2666,-1.685 1.8818,-0.342 2.5186,-0.529 3.1807,-0.904 0.9541,-0.529 1.4843,-1.433 1.4843,-2.588 0,-1.807 -1.5371,-3.148 -3.6572,-3.148 -1.9345,0 -3.4453,0.934 -5.1943,3.117 l -2.4922,-2.151 c 2.041,-2.837 4.6914,-4.272 7.8457,-4.272 4.0283,0 6.7314,2.713 6.7314,6.828 z"
       id="path31" /><path
       inkscape:connector-curvature="0"
       style="fill:#c0111e;fill-opacity:1;fill-rule:nonzero;stroke:none"
       d="m -1387.1786,-1327.5701 -0.345,2.9321 c -0.609,-0.125 -1.113,-0.1881 -1.59,-0.1881 -1.378,0 -1.696,0.437 -1.696,2.37 l 0,7.359 3.445,0 0,2.869 -3.445,0 0,5.9861 -2.8095,-1.1846 0,-4.8015 -2.4384,0 0,-2.869 2.4384,0 0,-8.482 c 0,-3.148 1.0065,-4.428 3.6045,-4.428 0.901,0 1.935,0.1571 2.836,0.437 z"
       id="path33" /><path
       inkscape:connector-curvature="0"
       style="fill:#c0111e;fill-opacity:1;fill-rule:evenodd;stroke:none"
       d="m -1373.0256,-1325.6681 c -1.272,0.624 -1.405,0.967 -1.405,3.087 l 0,5.706 c 0,1.84 -0.186,2.557 -0.874,3.43 -0.795,0.998 -2.279,1.56 -4.108,1.56 -1.829,0 -3.711,-0.531 -5.513,-1.59 l 1.166,-2.651 c 1.855,0.935 2.783,1.216 4.055,1.216 1.696,0 2.412,-0.749 2.438,-2.495 l 0,-0.499 c -2.225,-0.249 -2.995,-0.374 -3.869,-0.561 -2.836,-0.655 -4.188,-2.088 -4.188,-4.584 0,-2.93 2.173,-5.175 5.036,-5.175 1.51,0 2.704,0.654 3.578,1.932 0.265,-1.059 1.034,-1.715 2.279,-1.932 l 1.405,2.556 z m -4.241,2.776 c 0,-0.905 -0.133,-1.248 -0.503,-1.654 -0.504,-0.529 -1.379,-0.873 -2.067,-0.873 -1.352,0 -2.465,1.03 -2.465,2.308 0,1.061 0.583,1.684 1.881,2.027 0.875,0.249 1.564,0.343 3.154,0.531 l 0,-2.339 z"
       id="path35" /><path
       inkscape:connector-curvature="0"
       style="fill:#c0111e;fill-opacity:1;fill-rule:evenodd;stroke:none"
       d="m -1358.9256,-1327.8191 0,9.541 c 0,2.339 -0.186,3.431 -0.849,4.459 -0.795,1.217 -2.12,1.934 -3.71,1.934 -1.299,0 -2.121,-0.343 -3.366,-1.528 l 0,1.185 -2.809,0 0,-15.591 2.809,0 0,8.824 c 0,1.341 0.186,2.152 0.663,2.775 0.477,0.624 1.352,1.029 2.094,1.029 0.768,0 1.537,-0.405 1.881,-1.029 0.318,-0.561 0.425,-1.247 0.425,-2.744 l 0,-8.855 2.862,0 z"
       id="path37" /><path
       inkscape:connector-curvature="0"
       style="fill:#c0111e;fill-opacity:1;fill-rule:evenodd;stroke:none"
       d="m -1343.5006,-1327.8191 0,21.5771 -2.81,0 0,-7.2031 c -1.087,1.061 -2.094,1.528 -3.445,1.528 -3.419,0 -5.805,-3.304 -5.805,-8.076 0,-4.77 2.44,-8.2 5.884,-8.2 1.326,0 2.465,0.53 3.366,1.59 l 0,-1.216 2.81,0 z m -2.836,7.546 c 0,-1.31 -0.079,-2.12 -0.265,-2.6819 -0.398,-1.1851 -1.538,-2.0581 -2.783,-2.0581 -1.961,0 -3.233,1.9331 -3.233,4.926 0,3.056 1.272,4.99 3.313,4.99 1.245,0 2.438,-0.905 2.756,-2.12 0.159,-0.593 0.212,-1.404 0.212,-3.056 z"
       id="path39" /></g></svg>