<?xml version="1.0" encoding="UTF-8" standalone="no"?>
<!-- Created with Sodipodi ("http://www.sodipodi.com/") -->

<svg
   xmlns:dc="http://purl.org/dc/elements/1.1/"
   xmlns:cc="http://creativecommons.org/ns#"
   xmlns:rdf="http://www.w3.org/1999/02/22-rdf-syntax-ns#"
   xmlns:svg="http://www.w3.org/2000/svg"
   xmlns="http://www.w3.org/2000/svg"
   xmlns:xlink="http://www.w3.org/1999/xlink"
   xmlns:sodipodi="http://sodipodi.sourceforge.net/DTD/sodipodi-0.dtd"
   xmlns:inkscape="http://www.inkscape.org/namespaces/inkscape"
   height="426.59625"
   id="svg1"
   sodipodi:docname="44.svg"
   sodipodi:version="0.32"
   width="426.5975"
   inkscape:version="0.48.4 r9939"
   version="1.0">
  <defs
     id="defs3">
    <linearGradient
       id="linearGradient1108">
      <stop
         id="stop1109"
         offset="0"
         style="stop-color:#000;stop-opacity:1;" />
      <stop
         id="stop1110"
         offset="1"
         style="stop-color:#fff;stop-opacity:1;" />
    </linearGradient>
    <linearGradient
       id="linearGradient1111"
       xlink:href="#linearGradient1108" />
    <linearGradient
       id="linearGradient1112"
       xlink:href="#linearGradient1108" />
    <linearGradient
       id="linearGradient1113"
       xlink:href="#linearGradient1108" />
    <linearGradient
       id="linearGradient1114"
       xlink:href="#linearGradient1108" />
    <linearGradient
       id="linearGradient1115"
       xlink:href="#linearGradient1108" />
    <linearGradient
       id="linearGradient1116"
       xlink:href="#linearGradient1108" />
    <linearGradient
       id="linearGradient1117"
       xlink:href="#linearGradient1108" />
    <linearGradient
       id="linearGradient1118"
       xlink:href="#linearGradient1108" />
    <linearGradient
       id="linearGradient1119"
       xlink:href="#linearGradient1108" />
    <linearGradient
       id="linearGradient1120"
       xlink:href="#linearGradient1108" />
    <linearGradient
       id="linearGradient1121"
       xlink:href="#linearGradient1108" />
    <linearGradient
       id="linearGradient1122"
       xlink:href="#linearGradient1108" />
    <linearGradient
       id="linearGradient1123"
       xlink:href="#linearGradient1108" />
    <linearGradient
       id="linearGradient1124"
       xlink:href="#linearGradient1108" />
    <linearGradient
       id="linearGradient1125"
       xlink:href="#linearGradient1108" />
    <linearGradient
       id="linearGradient1126"
       xlink:href="#linearGradient1108" />
    <linearGradient
       id="linearGradient1127"
       xlink:href="#linearGradient1108" />
    <linearGradient
       id="linearGradient1128"
       xlink:href="#linearGradient1108" />
    <linearGradient
       id="linearGradient1129"
       xlink:href="#linearGradient1108" />
    <linearGradient
       id="linearGradient1130"
       xlink:href="#linearGradient1108" />
    <linearGradient
       id="linearGradient1131"
       xlink:href="#linearGradient1108" />
    <linearGradient
       id="linearGradient1132"
       xlink:href="#linearGradient1108" />
    <linearGradient
       id="linearGradient1133"
       xlink:href="#linearGradient1108" />
    <linearGradient
       id="linearGradient1134"
       xlink:href="#linearGradient1108" />
    <linearGradient
       id="linearGradient1135"
       xlink:href="#linearGradient1108" />
    <linearGradient
       id="linearGradient1136"
       xlink:href="#linearGradient1108" />
    <linearGradient
       id="linearGradient1137"
       xlink:href="#linearGradient1108" />
    <linearGradient
       id="linearGradient1138"
       xlink:href="#linearGradient1108" />
    <linearGradient
       id="linearGradient1139"
       xlink:href="#linearGradient1108" />
    <linearGradient
       id="linearGradient1140"
       xlink:href="#linearGradient1108" />
    <linearGradient
       id="linearGradient1141"
       xlink:href="#linearGradient1108" />
    <linearGradient
       id="linearGradient1142"
       xlink:href="#linearGradient1108" />
    <linearGradient
       id="linearGradient1143"
       xlink:href="#linearGradient1108" />
    <linearGradient
       id="linearGradient1144"
       xlink:href="#linearGradient1108" />
    <linearGradient
       id="linearGradient1145"
       xlink:href="#linearGradient1108" />
    <linearGradient
       id="linearGradient1146"
       xlink:href="#linearGradient1108" />
    <linearGradient
       id="linearGradient1147"
       xlink:href="#linearGradient1108" />
    <linearGradient
       id="linearGradient1148"
       xlink:href="#linearGradient1108" />
    <linearGradient
       id="linearGradient1149"
       xlink:href="#linearGradient1108" />
    <linearGradient
       id="linearGradient1150"
       xlink:href="#linearGradient1108" />
    <linearGradient
       id="linearGradient1151"
       xlink:href="#linearGradient1108" />
    <linearGradient
       id="linearGradient1152"
       xlink:href="#linearGradient1108" />
    <linearGradient
       id="linearGradient1153"
       xlink:href="#linearGradient1108" />
    <linearGradient
       id="linearGradient1154"
       xlink:href="#linearGradient1108" />
    <linearGradient
       id="linearGradient1155"
       xlink:href="#linearGradient1108" />
    <linearGradient
       id="linearGradient1156"
       xlink:href="#linearGradient1108" />
    <linearGradient
       id="linearGradient1157"
       xlink:href="#linearGradient1108" />
    <linearGradient
       id="linearGradient1158"
       xlink:href="#linearGradient1108" />
    <linearGradient
       id="linearGradient1159"
       xlink:href="#linearGradient1108" />
    <linearGradient
       id="linearGradient1160"
       xlink:href="#linearGradient1108" />
    <linearGradient
       id="linearGradient1161"
       xlink:href="#linearGradient1108" />
    <linearGradient
       id="linearGradient1162"
       xlink:href="#linearGradient1108" />
    <linearGradient
       id="linearGradient1163"
       xlink:href="#linearGradient1108" />
    <linearGradient
       id="linearGradient1164"
       xlink:href="#linearGradient1108" />
    <linearGradient
       id="linearGradient1165"
       xlink:href="#linearGradient1108" />
    <linearGradient
       id="linearGradient1166"
       xlink:href="#linearGradient1108" />
    <linearGradient
       id="linearGradient1167"
       xlink:href="#linearGradient1108" />
    <linearGradient
       id="linearGradient1168"
       xlink:href="#linearGradient1108" />
    <linearGradient
       id="linearGradient1169"
       xlink:href="#linearGradient1108" />
    <linearGradient
       id="linearGradient1170"
       xlink:href="#linearGradient1108" />
    <linearGradient
       id="linearGradient1171"
       xlink:href="#linearGradient1108" />
    <linearGradient
       id="linearGradient1172"
       xlink:href="#linearGradient1108" />
  </defs>
  <sodipodi:namedview
     id="base"
     showgrid="false"
     snaptogrid="true"
     inkscape:zoom="0.94791593"
     inkscape:cx="212.00118"
     inkscape:cy="149.29647"
     inkscape:window-width="1280"
     inkscape:window-height="1001"
     inkscape:window-x="-8"
     inkscape:window-y="-8"
     inkscape:current-layer="svg1"
     showguides="true"
     inkscape:guide-bbox="true"
     fit-margin-top="0.7"
     fit-margin-left="0.7"
     fit-margin-right="0.7"
     fit-margin-bottom="0.7"
     inkscape:window-maximized="1" />
  <metadata
     id="metadata9086">
    <rdf:RDF>
      <cc:Work
         rdf:about="">
        <dc:title></dc:title>
        <dc:description />
        <dc:subject>
          <rdf:Bag>
            <rdf:li>oceania</rdf:li>
            <rdf:li>flags</rdf:li>
            <rdf:li>sign</rdf:li>
            <rdf:li>signs_and_symbols</rdf:li>
            <rdf:li />
            <rdf:li>australia</rdf:li>
          </rdf:Bag>
        </dc:subject>
        <dc:publisher>
          <cc:Agent
             rdf:about="http://www.openclipart.org">
            <dc:title>Caleb Moore</dc:title>
          </cc:Agent>
        </dc:publisher>
        <dc:creator>
          <cc:Agent
             rdf:about="">
            <dc:title>Caleb Moore</dc:title>
          </cc:Agent>
        </dc:creator>
        <dc:rights>
          <cc:Agent
             rdf:about="">
            <dc:title>Caleb Moore</dc:title>
          </cc:Agent>
        </dc:rights>
        <dc:date />
        <dc:format>image/svg+xml</dc:format>
        <dc:type
           rdf:resource="http://purl.org/dc/dcmitype/StillImage" />
        <cc:license
           rdf:resource="http://web.resource.org/cc/PublicDomain">
          <dc:date />
        </cc:license>
        <dc:language>en</dc:language>
      </cc:Work>
      <cc:License
         rdf:about="http://web.resource.org/cc/PublicDomain">
        <cc:permits
           rdf:resource="http://web.resource.org/cc/Reproduction" />
        <cc:permits
           rdf:resource="http://web.resource.org/cc/Distribution" />
        <cc:permits
           rdf:resource="http://web.resource.org/cc/DerivativeWorks" />
      </cc:License>
    </rdf:RDF>
  </metadata>
  <path
     inkscape:connector-curvature="0"
     style="fill:#ffffff;fill-rule:nonzero;stroke:#000000;stroke-opacity:1"
     d="M 0.7,21.959749 C 0.7,10.21782 10.21904,0.7 21.95975,0.7 l 382.67775,0 c 11.74125,0 21.26,9.51782 21.26,21.259749 l 0,382.676491 c 0,11.74126 -9.51875,21.26001 -21.26,21.26001 l -382.67775,0 C 10.21904,425.89625 0.7,416.3775 0.7,404.63624 l 0,-382.676491 z"
     id="path11" />
  <path
     inkscape:connector-curvature="0"
     style="fill:#000000;fill-rule:nonzero;stroke:none"
     d="m 4.24371,21.959729 c 0,-9.785119 7.93212,-17.717249 17.716,-17.717249 l 382.67774,0 c 9.78375,0 17.71625,7.93213 17.71625,17.717249 l 0,382.676491 c 0,9.78501 -7.9325,17.71626 -17.71625,17.71626 l -382.67774,0 c -9.78388,0 -17.716,-7.93125 -17.716,-17.71626 l 0,-382.676491 z"
     id="path13" />
  <path
     inkscape:connector-curvature="0"
     style="fill:#ffffff;fill-rule:nonzero;stroke:none"
     d="m 11.32988,21.959779 c 0,-5.871629 4.75949,-10.629899 10.62986,-10.629899 l 382.67764,0 c 5.87125,0 10.63,4.75827 10.63,10.629899 l 0,382.676341 c 0,5.87126 -4.75875,10.63001 -10.63,10.63001 l -382.67764,0 c -5.87037,0 -10.62986,-4.75875 -10.62986,-10.63001 l 0,-382.676341 z"
     id="path15" />
  <path
     inkscape:connector-curvature="0"
     style="fill:#c0111e;fill-rule:nonzero;stroke:none;fill-opacity:1"
     d="m 106.99999,213.29689 c 0,58.70875 47.59013,106.29875 106.29938,106.29875 58.70875,0 106.29875,-47.59 106.29875,-106.29875 0,-58.70824 -47.59,-106.29811 -106.29875,-106.29811 -58.70925,0 -106.29938,47.58987 -106.29938,106.29811 z m -53.15062,0 c 0,-88.06199 71.38675,-159.447491 159.45,-159.447491 88.0625,0 159.44875,71.385501 159.44875,159.447491 0,88.0625 -71.38625,159.44875 -159.44875,159.44875 -88.06325,0 -159.45,-71.38625 -159.45,-159.44875 z"
     id="path17" />
  <path
     inkscape:connector-curvature="0"
     style="fill:#000000;fill-rule:nonzero;stroke:none"
     d="m 135.27387,159.85365 -2.55,54.85749 15.73375,5.10375 c 2.055,-7.655 7.58375,-11.48125 16.58625,-11.48125 5.67,0 10.34625,1.48625 14.03125,4.46375 4.11125,3.26 6.16625,7.72625 6.16625,13.39625 0,6.94625 -1.8075,12.3325 -5.42125,16.1575 -2.19625,2.34 -5.98875,4.68 -11.375,7.01875 -2.9775,1.275 -6.415,1.9125 -10.3125,1.9125 -5.24375,0 -11.80125,-1.16875 -19.6675,-3.5075 l -7.5475,14.7775 c 3.33,1.91375 7.5125,3.40125 12.54375,4.46375 3.82625,0.77875 7.26375,1.16875 10.3125,1.16875 12.26,0 23.03375,-3.29375 32.31875,-9.885 10.63,-7.5125 15.94625,-17.4 15.94625,-29.66125 0,-11.34 -3.61375,-20.55375 -10.845,-27.64124 -7.015,-6.80375 -15.7325,-10.2075 -26.15,-10.2075 -1.4175,0 -6.345,1.3125 -14.77875,3.935 l 0.9575,-17.96625 45.075,0 0,-16.905 -61.02375,0 z"
     id="path19" />
  <path
     inkscape:connector-curvature="0"
     style="fill:#000000;fill-rule:evenodd;stroke:none"
     d="m 258.27762,268.18489 c 24.80625,0 37.21,-18.39 37.21,-55.175 0,-36.85499 -12.40375,-55.28124 -37.21,-55.28124 -24.80625,0 -37.2075,18.42625 -37.2075,55.28124 0,36.785 12.40125,55.175 37.2075,55.175 z m 0,-16.2625 c -13.82125,0 -20.73,-12.97125 -20.73,-38.9125 0,-25.93874 6.90875,-38.90999 20.73,-38.90999 13.75,0 20.62375,12.97125 20.62375,38.90999 0,25.94125 -6.87375,38.9125 -20.62375,38.9125 z"
     id="path21" />
</svg>
