<?xml version="1.0" encoding="UTF-8" standalone="no"?>
<!-- Created with Inkscape (http://www.inkscape.org/) -->

<svg
   xmlns:dc="http://purl.org/dc/elements/1.1/"
   xmlns:cc="http://creativecommons.org/ns#"
   xmlns:rdf="http://www.w3.org/1999/02/22-rdf-syntax-ns#"
   xmlns:svg="http://www.w3.org/2000/svg"
   xmlns="http://www.w3.org/2000/svg"
   xmlns:sodipodi="http://sodipodi.sourceforge.net/DTD/sodipodi-0.dtd"
   xmlns:inkscape="http://www.inkscape.org/namespaces/inkscape"
   id="svg17624"
   version="1.1"
   inkscape:version="0.48.2 r9819"
   width="266.95312"
   height="112.10938"
   xml:space="preserve"
   sodipodi:docname="AA2.svg"><metadata
     id="metadata17630"><rdf:RDF><cc:Work
         rdf:about=""><dc:format>image/svg+xml</dc:format><dc:type
           rdf:resource="http://purl.org/dc/dcmitype/StillImage" /><dc:title></dc:title></cc:Work></rdf:RDF></metadata><defs
     id="defs17628"><inkscape:perspective
       sodipodi:type="inkscape:persp3d"
       inkscape:vp_x="0 : 0.5 : 1"
       inkscape:vp_y="0 : 1000 : 0"
       inkscape:vp_z="1 : 0.5 : 1"
       inkscape:persp3d-origin="0.5 : 0.33333333 : 1"
       id="perspective17632" /><clipPath
       clipPathUnits="userSpaceOnUse"
       id="clipPath17642"><path
         d="m -2,710 501,0 0,-711 -501,0 0,711 z"
         id="path17644"
         inkscape:connector-curvature="0" /></clipPath><clipPath
       clipPathUnits="userSpaceOnUse"
       id="clipPath17648"><path
         d="m 0,708.06 498,0 0,-708 -498,0 0,708 z"
         id="path17650"
         inkscape:connector-curvature="0" /></clipPath><clipPath
       clipPathUnits="userSpaceOnUse"
       id="clipPath17798"><path
         d="m -2,710 501,0 0,-711 -501,0 0,711 z"
         id="path17800"
         inkscape:connector-curvature="0" /></clipPath><clipPath
       clipPathUnits="userSpaceOnUse"
       id="clipPath17804"><path
         d="m 0,708.06 498,0 0,-708 -498,0 0,708 z"
         id="path17806"
         inkscape:connector-curvature="0" /></clipPath><clipPath
       id="Clip0"><path
         inkscape:connector-curvature="0"
         d="m 0,0 212.597,0 0,269.292 L 0,269.292 0,0 z"
         transform="translate(0.923828,0.879883)"
         id="path7" /></clipPath><clipPath
       id="Clip0-8"><path
         inkscape:connector-curvature="0"
         d="m 0,0 170.079,0 0,113.386 L 0,113.386 0,0 z"
         transform="translate(0.0986328,0.822266)"
         id="path7-8" /></clipPath><clipPath
       id="Clip0-1"><path
         inkscape:connector-curvature="0"
         d="m 0,0 287.009,0 0,159.449 L 0,159.449 0,0 z"
         transform="translate(0.396484,0.267578)"
         id="path7-7" /></clipPath><clipPath
       id="Clip0-9"><path
         inkscape:connector-curvature="0"
         d="m 0,0 170.079,0 0,170.079 L 0,170.079 0,0 z"
         transform="translate(0.460938,0.775391)"
         id="path7-4" /></clipPath><clipPath
       id="Clip0-4"><path
         inkscape:connector-curvature="0"
         d="m 0,0 340.157,0 0,226.771 L 0,226.771 0,0 z"
         transform="translate(0.921875,0.25293)"
         id="path7-5" /></clipPath><clipPath
       id="Clip0-5"><path
         inkscape:connector-curvature="0"
         d="m 0,0 255.119,0 0,170.079 L 0,170.079 0,0 z"
         transform="translate(0.147461,0.0595703)"
         id="path7-1" /></clipPath></defs><sodipodi:namedview
     pagecolor="#ffffff"
     bordercolor="#666666"
     borderopacity="1"
     objecttolerance="10"
     gridtolerance="10"
     guidetolerance="10"
     inkscape:pageopacity="0"
     inkscape:pageshadow="2"
     inkscape:window-width="1280"
     inkscape:window-height="1004"
     id="namedview17626"
     showgrid="false"
     inkscape:zoom="2.0000001"
     inkscape:cx="127.76258"
     inkscape:cy="198.91289"
     inkscape:window-x="-8"
     inkscape:window-y="-8"
     inkscape:window-maximized="1"
     inkscape:current-layer="g17634"
     fit-margin-top="0"
     fit-margin-left="0"
     fit-margin-right="0"
     fit-margin-bottom="0"
     showguides="true"
     inkscape:guide-bbox="true" /><g
     id="g17634"
     inkscape:groupmode="layer"
     inkscape:label="GG1999P002"
     transform="matrix(1.25,0,0,-1.25,551.01562,-699.53125)"><path
       inkscape:connector-curvature="0"
       style="fill:#ffffff;fill-rule:nonzero;stroke:#000000;stroke-width:0.95999998;stroke-miterlimit:4;stroke-opacity:1;stroke-dasharray:none"
       d="m -440.32266,-574.28247 c 0,7.82817 6.34473,14.1729 14.1729,14.1729 l 184.2521,0 c 7.828,0 14.173,-6.34473 14.173,-14.1729 l 0,-60.3779 c 0,-7.8281 -6.345,-14.1729 -14.173,-14.1729 l -184.2521,0 c -7.82817,0 -14.1729,6.3448 -14.1729,14.1729 l 0,60.3779 z"
       id="path11" /><path
       inkscape:connector-curvature="0"
       style="fill:#c0111e;fill-opacity:1;fill-rule:nonzero;stroke:none"
       d="m -437.77187,-574.28245 c 0,6.41897 5.20312,11.6221 11.6221,11.6221 l 184.2519,0 c 6.419,0 11.622,-5.20313 11.622,-11.6221 l 0,-60.3779 c 0,-6.4189 -5.203,-11.6221 -11.622,-11.6221 l -184.2519,0 c -6.41898,0 -11.6221,5.2032 -11.6221,11.6221 l 0,60.3779 z"
       id="path13" /><path
       inkscape:connector-curvature="0"
       style="fill:#ffffff;fill-rule:nonzero;stroke:none"
       d="m -434.0873,-574.28245 c 0,4.3838 3.5537,7.93753 7.9375,7.93753 l 184.2525,0 c 4.383,0 7.936,-3.55373 7.936,-7.93753 l 0,-60.37787 c 0,-4.3838 -3.553,-7.9365 -7.936,-7.9365 l -184.2525,0 c -4.3838,0 -7.9375,3.5527 -7.9375,7.9365 l 0,60.37787 z"
       id="path15" /><path
       inkscape:connector-curvature="0"
       style="fill:#000000;fill-rule:nonzero;stroke:none"
       d="m -402.0912,-593.49045 5.2441,-1.8066 c 0.8272,2.3154 2.5869,3.4717 5.2803,3.4717 1.0859,0 2.1494,-0.4952 3.1885,-1.4873 1.0625,-0.9688 1.5947,-2.043 1.5947,-3.2247 0,-2.4091 -1.1221,-3.6142 -3.3662,-3.6142 l -1.4531,0 0,-5.4209 1.4531,0 c 1.0625,0 2.1377,-0.5791 3.2246,-1.7363 1.0859,-1.1582 1.6299,-2.3155 1.6299,-3.4727 0,-0.3545 -0.0479,-0.6377 -0.1426,-0.8506 0,-1.3467 -0.7558,-2.6689 -2.2676,-3.9678 -1.4873,-1.2763 -2.8818,-1.914 -4.1806,-1.914 -1.3467,0 -2.6455,0.5439 -3.8975,1.6299 -1.2529,1.0869 -2.0312,2.4453 -2.3389,4.0752 l -5.4921,-1.2403 c 2.1025,-6.5674 6.2832,-9.8496 12.5429,-9.8496 2.7637,0 5.3155,1.2041 7.6543,3.6133 2.3379,2.4326 3.5078,5.1143 3.5078,8.0439 0,1.6055 -0.3076,3.2471 -0.9218,4.9248 -0.5899,1.7002 -1.3702,2.9522 -2.3379,3.7559 1.2754,0.7559 1.9131,2.8223 1.9131,6.2012 0,2.456 -1.087,4.7832 -3.2598,6.9795 -2.1738,2.1972 -4.5235,3.2959 -7.0508,3.2959 -2.4814,0 -4.6309,-0.6377 -6.4492,-1.9141 -1.7949,-1.2754 -3.1543,-3.1064 -4.0752,-5.4922 z"
       id="path17" /><path
       inkscape:connector-curvature="0"
       style="fill:#000000;fill-rule:evenodd;stroke:none"
       d="m -360.7768,-622.89865 c 8.2686,0 12.4024,6.1289 12.4024,18.3897 0,12.2832 -4.1338,18.4248 -12.4024,18.4248 -8.2675,0 -12.4003,-6.1416 -12.4003,-18.4248 0,-12.2608 4.1328,-18.3897 12.4003,-18.3897 z m 0,5.4199 c -4.6064,0 -6.9091,4.3233 -6.9091,12.9698 0,8.6445 2.3027,12.9677 6.9091,12.9677 4.5831,0 6.8741,-4.3232 6.8741,-12.9677 0,-8.6465 -2.291,-12.9698 -6.8741,-12.9698 z"
       id="path19" /><path
       inkscape:connector-curvature="0"
       style="fill:#000000;fill-rule:evenodd;stroke:none"
       d="m -329.2765,-622.89865 c 8.267,0 12.402,6.1289 12.402,18.3897 0,12.2832 -4.135,18.4248 -12.402,18.4248 -8.268,0 -12.4016,-6.1416 -12.4016,-18.4248 0,-12.2608 4.1336,-18.3897 12.4016,-18.3897 z m 0,5.4199 c -4.607,0 -6.909,4.3233 -6.909,12.9698 0,8.6445 2.302,12.9677 6.909,12.9677 4.583,0 6.874,-4.3232 6.874,-12.9677 0,-8.6465 -2.291,-12.9698 -6.874,-12.9698 z"
       id="path21" /><path
       inkscape:connector-curvature="0"
       style="fill:#000000;fill-rule:nonzero;stroke:none"
       d="m -264.4335,-622.18765 0,13.5527 c 0,3.6484 -0.285,5.4492 -1.137,6.8711 -1.279,2.3691 -3.791,3.6484 -6.871,3.6484 -2.844,0 -4.786,-0.9472 -6.492,-3.1748 -1.28,2.1797 -3.27,3.2227 -6.019,3.2227 -2.321,0 -3.886,-0.711 -5.686,-2.5127 l 0,2.0859 -4.976,0 0,-23.6933 4.976,0 0,13.457 c 0,1.8965 0.237,2.9863 0.948,3.8867 0.757,1.0898 2.085,1.8008 3.364,1.8008 1.138,0 2.322,-0.5215 2.985,-1.4697 0.617,-0.8526 0.759,-1.6104 0.759,-4.0752 l 0,-13.5996 5.213,0 0,13.5996 c 0,2.1797 0.142,2.9863 0.71,3.7441 0.806,1.1367 2.133,1.8477 3.46,1.8477 1.468,0 2.653,-0.711 3.222,-1.8955 0.332,-0.71 0.426,-1.7061 0.426,-3.6963 l 0,-13.5996 5.118,0 z"
       id="path23" /></g></svg>