<?xml version="1.0" encoding="UTF-8" standalone="no"?>
<!-- Created with Sodipodi ("http://www.sodipodi.com/") -->

<svg
   xmlns:dc="http://purl.org/dc/elements/1.1/"
   xmlns:cc="http://creativecommons.org/ns#"
   xmlns:rdf="http://www.w3.org/1999/02/22-rdf-syntax-ns#"
   xmlns:svg="http://www.w3.org/2000/svg"
   xmlns="http://www.w3.org/2000/svg"
   xmlns:xlink="http://www.w3.org/1999/xlink"
   xmlns:sodipodi="http://sodipodi.sourceforge.net/DTD/sodipodi-0.dtd"
   xmlns:inkscape="http://www.inkscape.org/namespaces/inkscape"
   height="426.59625"
   id="svg1"
   sodipodi:docname="55.svg"
   sodipodi:version="0.32"
   width="426.5975"
   inkscape:version="0.48.4 r9939"
   version="1.0">
  <defs
     id="defs3">
    <linearGradient
       id="linearGradient1108">
      <stop
         id="stop1109"
         offset="0"
         style="stop-color:#000;stop-opacity:1;" />
      <stop
         id="stop1110"
         offset="1"
         style="stop-color:#fff;stop-opacity:1;" />
    </linearGradient>
    <linearGradient
       id="linearGradient1111"
       xlink:href="#linearGradient1108" />
    <linearGradient
       id="linearGradient1112"
       xlink:href="#linearGradient1108" />
    <linearGradient
       id="linearGradient1113"
       xlink:href="#linearGradient1108" />
    <linearGradient
       id="linearGradient1114"
       xlink:href="#linearGradient1108" />
    <linearGradient
       id="linearGradient1115"
       xlink:href="#linearGradient1108" />
    <linearGradient
       id="linearGradient1116"
       xlink:href="#linearGradient1108" />
    <linearGradient
       id="linearGradient1117"
       xlink:href="#linearGradient1108" />
    <linearGradient
       id="linearGradient1118"
       xlink:href="#linearGradient1108" />
    <linearGradient
       id="linearGradient1119"
       xlink:href="#linearGradient1108" />
    <linearGradient
       id="linearGradient1120"
       xlink:href="#linearGradient1108" />
    <linearGradient
       id="linearGradient1121"
       xlink:href="#linearGradient1108" />
    <linearGradient
       id="linearGradient1122"
       xlink:href="#linearGradient1108" />
    <linearGradient
       id="linearGradient1123"
       xlink:href="#linearGradient1108" />
    <linearGradient
       id="linearGradient1124"
       xlink:href="#linearGradient1108" />
    <linearGradient
       id="linearGradient1125"
       xlink:href="#linearGradient1108" />
    <linearGradient
       id="linearGradient1126"
       xlink:href="#linearGradient1108" />
    <linearGradient
       id="linearGradient1127"
       xlink:href="#linearGradient1108" />
    <linearGradient
       id="linearGradient1128"
       xlink:href="#linearGradient1108" />
    <linearGradient
       id="linearGradient1129"
       xlink:href="#linearGradient1108" />
    <linearGradient
       id="linearGradient1130"
       xlink:href="#linearGradient1108" />
    <linearGradient
       id="linearGradient1131"
       xlink:href="#linearGradient1108" />
    <linearGradient
       id="linearGradient1132"
       xlink:href="#linearGradient1108" />
    <linearGradient
       id="linearGradient1133"
       xlink:href="#linearGradient1108" />
    <linearGradient
       id="linearGradient1134"
       xlink:href="#linearGradient1108" />
    <linearGradient
       id="linearGradient1135"
       xlink:href="#linearGradient1108" />
    <linearGradient
       id="linearGradient1136"
       xlink:href="#linearGradient1108" />
    <linearGradient
       id="linearGradient1137"
       xlink:href="#linearGradient1108" />
    <linearGradient
       id="linearGradient1138"
       xlink:href="#linearGradient1108" />
    <linearGradient
       id="linearGradient1139"
       xlink:href="#linearGradient1108" />
    <linearGradient
       id="linearGradient1140"
       xlink:href="#linearGradient1108" />
    <linearGradient
       id="linearGradient1141"
       xlink:href="#linearGradient1108" />
    <linearGradient
       id="linearGradient1142"
       xlink:href="#linearGradient1108" />
    <linearGradient
       id="linearGradient1143"
       xlink:href="#linearGradient1108" />
    <linearGradient
       id="linearGradient1144"
       xlink:href="#linearGradient1108" />
    <linearGradient
       id="linearGradient1145"
       xlink:href="#linearGradient1108" />
    <linearGradient
       id="linearGradient1146"
       xlink:href="#linearGradient1108" />
    <linearGradient
       id="linearGradient1147"
       xlink:href="#linearGradient1108" />
    <linearGradient
       id="linearGradient1148"
       xlink:href="#linearGradient1108" />
    <linearGradient
       id="linearGradient1149"
       xlink:href="#linearGradient1108" />
    <linearGradient
       id="linearGradient1150"
       xlink:href="#linearGradient1108" />
    <linearGradient
       id="linearGradient1151"
       xlink:href="#linearGradient1108" />
    <linearGradient
       id="linearGradient1152"
       xlink:href="#linearGradient1108" />
    <linearGradient
       id="linearGradient1153"
       xlink:href="#linearGradient1108" />
    <linearGradient
       id="linearGradient1154"
       xlink:href="#linearGradient1108" />
    <linearGradient
       id="linearGradient1155"
       xlink:href="#linearGradient1108" />
    <linearGradient
       id="linearGradient1156"
       xlink:href="#linearGradient1108" />
    <linearGradient
       id="linearGradient1157"
       xlink:href="#linearGradient1108" />
    <linearGradient
       id="linearGradient1158"
       xlink:href="#linearGradient1108" />
    <linearGradient
       id="linearGradient1159"
       xlink:href="#linearGradient1108" />
    <linearGradient
       id="linearGradient1160"
       xlink:href="#linearGradient1108" />
    <linearGradient
       id="linearGradient1161"
       xlink:href="#linearGradient1108" />
    <linearGradient
       id="linearGradient1162"
       xlink:href="#linearGradient1108" />
    <linearGradient
       id="linearGradient1163"
       xlink:href="#linearGradient1108" />
    <linearGradient
       id="linearGradient1164"
       xlink:href="#linearGradient1108" />
    <linearGradient
       id="linearGradient1165"
       xlink:href="#linearGradient1108" />
    <linearGradient
       id="linearGradient1166"
       xlink:href="#linearGradient1108" />
    <linearGradient
       id="linearGradient1167"
       xlink:href="#linearGradient1108" />
    <linearGradient
       id="linearGradient1168"
       xlink:href="#linearGradient1108" />
    <linearGradient
       id="linearGradient1169"
       xlink:href="#linearGradient1108" />
    <linearGradient
       id="linearGradient1170"
       xlink:href="#linearGradient1108" />
    <linearGradient
       id="linearGradient1171"
       xlink:href="#linearGradient1108" />
    <linearGradient
       id="linearGradient1172"
       xlink:href="#linearGradient1108" />
  </defs>
  <sodipodi:namedview
     id="base"
     showgrid="false"
     snaptogrid="true"
     inkscape:zoom="0.94791593"
     inkscape:cx="202.70634"
     inkscape:cy="166.37466"
     inkscape:window-width="1280"
     inkscape:window-height="1001"
     inkscape:window-x="-8"
     inkscape:window-y="-8"
     inkscape:current-layer="svg1"
     showguides="true"
     inkscape:guide-bbox="true"
     fit-margin-top="0.7"
     fit-margin-left="0.7"
     fit-margin-right="0.7"
     fit-margin-bottom="0.7"
     inkscape:window-maximized="1" />
  <metadata
     id="metadata9086">
    <rdf:RDF>
      <cc:Work
         rdf:about="">
        <dc:title></dc:title>
        <dc:description />
        <dc:subject>
          <rdf:Bag>
            <rdf:li>oceania</rdf:li>
            <rdf:li>flags</rdf:li>
            <rdf:li>sign</rdf:li>
            <rdf:li>signs_and_symbols</rdf:li>
            <rdf:li />
            <rdf:li>australia</rdf:li>
          </rdf:Bag>
        </dc:subject>
        <dc:publisher>
          <cc:Agent
             rdf:about="http://www.openclipart.org">
            <dc:title>Caleb Moore</dc:title>
          </cc:Agent>
        </dc:publisher>
        <dc:creator>
          <cc:Agent
             rdf:about="">
            <dc:title>Caleb Moore</dc:title>
          </cc:Agent>
        </dc:creator>
        <dc:rights>
          <cc:Agent
             rdf:about="">
            <dc:title>Caleb Moore</dc:title>
          </cc:Agent>
        </dc:rights>
        <dc:date />
        <dc:format>image/svg+xml</dc:format>
        <dc:type
           rdf:resource="http://purl.org/dc/dcmitype/StillImage" />
        <cc:license
           rdf:resource="http://web.resource.org/cc/PublicDomain">
          <dc:date />
        </cc:license>
        <dc:language>en</dc:language>
      </cc:Work>
      <cc:License
         rdf:about="http://web.resource.org/cc/PublicDomain">
        <cc:permits
           rdf:resource="http://web.resource.org/cc/Reproduction" />
        <cc:permits
           rdf:resource="http://web.resource.org/cc/Distribution" />
        <cc:permits
           rdf:resource="http://web.resource.org/cc/DerivativeWorks" />
      </cc:License>
    </rdf:RDF>
  </metadata>
  <path
     inkscape:connector-curvature="0"
     style="fill:#ffffff;fill-rule:nonzero;stroke:#000000;stroke-opacity:1"
     d="M 0.7,21.95975 C 0.7,10.21783 10.21904,0.7 21.95975,0.7 l 382.67775,0 c 11.74125,0 21.26,9.51783 21.26,21.25975 l 0,382.6765 c 0,11.74125 -9.51875,21.26 -21.26,21.26 l -382.67775,0 C 10.21904,425.89625 0.7,416.3775 0.7,404.63625 l 0,-382.6765 z"
     id="path11" />
  <path
     inkscape:connector-curvature="0"
     style="fill:#000000;fill-rule:nonzero;stroke:none"
     d="m 4.2436997,21.95973 c 0,-9.78511 7.9321303,-17.71725 17.7160003,-17.71725 l 382.67775,0 c 9.78375,0 17.71625,7.93214 17.71625,17.71725 l 0,382.6765 c 0,9.785 -7.9325,17.71625 -17.71625,17.71625 l -382.67775,0 c -9.78387,0 -17.7160003,-7.93125 -17.7160003,-17.71625 l 0,-382.6765 z"
     id="path13" />
  <path
     inkscape:connector-curvature="0"
     style="fill:#ffffff;fill-rule:nonzero;stroke:none"
     d="m 11.32988,21.95978 c 0,-5.87162 4.75949,-10.6299 10.62986,-10.6299 l 382.67764,0 c 5.87125,0 10.63,4.75828 10.63,10.6299 l 0,382.67635 c 0,5.87125 -4.75875,10.63 -10.63,10.63 l -382.67764,0 c -5.87037,0 -10.62986,-4.75875 -10.62986,-10.63 l 0,-382.67635 z"
     id="path15" />
  <path
     inkscape:connector-curvature="0"
     style="fill:#c0111e;fill-rule:nonzero;stroke:none;fill-opacity:1"
     d="m 106.99999,213.2969 c 0,58.70875 47.59013,106.29875 106.29938,106.29875 58.70875,0 106.29875,-47.59 106.29875,-106.29875 0,-58.70825 -47.59,-106.29812 -106.29875,-106.29812 -58.70925,0 -106.29938,47.58987 -106.29938,106.29812 z m -53.15062,0 c 0,-88.062 71.38675,-159.44749 159.45,-159.44749 88.0625,0 159.44875,71.38549 159.44875,159.44749 0,88.0625 -71.38625,159.44875 -159.44875,159.44875 -88.06325,0 -159.45,-71.38625 -159.45,-159.44875 z"
     id="path17-2" />
  <path
     inkscape:connector-curvature="0"
     style="fill:#000000;fill-rule:evenodd;stroke:none"
     d="m 170.78387,159.85365 c -13.6075,9.4975 -23.92,22.0775 -30.93625,37.7425 -5.8125,12.8275 -8.7175,25.90375 -8.7175,39.22875 0,8.435 3.96625,15.83875 11.90625,22.22 7.58375,6.095 16.01875,9.14 25.30125,9.14 7.3,0 14.4225,-2.72625 21.37,-8.18375 8.22125,-6.38 12.33125,-14.28125 12.33125,-23.7075 0,-9.56875 -3.61375,-17.6475 -10.845,-24.24 -6.94375,-6.23625 -15.05875,-9.35375 -24.3425,-9.35375 -4.0425,0 -7.86875,0.6725 -11.48375,2.01875 1.27625,-5.03125 4.89,-10.985 10.84375,-17.86 4.5375,-5.24375 9.17875,-9.71125 13.92875,-13.39625 l -9.35625,-13.60875 z m -4.35875,91.53625 c -4.6075,0 -8.825,-1.49 -12.65125,-4.46625 -3.82875,-2.97625 -5.74125,-6.44875 -5.74125,-10.4175 0,-4.2525 1.7,-8.11625 5.10375,-11.5875 3.47125,-3.545 7.79375,-5.31625 12.97,-5.31625 5.315,0 9.95625,1.77125 13.92625,5.31625 3.97,3.47125 5.9525,7.335 5.9525,11.5875 0,4.03875 -2.09,7.5475 -6.27,10.525 -4.1825,2.905 -8.6125,4.35875 -13.29,4.35875 z"
     id="path19" />
  <path
     inkscape:connector-curvature="0"
     style="fill:#000000;fill-rule:evenodd;stroke:none"
     d="m 258.27762,268.1849 c 24.80625,0 37.21,-18.39 37.21,-55.175 0,-36.855 -12.40375,-55.28125 -37.21,-55.28125 -24.80625,0 -37.2075,18.42625 -37.2075,55.28125 0,36.785 12.40125,55.175 37.2075,55.175 z m 0,-16.2625 c -13.82125,0 -20.73,-12.97125 -20.73,-38.9125 0,-25.93875 6.90875,-38.91 20.73,-38.91 13.74875,0 20.62375,12.97125 20.62375,38.91 0,25.94125 -6.875,38.9125 -20.62375,38.9125 z"
     id="path21" />
</svg>
