<?xml version="1.0" encoding="UTF-8" standalone="no"?>
<!-- Created with Inkscape (http://www.inkscape.org/) -->

<svg
   xmlns:dc="http://purl.org/dc/elements/1.1/"
   xmlns:cc="http://creativecommons.org/ns#"
   xmlns:rdf="http://www.w3.org/1999/02/22-rdf-syntax-ns#"
   xmlns:svg="http://www.w3.org/2000/svg"
   xmlns="http://www.w3.org/2000/svg"
   xmlns:sodipodi="http://sodipodi.sourceforge.net/DTD/sodipodi-0.dtd"
   xmlns:inkscape="http://www.inkscape.org/namespaces/inkscape"
   id="svg17624"
   version="1.1"
   inkscape:version="0.48.4 r9939"
   width="200.2"
   height="200.2"
   xml:space="preserve"
   sodipodi:docname="AJAX1.svg"><metadata
     id="metadata17630"><rdf:RDF><cc:Work
         rdf:about=""><dc:format>image/svg+xml</dc:format><dc:type
           rdf:resource="http://purl.org/dc/dcmitype/StillImage" /><dc:title /></cc:Work></rdf:RDF></metadata><defs
     id="defs17628"><inkscape:perspective
       sodipodi:type="inkscape:persp3d"
       inkscape:vp_x="0 : 0.5 : 1"
       inkscape:vp_y="0 : 1000 : 0"
       inkscape:vp_z="1 : 0.5 : 1"
       inkscape:persp3d-origin="0.5 : 0.33333333 : 1"
       id="perspective17632" /><clipPath
       clipPathUnits="userSpaceOnUse"
       id="clipPath17642"><path
         d="m -2,710 501,0 0,-711 -501,0 0,711 z"
         id="path17644"
         inkscape:connector-curvature="0" /></clipPath><clipPath
       clipPathUnits="userSpaceOnUse"
       id="clipPath17648"><path
         d="m 0,708.06 498,0 0,-708 -498,0 0,708 z"
         id="path17650"
         inkscape:connector-curvature="0" /></clipPath><clipPath
       clipPathUnits="userSpaceOnUse"
       id="clipPath17798"><path
         d="m -2,710 501,0 0,-711 -501,0 0,711 z"
         id="path17800"
         inkscape:connector-curvature="0" /></clipPath><clipPath
       clipPathUnits="userSpaceOnUse"
       id="clipPath17804"><path
         d="m 0,708.06 498,0 0,-708 -498,0 0,708 z"
         id="path17806"
         inkscape:connector-curvature="0" /></clipPath><clipPath
       id="Clip0"><path
         inkscape:connector-curvature="0"
         d="m 0,0 212.597,0 0,269.292 L 0,269.292 0,0 z"
         transform="translate(0.923828,0.879883)"
         id="path7" /></clipPath></defs><sodipodi:namedview
     pagecolor="#ffffff"
     bordercolor="#666666"
     borderopacity="1"
     objecttolerance="10"
     gridtolerance="10"
     guidetolerance="10"
     inkscape:pageopacity="0"
     inkscape:pageshadow="2"
     inkscape:window-width="1280"
     inkscape:window-height="1004"
     id="namedview17626"
     showgrid="false"
     inkscape:zoom="2.5993181"
     inkscape:cx="99.869249"
     inkscape:cy="90.292902"
     inkscape:window-x="-8"
     inkscape:window-y="-8"
     inkscape:window-maximized="1"
     inkscape:current-layer="g17634"
     fit-margin-top="0.1"
     fit-margin-left="0.1"
     fit-margin-right="0.1"
     fit-margin-bottom="0.1"
     showguides="true"
     inkscape:guide-bbox="true" /><g
     id="g17634"
     inkscape:groupmode="layer"
     inkscape:label="GG1999P002"
     transform="matrix(1.25,0,0,-1.25,160.49062,77.404677)"><path
       sodipodi:nodetypes="sssss"
       inkscape:connector-curvature="0"
       id="path3787"
       d="m 31.6875,-18.156349 c 0,44.18241 -35.816846,80.000091 -80.000009,80.000091 -44.183435,0 -79.999991,-35.817587 -79.999991,-80.000001 0,-44.18334 35.816556,-80 79.999991,-80 44.183163,0 80.000009,35.81656 80.000009,79.9999 z"
       style="fill:#c0111e;fill-opacity:1;fill-rule:nonzero;stroke:none" /><path
       style="fill:#ffffff;fill-opacity:1;fill-rule:nonzero;stroke:none"
       d="m 11.687511,-18.15633 c 0,33.136806 -26.862633,60.000064 -60.000002,60.000064 -33.137575,0 -60.000009,-26.863187 -60.000009,-59.999996 0,-33.137503 26.862434,-59.999996 60.000009,-59.999996 33.137369,0 60.000002,26.862418 60.000002,59.999921 z"
       id="path3033"
       inkscape:connector-curvature="0"
       sodipodi:nodetypes="sssss" /><path
       d="m -71.072901,-40.320961 -30.028849,0 0,44.5081659 8.755143,0 0,-36.9699539 21.273706,0 z"
       id="path3011"
       style="font-size:73.59999847000000300px;font-style:normal;font-variant:normal;font-weight:normal;font-stretch:normal;text-align:start;line-height:125%;letter-spacing:0px;word-spacing:0px;writing-mode:lr-tb;text-anchor:start;fill:#000000;stroke:none;font-family:Franklin Gothic Medium;-inkscape-font-specification:Franklin Gothic Medium"
       inkscape:connector-curvature="0" /><path
       d="m -67.609245,-27.293465 8.71443,0.09019 c 0.06133,-1.488702 2.236726,-7.134441 8.704506,-7.134441 2.952164,0 6.493374,0.313626 8.082171,1.485492 1.58874,1.171851 2.383125,2.625407 2.383153,4.36067 -2.8e-5,1.261988 -0.360597,2.428212 -1.081716,3.498676 -0.721176,1.070433 -3.535605,2.182189 -5.901836,2.790671 l -8.822752,2.298648 c -3.019794,0.788729 -5.250839,1.684526 -6.693115,2.687388 -1.442295,1.002817 -2.597248,2.416935 -3.46487,4.242357 -0.86763,1.825368 -1.301445,3.774708 -1.301445,5.848029 0,4.124007 1.532425,7.43112604 4.597294,9.9213676 3.064851,2.4901563 6.986073,3.7352552 11.763666,3.7353022 3.966269,-4.7e-5 7.510019,-0.867672 10.63125,-2.6028797 3.121166,-1.735296 7.832936,-5.9162581 7.327822,-12.3613581 l -8.0008,0.127022 c 0.144536,4.67297 -5.327199,8.14405604 -9.789252,8.14409504 -2.591632,-3.9e-5 -4.569141,-0.540897 -5.932536,-1.62257404 -1.363424,-1.081754 -2.045131,-2.456435 -2.045122,-4.124044 -10e-6,-2.636715 1.505524,-5.392311 5.787323,-6.451463 l 8.750108,-1.869844 c 4.755018,-1.194421 9.21456,-2.957842 10.837172,-5.290269 1.622531,-2.332471 1.79845,-3.817978 1.798488,-6.634931 -3.8e-5,-4.529698 -1.707133,-8.731348 -5.121249,-11.334217 -3.414198,-2.602884 -8.744501,-3.541257 -14.175592,-3.541257 -4.574776,0 -7.400539,1.139305 -10.837228,3.054842 -3.436706,1.915537 -5.083079,6.626089 -6.20987,10.682531 z"
       id="path3013"
       style="font-size:73.59999847000000300px;font-style:normal;font-variant:normal;font-weight:normal;font-stretch:normal;text-align:start;line-height:125%;letter-spacing:0px;word-spacing:0px;writing-mode:lr-tb;text-anchor:start;fill:#000000;stroke:none;font-family:Franklin Gothic Medium;-inkscape-font-specification:Franklin Gothic Medium"
       inkscape:connector-curvature="0" /><path
       d="m 5.8626021,-33.15459 0,-7.166371 -34.2894171,0 0,6.557902 22.7210716,30.723189 -21.9723506,0 0,7.5901422 33.9538177,0 0,-5.32097716 L -19.260986,-33.15459 z"
       id="path3015"
       style="font-size:73.59999847000000300px;font-style:normal;font-variant:normal;font-weight:normal;font-stretch:normal;text-align:start;line-height:125%;letter-spacing:0px;word-spacing:0px;writing-mode:lr-tb;text-anchor:start;fill:#000000;stroke:none;font-family:Franklin Gothic Medium;-inkscape-font-specification:Franklin Gothic Medium"
       inkscape:connector-curvature="0" /></g></svg>