<?xml version="1.0" encoding="UTF-8" standalone="no"?>
<!-- Created with Inkscape (http://www.inkscape.org/) -->

<svg
   xmlns:dc="http://purl.org/dc/elements/1.1/"
   xmlns:cc="http://creativecommons.org/ns#"
   xmlns:rdf="http://www.w3.org/1999/02/22-rdf-syntax-ns#"
   xmlns:svg="http://www.w3.org/2000/svg"
   xmlns="http://www.w3.org/2000/svg"
   xmlns:sodipodi="http://sodipodi.sourceforge.net/DTD/sodipodi-0.dtd"
   xmlns:inkscape="http://www.inkscape.org/namespaces/inkscape"
   id="svg17624"
   version="1.1"
   inkscape:version="0.48.2 r9819"
   width="360.62802"
   height="467.91046"
   xml:space="preserve"
   sodipodi:docname="fire.svg"><metadata
     id="metadata17630"><rdf:RDF><cc:Work
         rdf:about=""><dc:format>image/svg+xml</dc:format><dc:type
           rdf:resource="http://purl.org/dc/dcmitype/StillImage" /><dc:title></dc:title></cc:Work></rdf:RDF></metadata><defs
     id="defs17628"><inkscape:perspective
       sodipodi:type="inkscape:persp3d"
       inkscape:vp_x="0 : 0.5 : 1"
       inkscape:vp_y="0 : 1000 : 0"
       inkscape:vp_z="1 : 0.5 : 1"
       inkscape:persp3d-origin="0.5 : 0.33333333 : 1"
       id="perspective17632" /><clipPath
       clipPathUnits="userSpaceOnUse"
       id="clipPath17642"><path
         d="m -2,710 501,0 0,-711 -501,0 0,711 z"
         id="path17644"
         inkscape:connector-curvature="0" /></clipPath><clipPath
       clipPathUnits="userSpaceOnUse"
       id="clipPath17648"><path
         d="m 0,708.06 498,0 0,-708 -498,0 0,708 z"
         id="path17650"
         inkscape:connector-curvature="0" /></clipPath><clipPath
       clipPathUnits="userSpaceOnUse"
       id="clipPath17798"><path
         d="m -2,710 501,0 0,-711 -501,0 0,711 z"
         id="path17800"
         inkscape:connector-curvature="0" /></clipPath><clipPath
       clipPathUnits="userSpaceOnUse"
       id="clipPath17804"><path
         d="m 0,708.06 498,0 0,-708 -498,0 0,708 z"
         id="path17806"
         inkscape:connector-curvature="0" /></clipPath><clipPath
       id="Clip0"><path
         inkscape:connector-curvature="0"
         d="m 0,0 212.597,0 0,269.292 L 0,269.292 0,0 z"
         transform="translate(0.923828,0.879883)"
         id="path7" /></clipPath><clipPath
       id="Clip0-8"><path
         inkscape:connector-curvature="0"
         d="m 0,0 170.079,0 0,113.386 L 0,113.386 0,0 z"
         transform="translate(0.0986328,0.822266)"
         id="path7-8" /></clipPath><clipPath
       id="Clip0-1"><path
         inkscape:connector-curvature="0"
         d="m 0,0 287.009,0 0,159.449 L 0,159.449 0,0 z"
         transform="translate(0.396484,0.267578)"
         id="path7-7" /></clipPath><clipPath
       id="Clip0-17"><path
         inkscape:connector-curvature="0"
         d="m 0,0 340.157,0 0,170.079 L 0,170.079 0,0 z"
         transform="translate(0.289063,0.774414)"
         id="path7-4" /></clipPath><clipPath
       id="Clip0-174"><path
         inkscape:connector-curvature="0"
         d="m 0,0 269.291,0 0,85.039 L 0,85.039 0,0 z"
         transform="translate(0.899414,0.480469)"
         id="path7-0" /></clipPath></defs><sodipodi:namedview
     pagecolor="#ffffff"
     bordercolor="#666666"
     borderopacity="1"
     objecttolerance="10"
     gridtolerance="10"
     guidetolerance="10"
     inkscape:pageopacity="0"
     inkscape:pageshadow="2"
     inkscape:window-width="1280"
     inkscape:window-height="1004"
     id="namedview17626"
     showgrid="false"
     inkscape:zoom="1.0853633"
     inkscape:cx="205.20591"
     inkscape:cy="118.24745"
     inkscape:window-x="-8"
     inkscape:window-y="-8"
     inkscape:window-maximized="1"
     inkscape:current-layer="g17634"
     fit-margin-top="0"
     fit-margin-left="0"
     fit-margin-right="0"
     fit-margin-bottom="0"
     showguides="true"
     inkscape:guide-bbox="true" /><g
     id="g17634"
     inkscape:groupmode="layer"
     inkscape:label="GG1999P002"
     transform="matrix(1.25,0,0,-1.25,570.69351,-443.52204)"><path
       inkscape:connector-curvature="0"
       style="fill:#ef7c23;fill-rule:nonzero;stroke:none"
       d="m -172.35328,-488.68004 c 5.735,-5.734 5.734,-15.03 0,-20.764 l -129.571,-129.563 c -5.734,-5.733 -15.03,-5.733 -20.765,0 l -129.5656,129.563 c -5.7334,5.734 -5.7334,15.03 9.6e-4,20.764 l 129.57064,129.56163 c 5.735,5.73437 15.03,5.73437 20.765,0 l 129.565,-129.56163 z"
       id="path11" /><path
       inkscape:connector-curvature="0"
       style="fill:#000000;fill-rule:nonzero;stroke:none"
       d="m -450.00781,-506.68977 c -4.09571,4.095 -4.09571,10.736 0,14.832 l 130.28629,130.2833 c 4.096,4.0957 10.736,4.0957 14.833,0 l 130.288,-130.2833 c 4.097,-4.096 4.097,-10.737 0,-14.832 l -130.285,-130.283 c -4.097,-4.096 -10.737,-4.096 -14.833,0 l -130.28929,130.283 z"
       id="path13" /><path
       inkscape:connector-curvature="0"
       style="fill:#ef7c23;fill-rule:nonzero;stroke:none"
       d="m -446.19925,-502.71977 c -1.99313,1.992 -1.99313,5.222 0,7.215 l 130.28687,130.28287 c 1.992,1.99313 5.222,1.99313 7.215,0 l 130.289,-130.28287 c 1.993,-1.993 1.993,-5.223 8e-4,-7.215 l -130.287,-130.284 c -1.993,-1.993 -5.223,-1.993 -7.215,0 l -130.28967,130.284 z"
       id="path15" /><path
       inkscape:connector-curvature="0"
       style="fill:#000000;fill-rule:nonzero;stroke:none"
       d="m -337.10775,-580.1085 c 0,13.699 11.105,24.804 24.804,24.804 13.698,0 24.803,-11.105 24.803,-24.804 0,-13.698 -11.105,-24.803 -24.803,-24.803 -13.699,0 -24.804,11.105 -24.804,24.803 z"
       id="path17" /><path
       inkscape:connector-curvature="0"
       style="fill:#000000;fill-rule:nonzero;stroke:none"
       d="m -312.30375,-395.7141 c 17.612,0 31.89,-14.3028 31.89,-31.8897 0,-17.5752 -26.504,-116.9293 -26.504,-116.9293 l -10.773,0 c 0,0 -26.504,99.3541 -26.504,116.9293 0,17.5869 14.278,31.8897 31.891,31.8897 z"
       id="path19" /><path
       inkscape:connector-curvature="0"
       style="fill:#ef7c23;fill-rule:nonzero;stroke:none"
       d="m -446.95321,-658.27979 c 0,7.8271 6.34571,14.1728 14.1729,14.1728 l 240.9461,0 c 7.828,0 14.172,-6.3457 14.172,-14.1728 l 0,-56.6934 c 0,-7.8271 -6.344,-14.1728 -14.172,-14.1728 l -240.9461,0 c -7.82719,0 -14.1729,6.3457 -14.1729,14.1728 l 0,56.6934 z"
       id="path11-1" /><path
       inkscape:connector-curvature="0"
       style="fill:#000000;fill-rule:nonzero;stroke:none"
       d="m -444.11825,-658.27987 c 0,6.26175 5.07617,11.3389 11.3379,11.3389 l 240.9461,0 c 6.261,0 11.338,-5.07715 11.338,-11.3389 l 0,-56.6934 c 0,-6.2616 -5.077,-11.33871 -11.338,-11.33871 l -240.9461,0 c -6.26173,0 -11.3379,5.07711 -11.3379,11.33871 l 0,56.6934 z"
       id="path13-7" /><path
       inkscape:connector-curvature="0"
       style="fill:#ef7c23;fill-rule:nonzero;stroke:none"
       d="m -439.8663,-658.27982 c 0,3.9131 3.17287,7.08592 7.08687,7.08592 l 240.94513,0 c 3.914,0 7.086,-3.17282 7.086,-7.08592 l 0,-56.69338 c 0,-3.914 -3.172,-7.0859 -7.086,-7.0859 l -240.94513,0 c -3.914,0 -7.08687,3.1719 -7.08687,7.0859 l 0,56.69338 z"
       id="path15-4" /><path
       inkscape:connector-curvature="0"
       style="fill:#000000;fill-rule:evenodd;stroke:none"
       d="m -411.38482,-668.89702 -12.0127,-35.3984 5.9179,0 3.2598,9.9921 11.3379,0 3.4727,-9.9921 5.7402,0 -12.1182,35.3984 -5.5976,0 z m 6.4131,-19.7363 -7.2286,0 3.543,10.5586 3.6856,-10.5586 z"
       id="path17-1" /><path
       inkscape:connector-curvature="0"
       style="fill:#000000;fill-rule:nonzero;stroke:none"
       d="m -368.90142,-677.57862 5.1728,2.2324 c -2.1963,4.7715 -5.9287,7.1572 -11.1963,7.1572 -4.3701,0 -7.6181,-2.1729 -9.7441,-6.5195 -1.6533,-3.3545 -2.4688,-7.417 -2.4443,-12.1895 0.0234,-4.8652 0.9921,-8.9287 2.9052,-12.1885 2.3379,-3.9453 5.7168,-5.917 10.1338,-5.917 2.5742,0 4.8184,0.8028 6.7324,2.4092 1.795,1.5352 3.0821,3.6143 3.8623,6.2364 l -5.2089,1.3105 c -0.4014,-1.1104 -1.1934,-2.125 -2.3741,-3.0469 -1.1572,-0.9209 -2.2558,-1.3818 -3.2949,-1.3818 -2.6221,0 -4.6064,1.5 -5.9531,4.5 -1.0156,2.291 -1.5244,4.9014 -1.5244,7.8301 0,3.4023 0.4258,6.2129 1.2763,8.4336 1.252,3.3545 3.3428,5.0312 6.2715,5.0312 1.2998,0 2.3623,-0.3183 3.1895,-0.956 0.8262,-0.6143 1.5586,-1.5948 2.1963,-2.9414 z"
       id="path19-7" /><path
       inkscape:connector-curvature="0"
       style="fill:#000000;fill-rule:nonzero;stroke:none"
       d="m -338.67762,-677.57862 5.174,2.2324 c -2.198,4.7715 -5.93,7.1572 -11.198,7.1572 -4.36969,0 -7.6178,-2.1729 -9.7438,-6.5195 -1.65329,-3.3545 -2.4687,-7.417 -2.4443,-12.1895 0.0234,-4.8652 0.9922,-8.9287 2.9053,-12.1885 2.3388,-3.9453 5.7168,-5.917 10.1338,-5.917 2.575,0 4.819,0.8028 6.732,2.4092 1.795,1.5352 3.082,3.6143 3.863,6.2364 l -5.209,1.3105 c -0.402,-1.1104 -1.193,-2.125 -2.374,-3.0469 -1.158,-0.9209 -2.256,-1.3818 -3.295,-1.3818 -2.622,0 -4.60669,1.5 -5.9534,4.5 -1.0156,2.291 -1.5234,4.9014 -1.5234,7.8301 0,3.4023 0.4248,6.2129 1.2754,8.4336 1.25191,3.3545 3.3424,5.0312 6.2724,5.0312 1.299,0 2.361,-0.3183 3.189,-0.956 0.826,-0.6143 1.558,-1.5948 2.196,-2.9414 z"
       id="path21" /><path
       inkscape:connector-curvature="0"
       style="fill:#000000;fill-rule:nonzero;stroke:none"
       d="m -326.73762,-704.33062 5.564,0 0,35.4336 -5.564,0 0,-35.4336 z"
       id="path23" /><path
       inkscape:connector-curvature="0"
       style="fill:#000000;fill-rule:evenodd;stroke:none"
       d="m -312.95462,-668.89702 0,-35.4336 9.886,0 c 4.229,0 7.665,1.8779 10.311,5.6338 2.339,3.3066 3.508,7.1103 3.508,11.4092 0,5.4814 -1.216,9.8867 -3.65,13.2168 -2.504,3.4492 -5.893,5.1728 -10.169,5.1738 l -9.886,0 z m 5.598,-29.6934 0,24.1651 4.075,0 c 3.095,0 5.386,-1.5235 6.874,-4.5703 1.134,-2.2911 1.701,-5.0557 1.701,-8.292 0,-2.5039 -0.602,-4.8418 -1.807,-7.0157 -1.607,-2.8574 -3.862,-4.2871 -6.768,-4.2871 l -4.075,0 z"
       id="path25" /><path
       inkscape:connector-curvature="0"
       style="fill:#000000;fill-rule:nonzero;stroke:none"
       d="m -281.02962,-668.89702 0,-35.4336 21.614,0 0,5.5273 -16.122,0 0,9.9922 10.346,0 0,5.5283 -10.346,0 0,8.7159 14.811,0 0,5.6699 -20.303,0 z"
       id="path27" /><path
       inkscape:connector-curvature="0"
       style="fill:#000000;fill-rule:nonzero;stroke:none"
       d="m -252.93162,-668.89702 0,-35.4336 5.492,0 0,22.8896 13.464,-22.8896 4.748,0 0,35.4336 -5.599,0 0,-23.0674 -13.463,23.0674 -4.642,0 z"
       id="path29" /><path
       inkscape:connector-curvature="0"
       style="fill:#000000;fill-rule:nonzero;stroke:none"
       d="m -222.63662,-668.89702 0,-5.209 8.149,0 0,-30.2246 5.351,0 0,30.2246 8.114,0 0,5.209 -21.614,0 z"
       id="path31" /></g></svg>