<?xml version="1.0" encoding="UTF-8" standalone="no"?>
<!-- Created with Inkscape (http://www.inkscape.org/) -->

<svg
   xmlns:dc="http://purl.org/dc/elements/1.1/"
   xmlns:cc="http://creativecommons.org/ns#"
   xmlns:rdf="http://www.w3.org/1999/02/22-rdf-syntax-ns#"
   xmlns:svg="http://www.w3.org/2000/svg"
   xmlns="http://www.w3.org/2000/svg"
   xmlns:sodipodi="http://sodipodi.sourceforge.net/DTD/sodipodi-0.dtd"
   xmlns:inkscape="http://www.inkscape.org/namespaces/inkscape"
   id="svg17624"
   version="1.1"
   inkscape:version="0.48.2 r9819"
   width="360.62802"
   height="538.77545"
   xml:space="preserve"
   sodipodi:docname="tree felling.svg"><metadata
     id="metadata17630"><rdf:RDF><cc:Work
         rdf:about=""><dc:format>image/svg+xml</dc:format><dc:type
           rdf:resource="http://purl.org/dc/dcmitype/StillImage" /><dc:title></dc:title></cc:Work></rdf:RDF></metadata><defs
     id="defs17628"><inkscape:perspective
       sodipodi:type="inkscape:persp3d"
       inkscape:vp_x="0 : 0.5 : 1"
       inkscape:vp_y="0 : 1000 : 0"
       inkscape:vp_z="1 : 0.5 : 1"
       inkscape:persp3d-origin="0.5 : 0.33333333 : 1"
       id="perspective17632" /><clipPath
       clipPathUnits="userSpaceOnUse"
       id="clipPath17642"><path
         d="m -2,710 501,0 0,-711 -501,0 0,711 z"
         id="path17644"
         inkscape:connector-curvature="0" /></clipPath><clipPath
       clipPathUnits="userSpaceOnUse"
       id="clipPath17648"><path
         d="m 0,708.06 498,0 0,-708 -498,0 0,708 z"
         id="path17650"
         inkscape:connector-curvature="0" /></clipPath><clipPath
       clipPathUnits="userSpaceOnUse"
       id="clipPath17798"><path
         d="m -2,710 501,0 0,-711 -501,0 0,711 z"
         id="path17800"
         inkscape:connector-curvature="0" /></clipPath><clipPath
       clipPathUnits="userSpaceOnUse"
       id="clipPath17804"><path
         d="m 0,708.06 498,0 0,-708 -498,0 0,708 z"
         id="path17806"
         inkscape:connector-curvature="0" /></clipPath><clipPath
       id="Clip0"><path
         inkscape:connector-curvature="0"
         d="m 0,0 212.597,0 0,269.292 L 0,269.292 0,0 z"
         transform="translate(0.923828,0.879883)"
         id="path7" /></clipPath><clipPath
       id="Clip0-8"><path
         inkscape:connector-curvature="0"
         d="m 0,0 170.079,0 0,113.386 L 0,113.386 0,0 z"
         transform="translate(0.0986328,0.822266)"
         id="path7-8" /></clipPath><clipPath
       id="Clip0-1"><path
         inkscape:connector-curvature="0"
         d="m 0,0 287.009,0 0,159.449 L 0,159.449 0,0 z"
         transform="translate(0.396484,0.267578)"
         id="path7-7" /></clipPath><clipPath
       id="Clip0-17"><path
         inkscape:connector-curvature="0"
         d="m 0,0 340.157,0 0,170.079 L 0,170.079 0,0 z"
         transform="translate(0.289063,0.774414)"
         id="path7-4" /></clipPath><clipPath
       id="Clip0-174"><path
         inkscape:connector-curvature="0"
         d="m 0,0 269.291,0 0,85.039 L 0,85.039 0,0 z"
         transform="translate(0.899414,0.480469)"
         id="path7-0" /></clipPath><clipPath
       id="Clip0-9"><path
         inkscape:connector-curvature="0"
         d="m 0,0 269.292,0 0,141.731 L 0,141.731 0,0 z"
         transform="translate(0.179688,0.916992)"
         id="path7-48" /></clipPath><clipPath
       id="Clip0-174-5"><path
         inkscape:connector-curvature="0"
         d="m 0,0 269.291,0 0,141.732 L 0,141.732 0,0 z"
         transform="translate(0.40332,0.170898)"
         id="path7-0-1" /></clipPath></defs><sodipodi:namedview
     pagecolor="#ffffff"
     bordercolor="#666666"
     borderopacity="1"
     objecttolerance="10"
     gridtolerance="10"
     guidetolerance="10"
     inkscape:pageopacity="0"
     inkscape:pageshadow="2"
     inkscape:window-width="1280"
     inkscape:window-height="1004"
     id="namedview17626"
     showgrid="false"
     inkscape:zoom="1.3447817"
     inkscape:cx="246.50821"
     inkscape:cy="150.07935"
     inkscape:window-x="-8"
     inkscape:window-y="-8"
     inkscape:window-maximized="1"
     inkscape:current-layer="g17634"
     fit-margin-top="0"
     fit-margin-left="0"
     fit-margin-right="0"
     fit-margin-bottom="0"
     showguides="true"
     inkscape:guide-bbox="true" /><g
     id="g17634"
     inkscape:groupmode="layer"
     inkscape:label="GG1999P002"
     transform="matrix(1.25,0,0,-1.25,570.69351,-470.55705)"><path
       inkscape:connector-curvature="0"
       style="fill:#ef7c23;fill-rule:nonzero;stroke:none"
       d="m -172.35328,-510.30805 c 5.735,-5.734 5.734,-15.03 0,-20.764 l -129.571,-129.563 c -5.734,-5.733 -15.03,-5.733 -20.765,0 l -129.5656,129.563 c -5.7334,5.734 -5.7334,15.03 9.6e-4,20.764 l 129.57064,129.56163 c 5.735,5.73437 15.03,5.73437 20.765,0 l 129.565,-129.56163 z"
       id="path11" /><path
       inkscape:connector-curvature="0"
       style="fill:#000000;fill-rule:nonzero;stroke:none"
       d="m -450.00781,-528.31778 c -4.09571,4.095 -4.09571,10.736 0,14.832 l 130.28629,130.2833 c 4.096,4.0957 10.736,4.0957 14.833,0 l 130.288,-130.2833 c 4.097,-4.096 4.097,-10.737 0,-14.832 l -130.285,-130.283 c -4.097,-4.096 -10.737,-4.096 -14.833,0 l -130.28929,130.283 z"
       id="path13" /><path
       inkscape:connector-curvature="0"
       style="fill:#ef7c23;fill-rule:nonzero;stroke:none"
       d="m -446.19925,-524.34778 c -1.99313,1.992 -1.99313,5.222 0,7.215 l 130.28687,130.28287 c 1.992,1.99313 5.222,1.99313 7.215,0 l 130.289,-130.28287 c 1.993,-1.993 1.993,-5.223 8e-4,-7.215 l -130.287,-130.284 c -1.993,-1.993 -5.223,-1.993 -7.215,0 l -130.28967,130.284 z"
       id="path15" /><path
       inkscape:connector-curvature="0"
       style="fill:#000000;fill-rule:nonzero;stroke:none"
       d="m -337.10775,-601.73651 c 0,13.699 11.105,24.804 24.804,24.804 13.698,0 24.803,-11.105 24.803,-24.804 0,-13.698 -11.105,-24.803 -24.803,-24.803 -13.699,0 -24.804,11.105 -24.804,24.803 z"
       id="path17" /><path
       inkscape:connector-curvature="0"
       style="fill:#000000;fill-rule:nonzero;stroke:none"
       d="m -312.30375,-417.34211 c 17.612,0 31.89,-14.3028 31.89,-31.8897 0,-17.5752 -26.504,-116.9293 -26.504,-116.9293 l -10.773,0 c 0,0 -26.504,99.3541 -26.504,116.9293 0,17.5869 14.278,31.8897 31.891,31.8897 z"
       id="path19" /><path
       inkscape:connector-curvature="0"
       style="fill:#ef7c23;fill-rule:nonzero;stroke:none"
       d="m -446.95321,-679.9078 c 0,7.82807 6.3457,14.1728 14.1738,14.1728 l 240.9442,0 c 7.828,0 14.174,-6.34473 14.174,-14.1728 l 0,-113.3862 c 0,-7.828 -6.346,-14.172 -14.174,-14.172 l -240.9442,0 c -7.8281,0 -14.1738,6.344 -14.1738,14.172 l 0,113.3862 z"
       id="path11-17" /><path
       inkscape:connector-curvature="0"
       style="fill:#000000;fill-rule:nonzero;stroke:none"
       d="m -443.55185,-679.90777 c 0,5.94913 4.82325,10.7714 10.7724,10.7714 l 240.9446,0 c 5.949,0 10.771,-4.82227 10.771,-10.7714 l 0,-113.3866 c 0,-5.949 -4.822,-10.771 -10.771,-10.771 l -240.9446,0 c -5.94915,0 -10.7724,4.822 -10.7724,10.771 l 0,113.3866 z"
       id="path13-4" /><path
       inkscape:connector-curvature="0"
       style="fill:#ef7c23;fill-rule:nonzero;stroke:none"
       d="m -438.44931,-679.90782 c 0,3.1308 2.53811,5.6689 5.66991,5.6689 l 240.9441,0 c 3.132,0 5.67,-2.5381 5.67,-5.6689 l 0,-113.3861 c 0,-3.13 -2.538,-5.669 -5.67,-5.669 l -240.9441,0 c -3.1318,0 -5.66991,2.539 -5.66991,5.669 l 0,113.3861 z"
       id="path15-0" /><g
       transform="matrix(1,0,0,-1,-447.35653,-665.56311)"
       id="Background"
       style="fill:#000000"><g
         id="Group1"
         clip-path="url(#Clip0-174-5)"
         style="fill:#000000"><path
           inkscape:connector-curvature="0"
           style="fill:#000000;fill-rule:nonzero;stroke:none"
           d="m 0,0 0,35.4336 21.6133,0 0,-5.2089 -16.1924,0 L 5.4209,0 0,0 z"
           transform="translate(39.373,26.3896)"
           id="path17-7" /><path
           inkscape:connector-curvature="0"
           style="fill:#000000;fill-rule:evenodd;stroke:none"
           d="m 12.4727,36.8145 c 4.5586,0 7.8662,-1.9609 9.9209,-5.8818 C 24,27.8623 24.8038,23.6807 24.8038,18.3897 24.8038,13.0274 23.752,8.669 21.6495,5.3145 19.4288,1.7715 16.3702,0 12.4727,0 4.1573,0 0,6.1299 0,18.3897 c 0,6.2598 1.1573,10.96 3.4727,14.1025 2.126,2.8819 5.126,4.3223 9,4.3223 z m 0,-5.5986 c -4.6299,0 -6.9453,-4.2754 -6.9453,-12.8262 0,-4.4649 0.5908,-7.7129 1.7715,-9.7442 1.1103,-1.9375 2.8349,-2.9052 5.1738,-2.9052 4.3936,0 6.5908,4.2158 6.5908,12.6494 0,4.4883 -0.5439,7.7715 -1.6308,9.8506 -1.0625,1.9834 -2.7159,2.9756 -4.96,2.9756 z"
           transform="translate(67.4355,25.6816)"
           id="path19-1" /><path
           inkscape:connector-curvature="0"
           style="fill:#000000;fill-rule:nonzero;stroke:none"
           d="m 17.9642,9.7442 5.209,-1.7725 C 22.2512,5.5625 20.8342,3.6377 18.9212,2.1963 17.0082,0.7315 14.8692,0 12.5082,0 4.1692,0 0,6.4248 0,19.2754 c 0,4.7715 0.92,8.7285 2.7632,11.8701 2.22,3.7793 5.468,5.669 9.745,5.669 2.975,0 5.586,-1.0625 7.83,-3.1885 2.244,-2.1494 3.366,-4.6894 3.366,-7.6181 l 0,-7.4063 -11.516,0 0,5.5986 6.024,0 0,2.2676 c 0,0.9688 -0.543,1.9961 -1.63,3.083 -1.205,1.2285 -2.492,1.8428 -3.862,1.8428 -2.528,0 -4.417,-1.2764 -5.669,-3.8272 -1.04,-2.1025 -1.56,-4.83 -1.56,-8.1845 0,-3.8506 0.319,-6.7676 0.957,-8.752 1.039,-3.2832 3.035,-4.9258 5.988,-4.9258 1.323,0 2.446,0.3663 3.367,1.0987 0.732,0.6142 1.453,1.5947 2.161,2.9414 z"
           transform="translate(99.0068,25.6816)"
           id="path21" /><path
           inkscape:connector-curvature="0"
           style="fill:#000000;fill-rule:nonzero;stroke:none"
           d="M 17.964,9.7442 23.173,7.9717 C 22.251,5.5625 20.834,3.6377 18.921,2.1963 17.008,0.7315 14.87,0 12.508,0 4.169,0 0,6.4248 0,19.2754 c 0,4.7715 0.921,8.7285 2.763,11.8701 2.221,3.7793 5.469,5.669 9.745,5.669 2.977,0 5.586,-1.0625 7.83,-3.1885 2.244,-2.1494 3.366,-4.6894 3.366,-7.6181 l 0,-7.4063 -11.515,0 0,5.5986 6.023,0 0,2.2676 c 0,0.9688 -0.543,1.9961 -1.63,3.083 -1.205,1.2285 -2.492,1.8428 -3.862,1.8428 -2.527,0 -4.417,-1.2764 -5.669,-3.8272 -1.039,-2.1025 -1.559,-4.83 -1.559,-8.1845 0,-3.8506 0.319,-6.7676 0.956,-8.752 1.039,-3.2832 3.036,-4.9258 5.989,-4.9258 1.322,0 2.445,0.3663 3.366,1.0987 0.732,0.6142 1.453,1.5947 2.161,2.9414 z"
           transform="translate(129.16,25.6816)"
           id="path23" /><path
           inkscape:connector-curvature="0"
           style="fill:#000000;fill-rule:nonzero;stroke:none"
           d="m 0,35.4336 5.562,0 L 5.562,0 0,0 0,35.4336 z"
           transform="translate(161.085,26.3896)"
           id="path25" /><path
           inkscape:connector-curvature="0"
           style="fill:#000000;fill-rule:nonzero;stroke:none"
           d="m 0,0 0,35.4336 5.492,0 0,-22.8896 13.465,22.8896 4.748,0 0,-35.4336 -5.599,0 0,23.0674 L 4.642,0 0,0 z"
           transform="translate(174.938,26.3896)"
           id="path27" /><path
           inkscape:connector-curvature="0"
           style="fill:#000000;fill-rule:nonzero;stroke:none"
           d="M 17.964,9.7442 23.173,7.9717 C 22.251,5.5625 20.834,3.6377 18.921,2.1963 17.008,0.7315 14.869,0 12.508,0 4.169,0 0,6.4248 0,19.2754 c 0,4.7715 0.92,8.7285 2.763,11.8701 2.22,3.7793 5.468,5.669 9.745,5.669 2.975,0 5.586,-1.0625 7.83,-3.1885 2.244,-2.1494 3.366,-4.6894 3.366,-7.6181 l 0,-7.4063 -11.516,0 0,5.5986 6.024,0 0,2.2676 c 0,0.9688 -0.543,1.9961 -1.63,3.083 -1.205,1.2285 -2.492,1.8428 -3.862,1.8428 -2.528,0 -4.417,-1.2764 -5.669,-3.8272 -1.039,-2.1025 -1.559,-4.83 -1.559,-8.1845 0,-3.8506 0.318,-6.7676 0.956,-8.752 1.039,-3.2832 3.035,-4.9258 5.988,-4.9258 1.323,0 2.446,0.3663 3.367,1.0987 0.732,0.6142 1.453,1.5947 2.161,2.9414 z"
           transform="translate(207.005,25.6816)"
           id="path29" /><path
           inkscape:connector-curvature="0"
           style="fill:#000000;fill-rule:nonzero;stroke:none"
           d="m 0,0 0,5.209 8.1494,0 0,30.224 5.3506,0 0,-30.224 8.1132,0 0,-5.209 L 0,0 z"
           transform="translate(46.46,80.248)"
           id="path31" /><path
           inkscape:connector-curvature="0"
           style="fill:#000000;fill-rule:evenodd;stroke:none"
           d="m 5.3858,5.5274 7.4414,0 c 1.1562,0 2.1845,0.4023 3.082,1.2051 0.9209,0.8027 1.3818,1.748 1.3818,2.834 0,1.1582 -0.4013,2.2089 -1.2041,3.1543 -0.875,0.9921 -1.8906,1.4873 -3.0478,1.4873 l -7.6533,0 0,-8.6807 z M 0,0 l 0,35.433 5.3858,0 0,-15.52 6.8379,0 5.7402,15.52 5.7402,0 -6.3418,-16.724 c 3.5196,-2.2685 5.2793,-5.1738 5.2793,-8.7168 0,-2.6689 -0.9453,-4.9961 -2.8349,-6.9804 C 17.9404,1.004 15.7207,0 13.1455,0 L 0,0 z"
           transform="translate(74.5576,80.248)"
           id="path33" /><path
           inkscape:connector-curvature="0"
           style="fill:#000000;fill-rule:nonzero;stroke:none"
           d="m 0,24.52 c 0,3.047 1.169,5.74 3.508,8.079 2.339,2.339 5.126,3.507 8.362,3.507 3.449,0 6.283,-1.157 8.504,-3.472 2.221,-2.316 3.331,-5.161 3.331,-8.539 l 0,-24.095 -5.422,0 0,24.839 c 0,1.63 -0.673,3 -2.018,4.109 -1.253,1.04 -2.718,1.56 -4.395,1.56 -1.653,0 -3.118,-0.614 -4.394,-1.843 C 6.2,27.437 5.563,26.055 5.563,24.52 L 5.563,0 0,0 0,24.52 z"
           transform="translate(106.588,80.248)"
           id="path35" /><path
           inkscape:connector-curvature="0"
           style="fill:#000000;fill-rule:nonzero;stroke:none"
           d="M 18.236,9.3906 23.409,7.1572 C 21.212,2.3867 17.48,0 12.212,0 7.842,0 4.594,2.1728 2.468,6.5195 0.815,9.874 0,13.9375 0.024,18.7089 c 0.023,4.866 0.992,8.93 2.905,12.189 2.339,3.945 5.717,5.917 10.134,5.917 2.575,0 4.819,-0.803 6.732,-2.41 1.795,-1.535 3.082,-3.613 3.862,-6.235 l -5.209,-1.312 c -0.401,1.111 -1.192,2.126 -2.374,3.047 -1.157,0.922 -2.255,1.383 -3.295,1.383 -2.622,0 -4.606,-1.5 -5.953,-4.5 -1.015,-2.292 -1.523,-4.902 -1.523,-7.8309 0,-3.4014 0.425,-6.2129 1.275,-8.4336 1.252,-3.3535 3.343,-5.0312 6.272,-5.0312 1.3,0 2.362,0.3193 3.189,0.957 0.826,0.6142 1.559,1.5937 2.197,2.9414 z"
           transform="translate(138.702,79.5391)"
           id="path37" /><path
           inkscape:connector-curvature="0"
           style="fill:#000000;fill-rule:nonzero;stroke:none"
           d="m 0,0 0,35.433 5.422,0 0,-12.367 3.613,-4.357 9.142,16.724 6.272,0 L 12.756,14.0313 23.811,0 16.796,0 5.422,14.3858 5.422,0 0,0 z"
           transform="translate(168.878,80.248)"
           id="path39" /><path
           inkscape:connector-curvature="0"
           style="fill:#000000;fill-rule:nonzero;stroke:none"
           d="m 0,27.7089 c 0.92,2.646 2.693,4.866 5.315,6.661 2.409,1.63 4.76,2.445 7.051,2.445 3.449,0 6.201,-1.062 8.256,-3.189 2.055,-2.126 3.083,-4.878 3.083,-8.256 0,-2.22 -0.626,-4.204 -1.878,-5.952 C 20.693,17.8828 19.158,16.6425 17.22,15.6972 16.346,15.2724 15.036,14.9765 13.288,14.8115 11.302,14.5986 10.04,14.4101 9.496,14.2441 8.787,14.0322 8.172,13.583 7.653,12.8984 7.133,12.1894 6.874,11.4453 6.874,10.666 6.874,9.4375 7.37,8.291 8.362,7.2285 9.377,6.1416 10.546,5.622 11.87,5.6699 c 2.788,0.0703 4.571,1.2988 5.35,3.6846 L 22.464,7.7597 C 21.449,5.0908 20.137,3.1298 18.532,1.8779 16.949,0.6269 14.941,0 12.507,0 c -3,0 -5.562,1.0048 -7.688,3.0117 -2.221,2.126 -3.331,4.831 -3.331,8.1142 0,2.6934 0.945,4.8428 2.835,6.4493 1.701,1.4414 3.413,2.2558 5.137,2.4453 3.378,0.3779 5.729,1.0504 7.051,2.0194 1.229,0.921 1.843,2.326 1.843,4.216 0,1.205 -0.543,2.327 -1.63,3.366 -1.063,1.017 -2.161,1.525 -3.295,1.525 -2.055,0 -3.674,-0.378 -4.854,-1.135 -1.158,-0.755 -2.233,-2.125 -3.225,-4.11 L 0,27.7089 z"
           transform="translate(199.811,79.5391)"
           id="path41" /></g></g></g></svg>