<?xml version="1.0" encoding="UTF-8" standalone="no"?>
<!-- Created with Inkscape (http://www.inkscape.org/) -->

<svg
   xmlns:dc="http://purl.org/dc/elements/1.1/"
   xmlns:cc="http://creativecommons.org/ns#"
   xmlns:rdf="http://www.w3.org/1999/02/22-rdf-syntax-ns#"
   xmlns:svg="http://www.w3.org/2000/svg"
   xmlns="http://www.w3.org/2000/svg"
   xmlns:sodipodi="http://sodipodi.sourceforge.net/DTD/sodipodi-0.dtd"
   xmlns:inkscape="http://www.inkscape.org/namespaces/inkscape"
   width="360.6268"
   height="574.21039"
   id="svg2"
   sodipodi:version="0.32"
   inkscape:version="0.48.2 r9819"
   version="1.0"
   sodipodi:docname="AJAX1.svg"
   inkscape:output_extension="org.inkscape.output.svg.inkscape">
  <defs
     id="defs4">
    <inkscape:perspective
       sodipodi:type="inkscape:persp3d"
       inkscape:vp_x="0 : 300.5 : 1"
       inkscape:vp_y="0 : 1000 : 0"
       inkscape:vp_z="601 : 300.5 : 1"
       inkscape:persp3d-origin="300.5 : 200.33333 : 1"
       id="perspective3380" />
    <inkscape:perspective
       id="perspective3990"
       inkscape:persp3d-origin="375 : 250 : 1"
       inkscape:vp_z="750 : 375 : 1"
       inkscape:vp_y="0 : 1000 : 0"
       inkscape:vp_x="0 : 375 : 1"
       sodipodi:type="inkscape:persp3d" />
  </defs>
  <sodipodi:namedview
     id="base"
     pagecolor="#ffffff"
     bordercolor="#666666"
     borderopacity="1.0"
     gridtolerance="10000"
     guidetolerance="10"
     objecttolerance="10"
     inkscape:pageopacity="0.0"
     inkscape:pageshadow="2"
     inkscape:zoom="1.0529557"
     inkscape:cx="307.70592"
     inkscape:cy="344.61568"
     inkscape:document-units="px"
     inkscape:current-layer="layer1"
     width="601px"
     height="601px"
     inkscape:window-width="1280"
     inkscape:window-height="1004"
     inkscape:window-x="-8"
     inkscape:window-y="-8"
     showgrid="false"
     fit-margin-top="0"
     fit-margin-left="0"
     fit-margin-right="0"
     fit-margin-bottom="0"
     inkscape:window-maximized="1"
     showguides="true"
     inkscape:guide-bbox="true" />
  <metadata
     id="metadata7">
    <rdf:RDF>
      <cc:Work
         rdf:about="">
        <dc:format>image/svg+xml</dc:format>
        <dc:type
           rdf:resource="http://purl.org/dc/dcmitype/StillImage" />
        <dc:title />
      </cc:Work>
    </rdf:RDF>
  </metadata>
  <g
     inkscape:label="Layer 1"
     inkscape:groupmode="layer"
     id="layer1"
     transform="translate(-1.9898943,-137.46001)">
    <rect
       style="color:#000000;fill:#000000;fill-opacity:1;fill-rule:nonzero;stroke:none;stroke-width:0.8735441;marker:none;visibility:visible;display:inline;overflow:visible"
       id="rect3653"
       width="0"
       height="27.202072"
       x="578.73834"
       y="298.1684"
       rx="249.48199"
       ry="27.202072" />
    <path
       inkscape:connector-curvature="0"
       style="fill:#ffdb00;fill-rule:nonzero;stroke:none"
       d="m 357.2412,304.78958 c 7.1675,7.16625 7.1675,18.78625 -10e-4,25.9525 l -161.9625,161.955 c -7.1675,7.16625 -18.78875,7.16625 -25.95625,0 L 7.3654087,330.74208 c -7.16796247,-7.16625 -7.16674247,-18.78625 0,-25.9525 L 169.3287,142.83506 c 7.16875,-7.16674 18.78875,-7.16674 25.95625,0 L 357.2412,304.78958 z"
       id="path11" />
    <path
       inkscape:connector-curvature="0"
       style="fill:#000000;fill-rule:nonzero;stroke:none"
       d="m 10.174259,327.30046 c -5.1196378,-5.11875 -5.1196378,-13.42 0,-18.54 L 173.03087,145.90635 c 5.12125,-5.11964 13.4225,-5.11964 18.54125,0 l 162.86125,162.85411 c 5.12,5.12 5.12,13.42125 0,18.54 l -162.8575,162.855 c -5.11875,5.11875 -13.42,5.11875 -18.54,0 L 10.174259,327.30046 z"
       id="path13" />
    <path
       inkscape:connector-curvature="0"
       style="fill:#ffdb00;fill-rule:nonzero;stroke:none"
       d="m 14.534596,322.4479 c -2.490225,-2.4925 -2.490225,-6.53 0,-9.02 L 177.39312,150.57312 c 2.49,-2.49147 6.52875,-2.49147 9.01875,0 L 349.27312,313.4279 c 2.49125,2.49 2.49125,6.5275 0,9.02 l -162.8575,162.8525 c -2.49,2.49125 -6.52875,2.49125 -9.02,0 L 14.534596,322.4479 z"
       id="path15" />
    <path
       inkscape:connector-curvature="0"
       style="fill:#000000;fill-rule:nonzero;stroke:none"
       d="m 160.15785,370.35262 -26.57375,44.29125 -22.78,-13.6875 22.78,-37.96 0,-91.58763 -22.78,-37.95962 22.78,-13.68775 26.57375,44.29237 0,106.29888 z"
       id="path17" />
    <path
       inkscape:connector-curvature="0"
       style="fill:#000000;fill-rule:nonzero;stroke:none"
       d="m 204.4491,370.35262 0,-106.29888 26.575,-44.29237 22.77875,13.68775 -22.77875,37.95962 0,91.58763 22.77875,37.96 -22.77875,13.6875 -26.575,-44.29125 z"
       id="path19" />
    <path
       inkscape:connector-curvature="0"
       style="fill:#ffdb00;fill-rule:nonzero;stroke:none"
       d="m 49.428894,516.78887 c 0,-9.78512 7.9309,-17.71724 17.71599,-17.71724 l 230.315246,0 c 9.785,0 17.715,7.93212 17.715,17.71724 l 0,177.16527 c 0,9.78375 -7.93,17.71625 -17.715,17.71625 l -230.315246,0 c -9.78509,0 -17.71599,-7.9325 -17.71599,-17.71625 l 0,-177.16527 z"
       id="path11-1" />
    <path
       inkscape:connector-curvature="0"
       style="fill:#000000;fill-rule:nonzero;stroke:none"
       d="m 53.326594,516.78895 c 0,-7.63187 6.18652,-13.81962 13.81825,-13.81962 l 230.315486,0 c 7.63125,0 13.81875,6.18775 13.81875,13.81962 l 0,177.16539 c 0,7.6325 -6.1875,13.81875 -13.81875,13.81875 l -230.315486,0 c -7.63173,0 -13.81825,-6.18625 -13.81825,-13.81875 l 0,-177.16539 z"
       id="path13-7" />
    <path
       inkscape:connector-curvature="0"
       style="fill:#ffdb00;fill-rule:nonzero;stroke:none"
       d="m 59.349544,516.78891 c 0,-4.30538 3.48997,-7.79541 7.79535,-7.79541 l 230.315886,0 c 4.305,0 7.795,3.49003 7.795,7.79541 l 0,177.1646 c 0,4.30499 -3.49,7.79625 -7.795,7.79625 l -230.315886,0 c -4.30538,0 -7.79535,-3.49126 -7.79535,-7.79625 l 0,-177.1646 z"
       id="path15-4" />
    <path
       inkscape:connector-curvature="0"
       style="fill:#000000;fill-rule:nonzero;stroke:none"
       d="m 104.20789,543.21716 5.17337,-2.23275 c -2.19725,-4.77162 -5.929,-7.15687 -11.197497,-7.15687 -4.37012,0 -7.61712,2.17275 -9.74362,6.51849 -1.65413,3.35451 -2.468249,7.41825 -2.445129,12.19001 0.0232,4.86562 0.992499,8.92937 2.906499,12.18862 2.33763,3.94537 5.71538,5.91676 10.13313,5.91676 2.574367,0 4.819247,-0.80312 6.732117,-2.40963 1.79563,-1.53438 3.08225,-3.61325 3.86238,-6.23538 l -5.20875,-1.311 c -0.40163,1.11088 -1.19263,2.12525 -2.37438,3.04687 -1.15712,0.92163 -2.25575,1.38188 -3.294617,1.38188 -2.62213,0 -4.60688,-1.49912 -5.95338,-4.49962 -1.01562,-2.29126 -1.52337,-4.90225 -1.52337,-7.83075 0,-3.40213 0.42475,-6.21213 1.27562,-8.43263 1.25238,-3.3545 3.34225,-5.03175 6.27188,-5.03175 1.298867,0 2.362117,0.31863 3.188497,0.95588 0.82762,0.61399 1.55887,1.59425 2.19725,2.94187 z"
       id="path17-0" />
    <path
       inkscape:connector-curvature="0"
       style="fill:#000000;fill-rule:evenodd;stroke:none"
       d="m 126.06951,534.53554 -12.01175,35.39788 5.918,0 3.25925,-9.99263 11.33913,0 3.47287,9.99263 5.73975,0 -12.11912,-35.39788 -5.59813,0 z m 6.41363,19.73625 -7.22788,0 3.5425,-10.55901 3.68538,10.55901 z"
       id="path19-9" />
    <path
       inkscape:connector-curvature="0"
       style="fill:#000000;fill-rule:nonzero;stroke:none"
       d="m 150.09413,559.05453 c 0,3.04813 1.16825,5.74101 3.50713,8.07988 2.33887,2.33764 5.12575,3.50701 8.36175,3.50701 3.44975,0 6.28425,-1.15725 8.50475,-3.47164 2.22037,-2.31574 3.33012,-5.16112 3.33012,-8.53999 l 0,-24.09425 -5.42125,0 0,24.83887 c 0,1.62962 -0.67262,3.00038 -2.019,4.11 -1.2525,1.04013 -2.71737,1.55888 -4.39462,1.55888 -1.65275,0 -3.11763,-0.61401 -4.39325,-1.84201 -1.27563,-1.22924 -1.91288,-2.61112 -1.91288,-4.14675 l 0,-24.51899 -5.56275,0 0,24.51899 z"
       id="path21" />
    <path
       inkscape:connector-curvature="0"
       style="fill:#000000;fill-rule:nonzero;stroke:none"
       d="m 180.21163,534.53554 0,5.20875 8.14875,0 0,30.22451 5.3525,0 0,-30.22451 8.1125,0 0,-5.20875 -21.61375,0 z"
       id="path23" />
    <path
       inkscape:connector-curvature="0"
       style="fill:#000000;fill-rule:nonzero;stroke:none"
       d="m 208.23913,569.9688 5.5625,0 0,-35.43326 -5.5625,0 0,35.43326 z"
       id="path25" />
    <path
       inkscape:connector-curvature="0"
       style="fill:#000000;fill-rule:evenodd;stroke:none"
       d="m 234.56413,570.64142 c 4.56,0 7.86625,-1.96038 9.9225,-5.88126 1.60625,-3.07138 2.40875,-7.25225 2.40875,-12.544 0,-5.36137 -1.05125,-9.7205 -3.15375,-13.07375 -2.22,-3.54362 -5.28,-5.31487 -9.1775,-5.31487 -8.31375,0 -12.47125,6.12912 -12.47125,18.38862 0,6.261 1.15625,10.96075 3.47125,14.10275 2.12625,2.88214 5.1275,4.32251 9,4.32251 z m 0,-5.59813 c -4.63,0 -6.94375,-4.27488 -6.94375,-12.82713 0,-4.46412 0.59,-7.71237 1.77125,-9.74362 1.11,-1.93725 2.83375,-2.90525 5.1725,-2.90525 4.395,0 6.59125,4.21625 6.59125,12.64887 0,4.4885 -0.54375,7.77225 -1.63,9.85113 -1.06375,1.98362 -2.71625,2.976 -4.96125,2.976 z"
       id="path27" />
    <path
       inkscape:connector-curvature="0"
       style="fill:#000000;fill-rule:nonzero;stroke:none"
       d="m 254.97288,534.53554 0,35.43326 5.4925,0 0,-22.89064 13.46375,22.89064 4.74875,0 0,-35.43326 -5.5975,0 0,23.06637 -13.465,-23.06637 -4.6425,0 z"
       id="path29" />
    <path
       inkscape:connector-curvature="0"
       style="fill:#000000;fill-rule:nonzero;stroke:none"
       d="m 129.86101,587.68492 5.03175,35.43288 5.03175,0 5.59813,-22.25175 5.56274,22.25175 5.06713,0 4.9255,-35.43288 -5.59813,0 -2.69412,18.5315 -4.60563,-18.5315 -5.03174,0 -5.03175,18.5315 -2.69163,-18.5315 -5.564,0 z"
       id="path31" />
    <path
       inkscape:connector-curvature="0"
       style="fill:#000000;fill-rule:nonzero;stroke:none"
       d="m 167.527,623.1178 5.56275,0 0,-35.43288 -5.56275,0 0,35.43288 z"
       id="path33" />
    <path
       inkscape:connector-curvature="0"
       style="fill:#000000;fill-rule:evenodd;stroke:none"
       d="m 181.20413,587.68492 0,35.43288 9.885,0 c 4.22875,0 7.665,-1.877 10.31125,-5.63313 2.3375,-3.30687 3.5075,-7.1105 3.5075,-11.40987 0,-5.481 -1.21625,-9.88525 -3.64875,-13.2165 -2.505,-3.44851 -5.895,-5.17338 -10.17,-5.17338 l -9.885,0 z m 5.5975,29.69362 0,-24.16624 4.075,0 c 3.095,0 5.38625,1.52337 6.87375,4.5715 1.13375,2.29125 1.7,5.05487 1.7,8.291 0,2.50362 -0.60125,4.84249 -1.80625,7.01537 -1.60625,2.85887 -3.8625,4.28837 -6.7675,4.28837 l -4.075,0 z"
       id="path35" />
    <path
       inkscape:connector-curvature="0"
       style="fill:#000000;fill-rule:nonzero;stroke:none"
       d="m 213.12788,587.68492 0,35.43288 21.61375,0 0,-5.52688 -16.1225,0 0,-9.99262 10.3475,0 0,-5.52738 -10.3475,0 0,-8.717 14.8125,0 0,-5.669 -20.30375,0 z"
       id="path37" />
    <path
       inkscape:connector-curvature="0"
       style="fill:#000000;fill-rule:nonzero;stroke:none"
       d="m 85.428644,676.2678 4.428749,0 10.771497,-35.43376 -5.527377,0 -7.47687,24.13125 -7.723379,-24.13124 -5.84712,0 11.3745,35.43375 z"
       id="path39" />
    <path
       inkscape:connector-curvature="0"
       style="fill:#000000;fill-rule:nonzero;stroke:none"
       d="m 106.93501,640.83405 0,35.43375 21.61375,0 0,-5.52751 -16.12062,0 0,-9.99249 10.3455,0 0,-5.52751 -10.3455,0 0,-8.71749 14.81075,0 0,-5.66876 -20.30388,0 z"
       id="path41" />
    <path
       inkscape:connector-curvature="0"
       style="fill:#000000;fill-rule:nonzero;stroke:none"
       d="m 135.03314,640.83405 0,35.43375 5.42112,0 0,-15.52 12.721,0 0,15.52 5.56275,0 0,-35.43376 -5.56275,0 0,14.0325 -12.721,0 0,-14.0325 -5.42112,0 z"
       id="path43" />
    <path
       inkscape:connector-curvature="0"
       style="fill:#000000;fill-rule:nonzero;stroke:none"
       d="m 167.029,676.2678 5.56275,0 0,-35.43376 -5.56275,0 0,35.43376 z"
       id="path45" />
    <path
       inkscape:connector-curvature="0"
       style="fill:#000000;fill-rule:nonzero;stroke:none"
       d="m 198.98913,649.51654 5.1725,-2.23375 c -2.19625,-4.77125 -5.92875,-7.15625 -11.19625,-7.15625 -4.37,0 -7.61875,2.17251 -9.74375,6.52 -1.65375,3.3525 -2.47,7.41626 -2.445,12.18875 0.0225,4.86501 0.9925,8.92876 2.905,12.18876 2.33875,3.94499 5.71625,5.91625 10.135,5.91625 2.57375,0 4.8175,-0.8025 6.73125,-2.40876 1.795,-1.535 3.0825,-3.61375 3.8625,-6.23625 l -5.20875,-1.31125 c -0.40125,1.11125 -1.1925,2.12625 -2.37375,3.0475 -1.1575,0.92125 -2.25625,1.38125 -3.295,1.38125 -2.6225,0 -4.6075,-1.49874 -5.95375,-4.49874 -1.015,-2.29125 -1.5225,-4.90125 -1.5225,-7.83126 0,-3.4025 0.42375,-6.2125 1.275,-8.4325 1.25125,-3.355 3.3425,-5.0325 6.2725,-5.0325 1.29875,0 2.36125,0.31875 3.1875,0.95751 0.8275,0.61374 1.55875,1.59375 2.1975,2.94124 z"
       id="path47" />
    <path
       inkscape:connector-curvature="0"
       style="fill:#000000;fill-rule:nonzero;stroke:none"
       d="m 210.75163,640.83405 0,35.43375 21.61375,0 0,-5.20876 -16.19125,0 0,-30.225 -5.4225,0 z"
       id="path49" />
    <path
       inkscape:connector-curvature="0"
       style="fill:#000000;fill-rule:nonzero;stroke:none"
       d="m 238.92288,640.83405 0,35.43375 21.61375,0 0,-5.52751 -16.1225,0 0,-9.99249 10.345,0 0,-5.52751 -10.345,0 0,-8.71749 14.81125,0 0,-5.66876 -20.3025,0 z"
       id="path51" />
    <path
       inkscape:connector-curvature="0"
       style="fill:#000000;fill-rule:nonzero;stroke:none"
       d="m 266.84288,667.83529 c 0.92125,2.645 2.6925,4.86501 5.315,6.66125 2.40875,1.63 4.76,2.44376 7.05125,2.44376 3.44875,0 6.2,-1.0625 8.25625,-3.18876 2.055,-2.125 3.08125,-4.8775 3.08125,-8.255 0,-2.22125 -0.62625,-4.20499 -1.8775,-5.95249 -1.13375,-1.53625 -2.6675,-2.77625 -4.605,-3.72125 -0.875,-0.42501 -2.185,-0.72001 -3.93375,-0.88626 -1.985,-0.21125 -3.2475,-0.40125 -3.79125,-0.5675 -0.70875,-0.2125 -1.3225,-0.66 -1.8425,-1.34499 -0.52,-0.70875 -0.78,-1.45375 -0.78,-2.2325 0,-1.22751 0.49625,-2.37376 1.48875,-3.4375 1.015,-1.08625 2.185,-1.60625 3.5075,-1.55876 2.7875,0.0713 4.57125,1.3 5.35125,3.685 l 5.2425,-1.59375 c -1.01375,-2.66999 -2.325,-4.63 -3.93125,-5.8825 -1.58375,-1.25124 -3.59125,-1.8775 -6.025,-1.8775 -3,0 -5.5625,1.00375 -7.68875,3.01126 -2.22,2.125 -3.33,4.82999 -3.33,8.11374 0,2.69376 0.945,4.8425 2.83375,6.44876 1.70125,1.4425 3.41375,2.25624 5.13875,2.44499 3.3775,0.37875 5.72875,1.05125 7.05,2.02 1.22875,0.92125 1.8425,2.3275 1.8425,4.21751 0,1.20375 -0.54375,2.32624 -1.63,3.365 -1.0625,1.01625 -2.16,1.52374 -3.29375,1.52374 -2.05625,0 -3.67375,-0.37749 -4.855,-1.13249 -1.1575,-0.75751 -2.2325,-2.12751 -3.225,-4.11 l -5.35,1.80624 z"
       id="path53" />
  </g>
</svg>
