<?xml version="1.0" encoding="UTF-8" standalone="no"?>
<!-- Created with Inkscape (http://www.inkscape.org/) -->

<svg
   xmlns:dc="http://purl.org/dc/elements/1.1/"
   xmlns:cc="http://creativecommons.org/ns#"
   xmlns:rdf="http://www.w3.org/1999/02/22-rdf-syntax-ns#"
   xmlns:svg="http://www.w3.org/2000/svg"
   xmlns="http://www.w3.org/2000/svg"
   xmlns:sodipodi="http://sodipodi.sourceforge.net/DTD/sodipodi-0.dtd"
   xmlns:inkscape="http://www.inkscape.org/namespaces/inkscape"
   id="svg17624"
   version="1.1"
   inkscape:version="0.48.2 r9819"
   width="360.6268"
   height="574.2088"
   xml:space="preserve"
   sodipodi:docname="AJAX1.svg"><metadata
     id="metadata17630"><rdf:RDF><cc:Work
         rdf:about=""><dc:format>image/svg+xml</dc:format><dc:type
           rdf:resource="http://purl.org/dc/dcmitype/StillImage" /><dc:title /></cc:Work></rdf:RDF></metadata><defs
     id="defs17628"><inkscape:perspective
       sodipodi:type="inkscape:persp3d"
       inkscape:vp_x="0 : 0.5 : 1"
       inkscape:vp_y="0 : 1000 : 0"
       inkscape:vp_z="1 : 0.5 : 1"
       inkscape:persp3d-origin="0.5 : 0.33333333 : 1"
       id="perspective17632" /><clipPath
       clipPathUnits="userSpaceOnUse"
       id="clipPath17642"><path
         d="m -2,710 501,0 0,-711 -501,0 0,711 z"
         id="path17644"
         inkscape:connector-curvature="0" /></clipPath><clipPath
       clipPathUnits="userSpaceOnUse"
       id="clipPath17648"><path
         d="m 0,708.06 498,0 0,-708 -498,0 0,708 z"
         id="path17650"
         inkscape:connector-curvature="0" /></clipPath><clipPath
       clipPathUnits="userSpaceOnUse"
       id="clipPath17798"><path
         d="m -2,710 501,0 0,-711 -501,0 0,711 z"
         id="path17800"
         inkscape:connector-curvature="0" /></clipPath><clipPath
       clipPathUnits="userSpaceOnUse"
       id="clipPath17804"><path
         d="m 0,708.06 498,0 0,-708 -498,0 0,708 z"
         id="path17806"
         inkscape:connector-curvature="0" /></clipPath></defs><sodipodi:namedview
     pagecolor="#ffffff"
     bordercolor="#666666"
     borderopacity="1"
     objecttolerance="10"
     gridtolerance="10"
     guidetolerance="10"
     inkscape:pageopacity="0"
     inkscape:pageshadow="2"
     inkscape:window-width="1280"
     inkscape:window-height="1004"
     id="namedview17626"
     showgrid="false"
     inkscape:zoom="1.0011299"
     inkscape:cx="295.31118"
     inkscape:cy="319.57071"
     inkscape:window-x="-8"
     inkscape:window-y="-8"
     inkscape:window-maximized="1"
     inkscape:current-layer="g17634"
     fit-margin-top="0"
     fit-margin-left="0"
     fit-margin-right="0"
     fit-margin-bottom="0"
     showguides="true"
     inkscape:guide-bbox="true" /><g
     id="g17634"
     inkscape:groupmode="layer"
     inkscape:label="GG1999P002"
     transform="matrix(1.25,0,0,-1.25,70.550293,613.8972)"><path
       inkscape:connector-curvature="0"
       style="fill:#c0111e;fill-opacity:1;fill-rule:nonzero;stroke:none"
       d="m 2.443766,116.78962 c 0,46.96681 38.0723,85.03911 85.0391,85.03911 46.966894,0 85.038894,-38.0723 85.038894,-85.03911 0,-46.965893 -38.072,-85.038893 -85.038894,-85.038893 -46.9668,0 -85.0391,38.073 -85.0391,85.038893 z"
       id="path11-4"
       sodipodi:nodetypes="sssss" /><path
       inkscape:connector-curvature="0"
       style="fill:#ffdb00;fill-rule:nonzero;stroke:none"
       d="m 227.76081,357.25411 c 5.734,-5.733 5.734,-15.029 -8e-4,-20.762 L 98.190014,206.9281 c -5.734,-5.733 -15.031,-5.733 -20.765,0 L -52.139824,336.49211 c -5.73437,5.733 -5.73339,15.029 0,20.762 l 129.570638,129.5636 c 5.735,5.7334 15.031,5.7334 20.765,0 L 227.76081,357.25411 z"
       id="path11-1" /><path
       inkscape:connector-curvature="0"
       style="fill:#000000;fill-rule:nonzero;stroke:none"
       d="m -49.892744,339.2454 c -4.09571,4.095 -4.09571,10.736 0,14.832 L 80.392554,484.36068 c 4.097,4.09571 10.738,4.09571 14.833,0 L 225.51455,354.0774 c 4.096,-4.096 4.096,-10.737 0,-14.832 L 95.228554,208.9614 c -4.095,-4.095 -10.736,-4.095 -14.832,0 l -130.289298,130.284 z"
       id="path13-7" /><path
       inkscape:connector-curvature="0"
       style="fill:#ffdb00;fill-rule:nonzero;stroke:none"
       d="m -46.404474,343.12745 c -1.99218,1.994 -1.99218,5.224 0,7.216 L 83.882354,480.62727 c 1.992,1.99317 5.223,1.99317 7.215,0 L 221.38635,350.34345 c 1.993,-1.992 1.993,-5.222 0,-7.216 L 91.100354,212.84544 c -1.992,-1.993 -5.223,-1.993 -7.216,0 L -46.404474,343.12745 z"
       id="path15-4" /><path
       inkscape:connector-curvature="0"
       style="fill:#000000;fill-rule:nonzero;stroke:none"
       d="m 70.094134,304.80367 -21.258998,-35.433 -18.224,10.95 18.224,30.368 0,73.27011 -18.224,30.36769 18.224,10.9502 21.258998,-35.4339 0,-85.0391 z"
       id="path17" /><path
       inkscape:connector-curvature="0"
       style="fill:#000000;fill-rule:nonzero;stroke:none"
       d="m 105.52713,304.80367 0,85.0391 21.26,35.4339 18.223,-10.9502 -18.223,-30.36769 0,-73.27011 18.223,-30.368 -18.223,-10.95 -21.26,35.433 z"
       id="path19" /><path
       sodipodi:nodetypes="sssss"
       inkscape:connector-curvature="0"
       id="path3039"
       d="m 87.481846,180.97885 c -35.22459,0 -64.2546,-28.97574 -64.2546,-64.20035 0,-35.223893 29.03001,-64.174853 64.2546,-64.174853 35.224914,0 64.175004,28.95096 64.175004,64.174853 0,35.22461 -28.9501,64.20035 -64.175004,64.20035 z"
       style="fill:#ffffff;fill-rule:nonzero;stroke:none" /><path
       id="path3041"
       d="m 48.098046,137.37165 c -0.6748,-0.2763 -1.4756,-0.2255 -2.1269,0.21 -1.0411,0.6953 -1.3213,2.1035 -0.626,3.1445 l 13.791,21.418 13.791,-21.418 c 0.6953,-1.041 0.416,-2.4492 -0.626,-3.1445 -0.6513,-0.4355 -1.4521,-0.4863 -2.1269,-0.21 l -5.3682,2.0948 0,-45.354203 -11.3398,0 0,45.354203 -5.3682,-2.0948 z"
       style="fill:#c0111e;fill-opacity:1;fill-rule:nonzero;stroke:none"
       inkscape:connector-curvature="0" /><path
       id="path3043"
       d="m 100.23965,99.782247 0,62.361903 17.0082,0 0,-62.361903 8.052,3.141203 c 1.736,0.7188 3.725,-0.1055 4.444,-1.8412 0.451,-1.089003 0.296,-2.278003 -0.315,-3.190003 l -20.685,-32.126 -20.686804,32.126 c -0.6094,0.912 -0.7656,2.101 -0.3135,3.190003 0.7188,1.7357 2.708,2.56 4.4434,1.8412 l 8.052704,-3.141203 z"
       style="fill:#000000;fill-rule:nonzero;stroke:none"
       inkscape:connector-curvature="0" /></g></svg>