<?xml version="1.0" encoding="UTF-8" standalone="no"?>
<!-- Created with Inkscape (http://www.inkscape.org/) -->

<svg
   xmlns:dc="http://purl.org/dc/elements/1.1/"
   xmlns:cc="http://creativecommons.org/ns#"
   xmlns:rdf="http://www.w3.org/1999/02/22-rdf-syntax-ns#"
   xmlns:svg="http://www.w3.org/2000/svg"
   xmlns="http://www.w3.org/2000/svg"
   xmlns:sodipodi="http://sodipodi.sourceforge.net/DTD/sodipodi-0.dtd"
   xmlns:inkscape="http://www.inkscape.org/namespaces/inkscape"
   id="svg17624"
   version="1.1"
   inkscape:version="0.48.2 r9819"
   width="360.62802"
   height="467.91046"
   xml:space="preserve"
   sodipodi:docname="cycle race.svg"><metadata
     id="metadata17630"><rdf:RDF><cc:Work
         rdf:about=""><dc:format>image/svg+xml</dc:format><dc:type
           rdf:resource="http://purl.org/dc/dcmitype/StillImage" /><dc:title></dc:title></cc:Work></rdf:RDF></metadata><defs
     id="defs17628"><inkscape:perspective
       sodipodi:type="inkscape:persp3d"
       inkscape:vp_x="0 : 0.5 : 1"
       inkscape:vp_y="0 : 1000 : 0"
       inkscape:vp_z="1 : 0.5 : 1"
       inkscape:persp3d-origin="0.5 : 0.33333333 : 1"
       id="perspective17632" /><clipPath
       clipPathUnits="userSpaceOnUse"
       id="clipPath17642"><path
         d="m -2,710 501,0 0,-711 -501,0 0,711 z"
         id="path17644"
         inkscape:connector-curvature="0" /></clipPath><clipPath
       clipPathUnits="userSpaceOnUse"
       id="clipPath17648"><path
         d="m 0,708.06 498,0 0,-708 -498,0 0,708 z"
         id="path17650"
         inkscape:connector-curvature="0" /></clipPath><clipPath
       clipPathUnits="userSpaceOnUse"
       id="clipPath17798"><path
         d="m -2,710 501,0 0,-711 -501,0 0,711 z"
         id="path17800"
         inkscape:connector-curvature="0" /></clipPath><clipPath
       clipPathUnits="userSpaceOnUse"
       id="clipPath17804"><path
         d="m 0,708.06 498,0 0,-708 -498,0 0,708 z"
         id="path17806"
         inkscape:connector-curvature="0" /></clipPath><clipPath
       id="Clip0"><path
         inkscape:connector-curvature="0"
         d="m 0,0 212.597,0 0,269.292 L 0,269.292 0,0 z"
         transform="translate(0.923828,0.879883)"
         id="path7" /></clipPath><clipPath
       id="Clip0-8"><path
         inkscape:connector-curvature="0"
         d="m 0,0 170.079,0 0,113.386 L 0,113.386 0,0 z"
         transform="translate(0.0986328,0.822266)"
         id="path7-8" /></clipPath><clipPath
       id="Clip0-1"><path
         inkscape:connector-curvature="0"
         d="m 0,0 287.009,0 0,159.449 L 0,159.449 0,0 z"
         transform="translate(0.396484,0.267578)"
         id="path7-7" /></clipPath><clipPath
       id="Clip0-17"><path
         inkscape:connector-curvature="0"
         d="m 0,0 340.157,0 0,170.079 L 0,170.079 0,0 z"
         transform="translate(0.289063,0.774414)"
         id="path7-4" /></clipPath><clipPath
       id="Clip0-174"><path
         inkscape:connector-curvature="0"
         d="m 0,0 269.291,0 0,85.039 L 0,85.039 0,0 z"
         transform="translate(0.899414,0.480469)"
         id="path7-0" /></clipPath></defs><sodipodi:namedview
     pagecolor="#ffffff"
     bordercolor="#666666"
     borderopacity="1"
     objecttolerance="10"
     gridtolerance="10"
     guidetolerance="10"
     inkscape:pageopacity="0"
     inkscape:pageshadow="2"
     inkscape:window-width="1280"
     inkscape:window-height="1004"
     id="namedview17626"
     showgrid="false"
     inkscape:zoom="1.0853633"
     inkscape:cx="205.20588"
     inkscape:cy="118.24791"
     inkscape:window-x="-8"
     inkscape:window-y="-8"
     inkscape:window-maximized="1"
     inkscape:current-layer="g17634"
     fit-margin-top="0"
     fit-margin-left="0"
     fit-margin-right="0"
     fit-margin-bottom="0"
     showguides="true"
     inkscape:guide-bbox="true" /><g
     id="g17634"
     inkscape:groupmode="layer"
     inkscape:label="GG1999P002"
     transform="matrix(1.25,0,0,-1.25,570.69351,-443.52204)"><path
       inkscape:connector-curvature="0"
       style="fill:#ef7c23;fill-rule:nonzero;stroke:none"
       d="m -172.35328,-488.68004 c 5.735,-5.734 5.734,-15.03 0,-20.764 l -129.571,-129.563 c -5.734,-5.733 -15.03,-5.733 -20.765,0 l -129.5656,129.563 c -5.7334,5.734 -5.7334,15.03 9.6e-4,20.764 l 129.57064,129.56163 c 5.735,5.73437 15.03,5.73437 20.765,0 l 129.565,-129.56163 z"
       id="path11" /><path
       inkscape:connector-curvature="0"
       style="fill:#000000;fill-rule:nonzero;stroke:none"
       d="m -450.00781,-506.68977 c -4.09571,4.095 -4.09571,10.736 0,14.832 l 130.28629,130.2833 c 4.096,4.0957 10.736,4.0957 14.833,0 l 130.288,-130.2833 c 4.097,-4.096 4.097,-10.737 0,-14.832 l -130.285,-130.283 c -4.097,-4.096 -10.737,-4.096 -14.833,0 l -130.28929,130.283 z"
       id="path13" /><path
       inkscape:connector-curvature="0"
       style="fill:#ef7c23;fill-rule:nonzero;stroke:none"
       d="m -446.19925,-502.71977 c -1.99313,1.992 -1.99313,5.222 0,7.215 l 130.28687,130.28287 c 1.992,1.99313 5.222,1.99313 7.215,0 l 130.289,-130.28287 c 1.993,-1.993 1.993,-5.223 8e-4,-7.215 l -130.287,-130.284 c -1.993,-1.993 -5.223,-1.993 -7.215,0 l -130.28967,130.284 z"
       id="path15" /><path
       inkscape:connector-curvature="0"
       style="fill:#000000;fill-rule:nonzero;stroke:none"
       d="m -337.10775,-580.1085 c 0,13.699 11.105,24.804 24.804,24.804 13.698,0 24.803,-11.105 24.803,-24.804 0,-13.698 -11.105,-24.803 -24.803,-24.803 -13.699,0 -24.804,11.105 -24.804,24.803 z"
       id="path17" /><path
       inkscape:connector-curvature="0"
       style="fill:#000000;fill-rule:nonzero;stroke:none"
       d="m -312.30375,-395.7141 c 17.612,0 31.89,-14.3028 31.89,-31.8897 0,-17.5752 -26.504,-116.9293 -26.504,-116.9293 l -10.773,0 c 0,0 -26.504,99.3541 -26.504,116.9293 0,17.5869 14.278,31.8897 31.891,31.8897 z"
       id="path19" /><path
       inkscape:connector-curvature="0"
       style="fill:#ef7c23;fill-rule:nonzero;stroke:none"
       d="m -446.95321,-658.27979 c 0,7.8271 6.34571,14.1728 14.1729,14.1728 l 240.9461,0 c 7.828,0 14.172,-6.3457 14.172,-14.1728 l 0,-56.6934 c 0,-7.8271 -6.344,-14.1728 -14.172,-14.1728 l -240.9461,0 c -7.82719,0 -14.1729,6.3457 -14.1729,14.1728 l 0,56.6934 z"
       id="path11-1" /><path
       inkscape:connector-curvature="0"
       style="fill:#000000;fill-rule:nonzero;stroke:none"
       d="m -444.11825,-658.27987 c 0,6.26175 5.07617,11.3389 11.3379,11.3389 l 240.9461,0 c 6.261,0 11.338,-5.07715 11.338,-11.3389 l 0,-56.6934 c 0,-6.2616 -5.077,-11.33871 -11.338,-11.33871 l -240.9461,0 c -6.26173,0 -11.3379,5.07711 -11.3379,11.33871 l 0,56.6934 z"
       id="path13-7" /><path
       inkscape:connector-curvature="0"
       style="fill:#ef7c23;fill-rule:nonzero;stroke:none"
       d="m -439.8663,-658.27982 c 0,3.9131 3.17287,7.08592 7.08687,7.08592 l 240.94513,0 c 3.914,0 7.086,-3.17282 7.086,-7.08592 l 0,-56.69338 c 0,-3.914 -3.172,-7.0859 -7.086,-7.0859 l -240.94513,0 c -3.914,0 -7.08687,3.1719 -7.08687,7.0859 l 0,56.69338 z"
       id="path15-4" /><path
       style="fill:#000000;fill-rule:nonzero;stroke:none"
       d="m -397.21203,-693.29253 c 0,-1.209 -0.3125,-2.2012 -0.9355,-2.9756 -0.624,-0.7754 -1.3984,-1.1631 -2.3242,-1.1631 -2.9297,0 -4.3936,3.7803 -4.3936,11.3389 0,2.4375 0.2168,4.4883 0.6514,6.1514 0.6992,2.6455 1.8994,3.9687 3.6006,3.9687 0.9062,0 1.7002,-0.3594 2.3808,-1.0771 0.6797,-0.7188 1.0205,-1.4844 1.0205,-2.2959 l 3.9405,0 c 0,2.2109 -0.6905,3.9961 -2.0694,5.3574 -1.3798,1.3789 -3.1377,2.0683 -5.2724,2.0683 -5.4805,0 -8.2207,-4.7236 -8.2207,-14.1728 0,-4.3086 0.41599,-7.6152 1.24699,-9.9209 1.3038,-3.5723 3.65631,-5.3574 7.0586,-5.3574 2.17291,0 3.93071,0.7177 5.27151,2.1543 1.3418,1.455 2.01269,3.4297 2.01269,5.9238 l -3.9678,0 z"
       id="path17-1"
       inkscape:connector-curvature="0" /><path
       style="fill:#000000;fill-rule:nonzero;stroke:none"
       d="m -390.09673,-672.48593 7.0576,-15.4775 0,-12.8691 4.167,0 0,12.8691 6.6621,15.4775 -4.2803,0 -4.5361,-10.0908 -4.6485,10.0908 -4.4218,0 z"
       id="path19-7"
       inkscape:connector-curvature="0" /><path
       style="fill:#000000;fill-rule:nonzero;stroke:none"
       d="m -355.82723,-693.29253 c 0,-1.209 -0.3115,-2.2012 -0.9346,-2.9756 -0.624,-0.7754 -1.3994,-1.1631 -2.3242,-1.1631 -2.9297,0 -4.3935,3.7803 -4.3935,11.3389 0,2.4375 0.2168,4.4883 0.6513,6.1514 0.6992,2.6455 1.8994,3.9687 3.5996,3.9687 0.9073,0 1.7012,-0.3594 2.3819,-1.0771 0.6797,-0.7188 1.0195,-1.4844 1.0195,-2.2959 l 3.9404,0 c 0,2.2109 -0.6894,3.9961 -2.0693,5.3574 -1.3789,1.3789 -3.1367,2.0683 -5.2725,2.0683 -5.4795,0 -8.2197,-4.7236 -8.2197,-14.1728 0,-4.3086 0.4151,-7.6152 1.2471,-9.9209 1.3037,-3.5723 3.6562,-5.3574 7.0586,-5.3574 2.1728,0 3.9297,0.7177 5.2715,2.1543 1.3418,1.455 2.0127,3.4297 2.0127,5.9238 l -3.9688,0 z"
       id="path21"
       inkscape:connector-curvature="0" /><path
       style="fill:#000000;fill-rule:nonzero;stroke:none"
       d="m -347.01053,-672.48593 0,-28.3466 14.173,0 0,3.7421 -10.148,0 0,24.6045 -4.025,0 z"
       id="path23"
       inkscape:connector-curvature="0" /><path
       style="fill:#000000;fill-rule:nonzero;stroke:none"
       d="m -328.04653,-672.48593 0,-28.3466 14.172,0 0,3.997 -10.29,0 0,9.3545 6.038,0 0,3.8828 -6.038,0 0,7.1153 9.836,0 0,3.997 -13.718,0 z"
       id="path25"
       inkscape:connector-curvature="0" /><path
       style="fill:#000000;fill-rule:evenodd;stroke:none"
       d="m -282.07053,-687.02793 c 1.247,0.4346 2.258,1.3516 3.033,2.75 0.7,1.2842 1.049,2.6553 1.049,4.1104 0,1.8711 -0.576,3.5898 -1.729,5.1592 -1.228,1.6816 -2.683,2.5224 -4.366,2.5224 l -9.496,0 0,-28.3466 3.912,0 0,13.1533 3.685,0 3.771,-13.1533 4.223,0 -4.082,13.8046 z m -2.637,3.4297 -4.96,0 0,7.0586 4.99,0 c 1.7,0 2.551,-1.1621 2.551,-3.4863 0,-0.9453 -0.209,-1.748 -0.625,-2.4102 -0.471,-0.7744 -1.124,-1.1621 -1.956,-1.1621 z"
       id="path27"
       inkscape:connector-curvature="0" /><path
       style="fill:#000000;fill-rule:evenodd;stroke:none"
       d="m -266.36653,-689.04053 1.985,7.6259 2.011,-7.6259 -3.996,0 z m -6.774,-11.792 4.109,0 1.9,7.8808 5.782,0 2.041,-7.8808 4.054,0 -7.116,28.3466 -3.996,0 -6.774,-28.3466 z"
       id="path29"
       inkscape:connector-curvature="0" /><path
       style="fill:#000000;fill-rule:nonzero;stroke:none"
       d="m -238.75753,-693.29253 c 0,-1.209 -0.312,-2.2012 -0.935,-2.9756 -0.624,-0.7754 -1.399,-1.1631 -2.325,-1.1631 -2.929,0 -4.394,3.7803 -4.394,11.3389 0,2.4375 0.217,4.4883 0.653,6.1514 0.698,2.6455 1.898,3.9687 3.599,3.9687 0.908,0 1.701,-0.3594 2.381,-1.0771 0.681,-0.7188 1.021,-1.4844 1.021,-2.2959 l 3.94,0 c 0,2.2109 -0.689,3.9961 -2.069,5.3574 -1.38,1.3789 -3.137,2.0683 -5.273,2.0683 -5.48,0 -8.22,-4.7236 -8.22,-14.1728 0,-4.3086 0.416,-7.6152 1.247,-9.9209 1.304,-3.5723 3.657,-5.3574 7.058,-5.3574 2.174,0 3.931,0.7177 5.273,2.1543 1.341,1.455 2.012,3.4297 2.012,5.9238 l -3.968,0 z"
       id="path31"
       inkscape:connector-curvature="0" /><path
       style="fill:#000000;fill-rule:nonzero;stroke:none"
       d="m -229.94153,-672.48593 0,-28.3466 14.173,0 0,3.997 -10.29,0 0,9.3545 6.038,0 0,3.8828 -6.038,0 0,7.1153 9.836,0 0,3.997 -13.719,0 z"
       id="path33"
       inkscape:connector-curvature="0" /></g></svg>