<?xml version="1.0" encoding="UTF-8" standalone="no"?>
<!-- Generator: Adobe Illustrator 13.0.1, SVG Export Plug-In . SVG Version: 6.00 Build 14948)  -->

<svg
   xmlns:dc="http://purl.org/dc/elements/1.1/"
   xmlns:cc="http://creativecommons.org/ns#"
   xmlns:rdf="http://www.w3.org/1999/02/22-rdf-syntax-ns#"
   xmlns:svg="http://www.w3.org/2000/svg"
   xmlns="http://www.w3.org/2000/svg"
   xmlns:sodipodi="http://sodipodi.sourceforge.net/DTD/sodipodi-0.dtd"
   xmlns:inkscape="http://www.inkscape.org/namespaces/inkscape"
   version="1.1"
   id="Layer_1"
   x="0px"
   y="0px"
   width="360.62854"
   height="472.51746"
   viewBox="0 0 360.62852 472.51744"
   enable-background="new 0 0 300 250"
   xml:space="preserve"
   inkscape:version="0.48.2 r9819"
   sodipodi:docname="New Zealand - Cattle Stop assembly.svg"><metadata
   id="metadata94"><rdf:RDF><cc:Work
       rdf:about=""><dc:format>image/svg+xml</dc:format><dc:type
         rdf:resource="http://purl.org/dc/dcmitype/StillImage" /><dc:title></dc:title></cc:Work></rdf:RDF></metadata><defs
   id="defs92" /><sodipodi:namedview
   pagecolor="#ffffff"
   bordercolor="#666666"
   borderopacity="1"
   objecttolerance="10"
   gridtolerance="10"
   guidetolerance="10"
   inkscape:pageopacity="0"
   inkscape:pageshadow="2"
   inkscape:window-width="1280"
   inkscape:window-height="1004"
   id="namedview90"
   showgrid="false"
   fit-margin-top="0"
   fit-margin-left="0"
   fit-margin-right="0"
   fit-margin-bottom="0"
   inkscape:zoom="1.3350176"
   inkscape:cx="277.55651"
   inkscape:cy="194.78718"
   inkscape:window-x="-8"
   inkscape:window-y="-8"
   inkscape:window-maximized="1"
   inkscape:current-layer="Layer_1" />















<path
   inkscape:connector-curvature="0"
   style="fill:#ffdb00;fill-rule:nonzero;stroke:none"
   d="m 355.25301,167.32956 c 7.1675,7.16625 7.1675,18.78625 -0.001,25.95375 l -161.964,161.95376 c -7.1675,7.16625 -18.7875,7.16625 -25.955,0 L 5.3759778,193.28331 c -7.1679756,-7.1675 -7.1679756,-18.7875 0,-25.95375 L 167.34051,5.3750625 c 7.16625,-7.16675 18.7875,-7.16675 25.955,0 L 355.25301,167.32956 z"
   id="path11" /><path
   inkscape:connector-curvature="0"
   style="fill:#000000;fill-rule:nonzero;stroke:none"
   d="m 8.1848098,189.84047 c -5.12085,-5.12 -5.12085,-13.42125 -0.0012,-18.54 L 171.0415,8.4463525 c 5.12,-5.11963 13.42125,-5.11963 18.54125,0 L 352.444,171.30047 c 5.12,5.11875 5.12,13.42 0,18.54 L 189.5865,352.69423 c -5.12,5.12 -13.42,5.12 -18.54125,0 L 8.1848098,189.84047 z"
   id="path13" /><path
   inkscape:connector-curvature="0"
   style="fill:#ffdb00;fill-rule:nonzero;stroke:none"
   d="m 12.944285,184.87797 c -2.490189,-2.49 -2.490189,-6.52875 0,-9.02 L 175.80285,13.004393 c 2.49125,-2.49018 6.52875,-2.49018 9.01875,0 L 347.68285,175.85797 c 2.49125,2.49125 2.49125,6.53 0,9.02 l -162.8575,162.85376 c -2.49,2.49 -6.52875,2.49 -9.01875,0 L 12.944285,184.87797 z"
   id="path15" /><path
   inkscape:connector-curvature="0"
   style="fill:#000000;fill-rule:nonzero;stroke:none"
   d="m 149.31004,281.61328 c 0,-17.12376 13.88125,-31.00376 31.00375,-31.00376 17.1225,0 31.00375,13.88 31.00375,31.00376 0,17.12375 -13.88125,31.00375 -31.00375,31.00375 -17.1225,0 -31.00375,-13.88 -31.00375,-31.00375 z"
   id="path17" /><path
   inkscape:connector-curvature="0"
   style="fill:#000000;fill-rule:nonzero;stroke:none"
   d="m 180.31379,51.120903 c 22.015,0 39.86375,17.87837 39.86375,39.86212 0,21.969007 -33.13,146.161627 -33.13,146.161627 l -6.73375,0 -6.7325,0 c 0,0 -33.12999,-124.19262 -33.12999,-146.161627 0,-21.98375 17.84749,-39.86212 39.86249,-39.86212 z"
   id="path19" /><path
   inkscape:connector-curvature="0"
   style="fill:#ffdb00;fill-rule:nonzero;stroke:none"
   d="m 47.438995,379.32782 c 0,-9.784 7.93213,-17.71613 17.71725,-17.71613 l 230.315255,0 c 9.78375,0 17.71625,7.93213 17.71625,17.71613 l 0,75.47238 c 0,9.78512 -7.9325,17.71724 -17.71625,17.71724 l -230.315255,0 c -9.78512,0 -17.71725,-7.93212 -17.71725,-17.71724 l 0,-75.47238 z"
   id="path11-5" /><path
   inkscape:connector-curvature="0"
   style="fill:#000000;fill-rule:nonzero;stroke:none"
   d="m 50.628695,379.32777 c 0,-8.02248 6.5039,-14.52638 14.5275,-14.52638 l 230.315005,0 c 8.0225,0 14.5275,6.5039 14.5275,14.52638 l 0,75.47238 c 0,8.02374 -6.505,14.52761 -14.5275,14.52761 l -230.315005,0 c -8.0236,0 -14.5275,-6.50387 -14.5275,-14.52761 l 0,-75.47238 z"
   id="path13-5" /><path
   inkscape:connector-curvature="0"
   style="fill:#ffdb00;fill-rule:nonzero;stroke:none"
   d="m 55.234405,379.32778 c 0,-5.4785 4.44209,-9.92068 9.92184,-9.92068 l 230.315665,0 c 5.47875,0 9.92,4.44218 9.92,9.92068 l 0,75.47233 c 0,5.47975 -4.44125,9.92187 -9.92,9.92187 l -230.315665,0 c -5.47975,0 -9.92184,-4.44212 -9.92184,-9.92187 l 0,-75.47233 z"
   id="path15-1" /><path
   inkscape:connector-curvature="0"
   style="fill:#000000;fill-rule:nonzero;stroke:none"
   d="m 132.78199,406.26378 6.50638,-2.20575 c -1.13888,-3.01275 -2.90525,-5.43462 -5.29788,-7.26562 -2.39375,-1.80176 -5.06837,-2.70263 -8.02362,-2.70263 -10.42238,0 -15.63363,8.02975 -15.63363,24.09049 0,5.968 1.15238,10.91313 3.4595,14.83525 2.76863,4.729 6.82613,7.09226 12.17413,7.09226 3.7195,0 6.98112,-1.33663 9.78512,-4.01126 2.804,-2.6745 4.2065,-5.84225 4.2065,-9.50437 l 0,-9.25537 -14.38962,0 0,7.00312 7.53537,0 0,2.83212 c 0,1.21088 -0.68475,2.49263 -2.05437,3.84638 -1.49788,1.54175 -3.10425,2.31325 -4.81813,2.31325 -3.1555,0 -5.5115,-1.60038 -7.06662,-4.79975 -1.31113,-2.62338 -1.96663,-6.0315 -1.96663,-10.22713 0,-4.81324 0.40288,-8.46061 1.20975,-10.93986 1.29763,-4.093 3.79025,-6.14013 7.47925,-6.14013 1.6565,0 3.05413,0.45525 4.19313,1.3635 0.92162,0.77763 1.8225,2.00313 2.70137,3.6755 z"
   id="path17-7" /><path
   inkscape:connector-curvature="0"
   style="fill:#000000;fill-rule:evenodd;stroke:none"
   d="m 162.4415,394.9759 -15.01101,44.24688 7.39738,0 4.06625,-12.50001 14.18988,0 4.3475,12.50001 7.16,0 -15.14075,-44.24688 -7.00925,0 z m 8.02487,24.67537 -9.04175,0 4.43475,-13.21411 4.607,13.21411 z"
   id="path19-1" /><path
   inkscape:connector-curvature="0"
   style="fill:#000000;fill-rule:nonzero;stroke:none"
   d="m 187.41275,394.9759 0,6.50888 10.1875,0 0,37.782 6.68375,0 0,-37.782 10.14624,0 0,-6.50888 -27.01749,0 z"
   id="path21-1" /><path
   inkscape:connector-curvature="0"
   style="fill:#000000;fill-rule:nonzero;stroke:none"
   d="m 222.55274,394.9759 0,44.29088 27.01751,0 0,-6.89701 -20.16,0 0,-12.49387 12.93625,0 0,-6.91774 -12.93625,0 0,-10.896 18.5375,0 0,-7.08626 -25.39501,0 z"
   id="path23-5" /></svg>