<?xml version="1.0" encoding="UTF-8" standalone="no"?>
<!-- Created with Inkscape (http://www.inkscape.org/) -->

<svg
   xmlns:dc="http://purl.org/dc/elements/1.1/"
   xmlns:cc="http://creativecommons.org/ns#"
   xmlns:rdf="http://www.w3.org/1999/02/22-rdf-syntax-ns#"
   xmlns:svg="http://www.w3.org/2000/svg"
   xmlns="http://www.w3.org/2000/svg"
   xmlns:sodipodi="http://sodipodi.sourceforge.net/DTD/sodipodi-0.dtd"
   xmlns:inkscape="http://www.inkscape.org/namespaces/inkscape"
   id="svg17624"
   version="1.1"
   inkscape:version="0.48.2 r9819"
   width="360.62802"
   height="538.77545"
   xml:space="preserve"
   sodipodi:docname="AJAX1.svg"><metadata
     id="metadata17630"><rdf:RDF><cc:Work
         rdf:about=""><dc:format>image/svg+xml</dc:format><dc:type
           rdf:resource="http://purl.org/dc/dcmitype/StillImage" /><dc:title></dc:title></cc:Work></rdf:RDF></metadata><defs
     id="defs17628"><inkscape:perspective
       sodipodi:type="inkscape:persp3d"
       inkscape:vp_x="0 : 0.5 : 1"
       inkscape:vp_y="0 : 1000 : 0"
       inkscape:vp_z="1 : 0.5 : 1"
       inkscape:persp3d-origin="0.5 : 0.33333333 : 1"
       id="perspective17632" /><clipPath
       clipPathUnits="userSpaceOnUse"
       id="clipPath17642"><path
         d="m -2,710 501,0 0,-711 -501,0 0,711 z"
         id="path17644"
         inkscape:connector-curvature="0" /></clipPath><clipPath
       clipPathUnits="userSpaceOnUse"
       id="clipPath17648"><path
         d="m 0,708.06 498,0 0,-708 -498,0 0,708 z"
         id="path17650"
         inkscape:connector-curvature="0" /></clipPath><clipPath
       clipPathUnits="userSpaceOnUse"
       id="clipPath17798"><path
         d="m -2,710 501,0 0,-711 -501,0 0,711 z"
         id="path17800"
         inkscape:connector-curvature="0" /></clipPath><clipPath
       clipPathUnits="userSpaceOnUse"
       id="clipPath17804"><path
         d="m 0,708.06 498,0 0,-708 -498,0 0,708 z"
         id="path17806"
         inkscape:connector-curvature="0" /></clipPath><clipPath
       id="Clip0"><path
         inkscape:connector-curvature="0"
         d="m 0,0 212.597,0 0,269.292 L 0,269.292 0,0 z"
         transform="translate(0.923828,0.879883)"
         id="path7" /></clipPath><clipPath
       id="Clip0-8"><path
         inkscape:connector-curvature="0"
         d="m 0,0 170.079,0 0,113.386 L 0,113.386 0,0 z"
         transform="translate(0.0986328,0.822266)"
         id="path7-8" /></clipPath><clipPath
       id="Clip0-1"><path
         inkscape:connector-curvature="0"
         d="m 0,0 287.009,0 0,159.449 L 0,159.449 0,0 z"
         transform="translate(0.396484,0.267578)"
         id="path7-7" /></clipPath><clipPath
       id="Clip0-17"><path
         inkscape:connector-curvature="0"
         d="m 0,0 340.157,0 0,170.079 L 0,170.079 0,0 z"
         transform="translate(0.289063,0.774414)"
         id="path7-4" /></clipPath><clipPath
       id="Clip0-174"><path
         inkscape:connector-curvature="0"
         d="m 0,0 269.291,0 0,85.039 L 0,85.039 0,0 z"
         transform="translate(0.899414,0.480469)"
         id="path7-0" /></clipPath><clipPath
       id="Clip0-9"><path
         inkscape:connector-curvature="0"
         d="m 0,0 269.292,0 0,141.731 L 0,141.731 0,0 z"
         transform="translate(0.179688,0.916992)"
         id="path7-48" /></clipPath><clipPath
       id="Clip0-174-5"><path
         inkscape:connector-curvature="0"
         d="m 0,0 269.291,0 0,141.732 L 0,141.732 0,0 z"
         transform="translate(0.40332,0.170898)"
         id="path7-0-1" /></clipPath><clipPath
       id="Clip0-1740"><path
         inkscape:connector-curvature="0"
         d="m 0,0 269.291,0 0,141.732 L 0,141.732 0,0 z"
         transform="translate(0.40332,0.710938)"
         id="path7-9" /></clipPath></defs><sodipodi:namedview
     pagecolor="#ffffff"
     bordercolor="#666666"
     borderopacity="1"
     objecttolerance="10"
     gridtolerance="10"
     guidetolerance="10"
     inkscape:pageopacity="0"
     inkscape:pageshadow="2"
     inkscape:window-width="1280"
     inkscape:window-height="1004"
     id="namedview17626"
     showgrid="false"
     inkscape:zoom="1.3447817"
     inkscape:cx="246.50823"
     inkscape:cy="150.07917"
     inkscape:window-x="-8"
     inkscape:window-y="-8"
     inkscape:window-maximized="1"
     inkscape:current-layer="g17634"
     fit-margin-top="0"
     fit-margin-left="0"
     fit-margin-right="0"
     fit-margin-bottom="0"
     showguides="true"
     inkscape:guide-bbox="true" /><g
     id="g17634"
     inkscape:groupmode="layer"
     inkscape:label="GG1999P002"
     transform="matrix(1.25,0,0,-1.25,570.69351,-470.55705)"><path
       inkscape:connector-curvature="0"
       style="fill:#ef7c23;fill-rule:nonzero;stroke:none"
       d="m -172.35328,-510.30805 c 5.735,-5.734 5.734,-15.03 0,-20.764 l -129.571,-129.563 c -5.734,-5.733 -15.03,-5.733 -20.765,0 l -129.5656,129.563 c -5.7334,5.734 -5.7334,15.03 9.6e-4,20.764 l 129.57064,129.56163 c 5.735,5.73437 15.03,5.73437 20.765,0 l 129.565,-129.56163 z"
       id="path11" /><path
       inkscape:connector-curvature="0"
       style="fill:#000000;fill-rule:nonzero;stroke:none"
       d="m -450.00781,-528.31778 c -4.09571,4.095 -4.09571,10.736 0,14.832 l 130.28629,130.2833 c 4.096,4.0957 10.736,4.0957 14.833,0 l 130.288,-130.2833 c 4.097,-4.096 4.097,-10.737 0,-14.832 l -130.285,-130.283 c -4.097,-4.096 -10.737,-4.096 -14.833,0 l -130.28929,130.283 z"
       id="path13" /><path
       inkscape:connector-curvature="0"
       style="fill:#ef7c23;fill-rule:nonzero;stroke:none"
       d="m -446.19925,-524.34778 c -1.99313,1.992 -1.99313,5.222 0,7.215 l 130.28687,130.28287 c 1.992,1.99313 5.222,1.99313 7.215,0 l 130.289,-130.28287 c 1.993,-1.993 1.993,-5.223 8e-4,-7.215 l -130.287,-130.284 c -1.993,-1.993 -5.223,-1.993 -7.215,0 l -130.28967,130.284 z"
       id="path15" /><path
       inkscape:connector-curvature="0"
       style="fill:#000000;fill-rule:nonzero;stroke:none"
       d="m -337.10775,-601.73651 c 0,13.699 11.105,24.804 24.804,24.804 13.698,0 24.803,-11.105 24.803,-24.804 0,-13.698 -11.105,-24.803 -24.803,-24.803 -13.699,0 -24.804,11.105 -24.804,24.803 z"
       id="path17" /><path
       inkscape:connector-curvature="0"
       style="fill:#000000;fill-rule:nonzero;stroke:none"
       d="m -312.30375,-417.34211 c 17.612,0 31.89,-14.3028 31.89,-31.8897 0,-17.5752 -26.504,-116.9293 -26.504,-116.9293 l -10.773,0 c 0,0 -26.504,99.3541 -26.504,116.9293 0,17.5869 14.278,31.8897 31.891,31.8897 z"
       id="path19" /><path
       inkscape:connector-curvature="0"
       style="fill:#ef7c23;fill-rule:nonzero;stroke:none"
       d="m -446.95321,-679.9078 c 0,7.82807 6.3457,14.1728 14.1738,14.1728 l 240.9442,0 c 7.828,0 14.174,-6.34473 14.174,-14.1728 l 0,-113.3862 c 0,-7.828 -6.346,-14.172 -14.174,-14.172 l -240.9442,0 c -7.8281,0 -14.1738,6.344 -14.1738,14.172 l 0,113.3862 z"
       id="path11-17" /><path
       inkscape:connector-curvature="0"
       style="fill:#000000;fill-rule:nonzero;stroke:none"
       d="m -443.55185,-679.90777 c 0,5.94913 4.82325,10.7714 10.7724,10.7714 l 240.9446,0 c 5.949,0 10.771,-4.82227 10.771,-10.7714 l 0,-113.3866 c 0,-5.949 -4.822,-10.771 -10.771,-10.771 l -240.9446,0 c -5.94915,0 -10.7724,4.822 -10.7724,10.771 l 0,113.3866 z"
       id="path13-4" /><path
       inkscape:connector-curvature="0"
       style="fill:#ef7c23;fill-rule:nonzero;stroke:none"
       d="m -438.44931,-679.90782 c 0,3.1308 2.53811,5.6689 5.66991,5.6689 l 240.9441,0 c 3.132,0 5.67,-2.5381 5.67,-5.6689 l 0,-113.3861 c 0,-3.13 -2.538,-5.669 -5.67,-5.669 l -240.9441,0 c -3.1318,0 -5.66991,2.539 -5.66991,5.669 l 0,113.3861 z"
       id="path15-0" /><g
       transform="matrix(1,0,0,-1,-447.35653,-665.02308)"
       id="Background"
       style="fill:#000000"><g
         id="Group1"
         clip-path="url(#Clip0-1740)"
         style="fill:#000000"><path
           inkscape:connector-curvature="0"
           style="fill:#000000;fill-rule:evenodd;stroke:none"
           d="M 14.6338,0 0,35.4329 l 6.5195,0 3.4727,-8.255 15.3769,0 3.4024,8.255 6.6611,0 L 20.5508,0 14.6338,0 z m -2.2324,21.0819 5.2441,-12.578 5.1729,12.578 -10.417,0 z"
           transform="translate(43.4834,80.7891)"
           id="path17-4" /><path
           inkscape:connector-curvature="0"
           style="fill:#000000;fill-rule:nonzero;stroke:none"
           d="m 0,0 0,35.4329 6.0947,0 0,-15.555 16.157,0 0,15.555 6.094,0 0,-35.4329 -6.094,0 0,13.7832 -16.157,0 L 6.0947,0 0,0 z"
           transform="translate(86.3213,80.7891)"
           id="path19-8" /><path
           inkscape:connector-curvature="0"
           style="fill:#000000;fill-rule:nonzero;stroke:none"
           d="m 0,0 0,35.4329 26.219,0 0,-6.165 -20.019,0 0,-9.886 10.452,0 0,-6.1661 -10.452,0 0,-7.0508 19.382,0 L 25.582,0 0,0 z"
           transform="translate(124.058,80.7891)"
           id="path21" /><path
           inkscape:connector-curvature="0"
           style="fill:#000000;fill-rule:evenodd;stroke:none"
           d="M 14.634,0 0,35.4329 l 6.52,0 3.472,-8.255 15.377,0 3.403,8.255 6.661,0 L 20.551,0 14.634,0 z m -2.232,21.0819 5.243,-12.578 5.174,12.578 -10.417,0 z"
           transform="translate(155.451,80.7891)"
           id="path23" /><path
           inkscape:connector-curvature="0"
           style="fill:#000000;fill-rule:evenodd;stroke:none"
           d="m 0,0 0,35.4329 12.33,0 c 4.796,0 8.705,-1.772 11.729,-5.315 2.858,-3.354 4.287,-7.429 4.287,-12.2244 C 28.346,12.9804 26.87,8.8349 23.917,5.457 20.752,1.8193 16.571,0 11.374,0 L 0,0 z m 6.095,29.2679 0,-23.1029 6.129,0 c 2.929,0 5.375,1.2051 7.335,3.6143 1.866,2.291 2.799,4.9961 2.799,8.1142 0,2.8814 -0.886,5.4574 -2.657,7.7244 -1.89,2.433 -4.241,3.65 -7.052,3.65 l -6.554,0 z"
           transform="translate(198.289,80.7891)"
           id="path25" /><path
           inkscape:connector-curvature="0"
           style="fill:#000000;fill-rule:nonzero;stroke:none"
           d="M 18.2363,9.3896 23.4092,7.1572 C 21.2129,2.3867 17.4804,0 12.2129,0 7.8427,0 4.5947,2.1728 2.4687,6.5195 0.8154,9.874 0,13.9375 0.0244,18.709 c 0.0225,4.8662 0.9912,8.9287 2.9053,12.1884 2.3379,3.9454 5.7158,5.917 10.1338,5.917 2.5742,0 4.8183,-0.8027 6.7324,-2.4091 1.7949,-1.5352 3.082,-3.6133 3.8613,-6.2354 l -5.208,-1.3115 c -0.4014,1.1103 -1.1934,2.126 -2.375,3.0469 -1.1563,0.9218 -2.2549,1.3818 -3.294,1.3818 -2.623,0 -4.6064,-1.499 -5.9541,-4.5 -1.0146,-2.291 -1.5234,-4.9014 -1.5234,-7.8301 0,-3.4014 0.4258,-6.2129 1.2764,-8.4336 1.2519,-3.3535 3.3418,-5.0312 6.2715,-5.0312 1.2988,0 2.3623,0.3193 3.1894,0.957 0.8262,0.6143 1.5586,1.5937 2.1963,2.9404 z"
           transform="translate(25.6719,26.2217)"
           id="path27" /><path
           inkscape:connector-curvature="0"
           style="fill:#000000;fill-rule:nonzero;stroke:none"
           d="m 0,0 12.4366,20.1963 0,15.2363 5.4921,0 0,-15.2363 L 30.1172,0 23.5977,0 15.0586,13.748 6.626,0 0,0 z"
           transform="translate(53.7236,26.9307)"
           id="path29" /><path
           inkscape:connector-curvature="0"
           style="fill:#000000;fill-rule:nonzero;stroke:none"
           d="m 18.2359,9.3896 5.173,-2.2324 C 21.2129,2.3867 17.4809,0 12.2129,0 7.8427,0 4.5947,2.1728 2.4687,6.5195 0.8154,9.874 0,13.9375 0.0244,18.709 c 0.0234,4.8662 0.9922,8.9287 2.9053,12.1884 2.3388,3.9454 5.7168,5.917 10.1342,5.917 2.574,0 4.819,-0.8027 6.732,-2.4091 1.795,-1.5352 3.082,-3.6133 3.862,-6.2354 l -5.209,-1.3115 c -0.401,1.1103 -1.193,2.126 -2.374,3.0469 -1.157,0.9218 -2.256,1.3818 -3.295,1.3818 -2.622,0 -4.6061,-1.499 -5.9528,-4.5 -1.0156,-2.291 -1.5244,-4.9014 -1.5244,-7.8301 0,-3.4014 0.4258,-6.2129 1.2764,-8.4336 1.2519,-3.3535 3.3428,-5.0312 6.2718,-5.0312 1.299,0 2.362,0.3193 3.189,0.957 0.826,0.6143 1.559,1.5937 2.196,2.9404 z"
           transform="translate(90.3721,26.2217)"
           id="path31" /><path
           inkscape:connector-curvature="0"
           style="fill:#000000;fill-rule:nonzero;stroke:none"
           d="m 0,0 0,35.4326 21.614,0 0,-5.208 -16.192,0 L 5.422,0 0,0 z"
           transform="translate(120.549,26.9307)"
           id="path33" /><path
           inkscape:connector-curvature="0"
           style="fill:#000000;fill-rule:nonzero;stroke:none"
           d="m 0,35.4326 5.564,0 L 5.564,0 0,0 0,35.4326 z"
           transform="translate(148.363,26.9307)"
           id="path35" /><path
           inkscape:connector-curvature="0"
           style="fill:#000000;fill-rule:nonzero;stroke:none"
           d="m 0,27.709 c 0.921,2.6455 2.693,4.8662 5.315,6.6611 2.409,1.6299 4.76,2.4443 7.051,2.4443 3.448,0 6.2,-1.0625 8.256,-3.1884 2.056,-2.126 3.083,-4.878 3.083,-8.2559 0,-2.2197 -0.626,-4.2041 -1.878,-5.9522 C 20.693,17.8818 19.158,16.6416 17.221,15.6972 16.346,15.2724 15.036,14.9765 13.288,14.8115 11.303,14.5986 10.039,14.4092 9.496,14.2441 8.787,14.0312 8.173,13.583 7.653,12.8974 7.134,12.1894 6.874,11.4453 6.874,10.665 6.874,9.4375 7.37,8.291 8.362,7.2285 9.378,6.1416 10.547,5.6221 11.87,5.6699 c 2.788,0.0703 4.571,1.2988 5.351,3.6846 L 22.465,7.7597 C 21.449,5.0908 20.137,3.1299 18.532,1.8779 16.949,0.626 14.941,0 12.508,0 9.508,0 6.945,1.0039 4.819,3.0117 2.598,5.1377 1.488,7.8428 1.488,11.126 c 0,2.6933 0.945,4.8427 2.835,6.4492 1.701,1.4404 3.413,2.2558 5.138,2.4453 3.378,0.3779 5.728,1.0508 7.051,2.0185 1.228,0.9219 1.842,2.3272 1.842,4.2168 0,1.2051 -0.543,2.3272 -1.63,3.3663 -1.063,1.0166 -2.161,1.5234 -3.295,1.5234 -2.055,0 -3.673,-0.3779 -4.854,-1.1338 C 7.417,29.2558 6.343,27.8867 5.35,25.9023 L 0,27.709 z"
           transform="translate(162.217,26.2217)"
           id="path37" /><path
           inkscape:connector-curvature="0"
           style="fill:#000000;fill-rule:nonzero;stroke:none"
           d="m 0,0 0,5.208 8.149,0 0,30.2246 5.351,0 0,-30.2246 8.113,0 L 21.613,0 0,0 z"
           transform="translate(192.548,26.9307)"
           id="path39" /><path
           inkscape:connector-curvature="0"
           style="fill:#000000;fill-rule:nonzero;stroke:none"
           d="m 0,27.709 c 0.92,2.6455 2.693,4.8662 5.315,6.6611 2.409,1.6299 4.759,2.4443 7.05,2.4443 3.45,0 6.202,-1.0625 8.256,-3.1884 2.056,-2.126 3.083,-4.878 3.083,-8.2559 0,-2.2197 -0.626,-4.2041 -1.878,-5.9522 C 20.693,17.8818 19.157,16.6416 17.22,15.6972 16.346,15.2724 15.035,14.9765 13.287,14.8115 11.302,14.5986 10.039,14.4092 9.495,14.2441 8.786,14.0312 8.172,13.583 7.653,12.8974 7.133,12.1894 6.873,11.4453 6.873,10.665 6.873,9.4375 7.369,8.291 8.362,7.2285 9.377,6.1416 10.546,5.6221 11.869,5.6699 14.657,5.7402 16.441,6.9687 17.22,9.3545 L 22.464,7.7597 C 21.448,5.0908 20.137,3.1299 18.531,1.8779 16.948,0.626 14.941,0 12.507,0 9.507,0 6.945,1.0039 4.819,3.0117 2.598,5.1377 1.488,7.8428 1.488,11.126 c 0,2.6933 0.945,4.8427 2.835,6.4492 1.701,1.4404 3.413,2.2558 5.137,2.4453 3.378,0.3779 5.729,1.0508 7.051,2.0185 1.229,0.9219 1.843,2.3272 1.843,4.2168 0,1.2051 -0.543,2.3272 -1.63,3.3663 -1.064,1.0166 -2.161,1.5234 -3.295,1.5234 -2.055,0 -3.674,-0.3779 -4.855,-1.1338 C 7.416,29.2558 6.342,27.8867 5.35,25.9023 L 0,27.709 z"
           transform="translate(220.823,26.2217)"
           id="path41" /></g></g></g></svg>