<?xml version="1.0" encoding="UTF-8" standalone="no"?>
<!-- Created with Inkscape (http://www.inkscape.org/) -->

<svg
   xmlns:dc="http://purl.org/dc/elements/1.1/"
   xmlns:cc="http://creativecommons.org/ns#"
   xmlns:rdf="http://www.w3.org/1999/02/22-rdf-syntax-ns#"
   xmlns:svg="http://www.w3.org/2000/svg"
   xmlns="http://www.w3.org/2000/svg"
   xmlns:sodipodi="http://sodipodi.sourceforge.net/DTD/sodipodi-0.dtd"
   xmlns:inkscape="http://www.inkscape.org/namespaces/inkscape"
   id="svg17624"
   version="1.1"
   inkscape:version="0.48.2 r9819"
   width="360.62802"
   height="467.91046"
   xml:space="preserve"
   sodipodi:docname="AJAX1.svg"><metadata
     id="metadata17630"><rdf:RDF><cc:Work
         rdf:about=""><dc:format>image/svg+xml</dc:format><dc:type
           rdf:resource="http://purl.org/dc/dcmitype/StillImage" /><dc:title></dc:title></cc:Work></rdf:RDF></metadata><defs
     id="defs17628"><inkscape:perspective
       sodipodi:type="inkscape:persp3d"
       inkscape:vp_x="0 : 0.5 : 1"
       inkscape:vp_y="0 : 1000 : 0"
       inkscape:vp_z="1 : 0.5 : 1"
       inkscape:persp3d-origin="0.5 : 0.33333333 : 1"
       id="perspective17632" /><clipPath
       clipPathUnits="userSpaceOnUse"
       id="clipPath17642"><path
         d="m -2,710 501,0 0,-711 -501,0 0,711 z"
         id="path17644"
         inkscape:connector-curvature="0" /></clipPath><clipPath
       clipPathUnits="userSpaceOnUse"
       id="clipPath17648"><path
         d="m 0,708.06 498,0 0,-708 -498,0 0,708 z"
         id="path17650"
         inkscape:connector-curvature="0" /></clipPath><clipPath
       clipPathUnits="userSpaceOnUse"
       id="clipPath17798"><path
         d="m -2,710 501,0 0,-711 -501,0 0,711 z"
         id="path17800"
         inkscape:connector-curvature="0" /></clipPath><clipPath
       clipPathUnits="userSpaceOnUse"
       id="clipPath17804"><path
         d="m 0,708.06 498,0 0,-708 -498,0 0,708 z"
         id="path17806"
         inkscape:connector-curvature="0" /></clipPath><clipPath
       id="Clip0"><path
         inkscape:connector-curvature="0"
         d="m 0,0 212.597,0 0,269.292 L 0,269.292 0,0 z"
         transform="translate(0.923828,0.879883)"
         id="path7" /></clipPath><clipPath
       id="Clip0-8"><path
         inkscape:connector-curvature="0"
         d="m 0,0 170.079,0 0,113.386 L 0,113.386 0,0 z"
         transform="translate(0.0986328,0.822266)"
         id="path7-8" /></clipPath><clipPath
       id="Clip0-1"><path
         inkscape:connector-curvature="0"
         d="m 0,0 287.009,0 0,159.449 L 0,159.449 0,0 z"
         transform="translate(0.396484,0.267578)"
         id="path7-7" /></clipPath><clipPath
       id="Clip0-17"><path
         inkscape:connector-curvature="0"
         d="m 0,0 340.157,0 0,170.079 L 0,170.079 0,0 z"
         transform="translate(0.289063,0.774414)"
         id="path7-4" /></clipPath><clipPath
       id="Clip0-174"><path
         inkscape:connector-curvature="0"
         d="m 0,0 269.291,0 0,85.039 L 0,85.039 0,0 z"
         transform="translate(0.899414,0.480469)"
         id="path7-0" /></clipPath></defs><sodipodi:namedview
     pagecolor="#ffffff"
     bordercolor="#666666"
     borderopacity="1"
     objecttolerance="10"
     gridtolerance="10"
     guidetolerance="10"
     inkscape:pageopacity="0"
     inkscape:pageshadow="2"
     inkscape:window-width="1280"
     inkscape:window-height="1004"
     id="namedview17626"
     showgrid="false"
     inkscape:zoom="1.0853633"
     inkscape:cx="205.20589"
     inkscape:cy="118.2478"
     inkscape:window-x="-8"
     inkscape:window-y="-8"
     inkscape:window-maximized="1"
     inkscape:current-layer="g17634"
     fit-margin-top="0"
     fit-margin-left="0"
     fit-margin-right="0"
     fit-margin-bottom="0"
     showguides="true"
     inkscape:guide-bbox="true" /><g
     id="g17634"
     inkscape:groupmode="layer"
     inkscape:label="GG1999P002"
     transform="matrix(1.25,0,0,-1.25,570.69351,-443.52204)"><path
       inkscape:connector-curvature="0"
       style="fill:#ef7c23;fill-rule:nonzero;stroke:none"
       d="m -172.35328,-488.68004 c 5.735,-5.734 5.734,-15.03 0,-20.764 l -129.571,-129.563 c -5.734,-5.733 -15.03,-5.733 -20.765,0 l -129.5656,129.563 c -5.7334,5.734 -5.7334,15.03 9.6e-4,20.764 l 129.57064,129.56163 c 5.735,5.73437 15.03,5.73437 20.765,0 l 129.565,-129.56163 z"
       id="path11" /><path
       inkscape:connector-curvature="0"
       style="fill:#000000;fill-rule:nonzero;stroke:none"
       d="m -450.00781,-506.68977 c -4.09571,4.095 -4.09571,10.736 0,14.832 l 130.28629,130.2833 c 4.096,4.0957 10.736,4.0957 14.833,0 l 130.288,-130.2833 c 4.097,-4.096 4.097,-10.737 0,-14.832 l -130.285,-130.283 c -4.097,-4.096 -10.737,-4.096 -14.833,0 l -130.28929,130.283 z"
       id="path13" /><path
       inkscape:connector-curvature="0"
       style="fill:#ef7c23;fill-rule:nonzero;stroke:none"
       d="m -446.19925,-502.71977 c -1.99313,1.992 -1.99313,5.222 0,7.215 l 130.28687,130.28287 c 1.992,1.99313 5.222,1.99313 7.215,0 l 130.289,-130.28287 c 1.993,-1.993 1.993,-5.223 8e-4,-7.215 l -130.287,-130.284 c -1.993,-1.993 -5.223,-1.993 -7.215,0 l -130.28967,130.284 z"
       id="path15" /><path
       inkscape:connector-curvature="0"
       style="fill:#000000;fill-rule:nonzero;stroke:none"
       d="m -337.10775,-580.1085 c 0,13.699 11.105,24.804 24.804,24.804 13.698,0 24.803,-11.105 24.803,-24.804 0,-13.698 -11.105,-24.803 -24.803,-24.803 -13.699,0 -24.804,11.105 -24.804,24.803 z"
       id="path17" /><path
       inkscape:connector-curvature="0"
       style="fill:#000000;fill-rule:nonzero;stroke:none"
       d="m -312.30375,-395.7141 c 17.612,0 31.89,-14.3028 31.89,-31.8897 0,-17.5752 -26.504,-116.9293 -26.504,-116.9293 l -10.773,0 c 0,0 -26.504,99.3541 -26.504,116.9293 0,17.5869 14.278,31.8897 31.891,31.8897 z"
       id="path19" /><path
       inkscape:connector-curvature="0"
       style="fill:#ef7c23;fill-rule:nonzero;stroke:none"
       d="m -446.95321,-658.27979 c 0,7.8271 6.34571,14.1728 14.1729,14.1728 l 240.9461,0 c 7.828,0 14.172,-6.3457 14.172,-14.1728 l 0,-56.6934 c 0,-7.8271 -6.344,-14.1728 -14.172,-14.1728 l -240.9461,0 c -7.82719,0 -14.1729,6.3457 -14.1729,14.1728 l 0,56.6934 z"
       id="path11-1" /><path
       inkscape:connector-curvature="0"
       style="fill:#000000;fill-rule:nonzero;stroke:none"
       d="m -444.11825,-658.27987 c 0,6.26175 5.07617,11.3389 11.3379,11.3389 l 240.9461,0 c 6.261,0 11.338,-5.07715 11.338,-11.3389 l 0,-56.6934 c 0,-6.2616 -5.077,-11.33871 -11.338,-11.33871 l -240.9461,0 c -6.26173,0 -11.3379,5.07711 -11.3379,11.33871 l 0,56.6934 z"
       id="path13-7" /><path
       inkscape:connector-curvature="0"
       style="fill:#ef7c23;fill-rule:nonzero;stroke:none"
       d="m -439.8663,-658.27982 c 0,3.9131 3.17287,7.08592 7.08687,7.08592 l 240.94513,0 c 3.914,0 7.086,-3.17282 7.086,-7.08592 l 0,-56.69338 c 0,-3.914 -3.172,-7.0859 -7.086,-7.0859 l -240.94513,0 c -3.914,0 -7.08687,3.1719 -7.08687,7.0859 l 0,56.69338 z"
       id="path15-4" /><path
       style="fill:#000000;fill-rule:nonzero;stroke:none"
       d="m -416.48735,-668.89695 0,-35.4336 5.6337,0 0,15.5196 10.417,0 0,5.5625 -10.417,0 0,8.8232 15.9805,0 0,5.5283 -21.6142,0 z"
       id="path17-1"
       inkscape:connector-curvature="0" /><path
       style="fill:#000000;fill-rule:nonzero;stroke:none"
       d="m -388.38975,-693.41645 c 0,-3.0479 1.169,-5.7403 3.5088,-8.0791 2.3379,-2.3389 5.125,-3.5078 8.3613,-3.5078 3.4492,0 6.2842,1.1572 8.5039,3.4726 2.2207,2.3145 3.3311,5.1612 3.3311,8.5391 l 0,24.0947 -5.4219,0 0,-24.8389 c 0,-1.6298 -0.6728,-3 -2.0185,-4.1103 -1.253,-1.04 -2.7178,-1.5596 -4.3946,-1.5596 -1.6533,0 -3.1181,0.6143 -4.3935,1.8428 -1.2754,1.2285 -1.9131,2.6103 -1.9131,4.1465 l 0,24.5195 -5.5635,0 0,-24.5195 z"
       id="path19-7"
       inkscape:connector-curvature="0" /><path
       style="fill:#000000;fill-rule:nonzero;stroke:none"
       d="m -356.32336,-668.89695 0,-35.4336 5.4922,0 0,22.8897 13.4646,-22.8897 4.748,0 0,35.4336 -5.598,0 0,-23.0674 -13.4652,23.0674 -4.6416,0 z"
       id="path21"
       inkscape:connector-curvature="0" /><path
       style="fill:#000000;fill-rule:nonzero;stroke:none"
       d="m -324.32756,-668.89695 0,-35.4336 21.614,0 0,5.5274 -16.121,0 0,9.9922 10.345,0 0,5.5283 -10.345,0 0,8.7158 14.81,0 0,5.6699 -20.303,0 z"
       id="path23"
       inkscape:connector-curvature="0" /><path
       style="fill:#000000;fill-rule:evenodd;stroke:none"
       d="m -290.84356,-674.42525 7.441,0 c 1.157,0 2.185,-0.4014 3.082,-1.2041 0.921,-0.8037 1.382,-1.7481 1.382,-2.835 0,-1.1572 -0.401,-2.208 -1.204,-3.1533 -0.875,-0.9922 -1.89,-1.4883 -3.048,-1.4883 l -7.653,0 0,8.6807 z m -5.386,5.5283 0,-35.4336 5.386,0 0,15.5196 6.838,0 5.74,-15.5196 5.74,0 -6.342,16.7246 c 3.52,2.2676 5.28,5.1729 5.28,8.7158 0,2.67 -0.946,4.9971 -2.835,6.9815 -1.866,2.0078 -4.086,3.0107 -6.662,3.0117 l -13.145,0 z"
       id="path25"
       inkscape:connector-curvature="0" /><path
       style="fill:#000000;fill-rule:evenodd;stroke:none"
       d="m -253.95857,-668.89695 -12.011,-35.3984 5.917,0 3.259,9.9922 11.339,0 3.473,-9.9922 5.74,0 -12.118,35.3984 -5.599,0 z m 6.414,-19.7363 -7.229,0 3.544,10.5586 3.685,-10.5586 z"
       id="path27"
       inkscape:connector-curvature="0" /><path
       style="fill:#000000;fill-rule:nonzero;stroke:none"
       d="m -229.75657,-668.89695 0,-35.4336 21.613,0 0,5.209 -16.192,0 0,30.2246 -5.421,0 z"
       id="path29"
       inkscape:connector-curvature="0" /></g></svg>