<?xml version="1.0" encoding="UTF-8" standalone="no"?>
<!-- Generator: Adobe Illustrator 13.0.1, SVG Export Plug-In . SVG Version: 6.00 Build 14948)  -->

<svg
   xmlns:dc="http://purl.org/dc/elements/1.1/"
   xmlns:cc="http://creativecommons.org/ns#"
   xmlns:rdf="http://www.w3.org/1999/02/22-rdf-syntax-ns#"
   xmlns:svg="http://www.w3.org/2000/svg"
   xmlns="http://www.w3.org/2000/svg"
   xmlns:sodipodi="http://sodipodi.sourceforge.net/DTD/sodipodi-0.dtd"
   xmlns:inkscape="http://www.inkscape.org/namespaces/inkscape"
   version="1.1"
   id="Layer_1"
   x="0px"
   y="0px"
   width="360.62851"
   height="472.51776"
   viewBox="0 0 360.6285 472.51775"
   enable-background="new 0 0 300 250"
   xml:space="preserve"
   inkscape:version="0.48.2 r9819"
   sodipodi:docname="AJAX1.svg"><metadata
   id="metadata94"><rdf:RDF><cc:Work
       rdf:about=""><dc:format>image/svg+xml</dc:format><dc:type
         rdf:resource="http://purl.org/dc/dcmitype/StillImage" /><dc:title></dc:title></cc:Work></rdf:RDF></metadata><defs
   id="defs92" /><sodipodi:namedview
   pagecolor="#ffffff"
   bordercolor="#666666"
   borderopacity="1"
   objecttolerance="10"
   gridtolerance="10"
   guidetolerance="10"
   inkscape:pageopacity="0"
   inkscape:pageshadow="2"
   inkscape:window-width="1280"
   inkscape:window-height="1004"
   id="namedview90"
   showgrid="false"
   fit-margin-top="0"
   fit-margin-left="0"
   fit-margin-right="0"
   fit-margin-bottom="0"
   inkscape:zoom="1.888"
   inkscape:cx="291.47713"
   inkscape:cy="407.53211"
   inkscape:window-x="-8"
   inkscape:window-y="-8"
   inkscape:window-maximized="1"
   inkscape:current-layer="Layer_1" />















<path
   inkscape:connector-curvature="0"
   style="fill:#ffdb00;fill-rule:nonzero;stroke:none"
   d="m 355.25301,167.32956 c 7.1675,7.16625 7.1675,18.78625 -0.001,25.95375 l -161.964,161.95376 c -7.1675,7.16625 -18.7875,7.16625 -25.955,0 L 5.3759808,193.28331 c -7.167975,-7.1675 -7.167975,-18.7875 0,-25.95375 L 167.34051,5.3750625 c 7.16625,-7.16675 18.7875,-7.16675 25.955,0 L 355.25301,167.32956 z"
   id="path11" /><path
   inkscape:connector-curvature="0"
   style="fill:#000000;fill-rule:nonzero;stroke:none"
   d="m 8.1848128,189.84047 c -5.12085,-5.12 -5.12085,-13.42125 -0.0012,-18.54 L 171.0415,8.4463525 c 5.12,-5.11963 13.42125,-5.11963 18.54125,0 L 352.444,171.30047 c 5.12,5.11875 5.12,13.42 0,18.54 L 189.5865,352.69423 c -5.12,5.12 -13.42,5.12 -18.54125,0 L 8.1848128,189.84047 z"
   id="path13" /><path
   inkscape:connector-curvature="0"
   style="fill:#ffdb00;fill-rule:nonzero;stroke:none"
   d="m 12.944288,184.87797 c -2.490189,-2.49 -2.490189,-6.52875 0,-9.02 L 175.80285,13.004392 c 2.49125,-2.49018 6.52875,-2.49018 9.01875,0 L 347.68285,175.85797 c 2.49125,2.49125 2.49125,6.53 0,9.02 l -162.8575,162.85376 c -2.49,2.49 -6.52875,2.49 -9.01875,0 L 12.944288,184.87797 z"
   id="path15" /><path
   inkscape:connector-curvature="0"
   style="fill:#000000;fill-rule:nonzero;stroke:none"
   d="m 149.31004,281.61328 c 0,-17.12376 13.88125,-31.00376 31.00375,-31.00376 17.1225,0 31.00375,13.88 31.00375,31.00376 0,17.12375 -13.88125,31.00375 -31.00375,31.00375 -17.1225,0 -31.00375,-13.88 -31.00375,-31.00375 z"
   id="path17" /><path
   inkscape:connector-curvature="0"
   style="fill:#000000;fill-rule:nonzero;stroke:none"
   d="m 180.31379,51.120902 c 22.015,0 39.86375,17.878371 39.86375,39.862121 0,21.969007 -33.13,146.161627 -33.13,146.161627 l -6.73375,0 -6.7325,0 c 0,0 -33.12999,-124.19262 -33.12999,-146.161627 0,-21.98375 17.84749,-39.862121 39.86249,-39.862121 z"
   id="path19" /><path
   inkscape:connector-curvature="0"
   style="fill:#ffdb00;fill-rule:nonzero;stroke:none"
   d="m 47.438998,379.32937 c 0,-9.78525 7.93212,-17.71738 17.716121,-17.71738 l 230.313881,0 c 9.785,0 17.7175,7.93213 17.7175,17.71738 l 0,75.47238 c 0,9.78388 -7.9325,17.716 -17.7175,17.716 l -230.313881,0 c -9.784001,0 -17.716121,-7.93212 -17.716121,-17.716 l 0,-75.47238 z"
   id="path11-1" /><path
   inkscape:connector-curvature="0"
   style="fill:#000000;fill-rule:nonzero;stroke:none"
   d="m 50.627468,379.32931 c 0,-8.02371 6.50513,-14.52763 14.527631,-14.52763 l 230.316131,0 c 8.0225,0 14.5275,6.50392 14.5275,14.52763 l 0,75.47238 c 0,8.02362 -6.505,14.52763 -14.5275,14.52763 l -230.316131,0 c -8.022501,0 -14.527631,-6.50401 -14.527631,-14.52763 l 0,-75.47238 z"
   id="path13-7" /><path
   inkscape:connector-curvature="0"
   style="fill:#ffdb00;fill-rule:nonzero;stroke:none"
   d="m 55.234408,379.32933 c 0,-5.47975 4.442151,-9.92193 9.920651,-9.92193 l 230.315611,0 c 5.47875,0 9.92125,4.44218 9.92125,9.92193 l 0,75.47233 c 0,5.4785 -4.4425,9.92062 -9.92125,9.92062 l -230.315611,0 c -5.4785,0 -9.920651,-4.44212 -9.920651,-9.92062 l 0,-75.47233 z"
   id="path15-4" /><path
   inkscape:connector-curvature="0"
   style="fill:#000000;fill-rule:nonzero;stroke:none"
   d="m 107.14356,394.9762 0,44.29088 7.05199,0 0,-19.39213 13.0225,0 0,-6.9605 -13.0225,0 0,-11.029 19.96588,0 0,-6.90925 -27.01787,0 z"
   id="path17-0" /><path
   inkscape:connector-curvature="0"
   style="fill:#000000;fill-rule:evenodd;stroke:none"
   d="m 158.45706,440.10933 c 5.69338,0 9.82175,-2.45113 12.38775,-7.35225 2.01725,-3.8355 3.02725,-9.06138 3.02725,-15.67875 0,-6.70413 -1.31875,-12.1545 -3.95625,-16.34888 -2.76737,-4.42625 -6.58687,-6.63937 -11.45875,-6.63937 -10.39312,0 -15.58837,7.66225 -15.58837,22.98825 0,7.82837 1.44775,13.70237 4.3445,17.6245 2.65262,3.6035 6.40012,5.4065 11.24387,5.4065 z m 0,-7.00563 c -5.79462,0 -8.69137,-5.34175 -8.69137,-16.02537 0,-5.57988 0.74212,-9.6375 2.2265,-12.17538 1.38312,-2.42187 3.53887,-3.63275 6.46487,-3.63275 5.49075,0 8.23725,5.2685 8.23725,15.80813 0,5.60912 -0.67737,9.71062 -2.03237,12.30587 -1.34038,2.47925 -3.4095,3.7195 -6.20488,3.7195 z"
   id="path19-9" /><path
   inkscape:connector-curvature="0"
   style="fill:#000000;fill-rule:evenodd;stroke:none"
   d="m 190.74956,401.88545 9.3,0 c 1.45625,0 2.76125,0.50413 3.915,1.51238 1.11,1.00962 1.665,2.19125 1.665,3.54625 0,1.44037 -0.49625,2.75262 -1.49125,3.93425 -1.09625,1.239 -2.365,1.858 -3.8075,1.858 l -9.58125,0 0,-10.85088 z m -6.72625,-6.90925 0,44.29088 6.72625,0 0,-19.39825 8.56625,0 7.1575,19.39825 7.18126,0 -7.91626,-20.91313 c 4.39876,-2.826 6.59751,-6.45137 6.59751,-10.87775 0,-3.34462 -1.16875,-6.27187 -3.50376,-8.7805 -2.365,-2.47925 -5.155,-3.7195 -8.37,-3.7195 l -16.43875,0 z"
   id="path21" /><path
   inkscape:connector-curvature="0"
   style="fill:#000000;fill-rule:evenodd;stroke:none"
   d="m 223.87332,394.9762 0,44.29088 12.35,0 c 5.29125,0 9.58875,-2.34988 12.89,-7.05088 2.92625,-4.12225 4.39,-8.87325 4.39,-14.2505 0,-6.84925 -1.52125,-12.35587 -4.5625,-16.52337 -3.12875,-4.31025 -7.36875,-6.46613 -12.7175,-6.46613 l -12.35,0 z m 7.00625,37.11063 0,-30.21113 5.08375,0 c 3.865,0 6.72625,1.91038 8.58625,5.73 1.4275,2.85513 2.14125,6.3085 2.14125,10.36 0,3.1275 -0.7575,6.04738 -2.27,8.75863 -2.005,3.57537 -4.82375,5.3625 -8.4575,5.3625 l -5.08375,0 z"
   id="path23" /></svg>