<?xml version="1.0" encoding="UTF-8" standalone="no"?>
<!-- Created with Inkscape (http://www.inkscape.org/) -->

<svg
   xmlns:dc="http://purl.org/dc/elements/1.1/"
   xmlns:cc="http://creativecommons.org/ns#"
   xmlns:rdf="http://www.w3.org/1999/02/22-rdf-syntax-ns#"
   xmlns:svg="http://www.w3.org/2000/svg"
   xmlns="http://www.w3.org/2000/svg"
   xmlns:sodipodi="http://sodipodi.sourceforge.net/DTD/sodipodi-0.dtd"
   xmlns:inkscape="http://www.inkscape.org/namespaces/inkscape"
   id="svg17624"
   version="1.1"
   inkscape:version="0.48.2 r9819"
   width="360.62802"
   height="467.91046"
   xml:space="preserve"
   sodipodi:docname="funeral.svg"><metadata
     id="metadata17630"><rdf:RDF><cc:Work
         rdf:about=""><dc:format>image/svg+xml</dc:format><dc:type
           rdf:resource="http://purl.org/dc/dcmitype/StillImage" /><dc:title></dc:title></cc:Work></rdf:RDF></metadata><defs
     id="defs17628"><inkscape:perspective
       sodipodi:type="inkscape:persp3d"
       inkscape:vp_x="0 : 0.5 : 1"
       inkscape:vp_y="0 : 1000 : 0"
       inkscape:vp_z="1 : 0.5 : 1"
       inkscape:persp3d-origin="0.5 : 0.33333333 : 1"
       id="perspective17632" /><clipPath
       clipPathUnits="userSpaceOnUse"
       id="clipPath17642"><path
         d="m -2,710 501,0 0,-711 -501,0 0,711 z"
         id="path17644"
         inkscape:connector-curvature="0" /></clipPath><clipPath
       clipPathUnits="userSpaceOnUse"
       id="clipPath17648"><path
         d="m 0,708.06 498,0 0,-708 -498,0 0,708 z"
         id="path17650"
         inkscape:connector-curvature="0" /></clipPath><clipPath
       clipPathUnits="userSpaceOnUse"
       id="clipPath17798"><path
         d="m -2,710 501,0 0,-711 -501,0 0,711 z"
         id="path17800"
         inkscape:connector-curvature="0" /></clipPath><clipPath
       clipPathUnits="userSpaceOnUse"
       id="clipPath17804"><path
         d="m 0,708.06 498,0 0,-708 -498,0 0,708 z"
         id="path17806"
         inkscape:connector-curvature="0" /></clipPath><clipPath
       id="Clip0"><path
         inkscape:connector-curvature="0"
         d="m 0,0 212.597,0 0,269.292 L 0,269.292 0,0 z"
         transform="translate(0.923828,0.879883)"
         id="path7" /></clipPath><clipPath
       id="Clip0-8"><path
         inkscape:connector-curvature="0"
         d="m 0,0 170.079,0 0,113.386 L 0,113.386 0,0 z"
         transform="translate(0.0986328,0.822266)"
         id="path7-8" /></clipPath><clipPath
       id="Clip0-1"><path
         inkscape:connector-curvature="0"
         d="m 0,0 287.009,0 0,159.449 L 0,159.449 0,0 z"
         transform="translate(0.396484,0.267578)"
         id="path7-7" /></clipPath><clipPath
       id="Clip0-17"><path
         inkscape:connector-curvature="0"
         d="m 0,0 340.157,0 0,170.079 L 0,170.079 0,0 z"
         transform="translate(0.289063,0.774414)"
         id="path7-4" /></clipPath><clipPath
       id="Clip0-174"><path
         inkscape:connector-curvature="0"
         d="m 0,0 269.291,0 0,85.039 L 0,85.039 0,0 z"
         transform="translate(0.899414,0.480469)"
         id="path7-0" /></clipPath></defs><sodipodi:namedview
     pagecolor="#ffffff"
     bordercolor="#666666"
     borderopacity="1"
     objecttolerance="10"
     gridtolerance="10"
     guidetolerance="10"
     inkscape:pageopacity="0"
     inkscape:pageshadow="2"
     inkscape:window-width="1280"
     inkscape:window-height="1004"
     id="namedview17626"
     showgrid="false"
     inkscape:zoom="1.0853633"
     inkscape:cx="205.20589"
     inkscape:cy="118.24771"
     inkscape:window-x="-8"
     inkscape:window-y="-8"
     inkscape:window-maximized="1"
     inkscape:current-layer="g17634"
     fit-margin-top="0"
     fit-margin-left="0"
     fit-margin-right="0"
     fit-margin-bottom="0"
     showguides="true"
     inkscape:guide-bbox="true" /><g
     id="g17634"
     inkscape:groupmode="layer"
     inkscape:label="GG1999P002"
     transform="matrix(1.25,0,0,-1.25,570.69351,-443.52204)"><path
       inkscape:connector-curvature="0"
       style="fill:#ef7c23;fill-rule:nonzero;stroke:none"
       d="m -172.35328,-488.68004 c 5.735,-5.734 5.734,-15.03 0,-20.764 l -129.571,-129.563 c -5.734,-5.733 -15.03,-5.733 -20.765,0 l -129.5656,129.563 c -5.7334,5.734 -5.7334,15.03 9.6e-4,20.764 l 129.57064,129.56163 c 5.735,5.73437 15.03,5.73437 20.765,0 l 129.565,-129.56163 z"
       id="path11" /><path
       inkscape:connector-curvature="0"
       style="fill:#000000;fill-rule:nonzero;stroke:none"
       d="m -450.00781,-506.68977 c -4.09571,4.095 -4.09571,10.736 0,14.832 l 130.28629,130.2833 c 4.096,4.0957 10.736,4.0957 14.833,0 l 130.288,-130.2833 c 4.097,-4.096 4.097,-10.737 0,-14.832 l -130.285,-130.283 c -4.097,-4.096 -10.737,-4.096 -14.833,0 l -130.28929,130.283 z"
       id="path13" /><path
       inkscape:connector-curvature="0"
       style="fill:#ef7c23;fill-rule:nonzero;stroke:none"
       d="m -446.19925,-502.71977 c -1.99313,1.992 -1.99313,5.222 0,7.215 l 130.28687,130.28287 c 1.992,1.99313 5.222,1.99313 7.215,0 l 130.289,-130.28287 c 1.993,-1.993 1.993,-5.223 8e-4,-7.215 l -130.287,-130.284 c -1.993,-1.993 -5.223,-1.993 -7.215,0 l -130.28967,130.284 z"
       id="path15" /><path
       inkscape:connector-curvature="0"
       style="fill:#000000;fill-rule:nonzero;stroke:none"
       d="m -337.10775,-580.1085 c 0,13.699 11.105,24.804 24.804,24.804 13.698,0 24.803,-11.105 24.803,-24.804 0,-13.698 -11.105,-24.803 -24.803,-24.803 -13.699,0 -24.804,11.105 -24.804,24.803 z"
       id="path17" /><path
       inkscape:connector-curvature="0"
       style="fill:#000000;fill-rule:nonzero;stroke:none"
       d="m -312.30375,-395.7141 c 17.612,0 31.89,-14.3028 31.89,-31.8897 0,-17.5752 -26.504,-116.9293 -26.504,-116.9293 l -10.773,0 c 0,0 -26.504,99.3541 -26.504,116.9293 0,17.5869 14.278,31.8897 31.891,31.8897 z"
       id="path19" /><path
       inkscape:connector-curvature="0"
       style="fill:#ef7c23;fill-rule:nonzero;stroke:none"
       d="m -446.95321,-658.27979 c 0,7.8271 6.34571,14.1728 14.1729,14.1728 l 240.9461,0 c 7.828,0 14.172,-6.3457 14.172,-14.1728 l 0,-56.6934 c 0,-7.8271 -6.344,-14.1728 -14.172,-14.1728 l -240.9461,0 c -7.82719,0 -14.1729,6.3457 -14.1729,14.1728 l 0,56.6934 z"
       id="path11-1" /><path
       inkscape:connector-curvature="0"
       style="fill:#000000;fill-rule:nonzero;stroke:none"
       d="m -444.11825,-658.27987 c 0,6.26175 5.07617,11.3389 11.3379,11.3389 l 240.9461,0 c 6.261,0 11.338,-5.07715 11.338,-11.3389 l 0,-56.6934 c 0,-6.2616 -5.077,-11.33871 -11.338,-11.33871 l -240.9461,0 c -6.26173,0 -11.3379,5.07711 -11.3379,11.33871 l 0,56.6934 z"
       id="path13-7" /><path
       inkscape:connector-curvature="0"
       style="fill:#ef7c23;fill-rule:nonzero;stroke:none"
       d="m -439.8663,-658.27982 c 0,3.9131 3.17287,7.08592 7.08687,7.08592 l 240.94513,0 c 3.914,0 7.086,-3.17282 7.086,-7.08592 l 0,-56.69338 c 0,-3.914 -3.172,-7.0859 -7.086,-7.0859 l -240.94513,0 c -3.914,0 -7.08687,3.1719 -7.08687,7.0859 l 0,56.69338 z"
       id="path15-4" /><path
       style="fill:#000000;fill-rule:nonzero;stroke:none"
       d="m -417.7638,-668.89689 0,-35.4336 4.9248,0 0,17.1142 7.2647,0 0,5.0664 -7.2647,0 0,8.3623 12.792,0 0,4.8907 -17.7168,0 z"
       id="path17-4"
       inkscape:connector-curvature="0" /><path
       style="fill:#000000;fill-rule:nonzero;stroke:none"
       d="m -393.8468,-704.33049 4.961,0 0,35.4336 -4.961,0 0,-35.4336 z"
       id="path19-0"
       inkscape:connector-curvature="0" /><path
       style="fill:#000000;fill-rule:nonzero;stroke:none"
       d="m -381.339,-668.89689 0,-35.4336 17.7159,0 0,4.6767 -12.6846,0 0,30.7569 -5.0313,0 z"
       id="path21"
       inkscape:connector-curvature="0" /><path
       style="fill:#000000;fill-rule:nonzero;stroke:none"
       d="m -357.63481,-668.89689 0,-35.4336 5.0312,0 0,20.1611 6.55451,-20.1611 6.51999,20.1611 0,-20.1611 4.926,0 0,35.4336 -5.351,0 -6.09499,-19.0284 -6.55451,19.0284 -5.0312,0 z"
       id="path23"
       inkscape:connector-curvature="0" /><path
       style="fill:#000000;fill-rule:nonzero;stroke:none"
       d="m -293.25511,-694.90569 c 0,-1.5118 -0.39,-2.752 -1.169,-3.7198 -0.779,-0.9697 -1.748,-1.4531 -2.905,-1.4531 -3.661,0 -5.492,4.7246 -5.492,14.1729 0,3.0468 0.271,5.6103 0.815,7.6894 0.873,3.3067 2.374,4.961 4.5,4.961 1.134,0 2.125,-0.4493 2.976,-1.3467 0.85,-0.8975 1.275,-1.8545 1.275,-2.8701 l 4.926,0 c 0,2.7636 -0.862,4.9951 -2.587,6.6962 -1.725,1.7247 -3.921,2.587 -6.59,2.587 -6.85,0 -10.275,-5.9053 -10.275,-17.7168 0,-5.3858 0.519,-9.5196 1.558,-12.4014 1.63,-4.4648 4.571,-6.6963 8.824,-6.6963 2.715,0 4.913,0.8975 6.589,2.6924 1.677,1.8184 2.516,4.2871 2.516,7.4053 l -4.961,0 z"
       id="path25"
       inkscape:connector-curvature="0" /><path
       style="fill:#000000;fill-rule:evenodd;stroke:none"
       d="m -267.85011,-687.07469 c 1.56,0.543 2.824,1.6885 3.792,3.4375 0.874,1.6055 1.311,3.3184 1.311,5.1367 0,2.3389 -0.72,4.4883 -2.161,6.4493 -1.535,2.1025 -3.354,3.1533 -5.457,3.1543 l -11.869,0 0,-35.4336 4.888,0 0,16.4404 4.607,0 4.713,-16.4404 5.279,0 -5.103,17.2558 z m -3.295,4.2871 -6.201,0 0,8.8233 6.238,0 c 2.126,0 3.188,-1.4532 3.188,-4.3584 0,-1.1817 -0.26,-2.1846 -0.779,-3.0117 -0.591,-0.9688 -1.405,-1.4532 -2.446,-1.4532 z"
       id="path27"
       inkscape:connector-curvature="0" /><path
       style="fill:#000000;fill-rule:nonzero;stroke:none"
       d="m -255.27011,-668.89689 0,-35.4336 17.716,0 0,4.9961 -12.862,0 0,11.6923 7.547,0 0,4.8545 -7.547,0 0,8.8936 12.295,0 0,4.9971 -17.149,0 z"
       id="path29"
       inkscape:connector-curvature="0" /><path
       style="fill:#000000;fill-rule:nonzero;stroke:none"
       d="m -233.44411,-668.89689 5.74,-35.4336 4.182,0 3.471,18.1416 3.403,-18.1416 4.393,0 5.386,35.4336 -5.068,0 -2.727,-18.7452 -3.366,18.7452 -4.147,0 -3.33,-18.4258 -2.941,18.4258 -4.996,0 z"
       id="path31"
       inkscape:connector-curvature="0" /></g></svg>