<?xml version="1.0" encoding="UTF-8" standalone="no"?>
<!-- Created with Inkscape (http://www.inkscape.org/) -->

<svg
   xmlns:dc="http://purl.org/dc/elements/1.1/"
   xmlns:cc="http://creativecommons.org/ns#"
   xmlns:rdf="http://www.w3.org/1999/02/22-rdf-syntax-ns#"
   xmlns:svg="http://www.w3.org/2000/svg"
   xmlns="http://www.w3.org/2000/svg"
   xmlns:sodipodi="http://sodipodi.sourceforge.net/DTD/sodipodi-0.dtd"
   xmlns:inkscape="http://www.inkscape.org/namespaces/inkscape"
   id="svg17624"
   version="1.1"
   inkscape:version="0.48.2 r9819"
   width="360.6268"
   height="539.97076"
   xml:space="preserve"
   sodipodi:docname="AJAX1.svg"><metadata
     id="metadata17630"><rdf:RDF><cc:Work
         rdf:about=""><dc:format>image/svg+xml</dc:format><dc:type
           rdf:resource="http://purl.org/dc/dcmitype/StillImage" /><dc:title /></cc:Work></rdf:RDF></metadata><defs
     id="defs17628"><inkscape:perspective
       sodipodi:type="inkscape:persp3d"
       inkscape:vp_x="0 : 0.5 : 1"
       inkscape:vp_y="0 : 1000 : 0"
       inkscape:vp_z="1 : 0.5 : 1"
       inkscape:persp3d-origin="0.5 : 0.33333333 : 1"
       id="perspective17632" /><clipPath
       clipPathUnits="userSpaceOnUse"
       id="clipPath17642"><path
         d="m -2,710 501,0 0,-711 -501,0 0,711 z"
         id="path17644"
         inkscape:connector-curvature="0" /></clipPath><clipPath
       clipPathUnits="userSpaceOnUse"
       id="clipPath17648"><path
         d="m 0,708.06 498,0 0,-708 -498,0 0,708 z"
         id="path17650"
         inkscape:connector-curvature="0" /></clipPath><clipPath
       clipPathUnits="userSpaceOnUse"
       id="clipPath17798"><path
         d="m -2,710 501,0 0,-711 -501,0 0,711 z"
         id="path17800"
         inkscape:connector-curvature="0" /></clipPath><clipPath
       clipPathUnits="userSpaceOnUse"
       id="clipPath17804"><path
         d="m 0,708.06 498,0 0,-708 -498,0 0,708 z"
         id="path17806"
         inkscape:connector-curvature="0" /></clipPath></defs><sodipodi:namedview
     pagecolor="#ffffff"
     bordercolor="#666666"
     borderopacity="1"
     objecttolerance="10"
     gridtolerance="10"
     guidetolerance="10"
     inkscape:pageopacity="0"
     inkscape:pageshadow="2"
     inkscape:window-width="1280"
     inkscape:window-height="1004"
     id="namedview17626"
     showgrid="false"
     inkscape:zoom="2.0022598"
     inkscape:cx="224.09691"
     inkscape:cy="167.73048"
     inkscape:window-x="-8"
     inkscape:window-y="-8"
     inkscape:window-maximized="1"
     inkscape:current-layer="g17634"
     fit-margin-top="0"
     fit-margin-left="0"
     fit-margin-right="0"
     fit-margin-bottom="0"
     showguides="true"
     inkscape:guide-bbox="true" /><g
     id="g17634"
     inkscape:groupmode="layer"
     inkscape:label="GG1999P002"
     transform="matrix(1.25,0,0,-1.25,70.550293,607.31451)"><path
       inkscape:connector-curvature="0"
       style="fill:#ffdb00;fill-rule:nonzero;stroke:none"
       d="m 227.76081,351.98796 c 5.734,-5.733 5.734,-15.029 -8e-4,-20.762 L 98.190014,201.66195 c -5.734,-5.733 -15.031,-5.733 -20.765,0 L -52.139824,331.22596 c -5.73437,5.733 -5.73339,15.029 0,20.762 l 129.570638,129.5636 c 5.735,5.7334 15.031,5.7334 20.765,0 L 227.76081,351.98796 z"
       id="path11-1" /><path
       inkscape:connector-curvature="0"
       style="fill:#000000;fill-rule:nonzero;stroke:none"
       d="m -49.892744,333.97925 c -4.09571,4.095 -4.09571,10.736 0,14.832 L 80.392554,479.09453 c 4.097,4.09571 10.738,4.09571 14.833,0 L 225.51455,348.81125 c 4.096,-4.096 4.096,-10.737 0,-14.832 L 95.228554,203.69525 c -4.095,-4.095 -10.736,-4.095 -14.832,0 l -130.289298,130.284 z"
       id="path13-7" /><path
       inkscape:connector-curvature="0"
       style="fill:#ffdb00;fill-rule:nonzero;stroke:none"
       d="m -46.404474,337.8613 c -1.99218,1.994 -1.99218,5.224 0,7.216 L 83.882354,475.36112 c 1.992,1.99317 5.223,1.99317 7.215,0 L 221.38635,345.0773 c 1.993,-1.992 1.993,-5.222 0,-7.216 L 91.100354,207.57929 c -1.992,-1.993 -5.223,-1.993 -7.216,0 L -46.404474,337.8613 z"
       id="path15-4" /><path
       inkscape:connector-curvature="0"
       style="fill:#000000;fill-rule:nonzero;stroke:none"
       d="m 70.094134,299.53752 -21.258998,-35.433 -18.224,10.95 18.224,30.368 0,73.27011 -18.224,30.36769 18.224,10.9502 21.258998,-35.4339 0,-85.0391 z"
       id="path17" /><path
       inkscape:connector-curvature="0"
       style="fill:#000000;fill-rule:nonzero;stroke:none"
       d="m 105.52713,299.53752 0,85.0391 21.26,35.4339 18.223,-10.9502 -18.223,-30.36769 0,-73.27011 18.223,-30.368 -18.223,-10.95 -21.26,35.433 z"
       id="path19" /><path
       inkscape:connector-curvature="0"
       style="fill:#ffffff;stroke:#000000;stroke-width:0.95999998;stroke-miterlimit:4;stroke-opacity:1;stroke-dasharray:none"
       d="m 23.702966,184.75719 c 0,6.26173 5.07617,11.3379 11.3389,11.3379 l 104.882094,0 c 6.261,0 11.338,-5.07617 11.338,-11.3379 l 0,-119.056101 c 0,-6.262 -5.077,-11.338 -11.338,-11.338 l -104.882094,0 c -6.26273,0 -11.3389,5.076 -11.3389,11.338 l 0,119.056101 z"
       id="path15" /><path
       inkscape:connector-curvature="0"
       style="fill:#0069b3;fill-rule:nonzero;stroke:none"
       d="m 29.371916,184.75717 c 0,3.13089 2.53808,5.66898 5.66993,5.66898 l 104.882064,0 c 3.13,0 5.668,-2.53809 5.668,-5.66898 l 0,-119.056021 c 0,-3.131 -2.538,-5.669 -5.668,-5.669 l -104.882064,0 c -3.13185,0 -5.66993,2.538 -5.66993,5.669 l 0,119.056021 z"
       id="path11" /><path
       inkscape:connector-curvature="0"
       style="fill:#ffffff;fill-rule:nonzero;stroke:none"
       d="m 74.726446,142.23767 0,-68.032401 -17.0079,0 0,68.032401 -8.0527,-3.1426 c -1.7353,-0.7187 -3.7246,0.1055 -4.4443,1.8408 -0.4512,1.0909 -0.2959,2.2784 0.3144,3.1915 l 20.6866,32.1259 20.6855,-32.1259 c 0.6104,-0.9131 0.7656,-2.1006 0.3145,-3.1915 -0.7188,-1.7353 -2.7081,-2.5595 -4.4434,-1.8408 l -8.0527,3.1426 z"
       id="path19-0" /><path
       inkscape:connector-curvature="0"
       style="fill:none;stroke:#ffffff;stroke-width:2.83459997;stroke-linecap:butt;stroke-linejoin:miter;stroke-dasharray:none"
       d="m 126.86714,98.977859 c 0.675,0.2764 1.475,0.2256 2.127,-0.20989 1.041,-0.69631 1.321,-2.10351 0.626,-3.14451 l -13.7912,-21.41799 -13.791,21.41799 c -0.6953,1.041 -0.4151,2.4482 0.626,3.14451 0.6513,0.43549 1.4521,0.48629 2.1269,0.20989 l 5.3682,-2.09469 0,45.353501 11.3398,0 0,-45.353501 5.3683,2.09469 z"
       id="path13" /><path
       inkscape:connector-curvature="0"
       style="fill:#c0111e;fill-opacity:1;fill-rule:nonzero;stroke:none"
       d="m 126.86714,98.977859 c 0.675,0.2764 1.475,0.2256 2.127,-0.20989 1.041,-0.69631 1.321,-2.10351 0.626,-3.14451 l -13.7912,-21.41799 -13.791,21.41799 c -0.6953,1.041 -0.4151,2.4482 0.626,3.14451 0.6513,0.43549 1.4521,0.48629 2.1269,0.20989 l 5.3682,-2.09469 0,45.353501 11.3398,0 0,-45.353501 5.3683,2.09469 z"
       id="path17-9" /></g></svg>