<?xml version="1.0" encoding="UTF-8" standalone="no"?>
<!-- Created with Inkscape (http://www.inkscape.org/) -->

<svg
   xmlns:dc="http://purl.org/dc/elements/1.1/"
   xmlns:cc="http://creativecommons.org/ns#"
   xmlns:rdf="http://www.w3.org/1999/02/22-rdf-syntax-ns#"
   xmlns:svg="http://www.w3.org/2000/svg"
   xmlns="http://www.w3.org/2000/svg"
   xmlns:sodipodi="http://sodipodi.sourceforge.net/DTD/sodipodi-0.dtd"
   xmlns:inkscape="http://www.inkscape.org/namespaces/inkscape"
   id="svg17624"
   version="1.1"
   inkscape:version="0.48.2 r9819"
   width="360.62802"
   height="538.77545"
   xml:space="preserve"
   sodipodi:docname="trucks crossing.svg"><metadata
     id="metadata17630"><rdf:RDF><cc:Work
         rdf:about=""><dc:format>image/svg+xml</dc:format><dc:type
           rdf:resource="http://purl.org/dc/dcmitype/StillImage" /><dc:title></dc:title></cc:Work></rdf:RDF></metadata><defs
     id="defs17628"><inkscape:perspective
       sodipodi:type="inkscape:persp3d"
       inkscape:vp_x="0 : 0.5 : 1"
       inkscape:vp_y="0 : 1000 : 0"
       inkscape:vp_z="1 : 0.5 : 1"
       inkscape:persp3d-origin="0.5 : 0.33333333 : 1"
       id="perspective17632" /><clipPath
       clipPathUnits="userSpaceOnUse"
       id="clipPath17642"><path
         d="m -2,710 501,0 0,-711 -501,0 0,711 z"
         id="path17644"
         inkscape:connector-curvature="0" /></clipPath><clipPath
       clipPathUnits="userSpaceOnUse"
       id="clipPath17648"><path
         d="m 0,708.06 498,0 0,-708 -498,0 0,708 z"
         id="path17650"
         inkscape:connector-curvature="0" /></clipPath><clipPath
       clipPathUnits="userSpaceOnUse"
       id="clipPath17798"><path
         d="m -2,710 501,0 0,-711 -501,0 0,711 z"
         id="path17800"
         inkscape:connector-curvature="0" /></clipPath><clipPath
       clipPathUnits="userSpaceOnUse"
       id="clipPath17804"><path
         d="m 0,708.06 498,0 0,-708 -498,0 0,708 z"
         id="path17806"
         inkscape:connector-curvature="0" /></clipPath><clipPath
       id="Clip0"><path
         inkscape:connector-curvature="0"
         d="m 0,0 212.597,0 0,269.292 L 0,269.292 0,0 z"
         transform="translate(0.923828,0.879883)"
         id="path7" /></clipPath><clipPath
       id="Clip0-8"><path
         inkscape:connector-curvature="0"
         d="m 0,0 170.079,0 0,113.386 L 0,113.386 0,0 z"
         transform="translate(0.0986328,0.822266)"
         id="path7-8" /></clipPath><clipPath
       id="Clip0-1"><path
         inkscape:connector-curvature="0"
         d="m 0,0 287.009,0 0,159.449 L 0,159.449 0,0 z"
         transform="translate(0.396484,0.267578)"
         id="path7-7" /></clipPath><clipPath
       id="Clip0-17"><path
         inkscape:connector-curvature="0"
         d="m 0,0 340.157,0 0,170.079 L 0,170.079 0,0 z"
         transform="translate(0.289063,0.774414)"
         id="path7-4" /></clipPath><clipPath
       id="Clip0-174"><path
         inkscape:connector-curvature="0"
         d="m 0,0 269.291,0 0,85.039 L 0,85.039 0,0 z"
         transform="translate(0.899414,0.480469)"
         id="path7-0" /></clipPath><clipPath
       id="Clip0-9"><path
         inkscape:connector-curvature="0"
         d="m 0,0 269.292,0 0,141.731 L 0,141.731 0,0 z"
         transform="translate(0.179688,0.916992)"
         id="path7-48" /></clipPath><clipPath
       id="Clip0-174-5"><path
         inkscape:connector-curvature="0"
         d="m 0,0 269.291,0 0,141.732 L 0,141.732 0,0 z"
         transform="translate(0.40332,0.170898)"
         id="path7-0-1" /></clipPath></defs><sodipodi:namedview
     pagecolor="#ffffff"
     bordercolor="#666666"
     borderopacity="1"
     objecttolerance="10"
     gridtolerance="10"
     guidetolerance="10"
     inkscape:pageopacity="0"
     inkscape:pageshadow="2"
     inkscape:window-width="1280"
     inkscape:window-height="1004"
     id="namedview17626"
     showgrid="false"
     inkscape:zoom="1.3447817"
     inkscape:cx="246.50822"
     inkscape:cy="150.07923"
     inkscape:window-x="-8"
     inkscape:window-y="-8"
     inkscape:window-maximized="1"
     inkscape:current-layer="g17634"
     fit-margin-top="0"
     fit-margin-left="0"
     fit-margin-right="0"
     fit-margin-bottom="0"
     showguides="true"
     inkscape:guide-bbox="true" /><g
     id="g17634"
     inkscape:groupmode="layer"
     inkscape:label="GG1999P002"
     transform="matrix(1.25,0,0,-1.25,570.69351,-470.55705)"><path
       inkscape:connector-curvature="0"
       style="fill:#ef7c23;fill-rule:nonzero;stroke:none"
       d="m -172.35328,-510.30805 c 5.735,-5.734 5.734,-15.03 0,-20.764 l -129.571,-129.563 c -5.734,-5.733 -15.03,-5.733 -20.765,0 l -129.5656,129.563 c -5.7334,5.734 -5.7334,15.03 9.6e-4,20.764 l 129.57064,129.56163 c 5.735,5.73437 15.03,5.73437 20.765,0 l 129.565,-129.56163 z"
       id="path11" /><path
       inkscape:connector-curvature="0"
       style="fill:#000000;fill-rule:nonzero;stroke:none"
       d="m -450.00781,-528.31778 c -4.09571,4.095 -4.09571,10.736 0,14.832 l 130.28629,130.2833 c 4.096,4.0957 10.736,4.0957 14.833,0 l 130.288,-130.2833 c 4.097,-4.096 4.097,-10.737 0,-14.832 l -130.285,-130.283 c -4.097,-4.096 -10.737,-4.096 -14.833,0 l -130.28929,130.283 z"
       id="path13" /><path
       inkscape:connector-curvature="0"
       style="fill:#ef7c23;fill-rule:nonzero;stroke:none"
       d="m -446.19925,-524.34778 c -1.99313,1.992 -1.99313,5.222 0,7.215 l 130.28687,130.28287 c 1.992,1.99313 5.222,1.99313 7.215,0 l 130.289,-130.28287 c 1.993,-1.993 1.993,-5.223 8e-4,-7.215 l -130.287,-130.284 c -1.993,-1.993 -5.223,-1.993 -7.215,0 l -130.28967,130.284 z"
       id="path15" /><path
       inkscape:connector-curvature="0"
       style="fill:#000000;fill-rule:nonzero;stroke:none"
       d="m -337.10775,-601.73651 c 0,13.699 11.105,24.804 24.804,24.804 13.698,0 24.803,-11.105 24.803,-24.804 0,-13.698 -11.105,-24.803 -24.803,-24.803 -13.699,0 -24.804,11.105 -24.804,24.803 z"
       id="path17" /><path
       inkscape:connector-curvature="0"
       style="fill:#000000;fill-rule:nonzero;stroke:none"
       d="m -312.30375,-417.34211 c 17.612,0 31.89,-14.3028 31.89,-31.8897 0,-17.5752 -26.504,-116.9293 -26.504,-116.9293 l -10.773,0 c 0,0 -26.504,99.3541 -26.504,116.9293 0,17.5869 14.278,31.8897 31.891,31.8897 z"
       id="path19" /><path
       inkscape:connector-curvature="0"
       style="fill:#ef7c23;fill-rule:nonzero;stroke:none"
       d="m -446.95321,-679.9078 c 0,7.82807 6.3457,14.1728 14.1738,14.1728 l 240.9442,0 c 7.828,0 14.174,-6.34473 14.174,-14.1728 l 0,-113.3862 c 0,-7.828 -6.346,-14.172 -14.174,-14.172 l -240.9442,0 c -7.8281,0 -14.1738,6.344 -14.1738,14.172 l 0,113.3862 z"
       id="path11-17" /><path
       inkscape:connector-curvature="0"
       style="fill:#000000;fill-rule:nonzero;stroke:none"
       d="m -443.55185,-679.90777 c 0,5.94913 4.82325,10.7714 10.7724,10.7714 l 240.9446,0 c 5.949,0 10.771,-4.82227 10.771,-10.7714 l 0,-113.3866 c 0,-5.949 -4.822,-10.771 -10.771,-10.771 l -240.9446,0 c -5.94915,0 -10.7724,4.822 -10.7724,10.771 l 0,113.3866 z"
       id="path13-4" /><path
       inkscape:connector-curvature="0"
       style="fill:#ef7c23;fill-rule:nonzero;stroke:none"
       d="m -438.44931,-679.90782 c 0,3.1308 2.53811,5.6689 5.66991,5.6689 l 240.9441,0 c 3.132,0 5.67,-2.5381 5.67,-5.6689 l 0,-113.3861 c 0,-3.13 -2.538,-5.669 -5.67,-5.669 l -240.9441,0 c -3.1318,0 -5.66991,2.539 -5.66991,5.669 l 0,113.3861 z"
       id="path15-0" /><path
       style="fill:#000000;fill-rule:nonzero;stroke:none"
       d="m -413.51079,-745.81215 0,-35.4329 5.6338,0 0,20.5511 8.1855,-20.5511 7.9717,20.5511 0,-20.5511 5.457,0 0,35.4329 -5.6689,0 -7.8311,-20.4809 -8.4336,20.4809 -5.3144,0 z"
       id="path17-2"
       inkscape:connector-curvature="0" /><path
       style="fill:#000000;fill-rule:evenodd;stroke:none"
       d="m -367.73149,-745.81215 -12.0118,-35.3979 5.917,0 3.2598,9.993 11.3389,0 3.4726,-9.993 5.7403,0 -12.1182,35.3979 -5.5986,0 z m 6.413,-19.7359 -7.2285,0 3.544,10.5592 3.6845,-10.5592 z"
       id="path19-7"
       inkscape:connector-curvature="0" /><path
       style="fill:#000000;fill-rule:evenodd;stroke:none"
       d="m -338.14479,-751.33945 7.441,0 c 1.157,0 2.185,-0.4014 3.083,-1.2051 0.921,-0.8027 1.381,-1.7481 1.381,-2.834 0,-1.1582 -0.402,-2.209 -1.205,-3.1543 -0.874,-0.9922 -1.889,-1.4873 -3.047,-1.4873 l -7.653,0 0,8.6807 z m -5.386,5.5273 0,-35.4329 5.386,0 0,15.52 6.838,0 5.74,-15.52 5.741,0 -6.343,16.7239 c 3.52,2.2686 5.28,5.1739 5.28,8.7168 0,2.669 -0.945,4.9961 -2.835,6.9805 -1.866,2.0078 -4.087,3.0117 -6.662,3.0117 l -13.145,0 z"
       id="path21"
       inkscape:connector-curvature="0" /><path
       style="fill:#000000;fill-rule:nonzero;stroke:none"
       d="m -311.60579,-745.81215 0,-35.4329 5.421,0 0,12.367 3.614,4.3569 9.142,-16.7239 6.271,0 -11.693,21.4017 11.056,14.0312 -7.016,0 -11.374,-14.3857 0,14.3857 -5.421,0 z"
       id="path23"
       inkscape:connector-curvature="0" /><path
       style="fill:#000000;fill-rule:nonzero;stroke:none"
       d="m -280.67279,-781.24505 5.562,0 0,35.4329 -5.562,0 0,-35.4329 z"
       id="path25"
       inkscape:connector-curvature="0" /><path
       style="fill:#000000;fill-rule:nonzero;stroke:none"
       d="m -266.96079,-745.81215 0,-35.4329 5.491,0 0,22.8899 13.465,-22.8899 4.748,0 0,35.4329 -5.599,0 0,-23.0659 -13.464,23.0659 -4.641,0 z"
       id="path27"
       inkscape:connector-curvature="0" /><path
       style="fill:#000000;fill-rule:nonzero;stroke:none"
       d="m -216.93079,-754.84725 5.209,1.7714 c -0.922,2.4092 -2.339,4.335 -4.252,5.7754 -1.914,1.4649 -4.052,2.1973 -6.414,2.1973 -8.338,0 -12.507,-6.4258 -12.507,-19.2754 0,-4.7725 0.92,-8.7285 2.763,-11.8715 2.221,-3.778 5.469,-5.668 9.744,-5.668 2.977,0 5.587,1.062 7.831,3.189 2.244,2.149 3.366,4.688 3.366,7.618 l 0,7.4054 -11.515,0 0,-5.5984 6.023,0 0,-2.268 c 0,-0.969 -0.544,-1.996 -1.63,-3.083 -1.205,-1.228 -2.492,-1.843 -3.862,-1.843 -2.527,0 -4.417,1.277 -5.669,3.828 -1.04,2.102 -1.56,4.831 -1.56,8.1851 0,3.8505 0.319,6.7675 0.957,8.7509 1.039,3.2842 3.036,4.9258 5.989,4.9258 1.322,0 2.445,-0.3662 3.366,-1.0986 0.732,-0.6143 1.453,-1.5947 2.161,-2.9404 z"
       id="path29"
       inkscape:connector-curvature="0" /><path
       style="fill:#000000;fill-rule:evenodd;stroke:none"
       d="m -327.61479,-697.48105 7.441,0 c 1.157,0 2.185,-0.4014 3.083,-1.2051 0.921,-0.8027 1.382,-1.7481 1.382,-2.834 0,-1.1582 -0.402,-2.209 -1.205,-3.1543 -0.874,-0.9922 -1.89,-1.4873 -3.047,-1.4873 l -7.654,0 0,8.6807 z m -5.385,5.5273 0,-35.4326 5.385,0 0,15.5195 6.838,0 5.741,-15.5195 5.74,0 -6.343,16.7236 c 3.521,2.2686 5.28,5.1739 5.28,8.7168 0,2.669 -0.945,4.9961 -2.835,6.9805 -1.866,2.0078 -4.086,3.0117 -6.661,3.0117 l -13.145,0 z"
       id="path31"
       inkscape:connector-curvature="0" /><path
       style="fill:#000000;fill-rule:evenodd;stroke:none"
       d="m -290.19879,-728.05925 c 4.56,0 7.867,1.96 9.922,5.8809 1.607,3.0713 2.41,7.252 2.41,12.5439 0,5.3624 -1.051,9.7198 -3.154,13.0743 -2.221,3.5429 -5.279,5.3154 -9.178,5.3154 -8.314,0 -12.471,-6.1309 -12.471,-18.3897 0,-6.2597 1.157,-10.9609 3.472,-14.1025 2.125,-2.8828 5.126,-4.3223 8.999,-4.3223 z m 0,5.5977 c -4.628,0 -6.944,4.2754 -6.944,12.8271 0,4.4649 0.591,7.712 1.772,9.7432 1.11,1.9375 2.835,2.9063 5.172,2.9063 4.395,0 6.591,-4.2168 6.591,-12.6495 0,-4.4882 -0.543,-7.7714 -1.63,-9.8505 -1.062,-1.9844 -2.715,-2.9766 -4.961,-2.9766 z"
       id="path33"
       inkscape:connector-curvature="0" /><path
       style="fill:#000000;fill-rule:evenodd;stroke:none"
       d="m -259.33579,-691.95375 -12.012,-35.3974 5.918,0 3.26,9.9921 11.338,0 3.472,-9.9921 5.741,0 -12.119,35.3974 -5.598,0 z m 6.414,-19.7363 -7.229,0 3.543,10.5596 3.686,-10.5596 z"
       id="path35"
       inkscape:connector-curvature="0" /><path
       style="fill:#000000;fill-rule:evenodd;stroke:none"
       d="m -234.95779,-691.95375 0,-35.4326 9.885,0 c 4.229,0 7.665,1.8779 10.311,5.6338 2.339,3.3066 3.508,7.1103 3.508,11.4092 0,5.4804 -1.216,9.8857 -3.65,13.2168 -2.504,3.4482 -5.893,5.1728 -10.169,5.1728 l -9.885,0 z m 5.597,-29.6933 0,24.166 4.076,0 c 3.094,0 5.385,-1.5235 6.874,-4.5713 1.133,-2.291 1.701,-5.0547 1.701,-8.291 0,-2.5039 -0.603,-4.8428 -1.808,-7.0157 -1.606,-2.8584 -3.861,-4.288 -6.767,-4.288 l -4.076,0 z"
       id="path37"
       inkscape:connector-curvature="0" /><path
       style="fill:#000000;fill-rule:nonzero;stroke:none"
       d="m -413.51079,-691.95375 0,-35.4326 5.4921,0 0,22.8896 13.4639,-22.8896 4.749,0 0,35.4326 -5.5986,0 0,-23.0664 -13.4648,23.0664 -4.6416,0 z"
       id="path39"
       inkscape:connector-curvature="0" /><path
       style="fill:#000000;fill-rule:evenodd;stroke:none"
       d="m -368.93659,-728.05925 c 4.5586,0 7.8662,1.96 9.9209,5.8809 1.6064,3.0713 2.4101,7.252 2.4101,12.5439 0,5.3624 -1.0517,9.7208 -3.1533,13.0743 -2.2207,3.5429 -5.2803,5.3154 -9.1777,5.3154 -8.3145,0 -12.4717,-6.1299 -12.4717,-18.3897 0,-6.2597 1.1563,-10.9609 3.4717,-14.1025 2.126,-2.8818 5.126,-4.3223 9,-4.3223 z m 0,5.5977 c -4.6299,0 -6.9444,4.2754 -6.9444,12.8271 0,4.4649 0.5899,7.712 1.7715,9.7432 1.1094,1.9375 2.835,2.9063 5.1729,2.9063 4.3945,0 6.5908,-4.2168 6.5908,-12.6495 0,-4.4882 -0.543,-7.7714 -1.6299,-9.8505 -1.0635,-1.9844 -2.7168,-2.9766 -4.9609,-2.9766 z"
       id="path41"
       inkscape:connector-curvature="0" /></g></svg>