<?xml version="1.0" encoding="UTF-8" standalone="no"?>
<!-- Created with Inkscape (http://www.inkscape.org/) -->

<svg
   xmlns:dc="http://purl.org/dc/elements/1.1/"
   xmlns:cc="http://creativecommons.org/ns#"
   xmlns:rdf="http://www.w3.org/1999/02/22-rdf-syntax-ns#"
   xmlns:svg="http://www.w3.org/2000/svg"
   xmlns="http://www.w3.org/2000/svg"
   xmlns:sodipodi="http://sodipodi.sourceforge.net/DTD/sodipodi-0.dtd"
   xmlns:inkscape="http://www.inkscape.org/namespaces/inkscape"
   id="svg17624"
   version="1.1"
   inkscape:version="0.48.2 r9819"
   width="360.62802"
   height="467.91046"
   xml:space="preserve"
   sodipodi:docname="AJAX1.svg"><metadata
     id="metadata17630"><rdf:RDF><cc:Work
         rdf:about=""><dc:format>image/svg+xml</dc:format><dc:type
           rdf:resource="http://purl.org/dc/dcmitype/StillImage" /><dc:title></dc:title></cc:Work></rdf:RDF></metadata><defs
     id="defs17628"><inkscape:perspective
       sodipodi:type="inkscape:persp3d"
       inkscape:vp_x="0 : 0.5 : 1"
       inkscape:vp_y="0 : 1000 : 0"
       inkscape:vp_z="1 : 0.5 : 1"
       inkscape:persp3d-origin="0.5 : 0.33333333 : 1"
       id="perspective17632" /><clipPath
       clipPathUnits="userSpaceOnUse"
       id="clipPath17642"><path
         d="m -2,710 501,0 0,-711 -501,0 0,711 z"
         id="path17644"
         inkscape:connector-curvature="0" /></clipPath><clipPath
       clipPathUnits="userSpaceOnUse"
       id="clipPath17648"><path
         d="m 0,708.06 498,0 0,-708 -498,0 0,708 z"
         id="path17650"
         inkscape:connector-curvature="0" /></clipPath><clipPath
       clipPathUnits="userSpaceOnUse"
       id="clipPath17798"><path
         d="m -2,710 501,0 0,-711 -501,0 0,711 z"
         id="path17800"
         inkscape:connector-curvature="0" /></clipPath><clipPath
       clipPathUnits="userSpaceOnUse"
       id="clipPath17804"><path
         d="m 0,708.06 498,0 0,-708 -498,0 0,708 z"
         id="path17806"
         inkscape:connector-curvature="0" /></clipPath><clipPath
       id="Clip0"><path
         inkscape:connector-curvature="0"
         d="m 0,0 212.597,0 0,269.292 L 0,269.292 0,0 z"
         transform="translate(0.923828,0.879883)"
         id="path7" /></clipPath><clipPath
       id="Clip0-8"><path
         inkscape:connector-curvature="0"
         d="m 0,0 170.079,0 0,113.386 L 0,113.386 0,0 z"
         transform="translate(0.0986328,0.822266)"
         id="path7-8" /></clipPath><clipPath
       id="Clip0-1"><path
         inkscape:connector-curvature="0"
         d="m 0,0 287.009,0 0,159.449 L 0,159.449 0,0 z"
         transform="translate(0.396484,0.267578)"
         id="path7-7" /></clipPath><clipPath
       id="Clip0-17"><path
         inkscape:connector-curvature="0"
         d="m 0,0 340.157,0 0,170.079 L 0,170.079 0,0 z"
         transform="translate(0.289063,0.774414)"
         id="path7-4" /></clipPath><clipPath
       id="Clip0-174"><path
         inkscape:connector-curvature="0"
         d="m 0,0 269.291,0 0,85.039 L 0,85.039 0,0 z"
         transform="translate(0.899414,0.480469)"
         id="path7-0" /></clipPath></defs><sodipodi:namedview
     pagecolor="#ffffff"
     bordercolor="#666666"
     borderopacity="1"
     objecttolerance="10"
     gridtolerance="10"
     guidetolerance="10"
     inkscape:pageopacity="0"
     inkscape:pageshadow="2"
     inkscape:window-width="1280"
     inkscape:window-height="1004"
     id="namedview17626"
     showgrid="false"
     inkscape:zoom="1.0853633"
     inkscape:cx="122.99367"
     inkscape:cy="118.24799"
     inkscape:window-x="-8"
     inkscape:window-y="-8"
     inkscape:window-maximized="1"
     inkscape:current-layer="g17634"
     fit-margin-top="0"
     fit-margin-left="0"
     fit-margin-right="0"
     fit-margin-bottom="0"
     showguides="true"
     inkscape:guide-bbox="true" /><g
     id="g17634"
     inkscape:groupmode="layer"
     inkscape:label="GG1999P002"
     transform="matrix(1.25,0,0,-1.25,570.69351,-443.52204)"><path
       inkscape:connector-curvature="0"
       style="fill:#ef7c23;fill-rule:nonzero;stroke:none"
       d="m -172.35328,-488.68004 c 5.735,-5.734 5.734,-15.03 0,-20.764 l -129.571,-129.563 c -5.734,-5.733 -15.03,-5.733 -20.765,0 l -129.5656,129.563 c -5.7334,5.734 -5.7334,15.03 9.6e-4,20.764 l 129.57064,129.56163 c 5.735,5.73437 15.03,5.73437 20.765,0 l 129.565,-129.56163 z"
       id="path11" /><path
       inkscape:connector-curvature="0"
       style="fill:#000000;fill-rule:nonzero;stroke:none"
       d="m -450.00781,-506.68977 c -4.09571,4.095 -4.09571,10.736 0,14.832 l 130.28629,130.2833 c 4.096,4.0957 10.736,4.0957 14.833,0 l 130.288,-130.2833 c 4.097,-4.096 4.097,-10.737 0,-14.832 l -130.285,-130.283 c -4.097,-4.096 -10.737,-4.096 -14.833,0 l -130.28929,130.283 z"
       id="path13" /><path
       inkscape:connector-curvature="0"
       style="fill:#ef7c23;fill-rule:nonzero;stroke:none"
       d="m -446.19925,-502.71977 c -1.99313,1.992 -1.99313,5.222 0,7.215 l 130.28687,130.28287 c 1.992,1.99313 5.222,1.99313 7.215,0 l 130.289,-130.28287 c 1.993,-1.993 1.993,-5.223 8e-4,-7.215 l -130.287,-130.284 c -1.993,-1.993 -5.223,-1.993 -7.215,0 l -130.28967,130.284 z"
       id="path15" /><path
       inkscape:connector-curvature="0"
       style="fill:#000000;fill-rule:nonzero;stroke:none"
       d="m -337.10775,-580.1085 c 0,13.699 11.105,24.804 24.804,24.804 13.698,0 24.803,-11.105 24.803,-24.804 0,-13.698 -11.105,-24.803 -24.803,-24.803 -13.699,0 -24.804,11.105 -24.804,24.803 z"
       id="path17" /><path
       inkscape:connector-curvature="0"
       style="fill:#000000;fill-rule:nonzero;stroke:none"
       d="m -312.30375,-395.7141 c 17.612,0 31.89,-14.3028 31.89,-31.8897 0,-17.5752 -26.504,-116.9293 -26.504,-116.9293 l -10.773,0 c 0,0 -26.504,99.3541 -26.504,116.9293 0,17.5869 14.278,31.8897 31.891,31.8897 z"
       id="path19" /><path
       inkscape:connector-curvature="0"
       style="fill:#ef7c23;fill-rule:nonzero;stroke:none"
       d="m -446.95321,-658.27979 c 0,7.8271 6.34571,14.1728 14.1729,14.1728 l 240.9461,0 c 7.828,0 14.172,-6.3457 14.172,-14.1728 l 0,-56.6934 c 0,-7.8271 -6.344,-14.1728 -14.172,-14.1728 l -240.9461,0 c -7.82719,0 -14.1729,6.3457 -14.1729,14.1728 l 0,56.6934 z"
       id="path11-1" /><path
       inkscape:connector-curvature="0"
       style="fill:#000000;fill-rule:nonzero;stroke:none"
       d="m -444.11825,-658.27987 c 0,6.26175 5.07617,11.3389 11.3379,11.3389 l 240.9461,0 c 6.261,0 11.338,-5.07715 11.338,-11.3389 l 0,-56.6934 c 0,-6.2616 -5.077,-11.33871 -11.338,-11.33871 l -240.9461,0 c -6.26173,0 -11.3379,5.07711 -11.3379,11.33871 l 0,56.6934 z"
       id="path13-7" /><path
       inkscape:connector-curvature="0"
       style="fill:#ef7c23;fill-rule:nonzero;stroke:none"
       d="m -439.8663,-658.27982 c 0,3.9131 3.17287,7.08592 7.08687,7.08592 l 240.94513,0 c 3.914,0 7.086,-3.17282 7.086,-7.08592 l 0,-56.69338 c 0,-3.914 -3.172,-7.0859 -7.086,-7.0859 l -240.94513,0 c -3.914,0 -7.08687,3.1719 -7.08687,7.0859 l 0,56.69338 z"
       id="path15-4" /><g
       transform="matrix(1,0,0,-1,-447.85263,-643.62652)"
       id="Background"
       style="fill:#000000"><g
         id="Group1"
         clip-path="url(#Clip0-174)"
         style="fill:#000000"><path
           inkscape:connector-curvature="0"
           style="fill:#000000;fill-rule:nonzero;stroke:none"
           d="m 0,0 0,35.4336 4.9258,0 0,-17.1143 7.2637,0 0,-5.0664 -7.2637,0 0,-8.3632 12.791,0 L 17.7168,0 0,0 z"
           transform="translate(41.4277,25.2705)"
           id="path17-0" /><path
           inkscape:connector-curvature="0"
           style="fill:#000000;fill-rule:nonzero;stroke:none"
           d="m 0,0 0,35.4336 17.7158,0 0,-4.6768 -12.6846,0 L 5.0312,0 0,0 z"
           transform="translate(65.2393,25.2705)"
           id="path19-9" /><path
           inkscape:connector-curvature="0"
           style="fill:#000000;fill-rule:evenodd;stroke:none"
           d="m 10.3467,36.8145 c 3.4482,0 6.0472,-1.6534 7.7952,-4.96 1.63,-3.1416 2.445,-7.6299 2.445,-13.4649 C 20.5869,6.1299 17.1959,0 10.417,0 3.4727,0 0,6.1299 0,18.3896 0,30.6729 3.4483,36.8145 10.3467,36.8145 z m 0,-5.1026 c -2.0088,0 -3.4375,-1.2871 -4.2881,-3.8613 -0.6846,-2.1026 -1.0273,-5.2559 -1.0273,-9.461 0,-8.9765 1.7715,-13.4648 5.3154,-13.4648 3.5192,0 5.2792,4.4883 5.2792,13.4648 0,8.8819 -1.76,13.3223 -5.2792,13.3223 z"
           transform="translate(89.1201,24.5625)"
           id="path21" /><path
           inkscape:connector-curvature="0"
           style="fill:#000000;fill-rule:evenodd;stroke:none"
           d="m 10.346,36.8145 c 3.449,0 6.048,-1.6534 7.796,-4.96 1.63,-3.1416 2.444,-7.6299 2.444,-13.4649 C 20.586,6.1299 17.197,0 10.417,0 3.472,0 0,6.1299 0,18.3896 0,30.6729 3.449,36.8145 10.346,36.8145 z m 0,-5.1026 c -2.008,0 -3.436,-1.2871 -4.287,-3.8613 -0.685,-2.1026 -1.027,-5.2559 -1.027,-9.461 0,-8.9765 1.771,-13.4648 5.314,-13.4648 3.52,0 5.28,4.4883 5.28,13.4648 0,8.8819 -1.76,13.3223 -5.28,13.3223 z"
           transform="translate(115.73,24.5625)"
           id="path23" /><path
           inkscape:connector-curvature="0"
           style="fill:#000000;fill-rule:evenodd;stroke:none"
           d="M 8.043,0 0,0 l 0,35.4336 8.043,0 c 4.489,0 7.607,-1.7598 9.355,-5.2793 1.393,-2.7881 2.09,-7.2519 2.09,-13.3945 C 19.488,11.54 18.732,7.583 17.22,4.8897 15.378,1.6299 12.319,0 8.043,0 z M 7.866,4.8897 c 2.716,0 4.559,1.2177 5.528,3.6503 0.661,1.6768 0.992,4.4522 0.992,8.3272 l 0,2.0186 c 0,3.6386 -0.296,6.2607 -0.886,7.8662 -0.898,2.457 -2.622,3.6855 -5.174,3.6855 l -3.401,0 0,-25.5478 2.941,0 z"
           transform="translate(143.863,25.2705)"
           id="path25" /><path
           inkscape:connector-curvature="0"
           style="fill:#000000;fill-rule:nonzero;stroke:none"
           d="m 0,35.4336 4.961,0 L 4.961,0 0,0 0,35.4336 z"
           transform="translate(170.721,25.2705)"
           id="path27" /><path
           inkscape:connector-curvature="0"
           style="fill:#000000;fill-rule:nonzero;stroke:none"
           d="m 0,0 0,35.4336 4.889,0 0,-23.2793 10.56,23.2793 4.039,0 0,-35.4336 -5.138,0 0,20.4805 L 4.889,0 0,0 z"
           transform="translate(183.193,25.2705)"
           id="path29" /><path
           inkscape:connector-curvature="0"
           style="fill:#000000;fill-rule:nonzero;stroke:none"
           d="m 14.351,9.1768 5.138,0 C 19.489,6.626 18.556,4.4639 16.69,2.6934 14.847,0.8975 12.65,0 10.099,0 6.059,0 3.237,2.1963 1.63,6.5898 0.543,9.5195 0,13.6299 0,18.9209 c 0,4.7246 0.568,8.5518 1.702,11.4805 1.676,4.2754 4.476,6.4131 8.397,6.4131 1.961,0 3.721,-0.4844 5.279,-1.4522 1.418,-0.874 2.446,-1.9844 3.083,-3.331 0.638,-1.3702 0.956,-3.4014 0.956,-6.0948 l 0,-7.0156 -9.07,0 0,5.1025 4.252,0 0,4.0039 c 0,0.9922 -0.496,1.8897 -1.488,2.6924 -0.969,0.8037 -1.973,1.2051 -3.012,1.2051 -3.354,0 -5.031,-4.0391 -5.031,-12.1182 l 0,-2.1259 c 0,-8.4092 1.677,-12.6143 5.031,-12.6143 1.299,0 2.327,0.3662 3.083,1.0986 0.779,0.709 1.169,1.7129 1.169,3.0118 z"
           transform="translate(210.192,24.5625)"
           id="path31" /></g></g></g></svg>