<?xml version="1.0" encoding="UTF-8" standalone="no"?>
<!-- Generator: Adobe Illustrator 13.0.1, SVG Export Plug-In . SVG Version: 6.00 Build 14948)  -->

<svg
   xmlns:dc="http://purl.org/dc/elements/1.1/"
   xmlns:cc="http://creativecommons.org/ns#"
   xmlns:rdf="http://www.w3.org/1999/02/22-rdf-syntax-ns#"
   xmlns:svg="http://www.w3.org/2000/svg"
   xmlns="http://www.w3.org/2000/svg"
   xmlns:sodipodi="http://sodipodi.sourceforge.net/DTD/sodipodi-0.dtd"
   xmlns:inkscape="http://www.inkscape.org/namespaces/inkscape"
   version="1.1"
   id="Layer_1"
   x="0px"
   y="0px"
   width="360.62851"
   height="538.77679"
   viewBox="0 0 360.62849 538.77678"
   enable-background="new 0 0 300 250"
   xml:space="preserve"
   inkscape:version="0.48.2 r9819"
   sodipodi:docname="New Zealand - Ford assembly.svg"><metadata
   id="metadata94"><rdf:RDF><cc:Work
       rdf:about=""><dc:format>image/svg+xml</dc:format><dc:type
         rdf:resource="http://purl.org/dc/dcmitype/StillImage" /><dc:title></dc:title></cc:Work></rdf:RDF></metadata><defs
   id="defs92" /><sodipodi:namedview
   pagecolor="#ffffff"
   bordercolor="#666666"
   borderopacity="1"
   objecttolerance="10"
   gridtolerance="10"
   guidetolerance="10"
   inkscape:pageopacity="0"
   inkscape:pageshadow="2"
   inkscape:window-width="1280"
   inkscape:window-height="1004"
   id="namedview90"
   showgrid="false"
   fit-margin-top="0"
   fit-margin-left="0"
   fit-margin-right="0"
   fit-margin-bottom="0"
   inkscape:zoom="1.3350176"
   inkscape:cx="277.5565"
   inkscape:cy="189.25774"
   inkscape:window-x="-8"
   inkscape:window-y="-8"
   inkscape:window-maximized="1"
   inkscape:current-layer="Layer_1" />















<path
   inkscape:connector-curvature="0"
   style="fill:#ffdb00;fill-rule:nonzero;stroke:none"
   d="m 355.25301,167.32956 c 7.1675,7.16625 7.1675,18.78625 -0.001,25.95375 l -161.964,161.95376 c -7.1675,7.16625 -18.7875,7.16625 -25.955,0 L 5.3759768,193.28331 c -7.1679756,-7.1675 -7.1679756,-18.7875 0,-25.95375 L 167.34051,5.3750595 c 7.16625,-7.166746 18.7875,-7.166746 25.955,0 L 355.25301,167.32956 z"
   id="path11" /><path
   inkscape:connector-curvature="0"
   style="fill:#000000;fill-rule:nonzero;stroke:none"
   d="m 8.1848088,189.84047 c -5.12085,-5.12 -5.12085,-13.42125 -0.0012,-18.54 L 171.0415,8.4463485 c 5.12,-5.119629 13.42125,-5.119629 18.54125,0 L 352.444,171.30047 c 5.12,5.11875 5.12,13.42 0,18.54 L 189.5865,352.69423 c -5.12,5.12 -13.42,5.12 -18.54125,0 L 8.1848088,189.84047 z"
   id="path13" /><path
   inkscape:connector-curvature="0"
   style="fill:#ffdb00;fill-rule:nonzero;stroke:none"
   d="m 12.944284,184.87797 c -2.490189,-2.49 -2.490189,-6.52875 0,-9.02 L 175.80285,13.004388 c 2.49125,-2.49018 6.52875,-2.49018 9.01875,0 L 347.68285,175.85797 c 2.49125,2.49125 2.49125,6.53 0,9.02 l -162.8575,162.85376 c -2.49,2.49 -6.52875,2.49 -9.01875,0 L 12.944284,184.87797 z"
   id="path15" /><path
   inkscape:connector-curvature="0"
   style="fill:#000000;fill-rule:nonzero;stroke:none"
   d="m 149.31004,281.61328 c 0,-17.12376 13.88125,-31.00376 31.00375,-31.00376 17.1225,0 31.00375,13.88 31.00375,31.00376 0,17.12375 -13.88125,31.00375 -31.00375,31.00375 -17.1225,0 -31.00375,-13.88 -31.00375,-31.00375 z"
   id="path17" /><path
   inkscape:connector-curvature="0"
   style="fill:#000000;fill-rule:nonzero;stroke:none"
   d="m 180.31379,51.120898 c 22.015,0 39.86375,17.878371 39.86375,39.862121 0,21.969011 -33.13,146.161631 -33.13,146.161631 l -6.73375,0 -6.7325,0 c 0,0 -33.12999,-124.19262 -33.12999,-146.161631 0,-21.98375 17.84749,-39.862121 39.86249,-39.862121 z"
   id="path19" /><path
   inkscape:connector-curvature="0"
   style="fill:#ffdb00;fill-rule:nonzero;stroke:none"
   d="m 47.438995,379.32788 c 0,-9.784 7.93213,-17.71613 17.71725,-17.71613 l 230.315265,0 c 9.78375,0 17.71625,7.93213 17.71625,17.71613 l 0,141.73138 c 0,9.78625 -7.9325,17.7175 -17.71625,17.7175 l -230.315265,0 c -9.78512,0 -17.71725,-7.93125 -17.71725,-17.7175 l 0,-141.73138 z"
   id="path11-4" /><path
   inkscape:connector-curvature="0"
   style="fill:#000000;fill-rule:nonzero;stroke:none"
   d="m 50.982705,379.32783 c 0,-7.82717 6.34521,-14.17238 14.17362,-14.17238 l 230.315145,0 c 7.8275,0 14.17375,6.34521 14.17375,14.17238 l 0,141.73262 c 0,7.82876 -6.34625,14.17376 -14.17375,14.17376 l -230.315145,0 c -7.82841,0 -14.17362,-6.345 -14.17362,-14.17376 l 0,-141.73262 z"
   id="path13-8" /><path
   inkscape:connector-curvature="0"
   style="fill:#ffdb00;fill-rule:nonzero;stroke:none"
   d="m 56.651645,379.32787 c 0,-4.69613 3.80738,-8.50348 8.50463,-8.50348 l 230.315375,0 c 4.69625,0 8.50375,3.80735 8.50375,8.50348 l 0,141.73277 c 0,4.69625 -3.8075,8.50376 -8.50375,8.50376 l -230.315375,0 c -4.69725,0 -8.50463,-3.80751 -8.50463,-8.50376 l 0,-141.73277 z"
   id="path15-8" /><path
   inkscape:connector-curvature="0"
   style="fill:#000000;fill-rule:nonzero;stroke:none"
   d="m 108.20678,495.16362 c 1.15362,3.30125 3.36675,6.07625 6.64062,8.32375 3.01276,2.0325 5.95464,3.05 8.82451,3.05 4.31151,0 7.75026,-1.3275 10.31613,-3.98 2.56712,-2.66625 3.85012,-6.11125 3.85012,-10.335 0,-2.76875 -0.77875,-5.24875 -2.33525,-7.4405 -1.42812,-1.91762 -3.35324,-3.46675 -5.77512,-4.64962 -1.0815,-0.53225 -2.7185,-0.90088 -4.90963,-1.10225 -2.4805,-0.26 -4.05887,-0.49813 -4.73637,-0.71413 -0.89475,-0.26 -1.66625,-0.83625 -2.31438,-1.72975 -0.64951,-0.85087 -0.97413,-1.76637 -0.97413,-2.74662 0,-1.52825 0.63476,-2.96988 1.90301,-4.32488 1.18287,-1.26837 2.5745,-1.90312 4.17487,-1.90312 0.0574,0 0.11475,0 0.17338,0 3.48875,0.0866 5.7165,1.62112 6.68325,4.60575 l 6.55275,-1.98975 c -1.26825,-3.3435 -2.89063,-5.79475 -4.86575,-7.35238 -2.00437,-1.571 -4.5275,-2.35712 -7.5695,-2.35712 -3.75,0 -6.95076,1.25487 -9.60326,3.76337 -2.78325,2.65263 -4.17488,6.034 -4.17488,10.14288 0,3.374 1.18288,6.062 3.54738,8.06637 2.11912,1.803 4.26026,2.81863 6.42338,3.04938 4.22488,0.476 7.15938,1.31987 8.80251,2.52987 1.54287,1.15375 2.31437,2.91375 2.31437,5.2775 0,1.49875 -0.66275,2.88375 -1.98975,4.1525 -1.36962,1.2975 -2.76112,1.94625 -4.17475,1.94625 -2.56588,0 -4.57038,-0.46875 -6.012,-1.40625 -1.48563,-0.95125 -2.84789,-2.6675 -4.08814,-5.1475 l -6.68337,2.27125 z"
   id="path17-2" /><path
   inkscape:connector-curvature="0"
   style="fill:#000000;fill-rule:nonzero;stroke:none"
   d="m 145.26003,461.40425 0,6.51 10.18926,0 0,37.78187 6.68337,0 0,-37.78187 10.14463,0 0,-6.51 -27.01726,0 z"
   id="path19-4" /><path
   inkscape:connector-curvature="0"
   style="fill:#000000;fill-rule:evenodd;stroke:none"
   d="m 196.07854,506.53737 c 5.69375,0 9.8225,-2.45125 12.38875,-7.3525 2.0175,-3.835 3.0275,-9.06125 3.0275,-15.67862 0,-6.70413 -1.31875,-12.15325 -3.9575,-16.34888 -2.76625,-4.42625 -6.58625,-6.63937 -11.45875,-6.63937 -10.3925,0 -15.5875,7.66362 -15.5875,22.98825 0,7.82862 1.4475,13.70362 4.34375,17.62487 2.6525,3.605 6.4,5.40625 11.24375,5.40625 z m 0,-7.005 c -5.79375,0 -8.69125,-5.34125 -8.69125,-16.02487 0,-5.57988 0.7425,-9.63863 2.2275,-12.1765 1.3825,-2.42188 3.53875,-3.63288 6.46375,-3.63288 5.49125,0 8.2375,5.26988 8.2375,15.80938 0,5.60737 -0.6775,9.70987 -2.0325,12.30487 -1.34,2.48 -3.40875,3.72 -6.205,3.72 z"
   id="path21" /><path
   inkscape:connector-curvature="0"
   style="fill:#000000;fill-rule:evenodd;stroke:none"
   d="m 228.80479,467.957 10.25124,0 c 1.41375,0 2.6825,0.53338 3.80625,1.60025 1.08125,1.09625 1.6225,2.2925 1.6225,3.59013 0,1.71637 -0.4725,3.17512 -1.41625,4.37987 -0.945,1.20363 -2.15125,1.8055 -3.6225,1.8055 l -10.64124,0 0,-11.37575 z m -6.85625,-6.55275 0,44.29187 6.85625,0 0,-19.35662 9.16999,0 c 3.96625,0 7.24625,-1.28287 9.84125,-3.84887 2.50875,-2.5085 3.76375,-5.60913 3.76375,-9.29925 0,-3.31663 -1.255,-6.106 -3.76375,-8.37038 -2.50875,-2.27787 -5.48,-3.41675 -8.91125,-3.41675 l -16.95624,0 z"
   id="path23" /><path
   inkscape:connector-curvature="0"
   style="fill:#000000;fill-rule:nonzero;stroke:none"
   d="m 100.95091,405.64012 6.46612,-2.78937 c -2.75388,-5.968 -7.418255,-8.95263 -13.992875,-8.95263 -5.46388,0 -9.53013,2.7185 -12.19738,8.15313 -2.03237,4.13812 -3.04925,9.12587 -3.04925,14.9645 0,0.0867 0,0.17337 0,0.26012 0.0292,6.08388 1.24025,11.16575 3.634,15.24525 2.926,4.9305 7.15088,7.39625 12.67338,7.39625 3.21537,0 6.019255,-1.00212 8.411875,-3.00537 2.24975,-1.91763 3.85737,-4.52025 4.823,-7.80638 l -6.50875,-1.643 c -0.50537,1.39763 -1.478375,2.6745 -2.920005,3.82688 -1.48562,1.14012 -2.87712,1.709 -4.17362,1.709 -3.27388,0 -5.75313,-1.87375 -7.44013,-5.62263 -1.2695,-2.85525 -1.90312,-6.11325 -1.90312,-9.77537 0,-4.25288 0.5335,-7.771 1.60037,-10.55413 1.571,-4.19562 4.18088,-6.29275 7.82963,-6.29275 1.62837,0 2.959,0.393 3.98925,1.178 1.0315,0.78613 1.950625,2.02263 2.757505,3.7085 z"
   id="path25" /><path
   inkscape:connector-curvature="0"
   style="fill:#000000;fill-rule:evenodd;stroke:none"
   d="m 126.57104,394.78437 -15.01214,44.248 7.39739,0 4.06737,-12.5 14.18825,0 4.34825,12.5 7.15939,0 -15.14039,-44.248 -7.00812,0 z m 8.025,24.67525 -9.04175,0 4.4335,-13.21412 4.60825,13.21412 z"
   id="path27" /><path
   inkscape:connector-curvature="0"
   style="fill:#000000;fill-rule:nonzero;stroke:none"
   d="m 151.54054,394.78437 0,6.50875 10.188,0 0,37.782 6.68462,0 0,-37.782 10.14538,0 0,-6.50875 -27.018,0 z"
   id="path29" /><path
   inkscape:connector-curvature="0"
   style="fill:#000000;fill-rule:nonzero;stroke:none"
   d="m 183.80354,394.78437 0,6.50875 10.18875,0 0,37.782 6.68375,0 0,-37.782 10.145,0 0,-6.50875 -27.0175,0 z"
   id="path31" /><path
   inkscape:connector-curvature="0"
   style="fill:#000000;fill-rule:nonzero;stroke:none"
   d="m 218.72354,394.78437 0,44.29075 27.01749,0 0,-6.50875 -20.24749,0 0,-37.782 -6.77,0 z"
   id="path33" /><path
   inkscape:connector-curvature="0"
   style="fill:#000000;fill-rule:nonzero;stroke:none"
   d="m 253.89853,394.78437 0,44.29075 27.01875,0 0,-6.89575 -20.16,0 0,-12.49512 12.935,0 0,-6.91775 -12.935,0 0,-10.896 18.5375,0 0,-7.08613 -25.39625,0 z"
   id="path35" /></svg>