<?xml version="1.0" encoding="UTF-8" standalone="no"?>
<!-- Created with Inkscape (http://www.inkscape.org/) -->

<svg
   xmlns:dc="http://purl.org/dc/elements/1.1/"
   xmlns:cc="http://creativecommons.org/ns#"
   xmlns:rdf="http://www.w3.org/1999/02/22-rdf-syntax-ns#"
   xmlns:svg="http://www.w3.org/2000/svg"
   xmlns="http://www.w3.org/2000/svg"
   xmlns:sodipodi="http://sodipodi.sourceforge.net/DTD/sodipodi-0.dtd"
   xmlns:inkscape="http://www.inkscape.org/namespaces/inkscape"
   id="svg17624"
   version="1.1"
   inkscape:version="0.48.2 r9819"
   width="360.62802"
   height="538.77545"
   xml:space="preserve"
   sodipodi:docname="new road layout.svg"><metadata
     id="metadata17630"><rdf:RDF><cc:Work
         rdf:about=""><dc:format>image/svg+xml</dc:format><dc:type
           rdf:resource="http://purl.org/dc/dcmitype/StillImage" /><dc:title></dc:title></cc:Work></rdf:RDF></metadata><defs
     id="defs17628"><inkscape:perspective
       sodipodi:type="inkscape:persp3d"
       inkscape:vp_x="0 : 0.5 : 1"
       inkscape:vp_y="0 : 1000 : 0"
       inkscape:vp_z="1 : 0.5 : 1"
       inkscape:persp3d-origin="0.5 : 0.33333333 : 1"
       id="perspective17632" /><clipPath
       clipPathUnits="userSpaceOnUse"
       id="clipPath17642"><path
         d="m -2,710 501,0 0,-711 -501,0 0,711 z"
         id="path17644"
         inkscape:connector-curvature="0" /></clipPath><clipPath
       clipPathUnits="userSpaceOnUse"
       id="clipPath17648"><path
         d="m 0,708.06 498,0 0,-708 -498,0 0,708 z"
         id="path17650"
         inkscape:connector-curvature="0" /></clipPath><clipPath
       clipPathUnits="userSpaceOnUse"
       id="clipPath17798"><path
         d="m -2,710 501,0 0,-711 -501,0 0,711 z"
         id="path17800"
         inkscape:connector-curvature="0" /></clipPath><clipPath
       clipPathUnits="userSpaceOnUse"
       id="clipPath17804"><path
         d="m 0,708.06 498,0 0,-708 -498,0 0,708 z"
         id="path17806"
         inkscape:connector-curvature="0" /></clipPath><clipPath
       id="Clip0"><path
         inkscape:connector-curvature="0"
         d="m 0,0 212.597,0 0,269.292 L 0,269.292 0,0 z"
         transform="translate(0.923828,0.879883)"
         id="path7" /></clipPath><clipPath
       id="Clip0-8"><path
         inkscape:connector-curvature="0"
         d="m 0,0 170.079,0 0,113.386 L 0,113.386 0,0 z"
         transform="translate(0.0986328,0.822266)"
         id="path7-8" /></clipPath><clipPath
       id="Clip0-1"><path
         inkscape:connector-curvature="0"
         d="m 0,0 287.009,0 0,159.449 L 0,159.449 0,0 z"
         transform="translate(0.396484,0.267578)"
         id="path7-7" /></clipPath><clipPath
       id="Clip0-17"><path
         inkscape:connector-curvature="0"
         d="m 0,0 340.157,0 0,170.079 L 0,170.079 0,0 z"
         transform="translate(0.289063,0.774414)"
         id="path7-4" /></clipPath><clipPath
       id="Clip0-174"><path
         inkscape:connector-curvature="0"
         d="m 0,0 269.291,0 0,85.039 L 0,85.039 0,0 z"
         transform="translate(0.899414,0.480469)"
         id="path7-0" /></clipPath><clipPath
       id="Clip0-9"><path
         inkscape:connector-curvature="0"
         d="m 0,0 269.292,0 0,141.731 L 0,141.731 0,0 z"
         transform="translate(0.179688,0.916992)"
         id="path7-48" /></clipPath><clipPath
       id="Clip0-174-5"><path
         inkscape:connector-curvature="0"
         d="m 0,0 269.291,0 0,141.732 L 0,141.732 0,0 z"
         transform="translate(0.40332,0.170898)"
         id="path7-0-1" /></clipPath></defs><sodipodi:namedview
     pagecolor="#ffffff"
     bordercolor="#666666"
     borderopacity="1"
     objecttolerance="10"
     gridtolerance="10"
     guidetolerance="10"
     inkscape:pageopacity="0"
     inkscape:pageshadow="2"
     inkscape:window-width="1280"
     inkscape:window-height="1004"
     id="namedview17626"
     showgrid="false"
     inkscape:zoom="1.3447817"
     inkscape:cx="246.50824"
     inkscape:cy="150.07906"
     inkscape:window-x="-8"
     inkscape:window-y="-8"
     inkscape:window-maximized="1"
     inkscape:current-layer="g17634"
     fit-margin-top="0"
     fit-margin-left="0"
     fit-margin-right="0"
     fit-margin-bottom="0"
     showguides="true"
     inkscape:guide-bbox="true" /><g
     id="g17634"
     inkscape:groupmode="layer"
     inkscape:label="GG1999P002"
     transform="matrix(1.25,0,0,-1.25,570.69351,-470.55705)"><path
       inkscape:connector-curvature="0"
       style="fill:#ef7c23;fill-rule:nonzero;stroke:none"
       d="m -172.35328,-510.30805 c 5.735,-5.734 5.734,-15.03 0,-20.764 l -129.571,-129.563 c -5.734,-5.733 -15.03,-5.733 -20.765,0 l -129.5656,129.563 c -5.7334,5.734 -5.7334,15.03 9.6e-4,20.764 l 129.57064,129.56163 c 5.735,5.73437 15.03,5.73437 20.765,0 l 129.565,-129.56163 z"
       id="path11" /><path
       inkscape:connector-curvature="0"
       style="fill:#000000;fill-rule:nonzero;stroke:none"
       d="m -450.00781,-528.31778 c -4.09571,4.095 -4.09571,10.736 0,14.832 l 130.28629,130.2833 c 4.096,4.0957 10.736,4.0957 14.833,0 l 130.288,-130.2833 c 4.097,-4.096 4.097,-10.737 0,-14.832 l -130.285,-130.283 c -4.097,-4.096 -10.737,-4.096 -14.833,0 l -130.28929,130.283 z"
       id="path13" /><path
       inkscape:connector-curvature="0"
       style="fill:#ef7c23;fill-rule:nonzero;stroke:none"
       d="m -446.19925,-524.34778 c -1.99313,1.992 -1.99313,5.222 0,7.215 l 130.28687,130.28287 c 1.992,1.99313 5.222,1.99313 7.215,0 l 130.289,-130.28287 c 1.993,-1.993 1.993,-5.223 8e-4,-7.215 l -130.287,-130.284 c -1.993,-1.993 -5.223,-1.993 -7.215,0 l -130.28967,130.284 z"
       id="path15" /><path
       inkscape:connector-curvature="0"
       style="fill:#000000;fill-rule:nonzero;stroke:none"
       d="m -337.10775,-601.73651 c 0,13.699 11.105,24.804 24.804,24.804 13.698,0 24.803,-11.105 24.803,-24.804 0,-13.698 -11.105,-24.803 -24.803,-24.803 -13.699,0 -24.804,11.105 -24.804,24.803 z"
       id="path17" /><path
       inkscape:connector-curvature="0"
       style="fill:#000000;fill-rule:nonzero;stroke:none"
       d="m -312.30375,-417.34211 c 17.612,0 31.89,-14.3028 31.89,-31.8897 0,-17.5752 -26.504,-116.9293 -26.504,-116.9293 l -10.773,0 c 0,0 -26.504,99.3541 -26.504,116.9293 0,17.5869 14.278,31.8897 31.891,31.8897 z"
       id="path19" /><path
       inkscape:connector-curvature="0"
       style="fill:#ef7c23;fill-rule:nonzero;stroke:none"
       d="m -446.95321,-679.9078 c 0,7.82807 6.3457,14.1728 14.1738,14.1728 l 240.9442,0 c 7.828,0 14.174,-6.34473 14.174,-14.1728 l 0,-113.3862 c 0,-7.828 -6.346,-14.172 -14.174,-14.172 l -240.9442,0 c -7.8281,0 -14.1738,6.344 -14.1738,14.172 l 0,113.3862 z"
       id="path11-17" /><path
       inkscape:connector-curvature="0"
       style="fill:#000000;fill-rule:nonzero;stroke:none"
       d="m -443.55185,-679.90777 c 0,5.94913 4.82325,10.7714 10.7724,10.7714 l 240.9446,0 c 5.949,0 10.771,-4.82227 10.771,-10.7714 l 0,-113.3866 c 0,-5.949 -4.822,-10.771 -10.771,-10.771 l -240.9446,0 c -5.94915,0 -10.7724,4.822 -10.7724,10.771 l 0,113.3866 z"
       id="path13-4" /><path
       inkscape:connector-curvature="0"
       style="fill:#ef7c23;fill-rule:nonzero;stroke:none"
       d="m -438.44931,-679.90782 c 0,3.1308 2.53811,5.6689 5.66991,5.6689 l 240.9441,0 c 3.132,0 5.67,-2.5381 5.67,-5.6689 l 0,-113.3861 c 0,-3.13 -2.538,-5.669 -5.67,-5.669 l -240.9441,0 c -3.1318,0 -5.66991,2.539 -5.66991,5.669 l 0,113.3861 z"
       id="path15-0" /><path
       style="fill:#000000;fill-rule:nonzero;stroke:none"
       d="m -412.80283,-691.95174 0,-35.4326 4.8897,0 0,23.2793 10.5595,-23.2793 4.0391,0 0,35.4326 -5.1377,0 0,-20.4805 -9.4609,20.4805 -4.8897,0 z"
       id="path17-3"
       inkscape:connector-curvature="0" /><path
       style="fill:#000000;fill-rule:nonzero;stroke:none"
       d="m -385.87313,-691.95174 0,-35.4326 17.7158,0 0,4.9951 -12.8623,0 0,11.6933 7.5479,0 0,4.8536 -7.5479,0 0,8.8945 12.2959,0 0,4.9961 -17.1494,0 z"
       id="path19-2"
       inkscape:connector-curvature="0" /><path
       style="fill:#000000;fill-rule:nonzero;stroke:none"
       d="m -364.04693,-691.95174 5.7402,-35.4326 4.1817,0 3.4716,18.1416 3.4026,-18.1416 4.393,0 5.386,35.4326 -5.067,0 -2.728,-18.7442 -3.3661,18.7442 -4.1464,0 -3.3301,-18.4248 -2.9414,18.4248 -4.9961,0 z"
       id="path21"
       inkscape:connector-curvature="0" /><path
       style="fill:#000000;fill-rule:evenodd;stroke:none"
       d="m -297.57484,-710.12854 c 1.559,0.543 2.822,1.6885 3.791,3.4365 0.874,1.6055 1.311,3.3184 1.311,5.1377 0,2.3389 -0.721,4.4883 -2.161,6.4493 -1.536,2.1015 -3.355,3.1533 -5.457,3.1533 l -11.87,0 0,-35.4326 4.889,0 0,16.4404 4.607,0 4.712,-16.4404 5.28,0 -5.102,17.2558 z m -3.296,4.2862 -6.201,0 0,8.8232 6.237,0 c 2.126,0 3.188,-1.4522 3.188,-4.3584 0,-1.1807 -0.259,-2.1846 -0.779,-3.0117 -0.591,-0.9678 -1.405,-1.4531 -2.445,-1.4531 z"
       id="path23"
       inkscape:connector-curvature="0" /><path
       style="fill:#000000;fill-rule:evenodd;stroke:none"
       d="m -276.03184,-728.05824 c 3.449,0 6.047,1.6534 7.795,4.96 1.63,3.1426 2.445,7.6299 2.445,13.4648 0,12.2598 -3.39,18.3897 -10.169,18.3897 -6.945,0 -10.417,-6.1299 -10.417,-18.3897 0,-12.2832 3.448,-18.4248 10.346,-18.4248 z m 0,5.1026 c -2.008,0 -3.437,1.2871 -4.288,3.8623 -0.685,2.1015 -1.027,5.2558 -1.027,9.4599 0,8.9766 1.772,13.4649 5.315,13.4649 3.519,0 5.28,-4.4883 5.28,-13.4649 0,-8.8818 -1.761,-13.3222 -5.28,-13.3222 z"
       id="path25"
       inkscape:connector-curvature="0" /><path
       style="fill:#000000;fill-rule:evenodd;stroke:none"
       d="m -251.29984,-712.64514 2.48,9.5322 2.516,-9.5322 -4.996,0 z m -8.469,-14.7392 5.138,0 2.374,9.8496 7.228,0 2.551,-9.8496 5.068,0 -8.894,35.4326 -4.996,0 -8.469,-35.4326 z"
       id="path27"
       inkscape:connector-curvature="0" /><path
       style="fill:#000000;fill-rule:evenodd;stroke:none"
       d="m -223.27384,-691.95174 -8.043,0 0,-35.4326 8.043,0 c 4.489,0 7.607,1.7588 9.355,5.2783 1.393,2.7881 2.091,7.2519 2.091,13.3945 0,5.2207 -0.756,9.1768 -2.268,11.8701 -1.843,3.2598 -4.902,4.8897 -9.178,4.8897 z m -0.176,-4.8897 c 2.716,0 4.558,-1.2168 5.527,-3.6504 0.661,-1.6767 0.992,-4.4521 0.992,-8.3261 l 0,-2.0196 c 0,-3.6386 -0.295,-6.2597 -0.886,-7.8662 -0.898,-2.457 -2.622,-3.6855 -5.173,-3.6855 l -3.402,0 0,25.5478 2.942,0 z"
       id="path29"
       inkscape:connector-curvature="0" /><path
       style="fill:#000000;fill-rule:nonzero;stroke:none"
       d="m -402.03033,-745.81014 0,-35.4334 21.6133,0 0,5.209 -16.1924,0 0,30.2244 -5.4209,0 z"
       id="path31"
       inkscape:connector-curvature="0" /><path
       style="fill:#000000;fill-rule:evenodd;stroke:none"
       d="m -364.29403,-745.81014 -12.0127,-35.3974 5.918,0 3.2597,9.991 11.3379,0 3.4727,-9.991 5.7406,0 -12.1185,35.3974 -5.5977,0 z m 6.4131,-19.7364 -7.2285,0 3.5429,10.5596 3.6856,-10.5596 z"
       id="path33"
       inkscape:connector-curvature="0" /><path
       style="fill:#000000;fill-rule:nonzero;stroke:none"
       d="m -344.34583,-745.81014 12.43799,-20.1974 0,-15.236 5.492,0 0,15.236 12.188,20.1974 -6.519,0 -8.54,-13.7481 -8.43299,13.7481 -6.626,0 z"
       id="path35"
       inkscape:connector-curvature="0" /><path
       style="fill:#000000;fill-rule:evenodd;stroke:none"
       d="m -295.19984,-781.91654 c 4.558,0 7.866,1.961 9.92,5.882 1.607,3.07 2.411,7.252 2.411,12.5427 0,5.3623 -1.052,9.7207 -3.155,13.0752 -2.22,3.543 -5.279,5.3145 -9.176,5.3145 -8.316,0 -12.473,-6.1299 -12.473,-18.3897 0,-6.2597 1.157,-10.9597 3.473,-14.1017 2.126,-2.883 5.126,-4.323 9,-4.323 z m 0,5.599 c -4.63,0 -6.946,4.275 -6.946,12.8257 0,4.4649 0.591,7.7129 1.772,9.7442 1.11,1.9375 2.835,2.9053 5.174,2.9053 4.393,0 6.59,-4.2159 6.59,-12.6495 0,-4.4887 -0.544,-7.7717 -1.63,-9.8507 -1.063,-1.983 -2.716,-2.975 -4.96,-2.975 z"
       id="path37"
       inkscape:connector-curvature="0" /><path
       style="fill:#000000;fill-rule:nonzero;stroke:none"
       d="m -274.50784,-770.32954 c 0,-3.048 1.169,-5.74 3.508,-8.079 2.338,-2.339 5.125,-3.508 8.361,-3.508 3.449,0 6.284,1.157 8.505,3.473 2.22,2.314 3.33,5.161 3.33,8.539 l 0,24.0944 -5.421,0 0,-24.8384 c 0,-1.63 -0.674,-3 -2.019,-4.111 -1.252,-1.039 -2.717,-1.558 -4.395,-1.558 -1.653,0 -3.117,0.614 -4.393,1.841 -1.276,1.229 -1.914,2.611 -1.914,4.147 l 0,24.5194 -5.562,0 0,-24.5194 z"
       id="path39"
       inkscape:connector-curvature="0" /><path
       style="fill:#000000;fill-rule:nonzero;stroke:none"
       d="m -244.21284,-745.81014 0,-5.209 8.149,0 0,-30.2244 5.351,0 0,30.2244 8.113,0 0,5.209 -21.613,0 z"
       id="path41"
       inkscape:connector-curvature="0" /></g></svg>