<?xml version="1.0" encoding="UTF-8" standalone="no"?>
<!-- Created with Inkscape (http://www.inkscape.org/) -->

<svg
   xmlns:dc="http://purl.org/dc/elements/1.1/"
   xmlns:cc="http://creativecommons.org/ns#"
   xmlns:rdf="http://www.w3.org/1999/02/22-rdf-syntax-ns#"
   xmlns:svg="http://www.w3.org/2000/svg"
   xmlns="http://www.w3.org/2000/svg"
   xmlns:sodipodi="http://sodipodi.sourceforge.net/DTD/sodipodi-0.dtd"
   xmlns:inkscape="http://www.inkscape.org/namespaces/inkscape"
   id="svg17624"
   version="1.1"
   inkscape:version="0.48.2 r9819"
   width="360.62802"
   height="467.91046"
   xml:space="preserve"
   sodipodi:docname="linemen.svg"><metadata
     id="metadata17630"><rdf:RDF><cc:Work
         rdf:about=""><dc:format>image/svg+xml</dc:format><dc:type
           rdf:resource="http://purl.org/dc/dcmitype/StillImage" /><dc:title></dc:title></cc:Work></rdf:RDF></metadata><defs
     id="defs17628"><inkscape:perspective
       sodipodi:type="inkscape:persp3d"
       inkscape:vp_x="0 : 0.5 : 1"
       inkscape:vp_y="0 : 1000 : 0"
       inkscape:vp_z="1 : 0.5 : 1"
       inkscape:persp3d-origin="0.5 : 0.33333333 : 1"
       id="perspective17632" /><clipPath
       clipPathUnits="userSpaceOnUse"
       id="clipPath17642"><path
         d="m -2,710 501,0 0,-711 -501,0 0,711 z"
         id="path17644"
         inkscape:connector-curvature="0" /></clipPath><clipPath
       clipPathUnits="userSpaceOnUse"
       id="clipPath17648"><path
         d="m 0,708.06 498,0 0,-708 -498,0 0,708 z"
         id="path17650"
         inkscape:connector-curvature="0" /></clipPath><clipPath
       clipPathUnits="userSpaceOnUse"
       id="clipPath17798"><path
         d="m -2,710 501,0 0,-711 -501,0 0,711 z"
         id="path17800"
         inkscape:connector-curvature="0" /></clipPath><clipPath
       clipPathUnits="userSpaceOnUse"
       id="clipPath17804"><path
         d="m 0,708.06 498,0 0,-708 -498,0 0,708 z"
         id="path17806"
         inkscape:connector-curvature="0" /></clipPath><clipPath
       id="Clip0"><path
         inkscape:connector-curvature="0"
         d="m 0,0 212.597,0 0,269.292 L 0,269.292 0,0 z"
         transform="translate(0.923828,0.879883)"
         id="path7" /></clipPath><clipPath
       id="Clip0-8"><path
         inkscape:connector-curvature="0"
         d="m 0,0 170.079,0 0,113.386 L 0,113.386 0,0 z"
         transform="translate(0.0986328,0.822266)"
         id="path7-8" /></clipPath><clipPath
       id="Clip0-1"><path
         inkscape:connector-curvature="0"
         d="m 0,0 287.009,0 0,159.449 L 0,159.449 0,0 z"
         transform="translate(0.396484,0.267578)"
         id="path7-7" /></clipPath><clipPath
       id="Clip0-17"><path
         inkscape:connector-curvature="0"
         d="m 0,0 340.157,0 0,170.079 L 0,170.079 0,0 z"
         transform="translate(0.289063,0.774414)"
         id="path7-4" /></clipPath><clipPath
       id="Clip0-174"><path
         inkscape:connector-curvature="0"
         d="m 0,0 269.291,0 0,85.039 L 0,85.039 0,0 z"
         transform="translate(0.899414,0.480469)"
         id="path7-0" /></clipPath></defs><sodipodi:namedview
     pagecolor="#ffffff"
     bordercolor="#666666"
     borderopacity="1"
     objecttolerance="10"
     gridtolerance="10"
     guidetolerance="10"
     inkscape:pageopacity="0"
     inkscape:pageshadow="2"
     inkscape:window-width="1280"
     inkscape:window-height="1004"
     id="namedview17626"
     showgrid="false"
     inkscape:zoom="1.0853633"
     inkscape:cx="122.99369"
     inkscape:cy="118.24773"
     inkscape:window-x="-8"
     inkscape:window-y="-8"
     inkscape:window-maximized="1"
     inkscape:current-layer="g17634"
     fit-margin-top="0"
     fit-margin-left="0"
     fit-margin-right="0"
     fit-margin-bottom="0"
     showguides="true"
     inkscape:guide-bbox="true" /><g
     id="g17634"
     inkscape:groupmode="layer"
     inkscape:label="GG1999P002"
     transform="matrix(1.25,0,0,-1.25,570.69351,-443.52204)"><path
       inkscape:connector-curvature="0"
       style="fill:#ef7c23;fill-rule:nonzero;stroke:none"
       d="m -172.35328,-488.68004 c 5.735,-5.734 5.734,-15.03 0,-20.764 l -129.571,-129.563 c -5.734,-5.733 -15.03,-5.733 -20.765,0 l -129.5656,129.563 c -5.7334,5.734 -5.7334,15.03 9.6e-4,20.764 l 129.57064,129.56163 c 5.735,5.73437 15.03,5.73437 20.765,0 l 129.565,-129.56163 z"
       id="path11" /><path
       inkscape:connector-curvature="0"
       style="fill:#000000;fill-rule:nonzero;stroke:none"
       d="m -450.00781,-506.68977 c -4.09571,4.095 -4.09571,10.736 0,14.832 l 130.28629,130.2833 c 4.096,4.0957 10.736,4.0957 14.833,0 l 130.288,-130.2833 c 4.097,-4.096 4.097,-10.737 0,-14.832 l -130.285,-130.283 c -4.097,-4.096 -10.737,-4.096 -14.833,0 l -130.28929,130.283 z"
       id="path13" /><path
       inkscape:connector-curvature="0"
       style="fill:#ef7c23;fill-rule:nonzero;stroke:none"
       d="m -446.19925,-502.71977 c -1.99313,1.992 -1.99313,5.222 0,7.215 l 130.28687,130.28287 c 1.992,1.99313 5.222,1.99313 7.215,0 l 130.289,-130.28287 c 1.993,-1.993 1.993,-5.223 8e-4,-7.215 l -130.287,-130.284 c -1.993,-1.993 -5.223,-1.993 -7.215,0 l -130.28967,130.284 z"
       id="path15" /><path
       inkscape:connector-curvature="0"
       style="fill:#000000;fill-rule:nonzero;stroke:none"
       d="m -337.10775,-580.1085 c 0,13.699 11.105,24.804 24.804,24.804 13.698,0 24.803,-11.105 24.803,-24.804 0,-13.698 -11.105,-24.803 -24.803,-24.803 -13.699,0 -24.804,11.105 -24.804,24.803 z"
       id="path17" /><path
       inkscape:connector-curvature="0"
       style="fill:#000000;fill-rule:nonzero;stroke:none"
       d="m -312.30375,-395.7141 c 17.612,0 31.89,-14.3028 31.89,-31.8897 0,-17.5752 -26.504,-116.9293 -26.504,-116.9293 l -10.773,0 c 0,0 -26.504,99.3541 -26.504,116.9293 0,17.5869 14.278,31.8897 31.891,31.8897 z"
       id="path19" /><path
       inkscape:connector-curvature="0"
       style="fill:#ef7c23;fill-rule:nonzero;stroke:none"
       d="m -446.95321,-658.27979 c 0,7.8271 6.34571,14.1728 14.1729,14.1728 l 240.9461,0 c 7.828,0 14.172,-6.3457 14.172,-14.1728 l 0,-56.6934 c 0,-7.8271 -6.344,-14.1728 -14.172,-14.1728 l -240.9461,0 c -7.82719,0 -14.1729,6.3457 -14.1729,14.1728 l 0,56.6934 z"
       id="path11-1" /><path
       inkscape:connector-curvature="0"
       style="fill:#000000;fill-rule:nonzero;stroke:none"
       d="m -444.11825,-658.27987 c 0,6.26175 5.07617,11.3389 11.3379,11.3389 l 240.9461,0 c 6.261,0 11.338,-5.07715 11.338,-11.3389 l 0,-56.6934 c 0,-6.2616 -5.077,-11.33871 -11.338,-11.33871 l -240.9461,0 c -6.26173,0 -11.3379,5.07711 -11.3379,11.33871 l 0,56.6934 z"
       id="path13-7" /><path
       inkscape:connector-curvature="0"
       style="fill:#ef7c23;fill-rule:nonzero;stroke:none"
       d="m -439.8663,-658.27982 c 0,3.9131 3.17287,7.08592 7.08687,7.08592 l 240.94513,0 c 3.914,0 7.086,-3.17282 7.086,-7.08592 l 0,-56.69338 c 0,-3.914 -3.172,-7.0859 -7.086,-7.0859 l -240.94513,0 c -3.914,0 -7.08687,3.1719 -7.08687,7.0859 l 0,56.69338 z"
       id="path15-4" /><path
       inkscape:connector-curvature="0"
       style="fill:#000000;fill-rule:evenodd;stroke:none"
       d="m -399.76281,-687.70649 4.7481,0 c 1.748,0 3.0713,-0.8741 3.9687,-2.6221 0.6621,-1.252 0.9922,-2.6338 0.9922,-4.1455 0,-0.9453 -0.2949,-1.878 -0.8857,-2.7989 -0.6846,-1.0634 -1.5469,-1.5947 -2.586,-1.5947 l -6.2373,0 0,11.1612 z m 0,14.3505 5.3155,0 c 1.6298,0 2.7285,-0.5078 3.2959,-1.5234 0.3535,-0.6377 0.5312,-1.6533 0.5312,-3.0469 0,-1.0635 -0.3193,-2.0674 -0.957,-3.0127 -0.7559,-1.1338 -1.7481,-1.7002 -2.9766,-1.7002 l -5.209,0 0,9.2832 z m -4.747,-30.5078 11.1962,0 c 2.5508,0 4.6182,0.9688 6.2012,2.9053 1.3936,1.748 2.0899,3.7793 2.0899,6.0947 0,4.6533 -1.5352,7.8184 -4.6055,9.4961 1.5117,1.1572 2.5391,2.3028 3.082,3.4365 0.543,1.1338 0.8155,2.6465 0.8155,4.5362 0,2.2676 -0.6026,4.2285 -1.8077,5.8818 -1.4873,2.0547 -3.6377,3.083 -6.4482,3.083 l -10.5234,0 0,-35.4336 z"
       id="path17-6" /><path
       inkscape:connector-curvature="0"
       style="fill:#000000;fill-rule:nonzero;stroke:none"
       d="m -377.54601,-668.43019 0,-35.4336 17.7168,0 0,4.6768 -12.6855,0 0,30.7568 -5.0313,0 z"
       id="path19-1" /><path
       inkscape:connector-curvature="0"
       style="fill:#000000;fill-rule:evenodd;stroke:none"
       d="m -347.25111,-689.12349 2.4809,9.5312 2.515,-9.5312 -4.9959,0 z m -8.4687,-14.7403 5.1377,0 2.374,9.8506 7.2289,0 2.551,-9.8506 5.067,0 -8.894,35.4336 -4.9959,0 -8.4687,-35.4336 z"
       id="path21" /><path
       inkscape:connector-curvature="0"
       style="fill:#000000;fill-rule:nonzero;stroke:none"
       d="m -327.44421,-693.55319 c 0,-3.5186 0.969,-6.2715 2.905,-8.2549 1.772,-1.8193 4.052,-2.7285 6.839,-2.7285 2.717,0 4.984,0.8974 6.804,2.6924 1.889,1.8896 2.834,4.3701 2.834,7.4414 0,5.9521 -3.402,10.6064 -10.205,13.9599 -1.607,0.7803 -2.41,2.1504 -2.41,4.1104 0,1.0156 0.45,1.9013 1.347,2.6572 0.826,0.709 1.736,1.0635 2.729,1.0635 0.874,0 1.712,-0.461 2.515,-1.3819 0.827,-0.8974 1.24,-1.7949 1.24,-2.6923 l 4.89,0 c 0,2.5507 -0.827,4.6767 -2.48,6.3769 -1.63,1.7246 -3.685,2.5869 -6.165,2.5869 -2.386,0 -4.477,-0.8144 -6.272,-2.4453 -1.891,-1.6767 -2.835,-3.708 -2.835,-6.0937 0,-1.583 0.343,-3.083 1.027,-4.5 0.685,-1.3936 1.619,-2.5157 2.8,-3.3662 1.629,-0.9922 3.26,-1.9844 4.89,-2.9766 1.724,-1.2285 2.893,-2.8467 3.508,-4.8545 0.259,-0.8496 0.389,-1.665 0.389,-2.4443 0,-1.5127 -0.425,-2.7764 -1.275,-3.792 -0.827,-1.0157 -1.938,-1.5117 -3.331,-1.4883 -1.677,0.0234 -2.882,0.5322 -3.614,1.5244 -0.708,0.9922 -1.076,2.5273 -1.098,4.6055 l -5.032,0 z"
       id="path23" /><path
       inkscape:connector-curvature="0"
       style="fill:#000000;fill-rule:nonzero;stroke:none"
       d="m -301.89621,-668.43019 0,-4.6777 6.306,0 0,-30.7559 5.209,0 0,30.7559 6.2,0 0,4.6777 -17.715,0 z"
       id="path25" /><path
       inkscape:connector-curvature="0"
       style="fill:#000000;fill-rule:nonzero;stroke:none"
       d="m -277.98021,-703.86379 4.961,0 0,35.4336 -4.961,0 0,-35.4336 z"
       id="path27" /><path
       inkscape:connector-curvature="0"
       style="fill:#000000;fill-rule:nonzero;stroke:none"
       d="m -265.47321,-668.43019 0,-35.4336 4.889,0 0,23.2793 10.56,-23.2793 4.039,0 0,35.4336 -5.137,0 0,-20.4804 -9.462,20.4804 -4.889,0 z"
       id="path29" /><path
       inkscape:connector-curvature="0"
       style="fill:#000000;fill-rule:nonzero;stroke:none"
       d="m -224.30021,-676.89989 5.137,0 c 0,2.5518 -0.933,4.7139 -2.799,6.4844 -1.843,1.7959 -4.039,2.6933 -6.591,2.6933 -4.039,0 -6.861,-2.1972 -8.467,-6.5898 -1.087,-2.9297 -1.63,-7.0401 -1.63,-12.3311 0,-4.7246 0.566,-8.5517 1.7,-11.4804 1.678,-4.2764 4.476,-6.4131 8.397,-6.4131 1.961,0 3.722,0.4843 5.281,1.4521 1.417,0.874 2.444,1.9844 3.083,3.3311 0.636,1.3701 0.956,3.4013 0.956,6.0947 l 0,7.0156 -9.072,0 0,-5.1025 4.252,0 0,-4.0039 c 0,-0.9922 -0.495,-1.8897 -1.487,-2.6924 -0.969,-0.8037 -1.973,-1.2051 -3.013,-1.2051 -3.353,0 -5.031,4.0391 -5.031,12.1182 l 0,2.126 c 0,8.4091 1.678,12.6142 5.031,12.6142 1.3,0 2.328,-0.3672 3.083,-1.0986 0.781,-0.709 1.17,-1.7129 1.17,-3.0127 z"
       id="path31" /></g></svg>