<?xml version="1.0" encoding="UTF-8" standalone="no"?>
<!-- Created with Inkscape (http://www.inkscape.org/) -->

<svg
   xmlns:dc="http://purl.org/dc/elements/1.1/"
   xmlns:cc="http://creativecommons.org/ns#"
   xmlns:rdf="http://www.w3.org/1999/02/22-rdf-syntax-ns#"
   xmlns:svg="http://www.w3.org/2000/svg"
   xmlns="http://www.w3.org/2000/svg"
   xmlns:sodipodi="http://sodipodi.sourceforge.net/DTD/sodipodi-0.dtd"
   xmlns:inkscape="http://www.inkscape.org/namespaces/inkscape"
   version="1.1"
   width="586"
   height="587.15625"
   id="svg2989"
   sodipodi:docname="nz_state_highway_sheild.svg"
   inkscape:version="0.92.2 (5c3e80d, 2017-08-06)">
  <sodipodi:namedview
     pagecolor="#ffffff"
     bordercolor="#666666"
     borderopacity="1"
     objecttolerance="10"
     gridtolerance="10"
     guidetolerance="10"
     inkscape:pageopacity="0"
     inkscape:pageshadow="2"
     inkscape:window-width="1920"
     inkscape:window-height="1017"
     id="namedview4526"
     showgrid="false"
     inkscape:pagecheckerboard="true"
     inkscape:zoom="1.3420618"
     inkscape:cx="293"
     inkscape:cy="293.57812"
     inkscape:window-x="-8"
     inkscape:window-y="-8"
     inkscape:window-maximized="1"
     inkscape:current-layer="svg2989" />
  <defs
     id="defs2991" />
  <metadata
     id="metadata2994">
    <rdf:RDF>
      <cc:Work
         rdf:about="">
        <dc:format>image/svg+xml</dc:format>
        <dc:type
           rdf:resource="http://purl.org/dc/dcmitype/StillImage" />
        <dc:title></dc:title>
      </cc:Work>
    </rdf:RDF>
  </metadata>
  <path
     inkscape:connector-curvature="0"
     style="fill:#ffffff;fill-opacity:1;fill-rule:nonzero;stroke:none;stroke-opacity:1"
     id="path2997"
     d="M 62.25,0.5 C 22.255609,62.64486 0.49999799,135.458 0.5,210.5 c 3.88e-6,144.85103 79.372282,271.1634 197,337.81252 29.62567,16.7862 61.67843,29.7839 95.5,38.3437 33.82157,-8.5598 65.87433,-21.5575 95.5,-38.3437 117.62772,-66.64912 197,-192.96149 197,-337.81252 0,-75.042 -21.75561,-147.85514 -61.75,-210 -1.67366,0.55915 -461.5,0 -461.5,0 z" />
  <path
     inkscape:connector-curvature="0"
     style="fill:#ba312b;fill-opacity:1;fill-rule:nonzero;stroke:none"
     id="path3808"
     d="M 73.84375,23.5 C 41.153385,79.10532 23.499998,142.89575 23.5,208.5 c 4e-6,131.56276 69.605194,246.86378 174,311.09375 29.34604,18.05547 61.42936,32.07127 95.5,41.28127 34.07064,-9.21 66.15396,-23.2258 95.5,-41.28127 104.39481,-64.22997 174,-179.53099 174,-311.09375 0,-65.60425 -17.65339,-129.39468 -50.34375,-185 -0.41102,1.06019 -438.3125,0 -438.3125,0 z" />
  <text
     style="font-style:normal;font-variant:normal;font-weight:normal;font-stretch:normal;font-size:36px;line-height:125%;font-family:'Roadgeek 2005 Series C';-inkscape-font-specification:'Roadgeek 2005 Series C';text-align:center;letter-spacing:0px;word-spacing:0px;writing-mode:lr-tb;text-anchor:middle;fill:#000000;fill-opacity:1;stroke:none"
     xml:space="preserve"
     id="text3825"
     y="194.88087"
     x="727.54468"><tspan
       id="tspan3827"
       y="194.88087"
       x="727.54468" /></text>
</svg>
